%TF.GenerationSoftware,KiCad,Pcbnew,(5.1.10)-1*%
%TF.CreationDate,2021-09-19T12:36:10+02:00*%
%TF.ProjectId,stm32f446re_carrier_board,73746d33-3266-4343-9436-72655f636172,rev?*%
%TF.SameCoordinates,Original*%
%TF.FileFunction,Legend,Bot*%
%TF.FilePolarity,Positive*%
%FSLAX46Y46*%
G04 Gerber Fmt 4.6, Leading zero omitted, Abs format (unit mm)*
G04 Created by KiCad (PCBNEW (5.1.10)-1) date 2021-09-19 12:36:10*
%MOMM*%
%LPD*%
G01*
G04 APERTURE LIST*
%ADD10C,0.250000*%
%ADD11C,0.100000*%
%ADD12C,0.200000*%
G04 APERTURE END LIST*
D10*
X112077380Y-97857738D02*
X112077380Y-98429166D01*
X113077380Y-98143452D02*
X112077380Y-98143452D01*
X113029761Y-99143452D02*
X113077380Y-99048214D01*
X113077380Y-98857738D01*
X113029761Y-98762500D01*
X112934523Y-98714880D01*
X112553571Y-98714880D01*
X112458333Y-98762500D01*
X112410714Y-98857738D01*
X112410714Y-99048214D01*
X112458333Y-99143452D01*
X112553571Y-99191071D01*
X112648809Y-99191071D01*
X112744047Y-98714880D01*
X113077380Y-99762500D02*
X113029761Y-99667261D01*
X112934523Y-99619642D01*
X112077380Y-99619642D01*
X113077380Y-100286309D02*
X113029761Y-100191071D01*
X112934523Y-100143452D01*
X112077380Y-100143452D01*
X112410714Y-101095833D02*
X113077380Y-101095833D01*
X112410714Y-100667261D02*
X112934523Y-100667261D01*
X113029761Y-100714880D01*
X113077380Y-100810119D01*
X113077380Y-100952976D01*
X113029761Y-101048214D01*
X112982142Y-101095833D01*
X113077380Y-101572023D02*
X112410714Y-101572023D01*
X112601190Y-101572023D02*
X112505952Y-101619642D01*
X112458333Y-101667261D01*
X112410714Y-101762500D01*
X112410714Y-101857738D01*
X112696428Y-102952976D02*
X112696428Y-103714880D01*
X113029761Y-104905357D02*
X113077380Y-105048214D01*
X113077380Y-105286309D01*
X113029761Y-105381547D01*
X112982142Y-105429166D01*
X112886904Y-105476785D01*
X112791666Y-105476785D01*
X112696428Y-105429166D01*
X112648809Y-105381547D01*
X112601190Y-105286309D01*
X112553571Y-105095833D01*
X112505952Y-105000595D01*
X112458333Y-104952976D01*
X112363095Y-104905357D01*
X112267857Y-104905357D01*
X112172619Y-104952976D01*
X112125000Y-105000595D01*
X112077380Y-105095833D01*
X112077380Y-105333928D01*
X112125000Y-105476785D01*
X112077380Y-105762500D02*
X112077380Y-106333928D01*
X113077380Y-106048214D02*
X112077380Y-106048214D01*
X113077380Y-106667261D02*
X112077380Y-106667261D01*
X112791666Y-107000595D01*
X112077380Y-107333928D01*
X113077380Y-107333928D01*
X112077380Y-107714880D02*
X112077380Y-108333928D01*
X112458333Y-108000595D01*
X112458333Y-108143452D01*
X112505952Y-108238690D01*
X112553571Y-108286309D01*
X112648809Y-108333928D01*
X112886904Y-108333928D01*
X112982142Y-108286309D01*
X113029761Y-108238690D01*
X113077380Y-108143452D01*
X113077380Y-107857738D01*
X113029761Y-107762500D01*
X112982142Y-107714880D01*
X112172619Y-108714880D02*
X112125000Y-108762500D01*
X112077380Y-108857738D01*
X112077380Y-109095833D01*
X112125000Y-109191071D01*
X112172619Y-109238690D01*
X112267857Y-109286309D01*
X112363095Y-109286309D01*
X112505952Y-109238690D01*
X113077380Y-108667261D01*
X113077380Y-109286309D01*
X112553571Y-110048214D02*
X112553571Y-109714880D01*
X113077380Y-109714880D02*
X112077380Y-109714880D01*
X112077380Y-110191071D01*
X112410714Y-111000595D02*
X113077380Y-111000595D01*
X112029761Y-110762500D02*
X112744047Y-110524404D01*
X112744047Y-111143452D01*
X112410714Y-111952976D02*
X113077380Y-111952976D01*
X112029761Y-111714880D02*
X112744047Y-111476785D01*
X112744047Y-112095833D01*
X112077380Y-112905357D02*
X112077380Y-112714880D01*
X112125000Y-112619642D01*
X112172619Y-112572023D01*
X112315476Y-112476785D01*
X112505952Y-112429166D01*
X112886904Y-112429166D01*
X112982142Y-112476785D01*
X113029761Y-112524404D01*
X113077380Y-112619642D01*
X113077380Y-112810119D01*
X113029761Y-112905357D01*
X112982142Y-112952976D01*
X112886904Y-113000595D01*
X112648809Y-113000595D01*
X112553571Y-112952976D01*
X112505952Y-112905357D01*
X112458333Y-112810119D01*
X112458333Y-112619642D01*
X112505952Y-112524404D01*
X112553571Y-112476785D01*
X112648809Y-112429166D01*
X112077380Y-114048214D02*
X113077380Y-114381547D01*
X112077380Y-114714880D01*
X112077380Y-115238690D02*
X112077380Y-115333928D01*
X112125000Y-115429166D01*
X112172619Y-115476785D01*
X112267857Y-115524404D01*
X112458333Y-115572023D01*
X112696428Y-115572023D01*
X112886904Y-115524404D01*
X112982142Y-115476785D01*
X113029761Y-115429166D01*
X113077380Y-115333928D01*
X113077380Y-115238690D01*
X113029761Y-115143452D01*
X112982142Y-115095833D01*
X112886904Y-115048214D01*
X112696428Y-115000595D01*
X112458333Y-115000595D01*
X112267857Y-115048214D01*
X112172619Y-115095833D01*
X112125000Y-115143452D01*
X112077380Y-115238690D01*
X112982142Y-116000595D02*
X113029761Y-116048214D01*
X113077380Y-116000595D01*
X113029761Y-115952976D01*
X112982142Y-116000595D01*
X113077380Y-116000595D01*
X113077380Y-117000595D02*
X113077380Y-116429166D01*
X113077380Y-116714880D02*
X112077380Y-116714880D01*
X112220238Y-116619642D01*
X112315476Y-116524404D01*
X112363095Y-116429166D01*
X114827380Y-98000595D02*
X113827380Y-98000595D01*
X114208333Y-98000595D02*
X114160714Y-98095833D01*
X114160714Y-98286309D01*
X114208333Y-98381547D01*
X114255952Y-98429166D01*
X114351190Y-98476785D01*
X114636904Y-98476785D01*
X114732142Y-98429166D01*
X114779761Y-98381547D01*
X114827380Y-98286309D01*
X114827380Y-98095833D01*
X114779761Y-98000595D01*
X114160714Y-98810119D02*
X114827380Y-99048214D01*
X114160714Y-99286309D02*
X114827380Y-99048214D01*
X115065476Y-98952976D01*
X115113095Y-98905357D01*
X115160714Y-98810119D01*
X114827380Y-100429166D02*
X113827380Y-100429166D01*
X114541666Y-100762500D01*
X113827380Y-101095833D01*
X114827380Y-101095833D01*
X114827380Y-102000595D02*
X114303571Y-102000595D01*
X114208333Y-101952976D01*
X114160714Y-101857738D01*
X114160714Y-101667261D01*
X114208333Y-101572023D01*
X114779761Y-102000595D02*
X114827380Y-101905357D01*
X114827380Y-101667261D01*
X114779761Y-101572023D01*
X114684523Y-101524404D01*
X114589285Y-101524404D01*
X114494047Y-101572023D01*
X114446428Y-101667261D01*
X114446428Y-101905357D01*
X114398809Y-102000595D01*
X114827380Y-102381547D02*
X114160714Y-102905357D01*
X114160714Y-102381547D02*
X114827380Y-102905357D01*
X114541666Y-104000595D02*
X114541666Y-104476785D01*
X114827380Y-103905357D02*
X113827380Y-104238690D01*
X114827380Y-104572023D01*
X114827380Y-105048214D02*
X114779761Y-104952976D01*
X114684523Y-104905357D01*
X113827380Y-104905357D01*
X114160714Y-105286309D02*
X114160714Y-105667261D01*
X113827380Y-105429166D02*
X114684523Y-105429166D01*
X114779761Y-105476785D01*
X114827380Y-105572023D01*
X114827380Y-105667261D01*
X114827380Y-106000595D02*
X114160714Y-106000595D01*
X114351190Y-106000595D02*
X114255952Y-106048214D01*
X114208333Y-106095833D01*
X114160714Y-106191071D01*
X114160714Y-106286309D01*
X114827380Y-106619642D02*
X114160714Y-106619642D01*
X113827380Y-106619642D02*
X113875000Y-106572023D01*
X113922619Y-106619642D01*
X113875000Y-106667261D01*
X113827380Y-106619642D01*
X113922619Y-106619642D01*
X114779761Y-107524404D02*
X114827380Y-107429166D01*
X114827380Y-107238690D01*
X114779761Y-107143452D01*
X114732142Y-107095833D01*
X114636904Y-107048214D01*
X114351190Y-107048214D01*
X114255952Y-107095833D01*
X114208333Y-107143452D01*
X114160714Y-107238690D01*
X114160714Y-107429166D01*
X114208333Y-107524404D01*
X114827380Y-107952976D02*
X113827380Y-107952976D01*
X114827380Y-108381547D02*
X114303571Y-108381547D01*
X114208333Y-108333928D01*
X114160714Y-108238690D01*
X114160714Y-108095833D01*
X114208333Y-108000595D01*
X114255952Y-107952976D01*
X114160714Y-108714880D02*
X114160714Y-109095833D01*
X113827380Y-108857738D02*
X114684523Y-108857738D01*
X114779761Y-108905357D01*
X114827380Y-109000595D01*
X114827380Y-109095833D01*
X114779761Y-109810119D02*
X114827380Y-109714880D01*
X114827380Y-109524404D01*
X114779761Y-109429166D01*
X114684523Y-109381547D01*
X114303571Y-109381547D01*
X114208333Y-109429166D01*
X114160714Y-109524404D01*
X114160714Y-109714880D01*
X114208333Y-109810119D01*
X114303571Y-109857738D01*
X114398809Y-109857738D01*
X114494047Y-109381547D01*
X114827380Y-110286309D02*
X114160714Y-110286309D01*
X114351190Y-110286309D02*
X114255952Y-110333928D01*
X114208333Y-110381547D01*
X114160714Y-110476785D01*
X114160714Y-110572023D01*
D11*
%TO.C,J2*%
X126353000Y-109882000D02*
X126353000Y-109882000D01*
X126353000Y-109982000D02*
X126353000Y-109982000D01*
D12*
X122553000Y-110632000D02*
X125703000Y-110632000D01*
X122553000Y-111582000D02*
X122553000Y-110632000D01*
X153653000Y-110632000D02*
X150503000Y-110632000D01*
X153653000Y-111582000D02*
X153653000Y-110632000D01*
X153653000Y-116532000D02*
X153653000Y-115582000D01*
X150503000Y-116532000D02*
X153653000Y-116532000D01*
X122553000Y-116532000D02*
X125703000Y-116532000D01*
X122553000Y-115582000D02*
X122553000Y-116532000D01*
D11*
X126353000Y-109882000D02*
G75*
G03*
X126353000Y-109982000I0J-50000D01*
G01*
X126353000Y-109982000D02*
G75*
G03*
X126353000Y-109882000I0J50000D01*
G01*
%TD*%
M02*
