%TF.GenerationSoftware,KiCad,Pcbnew,(5.1.10)-1*%
%TF.CreationDate,2021-09-19T12:36:10+02:00*%
%TF.ProjectId,stm32f446re_carrier_board,73746d33-3266-4343-9436-72655f636172,rev?*%
%TF.SameCoordinates,Original*%
%TF.FileFunction,Soldermask,Bot*%
%TF.FilePolarity,Negative*%
%FSLAX46Y46*%
G04 Gerber Fmt 4.6, Leading zero omitted, Abs format (unit mm)*
G04 Created by KiCad (PCBNEW (5.1.10)-1) date 2021-09-19 12:36:10*
%MOMM*%
%LPD*%
G01*
G04 APERTURE LIST*
%ADD10C,0.800000*%
%ADD11C,1.300000*%
%ADD12O,1.000000X1.000000*%
%ADD13R,1.000000X1.000000*%
%ADD14C,2.400000*%
%ADD15R,2.400000X2.400000*%
%ADD16C,0.700000*%
%ADD17C,4.400000*%
%ADD18C,2.640000*%
%ADD19C,1.200000*%
%ADD20R,0.300000X1.100000*%
%ADD21R,0.700000X1.500000*%
%ADD22R,1.600000X3.100000*%
G04 APERTURE END LIST*
D10*
%TO.C,SW1*%
X117100000Y-104550000D03*
X117090000Y-98250000D03*
D11*
X119210000Y-100400000D03*
X119210000Y-98400000D03*
X119200000Y-102400000D03*
%TD*%
D12*
%TO.C,J4*%
X118870000Y-87880000D03*
X117600000Y-87880000D03*
X118870000Y-86610000D03*
X117600000Y-86610000D03*
X118870000Y-85340000D03*
X117600000Y-85340000D03*
X118870000Y-84070000D03*
X117600000Y-84070000D03*
X118870000Y-82800000D03*
D13*
X117600000Y-82800000D03*
%TD*%
D14*
%TO.C,J1*%
X147300000Y-66400000D03*
D15*
X150800000Y-66400000D03*
%TD*%
D16*
%TO.C,H4*%
X115366726Y-119033274D03*
X114200000Y-118550000D03*
X113033274Y-119033274D03*
X112550000Y-120200000D03*
X113033274Y-121366726D03*
X114200000Y-121850000D03*
X115366726Y-121366726D03*
X115850000Y-120200000D03*
D17*
X114200000Y-120200000D03*
%TD*%
D16*
%TO.C,H3*%
X163166726Y-119033274D03*
X162000000Y-118550000D03*
X160833274Y-119033274D03*
X160350000Y-120200000D03*
X160833274Y-121366726D03*
X162000000Y-121850000D03*
X163166726Y-121366726D03*
X163650000Y-120200000D03*
D17*
X162000000Y-120200000D03*
%TD*%
D16*
%TO.C,H2*%
X115366726Y-63633274D03*
X114200000Y-63150000D03*
X113033274Y-63633274D03*
X112550000Y-64800000D03*
X113033274Y-65966726D03*
X114200000Y-66450000D03*
X115366726Y-65966726D03*
X115850000Y-64800000D03*
D17*
X114200000Y-64800000D03*
%TD*%
D16*
%TO.C,H1*%
X163166726Y-63633274D03*
X162000000Y-63150000D03*
X160833274Y-63633274D03*
X160350000Y-64800000D03*
X160833274Y-65966726D03*
X162000000Y-66450000D03*
X163166726Y-65966726D03*
X163650000Y-64800000D03*
D17*
X162000000Y-64800000D03*
%TD*%
D18*
%TO.C,J3*%
X134675000Y-64300000D03*
X141925000Y-64300000D03*
D19*
X135875000Y-66980000D03*
X140725000Y-66980000D03*
%TD*%
D20*
%TO.C,J2*%
X126353000Y-110982000D03*
X126353000Y-116182000D03*
X126853000Y-110982000D03*
X126853000Y-116182000D03*
X127353000Y-110982000D03*
X127353000Y-116182000D03*
X127853000Y-110982000D03*
X127853000Y-116182000D03*
X128353000Y-110982000D03*
X128353000Y-116182000D03*
X129853000Y-110982000D03*
X129853000Y-116182000D03*
X130353000Y-110982000D03*
X130353000Y-116182000D03*
X130853000Y-110982000D03*
X130853000Y-116182000D03*
X131353000Y-110982000D03*
X131353000Y-116182000D03*
X131853000Y-110982000D03*
X131853000Y-116182000D03*
X132353000Y-110982000D03*
X132353000Y-116182000D03*
X132853000Y-110982000D03*
X132853000Y-116182000D03*
X133353000Y-110982000D03*
X133353000Y-116182000D03*
X133853000Y-110982000D03*
X133853000Y-116182000D03*
X134353000Y-110982000D03*
X134353000Y-116182000D03*
X135853000Y-110982000D03*
X135853000Y-116182000D03*
X136353000Y-110982000D03*
X136353000Y-116182000D03*
X136853000Y-110982000D03*
X136853000Y-116182000D03*
X137353000Y-110982000D03*
X137353000Y-116182000D03*
X137853000Y-110982000D03*
X137853000Y-116182000D03*
X138353000Y-110982000D03*
X138353000Y-116182000D03*
X138853000Y-110982000D03*
X138853000Y-116182000D03*
X139353000Y-110982000D03*
X139353000Y-116182000D03*
X139853000Y-110982000D03*
X139853000Y-116182000D03*
X140353000Y-110982000D03*
X140353000Y-116182000D03*
X141853000Y-110982000D03*
X141853000Y-116182000D03*
X142353000Y-110982000D03*
X142353000Y-116182000D03*
X142853000Y-110982000D03*
X142853000Y-116182000D03*
X143353000Y-110982000D03*
X143353000Y-116182000D03*
X143853000Y-110982000D03*
X143853000Y-116182000D03*
X144353000Y-110982000D03*
X144353000Y-116182000D03*
X144853000Y-110982000D03*
X144853000Y-116182000D03*
X145353000Y-110982000D03*
X145353000Y-116182000D03*
X145853000Y-110982000D03*
X145853000Y-116182000D03*
X146353000Y-110982000D03*
X146353000Y-116182000D03*
X147853000Y-110982000D03*
X147853000Y-116182000D03*
X148353000Y-110982000D03*
X148353000Y-116182000D03*
X148853000Y-110982000D03*
X148853000Y-116182000D03*
X149353000Y-110982000D03*
X149353000Y-116182000D03*
X149853000Y-110982000D03*
X149853000Y-116182000D03*
D21*
X129103000Y-111182000D03*
X129103000Y-115982000D03*
X135103000Y-111182000D03*
X135103000Y-115982000D03*
X141103000Y-111182000D03*
X141103000Y-115982000D03*
X147103000Y-111182000D03*
X147103000Y-115982000D03*
D22*
X123153000Y-113582000D03*
X153053000Y-113582000D03*
%TD*%
M02*
