%TF.GenerationSoftware,KiCad,Pcbnew,(5.1.10)-1*%
%TF.CreationDate,2021-09-19T12:36:10+02:00*%
%TF.ProjectId,stm32f446re_carrier_board,73746d33-3266-4343-9436-72655f636172,rev?*%
%TF.SameCoordinates,Original*%
%TF.FileFunction,Paste,Top*%
%TF.FilePolarity,Positive*%
%FSLAX46Y46*%
G04 Gerber Fmt 4.6, Leading zero omitted, Abs format (unit mm)*
G04 Created by KiCad (PCBNEW (5.1.10)-1) date 2021-09-19 12:36:10*
%MOMM*%
%LPD*%
G01*
G04 APERTURE LIST*
%ADD10C,0.010000*%
%ADD11R,0.600000X1.100000*%
%ADD12R,1.400000X1.200000*%
%ADD13R,3.700000X1.200000*%
%ADD14R,0.900000X1.200000*%
%ADD15R,0.650000X1.060000*%
%ADD16R,0.900000X0.800000*%
%ADD17R,0.400000X1.600000*%
%ADD18R,0.700000X1.525000*%
%ADD19R,3.450000X2.560000*%
G04 APERTURE END LIST*
D10*
%TO.C,U3*%
G36*
X120540000Y-66540000D02*
G01*
X122140000Y-66540000D01*
X122140000Y-67690000D01*
X120540000Y-67690000D01*
X120540000Y-66540000D01*
G37*
X120540000Y-66540000D02*
X122140000Y-66540000D01*
X122140000Y-67690000D01*
X120540000Y-67690000D01*
X120540000Y-66540000D01*
G36*
X120540000Y-68510000D02*
G01*
X122140000Y-68510000D01*
X122140000Y-69660000D01*
X120540000Y-69660000D01*
X120540000Y-68510000D01*
G37*
X120540000Y-68510000D02*
X122140000Y-68510000D01*
X122140000Y-69660000D01*
X120540000Y-69660000D01*
X120540000Y-68510000D01*
G36*
X122060000Y-66540000D02*
G01*
X123660000Y-66540000D01*
X123660000Y-67690000D01*
X122060000Y-67690000D01*
X122060000Y-66540000D01*
G37*
X122060000Y-66540000D02*
X123660000Y-66540000D01*
X123660000Y-67690000D01*
X122060000Y-67690000D01*
X122060000Y-66540000D01*
G36*
X122060000Y-68510000D02*
G01*
X123660000Y-68510000D01*
X123660000Y-69660000D01*
X122060000Y-69660000D01*
X122060000Y-68510000D01*
G37*
X122060000Y-68510000D02*
X123660000Y-68510000D01*
X123660000Y-69660000D01*
X122060000Y-69660000D01*
X122060000Y-68510000D01*
%TD*%
%TO.C,R19*%
G36*
G01*
X115074999Y-71400000D02*
X116325001Y-71400000D01*
G75*
G02*
X116575000Y-71649999I0J-249999D01*
G01*
X116575000Y-72275001D01*
G75*
G02*
X116325001Y-72525000I-249999J0D01*
G01*
X115074999Y-72525000D01*
G75*
G02*
X114825000Y-72275001I0J249999D01*
G01*
X114825000Y-71649999D01*
G75*
G02*
X115074999Y-71400000I249999J0D01*
G01*
G37*
G36*
G01*
X115074999Y-68475000D02*
X116325001Y-68475000D01*
G75*
G02*
X116575000Y-68724999I0J-249999D01*
G01*
X116575000Y-69350001D01*
G75*
G02*
X116325001Y-69600000I-249999J0D01*
G01*
X115074999Y-69600000D01*
G75*
G02*
X114825000Y-69350001I0J249999D01*
G01*
X114825000Y-68724999D01*
G75*
G02*
X115074999Y-68475000I249999J0D01*
G01*
G37*
%TD*%
%TO.C,R18*%
G36*
G01*
X131225001Y-64937500D02*
X129974999Y-64937500D01*
G75*
G02*
X129725000Y-64687501I0J249999D01*
G01*
X129725000Y-64062499D01*
G75*
G02*
X129974999Y-63812500I249999J0D01*
G01*
X131225001Y-63812500D01*
G75*
G02*
X131475000Y-64062499I0J-249999D01*
G01*
X131475000Y-64687501D01*
G75*
G02*
X131225001Y-64937500I-249999J0D01*
G01*
G37*
G36*
G01*
X131225001Y-67862500D02*
X129974999Y-67862500D01*
G75*
G02*
X129725000Y-67612501I0J249999D01*
G01*
X129725000Y-66987499D01*
G75*
G02*
X129974999Y-66737500I249999J0D01*
G01*
X131225001Y-66737500D01*
G75*
G02*
X131475000Y-66987499I0J-249999D01*
G01*
X131475000Y-67612501D01*
G75*
G02*
X131225001Y-67862500I-249999J0D01*
G01*
G37*
%TD*%
%TO.C,C20*%
G36*
G01*
X128150000Y-64850000D02*
X127650000Y-64850000D01*
G75*
G02*
X127425000Y-64625000I0J225000D01*
G01*
X127425000Y-64175000D01*
G75*
G02*
X127650000Y-63950000I225000J0D01*
G01*
X128150000Y-63950000D01*
G75*
G02*
X128375000Y-64175000I0J-225000D01*
G01*
X128375000Y-64625000D01*
G75*
G02*
X128150000Y-64850000I-225000J0D01*
G01*
G37*
G36*
G01*
X128150000Y-66400000D02*
X127650000Y-66400000D01*
G75*
G02*
X127425000Y-66175000I0J225000D01*
G01*
X127425000Y-65725000D01*
G75*
G02*
X127650000Y-65500000I225000J0D01*
G01*
X128150000Y-65500000D01*
G75*
G02*
X128375000Y-65725000I0J-225000D01*
G01*
X128375000Y-66175000D01*
G75*
G02*
X128150000Y-66400000I-225000J0D01*
G01*
G37*
%TD*%
%TO.C,U3*%
G36*
G01*
X117735000Y-67619000D02*
X117735000Y-67311000D01*
G75*
G02*
X117801000Y-67245000I66000J0D01*
G01*
X118609000Y-67245000D01*
G75*
G02*
X118675000Y-67311000I0J-66000D01*
G01*
X118675000Y-67619000D01*
G75*
G02*
X118609000Y-67685000I-66000J0D01*
G01*
X117801000Y-67685000D01*
G75*
G02*
X117735000Y-67619000I0J66000D01*
G01*
G37*
G36*
G01*
X117735000Y-68889000D02*
X117735000Y-68581000D01*
G75*
G02*
X117801000Y-68515000I66000J0D01*
G01*
X118609000Y-68515000D01*
G75*
G02*
X118675000Y-68581000I0J-66000D01*
G01*
X118675000Y-68889000D01*
G75*
G02*
X118609000Y-68955000I-66000J0D01*
G01*
X117801000Y-68955000D01*
G75*
G02*
X117735000Y-68889000I0J66000D01*
G01*
G37*
G36*
G01*
X117735000Y-70159000D02*
X117735000Y-69851000D01*
G75*
G02*
X117801000Y-69785000I66000J0D01*
G01*
X118609000Y-69785000D01*
G75*
G02*
X118675000Y-69851000I0J-66000D01*
G01*
X118675000Y-70159000D01*
G75*
G02*
X118609000Y-70225000I-66000J0D01*
G01*
X117801000Y-70225000D01*
G75*
G02*
X117735000Y-70159000I0J66000D01*
G01*
G37*
G36*
G01*
X117735000Y-66349000D02*
X117735000Y-66041000D01*
G75*
G02*
X117801000Y-65975000I66000J0D01*
G01*
X118609000Y-65975000D01*
G75*
G02*
X118675000Y-66041000I0J-66000D01*
G01*
X118675000Y-66349000D01*
G75*
G02*
X118609000Y-66415000I-66000J0D01*
G01*
X117801000Y-66415000D01*
G75*
G02*
X117735000Y-66349000I0J66000D01*
G01*
G37*
G36*
G01*
X125525000Y-67619000D02*
X125525000Y-67311000D01*
G75*
G02*
X125591000Y-67245000I66000J0D01*
G01*
X126399000Y-67245000D01*
G75*
G02*
X126465000Y-67311000I0J-66000D01*
G01*
X126465000Y-67619000D01*
G75*
G02*
X126399000Y-67685000I-66000J0D01*
G01*
X125591000Y-67685000D01*
G75*
G02*
X125525000Y-67619000I0J66000D01*
G01*
G37*
G36*
G01*
X125525000Y-68889000D02*
X125525000Y-68581000D01*
G75*
G02*
X125591000Y-68515000I66000J0D01*
G01*
X126399000Y-68515000D01*
G75*
G02*
X126465000Y-68581000I0J-66000D01*
G01*
X126465000Y-68889000D01*
G75*
G02*
X126399000Y-68955000I-66000J0D01*
G01*
X125591000Y-68955000D01*
G75*
G02*
X125525000Y-68889000I0J66000D01*
G01*
G37*
G36*
G01*
X125525000Y-70159000D02*
X125525000Y-69851000D01*
G75*
G02*
X125591000Y-69785000I66000J0D01*
G01*
X126399000Y-69785000D01*
G75*
G02*
X126465000Y-69851000I0J-66000D01*
G01*
X126465000Y-70159000D01*
G75*
G02*
X126399000Y-70225000I-66000J0D01*
G01*
X125591000Y-70225000D01*
G75*
G02*
X125525000Y-70159000I0J66000D01*
G01*
G37*
G36*
G01*
X125525000Y-66349000D02*
X125525000Y-66041000D01*
G75*
G02*
X125591000Y-65975000I66000J0D01*
G01*
X126399000Y-65975000D01*
G75*
G02*
X126465000Y-66041000I0J-66000D01*
G01*
X126465000Y-66349000D01*
G75*
G02*
X126399000Y-66415000I-66000J0D01*
G01*
X125591000Y-66415000D01*
G75*
G02*
X125525000Y-66349000I0J66000D01*
G01*
G37*
%TD*%
D11*
%TO.C,Y2*%
X134750000Y-98250000D03*
X133350000Y-98250000D03*
%TD*%
D12*
%TO.C,Y1*%
X135700000Y-101650000D03*
X137900000Y-101650000D03*
X137900000Y-103350000D03*
X135700000Y-103350000D03*
%TD*%
%TO.C,R13*%
G36*
G01*
X156090000Y-70510000D02*
X156090000Y-71060000D01*
G75*
G02*
X155890000Y-71260000I-200000J0D01*
G01*
X155490000Y-71260000D01*
G75*
G02*
X155290000Y-71060000I0J200000D01*
G01*
X155290000Y-70510000D01*
G75*
G02*
X155490000Y-70310000I200000J0D01*
G01*
X155890000Y-70310000D01*
G75*
G02*
X156090000Y-70510000I0J-200000D01*
G01*
G37*
G36*
G01*
X157740000Y-70510000D02*
X157740000Y-71060000D01*
G75*
G02*
X157540000Y-71260000I-200000J0D01*
G01*
X157140000Y-71260000D01*
G75*
G02*
X156940000Y-71060000I0J200000D01*
G01*
X156940000Y-70510000D01*
G75*
G02*
X157140000Y-70310000I200000J0D01*
G01*
X157540000Y-70310000D01*
G75*
G02*
X157740000Y-70510000I0J-200000D01*
G01*
G37*
%TD*%
%TO.C,R12*%
G36*
G01*
X156550001Y-73000000D02*
X155649999Y-73000000D01*
G75*
G02*
X155400000Y-72750001I0J249999D01*
G01*
X155400000Y-72224999D01*
G75*
G02*
X155649999Y-71975000I249999J0D01*
G01*
X156550001Y-71975000D01*
G75*
G02*
X156800000Y-72224999I0J-249999D01*
G01*
X156800000Y-72750001D01*
G75*
G02*
X156550001Y-73000000I-249999J0D01*
G01*
G37*
G36*
G01*
X156550001Y-74825000D02*
X155649999Y-74825000D01*
G75*
G02*
X155400000Y-74575001I0J249999D01*
G01*
X155400000Y-74049999D01*
G75*
G02*
X155649999Y-73800000I249999J0D01*
G01*
X156550001Y-73800000D01*
G75*
G02*
X156800000Y-74049999I0J-249999D01*
G01*
X156800000Y-74575001D01*
G75*
G02*
X156550001Y-74825000I-249999J0D01*
G01*
G37*
%TD*%
%TO.C,R10*%
G36*
G01*
X121229999Y-95597500D02*
X122480001Y-95597500D01*
G75*
G02*
X122730000Y-95847499I0J-249999D01*
G01*
X122730000Y-96472501D01*
G75*
G02*
X122480001Y-96722500I-249999J0D01*
G01*
X121229999Y-96722500D01*
G75*
G02*
X120980000Y-96472501I0J249999D01*
G01*
X120980000Y-95847499D01*
G75*
G02*
X121229999Y-95597500I249999J0D01*
G01*
G37*
G36*
G01*
X121229999Y-92672500D02*
X122480001Y-92672500D01*
G75*
G02*
X122730000Y-92922499I0J-249999D01*
G01*
X122730000Y-93547501D01*
G75*
G02*
X122480001Y-93797500I-249999J0D01*
G01*
X121229999Y-93797500D01*
G75*
G02*
X120980000Y-93547501I0J249999D01*
G01*
X120980000Y-92922499D01*
G75*
G02*
X121229999Y-92672500I249999J0D01*
G01*
G37*
%TD*%
%TO.C,R9*%
G36*
G01*
X125300000Y-86625001D02*
X125300000Y-85374999D01*
G75*
G02*
X125549999Y-85125000I249999J0D01*
G01*
X126175001Y-85125000D01*
G75*
G02*
X126425000Y-85374999I0J-249999D01*
G01*
X126425000Y-86625001D01*
G75*
G02*
X126175001Y-86875000I-249999J0D01*
G01*
X125549999Y-86875000D01*
G75*
G02*
X125300000Y-86625001I0J249999D01*
G01*
G37*
G36*
G01*
X122375000Y-86625001D02*
X122375000Y-85374999D01*
G75*
G02*
X122624999Y-85125000I249999J0D01*
G01*
X123250001Y-85125000D01*
G75*
G02*
X123500000Y-85374999I0J-249999D01*
G01*
X123500000Y-86625001D01*
G75*
G02*
X123250001Y-86875000I-249999J0D01*
G01*
X122624999Y-86875000D01*
G75*
G02*
X122375000Y-86625001I0J249999D01*
G01*
G37*
%TD*%
%TO.C,R8*%
G36*
G01*
X125300000Y-84225001D02*
X125300000Y-82974999D01*
G75*
G02*
X125549999Y-82725000I249999J0D01*
G01*
X126175001Y-82725000D01*
G75*
G02*
X126425000Y-82974999I0J-249999D01*
G01*
X126425000Y-84225001D01*
G75*
G02*
X126175001Y-84475000I-249999J0D01*
G01*
X125549999Y-84475000D01*
G75*
G02*
X125300000Y-84225001I0J249999D01*
G01*
G37*
G36*
G01*
X122375000Y-84225001D02*
X122375000Y-82974999D01*
G75*
G02*
X122624999Y-82725000I249999J0D01*
G01*
X123250001Y-82725000D01*
G75*
G02*
X123500000Y-82974999I0J-249999D01*
G01*
X123500000Y-84225001D01*
G75*
G02*
X123250001Y-84475000I-249999J0D01*
G01*
X122624999Y-84475000D01*
G75*
G02*
X122375000Y-84225001I0J249999D01*
G01*
G37*
%TD*%
%TO.C,R7*%
G36*
G01*
X125300000Y-81825001D02*
X125300000Y-80574999D01*
G75*
G02*
X125549999Y-80325000I249999J0D01*
G01*
X126175001Y-80325000D01*
G75*
G02*
X126425000Y-80574999I0J-249999D01*
G01*
X126425000Y-81825001D01*
G75*
G02*
X126175001Y-82075000I-249999J0D01*
G01*
X125549999Y-82075000D01*
G75*
G02*
X125300000Y-81825001I0J249999D01*
G01*
G37*
G36*
G01*
X122375000Y-81825001D02*
X122375000Y-80574999D01*
G75*
G02*
X122624999Y-80325000I249999J0D01*
G01*
X123250001Y-80325000D01*
G75*
G02*
X123500000Y-80574999I0J-249999D01*
G01*
X123500000Y-81825001D01*
G75*
G02*
X123250001Y-82075000I-249999J0D01*
G01*
X122624999Y-82075000D01*
G75*
G02*
X122375000Y-81825001I0J249999D01*
G01*
G37*
%TD*%
%TO.C,R6*%
G36*
G01*
X127600000Y-92049999D02*
X127600000Y-92950001D01*
G75*
G02*
X127350001Y-93200000I-249999J0D01*
G01*
X126824999Y-93200000D01*
G75*
G02*
X126575000Y-92950001I0J249999D01*
G01*
X126575000Y-92049999D01*
G75*
G02*
X126824999Y-91800000I249999J0D01*
G01*
X127350001Y-91800000D01*
G75*
G02*
X127600000Y-92049999I0J-249999D01*
G01*
G37*
G36*
G01*
X129425000Y-92049999D02*
X129425000Y-92950001D01*
G75*
G02*
X129175001Y-93200000I-249999J0D01*
G01*
X128649999Y-93200000D01*
G75*
G02*
X128400000Y-92950001I0J249999D01*
G01*
X128400000Y-92049999D01*
G75*
G02*
X128649999Y-91800000I249999J0D01*
G01*
X129175001Y-91800000D01*
G75*
G02*
X129425000Y-92049999I0J-249999D01*
G01*
G37*
%TD*%
%TO.C,R5*%
G36*
G01*
X127600000Y-90049999D02*
X127600000Y-90950001D01*
G75*
G02*
X127350001Y-91200000I-249999J0D01*
G01*
X126824999Y-91200000D01*
G75*
G02*
X126575000Y-90950001I0J249999D01*
G01*
X126575000Y-90049999D01*
G75*
G02*
X126824999Y-89800000I249999J0D01*
G01*
X127350001Y-89800000D01*
G75*
G02*
X127600000Y-90049999I0J-249999D01*
G01*
G37*
G36*
G01*
X129425000Y-90049999D02*
X129425000Y-90950001D01*
G75*
G02*
X129175001Y-91200000I-249999J0D01*
G01*
X128649999Y-91200000D01*
G75*
G02*
X128400000Y-90950001I0J249999D01*
G01*
X128400000Y-90049999D01*
G75*
G02*
X128649999Y-89800000I249999J0D01*
G01*
X129175001Y-89800000D01*
G75*
G02*
X129425000Y-90049999I0J-249999D01*
G01*
G37*
%TD*%
%TO.C,R3*%
G36*
G01*
X137775000Y-99000000D02*
X138325000Y-99000000D01*
G75*
G02*
X138525000Y-99200000I0J-200000D01*
G01*
X138525000Y-99600000D01*
G75*
G02*
X138325000Y-99800000I-200000J0D01*
G01*
X137775000Y-99800000D01*
G75*
G02*
X137575000Y-99600000I0J200000D01*
G01*
X137575000Y-99200000D01*
G75*
G02*
X137775000Y-99000000I200000J0D01*
G01*
G37*
G36*
G01*
X137775000Y-97350000D02*
X138325000Y-97350000D01*
G75*
G02*
X138525000Y-97550000I0J-200000D01*
G01*
X138525000Y-97950000D01*
G75*
G02*
X138325000Y-98150000I-200000J0D01*
G01*
X137775000Y-98150000D01*
G75*
G02*
X137575000Y-97950000I0J200000D01*
G01*
X137575000Y-97550000D01*
G75*
G02*
X137775000Y-97350000I200000J0D01*
G01*
G37*
%TD*%
%TO.C,R2*%
G36*
G01*
X146512500Y-99049999D02*
X146512500Y-99950001D01*
G75*
G02*
X146262501Y-100200000I-249999J0D01*
G01*
X145737499Y-100200000D01*
G75*
G02*
X145487500Y-99950001I0J249999D01*
G01*
X145487500Y-99049999D01*
G75*
G02*
X145737499Y-98800000I249999J0D01*
G01*
X146262501Y-98800000D01*
G75*
G02*
X146512500Y-99049999I0J-249999D01*
G01*
G37*
G36*
G01*
X148337500Y-99049999D02*
X148337500Y-99950001D01*
G75*
G02*
X148087501Y-100200000I-249999J0D01*
G01*
X147562499Y-100200000D01*
G75*
G02*
X147312500Y-99950001I0J249999D01*
G01*
X147312500Y-99049999D01*
G75*
G02*
X147562499Y-98800000I249999J0D01*
G01*
X148087501Y-98800000D01*
G75*
G02*
X148337500Y-99049999I0J-249999D01*
G01*
G37*
%TD*%
D13*
%TO.C,L1*%
X158300000Y-87000000D03*
X158300000Y-84200000D03*
%TD*%
%TO.C,R17*%
G36*
G01*
X163850001Y-77800000D02*
X162949999Y-77800000D01*
G75*
G02*
X162700000Y-77550001I0J249999D01*
G01*
X162700000Y-77024999D01*
G75*
G02*
X162949999Y-76775000I249999J0D01*
G01*
X163850001Y-76775000D01*
G75*
G02*
X164100000Y-77024999I0J-249999D01*
G01*
X164100000Y-77550001D01*
G75*
G02*
X163850001Y-77800000I-249999J0D01*
G01*
G37*
G36*
G01*
X163850001Y-79625000D02*
X162949999Y-79625000D01*
G75*
G02*
X162700000Y-79375001I0J249999D01*
G01*
X162700000Y-78849999D01*
G75*
G02*
X162949999Y-78600000I249999J0D01*
G01*
X163850001Y-78600000D01*
G75*
G02*
X164100000Y-78849999I0J-249999D01*
G01*
X164100000Y-79375001D01*
G75*
G02*
X163850001Y-79625000I-249999J0D01*
G01*
G37*
%TD*%
%TO.C,R16*%
G36*
G01*
X157600000Y-91794999D02*
X157600000Y-93045001D01*
G75*
G02*
X157350001Y-93295000I-249999J0D01*
G01*
X156724999Y-93295000D01*
G75*
G02*
X156475000Y-93045001I0J249999D01*
G01*
X156475000Y-91794999D01*
G75*
G02*
X156724999Y-91545000I249999J0D01*
G01*
X157350001Y-91545000D01*
G75*
G02*
X157600000Y-91794999I0J-249999D01*
G01*
G37*
G36*
G01*
X160525000Y-91794999D02*
X160525000Y-93045001D01*
G75*
G02*
X160275001Y-93295000I-249999J0D01*
G01*
X159649999Y-93295000D01*
G75*
G02*
X159400000Y-93045001I0J249999D01*
G01*
X159400000Y-91794999D01*
G75*
G02*
X159649999Y-91545000I249999J0D01*
G01*
X160275001Y-91545000D01*
G75*
G02*
X160525000Y-91794999I0J-249999D01*
G01*
G37*
%TD*%
%TO.C,R15*%
G36*
G01*
X163775000Y-81200000D02*
X163225000Y-81200000D01*
G75*
G02*
X163025000Y-81000000I0J200000D01*
G01*
X163025000Y-80600000D01*
G75*
G02*
X163225000Y-80400000I200000J0D01*
G01*
X163775000Y-80400000D01*
G75*
G02*
X163975000Y-80600000I0J-200000D01*
G01*
X163975000Y-81000000D01*
G75*
G02*
X163775000Y-81200000I-200000J0D01*
G01*
G37*
G36*
G01*
X163775000Y-82850000D02*
X163225000Y-82850000D01*
G75*
G02*
X163025000Y-82650000I0J200000D01*
G01*
X163025000Y-82250000D01*
G75*
G02*
X163225000Y-82050000I200000J0D01*
G01*
X163775000Y-82050000D01*
G75*
G02*
X163975000Y-82250000I0J-200000D01*
G01*
X163975000Y-82650000D01*
G75*
G02*
X163775000Y-82850000I-200000J0D01*
G01*
G37*
%TD*%
%TO.C,R14*%
G36*
G01*
X160374999Y-79842500D02*
X161625001Y-79842500D01*
G75*
G02*
X161875000Y-80092499I0J-249999D01*
G01*
X161875000Y-80717501D01*
G75*
G02*
X161625001Y-80967500I-249999J0D01*
G01*
X160374999Y-80967500D01*
G75*
G02*
X160125000Y-80717501I0J249999D01*
G01*
X160125000Y-80092499D01*
G75*
G02*
X160374999Y-79842500I249999J0D01*
G01*
G37*
G36*
G01*
X160374999Y-76917500D02*
X161625001Y-76917500D01*
G75*
G02*
X161875000Y-77167499I0J-249999D01*
G01*
X161875000Y-77792501D01*
G75*
G02*
X161625001Y-78042500I-249999J0D01*
G01*
X160374999Y-78042500D01*
G75*
G02*
X160125000Y-77792501I0J249999D01*
G01*
X160125000Y-77167499D01*
G75*
G02*
X160374999Y-76917500I249999J0D01*
G01*
G37*
%TD*%
%TO.C,R11*%
G36*
G01*
X153074999Y-73700000D02*
X154325001Y-73700000D01*
G75*
G02*
X154575000Y-73949999I0J-249999D01*
G01*
X154575000Y-74575001D01*
G75*
G02*
X154325001Y-74825000I-249999J0D01*
G01*
X153074999Y-74825000D01*
G75*
G02*
X152825000Y-74575001I0J249999D01*
G01*
X152825000Y-73949999D01*
G75*
G02*
X153074999Y-73700000I249999J0D01*
G01*
G37*
G36*
G01*
X153074999Y-70775000D02*
X154325001Y-70775000D01*
G75*
G02*
X154575000Y-71024999I0J-249999D01*
G01*
X154575000Y-71650001D01*
G75*
G02*
X154325001Y-71900000I-249999J0D01*
G01*
X153074999Y-71900000D01*
G75*
G02*
X152825000Y-71650001I0J249999D01*
G01*
X152825000Y-71024999D01*
G75*
G02*
X153074999Y-70775000I249999J0D01*
G01*
G37*
%TD*%
%TO.C,R4*%
G36*
G01*
X149137500Y-89325001D02*
X149137500Y-88074999D01*
G75*
G02*
X149387499Y-87825000I249999J0D01*
G01*
X150012501Y-87825000D01*
G75*
G02*
X150262500Y-88074999I0J-249999D01*
G01*
X150262500Y-89325001D01*
G75*
G02*
X150012501Y-89575000I-249999J0D01*
G01*
X149387499Y-89575000D01*
G75*
G02*
X149137500Y-89325001I0J249999D01*
G01*
G37*
G36*
G01*
X146212500Y-89325001D02*
X146212500Y-88074999D01*
G75*
G02*
X146462499Y-87825000I249999J0D01*
G01*
X147087501Y-87825000D01*
G75*
G02*
X147337500Y-88074999I0J-249999D01*
G01*
X147337500Y-89325001D01*
G75*
G02*
X147087501Y-89575000I-249999J0D01*
G01*
X146462499Y-89575000D01*
G75*
G02*
X146212500Y-89325001I0J249999D01*
G01*
G37*
%TD*%
%TO.C,R1*%
G36*
G01*
X119725001Y-93800000D02*
X118474999Y-93800000D01*
G75*
G02*
X118225000Y-93550001I0J249999D01*
G01*
X118225000Y-92924999D01*
G75*
G02*
X118474999Y-92675000I249999J0D01*
G01*
X119725001Y-92675000D01*
G75*
G02*
X119975000Y-92924999I0J-249999D01*
G01*
X119975000Y-93550001D01*
G75*
G02*
X119725001Y-93800000I-249999J0D01*
G01*
G37*
G36*
G01*
X119725001Y-96725000D02*
X118474999Y-96725000D01*
G75*
G02*
X118225000Y-96475001I0J249999D01*
G01*
X118225000Y-95849999D01*
G75*
G02*
X118474999Y-95600000I249999J0D01*
G01*
X119725001Y-95600000D01*
G75*
G02*
X119975000Y-95849999I0J-249999D01*
G01*
X119975000Y-96475001D01*
G75*
G02*
X119725001Y-96725000I-249999J0D01*
G01*
G37*
%TD*%
%TO.C,FB2*%
G36*
G01*
X143218750Y-100987500D02*
X143981250Y-100987500D01*
G75*
G02*
X144200000Y-101206250I0J-218750D01*
G01*
X144200000Y-101643750D01*
G75*
G02*
X143981250Y-101862500I-218750J0D01*
G01*
X143218750Y-101862500D01*
G75*
G02*
X143000000Y-101643750I0J218750D01*
G01*
X143000000Y-101206250D01*
G75*
G02*
X143218750Y-100987500I218750J0D01*
G01*
G37*
G36*
G01*
X143218750Y-98862500D02*
X143981250Y-98862500D01*
G75*
G02*
X144200000Y-99081250I0J-218750D01*
G01*
X144200000Y-99518750D01*
G75*
G02*
X143981250Y-99737500I-218750J0D01*
G01*
X143218750Y-99737500D01*
G75*
G02*
X143000000Y-99518750I0J218750D01*
G01*
X143000000Y-99081250D01*
G75*
G02*
X143218750Y-98862500I218750J0D01*
G01*
G37*
%TD*%
%TO.C,FB1*%
G36*
G01*
X148075000Y-76418750D02*
X148075000Y-77181250D01*
G75*
G02*
X147856250Y-77400000I-218750J0D01*
G01*
X147418750Y-77400000D01*
G75*
G02*
X147200000Y-77181250I0J218750D01*
G01*
X147200000Y-76418750D01*
G75*
G02*
X147418750Y-76200000I218750J0D01*
G01*
X147856250Y-76200000D01*
G75*
G02*
X148075000Y-76418750I0J-218750D01*
G01*
G37*
G36*
G01*
X150200000Y-76418750D02*
X150200000Y-77181250D01*
G75*
G02*
X149981250Y-77400000I-218750J0D01*
G01*
X149543750Y-77400000D01*
G75*
G02*
X149325000Y-77181250I0J218750D01*
G01*
X149325000Y-76418750D01*
G75*
G02*
X149543750Y-76200000I218750J0D01*
G01*
X149981250Y-76200000D01*
G75*
G02*
X150200000Y-76418750I0J-218750D01*
G01*
G37*
%TD*%
%TO.C,F1*%
G36*
G01*
X145275000Y-76925000D02*
X145275000Y-75675000D01*
G75*
G02*
X145525000Y-75425000I250000J0D01*
G01*
X146275000Y-75425000D01*
G75*
G02*
X146525000Y-75675000I0J-250000D01*
G01*
X146525000Y-76925000D01*
G75*
G02*
X146275000Y-77175000I-250000J0D01*
G01*
X145525000Y-77175000D01*
G75*
G02*
X145275000Y-76925000I0J250000D01*
G01*
G37*
G36*
G01*
X142475000Y-76925000D02*
X142475000Y-75675000D01*
G75*
G02*
X142725000Y-75425000I250000J0D01*
G01*
X143475000Y-75425000D01*
G75*
G02*
X143725000Y-75675000I0J-250000D01*
G01*
X143725000Y-76925000D01*
G75*
G02*
X143475000Y-77175000I-250000J0D01*
G01*
X142725000Y-77175000D01*
G75*
G02*
X142475000Y-76925000I0J250000D01*
G01*
G37*
%TD*%
%TO.C,D3*%
G36*
G01*
X162950000Y-92676250D02*
X162950000Y-92163750D01*
G75*
G02*
X163168750Y-91945000I218750J0D01*
G01*
X163606250Y-91945000D01*
G75*
G02*
X163825000Y-92163750I0J-218750D01*
G01*
X163825000Y-92676250D01*
G75*
G02*
X163606250Y-92895000I-218750J0D01*
G01*
X163168750Y-92895000D01*
G75*
G02*
X162950000Y-92676250I0J218750D01*
G01*
G37*
G36*
G01*
X161375000Y-92676250D02*
X161375000Y-92163750D01*
G75*
G02*
X161593750Y-91945000I218750J0D01*
G01*
X162031250Y-91945000D01*
G75*
G02*
X162250000Y-92163750I0J-218750D01*
G01*
X162250000Y-92676250D01*
G75*
G02*
X162031250Y-92895000I-218750J0D01*
G01*
X161593750Y-92895000D01*
G75*
G02*
X161375000Y-92676250I0J218750D01*
G01*
G37*
%TD*%
D14*
%TO.C,D2*%
X142900000Y-73500000D03*
X146200000Y-73500000D03*
%TD*%
%TO.C,D1*%
G36*
G01*
X143737500Y-97443750D02*
X143737500Y-97956250D01*
G75*
G02*
X143518750Y-98175000I-218750J0D01*
G01*
X143081250Y-98175000D01*
G75*
G02*
X142862500Y-97956250I0J218750D01*
G01*
X142862500Y-97443750D01*
G75*
G02*
X143081250Y-97225000I218750J0D01*
G01*
X143518750Y-97225000D01*
G75*
G02*
X143737500Y-97443750I0J-218750D01*
G01*
G37*
G36*
G01*
X145312500Y-97443750D02*
X145312500Y-97956250D01*
G75*
G02*
X145093750Y-98175000I-218750J0D01*
G01*
X144656250Y-98175000D01*
G75*
G02*
X144437500Y-97956250I0J218750D01*
G01*
X144437500Y-97443750D01*
G75*
G02*
X144656250Y-97225000I218750J0D01*
G01*
X145093750Y-97225000D01*
G75*
G02*
X145312500Y-97443750I0J-218750D01*
G01*
G37*
%TD*%
%TO.C,C19*%
G36*
G01*
X135880000Y-98460000D02*
X136220000Y-98460000D01*
G75*
G02*
X136360000Y-98600000I0J-140000D01*
G01*
X136360000Y-98880000D01*
G75*
G02*
X136220000Y-99020000I-140000J0D01*
G01*
X135880000Y-99020000D01*
G75*
G02*
X135740000Y-98880000I0J140000D01*
G01*
X135740000Y-98600000D01*
G75*
G02*
X135880000Y-98460000I140000J0D01*
G01*
G37*
G36*
G01*
X135880000Y-97500000D02*
X136220000Y-97500000D01*
G75*
G02*
X136360000Y-97640000I0J-140000D01*
G01*
X136360000Y-97920000D01*
G75*
G02*
X136220000Y-98060000I-140000J0D01*
G01*
X135880000Y-98060000D01*
G75*
G02*
X135740000Y-97920000I0J140000D01*
G01*
X135740000Y-97640000D01*
G75*
G02*
X135880000Y-97500000I140000J0D01*
G01*
G37*
%TD*%
%TO.C,C18*%
G36*
G01*
X131880000Y-98460000D02*
X132220000Y-98460000D01*
G75*
G02*
X132360000Y-98600000I0J-140000D01*
G01*
X132360000Y-98880000D01*
G75*
G02*
X132220000Y-99020000I-140000J0D01*
G01*
X131880000Y-99020000D01*
G75*
G02*
X131740000Y-98880000I0J140000D01*
G01*
X131740000Y-98600000D01*
G75*
G02*
X131880000Y-98460000I140000J0D01*
G01*
G37*
G36*
G01*
X131880000Y-97500000D02*
X132220000Y-97500000D01*
G75*
G02*
X132360000Y-97640000I0J-140000D01*
G01*
X132360000Y-97920000D01*
G75*
G02*
X132220000Y-98060000I-140000J0D01*
G01*
X131880000Y-98060000D01*
G75*
G02*
X131740000Y-97920000I0J140000D01*
G01*
X131740000Y-97640000D01*
G75*
G02*
X131880000Y-97500000I140000J0D01*
G01*
G37*
%TD*%
%TO.C,C17*%
G36*
G01*
X162050000Y-83925000D02*
X162050000Y-84875000D01*
G75*
G02*
X161800000Y-85125000I-250000J0D01*
G01*
X161300000Y-85125000D01*
G75*
G02*
X161050000Y-84875000I0J250000D01*
G01*
X161050000Y-83925000D01*
G75*
G02*
X161300000Y-83675000I250000J0D01*
G01*
X161800000Y-83675000D01*
G75*
G02*
X162050000Y-83925000I0J-250000D01*
G01*
G37*
G36*
G01*
X163950000Y-83925000D02*
X163950000Y-84875000D01*
G75*
G02*
X163700000Y-85125000I-250000J0D01*
G01*
X163200000Y-85125000D01*
G75*
G02*
X162950000Y-84875000I0J250000D01*
G01*
X162950000Y-83925000D01*
G75*
G02*
X163200000Y-83675000I250000J0D01*
G01*
X163700000Y-83675000D01*
G75*
G02*
X163950000Y-83925000I0J-250000D01*
G01*
G37*
%TD*%
%TO.C,C16*%
G36*
G01*
X158150000Y-73275000D02*
X157650000Y-73275000D01*
G75*
G02*
X157425000Y-73050000I0J225000D01*
G01*
X157425000Y-72600000D01*
G75*
G02*
X157650000Y-72375000I225000J0D01*
G01*
X158150000Y-72375000D01*
G75*
G02*
X158375000Y-72600000I0J-225000D01*
G01*
X158375000Y-73050000D01*
G75*
G02*
X158150000Y-73275000I-225000J0D01*
G01*
G37*
G36*
G01*
X158150000Y-74825000D02*
X157650000Y-74825000D01*
G75*
G02*
X157425000Y-74600000I0J225000D01*
G01*
X157425000Y-74150000D01*
G75*
G02*
X157650000Y-73925000I225000J0D01*
G01*
X158150000Y-73925000D01*
G75*
G02*
X158375000Y-74150000I0J-225000D01*
G01*
X158375000Y-74600000D01*
G75*
G02*
X158150000Y-74825000I-225000J0D01*
G01*
G37*
%TD*%
%TO.C,C15*%
G36*
G01*
X151975000Y-76150000D02*
X151975000Y-76650000D01*
G75*
G02*
X151750000Y-76875000I-225000J0D01*
G01*
X151300000Y-76875000D01*
G75*
G02*
X151075000Y-76650000I0J225000D01*
G01*
X151075000Y-76150000D01*
G75*
G02*
X151300000Y-75925000I225000J0D01*
G01*
X151750000Y-75925000D01*
G75*
G02*
X151975000Y-76150000I0J-225000D01*
G01*
G37*
G36*
G01*
X153525000Y-76150000D02*
X153525000Y-76650000D01*
G75*
G02*
X153300000Y-76875000I-225000J0D01*
G01*
X152850000Y-76875000D01*
G75*
G02*
X152625000Y-76650000I0J225000D01*
G01*
X152625000Y-76150000D01*
G75*
G02*
X152850000Y-75925000I225000J0D01*
G01*
X153300000Y-75925000D01*
G75*
G02*
X153525000Y-76150000I0J-225000D01*
G01*
G37*
%TD*%
%TO.C,C14*%
G36*
G01*
X152375000Y-84700000D02*
X151425000Y-84700000D01*
G75*
G02*
X151175000Y-84450000I0J250000D01*
G01*
X151175000Y-83950000D01*
G75*
G02*
X151425000Y-83700000I250000J0D01*
G01*
X152375000Y-83700000D01*
G75*
G02*
X152625000Y-83950000I0J-250000D01*
G01*
X152625000Y-84450000D01*
G75*
G02*
X152375000Y-84700000I-250000J0D01*
G01*
G37*
G36*
G01*
X152375000Y-86600000D02*
X151425000Y-86600000D01*
G75*
G02*
X151175000Y-86350000I0J250000D01*
G01*
X151175000Y-85850000D01*
G75*
G02*
X151425000Y-85600000I250000J0D01*
G01*
X152375000Y-85600000D01*
G75*
G02*
X152625000Y-85850000I0J-250000D01*
G01*
X152625000Y-86350000D01*
G75*
G02*
X152375000Y-86600000I-250000J0D01*
G01*
G37*
%TD*%
%TO.C,C13*%
G36*
G01*
X153640000Y-85600000D02*
X154590000Y-85600000D01*
G75*
G02*
X154840000Y-85850000I0J-250000D01*
G01*
X154840000Y-86350000D01*
G75*
G02*
X154590000Y-86600000I-250000J0D01*
G01*
X153640000Y-86600000D01*
G75*
G02*
X153390000Y-86350000I0J250000D01*
G01*
X153390000Y-85850000D01*
G75*
G02*
X153640000Y-85600000I250000J0D01*
G01*
G37*
G36*
G01*
X153640000Y-83700000D02*
X154590000Y-83700000D01*
G75*
G02*
X154840000Y-83950000I0J-250000D01*
G01*
X154840000Y-84450000D01*
G75*
G02*
X154590000Y-84700000I-250000J0D01*
G01*
X153640000Y-84700000D01*
G75*
G02*
X153390000Y-84450000I0J250000D01*
G01*
X153390000Y-83950000D01*
G75*
G02*
X153640000Y-83700000I250000J0D01*
G01*
G37*
%TD*%
%TO.C,C12*%
G36*
G01*
X139650000Y-103000000D02*
X140150000Y-103000000D01*
G75*
G02*
X140375000Y-103225000I0J-225000D01*
G01*
X140375000Y-103675000D01*
G75*
G02*
X140150000Y-103900000I-225000J0D01*
G01*
X139650000Y-103900000D01*
G75*
G02*
X139425000Y-103675000I0J225000D01*
G01*
X139425000Y-103225000D01*
G75*
G02*
X139650000Y-103000000I225000J0D01*
G01*
G37*
G36*
G01*
X139650000Y-101450000D02*
X140150000Y-101450000D01*
G75*
G02*
X140375000Y-101675000I0J-225000D01*
G01*
X140375000Y-102125000D01*
G75*
G02*
X140150000Y-102350000I-225000J0D01*
G01*
X139650000Y-102350000D01*
G75*
G02*
X139425000Y-102125000I0J225000D01*
G01*
X139425000Y-101675000D01*
G75*
G02*
X139650000Y-101450000I225000J0D01*
G01*
G37*
%TD*%
%TO.C,C11*%
G36*
G01*
X124110000Y-96415000D02*
X123610000Y-96415000D01*
G75*
G02*
X123385000Y-96190000I0J225000D01*
G01*
X123385000Y-95740000D01*
G75*
G02*
X123610000Y-95515000I225000J0D01*
G01*
X124110000Y-95515000D01*
G75*
G02*
X124335000Y-95740000I0J-225000D01*
G01*
X124335000Y-96190000D01*
G75*
G02*
X124110000Y-96415000I-225000J0D01*
G01*
G37*
G36*
G01*
X124110000Y-97965000D02*
X123610000Y-97965000D01*
G75*
G02*
X123385000Y-97740000I0J225000D01*
G01*
X123385000Y-97290000D01*
G75*
G02*
X123610000Y-97065000I225000J0D01*
G01*
X124110000Y-97065000D01*
G75*
G02*
X124335000Y-97290000I0J-225000D01*
G01*
X124335000Y-97740000D01*
G75*
G02*
X124110000Y-97965000I-225000J0D01*
G01*
G37*
%TD*%
%TO.C,C10*%
G36*
G01*
X133800000Y-102395000D02*
X133300000Y-102395000D01*
G75*
G02*
X133075000Y-102170000I0J225000D01*
G01*
X133075000Y-101720000D01*
G75*
G02*
X133300000Y-101495000I225000J0D01*
G01*
X133800000Y-101495000D01*
G75*
G02*
X134025000Y-101720000I0J-225000D01*
G01*
X134025000Y-102170000D01*
G75*
G02*
X133800000Y-102395000I-225000J0D01*
G01*
G37*
G36*
G01*
X133800000Y-103945000D02*
X133300000Y-103945000D01*
G75*
G02*
X133075000Y-103720000I0J225000D01*
G01*
X133075000Y-103270000D01*
G75*
G02*
X133300000Y-103045000I225000J0D01*
G01*
X133800000Y-103045000D01*
G75*
G02*
X134025000Y-103270000I0J-225000D01*
G01*
X134025000Y-103720000D01*
G75*
G02*
X133800000Y-103945000I-225000J0D01*
G01*
G37*
%TD*%
%TO.C,C9*%
G36*
G01*
X140350000Y-97525000D02*
X140350000Y-98475000D01*
G75*
G02*
X140100000Y-98725000I-250000J0D01*
G01*
X139600000Y-98725000D01*
G75*
G02*
X139350000Y-98475000I0J250000D01*
G01*
X139350000Y-97525000D01*
G75*
G02*
X139600000Y-97275000I250000J0D01*
G01*
X140100000Y-97275000D01*
G75*
G02*
X140350000Y-97525000I0J-250000D01*
G01*
G37*
G36*
G01*
X142250000Y-97525000D02*
X142250000Y-98475000D01*
G75*
G02*
X142000000Y-98725000I-250000J0D01*
G01*
X141500000Y-98725000D01*
G75*
G02*
X141250000Y-98475000I0J250000D01*
G01*
X141250000Y-97525000D01*
G75*
G02*
X141500000Y-97275000I250000J0D01*
G01*
X142000000Y-97275000D01*
G75*
G02*
X142250000Y-97525000I0J-250000D01*
G01*
G37*
%TD*%
%TO.C,C8*%
G36*
G01*
X140350000Y-99625000D02*
X140350000Y-100575000D01*
G75*
G02*
X140100000Y-100825000I-250000J0D01*
G01*
X139600000Y-100825000D01*
G75*
G02*
X139350000Y-100575000I0J250000D01*
G01*
X139350000Y-99625000D01*
G75*
G02*
X139600000Y-99375000I250000J0D01*
G01*
X140100000Y-99375000D01*
G75*
G02*
X140350000Y-99625000I0J-250000D01*
G01*
G37*
G36*
G01*
X142250000Y-99625000D02*
X142250000Y-100575000D01*
G75*
G02*
X142000000Y-100825000I-250000J0D01*
G01*
X141500000Y-100825000D01*
G75*
G02*
X141250000Y-100575000I0J250000D01*
G01*
X141250000Y-99625000D01*
G75*
G02*
X141500000Y-99375000I250000J0D01*
G01*
X142000000Y-99375000D01*
G75*
G02*
X142250000Y-99625000I0J-250000D01*
G01*
G37*
%TD*%
%TO.C,C7*%
G36*
G01*
X128850000Y-95625000D02*
X129350000Y-95625000D01*
G75*
G02*
X129575000Y-95850000I0J-225000D01*
G01*
X129575000Y-96300000D01*
G75*
G02*
X129350000Y-96525000I-225000J0D01*
G01*
X128850000Y-96525000D01*
G75*
G02*
X128625000Y-96300000I0J225000D01*
G01*
X128625000Y-95850000D01*
G75*
G02*
X128850000Y-95625000I225000J0D01*
G01*
G37*
G36*
G01*
X128850000Y-94075000D02*
X129350000Y-94075000D01*
G75*
G02*
X129575000Y-94300000I0J-225000D01*
G01*
X129575000Y-94750000D01*
G75*
G02*
X129350000Y-94975000I-225000J0D01*
G01*
X128850000Y-94975000D01*
G75*
G02*
X128625000Y-94750000I0J225000D01*
G01*
X128625000Y-94300000D01*
G75*
G02*
X128850000Y-94075000I225000J0D01*
G01*
G37*
%TD*%
%TO.C,C6*%
G36*
G01*
X132975000Y-81250000D02*
X132975000Y-81750000D01*
G75*
G02*
X132750000Y-81975000I-225000J0D01*
G01*
X132300000Y-81975000D01*
G75*
G02*
X132075000Y-81750000I0J225000D01*
G01*
X132075000Y-81250000D01*
G75*
G02*
X132300000Y-81025000I225000J0D01*
G01*
X132750000Y-81025000D01*
G75*
G02*
X132975000Y-81250000I0J-225000D01*
G01*
G37*
G36*
G01*
X134525000Y-81250000D02*
X134525000Y-81750000D01*
G75*
G02*
X134300000Y-81975000I-225000J0D01*
G01*
X133850000Y-81975000D01*
G75*
G02*
X133625000Y-81750000I0J225000D01*
G01*
X133625000Y-81250000D01*
G75*
G02*
X133850000Y-81025000I225000J0D01*
G01*
X134300000Y-81025000D01*
G75*
G02*
X134525000Y-81250000I0J-225000D01*
G01*
G37*
%TD*%
%TO.C,C5*%
G36*
G01*
X144800000Y-83225000D02*
X144300000Y-83225000D01*
G75*
G02*
X144075000Y-83000000I0J225000D01*
G01*
X144075000Y-82550000D01*
G75*
G02*
X144300000Y-82325000I225000J0D01*
G01*
X144800000Y-82325000D01*
G75*
G02*
X145025000Y-82550000I0J-225000D01*
G01*
X145025000Y-83000000D01*
G75*
G02*
X144800000Y-83225000I-225000J0D01*
G01*
G37*
G36*
G01*
X144800000Y-84775000D02*
X144300000Y-84775000D01*
G75*
G02*
X144075000Y-84550000I0J225000D01*
G01*
X144075000Y-84100000D01*
G75*
G02*
X144300000Y-83875000I225000J0D01*
G01*
X144800000Y-83875000D01*
G75*
G02*
X145025000Y-84100000I0J-225000D01*
G01*
X145025000Y-84550000D01*
G75*
G02*
X144800000Y-84775000I-225000J0D01*
G01*
G37*
%TD*%
%TO.C,C4*%
G36*
G01*
X147150001Y-83625000D02*
X145849999Y-83625000D01*
G75*
G02*
X145600000Y-83375001I0J249999D01*
G01*
X145600000Y-82724999D01*
G75*
G02*
X145849999Y-82475000I249999J0D01*
G01*
X147150001Y-82475000D01*
G75*
G02*
X147400000Y-82724999I0J-249999D01*
G01*
X147400000Y-83375001D01*
G75*
G02*
X147150001Y-83625000I-249999J0D01*
G01*
G37*
G36*
G01*
X147150001Y-86575000D02*
X145849999Y-86575000D01*
G75*
G02*
X145600000Y-86325001I0J249999D01*
G01*
X145600000Y-85674999D01*
G75*
G02*
X145849999Y-85425000I249999J0D01*
G01*
X147150001Y-85425000D01*
G75*
G02*
X147400000Y-85674999I0J-249999D01*
G01*
X147400000Y-86325001D01*
G75*
G02*
X147150001Y-86575000I-249999J0D01*
G01*
G37*
%TD*%
%TO.C,C3*%
G36*
G01*
X146300000Y-93100000D02*
X146800000Y-93100000D01*
G75*
G02*
X147025000Y-93325000I0J-225000D01*
G01*
X147025000Y-93775000D01*
G75*
G02*
X146800000Y-94000000I-225000J0D01*
G01*
X146300000Y-94000000D01*
G75*
G02*
X146075000Y-93775000I0J225000D01*
G01*
X146075000Y-93325000D01*
G75*
G02*
X146300000Y-93100000I225000J0D01*
G01*
G37*
G36*
G01*
X146300000Y-91550000D02*
X146800000Y-91550000D01*
G75*
G02*
X147025000Y-91775000I0J-225000D01*
G01*
X147025000Y-92225000D01*
G75*
G02*
X146800000Y-92450000I-225000J0D01*
G01*
X146300000Y-92450000D01*
G75*
G02*
X146075000Y-92225000I0J225000D01*
G01*
X146075000Y-91775000D01*
G75*
G02*
X146300000Y-91550000I225000J0D01*
G01*
G37*
%TD*%
%TO.C,C2*%
G36*
G01*
X131225000Y-95750000D02*
X131225000Y-96250000D01*
G75*
G02*
X131000000Y-96475000I-225000J0D01*
G01*
X130550000Y-96475000D01*
G75*
G02*
X130325000Y-96250000I0J225000D01*
G01*
X130325000Y-95750000D01*
G75*
G02*
X130550000Y-95525000I225000J0D01*
G01*
X131000000Y-95525000D01*
G75*
G02*
X131225000Y-95750000I0J-225000D01*
G01*
G37*
G36*
G01*
X132775000Y-95750000D02*
X132775000Y-96250000D01*
G75*
G02*
X132550000Y-96475000I-225000J0D01*
G01*
X132100000Y-96475000D01*
G75*
G02*
X131875000Y-96250000I0J225000D01*
G01*
X131875000Y-95750000D01*
G75*
G02*
X132100000Y-95525000I225000J0D01*
G01*
X132550000Y-95525000D01*
G75*
G02*
X132775000Y-95750000I0J-225000D01*
G01*
G37*
%TD*%
%TO.C,C1*%
G36*
G01*
X125249999Y-96825000D02*
X126550001Y-96825000D01*
G75*
G02*
X126800000Y-97074999I0J-249999D01*
G01*
X126800000Y-97725001D01*
G75*
G02*
X126550001Y-97975000I-249999J0D01*
G01*
X125249999Y-97975000D01*
G75*
G02*
X125000000Y-97725001I0J249999D01*
G01*
X125000000Y-97074999D01*
G75*
G02*
X125249999Y-96825000I249999J0D01*
G01*
G37*
G36*
G01*
X125249999Y-93875000D02*
X126550001Y-93875000D01*
G75*
G02*
X126800000Y-94124999I0J-249999D01*
G01*
X126800000Y-94775001D01*
G75*
G02*
X126550001Y-95025000I-249999J0D01*
G01*
X125249999Y-95025000D01*
G75*
G02*
X125000000Y-94775001I0J249999D01*
G01*
X125000000Y-94124999D01*
G75*
G02*
X125249999Y-93875000I249999J0D01*
G01*
G37*
%TD*%
D15*
%TO.C,U2*%
X138700000Y-74000000D03*
X139650000Y-74000000D03*
X137750000Y-74000000D03*
X137750000Y-71800000D03*
X138700000Y-71800000D03*
X139650000Y-71800000D03*
%TD*%
%TO.C,U1*%
G36*
G01*
X133255000Y-93648500D02*
X131855000Y-93648500D01*
G75*
G02*
X131780000Y-93573500I0J75000D01*
G01*
X131780000Y-93423500D01*
G75*
G02*
X131855000Y-93348500I75000J0D01*
G01*
X133255000Y-93348500D01*
G75*
G02*
X133330000Y-93423500I0J-75000D01*
G01*
X133330000Y-93573500D01*
G75*
G02*
X133255000Y-93648500I-75000J0D01*
G01*
G37*
G36*
G01*
X133255000Y-93148500D02*
X131855000Y-93148500D01*
G75*
G02*
X131780000Y-93073500I0J75000D01*
G01*
X131780000Y-92923500D01*
G75*
G02*
X131855000Y-92848500I75000J0D01*
G01*
X133255000Y-92848500D01*
G75*
G02*
X133330000Y-92923500I0J-75000D01*
G01*
X133330000Y-93073500D01*
G75*
G02*
X133255000Y-93148500I-75000J0D01*
G01*
G37*
G36*
G01*
X133255000Y-92648500D02*
X131855000Y-92648500D01*
G75*
G02*
X131780000Y-92573500I0J75000D01*
G01*
X131780000Y-92423500D01*
G75*
G02*
X131855000Y-92348500I75000J0D01*
G01*
X133255000Y-92348500D01*
G75*
G02*
X133330000Y-92423500I0J-75000D01*
G01*
X133330000Y-92573500D01*
G75*
G02*
X133255000Y-92648500I-75000J0D01*
G01*
G37*
G36*
G01*
X133255000Y-92148500D02*
X131855000Y-92148500D01*
G75*
G02*
X131780000Y-92073500I0J75000D01*
G01*
X131780000Y-91923500D01*
G75*
G02*
X131855000Y-91848500I75000J0D01*
G01*
X133255000Y-91848500D01*
G75*
G02*
X133330000Y-91923500I0J-75000D01*
G01*
X133330000Y-92073500D01*
G75*
G02*
X133255000Y-92148500I-75000J0D01*
G01*
G37*
G36*
G01*
X133255000Y-91648500D02*
X131855000Y-91648500D01*
G75*
G02*
X131780000Y-91573500I0J75000D01*
G01*
X131780000Y-91423500D01*
G75*
G02*
X131855000Y-91348500I75000J0D01*
G01*
X133255000Y-91348500D01*
G75*
G02*
X133330000Y-91423500I0J-75000D01*
G01*
X133330000Y-91573500D01*
G75*
G02*
X133255000Y-91648500I-75000J0D01*
G01*
G37*
G36*
G01*
X133255000Y-91148500D02*
X131855000Y-91148500D01*
G75*
G02*
X131780000Y-91073500I0J75000D01*
G01*
X131780000Y-90923500D01*
G75*
G02*
X131855000Y-90848500I75000J0D01*
G01*
X133255000Y-90848500D01*
G75*
G02*
X133330000Y-90923500I0J-75000D01*
G01*
X133330000Y-91073500D01*
G75*
G02*
X133255000Y-91148500I-75000J0D01*
G01*
G37*
G36*
G01*
X133255000Y-90648500D02*
X131855000Y-90648500D01*
G75*
G02*
X131780000Y-90573500I0J75000D01*
G01*
X131780000Y-90423500D01*
G75*
G02*
X131855000Y-90348500I75000J0D01*
G01*
X133255000Y-90348500D01*
G75*
G02*
X133330000Y-90423500I0J-75000D01*
G01*
X133330000Y-90573500D01*
G75*
G02*
X133255000Y-90648500I-75000J0D01*
G01*
G37*
G36*
G01*
X133255000Y-90148500D02*
X131855000Y-90148500D01*
G75*
G02*
X131780000Y-90073500I0J75000D01*
G01*
X131780000Y-89923500D01*
G75*
G02*
X131855000Y-89848500I75000J0D01*
G01*
X133255000Y-89848500D01*
G75*
G02*
X133330000Y-89923500I0J-75000D01*
G01*
X133330000Y-90073500D01*
G75*
G02*
X133255000Y-90148500I-75000J0D01*
G01*
G37*
G36*
G01*
X133255000Y-89648500D02*
X131855000Y-89648500D01*
G75*
G02*
X131780000Y-89573500I0J75000D01*
G01*
X131780000Y-89423500D01*
G75*
G02*
X131855000Y-89348500I75000J0D01*
G01*
X133255000Y-89348500D01*
G75*
G02*
X133330000Y-89423500I0J-75000D01*
G01*
X133330000Y-89573500D01*
G75*
G02*
X133255000Y-89648500I-75000J0D01*
G01*
G37*
G36*
G01*
X133255000Y-89148500D02*
X131855000Y-89148500D01*
G75*
G02*
X131780000Y-89073500I0J75000D01*
G01*
X131780000Y-88923500D01*
G75*
G02*
X131855000Y-88848500I75000J0D01*
G01*
X133255000Y-88848500D01*
G75*
G02*
X133330000Y-88923500I0J-75000D01*
G01*
X133330000Y-89073500D01*
G75*
G02*
X133255000Y-89148500I-75000J0D01*
G01*
G37*
G36*
G01*
X133255000Y-88648500D02*
X131855000Y-88648500D01*
G75*
G02*
X131780000Y-88573500I0J75000D01*
G01*
X131780000Y-88423500D01*
G75*
G02*
X131855000Y-88348500I75000J0D01*
G01*
X133255000Y-88348500D01*
G75*
G02*
X133330000Y-88423500I0J-75000D01*
G01*
X133330000Y-88573500D01*
G75*
G02*
X133255000Y-88648500I-75000J0D01*
G01*
G37*
G36*
G01*
X133255000Y-88148500D02*
X131855000Y-88148500D01*
G75*
G02*
X131780000Y-88073500I0J75000D01*
G01*
X131780000Y-87923500D01*
G75*
G02*
X131855000Y-87848500I75000J0D01*
G01*
X133255000Y-87848500D01*
G75*
G02*
X133330000Y-87923500I0J-75000D01*
G01*
X133330000Y-88073500D01*
G75*
G02*
X133255000Y-88148500I-75000J0D01*
G01*
G37*
G36*
G01*
X133255000Y-87648500D02*
X131855000Y-87648500D01*
G75*
G02*
X131780000Y-87573500I0J75000D01*
G01*
X131780000Y-87423500D01*
G75*
G02*
X131855000Y-87348500I75000J0D01*
G01*
X133255000Y-87348500D01*
G75*
G02*
X133330000Y-87423500I0J-75000D01*
G01*
X133330000Y-87573500D01*
G75*
G02*
X133255000Y-87648500I-75000J0D01*
G01*
G37*
G36*
G01*
X133255000Y-87148500D02*
X131855000Y-87148500D01*
G75*
G02*
X131780000Y-87073500I0J75000D01*
G01*
X131780000Y-86923500D01*
G75*
G02*
X131855000Y-86848500I75000J0D01*
G01*
X133255000Y-86848500D01*
G75*
G02*
X133330000Y-86923500I0J-75000D01*
G01*
X133330000Y-87073500D01*
G75*
G02*
X133255000Y-87148500I-75000J0D01*
G01*
G37*
G36*
G01*
X133255000Y-86648500D02*
X131855000Y-86648500D01*
G75*
G02*
X131780000Y-86573500I0J75000D01*
G01*
X131780000Y-86423500D01*
G75*
G02*
X131855000Y-86348500I75000J0D01*
G01*
X133255000Y-86348500D01*
G75*
G02*
X133330000Y-86423500I0J-75000D01*
G01*
X133330000Y-86573500D01*
G75*
G02*
X133255000Y-86648500I-75000J0D01*
G01*
G37*
G36*
G01*
X133255000Y-86148500D02*
X131855000Y-86148500D01*
G75*
G02*
X131780000Y-86073500I0J75000D01*
G01*
X131780000Y-85923500D01*
G75*
G02*
X131855000Y-85848500I75000J0D01*
G01*
X133255000Y-85848500D01*
G75*
G02*
X133330000Y-85923500I0J-75000D01*
G01*
X133330000Y-86073500D01*
G75*
G02*
X133255000Y-86148500I-75000J0D01*
G01*
G37*
G36*
G01*
X134555000Y-84848500D02*
X134405000Y-84848500D01*
G75*
G02*
X134330000Y-84773500I0J75000D01*
G01*
X134330000Y-83373500D01*
G75*
G02*
X134405000Y-83298500I75000J0D01*
G01*
X134555000Y-83298500D01*
G75*
G02*
X134630000Y-83373500I0J-75000D01*
G01*
X134630000Y-84773500D01*
G75*
G02*
X134555000Y-84848500I-75000J0D01*
G01*
G37*
G36*
G01*
X135055000Y-84848500D02*
X134905000Y-84848500D01*
G75*
G02*
X134830000Y-84773500I0J75000D01*
G01*
X134830000Y-83373500D01*
G75*
G02*
X134905000Y-83298500I75000J0D01*
G01*
X135055000Y-83298500D01*
G75*
G02*
X135130000Y-83373500I0J-75000D01*
G01*
X135130000Y-84773500D01*
G75*
G02*
X135055000Y-84848500I-75000J0D01*
G01*
G37*
G36*
G01*
X135555000Y-84848500D02*
X135405000Y-84848500D01*
G75*
G02*
X135330000Y-84773500I0J75000D01*
G01*
X135330000Y-83373500D01*
G75*
G02*
X135405000Y-83298500I75000J0D01*
G01*
X135555000Y-83298500D01*
G75*
G02*
X135630000Y-83373500I0J-75000D01*
G01*
X135630000Y-84773500D01*
G75*
G02*
X135555000Y-84848500I-75000J0D01*
G01*
G37*
G36*
G01*
X136055000Y-84848500D02*
X135905000Y-84848500D01*
G75*
G02*
X135830000Y-84773500I0J75000D01*
G01*
X135830000Y-83373500D01*
G75*
G02*
X135905000Y-83298500I75000J0D01*
G01*
X136055000Y-83298500D01*
G75*
G02*
X136130000Y-83373500I0J-75000D01*
G01*
X136130000Y-84773500D01*
G75*
G02*
X136055000Y-84848500I-75000J0D01*
G01*
G37*
G36*
G01*
X136555000Y-84848500D02*
X136405000Y-84848500D01*
G75*
G02*
X136330000Y-84773500I0J75000D01*
G01*
X136330000Y-83373500D01*
G75*
G02*
X136405000Y-83298500I75000J0D01*
G01*
X136555000Y-83298500D01*
G75*
G02*
X136630000Y-83373500I0J-75000D01*
G01*
X136630000Y-84773500D01*
G75*
G02*
X136555000Y-84848500I-75000J0D01*
G01*
G37*
G36*
G01*
X137055000Y-84848500D02*
X136905000Y-84848500D01*
G75*
G02*
X136830000Y-84773500I0J75000D01*
G01*
X136830000Y-83373500D01*
G75*
G02*
X136905000Y-83298500I75000J0D01*
G01*
X137055000Y-83298500D01*
G75*
G02*
X137130000Y-83373500I0J-75000D01*
G01*
X137130000Y-84773500D01*
G75*
G02*
X137055000Y-84848500I-75000J0D01*
G01*
G37*
G36*
G01*
X137555000Y-84848500D02*
X137405000Y-84848500D01*
G75*
G02*
X137330000Y-84773500I0J75000D01*
G01*
X137330000Y-83373500D01*
G75*
G02*
X137405000Y-83298500I75000J0D01*
G01*
X137555000Y-83298500D01*
G75*
G02*
X137630000Y-83373500I0J-75000D01*
G01*
X137630000Y-84773500D01*
G75*
G02*
X137555000Y-84848500I-75000J0D01*
G01*
G37*
G36*
G01*
X138055000Y-84848500D02*
X137905000Y-84848500D01*
G75*
G02*
X137830000Y-84773500I0J75000D01*
G01*
X137830000Y-83373500D01*
G75*
G02*
X137905000Y-83298500I75000J0D01*
G01*
X138055000Y-83298500D01*
G75*
G02*
X138130000Y-83373500I0J-75000D01*
G01*
X138130000Y-84773500D01*
G75*
G02*
X138055000Y-84848500I-75000J0D01*
G01*
G37*
G36*
G01*
X138555000Y-84848500D02*
X138405000Y-84848500D01*
G75*
G02*
X138330000Y-84773500I0J75000D01*
G01*
X138330000Y-83373500D01*
G75*
G02*
X138405000Y-83298500I75000J0D01*
G01*
X138555000Y-83298500D01*
G75*
G02*
X138630000Y-83373500I0J-75000D01*
G01*
X138630000Y-84773500D01*
G75*
G02*
X138555000Y-84848500I-75000J0D01*
G01*
G37*
G36*
G01*
X139055000Y-84848500D02*
X138905000Y-84848500D01*
G75*
G02*
X138830000Y-84773500I0J75000D01*
G01*
X138830000Y-83373500D01*
G75*
G02*
X138905000Y-83298500I75000J0D01*
G01*
X139055000Y-83298500D01*
G75*
G02*
X139130000Y-83373500I0J-75000D01*
G01*
X139130000Y-84773500D01*
G75*
G02*
X139055000Y-84848500I-75000J0D01*
G01*
G37*
G36*
G01*
X139555000Y-84848500D02*
X139405000Y-84848500D01*
G75*
G02*
X139330000Y-84773500I0J75000D01*
G01*
X139330000Y-83373500D01*
G75*
G02*
X139405000Y-83298500I75000J0D01*
G01*
X139555000Y-83298500D01*
G75*
G02*
X139630000Y-83373500I0J-75000D01*
G01*
X139630000Y-84773500D01*
G75*
G02*
X139555000Y-84848500I-75000J0D01*
G01*
G37*
G36*
G01*
X140055000Y-84848500D02*
X139905000Y-84848500D01*
G75*
G02*
X139830000Y-84773500I0J75000D01*
G01*
X139830000Y-83373500D01*
G75*
G02*
X139905000Y-83298500I75000J0D01*
G01*
X140055000Y-83298500D01*
G75*
G02*
X140130000Y-83373500I0J-75000D01*
G01*
X140130000Y-84773500D01*
G75*
G02*
X140055000Y-84848500I-75000J0D01*
G01*
G37*
G36*
G01*
X140555000Y-84848500D02*
X140405000Y-84848500D01*
G75*
G02*
X140330000Y-84773500I0J75000D01*
G01*
X140330000Y-83373500D01*
G75*
G02*
X140405000Y-83298500I75000J0D01*
G01*
X140555000Y-83298500D01*
G75*
G02*
X140630000Y-83373500I0J-75000D01*
G01*
X140630000Y-84773500D01*
G75*
G02*
X140555000Y-84848500I-75000J0D01*
G01*
G37*
G36*
G01*
X141055000Y-84848500D02*
X140905000Y-84848500D01*
G75*
G02*
X140830000Y-84773500I0J75000D01*
G01*
X140830000Y-83373500D01*
G75*
G02*
X140905000Y-83298500I75000J0D01*
G01*
X141055000Y-83298500D01*
G75*
G02*
X141130000Y-83373500I0J-75000D01*
G01*
X141130000Y-84773500D01*
G75*
G02*
X141055000Y-84848500I-75000J0D01*
G01*
G37*
G36*
G01*
X141555000Y-84848500D02*
X141405000Y-84848500D01*
G75*
G02*
X141330000Y-84773500I0J75000D01*
G01*
X141330000Y-83373500D01*
G75*
G02*
X141405000Y-83298500I75000J0D01*
G01*
X141555000Y-83298500D01*
G75*
G02*
X141630000Y-83373500I0J-75000D01*
G01*
X141630000Y-84773500D01*
G75*
G02*
X141555000Y-84848500I-75000J0D01*
G01*
G37*
G36*
G01*
X142055000Y-84848500D02*
X141905000Y-84848500D01*
G75*
G02*
X141830000Y-84773500I0J75000D01*
G01*
X141830000Y-83373500D01*
G75*
G02*
X141905000Y-83298500I75000J0D01*
G01*
X142055000Y-83298500D01*
G75*
G02*
X142130000Y-83373500I0J-75000D01*
G01*
X142130000Y-84773500D01*
G75*
G02*
X142055000Y-84848500I-75000J0D01*
G01*
G37*
G36*
G01*
X144605000Y-86148500D02*
X143205000Y-86148500D01*
G75*
G02*
X143130000Y-86073500I0J75000D01*
G01*
X143130000Y-85923500D01*
G75*
G02*
X143205000Y-85848500I75000J0D01*
G01*
X144605000Y-85848500D01*
G75*
G02*
X144680000Y-85923500I0J-75000D01*
G01*
X144680000Y-86073500D01*
G75*
G02*
X144605000Y-86148500I-75000J0D01*
G01*
G37*
G36*
G01*
X144605000Y-86648500D02*
X143205000Y-86648500D01*
G75*
G02*
X143130000Y-86573500I0J75000D01*
G01*
X143130000Y-86423500D01*
G75*
G02*
X143205000Y-86348500I75000J0D01*
G01*
X144605000Y-86348500D01*
G75*
G02*
X144680000Y-86423500I0J-75000D01*
G01*
X144680000Y-86573500D01*
G75*
G02*
X144605000Y-86648500I-75000J0D01*
G01*
G37*
G36*
G01*
X144605000Y-87148500D02*
X143205000Y-87148500D01*
G75*
G02*
X143130000Y-87073500I0J75000D01*
G01*
X143130000Y-86923500D01*
G75*
G02*
X143205000Y-86848500I75000J0D01*
G01*
X144605000Y-86848500D01*
G75*
G02*
X144680000Y-86923500I0J-75000D01*
G01*
X144680000Y-87073500D01*
G75*
G02*
X144605000Y-87148500I-75000J0D01*
G01*
G37*
G36*
G01*
X144605000Y-87648500D02*
X143205000Y-87648500D01*
G75*
G02*
X143130000Y-87573500I0J75000D01*
G01*
X143130000Y-87423500D01*
G75*
G02*
X143205000Y-87348500I75000J0D01*
G01*
X144605000Y-87348500D01*
G75*
G02*
X144680000Y-87423500I0J-75000D01*
G01*
X144680000Y-87573500D01*
G75*
G02*
X144605000Y-87648500I-75000J0D01*
G01*
G37*
G36*
G01*
X144605000Y-88148500D02*
X143205000Y-88148500D01*
G75*
G02*
X143130000Y-88073500I0J75000D01*
G01*
X143130000Y-87923500D01*
G75*
G02*
X143205000Y-87848500I75000J0D01*
G01*
X144605000Y-87848500D01*
G75*
G02*
X144680000Y-87923500I0J-75000D01*
G01*
X144680000Y-88073500D01*
G75*
G02*
X144605000Y-88148500I-75000J0D01*
G01*
G37*
G36*
G01*
X144605000Y-88648500D02*
X143205000Y-88648500D01*
G75*
G02*
X143130000Y-88573500I0J75000D01*
G01*
X143130000Y-88423500D01*
G75*
G02*
X143205000Y-88348500I75000J0D01*
G01*
X144605000Y-88348500D01*
G75*
G02*
X144680000Y-88423500I0J-75000D01*
G01*
X144680000Y-88573500D01*
G75*
G02*
X144605000Y-88648500I-75000J0D01*
G01*
G37*
G36*
G01*
X144605000Y-89148500D02*
X143205000Y-89148500D01*
G75*
G02*
X143130000Y-89073500I0J75000D01*
G01*
X143130000Y-88923500D01*
G75*
G02*
X143205000Y-88848500I75000J0D01*
G01*
X144605000Y-88848500D01*
G75*
G02*
X144680000Y-88923500I0J-75000D01*
G01*
X144680000Y-89073500D01*
G75*
G02*
X144605000Y-89148500I-75000J0D01*
G01*
G37*
G36*
G01*
X144605000Y-89648500D02*
X143205000Y-89648500D01*
G75*
G02*
X143130000Y-89573500I0J75000D01*
G01*
X143130000Y-89423500D01*
G75*
G02*
X143205000Y-89348500I75000J0D01*
G01*
X144605000Y-89348500D01*
G75*
G02*
X144680000Y-89423500I0J-75000D01*
G01*
X144680000Y-89573500D01*
G75*
G02*
X144605000Y-89648500I-75000J0D01*
G01*
G37*
G36*
G01*
X144605000Y-90148500D02*
X143205000Y-90148500D01*
G75*
G02*
X143130000Y-90073500I0J75000D01*
G01*
X143130000Y-89923500D01*
G75*
G02*
X143205000Y-89848500I75000J0D01*
G01*
X144605000Y-89848500D01*
G75*
G02*
X144680000Y-89923500I0J-75000D01*
G01*
X144680000Y-90073500D01*
G75*
G02*
X144605000Y-90148500I-75000J0D01*
G01*
G37*
G36*
G01*
X144605000Y-90648500D02*
X143205000Y-90648500D01*
G75*
G02*
X143130000Y-90573500I0J75000D01*
G01*
X143130000Y-90423500D01*
G75*
G02*
X143205000Y-90348500I75000J0D01*
G01*
X144605000Y-90348500D01*
G75*
G02*
X144680000Y-90423500I0J-75000D01*
G01*
X144680000Y-90573500D01*
G75*
G02*
X144605000Y-90648500I-75000J0D01*
G01*
G37*
G36*
G01*
X144605000Y-91148500D02*
X143205000Y-91148500D01*
G75*
G02*
X143130000Y-91073500I0J75000D01*
G01*
X143130000Y-90923500D01*
G75*
G02*
X143205000Y-90848500I75000J0D01*
G01*
X144605000Y-90848500D01*
G75*
G02*
X144680000Y-90923500I0J-75000D01*
G01*
X144680000Y-91073500D01*
G75*
G02*
X144605000Y-91148500I-75000J0D01*
G01*
G37*
G36*
G01*
X144605000Y-91648500D02*
X143205000Y-91648500D01*
G75*
G02*
X143130000Y-91573500I0J75000D01*
G01*
X143130000Y-91423500D01*
G75*
G02*
X143205000Y-91348500I75000J0D01*
G01*
X144605000Y-91348500D01*
G75*
G02*
X144680000Y-91423500I0J-75000D01*
G01*
X144680000Y-91573500D01*
G75*
G02*
X144605000Y-91648500I-75000J0D01*
G01*
G37*
G36*
G01*
X144605000Y-92148500D02*
X143205000Y-92148500D01*
G75*
G02*
X143130000Y-92073500I0J75000D01*
G01*
X143130000Y-91923500D01*
G75*
G02*
X143205000Y-91848500I75000J0D01*
G01*
X144605000Y-91848500D01*
G75*
G02*
X144680000Y-91923500I0J-75000D01*
G01*
X144680000Y-92073500D01*
G75*
G02*
X144605000Y-92148500I-75000J0D01*
G01*
G37*
G36*
G01*
X144605000Y-92648500D02*
X143205000Y-92648500D01*
G75*
G02*
X143130000Y-92573500I0J75000D01*
G01*
X143130000Y-92423500D01*
G75*
G02*
X143205000Y-92348500I75000J0D01*
G01*
X144605000Y-92348500D01*
G75*
G02*
X144680000Y-92423500I0J-75000D01*
G01*
X144680000Y-92573500D01*
G75*
G02*
X144605000Y-92648500I-75000J0D01*
G01*
G37*
G36*
G01*
X144605000Y-93148500D02*
X143205000Y-93148500D01*
G75*
G02*
X143130000Y-93073500I0J75000D01*
G01*
X143130000Y-92923500D01*
G75*
G02*
X143205000Y-92848500I75000J0D01*
G01*
X144605000Y-92848500D01*
G75*
G02*
X144680000Y-92923500I0J-75000D01*
G01*
X144680000Y-93073500D01*
G75*
G02*
X144605000Y-93148500I-75000J0D01*
G01*
G37*
G36*
G01*
X144605000Y-93648500D02*
X143205000Y-93648500D01*
G75*
G02*
X143130000Y-93573500I0J75000D01*
G01*
X143130000Y-93423500D01*
G75*
G02*
X143205000Y-93348500I75000J0D01*
G01*
X144605000Y-93348500D01*
G75*
G02*
X144680000Y-93423500I0J-75000D01*
G01*
X144680000Y-93573500D01*
G75*
G02*
X144605000Y-93648500I-75000J0D01*
G01*
G37*
G36*
G01*
X142055000Y-96198500D02*
X141905000Y-96198500D01*
G75*
G02*
X141830000Y-96123500I0J75000D01*
G01*
X141830000Y-94723500D01*
G75*
G02*
X141905000Y-94648500I75000J0D01*
G01*
X142055000Y-94648500D01*
G75*
G02*
X142130000Y-94723500I0J-75000D01*
G01*
X142130000Y-96123500D01*
G75*
G02*
X142055000Y-96198500I-75000J0D01*
G01*
G37*
G36*
G01*
X141555000Y-96198500D02*
X141405000Y-96198500D01*
G75*
G02*
X141330000Y-96123500I0J75000D01*
G01*
X141330000Y-94723500D01*
G75*
G02*
X141405000Y-94648500I75000J0D01*
G01*
X141555000Y-94648500D01*
G75*
G02*
X141630000Y-94723500I0J-75000D01*
G01*
X141630000Y-96123500D01*
G75*
G02*
X141555000Y-96198500I-75000J0D01*
G01*
G37*
G36*
G01*
X141055000Y-96198500D02*
X140905000Y-96198500D01*
G75*
G02*
X140830000Y-96123500I0J75000D01*
G01*
X140830000Y-94723500D01*
G75*
G02*
X140905000Y-94648500I75000J0D01*
G01*
X141055000Y-94648500D01*
G75*
G02*
X141130000Y-94723500I0J-75000D01*
G01*
X141130000Y-96123500D01*
G75*
G02*
X141055000Y-96198500I-75000J0D01*
G01*
G37*
G36*
G01*
X140555000Y-96198500D02*
X140405000Y-96198500D01*
G75*
G02*
X140330000Y-96123500I0J75000D01*
G01*
X140330000Y-94723500D01*
G75*
G02*
X140405000Y-94648500I75000J0D01*
G01*
X140555000Y-94648500D01*
G75*
G02*
X140630000Y-94723500I0J-75000D01*
G01*
X140630000Y-96123500D01*
G75*
G02*
X140555000Y-96198500I-75000J0D01*
G01*
G37*
G36*
G01*
X140055000Y-96198500D02*
X139905000Y-96198500D01*
G75*
G02*
X139830000Y-96123500I0J75000D01*
G01*
X139830000Y-94723500D01*
G75*
G02*
X139905000Y-94648500I75000J0D01*
G01*
X140055000Y-94648500D01*
G75*
G02*
X140130000Y-94723500I0J-75000D01*
G01*
X140130000Y-96123500D01*
G75*
G02*
X140055000Y-96198500I-75000J0D01*
G01*
G37*
G36*
G01*
X139555000Y-96198500D02*
X139405000Y-96198500D01*
G75*
G02*
X139330000Y-96123500I0J75000D01*
G01*
X139330000Y-94723500D01*
G75*
G02*
X139405000Y-94648500I75000J0D01*
G01*
X139555000Y-94648500D01*
G75*
G02*
X139630000Y-94723500I0J-75000D01*
G01*
X139630000Y-96123500D01*
G75*
G02*
X139555000Y-96198500I-75000J0D01*
G01*
G37*
G36*
G01*
X139055000Y-96198500D02*
X138905000Y-96198500D01*
G75*
G02*
X138830000Y-96123500I0J75000D01*
G01*
X138830000Y-94723500D01*
G75*
G02*
X138905000Y-94648500I75000J0D01*
G01*
X139055000Y-94648500D01*
G75*
G02*
X139130000Y-94723500I0J-75000D01*
G01*
X139130000Y-96123500D01*
G75*
G02*
X139055000Y-96198500I-75000J0D01*
G01*
G37*
G36*
G01*
X138555000Y-96198500D02*
X138405000Y-96198500D01*
G75*
G02*
X138330000Y-96123500I0J75000D01*
G01*
X138330000Y-94723500D01*
G75*
G02*
X138405000Y-94648500I75000J0D01*
G01*
X138555000Y-94648500D01*
G75*
G02*
X138630000Y-94723500I0J-75000D01*
G01*
X138630000Y-96123500D01*
G75*
G02*
X138555000Y-96198500I-75000J0D01*
G01*
G37*
G36*
G01*
X138055000Y-96198500D02*
X137905000Y-96198500D01*
G75*
G02*
X137830000Y-96123500I0J75000D01*
G01*
X137830000Y-94723500D01*
G75*
G02*
X137905000Y-94648500I75000J0D01*
G01*
X138055000Y-94648500D01*
G75*
G02*
X138130000Y-94723500I0J-75000D01*
G01*
X138130000Y-96123500D01*
G75*
G02*
X138055000Y-96198500I-75000J0D01*
G01*
G37*
G36*
G01*
X137555000Y-96198500D02*
X137405000Y-96198500D01*
G75*
G02*
X137330000Y-96123500I0J75000D01*
G01*
X137330000Y-94723500D01*
G75*
G02*
X137405000Y-94648500I75000J0D01*
G01*
X137555000Y-94648500D01*
G75*
G02*
X137630000Y-94723500I0J-75000D01*
G01*
X137630000Y-96123500D01*
G75*
G02*
X137555000Y-96198500I-75000J0D01*
G01*
G37*
G36*
G01*
X137055000Y-96198500D02*
X136905000Y-96198500D01*
G75*
G02*
X136830000Y-96123500I0J75000D01*
G01*
X136830000Y-94723500D01*
G75*
G02*
X136905000Y-94648500I75000J0D01*
G01*
X137055000Y-94648500D01*
G75*
G02*
X137130000Y-94723500I0J-75000D01*
G01*
X137130000Y-96123500D01*
G75*
G02*
X137055000Y-96198500I-75000J0D01*
G01*
G37*
G36*
G01*
X136555000Y-96198500D02*
X136405000Y-96198500D01*
G75*
G02*
X136330000Y-96123500I0J75000D01*
G01*
X136330000Y-94723500D01*
G75*
G02*
X136405000Y-94648500I75000J0D01*
G01*
X136555000Y-94648500D01*
G75*
G02*
X136630000Y-94723500I0J-75000D01*
G01*
X136630000Y-96123500D01*
G75*
G02*
X136555000Y-96198500I-75000J0D01*
G01*
G37*
G36*
G01*
X136055000Y-96198500D02*
X135905000Y-96198500D01*
G75*
G02*
X135830000Y-96123500I0J75000D01*
G01*
X135830000Y-94723500D01*
G75*
G02*
X135905000Y-94648500I75000J0D01*
G01*
X136055000Y-94648500D01*
G75*
G02*
X136130000Y-94723500I0J-75000D01*
G01*
X136130000Y-96123500D01*
G75*
G02*
X136055000Y-96198500I-75000J0D01*
G01*
G37*
G36*
G01*
X135555000Y-96198500D02*
X135405000Y-96198500D01*
G75*
G02*
X135330000Y-96123500I0J75000D01*
G01*
X135330000Y-94723500D01*
G75*
G02*
X135405000Y-94648500I75000J0D01*
G01*
X135555000Y-94648500D01*
G75*
G02*
X135630000Y-94723500I0J-75000D01*
G01*
X135630000Y-96123500D01*
G75*
G02*
X135555000Y-96198500I-75000J0D01*
G01*
G37*
G36*
G01*
X135055000Y-96198500D02*
X134905000Y-96198500D01*
G75*
G02*
X134830000Y-96123500I0J75000D01*
G01*
X134830000Y-94723500D01*
G75*
G02*
X134905000Y-94648500I75000J0D01*
G01*
X135055000Y-94648500D01*
G75*
G02*
X135130000Y-94723500I0J-75000D01*
G01*
X135130000Y-96123500D01*
G75*
G02*
X135055000Y-96198500I-75000J0D01*
G01*
G37*
G36*
G01*
X134555000Y-96198500D02*
X134405000Y-96198500D01*
G75*
G02*
X134330000Y-96123500I0J75000D01*
G01*
X134330000Y-94723500D01*
G75*
G02*
X134405000Y-94648500I75000J0D01*
G01*
X134555000Y-94648500D01*
G75*
G02*
X134630000Y-94723500I0J-75000D01*
G01*
X134630000Y-96123500D01*
G75*
G02*
X134555000Y-96198500I-75000J0D01*
G01*
G37*
%TD*%
D16*
%TO.C,Q1*%
X150000000Y-72950000D03*
X148000000Y-73900000D03*
X148000000Y-72000000D03*
%TD*%
D17*
%TO.C,J3*%
X139600000Y-67500000D03*
X138950000Y-67500000D03*
X138300000Y-67500000D03*
X137650000Y-67500000D03*
X137000000Y-67500000D03*
%TD*%
D18*
%TO.C,IC1*%
X154915000Y-81847000D03*
X156185000Y-81847000D03*
X157455000Y-81847000D03*
X158725000Y-81847000D03*
X158725000Y-76423000D03*
X157455000Y-76423000D03*
X156185000Y-76423000D03*
X154915000Y-76423000D03*
D19*
X156820000Y-79135000D03*
%TD*%
M02*
