M48
; DRILL file {KiCad (5.1.10)-1} date 09/19/21 12:36:13
; FORMAT={3:3/ absolute / metric / suppress leading zeros}
; #@! TF.CreationDate,2021-09-19T12:36:13+02:00
; #@! TF.GenerationSoftware,Kicad,Pcbnew,(5.1.10)-1
FMAT,2
METRIC,TZ
T1C0.400
T2C0.650
T3C0.700
T4C0.800
T5C1.200
T6C1.760
T7C2.200
T8C0.800
T9C1.100
T10C1.200
%
G90
G05
T1
X112550Y-64800
X112550Y-120200
X113033Y-63633
X113033Y-65967
X113033Y-119033
X113033Y-121367
X114200Y-63150
X114200Y-66450
X114200Y-118550
X114200Y-121850
X114800Y-73500
X115367Y-63633
X115367Y-65967
X115367Y-119033
X115367Y-121367
X115850Y-64800
X115850Y-120200
X116300Y-73400
X118200Y-71700
X118300Y-81000
X121200Y-104000
X122100Y-79300
X122300Y-104200
X123200Y-78100
X123300Y-75900
X123500Y-104100
X124400Y-81100
X124500Y-99000
X125000Y-112000
X125800Y-90400
X125800Y-92400
X125800Y-98375
X125900Y-76900
X125900Y-95700
X126000Y-118100
X126907Y-79393
X127100Y-119100
X127300Y-63200
X128700Y-119100
X129100Y-97400
X129149Y-100341
X129500Y-102500
X129700Y-63100
X129800Y-101100
X130000Y-87800
X130200Y-93248
X130300Y-114900
X130500Y-102500
X130700Y-120000
X130800Y-94700
X130800Y-97300
X130905Y-90774
X130927Y-89773
X131072Y-93738
X131100Y-98700
X131300Y-63100
X131400Y-81400
X131486Y-102719
X132300Y-103300
X133308Y-114824
X133400Y-96400
X133500Y-121300
X134000Y-91700
X134100Y-80300
X134300Y-114700
X134552Y-90630
X135000Y-81400
X135205Y-82600
X135400Y-90100
X135400Y-99600
X135400Y-113100
X135902Y-68180
X136000Y-69100
X136300Y-93900
X136306Y-114810
X136400Y-72700
X136500Y-89900
X136900Y-69500
X137300Y-114700
X137588Y-89867
X137598Y-68901
X137640Y-93124
X137900Y-104500
X138638Y-92725
X138746Y-87692
X138800Y-89867
X138800Y-114700
X139500Y-117500
X139600Y-93000
X139736Y-87834
X140200Y-93800
X140300Y-114600
X140347Y-88663
X140732Y-87740
X140812Y-102817
X141100Y-93300
X141500Y-87100
X141984Y-91649
X142100Y-93900
X142200Y-92700
X142200Y-114800
X142300Y-86400
X142300Y-88700
X142300Y-89700
X142300Y-90700
X142877Y-117236
X143300Y-83800
X143400Y-82600
X143500Y-67500
X143700Y-115032
X144313Y-96087
X144500Y-109700
X144800Y-117400
X144900Y-99300
X145100Y-101400
X145383Y-91376
X145400Y-70600
X145500Y-89300
X145600Y-90400
X145800Y-87500
X146100Y-109700
X146700Y-84500
X147400Y-108100
X147800Y-92100
X147800Y-93100
X148400Y-108100
X149430Y-108130
X149800Y-90000
X150500Y-108200
X151300Y-77700
X151500Y-108200
X151500Y-115400
X152300Y-81400
X155200Y-88300
X155204Y-85955
X155400Y-69400
X155500Y-85000
X155800Y-92600
X156900Y-88500
X158900Y-88600
X160350Y-64800
X160350Y-120200
X160600Y-88400
X160833Y-63633
X160833Y-65967
X160833Y-119033
X160833Y-121367
X161200Y-81700
X162000Y-63150
X162000Y-66450
X162000Y-118550
X162000Y-121850
X162200Y-88300
X163167Y-63633
X163167Y-65967
X163167Y-119033
X163167Y-121367
X163650Y-64800
X163650Y-120200
X163900Y-91200
T2
X117600Y-82800
X117600Y-84070
X117600Y-85340
X117600Y-86610
X117600Y-87880
X118870Y-82800
X118870Y-84070
X118870Y-85340
X118870Y-86610
X118870Y-87880
T3
X135875Y-66980
X140725Y-66980
T4
X119200Y-102400
X119210Y-98400
X119210Y-100400
T5
X147300Y-66400
X150800Y-66400
T6
X134675Y-64300
X141925Y-64300
T7
X114200Y-64800
X114200Y-120200
X162000Y-64800
X162000Y-120200
T8
X117090Y-98250
X117100Y-104550
T9
X124903Y-113582
T10
X151303Y-113582
T0
M30
