%TF.GenerationSoftware,KiCad,Pcbnew,(5.1.10)-1*%
%TF.CreationDate,2021-09-19T12:36:10+02:00*%
%TF.ProjectId,stm32f446re_carrier_board,73746d33-3266-4343-9436-72655f636172,rev?*%
%TF.SameCoordinates,Original*%
%TF.FileFunction,Legend,Top*%
%TF.FilePolarity,Positive*%
%FSLAX46Y46*%
G04 Gerber Fmt 4.6, Leading zero omitted, Abs format (unit mm)*
G04 Created by KiCad (PCBNEW (5.1.10)-1) date 2021-09-19 12:36:10*
%MOMM*%
%LPD*%
G01*
G04 APERTURE LIST*
%ADD10C,0.120000*%
%ADD11C,0.200000*%
%ADD12C,0.100000*%
%ADD13C,0.254000*%
G04 APERTURE END LIST*
D10*
%TO.C,R19*%
X116610000Y-69772936D02*
X116610000Y-71227064D01*
X114790000Y-69772936D02*
X114790000Y-71227064D01*
%TO.C,R18*%
X129690000Y-66564564D02*
X129690000Y-65110436D01*
X131510000Y-66564564D02*
X131510000Y-65110436D01*
%TO.C,C20*%
X127390000Y-65315580D02*
X127390000Y-65034420D01*
X128410000Y-65315580D02*
X128410000Y-65034420D01*
D11*
%TO.C,U3*%
X118100000Y-65600000D02*
X118100000Y-65100000D01*
X118100000Y-65100000D02*
X126100000Y-65100000D01*
X126100000Y-65100000D02*
X126100000Y-65600000D01*
X118100000Y-70600000D02*
X118100000Y-71100000D01*
X118100000Y-71100000D02*
X126100000Y-71100000D01*
X126100000Y-71100000D02*
X126100000Y-70600000D01*
X117700000Y-65350000D02*
G75*
G03*
X117700000Y-65350000I-100000J0D01*
G01*
D10*
%TO.C,Y2*%
X135250000Y-97450000D02*
X132850000Y-97450000D01*
X132850000Y-97450000D02*
X132850000Y-99050000D01*
X132850000Y-99050000D02*
X135250000Y-99050000D01*
%TO.C,Y1*%
X134800000Y-100850000D02*
X134800000Y-104150000D01*
X134800000Y-104150000D02*
X138800000Y-104150000D01*
%TO.C,R13*%
X156752258Y-71307500D02*
X156277742Y-71307500D01*
X156752258Y-70262500D02*
X156277742Y-70262500D01*
%TO.C,R12*%
X155365000Y-73627064D02*
X155365000Y-73172936D01*
X156835000Y-73627064D02*
X156835000Y-73172936D01*
%TO.C,R10*%
X122765000Y-93970436D02*
X122765000Y-95424564D01*
X120945000Y-93970436D02*
X120945000Y-95424564D01*
%TO.C,R9*%
X123672936Y-85090000D02*
X125127064Y-85090000D01*
X123672936Y-86910000D02*
X125127064Y-86910000D01*
%TO.C,R8*%
X123672936Y-82690000D02*
X125127064Y-82690000D01*
X123672936Y-84510000D02*
X125127064Y-84510000D01*
%TO.C,R7*%
X123672936Y-80290000D02*
X125127064Y-80290000D01*
X123672936Y-82110000D02*
X125127064Y-82110000D01*
%TO.C,R6*%
X128227064Y-93235000D02*
X127772936Y-93235000D01*
X128227064Y-91765000D02*
X127772936Y-91765000D01*
%TO.C,R5*%
X128227064Y-91235000D02*
X127772936Y-91235000D01*
X128227064Y-89765000D02*
X127772936Y-89765000D01*
%TO.C,R3*%
X138572500Y-98337742D02*
X138572500Y-98812258D01*
X137527500Y-98337742D02*
X137527500Y-98812258D01*
%TO.C,R2*%
X147139564Y-100235000D02*
X146685436Y-100235000D01*
X147139564Y-98765000D02*
X146685436Y-98765000D01*
%TO.C,J4*%
X116470000Y-88575000D02*
X117292470Y-88575000D01*
X119177530Y-88575000D02*
X120000000Y-88575000D01*
X117907530Y-88575000D02*
X118562470Y-88575000D01*
X116470000Y-83560000D02*
X116470000Y-88575000D01*
X120000000Y-82105000D02*
X120000000Y-88575000D01*
X116470000Y-83560000D02*
X117036529Y-83560000D01*
X118163471Y-83560000D02*
X118306529Y-83560000D01*
X118360000Y-83506529D02*
X118360000Y-83363471D01*
X118360000Y-82236529D02*
X118360000Y-82105000D01*
X118360000Y-82105000D02*
X118562470Y-82105000D01*
X119177530Y-82105000D02*
X120000000Y-82105000D01*
X116470000Y-82800000D02*
X116470000Y-82040000D01*
X116470000Y-82040000D02*
X117600000Y-82040000D01*
%TO.C,R17*%
X162665000Y-78427064D02*
X162665000Y-77972936D01*
X164135000Y-78427064D02*
X164135000Y-77972936D01*
%TO.C,R16*%
X159227064Y-93330000D02*
X157772936Y-93330000D01*
X159227064Y-91510000D02*
X157772936Y-91510000D01*
%TO.C,R15*%
X162977500Y-81862258D02*
X162977500Y-81387742D01*
X164022500Y-81862258D02*
X164022500Y-81387742D01*
%TO.C,R14*%
X161910000Y-78215436D02*
X161910000Y-79669564D01*
X160090000Y-78215436D02*
X160090000Y-79669564D01*
%TO.C,R11*%
X154610000Y-72072936D02*
X154610000Y-73527064D01*
X152790000Y-72072936D02*
X152790000Y-73527064D01*
%TO.C,R4*%
X147510436Y-87790000D02*
X148964564Y-87790000D01*
X147510436Y-89610000D02*
X148964564Y-89610000D01*
%TO.C,R1*%
X118190000Y-95427064D02*
X118190000Y-93972936D01*
X120010000Y-95427064D02*
X120010000Y-93972936D01*
%TO.C,J1*%
X148980000Y-66400000D02*
G75*
G03*
X148980000Y-66400000I-1680000J0D01*
G01*
X152610000Y-62300000D02*
X145490000Y-62300000D01*
X152610000Y-63400000D02*
X145490000Y-63400000D01*
X152610000Y-69560000D02*
X145490000Y-69560000D01*
X152610000Y-61840000D02*
X145490000Y-61840000D01*
X152610000Y-69560000D02*
X152610000Y-61840000D01*
X145490000Y-69560000D02*
X145490000Y-61840000D01*
X146025000Y-67469000D02*
X146154000Y-67341000D01*
X148275000Y-65219000D02*
X148369000Y-65126000D01*
X146230000Y-67675000D02*
X146324000Y-67581000D01*
X148445000Y-65459000D02*
X148574000Y-65331000D01*
X152850000Y-62240000D02*
X152850000Y-61600000D01*
X152850000Y-61600000D02*
X152450000Y-61600000D01*
X150771326Y-64719901D02*
G75*
G02*
X151666000Y-64960000I28674J-1680099D01*
G01*
X152225358Y-65510106D02*
G75*
G02*
X152240000Y-67266000I-1425358J-889894D01*
G01*
X151689894Y-67825358D02*
G75*
G02*
X149934000Y-67840000I-889894J1425358D01*
G01*
X149374495Y-67290193D02*
G75*
G02*
X149375000Y-65509000I1425505J890193D01*
G01*
X149909736Y-64975279D02*
G75*
G02*
X150800000Y-64720000I890264J-1424721D01*
G01*
%TO.C,FB2*%
X144160000Y-99962878D02*
X144160000Y-100762122D01*
X143040000Y-99962878D02*
X143040000Y-100762122D01*
%TO.C,FB1*%
X149099622Y-77360000D02*
X148300378Y-77360000D01*
X149099622Y-76240000D02*
X148300378Y-76240000D01*
%TO.C,F1*%
X143897936Y-75390000D02*
X145102064Y-75390000D01*
X143897936Y-77210000D02*
X145102064Y-77210000D01*
%TO.C,D3*%
X163400000Y-91685000D02*
X161115000Y-91685000D01*
X161115000Y-91685000D02*
X161115000Y-93155000D01*
X161115000Y-93155000D02*
X163400000Y-93155000D01*
%TO.C,D2*%
X146800000Y-74500000D02*
X146800000Y-72500000D01*
X146800000Y-72500000D02*
X142900000Y-72500000D01*
X146800000Y-74500000D02*
X142900000Y-74500000D01*
%TO.C,D1*%
X143287500Y-98435000D02*
X145572500Y-98435000D01*
X145572500Y-98435000D02*
X145572500Y-96965000D01*
X145572500Y-96965000D02*
X143287500Y-96965000D01*
%TO.C,C19*%
X136410000Y-98152164D02*
X136410000Y-98367836D01*
X135690000Y-98152164D02*
X135690000Y-98367836D01*
%TO.C,C18*%
X132410000Y-98152164D02*
X132410000Y-98367836D01*
X131690000Y-98152164D02*
X131690000Y-98367836D01*
%TO.C,C17*%
X162761252Y-85135000D02*
X162238748Y-85135000D01*
X162761252Y-83665000D02*
X162238748Y-83665000D01*
%TO.C,C16*%
X157390000Y-73740580D02*
X157390000Y-73459420D01*
X158410000Y-73740580D02*
X158410000Y-73459420D01*
%TO.C,C15*%
X152440580Y-76910000D02*
X152159420Y-76910000D01*
X152440580Y-75890000D02*
X152159420Y-75890000D01*
%TO.C,C14*%
X151165000Y-85411252D02*
X151165000Y-84888748D01*
X152635000Y-85411252D02*
X152635000Y-84888748D01*
%TO.C,C13*%
X154850000Y-84888748D02*
X154850000Y-85411252D01*
X153380000Y-84888748D02*
X153380000Y-85411252D01*
%TO.C,C12*%
X140410000Y-102534420D02*
X140410000Y-102815580D01*
X139390000Y-102534420D02*
X139390000Y-102815580D01*
%TO.C,C11*%
X123350000Y-96880580D02*
X123350000Y-96599420D01*
X124370000Y-96880580D02*
X124370000Y-96599420D01*
%TO.C,C10*%
X133040000Y-102860580D02*
X133040000Y-102579420D01*
X134060000Y-102860580D02*
X134060000Y-102579420D01*
%TO.C,C9*%
X141061252Y-98735000D02*
X140538748Y-98735000D01*
X141061252Y-97265000D02*
X140538748Y-97265000D01*
%TO.C,C8*%
X141061252Y-100835000D02*
X140538748Y-100835000D01*
X141061252Y-99365000D02*
X140538748Y-99365000D01*
%TO.C,C7*%
X129610000Y-95159420D02*
X129610000Y-95440580D01*
X128590000Y-95159420D02*
X128590000Y-95440580D01*
%TO.C,C6*%
X133440580Y-82010000D02*
X133159420Y-82010000D01*
X133440580Y-80990000D02*
X133159420Y-80990000D01*
%TO.C,C5*%
X144040000Y-83690580D02*
X144040000Y-83409420D01*
X145060000Y-83690580D02*
X145060000Y-83409420D01*
%TO.C,C4*%
X145590000Y-85236252D02*
X145590000Y-83813748D01*
X147410000Y-85236252D02*
X147410000Y-83813748D01*
%TO.C,C3*%
X147060000Y-92634420D02*
X147060000Y-92915580D01*
X146040000Y-92634420D02*
X146040000Y-92915580D01*
%TO.C,C2*%
X131690580Y-96510000D02*
X131409420Y-96510000D01*
X131690580Y-95490000D02*
X131409420Y-95490000D01*
%TO.C,C1*%
X126810000Y-95213748D02*
X126810000Y-96636252D01*
X124990000Y-95213748D02*
X124990000Y-96636252D01*
%TO.C,U2*%
X140310000Y-73800000D02*
X140310000Y-71350000D01*
X137090000Y-72000000D02*
X137090000Y-73800000D01*
%TO.C,U1*%
X134070000Y-94858500D02*
X134070000Y-96198500D01*
X133120000Y-94858500D02*
X134070000Y-94858500D01*
X133120000Y-93908500D02*
X133120000Y-94858500D01*
X133120000Y-84638500D02*
X134070000Y-84638500D01*
X133120000Y-85588500D02*
X133120000Y-84638500D01*
X143340000Y-94858500D02*
X142390000Y-94858500D01*
X143340000Y-93908500D02*
X143340000Y-94858500D01*
X143340000Y-84638500D02*
X142390000Y-84638500D01*
X143340000Y-85588500D02*
X143340000Y-84638500D01*
%TO.C,Q1*%
X149760000Y-74530000D02*
X148300000Y-74530000D01*
X149760000Y-71370000D02*
X147600000Y-71370000D01*
X149760000Y-71370000D02*
X149760000Y-72300000D01*
X149760000Y-74530000D02*
X149760000Y-73600000D01*
D12*
%TO.C,J3*%
X140300000Y-67900000D02*
X140300000Y-67900000D01*
X140300000Y-68000000D02*
X140300000Y-68000000D01*
X134300000Y-65900000D02*
X134300000Y-67240000D01*
X134300000Y-67240000D02*
X135100000Y-67240000D01*
X142300000Y-65900000D02*
X142300000Y-67240000D01*
X142300000Y-67240000D02*
X141500000Y-67240000D01*
X134300000Y-62700000D02*
X134300000Y-61500000D01*
X134300000Y-61500000D02*
X142300000Y-61500000D01*
X142300000Y-61500000D02*
X142300000Y-62700000D01*
X140300000Y-68000000D02*
G75*
G02*
X140300000Y-67900000I0J50000D01*
G01*
X140300000Y-67900000D02*
G75*
G02*
X140300000Y-68000000I0J-50000D01*
G01*
D11*
%TO.C,IC1*%
X154215000Y-82610000D02*
X154215000Y-81085000D01*
D13*
X157394523Y-80374761D02*
X156124523Y-80374761D01*
X157273571Y-79044285D02*
X157334047Y-79104761D01*
X157394523Y-79286190D01*
X157394523Y-79407142D01*
X157334047Y-79588571D01*
X157213095Y-79709523D01*
X157092142Y-79770000D01*
X156850238Y-79830476D01*
X156668809Y-79830476D01*
X156426904Y-79770000D01*
X156305952Y-79709523D01*
X156185000Y-79588571D01*
X156124523Y-79407142D01*
X156124523Y-79286190D01*
X156185000Y-79104761D01*
X156245476Y-79044285D01*
X157394523Y-77834761D02*
X157394523Y-78560476D01*
X157394523Y-78197619D02*
X156124523Y-78197619D01*
X156305952Y-78318571D01*
X156426904Y-78439523D01*
X156487380Y-78560476D01*
%TD*%
M02*
