%TF.GenerationSoftware,KiCad,Pcbnew,(5.1.10)-1*%
%TF.CreationDate,2021-09-19T12:36:10+02:00*%
%TF.ProjectId,stm32f446re_carrier_board,73746d33-3266-4343-9436-72655f636172,rev?*%
%TF.SameCoordinates,Original*%
%TF.FileFunction,Copper,L2,Inr*%
%TF.FilePolarity,Positive*%
%FSLAX46Y46*%
G04 Gerber Fmt 4.6, Leading zero omitted, Abs format (unit mm)*
G04 Created by KiCad (PCBNEW (5.1.10)-1) date 2021-09-19 12:36:10*
%MOMM*%
%LPD*%
G01*
G04 APERTURE LIST*
%TA.AperFunction,ComponentPad*%
%ADD10C,1.300000*%
%TD*%
%TA.AperFunction,ComponentPad*%
%ADD11O,1.000000X1.000000*%
%TD*%
%TA.AperFunction,ComponentPad*%
%ADD12R,1.000000X1.000000*%
%TD*%
%TA.AperFunction,ComponentPad*%
%ADD13C,2.400000*%
%TD*%
%TA.AperFunction,ComponentPad*%
%ADD14R,2.400000X2.400000*%
%TD*%
%TA.AperFunction,ComponentPad*%
%ADD15C,0.700000*%
%TD*%
%TA.AperFunction,ComponentPad*%
%ADD16C,4.400000*%
%TD*%
%TA.AperFunction,ComponentPad*%
%ADD17C,2.640000*%
%TD*%
%TA.AperFunction,ComponentPad*%
%ADD18C,1.200000*%
%TD*%
%TA.AperFunction,ViaPad*%
%ADD19C,0.800000*%
%TD*%
%TA.AperFunction,Conductor*%
%ADD20C,0.254000*%
%TD*%
%TA.AperFunction,Conductor*%
%ADD21C,0.100000*%
%TD*%
G04 APERTURE END LIST*
D10*
%TO.N,GND*%
%TO.C,SW1*%
X119210000Y-100400000D03*
%TO.N,Net-(R1-Pad1)*%
X119210000Y-98400000D03*
%TO.N,+3V3*%
X119200000Y-102400000D03*
%TD*%
D11*
%TO.N,Net-(J4-Pad10)*%
%TO.C,J4*%
X118870000Y-87880000D03*
%TO.N,GND*%
X117600000Y-87880000D03*
%TO.N,Net-(J4-Pad8)*%
X118870000Y-86610000D03*
%TO.N,Net-(J4-Pad7)*%
X117600000Y-86610000D03*
%TO.N,Net-(J4-Pad6)*%
X118870000Y-85340000D03*
%TO.N,GND*%
X117600000Y-85340000D03*
%TO.N,Net-(J4-Pad4)*%
X118870000Y-84070000D03*
%TO.N,GND*%
X117600000Y-84070000D03*
%TO.N,Net-(J4-Pad2)*%
X118870000Y-82800000D03*
D12*
%TO.N,+3V3*%
X117600000Y-82800000D03*
%TD*%
D13*
%TO.N,GND*%
%TO.C,J1*%
X147300000Y-66400000D03*
D14*
%TO.N,VCC*%
X150800000Y-66400000D03*
%TD*%
D15*
%TO.N,GND*%
%TO.C,H4*%
X115366726Y-119033274D03*
X114200000Y-118550000D03*
X113033274Y-119033274D03*
X112550000Y-120200000D03*
X113033274Y-121366726D03*
X114200000Y-121850000D03*
X115366726Y-121366726D03*
X115850000Y-120200000D03*
D16*
X114200000Y-120200000D03*
%TD*%
D15*
%TO.N,GND*%
%TO.C,H3*%
X163166726Y-119033274D03*
X162000000Y-118550000D03*
X160833274Y-119033274D03*
X160350000Y-120200000D03*
X160833274Y-121366726D03*
X162000000Y-121850000D03*
X163166726Y-121366726D03*
X163650000Y-120200000D03*
D16*
X162000000Y-120200000D03*
%TD*%
D15*
%TO.N,GND*%
%TO.C,H2*%
X115366726Y-63633274D03*
X114200000Y-63150000D03*
X113033274Y-63633274D03*
X112550000Y-64800000D03*
X113033274Y-65966726D03*
X114200000Y-66450000D03*
X115366726Y-65966726D03*
X115850000Y-64800000D03*
D16*
X114200000Y-64800000D03*
%TD*%
D15*
%TO.N,GND*%
%TO.C,H1*%
X163166726Y-63633274D03*
X162000000Y-63150000D03*
X160833274Y-63633274D03*
X160350000Y-64800000D03*
X160833274Y-65966726D03*
X162000000Y-66450000D03*
X163166726Y-65966726D03*
X163650000Y-64800000D03*
D16*
X162000000Y-64800000D03*
%TD*%
D17*
%TO.N,Net-(J3-Pad6)*%
%TO.C,J3*%
X134675000Y-64300000D03*
%TO.N,Net-(J3-Pad7)*%
X141925000Y-64300000D03*
D18*
%TO.N,Net-(J3-Pad8)*%
X135875000Y-66980000D03*
%TO.N,Net-(J3-Pad9)*%
X140725000Y-66980000D03*
%TD*%
D19*
%TO.N,GND*%
X129100000Y-97400000D03*
X131100000Y-98700000D03*
X125800000Y-90400000D03*
X125800000Y-92400000D03*
X143400000Y-82600000D03*
X151300000Y-77700000D03*
X155400000Y-69400000D03*
X155204113Y-85955224D03*
X161200000Y-81700000D03*
X155800000Y-92600000D03*
X149800000Y-90000000D03*
X147800000Y-93100000D03*
X118200000Y-71700000D03*
X127300000Y-63200000D03*
X130800000Y-97300000D03*
X135901779Y-68179704D03*
X137597553Y-68900701D03*
X136000000Y-69100000D03*
X136900000Y-69500000D03*
X136400000Y-72700000D03*
X135205000Y-82600000D03*
X131400000Y-81400000D03*
X137900000Y-104500000D03*
X135400000Y-99600000D03*
X146700000Y-84500000D03*
X140811611Y-102817144D03*
X125800000Y-98375000D03*
X130200000Y-93248500D03*
X144900000Y-99300000D03*
X145400000Y-70600000D03*
X144500000Y-109700000D03*
X142876914Y-117235657D03*
X139500000Y-117500000D03*
X135400000Y-113100000D03*
X130300000Y-114900000D03*
X125000000Y-112000000D03*
X151500000Y-115400000D03*
%TO.N,+3V3*%
X163900000Y-91200000D03*
X155200000Y-88300000D03*
X156900000Y-88500000D03*
X158900000Y-88600000D03*
X160600000Y-88400000D03*
X162200000Y-88300000D03*
X147800000Y-92100000D03*
X118300000Y-81000000D03*
X114800000Y-73500000D03*
X116300000Y-73400000D03*
X129700000Y-63100000D03*
X131300000Y-63100000D03*
X134100000Y-80300000D03*
X135000000Y-81400000D03*
X143300000Y-83800000D03*
X125900000Y-95700000D03*
X131072149Y-93737743D03*
X133400000Y-96400000D03*
X145100000Y-101400000D03*
X146100000Y-109700000D03*
X144800000Y-117400000D03*
X143699617Y-115032008D03*
X142200000Y-114800000D03*
%TO.N,+5V*%
X143500000Y-67500000D03*
%TO.N,/power/IN*%
X152300000Y-81400000D03*
X155500000Y-85000000D03*
%TO.N,PA15*%
X140300000Y-114600000D03*
X138800000Y-89867302D03*
X132300000Y-103300000D03*
%TO.N,PC10*%
X138800000Y-114700000D03*
X137588375Y-89867302D03*
X131486265Y-102718761D03*
%TO.N,PC11*%
X137300000Y-114700000D03*
X136500000Y-89900000D03*
X130500000Y-102500000D03*
%TO.N,PD2*%
X136306114Y-114810431D03*
%TO.N,PC12*%
X130000000Y-87800000D03*
X133500000Y-121300000D03*
X121200000Y-104000000D03*
%TO.N,PB7*%
X134300000Y-114700000D03*
%TO.N,PD2*%
X135400000Y-90100000D03*
X129500000Y-102500000D03*
%TO.N,PB5*%
X133307720Y-114824035D03*
%TO.N,PB4*%
X130926771Y-89773229D03*
X130700000Y-120000000D03*
X122300000Y-104200000D03*
%TO.N,PB5*%
X129149208Y-100340742D03*
X134552000Y-90630000D03*
%TO.N,PB6*%
X130904785Y-90773500D03*
X128700000Y-119100000D03*
X123500000Y-104100000D03*
%TO.N,PB7*%
X134000000Y-91700000D03*
X129800000Y-101100000D03*
%TO.N,I2C1_SCL*%
X127100000Y-119100000D03*
%TO.N,I2C1_SDA*%
X126000000Y-118100000D03*
%TO.N,PC13*%
X136300000Y-93900000D03*
%TO.N,PC0*%
X137640488Y-93124156D03*
%TO.N,PC1*%
X138638473Y-92725279D03*
%TO.N,PC2*%
X139599999Y-92999998D03*
%TO.N,PC3*%
X140200000Y-93800000D03*
%TO.N,PA0*%
X141100000Y-93300000D03*
%TO.N,PA1*%
X142100000Y-93900000D03*
%TO.N,PA3*%
X144312549Y-96087451D03*
%TO.N,PA4*%
X142200000Y-92700000D03*
%TO.N,PA5*%
X141983770Y-91648691D03*
%TO.N,PA6*%
X145383069Y-91376192D03*
%TO.N,PA7*%
X142300000Y-90700006D03*
%TO.N,PC4*%
X145600000Y-90400003D03*
%TO.N,PC5*%
X142300000Y-89700003D03*
%TO.N,PB0*%
X145500000Y-89300000D03*
%TO.N,PB1*%
X142300000Y-88700000D03*
%TO.N,PB10*%
X145800000Y-87500000D03*
%TO.N,PC8*%
X147399997Y-108100000D03*
%TO.N,PC9*%
X148400000Y-108100000D03*
%TO.N,PA8*%
X149430332Y-108130329D03*
%TO.N,PA9*%
X150500000Y-108200000D03*
%TO.N,PA10*%
X151500000Y-108200000D03*
%TO.N,FLASH_!WP*%
X122100000Y-79300000D03*
X140347167Y-88663267D03*
%TO.N,FLASH_!HOLD*%
X138746379Y-87692301D03*
X126907115Y-79392885D03*
%TO.N,SPI2_MOSI*%
X139736227Y-87834440D03*
X124400000Y-81100000D03*
%TO.N,SPI2_MISO*%
X140731777Y-87740186D03*
X123200000Y-78100000D03*
%TO.N,SPI2_SCK*%
X141500000Y-87100000D03*
X125900000Y-76900000D03*
%TO.N,SPI2_!CS*%
X142300000Y-86400000D03*
X123300000Y-75900000D03*
%TO.N,NRST*%
X130800000Y-94700000D03*
X124500000Y-99000000D03*
%TD*%
D20*
%TO.N,GND*%
X128665000Y-62998061D02*
X128665000Y-63201939D01*
X128704774Y-63401898D01*
X128782795Y-63590256D01*
X128896063Y-63759774D01*
X129040226Y-63903937D01*
X129209744Y-64017205D01*
X129398102Y-64095226D01*
X129598061Y-64135000D01*
X129801939Y-64135000D01*
X130001898Y-64095226D01*
X130190256Y-64017205D01*
X130359774Y-63903937D01*
X130500000Y-63763711D01*
X130640226Y-63903937D01*
X130809744Y-64017205D01*
X130998102Y-64095226D01*
X131198061Y-64135000D01*
X131401939Y-64135000D01*
X131601898Y-64095226D01*
X131790256Y-64017205D01*
X131959774Y-63903937D01*
X132103937Y-63759774D01*
X132217205Y-63590256D01*
X132295226Y-63401898D01*
X132335000Y-63201939D01*
X132335000Y-62998061D01*
X132307538Y-62860000D01*
X133350213Y-62860000D01*
X133156453Y-63053760D01*
X132942502Y-63373960D01*
X132795130Y-63729748D01*
X132720000Y-64107449D01*
X132720000Y-64492551D01*
X132795130Y-64870252D01*
X132942502Y-65226040D01*
X133156453Y-65546240D01*
X133428760Y-65818547D01*
X133748960Y-66032498D01*
X134104748Y-66179870D01*
X134482449Y-66255000D01*
X134867551Y-66255000D01*
X134875112Y-66253496D01*
X134780557Y-66395008D01*
X134687460Y-66619764D01*
X134640000Y-66858363D01*
X134640000Y-67101637D01*
X134687460Y-67340236D01*
X134780557Y-67564992D01*
X134915713Y-67767267D01*
X135087733Y-67939287D01*
X135290008Y-68074443D01*
X135514764Y-68167540D01*
X135753363Y-68215000D01*
X135996637Y-68215000D01*
X136235236Y-68167540D01*
X136459992Y-68074443D01*
X136662267Y-67939287D01*
X136834287Y-67767267D01*
X136969443Y-67564992D01*
X137062540Y-67340236D01*
X137110000Y-67101637D01*
X137110000Y-66858363D01*
X137062540Y-66619764D01*
X136969443Y-66395008D01*
X136834287Y-66192733D01*
X136662267Y-66020713D01*
X136459992Y-65885557D01*
X136235236Y-65792460D01*
X135996637Y-65745000D01*
X135994787Y-65745000D01*
X136193547Y-65546240D01*
X136407498Y-65226040D01*
X136554870Y-64870252D01*
X136630000Y-64492551D01*
X136630000Y-64107449D01*
X136554870Y-63729748D01*
X136407498Y-63373960D01*
X136193547Y-63053760D01*
X135999787Y-62860000D01*
X140600213Y-62860000D01*
X140406453Y-63053760D01*
X140192502Y-63373960D01*
X140045130Y-63729748D01*
X139970000Y-64107449D01*
X139970000Y-64492551D01*
X140045130Y-64870252D01*
X140192502Y-65226040D01*
X140406453Y-65546240D01*
X140605213Y-65745000D01*
X140603363Y-65745000D01*
X140364764Y-65792460D01*
X140140008Y-65885557D01*
X139937733Y-66020713D01*
X139765713Y-66192733D01*
X139630557Y-66395008D01*
X139537460Y-66619764D01*
X139490000Y-66858363D01*
X139490000Y-67101637D01*
X139537460Y-67340236D01*
X139630557Y-67564992D01*
X139765713Y-67767267D01*
X139937733Y-67939287D01*
X140140008Y-68074443D01*
X140364764Y-68167540D01*
X140603363Y-68215000D01*
X140846637Y-68215000D01*
X141085236Y-68167540D01*
X141309992Y-68074443D01*
X141512267Y-67939287D01*
X141684287Y-67767267D01*
X141819443Y-67564992D01*
X141888588Y-67398061D01*
X142465000Y-67398061D01*
X142465000Y-67601939D01*
X142504774Y-67801898D01*
X142582795Y-67990256D01*
X142696063Y-68159774D01*
X142840226Y-68303937D01*
X143009744Y-68417205D01*
X143198102Y-68495226D01*
X143398061Y-68535000D01*
X143601939Y-68535000D01*
X143801898Y-68495226D01*
X143990256Y-68417205D01*
X144159774Y-68303937D01*
X144303937Y-68159774D01*
X144417205Y-67990256D01*
X144495226Y-67801898D01*
X144519874Y-67677980D01*
X146201626Y-67677980D01*
X146321514Y-67962836D01*
X146645210Y-68123699D01*
X146994069Y-68218322D01*
X147354684Y-68243067D01*
X147713198Y-68196985D01*
X148055833Y-68081846D01*
X148278486Y-67962836D01*
X148398374Y-67677980D01*
X147300000Y-66579605D01*
X146201626Y-67677980D01*
X144519874Y-67677980D01*
X144535000Y-67601939D01*
X144535000Y-67398061D01*
X144495226Y-67198102D01*
X144417205Y-67009744D01*
X144303937Y-66840226D01*
X144159774Y-66696063D01*
X143990256Y-66582795D01*
X143801898Y-66504774D01*
X143601939Y-66465000D01*
X143398061Y-66465000D01*
X143198102Y-66504774D01*
X143009744Y-66582795D01*
X142840226Y-66696063D01*
X142696063Y-66840226D01*
X142582795Y-67009744D01*
X142504774Y-67198102D01*
X142465000Y-67398061D01*
X141888588Y-67398061D01*
X141912540Y-67340236D01*
X141960000Y-67101637D01*
X141960000Y-66858363D01*
X141912540Y-66619764D01*
X141844162Y-66454684D01*
X145456933Y-66454684D01*
X145503015Y-66813198D01*
X145618154Y-67155833D01*
X145737164Y-67378486D01*
X146022020Y-67498374D01*
X147120395Y-66400000D01*
X147479605Y-66400000D01*
X148577980Y-67498374D01*
X148862836Y-67378486D01*
X148961928Y-67179088D01*
X148961928Y-67600000D01*
X148974188Y-67724482D01*
X149010498Y-67844180D01*
X149069463Y-67954494D01*
X149148815Y-68051185D01*
X149245506Y-68130537D01*
X149355820Y-68189502D01*
X149475518Y-68225812D01*
X149600000Y-68238072D01*
X152000000Y-68238072D01*
X152124482Y-68225812D01*
X152244180Y-68189502D01*
X152354494Y-68130537D01*
X152451185Y-68051185D01*
X152530537Y-67954494D01*
X152589502Y-67844180D01*
X152625812Y-67724482D01*
X152638072Y-67600000D01*
X152638072Y-65200000D01*
X152625812Y-65075518D01*
X152589502Y-64955820D01*
X152530537Y-64845506D01*
X152451185Y-64748815D01*
X152354494Y-64669463D01*
X152244180Y-64610498D01*
X152124482Y-64574188D01*
X152000000Y-64561928D01*
X149600000Y-64561928D01*
X149475518Y-64574188D01*
X149355820Y-64610498D01*
X149245506Y-64669463D01*
X149148815Y-64748815D01*
X149069463Y-64845506D01*
X149010498Y-64955820D01*
X148974188Y-65075518D01*
X148961928Y-65200000D01*
X148961928Y-65606903D01*
X148862836Y-65421514D01*
X148577980Y-65301626D01*
X147479605Y-66400000D01*
X147120395Y-66400000D01*
X146022020Y-65301626D01*
X145737164Y-65421514D01*
X145576301Y-65745210D01*
X145481678Y-66094069D01*
X145456933Y-66454684D01*
X141844162Y-66454684D01*
X141819443Y-66395008D01*
X141724888Y-66253496D01*
X141732449Y-66255000D01*
X142117551Y-66255000D01*
X142495252Y-66179870D01*
X142851040Y-66032498D01*
X143171240Y-65818547D01*
X143443547Y-65546240D01*
X143657498Y-65226040D01*
X143700584Y-65122020D01*
X146201626Y-65122020D01*
X147300000Y-66220395D01*
X148398374Y-65122020D01*
X148278486Y-64837164D01*
X147954790Y-64676301D01*
X147605931Y-64581678D01*
X147245316Y-64556933D01*
X146886802Y-64603015D01*
X146544167Y-64718154D01*
X146321514Y-64837164D01*
X146201626Y-65122020D01*
X143700584Y-65122020D01*
X143804870Y-64870252D01*
X143880000Y-64492551D01*
X143880000Y-64107449D01*
X143804870Y-63729748D01*
X143657498Y-63373960D01*
X143443547Y-63053760D01*
X143249787Y-62860000D01*
X159912174Y-62860000D01*
X159896283Y-62875891D01*
X160010223Y-62989831D01*
X159622982Y-63229976D01*
X159362359Y-63723877D01*
X159203099Y-64259133D01*
X159151322Y-64815174D01*
X159209019Y-65370632D01*
X159373972Y-65904161D01*
X159622982Y-66370024D01*
X160010225Y-66610170D01*
X161820395Y-64800000D01*
X161806253Y-64785858D01*
X161985858Y-64606253D01*
X162000000Y-64620395D01*
X162014143Y-64606253D01*
X162193748Y-64785858D01*
X162179605Y-64800000D01*
X162193748Y-64814143D01*
X162014143Y-64993748D01*
X162000000Y-64979605D01*
X160189830Y-66789775D01*
X160429976Y-67177018D01*
X160923877Y-67437641D01*
X161459133Y-67596901D01*
X162015174Y-67648678D01*
X162570632Y-67590981D01*
X163104161Y-67426028D01*
X163570024Y-67177018D01*
X163810169Y-66789777D01*
X163924109Y-66903717D01*
X163940001Y-66887825D01*
X163940001Y-90165000D01*
X163798061Y-90165000D01*
X163598102Y-90204774D01*
X163409744Y-90282795D01*
X163240226Y-90396063D01*
X163096063Y-90540226D01*
X162982795Y-90709744D01*
X162904774Y-90898102D01*
X162865000Y-91098061D01*
X162865000Y-91301939D01*
X162904774Y-91501898D01*
X162982795Y-91690256D01*
X163096063Y-91859774D01*
X163240226Y-92003937D01*
X163409744Y-92117205D01*
X163598102Y-92195226D01*
X163798061Y-92235000D01*
X163940001Y-92235000D01*
X163940000Y-118112174D01*
X163924109Y-118096283D01*
X163810169Y-118210223D01*
X163570024Y-117822982D01*
X163076123Y-117562359D01*
X162540867Y-117403099D01*
X161984826Y-117351322D01*
X161429368Y-117409019D01*
X160895839Y-117573972D01*
X160429976Y-117822982D01*
X160189830Y-118210225D01*
X162000000Y-120020395D01*
X162014143Y-120006253D01*
X162193748Y-120185858D01*
X162179605Y-120200000D01*
X162193748Y-120214143D01*
X162014143Y-120393748D01*
X162000000Y-120379605D01*
X161985858Y-120393748D01*
X161806253Y-120214143D01*
X161820395Y-120200000D01*
X160010225Y-118389830D01*
X159622982Y-118629976D01*
X159362359Y-119123877D01*
X159203099Y-119659133D01*
X159151322Y-120215174D01*
X159209019Y-120770632D01*
X159373972Y-121304161D01*
X159622982Y-121770024D01*
X160010223Y-122010169D01*
X159896283Y-122124109D01*
X159912174Y-122140000D01*
X134105802Y-122140000D01*
X134159774Y-122103937D01*
X134303937Y-121959774D01*
X134417205Y-121790256D01*
X134495226Y-121601898D01*
X134535000Y-121401939D01*
X134535000Y-121198061D01*
X134495226Y-120998102D01*
X134417205Y-120809744D01*
X134303937Y-120640226D01*
X134159774Y-120496063D01*
X133990256Y-120382795D01*
X133801898Y-120304774D01*
X133601939Y-120265000D01*
X133398061Y-120265000D01*
X133198102Y-120304774D01*
X133009744Y-120382795D01*
X132840226Y-120496063D01*
X132696063Y-120640226D01*
X132582795Y-120809744D01*
X132504774Y-120998102D01*
X132465000Y-121198061D01*
X132465000Y-121401939D01*
X132504774Y-121601898D01*
X132582795Y-121790256D01*
X132696063Y-121959774D01*
X132840226Y-122103937D01*
X132894198Y-122140000D01*
X116287826Y-122140000D01*
X116303717Y-122124109D01*
X116189777Y-122010169D01*
X116577018Y-121770024D01*
X116837641Y-121276123D01*
X116996901Y-120740867D01*
X117048678Y-120184826D01*
X116990981Y-119629368D01*
X116826028Y-119095839D01*
X116577018Y-118629976D01*
X116189775Y-118389830D01*
X114379605Y-120200000D01*
X114393748Y-120214143D01*
X114214143Y-120393748D01*
X114200000Y-120379605D01*
X114185858Y-120393748D01*
X114006253Y-120214143D01*
X114020395Y-120200000D01*
X114006253Y-120185858D01*
X114185858Y-120006253D01*
X114200000Y-120020395D01*
X116010170Y-118210225D01*
X115878599Y-117998061D01*
X124965000Y-117998061D01*
X124965000Y-118201939D01*
X125004774Y-118401898D01*
X125082795Y-118590256D01*
X125196063Y-118759774D01*
X125340226Y-118903937D01*
X125509744Y-119017205D01*
X125698102Y-119095226D01*
X125898061Y-119135000D01*
X126065000Y-119135000D01*
X126065000Y-119201939D01*
X126104774Y-119401898D01*
X126182795Y-119590256D01*
X126296063Y-119759774D01*
X126440226Y-119903937D01*
X126609744Y-120017205D01*
X126798102Y-120095226D01*
X126998061Y-120135000D01*
X127201939Y-120135000D01*
X127401898Y-120095226D01*
X127590256Y-120017205D01*
X127759774Y-119903937D01*
X127900000Y-119763711D01*
X128040226Y-119903937D01*
X128209744Y-120017205D01*
X128398102Y-120095226D01*
X128598061Y-120135000D01*
X128801939Y-120135000D01*
X129001898Y-120095226D01*
X129190256Y-120017205D01*
X129359774Y-119903937D01*
X129365650Y-119898061D01*
X129665000Y-119898061D01*
X129665000Y-120101939D01*
X129704774Y-120301898D01*
X129782795Y-120490256D01*
X129896063Y-120659774D01*
X130040226Y-120803937D01*
X130209744Y-120917205D01*
X130398102Y-120995226D01*
X130598061Y-121035000D01*
X130801939Y-121035000D01*
X131001898Y-120995226D01*
X131190256Y-120917205D01*
X131359774Y-120803937D01*
X131503937Y-120659774D01*
X131617205Y-120490256D01*
X131695226Y-120301898D01*
X131735000Y-120101939D01*
X131735000Y-119898061D01*
X131695226Y-119698102D01*
X131617205Y-119509744D01*
X131503937Y-119340226D01*
X131359774Y-119196063D01*
X131190256Y-119082795D01*
X131001898Y-119004774D01*
X130801939Y-118965000D01*
X130598061Y-118965000D01*
X130398102Y-119004774D01*
X130209744Y-119082795D01*
X130040226Y-119196063D01*
X129896063Y-119340226D01*
X129782795Y-119509744D01*
X129704774Y-119698102D01*
X129665000Y-119898061D01*
X129365650Y-119898061D01*
X129503937Y-119759774D01*
X129617205Y-119590256D01*
X129695226Y-119401898D01*
X129735000Y-119201939D01*
X129735000Y-118998061D01*
X129695226Y-118798102D01*
X129617205Y-118609744D01*
X129503937Y-118440226D01*
X129359774Y-118296063D01*
X129190256Y-118182795D01*
X129001898Y-118104774D01*
X128801939Y-118065000D01*
X128598061Y-118065000D01*
X128398102Y-118104774D01*
X128209744Y-118182795D01*
X128040226Y-118296063D01*
X127900000Y-118436289D01*
X127759774Y-118296063D01*
X127590256Y-118182795D01*
X127401898Y-118104774D01*
X127201939Y-118065000D01*
X127035000Y-118065000D01*
X127035000Y-117998061D01*
X126995226Y-117798102D01*
X126917205Y-117609744D01*
X126803937Y-117440226D01*
X126661772Y-117298061D01*
X143765000Y-117298061D01*
X143765000Y-117501939D01*
X143804774Y-117701898D01*
X143882795Y-117890256D01*
X143996063Y-118059774D01*
X144140226Y-118203937D01*
X144309744Y-118317205D01*
X144498102Y-118395226D01*
X144698061Y-118435000D01*
X144901939Y-118435000D01*
X145101898Y-118395226D01*
X145290256Y-118317205D01*
X145459774Y-118203937D01*
X145603937Y-118059774D01*
X145717205Y-117890256D01*
X145795226Y-117701898D01*
X145835000Y-117501939D01*
X145835000Y-117298061D01*
X145795226Y-117098102D01*
X145717205Y-116909744D01*
X145603937Y-116740226D01*
X145459774Y-116596063D01*
X145290256Y-116482795D01*
X145101898Y-116404774D01*
X144901939Y-116365000D01*
X144698061Y-116365000D01*
X144498102Y-116404774D01*
X144309744Y-116482795D01*
X144140226Y-116596063D01*
X143996063Y-116740226D01*
X143882795Y-116909744D01*
X143804774Y-117098102D01*
X143765000Y-117298061D01*
X126661772Y-117298061D01*
X126659774Y-117296063D01*
X126490256Y-117182795D01*
X126301898Y-117104774D01*
X126101939Y-117065000D01*
X125898061Y-117065000D01*
X125698102Y-117104774D01*
X125509744Y-117182795D01*
X125340226Y-117296063D01*
X125196063Y-117440226D01*
X125082795Y-117609744D01*
X125004774Y-117798102D01*
X124965000Y-117998061D01*
X115878599Y-117998061D01*
X115770024Y-117822982D01*
X115276123Y-117562359D01*
X114740867Y-117403099D01*
X114184826Y-117351322D01*
X113629368Y-117409019D01*
X113095839Y-117573972D01*
X112629976Y-117822982D01*
X112389831Y-118210223D01*
X112275891Y-118096283D01*
X112260000Y-118112174D01*
X112260000Y-113465288D01*
X123718000Y-113465288D01*
X123718000Y-113698712D01*
X123763539Y-113927652D01*
X123852866Y-114143308D01*
X123982550Y-114337394D01*
X124147606Y-114502450D01*
X124341692Y-114632134D01*
X124557348Y-114721461D01*
X124786288Y-114767000D01*
X125019712Y-114767000D01*
X125245459Y-114722096D01*
X132272720Y-114722096D01*
X132272720Y-114925974D01*
X132312494Y-115125933D01*
X132390515Y-115314291D01*
X132503783Y-115483809D01*
X132647946Y-115627972D01*
X132817464Y-115741240D01*
X133005822Y-115819261D01*
X133205781Y-115859035D01*
X133409659Y-115859035D01*
X133609618Y-115819261D01*
X133797976Y-115741240D01*
X133917073Y-115661662D01*
X133998102Y-115695226D01*
X134198061Y-115735000D01*
X134401939Y-115735000D01*
X134601898Y-115695226D01*
X134790256Y-115617205D01*
X134959774Y-115503937D01*
X135103937Y-115359774D01*
X135217205Y-115190256D01*
X135290967Y-115012180D01*
X135310888Y-115112329D01*
X135388909Y-115300687D01*
X135502177Y-115470205D01*
X135646340Y-115614368D01*
X135815858Y-115727636D01*
X136004216Y-115805657D01*
X136204175Y-115845431D01*
X136408053Y-115845431D01*
X136608012Y-115805657D01*
X136796370Y-115727636D01*
X136903513Y-115656046D01*
X136998102Y-115695226D01*
X137198061Y-115735000D01*
X137401939Y-115735000D01*
X137601898Y-115695226D01*
X137790256Y-115617205D01*
X137959774Y-115503937D01*
X138050000Y-115413711D01*
X138140226Y-115503937D01*
X138309744Y-115617205D01*
X138498102Y-115695226D01*
X138698061Y-115735000D01*
X138901939Y-115735000D01*
X139101898Y-115695226D01*
X139290256Y-115617205D01*
X139459774Y-115503937D01*
X139600000Y-115363711D01*
X139640226Y-115403937D01*
X139809744Y-115517205D01*
X139998102Y-115595226D01*
X140198061Y-115635000D01*
X140401939Y-115635000D01*
X140601898Y-115595226D01*
X140790256Y-115517205D01*
X140959774Y-115403937D01*
X141103937Y-115259774D01*
X141206554Y-115106196D01*
X141282795Y-115290256D01*
X141396063Y-115459774D01*
X141540226Y-115603937D01*
X141709744Y-115717205D01*
X141898102Y-115795226D01*
X142098061Y-115835000D01*
X142301939Y-115835000D01*
X142501898Y-115795226D01*
X142690256Y-115717205D01*
X142844018Y-115614465D01*
X142895680Y-115691782D01*
X143039843Y-115835945D01*
X143209361Y-115949213D01*
X143397719Y-116027234D01*
X143597678Y-116067008D01*
X143801556Y-116067008D01*
X144001515Y-116027234D01*
X144189873Y-115949213D01*
X144359391Y-115835945D01*
X144503554Y-115691782D01*
X144616822Y-115522264D01*
X144694843Y-115333906D01*
X144734617Y-115133947D01*
X144734617Y-114930069D01*
X144694843Y-114730110D01*
X144616822Y-114541752D01*
X144503554Y-114372234D01*
X144359391Y-114228071D01*
X144189873Y-114114803D01*
X144001515Y-114036782D01*
X143801556Y-113997008D01*
X143597678Y-113997008D01*
X143397719Y-114036782D01*
X143209361Y-114114803D01*
X143055599Y-114217543D01*
X143003937Y-114140226D01*
X142859774Y-113996063D01*
X142690256Y-113882795D01*
X142501898Y-113804774D01*
X142301939Y-113765000D01*
X142098061Y-113765000D01*
X141898102Y-113804774D01*
X141709744Y-113882795D01*
X141540226Y-113996063D01*
X141396063Y-114140226D01*
X141293446Y-114293804D01*
X141217205Y-114109744D01*
X141103937Y-113940226D01*
X140959774Y-113796063D01*
X140790256Y-113682795D01*
X140601898Y-113604774D01*
X140401939Y-113565000D01*
X140198061Y-113565000D01*
X139998102Y-113604774D01*
X139809744Y-113682795D01*
X139640226Y-113796063D01*
X139500000Y-113936289D01*
X139459774Y-113896063D01*
X139290256Y-113782795D01*
X139101898Y-113704774D01*
X138901939Y-113665000D01*
X138698061Y-113665000D01*
X138498102Y-113704774D01*
X138309744Y-113782795D01*
X138140226Y-113896063D01*
X138050000Y-113986289D01*
X137959774Y-113896063D01*
X137790256Y-113782795D01*
X137601898Y-113704774D01*
X137401939Y-113665000D01*
X137198061Y-113665000D01*
X136998102Y-113704774D01*
X136809744Y-113782795D01*
X136702601Y-113854385D01*
X136608012Y-113815205D01*
X136408053Y-113775431D01*
X136204175Y-113775431D01*
X136004216Y-113815205D01*
X135815858Y-113893226D01*
X135646340Y-114006494D01*
X135502177Y-114150657D01*
X135388909Y-114320175D01*
X135315147Y-114498251D01*
X135295226Y-114398102D01*
X135217205Y-114209744D01*
X135103937Y-114040226D01*
X134959774Y-113896063D01*
X134790256Y-113782795D01*
X134601898Y-113704774D01*
X134401939Y-113665000D01*
X134198061Y-113665000D01*
X133998102Y-113704774D01*
X133809744Y-113782795D01*
X133690647Y-113862373D01*
X133609618Y-113828809D01*
X133409659Y-113789035D01*
X133205781Y-113789035D01*
X133005822Y-113828809D01*
X132817464Y-113906830D01*
X132647946Y-114020098D01*
X132503783Y-114164261D01*
X132390515Y-114333779D01*
X132312494Y-114522137D01*
X132272720Y-114722096D01*
X125245459Y-114722096D01*
X125248652Y-114721461D01*
X125464308Y-114632134D01*
X125658394Y-114502450D01*
X125823450Y-114337394D01*
X125953134Y-114143308D01*
X126042461Y-113927652D01*
X126088000Y-113698712D01*
X126088000Y-113465288D01*
X126087021Y-113460363D01*
X150068000Y-113460363D01*
X150068000Y-113703637D01*
X150115460Y-113942236D01*
X150208557Y-114166992D01*
X150343713Y-114369267D01*
X150515733Y-114541287D01*
X150718008Y-114676443D01*
X150942764Y-114769540D01*
X151181363Y-114817000D01*
X151424637Y-114817000D01*
X151663236Y-114769540D01*
X151887992Y-114676443D01*
X152090267Y-114541287D01*
X152262287Y-114369267D01*
X152397443Y-114166992D01*
X152490540Y-113942236D01*
X152538000Y-113703637D01*
X152538000Y-113460363D01*
X152490540Y-113221764D01*
X152397443Y-112997008D01*
X152262287Y-112794733D01*
X152090267Y-112622713D01*
X151887992Y-112487557D01*
X151663236Y-112394460D01*
X151424637Y-112347000D01*
X151181363Y-112347000D01*
X150942764Y-112394460D01*
X150718008Y-112487557D01*
X150515733Y-112622713D01*
X150343713Y-112794733D01*
X150208557Y-112997008D01*
X150115460Y-113221764D01*
X150068000Y-113460363D01*
X126087021Y-113460363D01*
X126042461Y-113236348D01*
X125953134Y-113020692D01*
X125823450Y-112826606D01*
X125658394Y-112661550D01*
X125464308Y-112531866D01*
X125248652Y-112442539D01*
X125019712Y-112397000D01*
X124786288Y-112397000D01*
X124557348Y-112442539D01*
X124341692Y-112531866D01*
X124147606Y-112661550D01*
X123982550Y-112826606D01*
X123852866Y-113020692D01*
X123763539Y-113236348D01*
X123718000Y-113465288D01*
X112260000Y-113465288D01*
X112260000Y-109598061D01*
X145065000Y-109598061D01*
X145065000Y-109801939D01*
X145104774Y-110001898D01*
X145182795Y-110190256D01*
X145296063Y-110359774D01*
X145440226Y-110503937D01*
X145609744Y-110617205D01*
X145798102Y-110695226D01*
X145998061Y-110735000D01*
X146201939Y-110735000D01*
X146401898Y-110695226D01*
X146590256Y-110617205D01*
X146759774Y-110503937D01*
X146903937Y-110359774D01*
X147017205Y-110190256D01*
X147095226Y-110001898D01*
X147135000Y-109801939D01*
X147135000Y-109598061D01*
X147095226Y-109398102D01*
X147017205Y-109209744D01*
X146903937Y-109040226D01*
X146822872Y-108959161D01*
X146909741Y-109017205D01*
X147098099Y-109095226D01*
X147298058Y-109135000D01*
X147501936Y-109135000D01*
X147701895Y-109095226D01*
X147890253Y-109017205D01*
X147899999Y-109010693D01*
X147909744Y-109017205D01*
X148098102Y-109095226D01*
X148298061Y-109135000D01*
X148501939Y-109135000D01*
X148701898Y-109095226D01*
X148890256Y-109017205D01*
X148892471Y-109015725D01*
X148940076Y-109047534D01*
X149128434Y-109125555D01*
X149328393Y-109165329D01*
X149532271Y-109165329D01*
X149732230Y-109125555D01*
X149911258Y-109051399D01*
X150009744Y-109117205D01*
X150198102Y-109195226D01*
X150398061Y-109235000D01*
X150601939Y-109235000D01*
X150801898Y-109195226D01*
X150990256Y-109117205D01*
X151000000Y-109110694D01*
X151009744Y-109117205D01*
X151198102Y-109195226D01*
X151398061Y-109235000D01*
X151601939Y-109235000D01*
X151801898Y-109195226D01*
X151990256Y-109117205D01*
X152159774Y-109003937D01*
X152303937Y-108859774D01*
X152417205Y-108690256D01*
X152495226Y-108501898D01*
X152535000Y-108301939D01*
X152535000Y-108098061D01*
X152495226Y-107898102D01*
X152417205Y-107709744D01*
X152303937Y-107540226D01*
X152159774Y-107396063D01*
X151990256Y-107282795D01*
X151801898Y-107204774D01*
X151601939Y-107165000D01*
X151398061Y-107165000D01*
X151198102Y-107204774D01*
X151009744Y-107282795D01*
X151000000Y-107289306D01*
X150990256Y-107282795D01*
X150801898Y-107204774D01*
X150601939Y-107165000D01*
X150398061Y-107165000D01*
X150198102Y-107204774D01*
X150019074Y-107278930D01*
X149920588Y-107213124D01*
X149732230Y-107135103D01*
X149532271Y-107095329D01*
X149328393Y-107095329D01*
X149128434Y-107135103D01*
X148940076Y-107213124D01*
X148937861Y-107214604D01*
X148890256Y-107182795D01*
X148701898Y-107104774D01*
X148501939Y-107065000D01*
X148298061Y-107065000D01*
X148098102Y-107104774D01*
X147909744Y-107182795D01*
X147899999Y-107189307D01*
X147890253Y-107182795D01*
X147701895Y-107104774D01*
X147501936Y-107065000D01*
X147298058Y-107065000D01*
X147098099Y-107104774D01*
X146909741Y-107182795D01*
X146740223Y-107296063D01*
X146596060Y-107440226D01*
X146482792Y-107609744D01*
X146404771Y-107798102D01*
X146364997Y-107998061D01*
X146364997Y-108201939D01*
X146404771Y-108401898D01*
X146482792Y-108590256D01*
X146596060Y-108759774D01*
X146677125Y-108840839D01*
X146590256Y-108782795D01*
X146401898Y-108704774D01*
X146201939Y-108665000D01*
X145998061Y-108665000D01*
X145798102Y-108704774D01*
X145609744Y-108782795D01*
X145440226Y-108896063D01*
X145296063Y-109040226D01*
X145182795Y-109209744D01*
X145104774Y-109398102D01*
X145065000Y-109598061D01*
X112260000Y-109598061D01*
X112260000Y-104448061D01*
X116065000Y-104448061D01*
X116065000Y-104651939D01*
X116104774Y-104851898D01*
X116182795Y-105040256D01*
X116296063Y-105209774D01*
X116440226Y-105353937D01*
X116609744Y-105467205D01*
X116798102Y-105545226D01*
X116998061Y-105585000D01*
X117201939Y-105585000D01*
X117401898Y-105545226D01*
X117590256Y-105467205D01*
X117759774Y-105353937D01*
X117903937Y-105209774D01*
X118017205Y-105040256D01*
X118095226Y-104851898D01*
X118135000Y-104651939D01*
X118135000Y-104448061D01*
X118095226Y-104248102D01*
X118017205Y-104059744D01*
X117909173Y-103898061D01*
X120165000Y-103898061D01*
X120165000Y-104101939D01*
X120204774Y-104301898D01*
X120282795Y-104490256D01*
X120396063Y-104659774D01*
X120540226Y-104803937D01*
X120709744Y-104917205D01*
X120898102Y-104995226D01*
X121098061Y-105035000D01*
X121301939Y-105035000D01*
X121501898Y-104995226D01*
X121593551Y-104957262D01*
X121640226Y-105003937D01*
X121809744Y-105117205D01*
X121998102Y-105195226D01*
X122198061Y-105235000D01*
X122401939Y-105235000D01*
X122601898Y-105195226D01*
X122790256Y-105117205D01*
X122959774Y-105003937D01*
X122971836Y-104991875D01*
X123009744Y-105017205D01*
X123198102Y-105095226D01*
X123398061Y-105135000D01*
X123601939Y-105135000D01*
X123801898Y-105095226D01*
X123990256Y-105017205D01*
X124159774Y-104903937D01*
X124303937Y-104759774D01*
X124417205Y-104590256D01*
X124495226Y-104401898D01*
X124535000Y-104201939D01*
X124535000Y-103998061D01*
X124495226Y-103798102D01*
X124417205Y-103609744D01*
X124303937Y-103440226D01*
X124159774Y-103296063D01*
X123990256Y-103182795D01*
X123801898Y-103104774D01*
X123601939Y-103065000D01*
X123398061Y-103065000D01*
X123198102Y-103104774D01*
X123009744Y-103182795D01*
X122840226Y-103296063D01*
X122828164Y-103308125D01*
X122790256Y-103282795D01*
X122601898Y-103204774D01*
X122401939Y-103165000D01*
X122198061Y-103165000D01*
X121998102Y-103204774D01*
X121906449Y-103242738D01*
X121859774Y-103196063D01*
X121690256Y-103082795D01*
X121501898Y-103004774D01*
X121301939Y-102965000D01*
X121098061Y-102965000D01*
X120898102Y-103004774D01*
X120709744Y-103082795D01*
X120540226Y-103196063D01*
X120396063Y-103340226D01*
X120282795Y-103509744D01*
X120204774Y-103698102D01*
X120165000Y-103898061D01*
X117909173Y-103898061D01*
X117903937Y-103890226D01*
X117759774Y-103746063D01*
X117590256Y-103632795D01*
X117401898Y-103554774D01*
X117201939Y-103515000D01*
X116998061Y-103515000D01*
X116798102Y-103554774D01*
X116609744Y-103632795D01*
X116440226Y-103746063D01*
X116296063Y-103890226D01*
X116182795Y-104059744D01*
X116104774Y-104248102D01*
X116065000Y-104448061D01*
X112260000Y-104448061D01*
X112260000Y-102273439D01*
X117915000Y-102273439D01*
X117915000Y-102526561D01*
X117964381Y-102774821D01*
X118061247Y-103008676D01*
X118201875Y-103219140D01*
X118380860Y-103398125D01*
X118591324Y-103538753D01*
X118825179Y-103635619D01*
X119073439Y-103685000D01*
X119326561Y-103685000D01*
X119574821Y-103635619D01*
X119808676Y-103538753D01*
X120019140Y-103398125D01*
X120198125Y-103219140D01*
X120338753Y-103008676D01*
X120435619Y-102774821D01*
X120485000Y-102526561D01*
X120485000Y-102273439D01*
X120435619Y-102025179D01*
X120338753Y-101791324D01*
X120198125Y-101580860D01*
X120019140Y-101401875D01*
X119906353Y-101326513D01*
X119915922Y-101285527D01*
X119210000Y-100579605D01*
X118504078Y-101285527D01*
X118510948Y-101314953D01*
X118380860Y-101401875D01*
X118201875Y-101580860D01*
X118061247Y-101791324D01*
X117964381Y-102025179D01*
X117915000Y-102273439D01*
X112260000Y-102273439D01*
X112260000Y-100476455D01*
X117921048Y-100476455D01*
X117960730Y-100726449D01*
X118048422Y-100963896D01*
X118095799Y-101052534D01*
X118324473Y-101105922D01*
X119030395Y-100400000D01*
X119389605Y-100400000D01*
X120095527Y-101105922D01*
X120324201Y-101052534D01*
X120430095Y-100822626D01*
X120489102Y-100576476D01*
X120498952Y-100323545D01*
X120485501Y-100238803D01*
X128114208Y-100238803D01*
X128114208Y-100442681D01*
X128153982Y-100642640D01*
X128232003Y-100830998D01*
X128345271Y-101000516D01*
X128489434Y-101144679D01*
X128658952Y-101257947D01*
X128786663Y-101310847D01*
X128804774Y-101401898D01*
X128882795Y-101590256D01*
X128918532Y-101643741D01*
X128840226Y-101696063D01*
X128696063Y-101840226D01*
X128582795Y-102009744D01*
X128504774Y-102198102D01*
X128465000Y-102398061D01*
X128465000Y-102601939D01*
X128504774Y-102801898D01*
X128582795Y-102990256D01*
X128696063Y-103159774D01*
X128840226Y-103303937D01*
X129009744Y-103417205D01*
X129198102Y-103495226D01*
X129398061Y-103535000D01*
X129601939Y-103535000D01*
X129801898Y-103495226D01*
X129990256Y-103417205D01*
X130000000Y-103410694D01*
X130009744Y-103417205D01*
X130198102Y-103495226D01*
X130398061Y-103535000D01*
X130601939Y-103535000D01*
X130799497Y-103495704D01*
X130826491Y-103522698D01*
X130996009Y-103635966D01*
X131184367Y-103713987D01*
X131366183Y-103750152D01*
X131382795Y-103790256D01*
X131496063Y-103959774D01*
X131640226Y-104103937D01*
X131809744Y-104217205D01*
X131998102Y-104295226D01*
X132198061Y-104335000D01*
X132401939Y-104335000D01*
X132601898Y-104295226D01*
X132790256Y-104217205D01*
X132959774Y-104103937D01*
X133103937Y-103959774D01*
X133217205Y-103790256D01*
X133295226Y-103601898D01*
X133335000Y-103401939D01*
X133335000Y-103198061D01*
X133295226Y-102998102D01*
X133217205Y-102809744D01*
X133103937Y-102640226D01*
X132959774Y-102496063D01*
X132790256Y-102382795D01*
X132601898Y-102304774D01*
X132420082Y-102268609D01*
X132403470Y-102228505D01*
X132290202Y-102058987D01*
X132146039Y-101914824D01*
X131976521Y-101801556D01*
X131788163Y-101723535D01*
X131588204Y-101683761D01*
X131384326Y-101683761D01*
X131186768Y-101723057D01*
X131159774Y-101696063D01*
X130990256Y-101582795D01*
X130801898Y-101504774D01*
X130756365Y-101495717D01*
X130795226Y-101401898D01*
X130815880Y-101298061D01*
X144065000Y-101298061D01*
X144065000Y-101501939D01*
X144104774Y-101701898D01*
X144182795Y-101890256D01*
X144296063Y-102059774D01*
X144440226Y-102203937D01*
X144609744Y-102317205D01*
X144798102Y-102395226D01*
X144998061Y-102435000D01*
X145201939Y-102435000D01*
X145401898Y-102395226D01*
X145590256Y-102317205D01*
X145759774Y-102203937D01*
X145903937Y-102059774D01*
X146017205Y-101890256D01*
X146095226Y-101701898D01*
X146135000Y-101501939D01*
X146135000Y-101298061D01*
X146095226Y-101098102D01*
X146017205Y-100909744D01*
X145903937Y-100740226D01*
X145759774Y-100596063D01*
X145590256Y-100482795D01*
X145401898Y-100404774D01*
X145201939Y-100365000D01*
X144998061Y-100365000D01*
X144798102Y-100404774D01*
X144609744Y-100482795D01*
X144440226Y-100596063D01*
X144296063Y-100740226D01*
X144182795Y-100909744D01*
X144104774Y-101098102D01*
X144065000Y-101298061D01*
X130815880Y-101298061D01*
X130835000Y-101201939D01*
X130835000Y-100998061D01*
X130795226Y-100798102D01*
X130717205Y-100609744D01*
X130603937Y-100440226D01*
X130459774Y-100296063D01*
X130290256Y-100182795D01*
X130162545Y-100129895D01*
X130144434Y-100038844D01*
X130066413Y-99850486D01*
X129953145Y-99680968D01*
X129808982Y-99536805D01*
X129639464Y-99423537D01*
X129451106Y-99345516D01*
X129251147Y-99305742D01*
X129047269Y-99305742D01*
X128847310Y-99345516D01*
X128658952Y-99423537D01*
X128489434Y-99536805D01*
X128345271Y-99680968D01*
X128232003Y-99850486D01*
X128153982Y-100038844D01*
X128114208Y-100238803D01*
X120485501Y-100238803D01*
X120459270Y-100073551D01*
X120371578Y-99836104D01*
X120324201Y-99747466D01*
X120095527Y-99694078D01*
X119389605Y-100400000D01*
X119030395Y-100400000D01*
X118324473Y-99694078D01*
X118095799Y-99747466D01*
X117989905Y-99977374D01*
X117930898Y-100223524D01*
X117921048Y-100476455D01*
X112260000Y-100476455D01*
X112260000Y-98148061D01*
X116055000Y-98148061D01*
X116055000Y-98351939D01*
X116094774Y-98551898D01*
X116172795Y-98740256D01*
X116286063Y-98909774D01*
X116430226Y-99053937D01*
X116599744Y-99167205D01*
X116788102Y-99245226D01*
X116988061Y-99285000D01*
X117191939Y-99285000D01*
X117391898Y-99245226D01*
X117580256Y-99167205D01*
X117749774Y-99053937D01*
X117893937Y-98909774D01*
X117978104Y-98783809D01*
X118071247Y-99008676D01*
X118211875Y-99219140D01*
X118390860Y-99398125D01*
X118512297Y-99479267D01*
X118504078Y-99514473D01*
X119210000Y-100220395D01*
X119915922Y-99514473D01*
X119907703Y-99479267D01*
X120029140Y-99398125D01*
X120208125Y-99219140D01*
X120348753Y-99008676D01*
X120394571Y-98898061D01*
X123465000Y-98898061D01*
X123465000Y-99101939D01*
X123504774Y-99301898D01*
X123582795Y-99490256D01*
X123696063Y-99659774D01*
X123840226Y-99803937D01*
X124009744Y-99917205D01*
X124198102Y-99995226D01*
X124398061Y-100035000D01*
X124601939Y-100035000D01*
X124801898Y-99995226D01*
X124990256Y-99917205D01*
X125159774Y-99803937D01*
X125303937Y-99659774D01*
X125417205Y-99490256D01*
X125495226Y-99301898D01*
X125535000Y-99101939D01*
X125535000Y-98898061D01*
X125495226Y-98698102D01*
X125417205Y-98509744D01*
X125303937Y-98340226D01*
X125159774Y-98196063D01*
X124990256Y-98082795D01*
X124801898Y-98004774D01*
X124601939Y-97965000D01*
X124398061Y-97965000D01*
X124198102Y-98004774D01*
X124009744Y-98082795D01*
X123840226Y-98196063D01*
X123696063Y-98340226D01*
X123582795Y-98509744D01*
X123504774Y-98698102D01*
X123465000Y-98898061D01*
X120394571Y-98898061D01*
X120445619Y-98774821D01*
X120495000Y-98526561D01*
X120495000Y-98273439D01*
X120445619Y-98025179D01*
X120348753Y-97791324D01*
X120208125Y-97580860D01*
X120029140Y-97401875D01*
X119818676Y-97261247D01*
X119584821Y-97164381D01*
X119336561Y-97115000D01*
X119083439Y-97115000D01*
X118835179Y-97164381D01*
X118601324Y-97261247D01*
X118390860Y-97401875D01*
X118211875Y-97580860D01*
X118071247Y-97791324D01*
X118045767Y-97852839D01*
X118007205Y-97759744D01*
X117893937Y-97590226D01*
X117749774Y-97446063D01*
X117580256Y-97332795D01*
X117391898Y-97254774D01*
X117191939Y-97215000D01*
X116988061Y-97215000D01*
X116788102Y-97254774D01*
X116599744Y-97332795D01*
X116430226Y-97446063D01*
X116286063Y-97590226D01*
X116172795Y-97759744D01*
X116094774Y-97948102D01*
X116055000Y-98148061D01*
X112260000Y-98148061D01*
X112260000Y-95598061D01*
X124865000Y-95598061D01*
X124865000Y-95801939D01*
X124904774Y-96001898D01*
X124982795Y-96190256D01*
X125096063Y-96359774D01*
X125240226Y-96503937D01*
X125409744Y-96617205D01*
X125598102Y-96695226D01*
X125798061Y-96735000D01*
X126001939Y-96735000D01*
X126201898Y-96695226D01*
X126390256Y-96617205D01*
X126559774Y-96503937D01*
X126703937Y-96359774D01*
X126745172Y-96298061D01*
X132365000Y-96298061D01*
X132365000Y-96501939D01*
X132404774Y-96701898D01*
X132482795Y-96890256D01*
X132596063Y-97059774D01*
X132740226Y-97203937D01*
X132909744Y-97317205D01*
X133098102Y-97395226D01*
X133298061Y-97435000D01*
X133501939Y-97435000D01*
X133701898Y-97395226D01*
X133890256Y-97317205D01*
X134059774Y-97203937D01*
X134203937Y-97059774D01*
X134317205Y-96890256D01*
X134395226Y-96701898D01*
X134435000Y-96501939D01*
X134435000Y-96298061D01*
X134395226Y-96098102D01*
X134348590Y-95985512D01*
X143277549Y-95985512D01*
X143277549Y-96189390D01*
X143317323Y-96389349D01*
X143395344Y-96577707D01*
X143508612Y-96747225D01*
X143652775Y-96891388D01*
X143822293Y-97004656D01*
X144010651Y-97082677D01*
X144210610Y-97122451D01*
X144414488Y-97122451D01*
X144614447Y-97082677D01*
X144802805Y-97004656D01*
X144972323Y-96891388D01*
X145116486Y-96747225D01*
X145229754Y-96577707D01*
X145307775Y-96389349D01*
X145347549Y-96189390D01*
X145347549Y-95985512D01*
X145307775Y-95785553D01*
X145229754Y-95597195D01*
X145116486Y-95427677D01*
X144972323Y-95283514D01*
X144802805Y-95170246D01*
X144614447Y-95092225D01*
X144414488Y-95052451D01*
X144210610Y-95052451D01*
X144010651Y-95092225D01*
X143822293Y-95170246D01*
X143652775Y-95283514D01*
X143508612Y-95427677D01*
X143395344Y-95597195D01*
X143317323Y-95785553D01*
X143277549Y-95985512D01*
X134348590Y-95985512D01*
X134317205Y-95909744D01*
X134203937Y-95740226D01*
X134059774Y-95596063D01*
X133890256Y-95482795D01*
X133701898Y-95404774D01*
X133501939Y-95365000D01*
X133298061Y-95365000D01*
X133098102Y-95404774D01*
X132909744Y-95482795D01*
X132740226Y-95596063D01*
X132596063Y-95740226D01*
X132482795Y-95909744D01*
X132404774Y-96098102D01*
X132365000Y-96298061D01*
X126745172Y-96298061D01*
X126817205Y-96190256D01*
X126895226Y-96001898D01*
X126935000Y-95801939D01*
X126935000Y-95598061D01*
X126895226Y-95398102D01*
X126817205Y-95209744D01*
X126703937Y-95040226D01*
X126559774Y-94896063D01*
X126390256Y-94782795D01*
X126201898Y-94704774D01*
X126001939Y-94665000D01*
X125798061Y-94665000D01*
X125598102Y-94704774D01*
X125409744Y-94782795D01*
X125240226Y-94896063D01*
X125096063Y-95040226D01*
X124982795Y-95209744D01*
X124904774Y-95398102D01*
X124865000Y-95598061D01*
X112260000Y-95598061D01*
X112260000Y-94598061D01*
X129765000Y-94598061D01*
X129765000Y-94801939D01*
X129804774Y-95001898D01*
X129882795Y-95190256D01*
X129996063Y-95359774D01*
X130140226Y-95503937D01*
X130309744Y-95617205D01*
X130498102Y-95695226D01*
X130698061Y-95735000D01*
X130901939Y-95735000D01*
X131101898Y-95695226D01*
X131290256Y-95617205D01*
X131459774Y-95503937D01*
X131603937Y-95359774D01*
X131717205Y-95190256D01*
X131795226Y-95001898D01*
X131835000Y-94801939D01*
X131835000Y-94598061D01*
X131808544Y-94465059D01*
X131876086Y-94397517D01*
X131989354Y-94227999D01*
X132067375Y-94039641D01*
X132107149Y-93839682D01*
X132107149Y-93635804D01*
X132067375Y-93435845D01*
X131989354Y-93247487D01*
X131876086Y-93077969D01*
X131731923Y-92933806D01*
X131562405Y-92820538D01*
X131374047Y-92742517D01*
X131174088Y-92702743D01*
X130970210Y-92702743D01*
X130770251Y-92742517D01*
X130581893Y-92820538D01*
X130412375Y-92933806D01*
X130268212Y-93077969D01*
X130154944Y-93247487D01*
X130076923Y-93435845D01*
X130037149Y-93635804D01*
X130037149Y-93839682D01*
X130063605Y-93972684D01*
X129996063Y-94040226D01*
X129882795Y-94209744D01*
X129804774Y-94398102D01*
X129765000Y-94598061D01*
X112260000Y-94598061D01*
X112260000Y-90671561D01*
X129869785Y-90671561D01*
X129869785Y-90875439D01*
X129909559Y-91075398D01*
X129987580Y-91263756D01*
X130100848Y-91433274D01*
X130245011Y-91577437D01*
X130414529Y-91690705D01*
X130602887Y-91768726D01*
X130802846Y-91808500D01*
X131006724Y-91808500D01*
X131206683Y-91768726D01*
X131395041Y-91690705D01*
X131533692Y-91598061D01*
X132965000Y-91598061D01*
X132965000Y-91801939D01*
X133004774Y-92001898D01*
X133082795Y-92190256D01*
X133196063Y-92359774D01*
X133340226Y-92503937D01*
X133509744Y-92617205D01*
X133698102Y-92695226D01*
X133898061Y-92735000D01*
X134101939Y-92735000D01*
X134301898Y-92695226D01*
X134490256Y-92617205D01*
X134659774Y-92503937D01*
X134803937Y-92359774D01*
X134917205Y-92190256D01*
X134995226Y-92001898D01*
X135035000Y-91801939D01*
X135035000Y-91598061D01*
X135026207Y-91553853D01*
X135042256Y-91547205D01*
X135211774Y-91433937D01*
X135355937Y-91289774D01*
X135459353Y-91135000D01*
X135501939Y-91135000D01*
X135701898Y-91095226D01*
X135890256Y-91017205D01*
X136059774Y-90903937D01*
X136106449Y-90857262D01*
X136198102Y-90895226D01*
X136398061Y-90935000D01*
X136601939Y-90935000D01*
X136801898Y-90895226D01*
X136990256Y-90817205D01*
X137068656Y-90764820D01*
X137098119Y-90784507D01*
X137286477Y-90862528D01*
X137486436Y-90902302D01*
X137690314Y-90902302D01*
X137890273Y-90862528D01*
X138078631Y-90784507D01*
X138194188Y-90707295D01*
X138309744Y-90784507D01*
X138498102Y-90862528D01*
X138698061Y-90902302D01*
X138901939Y-90902302D01*
X139101898Y-90862528D01*
X139290256Y-90784507D01*
X139459774Y-90671239D01*
X139603937Y-90527076D01*
X139717205Y-90357558D01*
X139795226Y-90169200D01*
X139835000Y-89969241D01*
X139835000Y-89765363D01*
X139795226Y-89565404D01*
X139780250Y-89529249D01*
X139856911Y-89580472D01*
X140045269Y-89658493D01*
X140245228Y-89698267D01*
X140449106Y-89698267D01*
X140649065Y-89658493D01*
X140837423Y-89580472D01*
X141006941Y-89467204D01*
X141151104Y-89323041D01*
X141264372Y-89153523D01*
X141315976Y-89028941D01*
X141382795Y-89190256D01*
X141389307Y-89200002D01*
X141382795Y-89209747D01*
X141304774Y-89398105D01*
X141265000Y-89598064D01*
X141265000Y-89801942D01*
X141304774Y-90001901D01*
X141382795Y-90190259D01*
X141389307Y-90200005D01*
X141382795Y-90209750D01*
X141304774Y-90398108D01*
X141265000Y-90598067D01*
X141265000Y-90801945D01*
X141281890Y-90886860D01*
X141179833Y-90988917D01*
X141066565Y-91158435D01*
X140988544Y-91346793D01*
X140948770Y-91546752D01*
X140948770Y-91750630D01*
X140988544Y-91950589D01*
X141066565Y-92138947D01*
X141150791Y-92265000D01*
X140998061Y-92265000D01*
X140798102Y-92304774D01*
X140609744Y-92382795D01*
X140487125Y-92464726D01*
X140403936Y-92340224D01*
X140259773Y-92196061D01*
X140090255Y-92082793D01*
X139901897Y-92004772D01*
X139701938Y-91964998D01*
X139498060Y-91964998D01*
X139367811Y-91990906D01*
X139298247Y-91921342D01*
X139128729Y-91808074D01*
X138940371Y-91730053D01*
X138740412Y-91690279D01*
X138536534Y-91690279D01*
X138336575Y-91730053D01*
X138148217Y-91808074D01*
X137978699Y-91921342D01*
X137834536Y-92065505D01*
X137809781Y-92102553D01*
X137742427Y-92089156D01*
X137538549Y-92089156D01*
X137338590Y-92128930D01*
X137150232Y-92206951D01*
X136980714Y-92320219D01*
X136836551Y-92464382D01*
X136723283Y-92633900D01*
X136645262Y-92822258D01*
X136626797Y-92915088D01*
X136601898Y-92904774D01*
X136401939Y-92865000D01*
X136198061Y-92865000D01*
X135998102Y-92904774D01*
X135809744Y-92982795D01*
X135640226Y-93096063D01*
X135496063Y-93240226D01*
X135382795Y-93409744D01*
X135304774Y-93598102D01*
X135265000Y-93798061D01*
X135265000Y-94001939D01*
X135304774Y-94201898D01*
X135382795Y-94390256D01*
X135496063Y-94559774D01*
X135640226Y-94703937D01*
X135809744Y-94817205D01*
X135998102Y-94895226D01*
X136198061Y-94935000D01*
X136401939Y-94935000D01*
X136601898Y-94895226D01*
X136790256Y-94817205D01*
X136959774Y-94703937D01*
X137103937Y-94559774D01*
X137217205Y-94390256D01*
X137295226Y-94201898D01*
X137313691Y-94109068D01*
X137338590Y-94119382D01*
X137538549Y-94159156D01*
X137742427Y-94159156D01*
X137942386Y-94119382D01*
X138130744Y-94041361D01*
X138300262Y-93928093D01*
X138444425Y-93783930D01*
X138469180Y-93746882D01*
X138536534Y-93760279D01*
X138740412Y-93760279D01*
X138870661Y-93734371D01*
X138940225Y-93803935D01*
X139109743Y-93917203D01*
X139173270Y-93943517D01*
X139204774Y-94101898D01*
X139282795Y-94290256D01*
X139396063Y-94459774D01*
X139540226Y-94603937D01*
X139709744Y-94717205D01*
X139898102Y-94795226D01*
X140098061Y-94835000D01*
X140301939Y-94835000D01*
X140501898Y-94795226D01*
X140690256Y-94717205D01*
X140859774Y-94603937D01*
X141003937Y-94459774D01*
X141087308Y-94335000D01*
X141159907Y-94335000D01*
X141182795Y-94390256D01*
X141296063Y-94559774D01*
X141440226Y-94703937D01*
X141609744Y-94817205D01*
X141798102Y-94895226D01*
X141998061Y-94935000D01*
X142201939Y-94935000D01*
X142401898Y-94895226D01*
X142590256Y-94817205D01*
X142759774Y-94703937D01*
X142903937Y-94559774D01*
X143017205Y-94390256D01*
X143095226Y-94201898D01*
X143135000Y-94001939D01*
X143135000Y-93798061D01*
X143095226Y-93598102D01*
X143017205Y-93409744D01*
X142991875Y-93371836D01*
X143003937Y-93359774D01*
X143117205Y-93190256D01*
X143195226Y-93001898D01*
X143235000Y-92801939D01*
X143235000Y-92598061D01*
X143195226Y-92398102D01*
X143117205Y-92209744D01*
X143003937Y-92040226D01*
X142960047Y-91996336D01*
X142978996Y-91950589D01*
X143018770Y-91750630D01*
X143018770Y-91546752D01*
X143001880Y-91461837D01*
X143103937Y-91359780D01*
X143161084Y-91274253D01*
X144348069Y-91274253D01*
X144348069Y-91478131D01*
X144387843Y-91678090D01*
X144465864Y-91866448D01*
X144579132Y-92035966D01*
X144723295Y-92180129D01*
X144892813Y-92293397D01*
X145081171Y-92371418D01*
X145281130Y-92411192D01*
X145485008Y-92411192D01*
X145684967Y-92371418D01*
X145873325Y-92293397D01*
X146042843Y-92180129D01*
X146187006Y-92035966D01*
X146212333Y-91998061D01*
X146765000Y-91998061D01*
X146765000Y-92201939D01*
X146804774Y-92401898D01*
X146882795Y-92590256D01*
X146996063Y-92759774D01*
X147140226Y-92903937D01*
X147309744Y-93017205D01*
X147498102Y-93095226D01*
X147698061Y-93135000D01*
X147901939Y-93135000D01*
X148101898Y-93095226D01*
X148290256Y-93017205D01*
X148459774Y-92903937D01*
X148603937Y-92759774D01*
X148717205Y-92590256D01*
X148795226Y-92401898D01*
X148835000Y-92201939D01*
X148835000Y-91998061D01*
X148795226Y-91798102D01*
X148717205Y-91609744D01*
X148603937Y-91440226D01*
X148459774Y-91296063D01*
X148290256Y-91182795D01*
X148101898Y-91104774D01*
X147901939Y-91065000D01*
X147698061Y-91065000D01*
X147498102Y-91104774D01*
X147309744Y-91182795D01*
X147140226Y-91296063D01*
X146996063Y-91440226D01*
X146882795Y-91609744D01*
X146804774Y-91798102D01*
X146765000Y-91998061D01*
X146212333Y-91998061D01*
X146300274Y-91866448D01*
X146378295Y-91678090D01*
X146418069Y-91478131D01*
X146418069Y-91274253D01*
X146380141Y-91083573D01*
X146403937Y-91059777D01*
X146517205Y-90890259D01*
X146595226Y-90701901D01*
X146635000Y-90501942D01*
X146635000Y-90298064D01*
X146595226Y-90098105D01*
X146517205Y-89909747D01*
X146424920Y-89771632D01*
X146495226Y-89601898D01*
X146535000Y-89401939D01*
X146535000Y-89198061D01*
X146495226Y-88998102D01*
X146417205Y-88809744D01*
X146303937Y-88640226D01*
X146159774Y-88496063D01*
X146136852Y-88480747D01*
X146290256Y-88417205D01*
X146459774Y-88303937D01*
X146565650Y-88198061D01*
X154165000Y-88198061D01*
X154165000Y-88401939D01*
X154204774Y-88601898D01*
X154282795Y-88790256D01*
X154396063Y-88959774D01*
X154540226Y-89103937D01*
X154709744Y-89217205D01*
X154898102Y-89295226D01*
X155098061Y-89335000D01*
X155301939Y-89335000D01*
X155501898Y-89295226D01*
X155690256Y-89217205D01*
X155859774Y-89103937D01*
X155980059Y-88983652D01*
X155982795Y-88990256D01*
X156096063Y-89159774D01*
X156240226Y-89303937D01*
X156409744Y-89417205D01*
X156598102Y-89495226D01*
X156798061Y-89535000D01*
X157001939Y-89535000D01*
X157201898Y-89495226D01*
X157390256Y-89417205D01*
X157559774Y-89303937D01*
X157703937Y-89159774D01*
X157817205Y-88990256D01*
X157888238Y-88818767D01*
X157904774Y-88901898D01*
X157982795Y-89090256D01*
X158096063Y-89259774D01*
X158240226Y-89403937D01*
X158409744Y-89517205D01*
X158598102Y-89595226D01*
X158798061Y-89635000D01*
X159001939Y-89635000D01*
X159201898Y-89595226D01*
X159390256Y-89517205D01*
X159559774Y-89403937D01*
X159703937Y-89259774D01*
X159817205Y-89090256D01*
X159819941Y-89083652D01*
X159940226Y-89203937D01*
X160109744Y-89317205D01*
X160298102Y-89395226D01*
X160498061Y-89435000D01*
X160701939Y-89435000D01*
X160901898Y-89395226D01*
X161090256Y-89317205D01*
X161259774Y-89203937D01*
X161403937Y-89059774D01*
X161440837Y-89004548D01*
X161540226Y-89103937D01*
X161709744Y-89217205D01*
X161898102Y-89295226D01*
X162098061Y-89335000D01*
X162301939Y-89335000D01*
X162501898Y-89295226D01*
X162690256Y-89217205D01*
X162859774Y-89103937D01*
X163003937Y-88959774D01*
X163117205Y-88790256D01*
X163195226Y-88601898D01*
X163235000Y-88401939D01*
X163235000Y-88198061D01*
X163195226Y-87998102D01*
X163117205Y-87809744D01*
X163003937Y-87640226D01*
X162859774Y-87496063D01*
X162690256Y-87382795D01*
X162501898Y-87304774D01*
X162301939Y-87265000D01*
X162098061Y-87265000D01*
X161898102Y-87304774D01*
X161709744Y-87382795D01*
X161540226Y-87496063D01*
X161396063Y-87640226D01*
X161359163Y-87695452D01*
X161259774Y-87596063D01*
X161090256Y-87482795D01*
X160901898Y-87404774D01*
X160701939Y-87365000D01*
X160498061Y-87365000D01*
X160298102Y-87404774D01*
X160109744Y-87482795D01*
X159940226Y-87596063D01*
X159796063Y-87740226D01*
X159682795Y-87909744D01*
X159680059Y-87916348D01*
X159559774Y-87796063D01*
X159390256Y-87682795D01*
X159201898Y-87604774D01*
X159001939Y-87565000D01*
X158798061Y-87565000D01*
X158598102Y-87604774D01*
X158409744Y-87682795D01*
X158240226Y-87796063D01*
X158096063Y-87940226D01*
X157982795Y-88109744D01*
X157911762Y-88281233D01*
X157895226Y-88198102D01*
X157817205Y-88009744D01*
X157703937Y-87840226D01*
X157559774Y-87696063D01*
X157390256Y-87582795D01*
X157201898Y-87504774D01*
X157001939Y-87465000D01*
X156798061Y-87465000D01*
X156598102Y-87504774D01*
X156409744Y-87582795D01*
X156240226Y-87696063D01*
X156119941Y-87816348D01*
X156117205Y-87809744D01*
X156003937Y-87640226D01*
X155859774Y-87496063D01*
X155690256Y-87382795D01*
X155501898Y-87304774D01*
X155301939Y-87265000D01*
X155098061Y-87265000D01*
X154898102Y-87304774D01*
X154709744Y-87382795D01*
X154540226Y-87496063D01*
X154396063Y-87640226D01*
X154282795Y-87809744D01*
X154204774Y-87998102D01*
X154165000Y-88198061D01*
X146565650Y-88198061D01*
X146603937Y-88159774D01*
X146717205Y-87990256D01*
X146795226Y-87801898D01*
X146835000Y-87601939D01*
X146835000Y-87398061D01*
X146795226Y-87198102D01*
X146717205Y-87009744D01*
X146603937Y-86840226D01*
X146459774Y-86696063D01*
X146290256Y-86582795D01*
X146101898Y-86504774D01*
X145901939Y-86465000D01*
X145698061Y-86465000D01*
X145498102Y-86504774D01*
X145309744Y-86582795D01*
X145140226Y-86696063D01*
X144996063Y-86840226D01*
X144882795Y-87009744D01*
X144804774Y-87198102D01*
X144765000Y-87398061D01*
X144765000Y-87601939D01*
X144804774Y-87801898D01*
X144882795Y-87990256D01*
X144996063Y-88159774D01*
X145140226Y-88303937D01*
X145163148Y-88319253D01*
X145009744Y-88382795D01*
X144840226Y-88496063D01*
X144696063Y-88640226D01*
X144582795Y-88809744D01*
X144504774Y-88998102D01*
X144465000Y-89198061D01*
X144465000Y-89401939D01*
X144504774Y-89601898D01*
X144582795Y-89790256D01*
X144675080Y-89928371D01*
X144604774Y-90098105D01*
X144565000Y-90298064D01*
X144565000Y-90501942D01*
X144602928Y-90692622D01*
X144579132Y-90716418D01*
X144465864Y-90885936D01*
X144387843Y-91074294D01*
X144348069Y-91274253D01*
X143161084Y-91274253D01*
X143217205Y-91190262D01*
X143295226Y-91001904D01*
X143335000Y-90801945D01*
X143335000Y-90598067D01*
X143295226Y-90398108D01*
X143217205Y-90209750D01*
X143210693Y-90200005D01*
X143217205Y-90190259D01*
X143295226Y-90001901D01*
X143335000Y-89801942D01*
X143335000Y-89598064D01*
X143295226Y-89398105D01*
X143217205Y-89209747D01*
X143210693Y-89200002D01*
X143217205Y-89190256D01*
X143295226Y-89001898D01*
X143335000Y-88801939D01*
X143335000Y-88598061D01*
X143295226Y-88398102D01*
X143217205Y-88209744D01*
X143103937Y-88040226D01*
X142959774Y-87896063D01*
X142790256Y-87782795D01*
X142601898Y-87704774D01*
X142401939Y-87665000D01*
X142367263Y-87665000D01*
X142417205Y-87590256D01*
X142488660Y-87417750D01*
X142601898Y-87395226D01*
X142790256Y-87317205D01*
X142959774Y-87203937D01*
X143103937Y-87059774D01*
X143217205Y-86890256D01*
X143295226Y-86701898D01*
X143335000Y-86501939D01*
X143335000Y-86298061D01*
X143295226Y-86098102D01*
X143217205Y-85909744D01*
X143103937Y-85740226D01*
X142959774Y-85596063D01*
X142790256Y-85482795D01*
X142601898Y-85404774D01*
X142401939Y-85365000D01*
X142198061Y-85365000D01*
X141998102Y-85404774D01*
X141809744Y-85482795D01*
X141640226Y-85596063D01*
X141496063Y-85740226D01*
X141382795Y-85909744D01*
X141311340Y-86082250D01*
X141198102Y-86104774D01*
X141009744Y-86182795D01*
X140840226Y-86296063D01*
X140696063Y-86440226D01*
X140582795Y-86609744D01*
X140535488Y-86723953D01*
X140429879Y-86744960D01*
X140241521Y-86822981D01*
X140148687Y-86885011D01*
X140038125Y-86839214D01*
X139838166Y-86799440D01*
X139634288Y-86799440D01*
X139434329Y-86839214D01*
X139371527Y-86865228D01*
X139236635Y-86775096D01*
X139048277Y-86697075D01*
X138848318Y-86657301D01*
X138644440Y-86657301D01*
X138444481Y-86697075D01*
X138256123Y-86775096D01*
X138086605Y-86888364D01*
X137942442Y-87032527D01*
X137829174Y-87202045D01*
X137751153Y-87390403D01*
X137711379Y-87590362D01*
X137711379Y-87794240D01*
X137751153Y-87994199D01*
X137829174Y-88182557D01*
X137942442Y-88352075D01*
X138086605Y-88496238D01*
X138256123Y-88609506D01*
X138444481Y-88687527D01*
X138644440Y-88727301D01*
X138848318Y-88727301D01*
X139048277Y-88687527D01*
X139111079Y-88661513D01*
X139245971Y-88751645D01*
X139315171Y-88780309D01*
X139351941Y-88965165D01*
X139366917Y-89001320D01*
X139290256Y-88950097D01*
X139101898Y-88872076D01*
X138901939Y-88832302D01*
X138698061Y-88832302D01*
X138498102Y-88872076D01*
X138309744Y-88950097D01*
X138194188Y-89027309D01*
X138078631Y-88950097D01*
X137890273Y-88872076D01*
X137690314Y-88832302D01*
X137486436Y-88832302D01*
X137286477Y-88872076D01*
X137098119Y-88950097D01*
X137019719Y-89002482D01*
X136990256Y-88982795D01*
X136801898Y-88904774D01*
X136601939Y-88865000D01*
X136398061Y-88865000D01*
X136198102Y-88904774D01*
X136009744Y-88982795D01*
X135840226Y-89096063D01*
X135793551Y-89142738D01*
X135701898Y-89104774D01*
X135501939Y-89065000D01*
X135298061Y-89065000D01*
X135098102Y-89104774D01*
X134909744Y-89182795D01*
X134740226Y-89296063D01*
X134596063Y-89440226D01*
X134492647Y-89595000D01*
X134450061Y-89595000D01*
X134250102Y-89634774D01*
X134061744Y-89712795D01*
X133892226Y-89826063D01*
X133748063Y-89970226D01*
X133634795Y-90139744D01*
X133556774Y-90328102D01*
X133517000Y-90528061D01*
X133517000Y-90731939D01*
X133525793Y-90776147D01*
X133509744Y-90782795D01*
X133340226Y-90896063D01*
X133196063Y-91040226D01*
X133082795Y-91209744D01*
X133004774Y-91398102D01*
X132965000Y-91598061D01*
X131533692Y-91598061D01*
X131564559Y-91577437D01*
X131708722Y-91433274D01*
X131821990Y-91263756D01*
X131900011Y-91075398D01*
X131939785Y-90875439D01*
X131939785Y-90671561D01*
X131900011Y-90471602D01*
X131825351Y-90291359D01*
X131843976Y-90263485D01*
X131921997Y-90075127D01*
X131961771Y-89875168D01*
X131961771Y-89671290D01*
X131921997Y-89471331D01*
X131843976Y-89282973D01*
X131730708Y-89113455D01*
X131586545Y-88969292D01*
X131417027Y-88856024D01*
X131228669Y-88778003D01*
X131028710Y-88738229D01*
X130824832Y-88738229D01*
X130624873Y-88778003D01*
X130436515Y-88856024D01*
X130266997Y-88969292D01*
X130122834Y-89113455D01*
X130009566Y-89282973D01*
X129931545Y-89471331D01*
X129891771Y-89671290D01*
X129891771Y-89875168D01*
X129931545Y-90075127D01*
X130006205Y-90255370D01*
X129987580Y-90283244D01*
X129909559Y-90471602D01*
X129869785Y-90671561D01*
X112260000Y-90671561D01*
X112260000Y-88181874D01*
X116505881Y-88181874D01*
X116522554Y-88236864D01*
X116612877Y-88440206D01*
X116741135Y-88622020D01*
X116902399Y-88775318D01*
X117090471Y-88894210D01*
X117298124Y-88974126D01*
X117473000Y-88849129D01*
X117473000Y-88007000D01*
X116632046Y-88007000D01*
X116505881Y-88181874D01*
X112260000Y-88181874D01*
X112260000Y-84371874D01*
X116505881Y-84371874D01*
X116522554Y-84426864D01*
X116612877Y-84630206D01*
X116665639Y-84705000D01*
X116612877Y-84779794D01*
X116522554Y-84983136D01*
X116505881Y-85038126D01*
X116632046Y-85213000D01*
X117473000Y-85213000D01*
X117473000Y-84197000D01*
X116632046Y-84197000D01*
X116505881Y-84371874D01*
X112260000Y-84371874D01*
X112260000Y-82300000D01*
X116461928Y-82300000D01*
X116461928Y-83300000D01*
X116474188Y-83424482D01*
X116510498Y-83544180D01*
X116558070Y-83633180D01*
X116522554Y-83713136D01*
X116505881Y-83768126D01*
X116632046Y-83943000D01*
X117473000Y-83943000D01*
X117473000Y-83938072D01*
X117727000Y-83938072D01*
X117727000Y-83943000D01*
X117738026Y-83943000D01*
X117735000Y-83958212D01*
X117735000Y-84181788D01*
X117738026Y-84197000D01*
X117727000Y-84197000D01*
X117727000Y-85213000D01*
X117738026Y-85213000D01*
X117735000Y-85228212D01*
X117735000Y-85451788D01*
X117738026Y-85467000D01*
X117727000Y-85467000D01*
X117727000Y-85478026D01*
X117711788Y-85475000D01*
X117488212Y-85475000D01*
X117473000Y-85478026D01*
X117473000Y-85467000D01*
X116632046Y-85467000D01*
X116505881Y-85641874D01*
X116522554Y-85696864D01*
X116612877Y-85900206D01*
X116662353Y-85970342D01*
X116594176Y-86072376D01*
X116508617Y-86278933D01*
X116465000Y-86498212D01*
X116465000Y-86721788D01*
X116508617Y-86941067D01*
X116594176Y-87147624D01*
X116662353Y-87249658D01*
X116612877Y-87319794D01*
X116522554Y-87523136D01*
X116505881Y-87578126D01*
X116632046Y-87753000D01*
X117473000Y-87753000D01*
X117473000Y-87741974D01*
X117488212Y-87745000D01*
X117711788Y-87745000D01*
X117727000Y-87741974D01*
X117727000Y-87753000D01*
X117738026Y-87753000D01*
X117735000Y-87768212D01*
X117735000Y-87991788D01*
X117738026Y-88007000D01*
X117727000Y-88007000D01*
X117727000Y-88849129D01*
X117901876Y-88974126D01*
X118109529Y-88894210D01*
X118230488Y-88817744D01*
X118332376Y-88885824D01*
X118538933Y-88971383D01*
X118758212Y-89015000D01*
X118981788Y-89015000D01*
X119201067Y-88971383D01*
X119407624Y-88885824D01*
X119593520Y-88761612D01*
X119751612Y-88603520D01*
X119875824Y-88417624D01*
X119961383Y-88211067D01*
X120005000Y-87991788D01*
X120005000Y-87768212D01*
X119991047Y-87698061D01*
X128965000Y-87698061D01*
X128965000Y-87901939D01*
X129004774Y-88101898D01*
X129082795Y-88290256D01*
X129196063Y-88459774D01*
X129340226Y-88603937D01*
X129509744Y-88717205D01*
X129698102Y-88795226D01*
X129898061Y-88835000D01*
X130101939Y-88835000D01*
X130301898Y-88795226D01*
X130490256Y-88717205D01*
X130659774Y-88603937D01*
X130803937Y-88459774D01*
X130917205Y-88290256D01*
X130995226Y-88101898D01*
X131035000Y-87901939D01*
X131035000Y-87698061D01*
X130995226Y-87498102D01*
X130917205Y-87309744D01*
X130803937Y-87140226D01*
X130659774Y-86996063D01*
X130490256Y-86882795D01*
X130301898Y-86804774D01*
X130101939Y-86765000D01*
X129898061Y-86765000D01*
X129698102Y-86804774D01*
X129509744Y-86882795D01*
X129340226Y-86996063D01*
X129196063Y-87140226D01*
X129082795Y-87309744D01*
X129004774Y-87498102D01*
X128965000Y-87698061D01*
X119991047Y-87698061D01*
X119961383Y-87548933D01*
X119875824Y-87342376D01*
X119810759Y-87245000D01*
X119875824Y-87147624D01*
X119961383Y-86941067D01*
X120005000Y-86721788D01*
X120005000Y-86498212D01*
X119961383Y-86278933D01*
X119875824Y-86072376D01*
X119810759Y-85975000D01*
X119875824Y-85877624D01*
X119961383Y-85671067D01*
X120005000Y-85451788D01*
X120005000Y-85228212D01*
X119961383Y-85008933D01*
X119915459Y-84898061D01*
X154465000Y-84898061D01*
X154465000Y-85101939D01*
X154504774Y-85301898D01*
X154582795Y-85490256D01*
X154696063Y-85659774D01*
X154840226Y-85803937D01*
X155009744Y-85917205D01*
X155198102Y-85995226D01*
X155398061Y-86035000D01*
X155601939Y-86035000D01*
X155801898Y-85995226D01*
X155990256Y-85917205D01*
X156159774Y-85803937D01*
X156303937Y-85659774D01*
X156417205Y-85490256D01*
X156495226Y-85301898D01*
X156535000Y-85101939D01*
X156535000Y-84898061D01*
X156495226Y-84698102D01*
X156417205Y-84509744D01*
X156303937Y-84340226D01*
X156159774Y-84196063D01*
X155990256Y-84082795D01*
X155801898Y-84004774D01*
X155601939Y-83965000D01*
X155398061Y-83965000D01*
X155198102Y-84004774D01*
X155009744Y-84082795D01*
X154840226Y-84196063D01*
X154696063Y-84340226D01*
X154582795Y-84509744D01*
X154504774Y-84698102D01*
X154465000Y-84898061D01*
X119915459Y-84898061D01*
X119875824Y-84802376D01*
X119810759Y-84705000D01*
X119875824Y-84607624D01*
X119961383Y-84401067D01*
X120005000Y-84181788D01*
X120005000Y-83958212D01*
X119961383Y-83738933D01*
X119944454Y-83698061D01*
X142265000Y-83698061D01*
X142265000Y-83901939D01*
X142304774Y-84101898D01*
X142382795Y-84290256D01*
X142496063Y-84459774D01*
X142640226Y-84603937D01*
X142809744Y-84717205D01*
X142998102Y-84795226D01*
X143198061Y-84835000D01*
X143401939Y-84835000D01*
X143601898Y-84795226D01*
X143790256Y-84717205D01*
X143959774Y-84603937D01*
X144103937Y-84459774D01*
X144217205Y-84290256D01*
X144295226Y-84101898D01*
X144335000Y-83901939D01*
X144335000Y-83698061D01*
X144295226Y-83498102D01*
X144217205Y-83309744D01*
X144103937Y-83140226D01*
X143959774Y-82996063D01*
X143790256Y-82882795D01*
X143601898Y-82804774D01*
X143401939Y-82765000D01*
X143198061Y-82765000D01*
X142998102Y-82804774D01*
X142809744Y-82882795D01*
X142640226Y-82996063D01*
X142496063Y-83140226D01*
X142382795Y-83309744D01*
X142304774Y-83498102D01*
X142265000Y-83698061D01*
X119944454Y-83698061D01*
X119875824Y-83532376D01*
X119810759Y-83435000D01*
X119875824Y-83337624D01*
X119961383Y-83131067D01*
X120005000Y-82911788D01*
X120005000Y-82688212D01*
X119961383Y-82468933D01*
X119875824Y-82262376D01*
X119751612Y-82076480D01*
X119593520Y-81918388D01*
X119407624Y-81794176D01*
X119201067Y-81708617D01*
X119079312Y-81684399D01*
X119103937Y-81659774D01*
X119217205Y-81490256D01*
X119295226Y-81301898D01*
X119335000Y-81101939D01*
X119335000Y-80998061D01*
X123365000Y-80998061D01*
X123365000Y-81201939D01*
X123404774Y-81401898D01*
X123482795Y-81590256D01*
X123596063Y-81759774D01*
X123740226Y-81903937D01*
X123909744Y-82017205D01*
X124098102Y-82095226D01*
X124298061Y-82135000D01*
X124501939Y-82135000D01*
X124701898Y-82095226D01*
X124890256Y-82017205D01*
X125059774Y-81903937D01*
X125203937Y-81759774D01*
X125317205Y-81590256D01*
X125395226Y-81401898D01*
X125435000Y-81201939D01*
X125435000Y-80998061D01*
X125395226Y-80798102D01*
X125317205Y-80609744D01*
X125203937Y-80440226D01*
X125059774Y-80296063D01*
X124890256Y-80182795D01*
X124701898Y-80104774D01*
X124501939Y-80065000D01*
X124298061Y-80065000D01*
X124098102Y-80104774D01*
X123909744Y-80182795D01*
X123740226Y-80296063D01*
X123596063Y-80440226D01*
X123482795Y-80609744D01*
X123404774Y-80798102D01*
X123365000Y-80998061D01*
X119335000Y-80998061D01*
X119335000Y-80898061D01*
X119295226Y-80698102D01*
X119217205Y-80509744D01*
X119103937Y-80340226D01*
X118959774Y-80196063D01*
X118790256Y-80082795D01*
X118601898Y-80004774D01*
X118401939Y-79965000D01*
X118198061Y-79965000D01*
X117998102Y-80004774D01*
X117809744Y-80082795D01*
X117640226Y-80196063D01*
X117496063Y-80340226D01*
X117382795Y-80509744D01*
X117304774Y-80698102D01*
X117265000Y-80898061D01*
X117265000Y-81101939D01*
X117304774Y-81301898D01*
X117382795Y-81490256D01*
X117496063Y-81659774D01*
X117498217Y-81661928D01*
X117100000Y-81661928D01*
X116975518Y-81674188D01*
X116855820Y-81710498D01*
X116745506Y-81769463D01*
X116648815Y-81848815D01*
X116569463Y-81945506D01*
X116510498Y-82055820D01*
X116474188Y-82175518D01*
X116461928Y-82300000D01*
X112260000Y-82300000D01*
X112260000Y-79198061D01*
X121065000Y-79198061D01*
X121065000Y-79401939D01*
X121104774Y-79601898D01*
X121182795Y-79790256D01*
X121296063Y-79959774D01*
X121440226Y-80103937D01*
X121609744Y-80217205D01*
X121798102Y-80295226D01*
X121998061Y-80335000D01*
X122201939Y-80335000D01*
X122401898Y-80295226D01*
X122590256Y-80217205D01*
X122759774Y-80103937D01*
X122903937Y-79959774D01*
X123017205Y-79790256D01*
X123095226Y-79601898D01*
X123135000Y-79401939D01*
X123135000Y-79290946D01*
X125872115Y-79290946D01*
X125872115Y-79494824D01*
X125911889Y-79694783D01*
X125989910Y-79883141D01*
X126103178Y-80052659D01*
X126247341Y-80196822D01*
X126416859Y-80310090D01*
X126605217Y-80388111D01*
X126805176Y-80427885D01*
X127009054Y-80427885D01*
X127209013Y-80388111D01*
X127397371Y-80310090D01*
X127565034Y-80198061D01*
X133065000Y-80198061D01*
X133065000Y-80401939D01*
X133104774Y-80601898D01*
X133182795Y-80790256D01*
X133296063Y-80959774D01*
X133440226Y-81103937D01*
X133609744Y-81217205D01*
X133798102Y-81295226D01*
X133965000Y-81328424D01*
X133965000Y-81501939D01*
X134004774Y-81701898D01*
X134082795Y-81890256D01*
X134196063Y-82059774D01*
X134340226Y-82203937D01*
X134509744Y-82317205D01*
X134698102Y-82395226D01*
X134898061Y-82435000D01*
X135101939Y-82435000D01*
X135301898Y-82395226D01*
X135490256Y-82317205D01*
X135659774Y-82203937D01*
X135803937Y-82059774D01*
X135917205Y-81890256D01*
X135995226Y-81701898D01*
X136035000Y-81501939D01*
X136035000Y-81298061D01*
X151265000Y-81298061D01*
X151265000Y-81501939D01*
X151304774Y-81701898D01*
X151382795Y-81890256D01*
X151496063Y-82059774D01*
X151640226Y-82203937D01*
X151809744Y-82317205D01*
X151998102Y-82395226D01*
X152198061Y-82435000D01*
X152401939Y-82435000D01*
X152601898Y-82395226D01*
X152790256Y-82317205D01*
X152959774Y-82203937D01*
X153103937Y-82059774D01*
X153217205Y-81890256D01*
X153295226Y-81701898D01*
X153335000Y-81501939D01*
X153335000Y-81298061D01*
X153295226Y-81098102D01*
X153217205Y-80909744D01*
X153103937Y-80740226D01*
X152959774Y-80596063D01*
X152790256Y-80482795D01*
X152601898Y-80404774D01*
X152401939Y-80365000D01*
X152198061Y-80365000D01*
X151998102Y-80404774D01*
X151809744Y-80482795D01*
X151640226Y-80596063D01*
X151496063Y-80740226D01*
X151382795Y-80909744D01*
X151304774Y-81098102D01*
X151265000Y-81298061D01*
X136035000Y-81298061D01*
X135995226Y-81098102D01*
X135917205Y-80909744D01*
X135803937Y-80740226D01*
X135659774Y-80596063D01*
X135490256Y-80482795D01*
X135301898Y-80404774D01*
X135135000Y-80371576D01*
X135135000Y-80198061D01*
X135095226Y-79998102D01*
X135017205Y-79809744D01*
X134903937Y-79640226D01*
X134759774Y-79496063D01*
X134590256Y-79382795D01*
X134401898Y-79304774D01*
X134201939Y-79265000D01*
X133998061Y-79265000D01*
X133798102Y-79304774D01*
X133609744Y-79382795D01*
X133440226Y-79496063D01*
X133296063Y-79640226D01*
X133182795Y-79809744D01*
X133104774Y-79998102D01*
X133065000Y-80198061D01*
X127565034Y-80198061D01*
X127566889Y-80196822D01*
X127711052Y-80052659D01*
X127824320Y-79883141D01*
X127902341Y-79694783D01*
X127942115Y-79494824D01*
X127942115Y-79290946D01*
X127902341Y-79090987D01*
X127824320Y-78902629D01*
X127711052Y-78733111D01*
X127566889Y-78588948D01*
X127397371Y-78475680D01*
X127209013Y-78397659D01*
X127009054Y-78357885D01*
X126805176Y-78357885D01*
X126605217Y-78397659D01*
X126416859Y-78475680D01*
X126247341Y-78588948D01*
X126103178Y-78733111D01*
X125989910Y-78902629D01*
X125911889Y-79090987D01*
X125872115Y-79290946D01*
X123135000Y-79290946D01*
X123135000Y-79198061D01*
X123122456Y-79135000D01*
X123301939Y-79135000D01*
X123501898Y-79095226D01*
X123690256Y-79017205D01*
X123859774Y-78903937D01*
X124003937Y-78759774D01*
X124117205Y-78590256D01*
X124195226Y-78401898D01*
X124235000Y-78201939D01*
X124235000Y-77998061D01*
X124195226Y-77798102D01*
X124117205Y-77609744D01*
X124003937Y-77440226D01*
X123859774Y-77296063D01*
X123690256Y-77182795D01*
X123501898Y-77104774D01*
X123301939Y-77065000D01*
X123098061Y-77065000D01*
X122898102Y-77104774D01*
X122709744Y-77182795D01*
X122540226Y-77296063D01*
X122396063Y-77440226D01*
X122282795Y-77609744D01*
X122204774Y-77798102D01*
X122165000Y-77998061D01*
X122165000Y-78201939D01*
X122177544Y-78265000D01*
X121998061Y-78265000D01*
X121798102Y-78304774D01*
X121609744Y-78382795D01*
X121440226Y-78496063D01*
X121296063Y-78640226D01*
X121182795Y-78809744D01*
X121104774Y-78998102D01*
X121065000Y-79198061D01*
X112260000Y-79198061D01*
X112260000Y-75798061D01*
X122265000Y-75798061D01*
X122265000Y-76001939D01*
X122304774Y-76201898D01*
X122382795Y-76390256D01*
X122496063Y-76559774D01*
X122640226Y-76703937D01*
X122809744Y-76817205D01*
X122998102Y-76895226D01*
X123198061Y-76935000D01*
X123401939Y-76935000D01*
X123601898Y-76895226D01*
X123790256Y-76817205D01*
X123818907Y-76798061D01*
X124865000Y-76798061D01*
X124865000Y-77001939D01*
X124904774Y-77201898D01*
X124982795Y-77390256D01*
X125096063Y-77559774D01*
X125240226Y-77703937D01*
X125409744Y-77817205D01*
X125598102Y-77895226D01*
X125798061Y-77935000D01*
X126001939Y-77935000D01*
X126201898Y-77895226D01*
X126390256Y-77817205D01*
X126559774Y-77703937D01*
X126703937Y-77559774D01*
X126817205Y-77390256D01*
X126895226Y-77201898D01*
X126935000Y-77001939D01*
X126935000Y-76798061D01*
X126895226Y-76598102D01*
X126817205Y-76409744D01*
X126703937Y-76240226D01*
X126559774Y-76096063D01*
X126390256Y-75982795D01*
X126201898Y-75904774D01*
X126001939Y-75865000D01*
X125798061Y-75865000D01*
X125598102Y-75904774D01*
X125409744Y-75982795D01*
X125240226Y-76096063D01*
X125096063Y-76240226D01*
X124982795Y-76409744D01*
X124904774Y-76598102D01*
X124865000Y-76798061D01*
X123818907Y-76798061D01*
X123959774Y-76703937D01*
X124103937Y-76559774D01*
X124217205Y-76390256D01*
X124295226Y-76201898D01*
X124335000Y-76001939D01*
X124335000Y-75798061D01*
X124295226Y-75598102D01*
X124217205Y-75409744D01*
X124103937Y-75240226D01*
X123959774Y-75096063D01*
X123790256Y-74982795D01*
X123601898Y-74904774D01*
X123401939Y-74865000D01*
X123198061Y-74865000D01*
X122998102Y-74904774D01*
X122809744Y-74982795D01*
X122640226Y-75096063D01*
X122496063Y-75240226D01*
X122382795Y-75409744D01*
X122304774Y-75598102D01*
X122265000Y-75798061D01*
X112260000Y-75798061D01*
X112260000Y-73398061D01*
X113765000Y-73398061D01*
X113765000Y-73601939D01*
X113804774Y-73801898D01*
X113882795Y-73990256D01*
X113996063Y-74159774D01*
X114140226Y-74303937D01*
X114309744Y-74417205D01*
X114498102Y-74495226D01*
X114698061Y-74535000D01*
X114901939Y-74535000D01*
X115101898Y-74495226D01*
X115290256Y-74417205D01*
X115459774Y-74303937D01*
X115600000Y-74163711D01*
X115640226Y-74203937D01*
X115809744Y-74317205D01*
X115998102Y-74395226D01*
X116198061Y-74435000D01*
X116401939Y-74435000D01*
X116601898Y-74395226D01*
X116790256Y-74317205D01*
X116959774Y-74203937D01*
X117103937Y-74059774D01*
X117217205Y-73890256D01*
X117295226Y-73701898D01*
X117335000Y-73501939D01*
X117335000Y-73298061D01*
X117295226Y-73098102D01*
X117217205Y-72909744D01*
X117103937Y-72740226D01*
X116959774Y-72596063D01*
X116790256Y-72482795D01*
X116601898Y-72404774D01*
X116401939Y-72365000D01*
X116198061Y-72365000D01*
X115998102Y-72404774D01*
X115809744Y-72482795D01*
X115640226Y-72596063D01*
X115500000Y-72736289D01*
X115459774Y-72696063D01*
X115290256Y-72582795D01*
X115101898Y-72504774D01*
X114901939Y-72465000D01*
X114698061Y-72465000D01*
X114498102Y-72504774D01*
X114309744Y-72582795D01*
X114140226Y-72696063D01*
X113996063Y-72840226D01*
X113882795Y-73009744D01*
X113804774Y-73198102D01*
X113765000Y-73398061D01*
X112260000Y-73398061D01*
X112260000Y-66887826D01*
X112275891Y-66903717D01*
X112389831Y-66789777D01*
X112629976Y-67177018D01*
X113123877Y-67437641D01*
X113659133Y-67596901D01*
X114215174Y-67648678D01*
X114770632Y-67590981D01*
X115304161Y-67426028D01*
X115770024Y-67177018D01*
X116010170Y-66789775D01*
X114200000Y-64979605D01*
X114185858Y-64993748D01*
X114006253Y-64814143D01*
X114020395Y-64800000D01*
X114006253Y-64785858D01*
X114185858Y-64606253D01*
X114200000Y-64620395D01*
X114214143Y-64606253D01*
X114393748Y-64785858D01*
X114379605Y-64800000D01*
X116189775Y-66610170D01*
X116577018Y-66370024D01*
X116837641Y-65876123D01*
X116996901Y-65340867D01*
X117048678Y-64784826D01*
X116990981Y-64229368D01*
X116826028Y-63695839D01*
X116577018Y-63229976D01*
X116189777Y-62989831D01*
X116303717Y-62875891D01*
X116287826Y-62860000D01*
X128692462Y-62860000D01*
X128665000Y-62998061D01*
%TA.AperFunction,Conductor*%
D21*
G36*
X128665000Y-62998061D02*
G01*
X128665000Y-63201939D01*
X128704774Y-63401898D01*
X128782795Y-63590256D01*
X128896063Y-63759774D01*
X129040226Y-63903937D01*
X129209744Y-64017205D01*
X129398102Y-64095226D01*
X129598061Y-64135000D01*
X129801939Y-64135000D01*
X130001898Y-64095226D01*
X130190256Y-64017205D01*
X130359774Y-63903937D01*
X130500000Y-63763711D01*
X130640226Y-63903937D01*
X130809744Y-64017205D01*
X130998102Y-64095226D01*
X131198061Y-64135000D01*
X131401939Y-64135000D01*
X131601898Y-64095226D01*
X131790256Y-64017205D01*
X131959774Y-63903937D01*
X132103937Y-63759774D01*
X132217205Y-63590256D01*
X132295226Y-63401898D01*
X132335000Y-63201939D01*
X132335000Y-62998061D01*
X132307538Y-62860000D01*
X133350213Y-62860000D01*
X133156453Y-63053760D01*
X132942502Y-63373960D01*
X132795130Y-63729748D01*
X132720000Y-64107449D01*
X132720000Y-64492551D01*
X132795130Y-64870252D01*
X132942502Y-65226040D01*
X133156453Y-65546240D01*
X133428760Y-65818547D01*
X133748960Y-66032498D01*
X134104748Y-66179870D01*
X134482449Y-66255000D01*
X134867551Y-66255000D01*
X134875112Y-66253496D01*
X134780557Y-66395008D01*
X134687460Y-66619764D01*
X134640000Y-66858363D01*
X134640000Y-67101637D01*
X134687460Y-67340236D01*
X134780557Y-67564992D01*
X134915713Y-67767267D01*
X135087733Y-67939287D01*
X135290008Y-68074443D01*
X135514764Y-68167540D01*
X135753363Y-68215000D01*
X135996637Y-68215000D01*
X136235236Y-68167540D01*
X136459992Y-68074443D01*
X136662267Y-67939287D01*
X136834287Y-67767267D01*
X136969443Y-67564992D01*
X137062540Y-67340236D01*
X137110000Y-67101637D01*
X137110000Y-66858363D01*
X137062540Y-66619764D01*
X136969443Y-66395008D01*
X136834287Y-66192733D01*
X136662267Y-66020713D01*
X136459992Y-65885557D01*
X136235236Y-65792460D01*
X135996637Y-65745000D01*
X135994787Y-65745000D01*
X136193547Y-65546240D01*
X136407498Y-65226040D01*
X136554870Y-64870252D01*
X136630000Y-64492551D01*
X136630000Y-64107449D01*
X136554870Y-63729748D01*
X136407498Y-63373960D01*
X136193547Y-63053760D01*
X135999787Y-62860000D01*
X140600213Y-62860000D01*
X140406453Y-63053760D01*
X140192502Y-63373960D01*
X140045130Y-63729748D01*
X139970000Y-64107449D01*
X139970000Y-64492551D01*
X140045130Y-64870252D01*
X140192502Y-65226040D01*
X140406453Y-65546240D01*
X140605213Y-65745000D01*
X140603363Y-65745000D01*
X140364764Y-65792460D01*
X140140008Y-65885557D01*
X139937733Y-66020713D01*
X139765713Y-66192733D01*
X139630557Y-66395008D01*
X139537460Y-66619764D01*
X139490000Y-66858363D01*
X139490000Y-67101637D01*
X139537460Y-67340236D01*
X139630557Y-67564992D01*
X139765713Y-67767267D01*
X139937733Y-67939287D01*
X140140008Y-68074443D01*
X140364764Y-68167540D01*
X140603363Y-68215000D01*
X140846637Y-68215000D01*
X141085236Y-68167540D01*
X141309992Y-68074443D01*
X141512267Y-67939287D01*
X141684287Y-67767267D01*
X141819443Y-67564992D01*
X141888588Y-67398061D01*
X142465000Y-67398061D01*
X142465000Y-67601939D01*
X142504774Y-67801898D01*
X142582795Y-67990256D01*
X142696063Y-68159774D01*
X142840226Y-68303937D01*
X143009744Y-68417205D01*
X143198102Y-68495226D01*
X143398061Y-68535000D01*
X143601939Y-68535000D01*
X143801898Y-68495226D01*
X143990256Y-68417205D01*
X144159774Y-68303937D01*
X144303937Y-68159774D01*
X144417205Y-67990256D01*
X144495226Y-67801898D01*
X144519874Y-67677980D01*
X146201626Y-67677980D01*
X146321514Y-67962836D01*
X146645210Y-68123699D01*
X146994069Y-68218322D01*
X147354684Y-68243067D01*
X147713198Y-68196985D01*
X148055833Y-68081846D01*
X148278486Y-67962836D01*
X148398374Y-67677980D01*
X147300000Y-66579605D01*
X146201626Y-67677980D01*
X144519874Y-67677980D01*
X144535000Y-67601939D01*
X144535000Y-67398061D01*
X144495226Y-67198102D01*
X144417205Y-67009744D01*
X144303937Y-66840226D01*
X144159774Y-66696063D01*
X143990256Y-66582795D01*
X143801898Y-66504774D01*
X143601939Y-66465000D01*
X143398061Y-66465000D01*
X143198102Y-66504774D01*
X143009744Y-66582795D01*
X142840226Y-66696063D01*
X142696063Y-66840226D01*
X142582795Y-67009744D01*
X142504774Y-67198102D01*
X142465000Y-67398061D01*
X141888588Y-67398061D01*
X141912540Y-67340236D01*
X141960000Y-67101637D01*
X141960000Y-66858363D01*
X141912540Y-66619764D01*
X141844162Y-66454684D01*
X145456933Y-66454684D01*
X145503015Y-66813198D01*
X145618154Y-67155833D01*
X145737164Y-67378486D01*
X146022020Y-67498374D01*
X147120395Y-66400000D01*
X147479605Y-66400000D01*
X148577980Y-67498374D01*
X148862836Y-67378486D01*
X148961928Y-67179088D01*
X148961928Y-67600000D01*
X148974188Y-67724482D01*
X149010498Y-67844180D01*
X149069463Y-67954494D01*
X149148815Y-68051185D01*
X149245506Y-68130537D01*
X149355820Y-68189502D01*
X149475518Y-68225812D01*
X149600000Y-68238072D01*
X152000000Y-68238072D01*
X152124482Y-68225812D01*
X152244180Y-68189502D01*
X152354494Y-68130537D01*
X152451185Y-68051185D01*
X152530537Y-67954494D01*
X152589502Y-67844180D01*
X152625812Y-67724482D01*
X152638072Y-67600000D01*
X152638072Y-65200000D01*
X152625812Y-65075518D01*
X152589502Y-64955820D01*
X152530537Y-64845506D01*
X152451185Y-64748815D01*
X152354494Y-64669463D01*
X152244180Y-64610498D01*
X152124482Y-64574188D01*
X152000000Y-64561928D01*
X149600000Y-64561928D01*
X149475518Y-64574188D01*
X149355820Y-64610498D01*
X149245506Y-64669463D01*
X149148815Y-64748815D01*
X149069463Y-64845506D01*
X149010498Y-64955820D01*
X148974188Y-65075518D01*
X148961928Y-65200000D01*
X148961928Y-65606903D01*
X148862836Y-65421514D01*
X148577980Y-65301626D01*
X147479605Y-66400000D01*
X147120395Y-66400000D01*
X146022020Y-65301626D01*
X145737164Y-65421514D01*
X145576301Y-65745210D01*
X145481678Y-66094069D01*
X145456933Y-66454684D01*
X141844162Y-66454684D01*
X141819443Y-66395008D01*
X141724888Y-66253496D01*
X141732449Y-66255000D01*
X142117551Y-66255000D01*
X142495252Y-66179870D01*
X142851040Y-66032498D01*
X143171240Y-65818547D01*
X143443547Y-65546240D01*
X143657498Y-65226040D01*
X143700584Y-65122020D01*
X146201626Y-65122020D01*
X147300000Y-66220395D01*
X148398374Y-65122020D01*
X148278486Y-64837164D01*
X147954790Y-64676301D01*
X147605931Y-64581678D01*
X147245316Y-64556933D01*
X146886802Y-64603015D01*
X146544167Y-64718154D01*
X146321514Y-64837164D01*
X146201626Y-65122020D01*
X143700584Y-65122020D01*
X143804870Y-64870252D01*
X143880000Y-64492551D01*
X143880000Y-64107449D01*
X143804870Y-63729748D01*
X143657498Y-63373960D01*
X143443547Y-63053760D01*
X143249787Y-62860000D01*
X159912174Y-62860000D01*
X159896283Y-62875891D01*
X160010223Y-62989831D01*
X159622982Y-63229976D01*
X159362359Y-63723877D01*
X159203099Y-64259133D01*
X159151322Y-64815174D01*
X159209019Y-65370632D01*
X159373972Y-65904161D01*
X159622982Y-66370024D01*
X160010225Y-66610170D01*
X161820395Y-64800000D01*
X161806253Y-64785858D01*
X161985858Y-64606253D01*
X162000000Y-64620395D01*
X162014143Y-64606253D01*
X162193748Y-64785858D01*
X162179605Y-64800000D01*
X162193748Y-64814143D01*
X162014143Y-64993748D01*
X162000000Y-64979605D01*
X160189830Y-66789775D01*
X160429976Y-67177018D01*
X160923877Y-67437641D01*
X161459133Y-67596901D01*
X162015174Y-67648678D01*
X162570632Y-67590981D01*
X163104161Y-67426028D01*
X163570024Y-67177018D01*
X163810169Y-66789777D01*
X163924109Y-66903717D01*
X163940001Y-66887825D01*
X163940001Y-90165000D01*
X163798061Y-90165000D01*
X163598102Y-90204774D01*
X163409744Y-90282795D01*
X163240226Y-90396063D01*
X163096063Y-90540226D01*
X162982795Y-90709744D01*
X162904774Y-90898102D01*
X162865000Y-91098061D01*
X162865000Y-91301939D01*
X162904774Y-91501898D01*
X162982795Y-91690256D01*
X163096063Y-91859774D01*
X163240226Y-92003937D01*
X163409744Y-92117205D01*
X163598102Y-92195226D01*
X163798061Y-92235000D01*
X163940001Y-92235000D01*
X163940000Y-118112174D01*
X163924109Y-118096283D01*
X163810169Y-118210223D01*
X163570024Y-117822982D01*
X163076123Y-117562359D01*
X162540867Y-117403099D01*
X161984826Y-117351322D01*
X161429368Y-117409019D01*
X160895839Y-117573972D01*
X160429976Y-117822982D01*
X160189830Y-118210225D01*
X162000000Y-120020395D01*
X162014143Y-120006253D01*
X162193748Y-120185858D01*
X162179605Y-120200000D01*
X162193748Y-120214143D01*
X162014143Y-120393748D01*
X162000000Y-120379605D01*
X161985858Y-120393748D01*
X161806253Y-120214143D01*
X161820395Y-120200000D01*
X160010225Y-118389830D01*
X159622982Y-118629976D01*
X159362359Y-119123877D01*
X159203099Y-119659133D01*
X159151322Y-120215174D01*
X159209019Y-120770632D01*
X159373972Y-121304161D01*
X159622982Y-121770024D01*
X160010223Y-122010169D01*
X159896283Y-122124109D01*
X159912174Y-122140000D01*
X134105802Y-122140000D01*
X134159774Y-122103937D01*
X134303937Y-121959774D01*
X134417205Y-121790256D01*
X134495226Y-121601898D01*
X134535000Y-121401939D01*
X134535000Y-121198061D01*
X134495226Y-120998102D01*
X134417205Y-120809744D01*
X134303937Y-120640226D01*
X134159774Y-120496063D01*
X133990256Y-120382795D01*
X133801898Y-120304774D01*
X133601939Y-120265000D01*
X133398061Y-120265000D01*
X133198102Y-120304774D01*
X133009744Y-120382795D01*
X132840226Y-120496063D01*
X132696063Y-120640226D01*
X132582795Y-120809744D01*
X132504774Y-120998102D01*
X132465000Y-121198061D01*
X132465000Y-121401939D01*
X132504774Y-121601898D01*
X132582795Y-121790256D01*
X132696063Y-121959774D01*
X132840226Y-122103937D01*
X132894198Y-122140000D01*
X116287826Y-122140000D01*
X116303717Y-122124109D01*
X116189777Y-122010169D01*
X116577018Y-121770024D01*
X116837641Y-121276123D01*
X116996901Y-120740867D01*
X117048678Y-120184826D01*
X116990981Y-119629368D01*
X116826028Y-119095839D01*
X116577018Y-118629976D01*
X116189775Y-118389830D01*
X114379605Y-120200000D01*
X114393748Y-120214143D01*
X114214143Y-120393748D01*
X114200000Y-120379605D01*
X114185858Y-120393748D01*
X114006253Y-120214143D01*
X114020395Y-120200000D01*
X114006253Y-120185858D01*
X114185858Y-120006253D01*
X114200000Y-120020395D01*
X116010170Y-118210225D01*
X115878599Y-117998061D01*
X124965000Y-117998061D01*
X124965000Y-118201939D01*
X125004774Y-118401898D01*
X125082795Y-118590256D01*
X125196063Y-118759774D01*
X125340226Y-118903937D01*
X125509744Y-119017205D01*
X125698102Y-119095226D01*
X125898061Y-119135000D01*
X126065000Y-119135000D01*
X126065000Y-119201939D01*
X126104774Y-119401898D01*
X126182795Y-119590256D01*
X126296063Y-119759774D01*
X126440226Y-119903937D01*
X126609744Y-120017205D01*
X126798102Y-120095226D01*
X126998061Y-120135000D01*
X127201939Y-120135000D01*
X127401898Y-120095226D01*
X127590256Y-120017205D01*
X127759774Y-119903937D01*
X127900000Y-119763711D01*
X128040226Y-119903937D01*
X128209744Y-120017205D01*
X128398102Y-120095226D01*
X128598061Y-120135000D01*
X128801939Y-120135000D01*
X129001898Y-120095226D01*
X129190256Y-120017205D01*
X129359774Y-119903937D01*
X129365650Y-119898061D01*
X129665000Y-119898061D01*
X129665000Y-120101939D01*
X129704774Y-120301898D01*
X129782795Y-120490256D01*
X129896063Y-120659774D01*
X130040226Y-120803937D01*
X130209744Y-120917205D01*
X130398102Y-120995226D01*
X130598061Y-121035000D01*
X130801939Y-121035000D01*
X131001898Y-120995226D01*
X131190256Y-120917205D01*
X131359774Y-120803937D01*
X131503937Y-120659774D01*
X131617205Y-120490256D01*
X131695226Y-120301898D01*
X131735000Y-120101939D01*
X131735000Y-119898061D01*
X131695226Y-119698102D01*
X131617205Y-119509744D01*
X131503937Y-119340226D01*
X131359774Y-119196063D01*
X131190256Y-119082795D01*
X131001898Y-119004774D01*
X130801939Y-118965000D01*
X130598061Y-118965000D01*
X130398102Y-119004774D01*
X130209744Y-119082795D01*
X130040226Y-119196063D01*
X129896063Y-119340226D01*
X129782795Y-119509744D01*
X129704774Y-119698102D01*
X129665000Y-119898061D01*
X129365650Y-119898061D01*
X129503937Y-119759774D01*
X129617205Y-119590256D01*
X129695226Y-119401898D01*
X129735000Y-119201939D01*
X129735000Y-118998061D01*
X129695226Y-118798102D01*
X129617205Y-118609744D01*
X129503937Y-118440226D01*
X129359774Y-118296063D01*
X129190256Y-118182795D01*
X129001898Y-118104774D01*
X128801939Y-118065000D01*
X128598061Y-118065000D01*
X128398102Y-118104774D01*
X128209744Y-118182795D01*
X128040226Y-118296063D01*
X127900000Y-118436289D01*
X127759774Y-118296063D01*
X127590256Y-118182795D01*
X127401898Y-118104774D01*
X127201939Y-118065000D01*
X127035000Y-118065000D01*
X127035000Y-117998061D01*
X126995226Y-117798102D01*
X126917205Y-117609744D01*
X126803937Y-117440226D01*
X126661772Y-117298061D01*
X143765000Y-117298061D01*
X143765000Y-117501939D01*
X143804774Y-117701898D01*
X143882795Y-117890256D01*
X143996063Y-118059774D01*
X144140226Y-118203937D01*
X144309744Y-118317205D01*
X144498102Y-118395226D01*
X144698061Y-118435000D01*
X144901939Y-118435000D01*
X145101898Y-118395226D01*
X145290256Y-118317205D01*
X145459774Y-118203937D01*
X145603937Y-118059774D01*
X145717205Y-117890256D01*
X145795226Y-117701898D01*
X145835000Y-117501939D01*
X145835000Y-117298061D01*
X145795226Y-117098102D01*
X145717205Y-116909744D01*
X145603937Y-116740226D01*
X145459774Y-116596063D01*
X145290256Y-116482795D01*
X145101898Y-116404774D01*
X144901939Y-116365000D01*
X144698061Y-116365000D01*
X144498102Y-116404774D01*
X144309744Y-116482795D01*
X144140226Y-116596063D01*
X143996063Y-116740226D01*
X143882795Y-116909744D01*
X143804774Y-117098102D01*
X143765000Y-117298061D01*
X126661772Y-117298061D01*
X126659774Y-117296063D01*
X126490256Y-117182795D01*
X126301898Y-117104774D01*
X126101939Y-117065000D01*
X125898061Y-117065000D01*
X125698102Y-117104774D01*
X125509744Y-117182795D01*
X125340226Y-117296063D01*
X125196063Y-117440226D01*
X125082795Y-117609744D01*
X125004774Y-117798102D01*
X124965000Y-117998061D01*
X115878599Y-117998061D01*
X115770024Y-117822982D01*
X115276123Y-117562359D01*
X114740867Y-117403099D01*
X114184826Y-117351322D01*
X113629368Y-117409019D01*
X113095839Y-117573972D01*
X112629976Y-117822982D01*
X112389831Y-118210223D01*
X112275891Y-118096283D01*
X112260000Y-118112174D01*
X112260000Y-113465288D01*
X123718000Y-113465288D01*
X123718000Y-113698712D01*
X123763539Y-113927652D01*
X123852866Y-114143308D01*
X123982550Y-114337394D01*
X124147606Y-114502450D01*
X124341692Y-114632134D01*
X124557348Y-114721461D01*
X124786288Y-114767000D01*
X125019712Y-114767000D01*
X125245459Y-114722096D01*
X132272720Y-114722096D01*
X132272720Y-114925974D01*
X132312494Y-115125933D01*
X132390515Y-115314291D01*
X132503783Y-115483809D01*
X132647946Y-115627972D01*
X132817464Y-115741240D01*
X133005822Y-115819261D01*
X133205781Y-115859035D01*
X133409659Y-115859035D01*
X133609618Y-115819261D01*
X133797976Y-115741240D01*
X133917073Y-115661662D01*
X133998102Y-115695226D01*
X134198061Y-115735000D01*
X134401939Y-115735000D01*
X134601898Y-115695226D01*
X134790256Y-115617205D01*
X134959774Y-115503937D01*
X135103937Y-115359774D01*
X135217205Y-115190256D01*
X135290967Y-115012180D01*
X135310888Y-115112329D01*
X135388909Y-115300687D01*
X135502177Y-115470205D01*
X135646340Y-115614368D01*
X135815858Y-115727636D01*
X136004216Y-115805657D01*
X136204175Y-115845431D01*
X136408053Y-115845431D01*
X136608012Y-115805657D01*
X136796370Y-115727636D01*
X136903513Y-115656046D01*
X136998102Y-115695226D01*
X137198061Y-115735000D01*
X137401939Y-115735000D01*
X137601898Y-115695226D01*
X137790256Y-115617205D01*
X137959774Y-115503937D01*
X138050000Y-115413711D01*
X138140226Y-115503937D01*
X138309744Y-115617205D01*
X138498102Y-115695226D01*
X138698061Y-115735000D01*
X138901939Y-115735000D01*
X139101898Y-115695226D01*
X139290256Y-115617205D01*
X139459774Y-115503937D01*
X139600000Y-115363711D01*
X139640226Y-115403937D01*
X139809744Y-115517205D01*
X139998102Y-115595226D01*
X140198061Y-115635000D01*
X140401939Y-115635000D01*
X140601898Y-115595226D01*
X140790256Y-115517205D01*
X140959774Y-115403937D01*
X141103937Y-115259774D01*
X141206554Y-115106196D01*
X141282795Y-115290256D01*
X141396063Y-115459774D01*
X141540226Y-115603937D01*
X141709744Y-115717205D01*
X141898102Y-115795226D01*
X142098061Y-115835000D01*
X142301939Y-115835000D01*
X142501898Y-115795226D01*
X142690256Y-115717205D01*
X142844018Y-115614465D01*
X142895680Y-115691782D01*
X143039843Y-115835945D01*
X143209361Y-115949213D01*
X143397719Y-116027234D01*
X143597678Y-116067008D01*
X143801556Y-116067008D01*
X144001515Y-116027234D01*
X144189873Y-115949213D01*
X144359391Y-115835945D01*
X144503554Y-115691782D01*
X144616822Y-115522264D01*
X144694843Y-115333906D01*
X144734617Y-115133947D01*
X144734617Y-114930069D01*
X144694843Y-114730110D01*
X144616822Y-114541752D01*
X144503554Y-114372234D01*
X144359391Y-114228071D01*
X144189873Y-114114803D01*
X144001515Y-114036782D01*
X143801556Y-113997008D01*
X143597678Y-113997008D01*
X143397719Y-114036782D01*
X143209361Y-114114803D01*
X143055599Y-114217543D01*
X143003937Y-114140226D01*
X142859774Y-113996063D01*
X142690256Y-113882795D01*
X142501898Y-113804774D01*
X142301939Y-113765000D01*
X142098061Y-113765000D01*
X141898102Y-113804774D01*
X141709744Y-113882795D01*
X141540226Y-113996063D01*
X141396063Y-114140226D01*
X141293446Y-114293804D01*
X141217205Y-114109744D01*
X141103937Y-113940226D01*
X140959774Y-113796063D01*
X140790256Y-113682795D01*
X140601898Y-113604774D01*
X140401939Y-113565000D01*
X140198061Y-113565000D01*
X139998102Y-113604774D01*
X139809744Y-113682795D01*
X139640226Y-113796063D01*
X139500000Y-113936289D01*
X139459774Y-113896063D01*
X139290256Y-113782795D01*
X139101898Y-113704774D01*
X138901939Y-113665000D01*
X138698061Y-113665000D01*
X138498102Y-113704774D01*
X138309744Y-113782795D01*
X138140226Y-113896063D01*
X138050000Y-113986289D01*
X137959774Y-113896063D01*
X137790256Y-113782795D01*
X137601898Y-113704774D01*
X137401939Y-113665000D01*
X137198061Y-113665000D01*
X136998102Y-113704774D01*
X136809744Y-113782795D01*
X136702601Y-113854385D01*
X136608012Y-113815205D01*
X136408053Y-113775431D01*
X136204175Y-113775431D01*
X136004216Y-113815205D01*
X135815858Y-113893226D01*
X135646340Y-114006494D01*
X135502177Y-114150657D01*
X135388909Y-114320175D01*
X135315147Y-114498251D01*
X135295226Y-114398102D01*
X135217205Y-114209744D01*
X135103937Y-114040226D01*
X134959774Y-113896063D01*
X134790256Y-113782795D01*
X134601898Y-113704774D01*
X134401939Y-113665000D01*
X134198061Y-113665000D01*
X133998102Y-113704774D01*
X133809744Y-113782795D01*
X133690647Y-113862373D01*
X133609618Y-113828809D01*
X133409659Y-113789035D01*
X133205781Y-113789035D01*
X133005822Y-113828809D01*
X132817464Y-113906830D01*
X132647946Y-114020098D01*
X132503783Y-114164261D01*
X132390515Y-114333779D01*
X132312494Y-114522137D01*
X132272720Y-114722096D01*
X125245459Y-114722096D01*
X125248652Y-114721461D01*
X125464308Y-114632134D01*
X125658394Y-114502450D01*
X125823450Y-114337394D01*
X125953134Y-114143308D01*
X126042461Y-113927652D01*
X126088000Y-113698712D01*
X126088000Y-113465288D01*
X126087021Y-113460363D01*
X150068000Y-113460363D01*
X150068000Y-113703637D01*
X150115460Y-113942236D01*
X150208557Y-114166992D01*
X150343713Y-114369267D01*
X150515733Y-114541287D01*
X150718008Y-114676443D01*
X150942764Y-114769540D01*
X151181363Y-114817000D01*
X151424637Y-114817000D01*
X151663236Y-114769540D01*
X151887992Y-114676443D01*
X152090267Y-114541287D01*
X152262287Y-114369267D01*
X152397443Y-114166992D01*
X152490540Y-113942236D01*
X152538000Y-113703637D01*
X152538000Y-113460363D01*
X152490540Y-113221764D01*
X152397443Y-112997008D01*
X152262287Y-112794733D01*
X152090267Y-112622713D01*
X151887992Y-112487557D01*
X151663236Y-112394460D01*
X151424637Y-112347000D01*
X151181363Y-112347000D01*
X150942764Y-112394460D01*
X150718008Y-112487557D01*
X150515733Y-112622713D01*
X150343713Y-112794733D01*
X150208557Y-112997008D01*
X150115460Y-113221764D01*
X150068000Y-113460363D01*
X126087021Y-113460363D01*
X126042461Y-113236348D01*
X125953134Y-113020692D01*
X125823450Y-112826606D01*
X125658394Y-112661550D01*
X125464308Y-112531866D01*
X125248652Y-112442539D01*
X125019712Y-112397000D01*
X124786288Y-112397000D01*
X124557348Y-112442539D01*
X124341692Y-112531866D01*
X124147606Y-112661550D01*
X123982550Y-112826606D01*
X123852866Y-113020692D01*
X123763539Y-113236348D01*
X123718000Y-113465288D01*
X112260000Y-113465288D01*
X112260000Y-109598061D01*
X145065000Y-109598061D01*
X145065000Y-109801939D01*
X145104774Y-110001898D01*
X145182795Y-110190256D01*
X145296063Y-110359774D01*
X145440226Y-110503937D01*
X145609744Y-110617205D01*
X145798102Y-110695226D01*
X145998061Y-110735000D01*
X146201939Y-110735000D01*
X146401898Y-110695226D01*
X146590256Y-110617205D01*
X146759774Y-110503937D01*
X146903937Y-110359774D01*
X147017205Y-110190256D01*
X147095226Y-110001898D01*
X147135000Y-109801939D01*
X147135000Y-109598061D01*
X147095226Y-109398102D01*
X147017205Y-109209744D01*
X146903937Y-109040226D01*
X146822872Y-108959161D01*
X146909741Y-109017205D01*
X147098099Y-109095226D01*
X147298058Y-109135000D01*
X147501936Y-109135000D01*
X147701895Y-109095226D01*
X147890253Y-109017205D01*
X147899999Y-109010693D01*
X147909744Y-109017205D01*
X148098102Y-109095226D01*
X148298061Y-109135000D01*
X148501939Y-109135000D01*
X148701898Y-109095226D01*
X148890256Y-109017205D01*
X148892471Y-109015725D01*
X148940076Y-109047534D01*
X149128434Y-109125555D01*
X149328393Y-109165329D01*
X149532271Y-109165329D01*
X149732230Y-109125555D01*
X149911258Y-109051399D01*
X150009744Y-109117205D01*
X150198102Y-109195226D01*
X150398061Y-109235000D01*
X150601939Y-109235000D01*
X150801898Y-109195226D01*
X150990256Y-109117205D01*
X151000000Y-109110694D01*
X151009744Y-109117205D01*
X151198102Y-109195226D01*
X151398061Y-109235000D01*
X151601939Y-109235000D01*
X151801898Y-109195226D01*
X151990256Y-109117205D01*
X152159774Y-109003937D01*
X152303937Y-108859774D01*
X152417205Y-108690256D01*
X152495226Y-108501898D01*
X152535000Y-108301939D01*
X152535000Y-108098061D01*
X152495226Y-107898102D01*
X152417205Y-107709744D01*
X152303937Y-107540226D01*
X152159774Y-107396063D01*
X151990256Y-107282795D01*
X151801898Y-107204774D01*
X151601939Y-107165000D01*
X151398061Y-107165000D01*
X151198102Y-107204774D01*
X151009744Y-107282795D01*
X151000000Y-107289306D01*
X150990256Y-107282795D01*
X150801898Y-107204774D01*
X150601939Y-107165000D01*
X150398061Y-107165000D01*
X150198102Y-107204774D01*
X150019074Y-107278930D01*
X149920588Y-107213124D01*
X149732230Y-107135103D01*
X149532271Y-107095329D01*
X149328393Y-107095329D01*
X149128434Y-107135103D01*
X148940076Y-107213124D01*
X148937861Y-107214604D01*
X148890256Y-107182795D01*
X148701898Y-107104774D01*
X148501939Y-107065000D01*
X148298061Y-107065000D01*
X148098102Y-107104774D01*
X147909744Y-107182795D01*
X147899999Y-107189307D01*
X147890253Y-107182795D01*
X147701895Y-107104774D01*
X147501936Y-107065000D01*
X147298058Y-107065000D01*
X147098099Y-107104774D01*
X146909741Y-107182795D01*
X146740223Y-107296063D01*
X146596060Y-107440226D01*
X146482792Y-107609744D01*
X146404771Y-107798102D01*
X146364997Y-107998061D01*
X146364997Y-108201939D01*
X146404771Y-108401898D01*
X146482792Y-108590256D01*
X146596060Y-108759774D01*
X146677125Y-108840839D01*
X146590256Y-108782795D01*
X146401898Y-108704774D01*
X146201939Y-108665000D01*
X145998061Y-108665000D01*
X145798102Y-108704774D01*
X145609744Y-108782795D01*
X145440226Y-108896063D01*
X145296063Y-109040226D01*
X145182795Y-109209744D01*
X145104774Y-109398102D01*
X145065000Y-109598061D01*
X112260000Y-109598061D01*
X112260000Y-104448061D01*
X116065000Y-104448061D01*
X116065000Y-104651939D01*
X116104774Y-104851898D01*
X116182795Y-105040256D01*
X116296063Y-105209774D01*
X116440226Y-105353937D01*
X116609744Y-105467205D01*
X116798102Y-105545226D01*
X116998061Y-105585000D01*
X117201939Y-105585000D01*
X117401898Y-105545226D01*
X117590256Y-105467205D01*
X117759774Y-105353937D01*
X117903937Y-105209774D01*
X118017205Y-105040256D01*
X118095226Y-104851898D01*
X118135000Y-104651939D01*
X118135000Y-104448061D01*
X118095226Y-104248102D01*
X118017205Y-104059744D01*
X117909173Y-103898061D01*
X120165000Y-103898061D01*
X120165000Y-104101939D01*
X120204774Y-104301898D01*
X120282795Y-104490256D01*
X120396063Y-104659774D01*
X120540226Y-104803937D01*
X120709744Y-104917205D01*
X120898102Y-104995226D01*
X121098061Y-105035000D01*
X121301939Y-105035000D01*
X121501898Y-104995226D01*
X121593551Y-104957262D01*
X121640226Y-105003937D01*
X121809744Y-105117205D01*
X121998102Y-105195226D01*
X122198061Y-105235000D01*
X122401939Y-105235000D01*
X122601898Y-105195226D01*
X122790256Y-105117205D01*
X122959774Y-105003937D01*
X122971836Y-104991875D01*
X123009744Y-105017205D01*
X123198102Y-105095226D01*
X123398061Y-105135000D01*
X123601939Y-105135000D01*
X123801898Y-105095226D01*
X123990256Y-105017205D01*
X124159774Y-104903937D01*
X124303937Y-104759774D01*
X124417205Y-104590256D01*
X124495226Y-104401898D01*
X124535000Y-104201939D01*
X124535000Y-103998061D01*
X124495226Y-103798102D01*
X124417205Y-103609744D01*
X124303937Y-103440226D01*
X124159774Y-103296063D01*
X123990256Y-103182795D01*
X123801898Y-103104774D01*
X123601939Y-103065000D01*
X123398061Y-103065000D01*
X123198102Y-103104774D01*
X123009744Y-103182795D01*
X122840226Y-103296063D01*
X122828164Y-103308125D01*
X122790256Y-103282795D01*
X122601898Y-103204774D01*
X122401939Y-103165000D01*
X122198061Y-103165000D01*
X121998102Y-103204774D01*
X121906449Y-103242738D01*
X121859774Y-103196063D01*
X121690256Y-103082795D01*
X121501898Y-103004774D01*
X121301939Y-102965000D01*
X121098061Y-102965000D01*
X120898102Y-103004774D01*
X120709744Y-103082795D01*
X120540226Y-103196063D01*
X120396063Y-103340226D01*
X120282795Y-103509744D01*
X120204774Y-103698102D01*
X120165000Y-103898061D01*
X117909173Y-103898061D01*
X117903937Y-103890226D01*
X117759774Y-103746063D01*
X117590256Y-103632795D01*
X117401898Y-103554774D01*
X117201939Y-103515000D01*
X116998061Y-103515000D01*
X116798102Y-103554774D01*
X116609744Y-103632795D01*
X116440226Y-103746063D01*
X116296063Y-103890226D01*
X116182795Y-104059744D01*
X116104774Y-104248102D01*
X116065000Y-104448061D01*
X112260000Y-104448061D01*
X112260000Y-102273439D01*
X117915000Y-102273439D01*
X117915000Y-102526561D01*
X117964381Y-102774821D01*
X118061247Y-103008676D01*
X118201875Y-103219140D01*
X118380860Y-103398125D01*
X118591324Y-103538753D01*
X118825179Y-103635619D01*
X119073439Y-103685000D01*
X119326561Y-103685000D01*
X119574821Y-103635619D01*
X119808676Y-103538753D01*
X120019140Y-103398125D01*
X120198125Y-103219140D01*
X120338753Y-103008676D01*
X120435619Y-102774821D01*
X120485000Y-102526561D01*
X120485000Y-102273439D01*
X120435619Y-102025179D01*
X120338753Y-101791324D01*
X120198125Y-101580860D01*
X120019140Y-101401875D01*
X119906353Y-101326513D01*
X119915922Y-101285527D01*
X119210000Y-100579605D01*
X118504078Y-101285527D01*
X118510948Y-101314953D01*
X118380860Y-101401875D01*
X118201875Y-101580860D01*
X118061247Y-101791324D01*
X117964381Y-102025179D01*
X117915000Y-102273439D01*
X112260000Y-102273439D01*
X112260000Y-100476455D01*
X117921048Y-100476455D01*
X117960730Y-100726449D01*
X118048422Y-100963896D01*
X118095799Y-101052534D01*
X118324473Y-101105922D01*
X119030395Y-100400000D01*
X119389605Y-100400000D01*
X120095527Y-101105922D01*
X120324201Y-101052534D01*
X120430095Y-100822626D01*
X120489102Y-100576476D01*
X120498952Y-100323545D01*
X120485501Y-100238803D01*
X128114208Y-100238803D01*
X128114208Y-100442681D01*
X128153982Y-100642640D01*
X128232003Y-100830998D01*
X128345271Y-101000516D01*
X128489434Y-101144679D01*
X128658952Y-101257947D01*
X128786663Y-101310847D01*
X128804774Y-101401898D01*
X128882795Y-101590256D01*
X128918532Y-101643741D01*
X128840226Y-101696063D01*
X128696063Y-101840226D01*
X128582795Y-102009744D01*
X128504774Y-102198102D01*
X128465000Y-102398061D01*
X128465000Y-102601939D01*
X128504774Y-102801898D01*
X128582795Y-102990256D01*
X128696063Y-103159774D01*
X128840226Y-103303937D01*
X129009744Y-103417205D01*
X129198102Y-103495226D01*
X129398061Y-103535000D01*
X129601939Y-103535000D01*
X129801898Y-103495226D01*
X129990256Y-103417205D01*
X130000000Y-103410694D01*
X130009744Y-103417205D01*
X130198102Y-103495226D01*
X130398061Y-103535000D01*
X130601939Y-103535000D01*
X130799497Y-103495704D01*
X130826491Y-103522698D01*
X130996009Y-103635966D01*
X131184367Y-103713987D01*
X131366183Y-103750152D01*
X131382795Y-103790256D01*
X131496063Y-103959774D01*
X131640226Y-104103937D01*
X131809744Y-104217205D01*
X131998102Y-104295226D01*
X132198061Y-104335000D01*
X132401939Y-104335000D01*
X132601898Y-104295226D01*
X132790256Y-104217205D01*
X132959774Y-104103937D01*
X133103937Y-103959774D01*
X133217205Y-103790256D01*
X133295226Y-103601898D01*
X133335000Y-103401939D01*
X133335000Y-103198061D01*
X133295226Y-102998102D01*
X133217205Y-102809744D01*
X133103937Y-102640226D01*
X132959774Y-102496063D01*
X132790256Y-102382795D01*
X132601898Y-102304774D01*
X132420082Y-102268609D01*
X132403470Y-102228505D01*
X132290202Y-102058987D01*
X132146039Y-101914824D01*
X131976521Y-101801556D01*
X131788163Y-101723535D01*
X131588204Y-101683761D01*
X131384326Y-101683761D01*
X131186768Y-101723057D01*
X131159774Y-101696063D01*
X130990256Y-101582795D01*
X130801898Y-101504774D01*
X130756365Y-101495717D01*
X130795226Y-101401898D01*
X130815880Y-101298061D01*
X144065000Y-101298061D01*
X144065000Y-101501939D01*
X144104774Y-101701898D01*
X144182795Y-101890256D01*
X144296063Y-102059774D01*
X144440226Y-102203937D01*
X144609744Y-102317205D01*
X144798102Y-102395226D01*
X144998061Y-102435000D01*
X145201939Y-102435000D01*
X145401898Y-102395226D01*
X145590256Y-102317205D01*
X145759774Y-102203937D01*
X145903937Y-102059774D01*
X146017205Y-101890256D01*
X146095226Y-101701898D01*
X146135000Y-101501939D01*
X146135000Y-101298061D01*
X146095226Y-101098102D01*
X146017205Y-100909744D01*
X145903937Y-100740226D01*
X145759774Y-100596063D01*
X145590256Y-100482795D01*
X145401898Y-100404774D01*
X145201939Y-100365000D01*
X144998061Y-100365000D01*
X144798102Y-100404774D01*
X144609744Y-100482795D01*
X144440226Y-100596063D01*
X144296063Y-100740226D01*
X144182795Y-100909744D01*
X144104774Y-101098102D01*
X144065000Y-101298061D01*
X130815880Y-101298061D01*
X130835000Y-101201939D01*
X130835000Y-100998061D01*
X130795226Y-100798102D01*
X130717205Y-100609744D01*
X130603937Y-100440226D01*
X130459774Y-100296063D01*
X130290256Y-100182795D01*
X130162545Y-100129895D01*
X130144434Y-100038844D01*
X130066413Y-99850486D01*
X129953145Y-99680968D01*
X129808982Y-99536805D01*
X129639464Y-99423537D01*
X129451106Y-99345516D01*
X129251147Y-99305742D01*
X129047269Y-99305742D01*
X128847310Y-99345516D01*
X128658952Y-99423537D01*
X128489434Y-99536805D01*
X128345271Y-99680968D01*
X128232003Y-99850486D01*
X128153982Y-100038844D01*
X128114208Y-100238803D01*
X120485501Y-100238803D01*
X120459270Y-100073551D01*
X120371578Y-99836104D01*
X120324201Y-99747466D01*
X120095527Y-99694078D01*
X119389605Y-100400000D01*
X119030395Y-100400000D01*
X118324473Y-99694078D01*
X118095799Y-99747466D01*
X117989905Y-99977374D01*
X117930898Y-100223524D01*
X117921048Y-100476455D01*
X112260000Y-100476455D01*
X112260000Y-98148061D01*
X116055000Y-98148061D01*
X116055000Y-98351939D01*
X116094774Y-98551898D01*
X116172795Y-98740256D01*
X116286063Y-98909774D01*
X116430226Y-99053937D01*
X116599744Y-99167205D01*
X116788102Y-99245226D01*
X116988061Y-99285000D01*
X117191939Y-99285000D01*
X117391898Y-99245226D01*
X117580256Y-99167205D01*
X117749774Y-99053937D01*
X117893937Y-98909774D01*
X117978104Y-98783809D01*
X118071247Y-99008676D01*
X118211875Y-99219140D01*
X118390860Y-99398125D01*
X118512297Y-99479267D01*
X118504078Y-99514473D01*
X119210000Y-100220395D01*
X119915922Y-99514473D01*
X119907703Y-99479267D01*
X120029140Y-99398125D01*
X120208125Y-99219140D01*
X120348753Y-99008676D01*
X120394571Y-98898061D01*
X123465000Y-98898061D01*
X123465000Y-99101939D01*
X123504774Y-99301898D01*
X123582795Y-99490256D01*
X123696063Y-99659774D01*
X123840226Y-99803937D01*
X124009744Y-99917205D01*
X124198102Y-99995226D01*
X124398061Y-100035000D01*
X124601939Y-100035000D01*
X124801898Y-99995226D01*
X124990256Y-99917205D01*
X125159774Y-99803937D01*
X125303937Y-99659774D01*
X125417205Y-99490256D01*
X125495226Y-99301898D01*
X125535000Y-99101939D01*
X125535000Y-98898061D01*
X125495226Y-98698102D01*
X125417205Y-98509744D01*
X125303937Y-98340226D01*
X125159774Y-98196063D01*
X124990256Y-98082795D01*
X124801898Y-98004774D01*
X124601939Y-97965000D01*
X124398061Y-97965000D01*
X124198102Y-98004774D01*
X124009744Y-98082795D01*
X123840226Y-98196063D01*
X123696063Y-98340226D01*
X123582795Y-98509744D01*
X123504774Y-98698102D01*
X123465000Y-98898061D01*
X120394571Y-98898061D01*
X120445619Y-98774821D01*
X120495000Y-98526561D01*
X120495000Y-98273439D01*
X120445619Y-98025179D01*
X120348753Y-97791324D01*
X120208125Y-97580860D01*
X120029140Y-97401875D01*
X119818676Y-97261247D01*
X119584821Y-97164381D01*
X119336561Y-97115000D01*
X119083439Y-97115000D01*
X118835179Y-97164381D01*
X118601324Y-97261247D01*
X118390860Y-97401875D01*
X118211875Y-97580860D01*
X118071247Y-97791324D01*
X118045767Y-97852839D01*
X118007205Y-97759744D01*
X117893937Y-97590226D01*
X117749774Y-97446063D01*
X117580256Y-97332795D01*
X117391898Y-97254774D01*
X117191939Y-97215000D01*
X116988061Y-97215000D01*
X116788102Y-97254774D01*
X116599744Y-97332795D01*
X116430226Y-97446063D01*
X116286063Y-97590226D01*
X116172795Y-97759744D01*
X116094774Y-97948102D01*
X116055000Y-98148061D01*
X112260000Y-98148061D01*
X112260000Y-95598061D01*
X124865000Y-95598061D01*
X124865000Y-95801939D01*
X124904774Y-96001898D01*
X124982795Y-96190256D01*
X125096063Y-96359774D01*
X125240226Y-96503937D01*
X125409744Y-96617205D01*
X125598102Y-96695226D01*
X125798061Y-96735000D01*
X126001939Y-96735000D01*
X126201898Y-96695226D01*
X126390256Y-96617205D01*
X126559774Y-96503937D01*
X126703937Y-96359774D01*
X126745172Y-96298061D01*
X132365000Y-96298061D01*
X132365000Y-96501939D01*
X132404774Y-96701898D01*
X132482795Y-96890256D01*
X132596063Y-97059774D01*
X132740226Y-97203937D01*
X132909744Y-97317205D01*
X133098102Y-97395226D01*
X133298061Y-97435000D01*
X133501939Y-97435000D01*
X133701898Y-97395226D01*
X133890256Y-97317205D01*
X134059774Y-97203937D01*
X134203937Y-97059774D01*
X134317205Y-96890256D01*
X134395226Y-96701898D01*
X134435000Y-96501939D01*
X134435000Y-96298061D01*
X134395226Y-96098102D01*
X134348590Y-95985512D01*
X143277549Y-95985512D01*
X143277549Y-96189390D01*
X143317323Y-96389349D01*
X143395344Y-96577707D01*
X143508612Y-96747225D01*
X143652775Y-96891388D01*
X143822293Y-97004656D01*
X144010651Y-97082677D01*
X144210610Y-97122451D01*
X144414488Y-97122451D01*
X144614447Y-97082677D01*
X144802805Y-97004656D01*
X144972323Y-96891388D01*
X145116486Y-96747225D01*
X145229754Y-96577707D01*
X145307775Y-96389349D01*
X145347549Y-96189390D01*
X145347549Y-95985512D01*
X145307775Y-95785553D01*
X145229754Y-95597195D01*
X145116486Y-95427677D01*
X144972323Y-95283514D01*
X144802805Y-95170246D01*
X144614447Y-95092225D01*
X144414488Y-95052451D01*
X144210610Y-95052451D01*
X144010651Y-95092225D01*
X143822293Y-95170246D01*
X143652775Y-95283514D01*
X143508612Y-95427677D01*
X143395344Y-95597195D01*
X143317323Y-95785553D01*
X143277549Y-95985512D01*
X134348590Y-95985512D01*
X134317205Y-95909744D01*
X134203937Y-95740226D01*
X134059774Y-95596063D01*
X133890256Y-95482795D01*
X133701898Y-95404774D01*
X133501939Y-95365000D01*
X133298061Y-95365000D01*
X133098102Y-95404774D01*
X132909744Y-95482795D01*
X132740226Y-95596063D01*
X132596063Y-95740226D01*
X132482795Y-95909744D01*
X132404774Y-96098102D01*
X132365000Y-96298061D01*
X126745172Y-96298061D01*
X126817205Y-96190256D01*
X126895226Y-96001898D01*
X126935000Y-95801939D01*
X126935000Y-95598061D01*
X126895226Y-95398102D01*
X126817205Y-95209744D01*
X126703937Y-95040226D01*
X126559774Y-94896063D01*
X126390256Y-94782795D01*
X126201898Y-94704774D01*
X126001939Y-94665000D01*
X125798061Y-94665000D01*
X125598102Y-94704774D01*
X125409744Y-94782795D01*
X125240226Y-94896063D01*
X125096063Y-95040226D01*
X124982795Y-95209744D01*
X124904774Y-95398102D01*
X124865000Y-95598061D01*
X112260000Y-95598061D01*
X112260000Y-94598061D01*
X129765000Y-94598061D01*
X129765000Y-94801939D01*
X129804774Y-95001898D01*
X129882795Y-95190256D01*
X129996063Y-95359774D01*
X130140226Y-95503937D01*
X130309744Y-95617205D01*
X130498102Y-95695226D01*
X130698061Y-95735000D01*
X130901939Y-95735000D01*
X131101898Y-95695226D01*
X131290256Y-95617205D01*
X131459774Y-95503937D01*
X131603937Y-95359774D01*
X131717205Y-95190256D01*
X131795226Y-95001898D01*
X131835000Y-94801939D01*
X131835000Y-94598061D01*
X131808544Y-94465059D01*
X131876086Y-94397517D01*
X131989354Y-94227999D01*
X132067375Y-94039641D01*
X132107149Y-93839682D01*
X132107149Y-93635804D01*
X132067375Y-93435845D01*
X131989354Y-93247487D01*
X131876086Y-93077969D01*
X131731923Y-92933806D01*
X131562405Y-92820538D01*
X131374047Y-92742517D01*
X131174088Y-92702743D01*
X130970210Y-92702743D01*
X130770251Y-92742517D01*
X130581893Y-92820538D01*
X130412375Y-92933806D01*
X130268212Y-93077969D01*
X130154944Y-93247487D01*
X130076923Y-93435845D01*
X130037149Y-93635804D01*
X130037149Y-93839682D01*
X130063605Y-93972684D01*
X129996063Y-94040226D01*
X129882795Y-94209744D01*
X129804774Y-94398102D01*
X129765000Y-94598061D01*
X112260000Y-94598061D01*
X112260000Y-90671561D01*
X129869785Y-90671561D01*
X129869785Y-90875439D01*
X129909559Y-91075398D01*
X129987580Y-91263756D01*
X130100848Y-91433274D01*
X130245011Y-91577437D01*
X130414529Y-91690705D01*
X130602887Y-91768726D01*
X130802846Y-91808500D01*
X131006724Y-91808500D01*
X131206683Y-91768726D01*
X131395041Y-91690705D01*
X131533692Y-91598061D01*
X132965000Y-91598061D01*
X132965000Y-91801939D01*
X133004774Y-92001898D01*
X133082795Y-92190256D01*
X133196063Y-92359774D01*
X133340226Y-92503937D01*
X133509744Y-92617205D01*
X133698102Y-92695226D01*
X133898061Y-92735000D01*
X134101939Y-92735000D01*
X134301898Y-92695226D01*
X134490256Y-92617205D01*
X134659774Y-92503937D01*
X134803937Y-92359774D01*
X134917205Y-92190256D01*
X134995226Y-92001898D01*
X135035000Y-91801939D01*
X135035000Y-91598061D01*
X135026207Y-91553853D01*
X135042256Y-91547205D01*
X135211774Y-91433937D01*
X135355937Y-91289774D01*
X135459353Y-91135000D01*
X135501939Y-91135000D01*
X135701898Y-91095226D01*
X135890256Y-91017205D01*
X136059774Y-90903937D01*
X136106449Y-90857262D01*
X136198102Y-90895226D01*
X136398061Y-90935000D01*
X136601939Y-90935000D01*
X136801898Y-90895226D01*
X136990256Y-90817205D01*
X137068656Y-90764820D01*
X137098119Y-90784507D01*
X137286477Y-90862528D01*
X137486436Y-90902302D01*
X137690314Y-90902302D01*
X137890273Y-90862528D01*
X138078631Y-90784507D01*
X138194188Y-90707295D01*
X138309744Y-90784507D01*
X138498102Y-90862528D01*
X138698061Y-90902302D01*
X138901939Y-90902302D01*
X139101898Y-90862528D01*
X139290256Y-90784507D01*
X139459774Y-90671239D01*
X139603937Y-90527076D01*
X139717205Y-90357558D01*
X139795226Y-90169200D01*
X139835000Y-89969241D01*
X139835000Y-89765363D01*
X139795226Y-89565404D01*
X139780250Y-89529249D01*
X139856911Y-89580472D01*
X140045269Y-89658493D01*
X140245228Y-89698267D01*
X140449106Y-89698267D01*
X140649065Y-89658493D01*
X140837423Y-89580472D01*
X141006941Y-89467204D01*
X141151104Y-89323041D01*
X141264372Y-89153523D01*
X141315976Y-89028941D01*
X141382795Y-89190256D01*
X141389307Y-89200002D01*
X141382795Y-89209747D01*
X141304774Y-89398105D01*
X141265000Y-89598064D01*
X141265000Y-89801942D01*
X141304774Y-90001901D01*
X141382795Y-90190259D01*
X141389307Y-90200005D01*
X141382795Y-90209750D01*
X141304774Y-90398108D01*
X141265000Y-90598067D01*
X141265000Y-90801945D01*
X141281890Y-90886860D01*
X141179833Y-90988917D01*
X141066565Y-91158435D01*
X140988544Y-91346793D01*
X140948770Y-91546752D01*
X140948770Y-91750630D01*
X140988544Y-91950589D01*
X141066565Y-92138947D01*
X141150791Y-92265000D01*
X140998061Y-92265000D01*
X140798102Y-92304774D01*
X140609744Y-92382795D01*
X140487125Y-92464726D01*
X140403936Y-92340224D01*
X140259773Y-92196061D01*
X140090255Y-92082793D01*
X139901897Y-92004772D01*
X139701938Y-91964998D01*
X139498060Y-91964998D01*
X139367811Y-91990906D01*
X139298247Y-91921342D01*
X139128729Y-91808074D01*
X138940371Y-91730053D01*
X138740412Y-91690279D01*
X138536534Y-91690279D01*
X138336575Y-91730053D01*
X138148217Y-91808074D01*
X137978699Y-91921342D01*
X137834536Y-92065505D01*
X137809781Y-92102553D01*
X137742427Y-92089156D01*
X137538549Y-92089156D01*
X137338590Y-92128930D01*
X137150232Y-92206951D01*
X136980714Y-92320219D01*
X136836551Y-92464382D01*
X136723283Y-92633900D01*
X136645262Y-92822258D01*
X136626797Y-92915088D01*
X136601898Y-92904774D01*
X136401939Y-92865000D01*
X136198061Y-92865000D01*
X135998102Y-92904774D01*
X135809744Y-92982795D01*
X135640226Y-93096063D01*
X135496063Y-93240226D01*
X135382795Y-93409744D01*
X135304774Y-93598102D01*
X135265000Y-93798061D01*
X135265000Y-94001939D01*
X135304774Y-94201898D01*
X135382795Y-94390256D01*
X135496063Y-94559774D01*
X135640226Y-94703937D01*
X135809744Y-94817205D01*
X135998102Y-94895226D01*
X136198061Y-94935000D01*
X136401939Y-94935000D01*
X136601898Y-94895226D01*
X136790256Y-94817205D01*
X136959774Y-94703937D01*
X137103937Y-94559774D01*
X137217205Y-94390256D01*
X137295226Y-94201898D01*
X137313691Y-94109068D01*
X137338590Y-94119382D01*
X137538549Y-94159156D01*
X137742427Y-94159156D01*
X137942386Y-94119382D01*
X138130744Y-94041361D01*
X138300262Y-93928093D01*
X138444425Y-93783930D01*
X138469180Y-93746882D01*
X138536534Y-93760279D01*
X138740412Y-93760279D01*
X138870661Y-93734371D01*
X138940225Y-93803935D01*
X139109743Y-93917203D01*
X139173270Y-93943517D01*
X139204774Y-94101898D01*
X139282795Y-94290256D01*
X139396063Y-94459774D01*
X139540226Y-94603937D01*
X139709744Y-94717205D01*
X139898102Y-94795226D01*
X140098061Y-94835000D01*
X140301939Y-94835000D01*
X140501898Y-94795226D01*
X140690256Y-94717205D01*
X140859774Y-94603937D01*
X141003937Y-94459774D01*
X141087308Y-94335000D01*
X141159907Y-94335000D01*
X141182795Y-94390256D01*
X141296063Y-94559774D01*
X141440226Y-94703937D01*
X141609744Y-94817205D01*
X141798102Y-94895226D01*
X141998061Y-94935000D01*
X142201939Y-94935000D01*
X142401898Y-94895226D01*
X142590256Y-94817205D01*
X142759774Y-94703937D01*
X142903937Y-94559774D01*
X143017205Y-94390256D01*
X143095226Y-94201898D01*
X143135000Y-94001939D01*
X143135000Y-93798061D01*
X143095226Y-93598102D01*
X143017205Y-93409744D01*
X142991875Y-93371836D01*
X143003937Y-93359774D01*
X143117205Y-93190256D01*
X143195226Y-93001898D01*
X143235000Y-92801939D01*
X143235000Y-92598061D01*
X143195226Y-92398102D01*
X143117205Y-92209744D01*
X143003937Y-92040226D01*
X142960047Y-91996336D01*
X142978996Y-91950589D01*
X143018770Y-91750630D01*
X143018770Y-91546752D01*
X143001880Y-91461837D01*
X143103937Y-91359780D01*
X143161084Y-91274253D01*
X144348069Y-91274253D01*
X144348069Y-91478131D01*
X144387843Y-91678090D01*
X144465864Y-91866448D01*
X144579132Y-92035966D01*
X144723295Y-92180129D01*
X144892813Y-92293397D01*
X145081171Y-92371418D01*
X145281130Y-92411192D01*
X145485008Y-92411192D01*
X145684967Y-92371418D01*
X145873325Y-92293397D01*
X146042843Y-92180129D01*
X146187006Y-92035966D01*
X146212333Y-91998061D01*
X146765000Y-91998061D01*
X146765000Y-92201939D01*
X146804774Y-92401898D01*
X146882795Y-92590256D01*
X146996063Y-92759774D01*
X147140226Y-92903937D01*
X147309744Y-93017205D01*
X147498102Y-93095226D01*
X147698061Y-93135000D01*
X147901939Y-93135000D01*
X148101898Y-93095226D01*
X148290256Y-93017205D01*
X148459774Y-92903937D01*
X148603937Y-92759774D01*
X148717205Y-92590256D01*
X148795226Y-92401898D01*
X148835000Y-92201939D01*
X148835000Y-91998061D01*
X148795226Y-91798102D01*
X148717205Y-91609744D01*
X148603937Y-91440226D01*
X148459774Y-91296063D01*
X148290256Y-91182795D01*
X148101898Y-91104774D01*
X147901939Y-91065000D01*
X147698061Y-91065000D01*
X147498102Y-91104774D01*
X147309744Y-91182795D01*
X147140226Y-91296063D01*
X146996063Y-91440226D01*
X146882795Y-91609744D01*
X146804774Y-91798102D01*
X146765000Y-91998061D01*
X146212333Y-91998061D01*
X146300274Y-91866448D01*
X146378295Y-91678090D01*
X146418069Y-91478131D01*
X146418069Y-91274253D01*
X146380141Y-91083573D01*
X146403937Y-91059777D01*
X146517205Y-90890259D01*
X146595226Y-90701901D01*
X146635000Y-90501942D01*
X146635000Y-90298064D01*
X146595226Y-90098105D01*
X146517205Y-89909747D01*
X146424920Y-89771632D01*
X146495226Y-89601898D01*
X146535000Y-89401939D01*
X146535000Y-89198061D01*
X146495226Y-88998102D01*
X146417205Y-88809744D01*
X146303937Y-88640226D01*
X146159774Y-88496063D01*
X146136852Y-88480747D01*
X146290256Y-88417205D01*
X146459774Y-88303937D01*
X146565650Y-88198061D01*
X154165000Y-88198061D01*
X154165000Y-88401939D01*
X154204774Y-88601898D01*
X154282795Y-88790256D01*
X154396063Y-88959774D01*
X154540226Y-89103937D01*
X154709744Y-89217205D01*
X154898102Y-89295226D01*
X155098061Y-89335000D01*
X155301939Y-89335000D01*
X155501898Y-89295226D01*
X155690256Y-89217205D01*
X155859774Y-89103937D01*
X155980059Y-88983652D01*
X155982795Y-88990256D01*
X156096063Y-89159774D01*
X156240226Y-89303937D01*
X156409744Y-89417205D01*
X156598102Y-89495226D01*
X156798061Y-89535000D01*
X157001939Y-89535000D01*
X157201898Y-89495226D01*
X157390256Y-89417205D01*
X157559774Y-89303937D01*
X157703937Y-89159774D01*
X157817205Y-88990256D01*
X157888238Y-88818767D01*
X157904774Y-88901898D01*
X157982795Y-89090256D01*
X158096063Y-89259774D01*
X158240226Y-89403937D01*
X158409744Y-89517205D01*
X158598102Y-89595226D01*
X158798061Y-89635000D01*
X159001939Y-89635000D01*
X159201898Y-89595226D01*
X159390256Y-89517205D01*
X159559774Y-89403937D01*
X159703937Y-89259774D01*
X159817205Y-89090256D01*
X159819941Y-89083652D01*
X159940226Y-89203937D01*
X160109744Y-89317205D01*
X160298102Y-89395226D01*
X160498061Y-89435000D01*
X160701939Y-89435000D01*
X160901898Y-89395226D01*
X161090256Y-89317205D01*
X161259774Y-89203937D01*
X161403937Y-89059774D01*
X161440837Y-89004548D01*
X161540226Y-89103937D01*
X161709744Y-89217205D01*
X161898102Y-89295226D01*
X162098061Y-89335000D01*
X162301939Y-89335000D01*
X162501898Y-89295226D01*
X162690256Y-89217205D01*
X162859774Y-89103937D01*
X163003937Y-88959774D01*
X163117205Y-88790256D01*
X163195226Y-88601898D01*
X163235000Y-88401939D01*
X163235000Y-88198061D01*
X163195226Y-87998102D01*
X163117205Y-87809744D01*
X163003937Y-87640226D01*
X162859774Y-87496063D01*
X162690256Y-87382795D01*
X162501898Y-87304774D01*
X162301939Y-87265000D01*
X162098061Y-87265000D01*
X161898102Y-87304774D01*
X161709744Y-87382795D01*
X161540226Y-87496063D01*
X161396063Y-87640226D01*
X161359163Y-87695452D01*
X161259774Y-87596063D01*
X161090256Y-87482795D01*
X160901898Y-87404774D01*
X160701939Y-87365000D01*
X160498061Y-87365000D01*
X160298102Y-87404774D01*
X160109744Y-87482795D01*
X159940226Y-87596063D01*
X159796063Y-87740226D01*
X159682795Y-87909744D01*
X159680059Y-87916348D01*
X159559774Y-87796063D01*
X159390256Y-87682795D01*
X159201898Y-87604774D01*
X159001939Y-87565000D01*
X158798061Y-87565000D01*
X158598102Y-87604774D01*
X158409744Y-87682795D01*
X158240226Y-87796063D01*
X158096063Y-87940226D01*
X157982795Y-88109744D01*
X157911762Y-88281233D01*
X157895226Y-88198102D01*
X157817205Y-88009744D01*
X157703937Y-87840226D01*
X157559774Y-87696063D01*
X157390256Y-87582795D01*
X157201898Y-87504774D01*
X157001939Y-87465000D01*
X156798061Y-87465000D01*
X156598102Y-87504774D01*
X156409744Y-87582795D01*
X156240226Y-87696063D01*
X156119941Y-87816348D01*
X156117205Y-87809744D01*
X156003937Y-87640226D01*
X155859774Y-87496063D01*
X155690256Y-87382795D01*
X155501898Y-87304774D01*
X155301939Y-87265000D01*
X155098061Y-87265000D01*
X154898102Y-87304774D01*
X154709744Y-87382795D01*
X154540226Y-87496063D01*
X154396063Y-87640226D01*
X154282795Y-87809744D01*
X154204774Y-87998102D01*
X154165000Y-88198061D01*
X146565650Y-88198061D01*
X146603937Y-88159774D01*
X146717205Y-87990256D01*
X146795226Y-87801898D01*
X146835000Y-87601939D01*
X146835000Y-87398061D01*
X146795226Y-87198102D01*
X146717205Y-87009744D01*
X146603937Y-86840226D01*
X146459774Y-86696063D01*
X146290256Y-86582795D01*
X146101898Y-86504774D01*
X145901939Y-86465000D01*
X145698061Y-86465000D01*
X145498102Y-86504774D01*
X145309744Y-86582795D01*
X145140226Y-86696063D01*
X144996063Y-86840226D01*
X144882795Y-87009744D01*
X144804774Y-87198102D01*
X144765000Y-87398061D01*
X144765000Y-87601939D01*
X144804774Y-87801898D01*
X144882795Y-87990256D01*
X144996063Y-88159774D01*
X145140226Y-88303937D01*
X145163148Y-88319253D01*
X145009744Y-88382795D01*
X144840226Y-88496063D01*
X144696063Y-88640226D01*
X144582795Y-88809744D01*
X144504774Y-88998102D01*
X144465000Y-89198061D01*
X144465000Y-89401939D01*
X144504774Y-89601898D01*
X144582795Y-89790256D01*
X144675080Y-89928371D01*
X144604774Y-90098105D01*
X144565000Y-90298064D01*
X144565000Y-90501942D01*
X144602928Y-90692622D01*
X144579132Y-90716418D01*
X144465864Y-90885936D01*
X144387843Y-91074294D01*
X144348069Y-91274253D01*
X143161084Y-91274253D01*
X143217205Y-91190262D01*
X143295226Y-91001904D01*
X143335000Y-90801945D01*
X143335000Y-90598067D01*
X143295226Y-90398108D01*
X143217205Y-90209750D01*
X143210693Y-90200005D01*
X143217205Y-90190259D01*
X143295226Y-90001901D01*
X143335000Y-89801942D01*
X143335000Y-89598064D01*
X143295226Y-89398105D01*
X143217205Y-89209747D01*
X143210693Y-89200002D01*
X143217205Y-89190256D01*
X143295226Y-89001898D01*
X143335000Y-88801939D01*
X143335000Y-88598061D01*
X143295226Y-88398102D01*
X143217205Y-88209744D01*
X143103937Y-88040226D01*
X142959774Y-87896063D01*
X142790256Y-87782795D01*
X142601898Y-87704774D01*
X142401939Y-87665000D01*
X142367263Y-87665000D01*
X142417205Y-87590256D01*
X142488660Y-87417750D01*
X142601898Y-87395226D01*
X142790256Y-87317205D01*
X142959774Y-87203937D01*
X143103937Y-87059774D01*
X143217205Y-86890256D01*
X143295226Y-86701898D01*
X143335000Y-86501939D01*
X143335000Y-86298061D01*
X143295226Y-86098102D01*
X143217205Y-85909744D01*
X143103937Y-85740226D01*
X142959774Y-85596063D01*
X142790256Y-85482795D01*
X142601898Y-85404774D01*
X142401939Y-85365000D01*
X142198061Y-85365000D01*
X141998102Y-85404774D01*
X141809744Y-85482795D01*
X141640226Y-85596063D01*
X141496063Y-85740226D01*
X141382795Y-85909744D01*
X141311340Y-86082250D01*
X141198102Y-86104774D01*
X141009744Y-86182795D01*
X140840226Y-86296063D01*
X140696063Y-86440226D01*
X140582795Y-86609744D01*
X140535488Y-86723953D01*
X140429879Y-86744960D01*
X140241521Y-86822981D01*
X140148687Y-86885011D01*
X140038125Y-86839214D01*
X139838166Y-86799440D01*
X139634288Y-86799440D01*
X139434329Y-86839214D01*
X139371527Y-86865228D01*
X139236635Y-86775096D01*
X139048277Y-86697075D01*
X138848318Y-86657301D01*
X138644440Y-86657301D01*
X138444481Y-86697075D01*
X138256123Y-86775096D01*
X138086605Y-86888364D01*
X137942442Y-87032527D01*
X137829174Y-87202045D01*
X137751153Y-87390403D01*
X137711379Y-87590362D01*
X137711379Y-87794240D01*
X137751153Y-87994199D01*
X137829174Y-88182557D01*
X137942442Y-88352075D01*
X138086605Y-88496238D01*
X138256123Y-88609506D01*
X138444481Y-88687527D01*
X138644440Y-88727301D01*
X138848318Y-88727301D01*
X139048277Y-88687527D01*
X139111079Y-88661513D01*
X139245971Y-88751645D01*
X139315171Y-88780309D01*
X139351941Y-88965165D01*
X139366917Y-89001320D01*
X139290256Y-88950097D01*
X139101898Y-88872076D01*
X138901939Y-88832302D01*
X138698061Y-88832302D01*
X138498102Y-88872076D01*
X138309744Y-88950097D01*
X138194188Y-89027309D01*
X138078631Y-88950097D01*
X137890273Y-88872076D01*
X137690314Y-88832302D01*
X137486436Y-88832302D01*
X137286477Y-88872076D01*
X137098119Y-88950097D01*
X137019719Y-89002482D01*
X136990256Y-88982795D01*
X136801898Y-88904774D01*
X136601939Y-88865000D01*
X136398061Y-88865000D01*
X136198102Y-88904774D01*
X136009744Y-88982795D01*
X135840226Y-89096063D01*
X135793551Y-89142738D01*
X135701898Y-89104774D01*
X135501939Y-89065000D01*
X135298061Y-89065000D01*
X135098102Y-89104774D01*
X134909744Y-89182795D01*
X134740226Y-89296063D01*
X134596063Y-89440226D01*
X134492647Y-89595000D01*
X134450061Y-89595000D01*
X134250102Y-89634774D01*
X134061744Y-89712795D01*
X133892226Y-89826063D01*
X133748063Y-89970226D01*
X133634795Y-90139744D01*
X133556774Y-90328102D01*
X133517000Y-90528061D01*
X133517000Y-90731939D01*
X133525793Y-90776147D01*
X133509744Y-90782795D01*
X133340226Y-90896063D01*
X133196063Y-91040226D01*
X133082795Y-91209744D01*
X133004774Y-91398102D01*
X132965000Y-91598061D01*
X131533692Y-91598061D01*
X131564559Y-91577437D01*
X131708722Y-91433274D01*
X131821990Y-91263756D01*
X131900011Y-91075398D01*
X131939785Y-90875439D01*
X131939785Y-90671561D01*
X131900011Y-90471602D01*
X131825351Y-90291359D01*
X131843976Y-90263485D01*
X131921997Y-90075127D01*
X131961771Y-89875168D01*
X131961771Y-89671290D01*
X131921997Y-89471331D01*
X131843976Y-89282973D01*
X131730708Y-89113455D01*
X131586545Y-88969292D01*
X131417027Y-88856024D01*
X131228669Y-88778003D01*
X131028710Y-88738229D01*
X130824832Y-88738229D01*
X130624873Y-88778003D01*
X130436515Y-88856024D01*
X130266997Y-88969292D01*
X130122834Y-89113455D01*
X130009566Y-89282973D01*
X129931545Y-89471331D01*
X129891771Y-89671290D01*
X129891771Y-89875168D01*
X129931545Y-90075127D01*
X130006205Y-90255370D01*
X129987580Y-90283244D01*
X129909559Y-90471602D01*
X129869785Y-90671561D01*
X112260000Y-90671561D01*
X112260000Y-88181874D01*
X116505881Y-88181874D01*
X116522554Y-88236864D01*
X116612877Y-88440206D01*
X116741135Y-88622020D01*
X116902399Y-88775318D01*
X117090471Y-88894210D01*
X117298124Y-88974126D01*
X117473000Y-88849129D01*
X117473000Y-88007000D01*
X116632046Y-88007000D01*
X116505881Y-88181874D01*
X112260000Y-88181874D01*
X112260000Y-84371874D01*
X116505881Y-84371874D01*
X116522554Y-84426864D01*
X116612877Y-84630206D01*
X116665639Y-84705000D01*
X116612877Y-84779794D01*
X116522554Y-84983136D01*
X116505881Y-85038126D01*
X116632046Y-85213000D01*
X117473000Y-85213000D01*
X117473000Y-84197000D01*
X116632046Y-84197000D01*
X116505881Y-84371874D01*
X112260000Y-84371874D01*
X112260000Y-82300000D01*
X116461928Y-82300000D01*
X116461928Y-83300000D01*
X116474188Y-83424482D01*
X116510498Y-83544180D01*
X116558070Y-83633180D01*
X116522554Y-83713136D01*
X116505881Y-83768126D01*
X116632046Y-83943000D01*
X117473000Y-83943000D01*
X117473000Y-83938072D01*
X117727000Y-83938072D01*
X117727000Y-83943000D01*
X117738026Y-83943000D01*
X117735000Y-83958212D01*
X117735000Y-84181788D01*
X117738026Y-84197000D01*
X117727000Y-84197000D01*
X117727000Y-85213000D01*
X117738026Y-85213000D01*
X117735000Y-85228212D01*
X117735000Y-85451788D01*
X117738026Y-85467000D01*
X117727000Y-85467000D01*
X117727000Y-85478026D01*
X117711788Y-85475000D01*
X117488212Y-85475000D01*
X117473000Y-85478026D01*
X117473000Y-85467000D01*
X116632046Y-85467000D01*
X116505881Y-85641874D01*
X116522554Y-85696864D01*
X116612877Y-85900206D01*
X116662353Y-85970342D01*
X116594176Y-86072376D01*
X116508617Y-86278933D01*
X116465000Y-86498212D01*
X116465000Y-86721788D01*
X116508617Y-86941067D01*
X116594176Y-87147624D01*
X116662353Y-87249658D01*
X116612877Y-87319794D01*
X116522554Y-87523136D01*
X116505881Y-87578126D01*
X116632046Y-87753000D01*
X117473000Y-87753000D01*
X117473000Y-87741974D01*
X117488212Y-87745000D01*
X117711788Y-87745000D01*
X117727000Y-87741974D01*
X117727000Y-87753000D01*
X117738026Y-87753000D01*
X117735000Y-87768212D01*
X117735000Y-87991788D01*
X117738026Y-88007000D01*
X117727000Y-88007000D01*
X117727000Y-88849129D01*
X117901876Y-88974126D01*
X118109529Y-88894210D01*
X118230488Y-88817744D01*
X118332376Y-88885824D01*
X118538933Y-88971383D01*
X118758212Y-89015000D01*
X118981788Y-89015000D01*
X119201067Y-88971383D01*
X119407624Y-88885824D01*
X119593520Y-88761612D01*
X119751612Y-88603520D01*
X119875824Y-88417624D01*
X119961383Y-88211067D01*
X120005000Y-87991788D01*
X120005000Y-87768212D01*
X119991047Y-87698061D01*
X128965000Y-87698061D01*
X128965000Y-87901939D01*
X129004774Y-88101898D01*
X129082795Y-88290256D01*
X129196063Y-88459774D01*
X129340226Y-88603937D01*
X129509744Y-88717205D01*
X129698102Y-88795226D01*
X129898061Y-88835000D01*
X130101939Y-88835000D01*
X130301898Y-88795226D01*
X130490256Y-88717205D01*
X130659774Y-88603937D01*
X130803937Y-88459774D01*
X130917205Y-88290256D01*
X130995226Y-88101898D01*
X131035000Y-87901939D01*
X131035000Y-87698061D01*
X130995226Y-87498102D01*
X130917205Y-87309744D01*
X130803937Y-87140226D01*
X130659774Y-86996063D01*
X130490256Y-86882795D01*
X130301898Y-86804774D01*
X130101939Y-86765000D01*
X129898061Y-86765000D01*
X129698102Y-86804774D01*
X129509744Y-86882795D01*
X129340226Y-86996063D01*
X129196063Y-87140226D01*
X129082795Y-87309744D01*
X129004774Y-87498102D01*
X128965000Y-87698061D01*
X119991047Y-87698061D01*
X119961383Y-87548933D01*
X119875824Y-87342376D01*
X119810759Y-87245000D01*
X119875824Y-87147624D01*
X119961383Y-86941067D01*
X120005000Y-86721788D01*
X120005000Y-86498212D01*
X119961383Y-86278933D01*
X119875824Y-86072376D01*
X119810759Y-85975000D01*
X119875824Y-85877624D01*
X119961383Y-85671067D01*
X120005000Y-85451788D01*
X120005000Y-85228212D01*
X119961383Y-85008933D01*
X119915459Y-84898061D01*
X154465000Y-84898061D01*
X154465000Y-85101939D01*
X154504774Y-85301898D01*
X154582795Y-85490256D01*
X154696063Y-85659774D01*
X154840226Y-85803937D01*
X155009744Y-85917205D01*
X155198102Y-85995226D01*
X155398061Y-86035000D01*
X155601939Y-86035000D01*
X155801898Y-85995226D01*
X155990256Y-85917205D01*
X156159774Y-85803937D01*
X156303937Y-85659774D01*
X156417205Y-85490256D01*
X156495226Y-85301898D01*
X156535000Y-85101939D01*
X156535000Y-84898061D01*
X156495226Y-84698102D01*
X156417205Y-84509744D01*
X156303937Y-84340226D01*
X156159774Y-84196063D01*
X155990256Y-84082795D01*
X155801898Y-84004774D01*
X155601939Y-83965000D01*
X155398061Y-83965000D01*
X155198102Y-84004774D01*
X155009744Y-84082795D01*
X154840226Y-84196063D01*
X154696063Y-84340226D01*
X154582795Y-84509744D01*
X154504774Y-84698102D01*
X154465000Y-84898061D01*
X119915459Y-84898061D01*
X119875824Y-84802376D01*
X119810759Y-84705000D01*
X119875824Y-84607624D01*
X119961383Y-84401067D01*
X120005000Y-84181788D01*
X120005000Y-83958212D01*
X119961383Y-83738933D01*
X119944454Y-83698061D01*
X142265000Y-83698061D01*
X142265000Y-83901939D01*
X142304774Y-84101898D01*
X142382795Y-84290256D01*
X142496063Y-84459774D01*
X142640226Y-84603937D01*
X142809744Y-84717205D01*
X142998102Y-84795226D01*
X143198061Y-84835000D01*
X143401939Y-84835000D01*
X143601898Y-84795226D01*
X143790256Y-84717205D01*
X143959774Y-84603937D01*
X144103937Y-84459774D01*
X144217205Y-84290256D01*
X144295226Y-84101898D01*
X144335000Y-83901939D01*
X144335000Y-83698061D01*
X144295226Y-83498102D01*
X144217205Y-83309744D01*
X144103937Y-83140226D01*
X143959774Y-82996063D01*
X143790256Y-82882795D01*
X143601898Y-82804774D01*
X143401939Y-82765000D01*
X143198061Y-82765000D01*
X142998102Y-82804774D01*
X142809744Y-82882795D01*
X142640226Y-82996063D01*
X142496063Y-83140226D01*
X142382795Y-83309744D01*
X142304774Y-83498102D01*
X142265000Y-83698061D01*
X119944454Y-83698061D01*
X119875824Y-83532376D01*
X119810759Y-83435000D01*
X119875824Y-83337624D01*
X119961383Y-83131067D01*
X120005000Y-82911788D01*
X120005000Y-82688212D01*
X119961383Y-82468933D01*
X119875824Y-82262376D01*
X119751612Y-82076480D01*
X119593520Y-81918388D01*
X119407624Y-81794176D01*
X119201067Y-81708617D01*
X119079312Y-81684399D01*
X119103937Y-81659774D01*
X119217205Y-81490256D01*
X119295226Y-81301898D01*
X119335000Y-81101939D01*
X119335000Y-80998061D01*
X123365000Y-80998061D01*
X123365000Y-81201939D01*
X123404774Y-81401898D01*
X123482795Y-81590256D01*
X123596063Y-81759774D01*
X123740226Y-81903937D01*
X123909744Y-82017205D01*
X124098102Y-82095226D01*
X124298061Y-82135000D01*
X124501939Y-82135000D01*
X124701898Y-82095226D01*
X124890256Y-82017205D01*
X125059774Y-81903937D01*
X125203937Y-81759774D01*
X125317205Y-81590256D01*
X125395226Y-81401898D01*
X125435000Y-81201939D01*
X125435000Y-80998061D01*
X125395226Y-80798102D01*
X125317205Y-80609744D01*
X125203937Y-80440226D01*
X125059774Y-80296063D01*
X124890256Y-80182795D01*
X124701898Y-80104774D01*
X124501939Y-80065000D01*
X124298061Y-80065000D01*
X124098102Y-80104774D01*
X123909744Y-80182795D01*
X123740226Y-80296063D01*
X123596063Y-80440226D01*
X123482795Y-80609744D01*
X123404774Y-80798102D01*
X123365000Y-80998061D01*
X119335000Y-80998061D01*
X119335000Y-80898061D01*
X119295226Y-80698102D01*
X119217205Y-80509744D01*
X119103937Y-80340226D01*
X118959774Y-80196063D01*
X118790256Y-80082795D01*
X118601898Y-80004774D01*
X118401939Y-79965000D01*
X118198061Y-79965000D01*
X117998102Y-80004774D01*
X117809744Y-80082795D01*
X117640226Y-80196063D01*
X117496063Y-80340226D01*
X117382795Y-80509744D01*
X117304774Y-80698102D01*
X117265000Y-80898061D01*
X117265000Y-81101939D01*
X117304774Y-81301898D01*
X117382795Y-81490256D01*
X117496063Y-81659774D01*
X117498217Y-81661928D01*
X117100000Y-81661928D01*
X116975518Y-81674188D01*
X116855820Y-81710498D01*
X116745506Y-81769463D01*
X116648815Y-81848815D01*
X116569463Y-81945506D01*
X116510498Y-82055820D01*
X116474188Y-82175518D01*
X116461928Y-82300000D01*
X112260000Y-82300000D01*
X112260000Y-79198061D01*
X121065000Y-79198061D01*
X121065000Y-79401939D01*
X121104774Y-79601898D01*
X121182795Y-79790256D01*
X121296063Y-79959774D01*
X121440226Y-80103937D01*
X121609744Y-80217205D01*
X121798102Y-80295226D01*
X121998061Y-80335000D01*
X122201939Y-80335000D01*
X122401898Y-80295226D01*
X122590256Y-80217205D01*
X122759774Y-80103937D01*
X122903937Y-79959774D01*
X123017205Y-79790256D01*
X123095226Y-79601898D01*
X123135000Y-79401939D01*
X123135000Y-79290946D01*
X125872115Y-79290946D01*
X125872115Y-79494824D01*
X125911889Y-79694783D01*
X125989910Y-79883141D01*
X126103178Y-80052659D01*
X126247341Y-80196822D01*
X126416859Y-80310090D01*
X126605217Y-80388111D01*
X126805176Y-80427885D01*
X127009054Y-80427885D01*
X127209013Y-80388111D01*
X127397371Y-80310090D01*
X127565034Y-80198061D01*
X133065000Y-80198061D01*
X133065000Y-80401939D01*
X133104774Y-80601898D01*
X133182795Y-80790256D01*
X133296063Y-80959774D01*
X133440226Y-81103937D01*
X133609744Y-81217205D01*
X133798102Y-81295226D01*
X133965000Y-81328424D01*
X133965000Y-81501939D01*
X134004774Y-81701898D01*
X134082795Y-81890256D01*
X134196063Y-82059774D01*
X134340226Y-82203937D01*
X134509744Y-82317205D01*
X134698102Y-82395226D01*
X134898061Y-82435000D01*
X135101939Y-82435000D01*
X135301898Y-82395226D01*
X135490256Y-82317205D01*
X135659774Y-82203937D01*
X135803937Y-82059774D01*
X135917205Y-81890256D01*
X135995226Y-81701898D01*
X136035000Y-81501939D01*
X136035000Y-81298061D01*
X151265000Y-81298061D01*
X151265000Y-81501939D01*
X151304774Y-81701898D01*
X151382795Y-81890256D01*
X151496063Y-82059774D01*
X151640226Y-82203937D01*
X151809744Y-82317205D01*
X151998102Y-82395226D01*
X152198061Y-82435000D01*
X152401939Y-82435000D01*
X152601898Y-82395226D01*
X152790256Y-82317205D01*
X152959774Y-82203937D01*
X153103937Y-82059774D01*
X153217205Y-81890256D01*
X153295226Y-81701898D01*
X153335000Y-81501939D01*
X153335000Y-81298061D01*
X153295226Y-81098102D01*
X153217205Y-80909744D01*
X153103937Y-80740226D01*
X152959774Y-80596063D01*
X152790256Y-80482795D01*
X152601898Y-80404774D01*
X152401939Y-80365000D01*
X152198061Y-80365000D01*
X151998102Y-80404774D01*
X151809744Y-80482795D01*
X151640226Y-80596063D01*
X151496063Y-80740226D01*
X151382795Y-80909744D01*
X151304774Y-81098102D01*
X151265000Y-81298061D01*
X136035000Y-81298061D01*
X135995226Y-81098102D01*
X135917205Y-80909744D01*
X135803937Y-80740226D01*
X135659774Y-80596063D01*
X135490256Y-80482795D01*
X135301898Y-80404774D01*
X135135000Y-80371576D01*
X135135000Y-80198061D01*
X135095226Y-79998102D01*
X135017205Y-79809744D01*
X134903937Y-79640226D01*
X134759774Y-79496063D01*
X134590256Y-79382795D01*
X134401898Y-79304774D01*
X134201939Y-79265000D01*
X133998061Y-79265000D01*
X133798102Y-79304774D01*
X133609744Y-79382795D01*
X133440226Y-79496063D01*
X133296063Y-79640226D01*
X133182795Y-79809744D01*
X133104774Y-79998102D01*
X133065000Y-80198061D01*
X127565034Y-80198061D01*
X127566889Y-80196822D01*
X127711052Y-80052659D01*
X127824320Y-79883141D01*
X127902341Y-79694783D01*
X127942115Y-79494824D01*
X127942115Y-79290946D01*
X127902341Y-79090987D01*
X127824320Y-78902629D01*
X127711052Y-78733111D01*
X127566889Y-78588948D01*
X127397371Y-78475680D01*
X127209013Y-78397659D01*
X127009054Y-78357885D01*
X126805176Y-78357885D01*
X126605217Y-78397659D01*
X126416859Y-78475680D01*
X126247341Y-78588948D01*
X126103178Y-78733111D01*
X125989910Y-78902629D01*
X125911889Y-79090987D01*
X125872115Y-79290946D01*
X123135000Y-79290946D01*
X123135000Y-79198061D01*
X123122456Y-79135000D01*
X123301939Y-79135000D01*
X123501898Y-79095226D01*
X123690256Y-79017205D01*
X123859774Y-78903937D01*
X124003937Y-78759774D01*
X124117205Y-78590256D01*
X124195226Y-78401898D01*
X124235000Y-78201939D01*
X124235000Y-77998061D01*
X124195226Y-77798102D01*
X124117205Y-77609744D01*
X124003937Y-77440226D01*
X123859774Y-77296063D01*
X123690256Y-77182795D01*
X123501898Y-77104774D01*
X123301939Y-77065000D01*
X123098061Y-77065000D01*
X122898102Y-77104774D01*
X122709744Y-77182795D01*
X122540226Y-77296063D01*
X122396063Y-77440226D01*
X122282795Y-77609744D01*
X122204774Y-77798102D01*
X122165000Y-77998061D01*
X122165000Y-78201939D01*
X122177544Y-78265000D01*
X121998061Y-78265000D01*
X121798102Y-78304774D01*
X121609744Y-78382795D01*
X121440226Y-78496063D01*
X121296063Y-78640226D01*
X121182795Y-78809744D01*
X121104774Y-78998102D01*
X121065000Y-79198061D01*
X112260000Y-79198061D01*
X112260000Y-75798061D01*
X122265000Y-75798061D01*
X122265000Y-76001939D01*
X122304774Y-76201898D01*
X122382795Y-76390256D01*
X122496063Y-76559774D01*
X122640226Y-76703937D01*
X122809744Y-76817205D01*
X122998102Y-76895226D01*
X123198061Y-76935000D01*
X123401939Y-76935000D01*
X123601898Y-76895226D01*
X123790256Y-76817205D01*
X123818907Y-76798061D01*
X124865000Y-76798061D01*
X124865000Y-77001939D01*
X124904774Y-77201898D01*
X124982795Y-77390256D01*
X125096063Y-77559774D01*
X125240226Y-77703937D01*
X125409744Y-77817205D01*
X125598102Y-77895226D01*
X125798061Y-77935000D01*
X126001939Y-77935000D01*
X126201898Y-77895226D01*
X126390256Y-77817205D01*
X126559774Y-77703937D01*
X126703937Y-77559774D01*
X126817205Y-77390256D01*
X126895226Y-77201898D01*
X126935000Y-77001939D01*
X126935000Y-76798061D01*
X126895226Y-76598102D01*
X126817205Y-76409744D01*
X126703937Y-76240226D01*
X126559774Y-76096063D01*
X126390256Y-75982795D01*
X126201898Y-75904774D01*
X126001939Y-75865000D01*
X125798061Y-75865000D01*
X125598102Y-75904774D01*
X125409744Y-75982795D01*
X125240226Y-76096063D01*
X125096063Y-76240226D01*
X124982795Y-76409744D01*
X124904774Y-76598102D01*
X124865000Y-76798061D01*
X123818907Y-76798061D01*
X123959774Y-76703937D01*
X124103937Y-76559774D01*
X124217205Y-76390256D01*
X124295226Y-76201898D01*
X124335000Y-76001939D01*
X124335000Y-75798061D01*
X124295226Y-75598102D01*
X124217205Y-75409744D01*
X124103937Y-75240226D01*
X123959774Y-75096063D01*
X123790256Y-74982795D01*
X123601898Y-74904774D01*
X123401939Y-74865000D01*
X123198061Y-74865000D01*
X122998102Y-74904774D01*
X122809744Y-74982795D01*
X122640226Y-75096063D01*
X122496063Y-75240226D01*
X122382795Y-75409744D01*
X122304774Y-75598102D01*
X122265000Y-75798061D01*
X112260000Y-75798061D01*
X112260000Y-73398061D01*
X113765000Y-73398061D01*
X113765000Y-73601939D01*
X113804774Y-73801898D01*
X113882795Y-73990256D01*
X113996063Y-74159774D01*
X114140226Y-74303937D01*
X114309744Y-74417205D01*
X114498102Y-74495226D01*
X114698061Y-74535000D01*
X114901939Y-74535000D01*
X115101898Y-74495226D01*
X115290256Y-74417205D01*
X115459774Y-74303937D01*
X115600000Y-74163711D01*
X115640226Y-74203937D01*
X115809744Y-74317205D01*
X115998102Y-74395226D01*
X116198061Y-74435000D01*
X116401939Y-74435000D01*
X116601898Y-74395226D01*
X116790256Y-74317205D01*
X116959774Y-74203937D01*
X117103937Y-74059774D01*
X117217205Y-73890256D01*
X117295226Y-73701898D01*
X117335000Y-73501939D01*
X117335000Y-73298061D01*
X117295226Y-73098102D01*
X117217205Y-72909744D01*
X117103937Y-72740226D01*
X116959774Y-72596063D01*
X116790256Y-72482795D01*
X116601898Y-72404774D01*
X116401939Y-72365000D01*
X116198061Y-72365000D01*
X115998102Y-72404774D01*
X115809744Y-72482795D01*
X115640226Y-72596063D01*
X115500000Y-72736289D01*
X115459774Y-72696063D01*
X115290256Y-72582795D01*
X115101898Y-72504774D01*
X114901939Y-72465000D01*
X114698061Y-72465000D01*
X114498102Y-72504774D01*
X114309744Y-72582795D01*
X114140226Y-72696063D01*
X113996063Y-72840226D01*
X113882795Y-73009744D01*
X113804774Y-73198102D01*
X113765000Y-73398061D01*
X112260000Y-73398061D01*
X112260000Y-66887826D01*
X112275891Y-66903717D01*
X112389831Y-66789777D01*
X112629976Y-67177018D01*
X113123877Y-67437641D01*
X113659133Y-67596901D01*
X114215174Y-67648678D01*
X114770632Y-67590981D01*
X115304161Y-67426028D01*
X115770024Y-67177018D01*
X116010170Y-66789775D01*
X114200000Y-64979605D01*
X114185858Y-64993748D01*
X114006253Y-64814143D01*
X114020395Y-64800000D01*
X114006253Y-64785858D01*
X114185858Y-64606253D01*
X114200000Y-64620395D01*
X114214143Y-64606253D01*
X114393748Y-64785858D01*
X114379605Y-64800000D01*
X116189775Y-66610170D01*
X116577018Y-66370024D01*
X116837641Y-65876123D01*
X116996901Y-65340867D01*
X117048678Y-64784826D01*
X116990981Y-64229368D01*
X116826028Y-63695839D01*
X116577018Y-63229976D01*
X116189777Y-62989831D01*
X116303717Y-62875891D01*
X116287826Y-62860000D01*
X128692462Y-62860000D01*
X128665000Y-62998061D01*
G37*
%TD.AperFunction*%
%TD*%
M02*
