%TF.GenerationSoftware,KiCad,Pcbnew,(6.0.9)*%
%TF.CreationDate,2023-03-24T12:27:37+01:00*%
%TF.ProjectId,twoLevelInverter,74776f4c-6576-4656-9c49-6e7665727465,rev?*%
%TF.SameCoordinates,Original*%
%TF.FileFunction,Copper,L3,Inr*%
%TF.FilePolarity,Positive*%
%FSLAX46Y46*%
G04 Gerber Fmt 4.6, Leading zero omitted, Abs format (unit mm)*
G04 Created by KiCad (PCBNEW (6.0.9)) date 2023-03-24 12:27:37*
%MOMM*%
%LPD*%
G01*
G04 APERTURE LIST*
%TA.AperFunction,ComponentPad*%
%ADD10R,1.100000X1.100000*%
%TD*%
%TA.AperFunction,ComponentPad*%
%ADD11C,1.100000*%
%TD*%
%TA.AperFunction,ComponentPad*%
%ADD12R,1.130000X1.130000*%
%TD*%
%TA.AperFunction,ComponentPad*%
%ADD13C,1.130000*%
%TD*%
%TA.AperFunction,ComponentPad*%
%ADD14C,0.900000*%
%TD*%
%TA.AperFunction,ComponentPad*%
%ADD15C,10.600000*%
%TD*%
%TA.AperFunction,ComponentPad*%
%ADD16C,1.950000*%
%TD*%
%TA.AperFunction,ComponentPad*%
%ADD17R,1.520000X1.520000*%
%TD*%
%TA.AperFunction,ComponentPad*%
%ADD18C,1.520000*%
%TD*%
%TA.AperFunction,ViaPad*%
%ADD19C,0.800000*%
%TD*%
%TA.AperFunction,Conductor*%
%ADD20C,0.300000*%
%TD*%
G04 APERTURE END LIST*
D10*
%TO.N,+3V3*%
%TO.C,C19*%
X218400000Y-74168000D03*
D11*
%TO.N,GND*%
X215900000Y-74168000D03*
%TD*%
D12*
%TO.N,Net-(C17-Pad2)*%
%TO.C,IC8*%
X218346000Y-87630000D03*
D13*
%TO.N,unconnected-(IC8-Pad2)*%
X218346000Y-85090000D03*
%TO.N,unconnected-(IC8-Pad3)*%
X218346000Y-82550000D03*
%TO.N,+3V3*%
X218346000Y-80010000D03*
%TO.N,unconnected-(IC8-Pad5)*%
X210406000Y-80010000D03*
%TO.N,GND*%
X210406000Y-82550000D03*
%TO.N,+24V*%
X210406000Y-85090000D03*
%TO.N,Net-(C17-Pad1)*%
X210406000Y-87630000D03*
%TD*%
D14*
%TO.N,GND*%
%TO.C,H3*%
X245380749Y-151113251D03*
X245380749Y-156734749D03*
X239759251Y-156734749D03*
D15*
X242570000Y-153924000D03*
D14*
X238595000Y-153924000D03*
X242570000Y-157899000D03*
X242570000Y-149949000D03*
X246545000Y-153924000D03*
X239759251Y-151113251D03*
%TD*%
D16*
%TO.N,/B_1*%
%TO.C,J3*%
X242570000Y-142240000D03*
%TO.N,/A_1*%
X242570000Y-132080000D03*
%TO.N,GND*%
X242570000Y-121920000D03*
%TO.N,+5V*%
X242570000Y-111760000D03*
%TD*%
D14*
%TO.N,GND*%
%TO.C,H1*%
X156734749Y-156734749D03*
X149949000Y-153924000D03*
X156734749Y-151113251D03*
X153924000Y-157899000D03*
X157899000Y-153924000D03*
X151113251Y-156734749D03*
D15*
X153924000Y-153924000D03*
D14*
X151113251Y-151113251D03*
X153924000Y-149949000D03*
%TD*%
%TO.N,GND*%
%TO.C,H2*%
X156734749Y-44433251D03*
X149949000Y-47244000D03*
D15*
X153924000Y-47244000D03*
D14*
X153924000Y-43269000D03*
X153924000Y-51219000D03*
X151113251Y-44433251D03*
X156734749Y-50054749D03*
X151113251Y-50054749D03*
X157899000Y-47244000D03*
%TD*%
D16*
%TO.N,/Phase_A*%
%TO.C,J4*%
X163830000Y-154178000D03*
%TO.N,/Phase_B*%
X173990000Y-154178000D03*
%TO.N,/Phase_C*%
X184150000Y-154178000D03*
%TO.N,GND*%
X194310000Y-154178000D03*
%TD*%
D14*
%TO.N,GND*%
%TO.C,H4*%
X239759251Y-50054749D03*
X242570000Y-43269000D03*
X246545000Y-47244000D03*
D15*
X242570000Y-47244000D03*
D14*
X239759251Y-44433251D03*
X245380749Y-50054749D03*
X245380749Y-44433251D03*
X242570000Y-51219000D03*
X238595000Y-47244000D03*
%TD*%
D16*
%TO.N,/HALL_A*%
%TO.C,J8*%
X231648000Y-142240000D03*
%TO.N,/HALL_B*%
X231648000Y-132080000D03*
%TO.N,/HALL_C*%
X231648000Y-121920000D03*
%TO.N,+5V*%
X231648000Y-111760000D03*
%TD*%
%TO.N,+5V*%
%TO.C,J5*%
X233172000Y-47117000D03*
%TO.N,+3V3*%
X223012000Y-47117000D03*
%TO.N,GND*%
X212852000Y-47117000D03*
%TO.N,+24V*%
X202692000Y-47117000D03*
%TD*%
D17*
%TO.N,/Phase_C*%
%TO.C,J2*%
X211667250Y-142192000D03*
D18*
%TO.N,/Phase_B*%
X208667250Y-142192000D03*
%TO.N,/Phase_A*%
X205667250Y-142192000D03*
%TO.N,GND*%
X202667250Y-142192000D03*
%TO.N,/HALL_A*%
X211667250Y-139192000D03*
%TO.N,/HALL_B*%
X208667250Y-139192000D03*
%TO.N,/HALL_C*%
X205667250Y-139192000D03*
%TO.N,+5V*%
X202667250Y-139192000D03*
%TD*%
D19*
%TO.N,/HB2_IS*%
X168910000Y-97015500D03*
X159512000Y-62604500D03*
%TO.N,/HB3_IS*%
X188771424Y-87580576D03*
X187960000Y-93726000D03*
%TO.N,/EN_5V*%
X187960000Y-57150000D03*
X155448000Y-80264000D03*
%TO.N,/HB3_INH*%
X164062023Y-79269977D03*
X176453129Y-80340871D03*
%TO.N,/Phase_C*%
X184658000Y-156972000D03*
X186690000Y-156972000D03*
X182372000Y-156972000D03*
X186436000Y-152400000D03*
X184658000Y-158496000D03*
X186690000Y-158496000D03*
X182118000Y-152400000D03*
X182372000Y-158496000D03*
X184404000Y-152400000D03*
%TO.N,/Phase_B*%
X176276000Y-151638000D03*
X176276000Y-158242000D03*
X171450000Y-156464000D03*
X173990000Y-158242000D03*
X176276000Y-149352000D03*
X176276000Y-156464000D03*
X171450000Y-151638000D03*
X173990000Y-156464000D03*
X171450000Y-149352000D03*
X173990000Y-151638000D03*
X171450000Y-158242000D03*
X173990000Y-149352000D03*
%TO.N,/Phase_A*%
X165608000Y-150368000D03*
X161544000Y-156210000D03*
X163576000Y-150368000D03*
X161544000Y-150368000D03*
X161544000Y-147828000D03*
X163576000Y-156210000D03*
X163576000Y-145542000D03*
X165608000Y-145542000D03*
X165608000Y-158496000D03*
X161544000Y-158496000D03*
X165608000Y-156210000D03*
X163576000Y-147828000D03*
X163576000Y-158496000D03*
X161544000Y-145542000D03*
X165608000Y-147828000D03*
%TO.N,/HALL_A*%
X210058000Y-127762000D03*
%TO.N,/HALL_B*%
X216154000Y-127762000D03*
%TO.N,/HALL_C*%
X222250000Y-127762000D03*
%TO.N,GND*%
X155702000Y-92456000D03*
X182372000Y-103886000D03*
X184658000Y-128270000D03*
X163322000Y-103632000D03*
X176276000Y-60071000D03*
X164084000Y-129540000D03*
X184404000Y-56261000D03*
X207264000Y-128524000D03*
X207264000Y-129794000D03*
X183642000Y-103886000D03*
X180340000Y-92710000D03*
X224790000Y-129286000D03*
X170942000Y-56642000D03*
X166116000Y-128270000D03*
X213360000Y-54991000D03*
X162052000Y-105410000D03*
X208280000Y-57531000D03*
X186690000Y-129794000D03*
X183642000Y-105664000D03*
X160528000Y-105410000D03*
X202946000Y-101854000D03*
X210820000Y-57531000D03*
X198882000Y-96520000D03*
X201422000Y-101854000D03*
X160528000Y-101600000D03*
X201422000Y-105664000D03*
X171196000Y-60071000D03*
X218694000Y-129286000D03*
X211074000Y-49911000D03*
X191135000Y-61468000D03*
X178816000Y-62611000D03*
X210820000Y-52451000D03*
X204978000Y-128524000D03*
X204216000Y-103886000D03*
X181356000Y-60071000D03*
X166116000Y-129540000D03*
X182372000Y-101854000D03*
X201422000Y-96520000D03*
X217997500Y-68580000D03*
X201422000Y-103886000D03*
X176022000Y-56769000D03*
X202946000Y-103886000D03*
X153162000Y-92456000D03*
X178816000Y-60071000D03*
X180848000Y-105664000D03*
X204216000Y-105664000D03*
X217616500Y-63500000D03*
X160528000Y-103632000D03*
X213360000Y-49911000D03*
X162052000Y-101600000D03*
X202946000Y-105664000D03*
X162052000Y-103632000D03*
X184658000Y-129794000D03*
X180848000Y-101854000D03*
X160528000Y-92456000D03*
X183642000Y-101854000D03*
X204216000Y-101854000D03*
X176276000Y-62611000D03*
X171196000Y-62611000D03*
X163322000Y-105410000D03*
X186690000Y-128270000D03*
X164084000Y-128270000D03*
X197231000Y-61468000D03*
X173736000Y-62611000D03*
X158242000Y-92456000D03*
X173736000Y-60071000D03*
X217616500Y-65151000D03*
X180848000Y-103886000D03*
X173228000Y-92710000D03*
X182372000Y-105664000D03*
X208280000Y-49911000D03*
X234950000Y-98044000D03*
X212598000Y-129286000D03*
X208280000Y-54991000D03*
X204978000Y-129794000D03*
X213360000Y-57531000D03*
X213360000Y-52451000D03*
X163322000Y-101600000D03*
X184404000Y-58801000D03*
X178054000Y-92710000D03*
X181356000Y-62611000D03*
X234950000Y-106680000D03*
X210820000Y-54991000D03*
X196342000Y-96520000D03*
X175514000Y-92710000D03*
X208280000Y-52451000D03*
%TO.N,+24V*%
X204470000Y-86360000D03*
X191770000Y-78740000D03*
X191770000Y-99568000D03*
X191516000Y-101346000D03*
X196850000Y-81280000D03*
X151130000Y-100076000D03*
X169164000Y-99568000D03*
X194310000Y-88900000D03*
X196850000Y-88900000D03*
X199390000Y-86360000D03*
X191770000Y-88900000D03*
X199390000Y-83820000D03*
X191770000Y-86360000D03*
X204470000Y-81280000D03*
X191262000Y-104394000D03*
X189484000Y-106172000D03*
X192024000Y-106426000D03*
X201930000Y-57912000D03*
X150622000Y-106172000D03*
X194310000Y-83820000D03*
X196850000Y-83820000D03*
X201930000Y-78740000D03*
X149352000Y-104394000D03*
X199390000Y-88900000D03*
X170942000Y-99568000D03*
X189484000Y-103886000D03*
X201930000Y-81280000D03*
X191770000Y-83820000D03*
X199390000Y-81280000D03*
X169418000Y-103886000D03*
X191770000Y-81280000D03*
X204470000Y-83820000D03*
X189484000Y-101346000D03*
X170688000Y-102616000D03*
X196850000Y-86360000D03*
X204470000Y-78740000D03*
X194310000Y-78740000D03*
X204470000Y-88900000D03*
X169164000Y-101600000D03*
X201930000Y-88900000D03*
X189738000Y-99568000D03*
X169164000Y-106172000D03*
X194310000Y-86360000D03*
X199390000Y-78740000D03*
X149098000Y-100076000D03*
X148844000Y-106172000D03*
X194310000Y-81280000D03*
X149352000Y-102362000D03*
X201930000Y-86360000D03*
X201930000Y-83820000D03*
X196850000Y-78740000D03*
X171196000Y-106426000D03*
X217170000Y-56642000D03*
%TO.N,+3V3*%
X188468000Y-123444000D03*
X180340000Y-121158000D03*
X200660000Y-121158000D03*
X170180000Y-123444000D03*
%TO.N,Net-(C13-Pad1)*%
X191389000Y-64643000D03*
X193548000Y-59563000D03*
%TO.N,/current_A*%
X166636500Y-92202000D03*
X163068000Y-121412000D03*
%TO.N,/current_B*%
X167386000Y-86360000D03*
X182880000Y-121412000D03*
%TO.N,/current_C*%
X159766000Y-64516000D03*
X203454000Y-121412000D03*
%TO.N,/A_1_3V3*%
X206502000Y-91186000D03*
X221234000Y-98044000D03*
%TO.N,/B_1_3V3*%
X221234000Y-104140000D03*
X205795244Y-91935500D03*
%TO.N,/HALL_B_3V3*%
X216154000Y-118364000D03*
X168148000Y-80264000D03*
%TO.N,/HALL_A_3V3*%
X161798000Y-74676000D03*
X209550000Y-118364000D03*
%TO.N,/HALL_C_3V3*%
X222250000Y-118364000D03*
X170476403Y-80350357D03*
%TD*%
D20*
%TO.N,+24V*%
X217170000Y-56642000D02*
X203200000Y-56642000D01*
X203200000Y-56642000D02*
X201930000Y-57912000D01*
%TO.N,+3V3*%
X172466000Y-121158000D02*
X172974000Y-121158000D01*
X188468000Y-123444000D02*
X189484000Y-123444000D01*
X189484000Y-123444000D02*
X191516000Y-121412000D01*
X172974000Y-121158000D02*
X180340000Y-121158000D01*
X191516000Y-121412000D02*
X191770000Y-121158000D01*
X170180000Y-123444000D02*
X172466000Y-121158000D01*
X191770000Y-121158000D02*
X200660000Y-121158000D01*
%TD*%
%TA.AperFunction,Conductor*%
%TO.N,/Phase_A*%
G36*
X207006573Y-141227427D02*
G01*
X207010000Y-141235700D01*
X207010000Y-147562300D01*
X207006573Y-147570573D01*
X206998300Y-147574000D01*
X166878000Y-147574000D01*
X166878000Y-159246300D01*
X166874573Y-159254573D01*
X166866300Y-159258000D01*
X160539700Y-159258000D01*
X160531427Y-159254573D01*
X160528000Y-159246300D01*
X160528000Y-144283700D01*
X160531427Y-144275427D01*
X160539700Y-144272000D01*
X204216000Y-144272000D01*
X204216000Y-141235700D01*
X204219427Y-141227427D01*
X204227700Y-141224000D01*
X206998300Y-141224000D01*
X207006573Y-141227427D01*
G37*
%TD.AperFunction*%
%TD*%
%TA.AperFunction,Conductor*%
%TO.N,+24V*%
G36*
X205195095Y-78014905D02*
G01*
X205232000Y-78104000D01*
X205232000Y-91101259D01*
X205195095Y-91190354D01*
X205154218Y-91217668D01*
X205123062Y-91230573D01*
X205123061Y-91230574D01*
X205099908Y-91240164D01*
X205090318Y-91263317D01*
X205049351Y-91362219D01*
X204981160Y-91430409D01*
X204932942Y-91440000D01*
X167195958Y-91440000D01*
X167147740Y-91430409D01*
X166659655Y-91228238D01*
X166636500Y-91218647D01*
X166613345Y-91228238D01*
X166125260Y-91430409D01*
X166077042Y-91440000D01*
X151892000Y-91440000D01*
X151892000Y-106554000D01*
X151855095Y-106643095D01*
X151766000Y-106680000D01*
X148208000Y-106680000D01*
X148118905Y-106643095D01*
X148082000Y-106554000D01*
X148082000Y-87580576D01*
X187788071Y-87580576D01*
X188076088Y-88275912D01*
X188771424Y-88563929D01*
X189466760Y-88275912D01*
X189754777Y-87580576D01*
X189466760Y-86885240D01*
X188771424Y-86597223D01*
X188076088Y-86885240D01*
X187788071Y-87580576D01*
X148082000Y-87580576D01*
X148082000Y-86360000D01*
X166402647Y-86360000D01*
X166690664Y-87055336D01*
X167386000Y-87343353D01*
X168081336Y-87055336D01*
X168369353Y-86360000D01*
X168081336Y-85664664D01*
X167386000Y-85376647D01*
X166690664Y-85664664D01*
X166402647Y-86360000D01*
X148082000Y-86360000D01*
X148082000Y-83304000D01*
X152978168Y-83304000D01*
X153329591Y-84152409D01*
X153352745Y-84162000D01*
X153884814Y-84382390D01*
X153957505Y-84412500D01*
X154398495Y-84412500D01*
X154471186Y-84382390D01*
X155003255Y-84162000D01*
X155026409Y-84152409D01*
X155377832Y-83304000D01*
X155026409Y-82455591D01*
X155003255Y-82446000D01*
X154409960Y-82200249D01*
X154398495Y-82195500D01*
X153957505Y-82195500D01*
X153946040Y-82200249D01*
X153352745Y-82446000D01*
X153329591Y-82455591D01*
X152978168Y-83304000D01*
X148082000Y-83304000D01*
X148082000Y-80264000D01*
X154464647Y-80264000D01*
X154752664Y-80959336D01*
X155448000Y-81247353D01*
X156143336Y-80959336D01*
X156431353Y-80264000D01*
X167164647Y-80264000D01*
X167452664Y-80959336D01*
X168148000Y-81247353D01*
X168843336Y-80959336D01*
X169095583Y-80350357D01*
X169493050Y-80350357D01*
X169781067Y-81045693D01*
X170476403Y-81333710D01*
X171171739Y-81045693D01*
X171459756Y-80350357D01*
X171455827Y-80340871D01*
X175469776Y-80340871D01*
X175757793Y-81036207D01*
X176453129Y-81324224D01*
X177148465Y-81036207D01*
X177436482Y-80340871D01*
X177148465Y-79645535D01*
X176453129Y-79357518D01*
X175757793Y-79645535D01*
X175469776Y-80340871D01*
X171455827Y-80340871D01*
X171415594Y-80243739D01*
X171181329Y-79678174D01*
X171171739Y-79655021D01*
X170476403Y-79367004D01*
X169781067Y-79655021D01*
X169771477Y-79678174D01*
X169537213Y-80243739D01*
X169493050Y-80350357D01*
X169095583Y-80350357D01*
X169131353Y-80264000D01*
X168843336Y-79568664D01*
X168148000Y-79280647D01*
X167452664Y-79568664D01*
X167164647Y-80264000D01*
X156431353Y-80264000D01*
X156143336Y-79568664D01*
X155448000Y-79280647D01*
X154752664Y-79568664D01*
X154464647Y-80264000D01*
X148082000Y-80264000D01*
X148082000Y-79269977D01*
X163078670Y-79269977D01*
X163088261Y-79293132D01*
X163158896Y-79463660D01*
X163366687Y-79965313D01*
X164062023Y-80253330D01*
X164757359Y-79965313D01*
X164965150Y-79463660D01*
X165035785Y-79293132D01*
X165045376Y-79269977D01*
X164757359Y-78574641D01*
X164062023Y-78286624D01*
X163366687Y-78574641D01*
X163078670Y-79269977D01*
X148082000Y-79269977D01*
X148082000Y-78104000D01*
X148118905Y-78014905D01*
X148208000Y-77978000D01*
X205106000Y-77978000D01*
X205195095Y-78014905D01*
G37*
%TD.AperFunction*%
%TD*%
%TA.AperFunction,Conductor*%
%TO.N,/Phase_B*%
G36*
X210054573Y-141227427D02*
G01*
X210058000Y-141235700D01*
X210058000Y-151372300D01*
X210054573Y-151380573D01*
X210046300Y-151384000D01*
X177038000Y-151384000D01*
X177038000Y-159246300D01*
X177034573Y-159254573D01*
X177026300Y-159258000D01*
X170699700Y-159258000D01*
X170691427Y-159254573D01*
X170688000Y-159246300D01*
X170688000Y-148093700D01*
X170691427Y-148085427D01*
X170699700Y-148082000D01*
X207264000Y-148082000D01*
X207264000Y-141235700D01*
X207267427Y-141227427D01*
X207275700Y-141224000D01*
X210046300Y-141224000D01*
X210054573Y-141227427D01*
G37*
%TD.AperFunction*%
%TD*%
%TA.AperFunction,Conductor*%
%TO.N,+24V*%
G36*
X172466000Y-92150542D02*
G01*
X172456409Y-92198760D01*
X172244647Y-92710000D01*
X172254238Y-92733155D01*
X172456409Y-93221240D01*
X172466000Y-93269458D01*
X172466000Y-107062000D01*
X172429095Y-107151095D01*
X172340000Y-107188000D01*
X168274000Y-107188000D01*
X168184905Y-107151095D01*
X168148000Y-107062000D01*
X168148000Y-97871795D01*
X168184905Y-97782700D01*
X168274000Y-97745795D01*
X168322217Y-97755386D01*
X168910000Y-97998853D01*
X169605336Y-97710836D01*
X169893353Y-97015500D01*
X169605336Y-96320164D01*
X168910000Y-96032147D01*
X168322217Y-96275614D01*
X168225782Y-96275614D01*
X168157591Y-96207423D01*
X168148000Y-96159205D01*
X168148000Y-86894394D01*
X168359762Y-86383155D01*
X168369353Y-86360000D01*
X168148000Y-85825605D01*
X168148000Y-84836000D01*
X172466000Y-84836000D01*
X172466000Y-92150542D01*
G37*
%TD.AperFunction*%
%TD*%
%TA.AperFunction,Conductor*%
%TO.N,+24V*%
G36*
X193040000Y-106808000D02*
G01*
X193003095Y-106897095D01*
X192914000Y-106934000D01*
X188848000Y-106934000D01*
X188758905Y-106897095D01*
X188722000Y-106808000D01*
X188722000Y-94285458D01*
X188731591Y-94237240D01*
X188933762Y-93749155D01*
X188943353Y-93726000D01*
X188731591Y-93214760D01*
X188722000Y-93166542D01*
X188722000Y-88543457D01*
X188771424Y-88563929D01*
X189466760Y-88275912D01*
X189754777Y-87580576D01*
X189466760Y-86885240D01*
X188771424Y-86597223D01*
X188722000Y-86617695D01*
X188722000Y-84582000D01*
X193040000Y-84582000D01*
X193040000Y-106808000D01*
G37*
%TD.AperFunction*%
%TD*%
%TA.AperFunction,Conductor*%
%TO.N,/Phase_C*%
G36*
X212848573Y-141227427D02*
G01*
X212852000Y-141235700D01*
X212852000Y-159246300D01*
X212848573Y-159254573D01*
X212840300Y-159258000D01*
X181621700Y-159258000D01*
X181613427Y-159254573D01*
X181610000Y-159246300D01*
X181610000Y-154178000D01*
X193111471Y-154178000D01*
X193202704Y-154636657D01*
X193462512Y-155025488D01*
X193851343Y-155285296D01*
X193852472Y-155285521D01*
X193852473Y-155285521D01*
X194308869Y-155376304D01*
X194310000Y-155376529D01*
X194311131Y-155376304D01*
X194767527Y-155285521D01*
X194767528Y-155285521D01*
X194768657Y-155285296D01*
X195157488Y-155025488D01*
X195417296Y-154636657D01*
X195508529Y-154178000D01*
X195417296Y-153719343D01*
X195157488Y-153330512D01*
X194768657Y-153070704D01*
X194767528Y-153070479D01*
X194767527Y-153070479D01*
X194311131Y-152979696D01*
X194310000Y-152979471D01*
X194308869Y-152979696D01*
X193852473Y-153070479D01*
X193852472Y-153070479D01*
X193851343Y-153070704D01*
X193462512Y-153330512D01*
X193202704Y-153719343D01*
X193111471Y-154178000D01*
X181610000Y-154178000D01*
X181610000Y-151903700D01*
X181613427Y-151895427D01*
X181621700Y-151892000D01*
X210566000Y-151892000D01*
X210566000Y-141235700D01*
X210569427Y-141227427D01*
X210577700Y-141224000D01*
X212840300Y-141224000D01*
X212848573Y-141227427D01*
G37*
%TD.AperFunction*%
%TD*%
M02*
