%TF.GenerationSoftware,KiCad,Pcbnew,(6.0.9)*%
%TF.CreationDate,2023-03-24T12:27:37+01:00*%
%TF.ProjectId,twoLevelInverter,74776f4c-6576-4656-9c49-6e7665727465,rev?*%
%TF.SameCoordinates,Original*%
%TF.FileFunction,Soldermask,Bot*%
%TF.FilePolarity,Negative*%
%FSLAX46Y46*%
G04 Gerber Fmt 4.6, Leading zero omitted, Abs format (unit mm)*
G04 Created by KiCad (PCBNEW (6.0.9)) date 2023-03-24 12:27:37*
%MOMM*%
%LPD*%
G01*
G04 APERTURE LIST*
%ADD10R,1.100000X1.100000*%
%ADD11C,1.100000*%
%ADD12R,1.130000X1.130000*%
%ADD13C,1.130000*%
%ADD14C,0.900000*%
%ADD15C,10.600000*%
%ADD16C,1.950000*%
%ADD17C,0.001000*%
%ADD18R,1.520000X1.520000*%
%ADD19C,1.520000*%
G04 APERTURE END LIST*
D10*
%TO.C,C19*%
X218400000Y-74168000D03*
D11*
X215900000Y-74168000D03*
%TD*%
D12*
%TO.C,IC8*%
X218346000Y-87630000D03*
D13*
X218346000Y-85090000D03*
X218346000Y-82550000D03*
X218346000Y-80010000D03*
X210406000Y-80010000D03*
X210406000Y-82550000D03*
X210406000Y-85090000D03*
X210406000Y-87630000D03*
%TD*%
D14*
%TO.C,H3*%
X245380749Y-151113251D03*
X245380749Y-156734749D03*
X239759251Y-156734749D03*
D15*
X242570000Y-153924000D03*
D14*
X238595000Y-153924000D03*
X242570000Y-157899000D03*
X242570000Y-149949000D03*
X246545000Y-153924000D03*
X239759251Y-151113251D03*
%TD*%
D16*
%TO.C,J3*%
X242570000Y-142240000D03*
X242570000Y-132080000D03*
X242570000Y-121920000D03*
X242570000Y-111760000D03*
%TD*%
D17*
%TO.C,J1*%
X154178000Y-56904000D03*
X154178000Y-83304000D03*
%TD*%
D14*
%TO.C,H1*%
X156734749Y-156734749D03*
X149949000Y-153924000D03*
X156734749Y-151113251D03*
X153924000Y-157899000D03*
X157899000Y-153924000D03*
X151113251Y-156734749D03*
D15*
X153924000Y-153924000D03*
D14*
X151113251Y-151113251D03*
X153924000Y-149949000D03*
%TD*%
%TO.C,H2*%
X156734749Y-44433251D03*
X149949000Y-47244000D03*
D15*
X153924000Y-47244000D03*
D14*
X153924000Y-43269000D03*
X153924000Y-51219000D03*
X151113251Y-44433251D03*
X156734749Y-50054749D03*
X151113251Y-50054749D03*
X157899000Y-47244000D03*
%TD*%
D16*
%TO.C,J4*%
X163830000Y-154178000D03*
X173990000Y-154178000D03*
X184150000Y-154178000D03*
X194310000Y-154178000D03*
%TD*%
D14*
%TO.C,H4*%
X239759251Y-50054749D03*
X242570000Y-43269000D03*
X246545000Y-47244000D03*
D15*
X242570000Y-47244000D03*
D14*
X239759251Y-44433251D03*
X245380749Y-50054749D03*
X245380749Y-44433251D03*
X242570000Y-51219000D03*
X238595000Y-47244000D03*
%TD*%
D16*
%TO.C,J8*%
X231648000Y-142240000D03*
X231648000Y-132080000D03*
X231648000Y-121920000D03*
X231648000Y-111760000D03*
%TD*%
%TO.C,J5*%
X233172000Y-47117000D03*
X223012000Y-47117000D03*
X212852000Y-47117000D03*
X202692000Y-47117000D03*
%TD*%
D17*
%TO.C,J2*%
X214667250Y-138252000D03*
X199667250Y-138252000D03*
D18*
X211667250Y-142192000D03*
D19*
X208667250Y-142192000D03*
X205667250Y-142192000D03*
X202667250Y-142192000D03*
X211667250Y-139192000D03*
X208667250Y-139192000D03*
X205667250Y-139192000D03*
X202667250Y-139192000D03*
%TD*%
M02*
