%TF.GenerationSoftware,KiCad,Pcbnew,(6.0.9)*%
%TF.CreationDate,2023-03-24T12:27:37+01:00*%
%TF.ProjectId,twoLevelInverter,74776f4c-6576-4656-9c49-6e7665727465,rev?*%
%TF.SameCoordinates,Original*%
%TF.FileFunction,Soldermask,Top*%
%TF.FilePolarity,Negative*%
%FSLAX46Y46*%
G04 Gerber Fmt 4.6, Leading zero omitted, Abs format (unit mm)*
G04 Created by KiCad (PCBNEW (6.0.9)) date 2023-03-24 12:27:37*
%MOMM*%
%LPD*%
G01*
G04 APERTURE LIST*
G04 Aperture macros list*
%AMRoundRect*
0 Rectangle with rounded corners*
0 $1 Rounding radius*
0 $2 $3 $4 $5 $6 $7 $8 $9 X,Y pos of 4 corners*
0 Add a 4 corners polygon primitive as box body*
4,1,4,$2,$3,$4,$5,$6,$7,$8,$9,$2,$3,0*
0 Add four circle primitives for the rounded corners*
1,1,$1+$1,$2,$3*
1,1,$1+$1,$4,$5*
1,1,$1+$1,$6,$7*
1,1,$1+$1,$8,$9*
0 Add four rect primitives between the rounded corners*
20,1,$1+$1,$2,$3,$4,$5,0*
20,1,$1+$1,$4,$5,$6,$7,0*
20,1,$1+$1,$6,$7,$8,$9,0*
20,1,$1+$1,$8,$9,$2,$3,0*%
G04 Aperture macros list end*
%ADD10RoundRect,0.243750X-0.243750X-0.456250X0.243750X-0.456250X0.243750X0.456250X-0.243750X0.456250X0*%
%ADD11RoundRect,0.243750X0.243750X0.456250X-0.243750X0.456250X-0.243750X-0.456250X0.243750X-0.456250X0*%
%ADD12R,1.800000X3.050000*%
%ADD13RoundRect,0.250000X0.650000X-0.325000X0.650000X0.325000X-0.650000X0.325000X-0.650000X-0.325000X0*%
%ADD14RoundRect,0.250000X-0.625000X0.312500X-0.625000X-0.312500X0.625000X-0.312500X0.625000X0.312500X0*%
%ADD15R,1.100000X1.100000*%
%ADD16C,1.100000*%
%ADD17R,0.700000X1.525000*%
%ADD18R,3.450000X2.560000*%
%ADD19RoundRect,0.250000X-0.650000X0.325000X-0.650000X-0.325000X0.650000X-0.325000X0.650000X0.325000X0*%
%ADD20R,0.650000X1.525000*%
%ADD21R,1.130000X1.130000*%
%ADD22C,1.130000*%
%ADD23C,0.900000*%
%ADD24C,10.600000*%
%ADD25C,1.950000*%
%ADD26RoundRect,0.250000X0.625000X-0.312500X0.625000X0.312500X-0.625000X0.312500X-0.625000X-0.312500X0*%
%ADD27C,0.001000*%
%ADD28R,1.600000X0.300000*%
%ADD29R,3.100000X1.600000*%
%ADD30R,1.600000X0.700000*%
%ADD31R,0.800000X4.600000*%
%ADD32R,10.800000X9.400000*%
%ADD33RoundRect,0.250000X-0.250000X-0.475000X0.250000X-0.475000X0.250000X0.475000X-0.250000X0.475000X0*%
%ADD34R,4.650000X2.050000*%
%ADD35RoundRect,0.250000X0.312500X0.625000X-0.312500X0.625000X-0.312500X-0.625000X0.312500X-0.625000X0*%
%ADD36RoundRect,0.250000X-0.325000X-0.650000X0.325000X-0.650000X0.325000X0.650000X-0.325000X0.650000X0*%
%ADD37R,2.900000X5.400000*%
%ADD38RoundRect,0.250000X-0.312500X-0.625000X0.312500X-0.625000X0.312500X0.625000X-0.312500X0.625000X0*%
%ADD39R,3.050000X1.800000*%
%ADD40R,1.500000X2.550000*%
%ADD41R,0.600000X0.450000*%
%ADD42R,1.520000X1.520000*%
%ADD43C,1.520000*%
G04 APERTURE END LIST*
D10*
%TO.C,U14*%
X224019500Y-66929000D03*
X225894500Y-66929000D03*
%TD*%
%TO.C,U1*%
X224019500Y-61722000D03*
X225894500Y-61722000D03*
%TD*%
D11*
%TO.C,D1*%
X225894500Y-56515000D03*
X224019500Y-56515000D03*
%TD*%
D12*
%TO.C,C16*%
X173228000Y-51717000D03*
X173228000Y-56917000D03*
%TD*%
D13*
%TO.C,C11*%
X195580000Y-61439000D03*
X195580000Y-64389000D03*
%TD*%
D14*
%TO.C,R15*%
X206502000Y-95119000D03*
X206502000Y-98044000D03*
%TD*%
D15*
%TO.C,C19*%
X218400000Y-74168000D03*
D16*
X215900000Y-74168000D03*
%TD*%
D13*
%TO.C,C12*%
X193040000Y-64389000D03*
X193040000Y-61439000D03*
%TD*%
D17*
%TO.C,IC1*%
X186563000Y-64434000D03*
X187833000Y-64434000D03*
X189103000Y-64434000D03*
X190373000Y-64434000D03*
X190373000Y-59010000D03*
X189103000Y-59010000D03*
X187833000Y-59010000D03*
X186563000Y-59010000D03*
D18*
X188468000Y-61722000D03*
%TD*%
D19*
%TO.C,C6*%
X178045200Y-94867000D03*
X178045200Y-97817000D03*
%TD*%
D13*
%TO.C,R18*%
X184150000Y-64516000D03*
X184150000Y-61566000D03*
%TD*%
D19*
%TO.C,C15*%
X179959000Y-54483000D03*
X179959000Y-57433000D03*
%TD*%
D20*
%TO.C,IC2*%
X158623000Y-128319000D03*
X159893000Y-128319000D03*
X161163000Y-128319000D03*
X162433000Y-128319000D03*
X162433000Y-122895000D03*
X161163000Y-122895000D03*
X159893000Y-122895000D03*
X158623000Y-122895000D03*
%TD*%
D14*
%TO.C,R12*%
X193802000Y-95119000D03*
X193802000Y-98044000D03*
%TD*%
D21*
%TO.C,IC8*%
X218346000Y-87630000D03*
D22*
X218346000Y-85090000D03*
X218346000Y-82550000D03*
X218346000Y-80010000D03*
X210406000Y-80010000D03*
X210406000Y-82550000D03*
X210406000Y-85090000D03*
X210406000Y-87630000D03*
%TD*%
D23*
%TO.C,H3*%
X245380749Y-151113251D03*
X245380749Y-156734749D03*
X239759251Y-156734749D03*
D24*
X242570000Y-153924000D03*
D23*
X238595000Y-153924000D03*
X242570000Y-157899000D03*
X242570000Y-149949000D03*
X246545000Y-153924000D03*
X239759251Y-151113251D03*
%TD*%
D25*
%TO.C,J3*%
X242570000Y-142240000D03*
X242570000Y-132080000D03*
X242570000Y-121920000D03*
X242570000Y-111760000D03*
%TD*%
D14*
%TO.C,R13*%
X201422000Y-95119000D03*
X201422000Y-98044000D03*
%TD*%
%TO.C,R14*%
X203962000Y-95119000D03*
X203962000Y-98044000D03*
%TD*%
D26*
%TO.C,R27*%
X222250000Y-126238000D03*
X222250000Y-123313000D03*
%TD*%
D27*
%TO.C,J1*%
X154178000Y-56904000D03*
X154178000Y-83304000D03*
D28*
X157228000Y-58354000D03*
X151128000Y-58354000D03*
X157228000Y-58854000D03*
X151128000Y-58854000D03*
X157228000Y-59354000D03*
X151128000Y-59354000D03*
X157228000Y-59854000D03*
X151128000Y-59854000D03*
X157228000Y-60354000D03*
X151128000Y-60354000D03*
X157228000Y-61854000D03*
X151128000Y-61854000D03*
X157228000Y-62354000D03*
X151128000Y-62354000D03*
X157228000Y-62854000D03*
X151128000Y-62854000D03*
X157228000Y-63354000D03*
X151128000Y-63354000D03*
X157228000Y-63854000D03*
X151128000Y-63854000D03*
X157228000Y-64354000D03*
X151128000Y-64354000D03*
X157228000Y-64854000D03*
X151128000Y-64854000D03*
X157228000Y-65354000D03*
X151128000Y-65354000D03*
X157228000Y-65854000D03*
X151128000Y-65854000D03*
X157228000Y-66354000D03*
X151128000Y-66354000D03*
X157228000Y-67854000D03*
X151128000Y-67854000D03*
X157228000Y-68354000D03*
X151128000Y-68354000D03*
X157228000Y-68854000D03*
X151128000Y-68854000D03*
X157228000Y-69354000D03*
X151128000Y-69354000D03*
X157228000Y-69854000D03*
X151128000Y-69854000D03*
X157228000Y-70354000D03*
X151128000Y-70354000D03*
X157228000Y-70854000D03*
X151128000Y-70854000D03*
X157228000Y-71354000D03*
X151128000Y-71354000D03*
X157228000Y-71854000D03*
X151128000Y-71854000D03*
X157228000Y-72354000D03*
X151128000Y-72354000D03*
X157228000Y-73854000D03*
X151128000Y-73854000D03*
X157228000Y-74354000D03*
X151128000Y-74354000D03*
X157228000Y-74854000D03*
X151128000Y-74854000D03*
X157228000Y-75354000D03*
X151128000Y-75354000D03*
X157228000Y-75854000D03*
X151128000Y-75854000D03*
X157228000Y-76354000D03*
X151128000Y-76354000D03*
X157228000Y-76854000D03*
X151128000Y-76854000D03*
X157228000Y-77354000D03*
X151128000Y-77354000D03*
X157228000Y-77854000D03*
X151128000Y-77854000D03*
X157228000Y-78354000D03*
X151128000Y-78354000D03*
X157228000Y-79854000D03*
X151128000Y-79854000D03*
X157228000Y-80354000D03*
X151128000Y-80354000D03*
X157228000Y-80854000D03*
X151128000Y-80854000D03*
X157228000Y-81354000D03*
X151128000Y-81354000D03*
X157228000Y-81854000D03*
X151128000Y-81854000D03*
D29*
X154178000Y-55154000D03*
D30*
X151128000Y-61104000D03*
X151128000Y-67104000D03*
X151128000Y-73104000D03*
X151128000Y-79104000D03*
D29*
X154178000Y-85054000D03*
D30*
X157228000Y-79104000D03*
X157228000Y-73104000D03*
X157228000Y-67104000D03*
X157228000Y-61104000D03*
%TD*%
D31*
%TO.C,IC3*%
X159004000Y-103372000D03*
X157734000Y-103372000D03*
X156464000Y-103372000D03*
X155194000Y-103372000D03*
X153924000Y-103372000D03*
X152654000Y-103372000D03*
X151384000Y-103372000D03*
D32*
X155194000Y-112522000D03*
%TD*%
D33*
%TO.C,L2*%
X213614000Y-93726000D03*
X215514000Y-93726000D03*
%TD*%
D34*
%TO.C,C9*%
X201994000Y-61087000D03*
X209994000Y-61087000D03*
%TD*%
D35*
%TO.C,R25*%
X233172000Y-104140000D03*
X230247000Y-104140000D03*
%TD*%
D14*
%TO.C,R10*%
X185928000Y-94859500D03*
X185928000Y-97784500D03*
%TD*%
D36*
%TO.C,C14*%
X181610000Y-67310000D03*
X178660000Y-67310000D03*
%TD*%
D14*
%TO.C,R8*%
X180438800Y-94867000D03*
X180438800Y-97792000D03*
%TD*%
D37*
%TO.C,L1*%
X189862000Y-47498000D03*
X179962000Y-47498000D03*
%TD*%
D20*
%TO.C,IC4*%
X179197000Y-128442000D03*
X180467000Y-128442000D03*
X181737000Y-128442000D03*
X183007000Y-128442000D03*
X183007000Y-123018000D03*
X181737000Y-123018000D03*
X180467000Y-123018000D03*
X179197000Y-123018000D03*
%TD*%
D14*
%TO.C,R24*%
X218694000Y-123313000D03*
X218694000Y-126238000D03*
%TD*%
%TO.C,R5*%
X165481000Y-94611000D03*
X165481000Y-97536000D03*
%TD*%
D38*
%TO.C,R1*%
X218501500Y-56515000D03*
X221426500Y-56515000D03*
%TD*%
D14*
%TO.C,R28*%
X224790000Y-123313000D03*
X224790000Y-126238000D03*
%TD*%
D39*
%TO.C,C18*%
X204350000Y-73914000D03*
X209550000Y-73914000D03*
%TD*%
D19*
%TO.C,C4*%
X185674000Y-123952000D03*
X185674000Y-126902000D03*
%TD*%
D26*
%TO.C,R6*%
X156210000Y-124206000D03*
X156210000Y-127131000D03*
%TD*%
D23*
%TO.C,H1*%
X156734749Y-156734749D03*
X149949000Y-153924000D03*
X156734749Y-151113251D03*
X153924000Y-157899000D03*
X157899000Y-153924000D03*
X151113251Y-156734749D03*
D24*
X153924000Y-153924000D03*
D23*
X151113251Y-151113251D03*
X153924000Y-149949000D03*
%TD*%
D35*
%TO.C,U15*%
X218501500Y-66929000D03*
X221426500Y-66929000D03*
%TD*%
D19*
%TO.C,C7*%
X206248000Y-127172000D03*
X206248000Y-124222000D03*
%TD*%
D23*
%TO.C,H2*%
X156734749Y-44433251D03*
X149949000Y-47244000D03*
D24*
X153924000Y-47244000D03*
D23*
X153924000Y-43269000D03*
X153924000Y-51219000D03*
X151113251Y-44433251D03*
X156734749Y-50054749D03*
X151113251Y-50054749D03*
X157899000Y-47244000D03*
%TD*%
D13*
%TO.C,C13*%
X193548000Y-57912000D03*
X193548000Y-54962000D03*
%TD*%
D26*
%TO.C,R23*%
X216154000Y-126238000D03*
X216154000Y-123313000D03*
%TD*%
%TO.C,R19*%
X210058000Y-126238000D03*
X210058000Y-123313000D03*
%TD*%
D19*
%TO.C,C8*%
X196342000Y-95119000D03*
X196342000Y-98069000D03*
%TD*%
D25*
%TO.C,J4*%
X163830000Y-154178000D03*
X173990000Y-154178000D03*
X184150000Y-154178000D03*
X194310000Y-154178000D03*
%TD*%
D14*
%TO.C,R7*%
X173228000Y-94859500D03*
X173228000Y-97784500D03*
%TD*%
D31*
%TO.C,IC7*%
X200152000Y-103626000D03*
X198882000Y-103626000D03*
X197612000Y-103626000D03*
X196342000Y-103626000D03*
X195072000Y-103626000D03*
X193802000Y-103626000D03*
X192532000Y-103626000D03*
D32*
X196342000Y-112776000D03*
%TD*%
D23*
%TO.C,H4*%
X239759251Y-50054749D03*
X242570000Y-43269000D03*
X246545000Y-47244000D03*
D24*
X242570000Y-47244000D03*
D23*
X239759251Y-44433251D03*
X245380749Y-50054749D03*
X245380749Y-44433251D03*
X242570000Y-51219000D03*
X238595000Y-47244000D03*
%TD*%
D14*
%TO.C,R20*%
X212598000Y-123313000D03*
X212598000Y-126238000D03*
%TD*%
D25*
%TO.C,J8*%
X231648000Y-142240000D03*
X231648000Y-132080000D03*
X231648000Y-121920000D03*
X231648000Y-111760000D03*
%TD*%
D14*
%TO.C,R9*%
X182802400Y-94859500D03*
X182802400Y-97784500D03*
%TD*%
D25*
%TO.C,J5*%
X233172000Y-47117000D03*
X223012000Y-47117000D03*
X212852000Y-47117000D03*
X202692000Y-47117000D03*
%TD*%
D19*
%TO.C,C1*%
X165354000Y-124083000D03*
X165354000Y-127033000D03*
%TD*%
D38*
%TO.C,R26*%
X233172000Y-106680000D03*
X230247000Y-106680000D03*
%TD*%
D26*
%TO.C,R16*%
X197485000Y-127049000D03*
X197485000Y-124124000D03*
%TD*%
D35*
%TO.C,R21*%
X230247000Y-100584000D03*
X233172000Y-100584000D03*
%TD*%
D40*
%TO.C,D3*%
X207264000Y-86858000D03*
X207264000Y-83058000D03*
%TD*%
D35*
%TO.C,U2*%
X221426500Y-61722000D03*
X218501500Y-61722000D03*
%TD*%
D14*
%TO.C,R3*%
X160601400Y-94611000D03*
X160601400Y-97536000D03*
%TD*%
D20*
%TO.C,IC6*%
X199771000Y-128360000D03*
X201041000Y-128360000D03*
X202311000Y-128360000D03*
X203581000Y-128360000D03*
X203581000Y-122936000D03*
X202311000Y-122936000D03*
X201041000Y-122936000D03*
X199771000Y-122936000D03*
%TD*%
D26*
%TO.C,R11*%
X176784000Y-127131000D03*
X176784000Y-124206000D03*
%TD*%
D41*
%TO.C,D2*%
X189518000Y-55372000D03*
X187418000Y-55372000D03*
%TD*%
D27*
%TO.C,J2*%
X214667250Y-138252000D03*
X199667250Y-138252000D03*
D42*
X211667250Y-142192000D03*
D43*
X208667250Y-142192000D03*
X205667250Y-142192000D03*
X202667250Y-142192000D03*
X211667250Y-139192000D03*
X208667250Y-139192000D03*
X205667250Y-139192000D03*
X202667250Y-139192000D03*
%TD*%
D14*
%TO.C,R2*%
X153162000Y-94611000D03*
X153162000Y-97536000D03*
%TD*%
D36*
%TO.C,C17*%
X212979000Y-90678000D03*
X215929000Y-90678000D03*
%TD*%
D38*
%TO.C,R22*%
X230247000Y-98044000D03*
X233172000Y-98044000D03*
%TD*%
D14*
%TO.C,R4*%
X163041200Y-94611000D03*
X163041200Y-97536000D03*
%TD*%
D32*
%TO.C,IC5*%
X175768000Y-112776000D03*
D31*
X171958000Y-103626000D03*
X173228000Y-103626000D03*
X174498000Y-103626000D03*
X175768000Y-103626000D03*
X177038000Y-103626000D03*
X178308000Y-103626000D03*
X179578000Y-103626000D03*
%TD*%
D36*
%TO.C,R17*%
X178660000Y-64699000D03*
X181610000Y-64699000D03*
%TD*%
D19*
%TO.C,C3*%
X158131600Y-94618500D03*
X158131600Y-97568500D03*
%TD*%
%TO.C,C10*%
X198882000Y-95119000D03*
X198882000Y-98069000D03*
%TD*%
%TO.C,C2*%
X155631800Y-94618500D03*
X155631800Y-97568500D03*
%TD*%
%TO.C,C5*%
X175621600Y-97817000D03*
X175621600Y-94867000D03*
%TD*%
M02*
