M48
; DRILL file {KiCad (6.0.9)} date Fri Mar 24 12:27:36 2023
; FORMAT={-:-/ absolute / metric / decimal}
; #@! TF.CreationDate,2023-03-24T12:27:36+01:00
; #@! TF.GenerationSoftware,Kicad,Pcbnew,(6.0.9)
; #@! TF.FileFunction,MixedPlating,1,4
FMAT,2
METRIC
; #@! TA.AperFunction,Plated,PTH,ViaDrill
T1C0.400
; #@! TA.AperFunction,Plated,PTH,ComponentDrill
T2C0.600
; #@! TA.AperFunction,Plated,PTH,ComponentDrill
T3C0.700
; #@! TA.AperFunction,Plated,PTH,ComponentDrill
T4C0.730
; #@! TA.AperFunction,Plated,PTH,ComponentDrill
T5C1.020
; #@! TA.AperFunction,Plated,PTH,ComponentDrill
T6C1.300
; #@! TA.AperFunction,Plated,PTH,ComponentDrill
T7C5.300
; #@! TA.AperFunction,NonPlated,NPTH,ComponentDrill
T8C1.020
; #@! TA.AperFunction,NonPlated,NPTH,ComponentDrill
T9C1.100
; #@! TA.AperFunction,NonPlated,NPTH,ComponentDrill
T10C1.200
%
G90
G05
T1
X148.844Y-106.172
X149.098Y-100.076
X149.352Y-102.362
X149.352Y-104.394
X150.622Y-106.172
X151.13Y-100.076
X153.162Y-92.456
X155.448Y-80.264
X155.702Y-92.456
X158.242Y-92.456
X159.512Y-62.604
X159.766Y-64.516
X160.528Y-92.456
X160.528Y-101.6
X160.528Y-103.632
X160.528Y-105.41
X161.544Y-145.542
X161.544Y-147.828
X161.544Y-150.368
X161.544Y-156.21
X161.544Y-158.496
X161.798Y-74.676
X162.052Y-101.6
X162.052Y-103.632
X162.052Y-105.41
X163.068Y-121.412
X163.322Y-101.6
X163.322Y-103.632
X163.322Y-105.41
X163.576Y-145.542
X163.576Y-147.828
X163.576Y-150.368
X163.576Y-156.21
X163.576Y-158.496
X164.062Y-79.27
X164.084Y-128.27
X164.084Y-129.54
X165.608Y-145.542
X165.608Y-147.828
X165.608Y-150.368
X165.608Y-156.21
X165.608Y-158.496
X166.116Y-128.27
X166.116Y-129.54
X166.636Y-92.202
X167.386Y-86.36
X168.148Y-80.264
X168.91Y-97.015
X169.164Y-99.568
X169.164Y-101.6
X169.164Y-106.172
X169.418Y-103.886
X170.18Y-123.444
X170.476Y-80.35
X170.688Y-102.616
X170.942Y-56.642
X170.942Y-99.568
X171.196Y-60.071
X171.196Y-62.611
X171.196Y-106.426
X171.45Y-149.352
X171.45Y-151.638
X171.45Y-156.464
X171.45Y-158.242
X173.228Y-92.71
X173.736Y-60.071
X173.736Y-62.611
X173.99Y-149.352
X173.99Y-151.638
X173.99Y-156.464
X173.99Y-158.242
X175.514Y-92.71
X176.022Y-56.769
X176.276Y-60.071
X176.276Y-62.611
X176.276Y-149.352
X176.276Y-151.638
X176.276Y-156.464
X176.276Y-158.242
X176.453Y-80.341
X178.054Y-92.71
X178.816Y-60.071
X178.816Y-62.611
X180.34Y-92.71
X180.34Y-121.158
X180.848Y-101.854
X180.848Y-103.886
X180.848Y-105.664
X181.356Y-60.071
X181.356Y-62.611
X182.118Y-152.4
X182.372Y-101.854
X182.372Y-103.886
X182.372Y-105.664
X182.372Y-156.972
X182.372Y-158.496
X182.88Y-121.412
X183.642Y-101.854
X183.642Y-103.886
X183.642Y-105.664
X184.404Y-56.261
X184.404Y-58.801
X184.404Y-152.4
X184.658Y-128.27
X184.658Y-129.794
X184.658Y-156.972
X184.658Y-158.496
X186.436Y-152.4
X186.69Y-128.27
X186.69Y-129.794
X186.69Y-156.972
X186.69Y-158.496
X187.96Y-57.15
X187.96Y-93.726
X188.468Y-123.444
X188.771Y-87.581
X189.484Y-101.346
X189.484Y-103.886
X189.484Y-106.172
X189.738Y-99.568
X191.135Y-61.468
X191.262Y-104.394
X191.389Y-64.643
X191.516Y-101.346
X191.77Y-78.74
X191.77Y-81.28
X191.77Y-83.82
X191.77Y-86.36
X191.77Y-88.9
X191.77Y-99.568
X192.024Y-106.426
X193.548Y-59.563
X194.31Y-78.74
X194.31Y-81.28
X194.31Y-83.82
X194.31Y-86.36
X194.31Y-88.9
X196.342Y-96.52
X196.85Y-78.74
X196.85Y-81.28
X196.85Y-83.82
X196.85Y-86.36
X196.85Y-88.9
X197.231Y-61.468
X198.882Y-96.52
X199.39Y-78.74
X199.39Y-81.28
X199.39Y-83.82
X199.39Y-86.36
X199.39Y-88.9
X200.66Y-121.158
X201.422Y-96.52
X201.422Y-101.854
X201.422Y-103.886
X201.422Y-105.664
X201.93Y-57.912
X201.93Y-78.74
X201.93Y-81.28
X201.93Y-83.82
X201.93Y-86.36
X201.93Y-88.9
X202.946Y-101.854
X202.946Y-103.886
X202.946Y-105.664
X203.454Y-121.412
X204.216Y-101.854
X204.216Y-103.886
X204.216Y-105.664
X204.47Y-78.74
X204.47Y-81.28
X204.47Y-83.82
X204.47Y-86.36
X204.47Y-88.9
X204.978Y-128.524
X204.978Y-129.794
X205.795Y-91.935
X206.502Y-91.186
X207.264Y-128.524
X207.264Y-129.794
X208.28Y-49.911
X208.28Y-52.451
X208.28Y-54.991
X208.28Y-57.531
X209.55Y-118.364
X210.058Y-127.762
X210.82Y-52.451
X210.82Y-54.991
X210.82Y-57.531
X211.074Y-49.911
X212.598Y-129.286
X213.36Y-49.911
X213.36Y-52.451
X213.36Y-54.991
X213.36Y-57.531
X216.154Y-118.364
X216.154Y-127.762
X217.17Y-56.642
X217.617Y-63.5
X217.617Y-65.151
X217.998Y-68.58
X218.694Y-129.286
X221.234Y-98.044
X221.234Y-104.14
X222.25Y-118.364
X222.25Y-127.762
X224.79Y-129.286
X234.95Y-98.044
X234.95Y-106.68
T2
X149.949Y-47.244
X149.949Y-153.924
X151.113Y-44.433
X151.113Y-50.055
X151.113Y-151.113
X151.113Y-156.735
X153.924Y-43.269
X153.924Y-51.219
X153.924Y-149.949
X153.924Y-157.899
X156.735Y-44.433
X156.735Y-50.055
X156.735Y-151.113
X156.735Y-156.735
X157.899Y-47.244
X157.899Y-153.924
X238.595Y-47.244
X238.595Y-153.924
X239.759Y-44.433
X239.759Y-50.055
X239.759Y-151.113
X239.759Y-156.735
X242.57Y-43.269
X242.57Y-51.219
X242.57Y-149.949
X242.57Y-157.899
X245.381Y-44.433
X245.381Y-50.055
X245.381Y-151.113
X245.381Y-156.735
X246.545Y-47.244
X246.545Y-153.924
T3
X215.9Y-74.168
X218.4Y-74.168
T4
X210.406Y-80.01
X210.406Y-82.55
X210.406Y-85.09
X210.406Y-87.63
X218.346Y-80.01
X218.346Y-82.55
X218.346Y-85.09
X218.346Y-87.63
T5
X202.667Y-139.192
X202.667Y-142.192
X205.667Y-139.192
X205.667Y-142.192
X208.667Y-139.192
X208.667Y-142.192
X211.667Y-139.192
X211.667Y-142.192
T6
X163.83Y-154.178
X173.99Y-154.178
X184.15Y-154.178
X194.31Y-154.178
X202.692Y-47.117
X212.852Y-47.117
X223.012Y-47.117
X231.648Y-111.76
X231.648Y-121.92
X231.648Y-132.08
X231.648Y-142.24
X233.172Y-47.117
X242.57Y-111.76
X242.57Y-121.92
X242.57Y-132.08
X242.57Y-142.24
T7
X153.924Y-47.244
X153.924Y-153.924
X242.57Y-47.244
X242.57Y-153.924
T8
X199.667Y-138.252
X214.667Y-138.252
T9
X154.178Y-56.904
T10
X154.178Y-83.304
T0
M30
