%TF.GenerationSoftware,KiCad,Pcbnew,(6.0.9)*%
%TF.CreationDate,2023-03-24T12:27:37+01:00*%
%TF.ProjectId,twoLevelInverter,74776f4c-6576-4656-9c49-6e7665727465,rev?*%
%TF.SameCoordinates,Original*%
%TF.FileFunction,Copper,L1,Top*%
%TF.FilePolarity,Positive*%
%FSLAX46Y46*%
G04 Gerber Fmt 4.6, Leading zero omitted, Abs format (unit mm)*
G04 Created by KiCad (PCBNEW (6.0.9)) date 2023-03-24 12:27:37*
%MOMM*%
%LPD*%
G01*
G04 APERTURE LIST*
G04 Aperture macros list*
%AMRoundRect*
0 Rectangle with rounded corners*
0 $1 Rounding radius*
0 $2 $3 $4 $5 $6 $7 $8 $9 X,Y pos of 4 corners*
0 Add a 4 corners polygon primitive as box body*
4,1,4,$2,$3,$4,$5,$6,$7,$8,$9,$2,$3,0*
0 Add four circle primitives for the rounded corners*
1,1,$1+$1,$2,$3*
1,1,$1+$1,$4,$5*
1,1,$1+$1,$6,$7*
1,1,$1+$1,$8,$9*
0 Add four rect primitives between the rounded corners*
20,1,$1+$1,$2,$3,$4,$5,0*
20,1,$1+$1,$4,$5,$6,$7,0*
20,1,$1+$1,$6,$7,$8,$9,0*
20,1,$1+$1,$8,$9,$2,$3,0*%
G04 Aperture macros list end*
%TA.AperFunction,SMDPad,CuDef*%
%ADD10RoundRect,0.243750X-0.243750X-0.456250X0.243750X-0.456250X0.243750X0.456250X-0.243750X0.456250X0*%
%TD*%
%TA.AperFunction,SMDPad,CuDef*%
%ADD11RoundRect,0.243750X0.243750X0.456250X-0.243750X0.456250X-0.243750X-0.456250X0.243750X-0.456250X0*%
%TD*%
%TA.AperFunction,SMDPad,CuDef*%
%ADD12R,1.800000X3.050000*%
%TD*%
%TA.AperFunction,SMDPad,CuDef*%
%ADD13RoundRect,0.250000X0.650000X-0.325000X0.650000X0.325000X-0.650000X0.325000X-0.650000X-0.325000X0*%
%TD*%
%TA.AperFunction,SMDPad,CuDef*%
%ADD14RoundRect,0.250000X-0.625000X0.312500X-0.625000X-0.312500X0.625000X-0.312500X0.625000X0.312500X0*%
%TD*%
%TA.AperFunction,ComponentPad*%
%ADD15R,1.100000X1.100000*%
%TD*%
%TA.AperFunction,ComponentPad*%
%ADD16C,1.100000*%
%TD*%
%TA.AperFunction,SMDPad,CuDef*%
%ADD17R,0.700000X1.525000*%
%TD*%
%TA.AperFunction,SMDPad,CuDef*%
%ADD18R,3.450000X2.560000*%
%TD*%
%TA.AperFunction,SMDPad,CuDef*%
%ADD19RoundRect,0.250000X-0.650000X0.325000X-0.650000X-0.325000X0.650000X-0.325000X0.650000X0.325000X0*%
%TD*%
%TA.AperFunction,SMDPad,CuDef*%
%ADD20R,0.650000X1.525000*%
%TD*%
%TA.AperFunction,ComponentPad*%
%ADD21R,1.130000X1.130000*%
%TD*%
%TA.AperFunction,ComponentPad*%
%ADD22C,1.130000*%
%TD*%
%TA.AperFunction,ComponentPad*%
%ADD23C,0.900000*%
%TD*%
%TA.AperFunction,ComponentPad*%
%ADD24C,10.600000*%
%TD*%
%TA.AperFunction,ComponentPad*%
%ADD25C,1.950000*%
%TD*%
%TA.AperFunction,SMDPad,CuDef*%
%ADD26RoundRect,0.250000X0.625000X-0.312500X0.625000X0.312500X-0.625000X0.312500X-0.625000X-0.312500X0*%
%TD*%
%TA.AperFunction,SMDPad,CuDef*%
%ADD27R,1.600000X0.300000*%
%TD*%
%TA.AperFunction,SMDPad,CuDef*%
%ADD28R,3.100000X1.600000*%
%TD*%
%TA.AperFunction,SMDPad,CuDef*%
%ADD29R,1.600000X0.700000*%
%TD*%
%TA.AperFunction,SMDPad,CuDef*%
%ADD30R,0.800000X4.600000*%
%TD*%
%TA.AperFunction,SMDPad,CuDef*%
%ADD31R,10.800000X9.400000*%
%TD*%
%TA.AperFunction,SMDPad,CuDef*%
%ADD32RoundRect,0.250000X-0.250000X-0.475000X0.250000X-0.475000X0.250000X0.475000X-0.250000X0.475000X0*%
%TD*%
%TA.AperFunction,SMDPad,CuDef*%
%ADD33R,4.650000X2.050000*%
%TD*%
%TA.AperFunction,SMDPad,CuDef*%
%ADD34RoundRect,0.250000X0.312500X0.625000X-0.312500X0.625000X-0.312500X-0.625000X0.312500X-0.625000X0*%
%TD*%
%TA.AperFunction,SMDPad,CuDef*%
%ADD35RoundRect,0.250000X-0.325000X-0.650000X0.325000X-0.650000X0.325000X0.650000X-0.325000X0.650000X0*%
%TD*%
%TA.AperFunction,SMDPad,CuDef*%
%ADD36R,2.900000X5.400000*%
%TD*%
%TA.AperFunction,SMDPad,CuDef*%
%ADD37RoundRect,0.250000X-0.312500X-0.625000X0.312500X-0.625000X0.312500X0.625000X-0.312500X0.625000X0*%
%TD*%
%TA.AperFunction,SMDPad,CuDef*%
%ADD38R,3.050000X1.800000*%
%TD*%
%TA.AperFunction,SMDPad,CuDef*%
%ADD39R,1.500000X2.550000*%
%TD*%
%TA.AperFunction,SMDPad,CuDef*%
%ADD40R,0.600000X0.450000*%
%TD*%
%TA.AperFunction,ComponentPad*%
%ADD41R,1.520000X1.520000*%
%TD*%
%TA.AperFunction,ComponentPad*%
%ADD42C,1.520000*%
%TD*%
%TA.AperFunction,ViaPad*%
%ADD43C,0.800000*%
%TD*%
%TA.AperFunction,Conductor*%
%ADD44C,0.500000*%
%TD*%
%TA.AperFunction,Conductor*%
%ADD45C,0.300000*%
%TD*%
%TA.AperFunction,Conductor*%
%ADD46C,0.800000*%
%TD*%
%TA.AperFunction,Conductor*%
%ADD47C,0.250000*%
%TD*%
G04 APERTURE END LIST*
D10*
%TO.P,U14,1,K*%
%TO.N,Net-(U14-Pad1)*%
X224019500Y-66929000D03*
%TO.P,U14,2,A*%
%TO.N,+3V3*%
X225894500Y-66929000D03*
%TD*%
%TO.P,U1,1,K*%
%TO.N,Net-(U1-Pad1)*%
X224019500Y-61722000D03*
%TO.P,U1,2,A*%
%TO.N,+5V*%
X225894500Y-61722000D03*
%TD*%
D11*
%TO.P,D1,1,K*%
%TO.N,GND*%
X225894500Y-56515000D03*
%TO.P,D1,2,A*%
%TO.N,Net-(D1-Pad2)*%
X224019500Y-56515000D03*
%TD*%
D12*
%TO.P,C16,1*%
%TO.N,+5V*%
X173228000Y-51717000D03*
%TO.P,C16,2*%
%TO.N,GND*%
X173228000Y-56917000D03*
%TD*%
D13*
%TO.P,C11,2*%
%TO.N,GND*%
X195580000Y-61439000D03*
%TO.P,C11,1*%
%TO.N,+24V*%
X195580000Y-64389000D03*
%TD*%
D14*
%TO.P,R15,1*%
%TO.N,/HB3_IN*%
X206502000Y-95119000D03*
%TO.P,R15,2*%
%TO.N,Net-(IC7-Pad2)*%
X206502000Y-98044000D03*
%TD*%
D15*
%TO.P,C19,1*%
%TO.N,+3V3*%
X218400000Y-74168000D03*
D16*
%TO.P,C19,2*%
%TO.N,GND*%
X215900000Y-74168000D03*
%TD*%
D13*
%TO.P,C12,1*%
%TO.N,+24V*%
X193040000Y-64389000D03*
%TO.P,C12,2*%
%TO.N,GND*%
X193040000Y-61439000D03*
%TD*%
D17*
%TO.P,IC1,1,FB*%
%TO.N,Net-(C14-Pad2)*%
X186563000Y-64434000D03*
%TO.P,IC1,2,NC*%
%TO.N,unconnected-(IC1-Pad2)*%
X187833000Y-64434000D03*
%TO.P,IC1,3,VIN*%
%TO.N,+24V*%
X189103000Y-64434000D03*
%TO.P,IC1,4,BST*%
%TO.N,Net-(C13-Pad1)*%
X190373000Y-64434000D03*
%TO.P,IC1,5,SW*%
%TO.N,Net-(C13-Pad2)*%
X190373000Y-59010000D03*
%TO.P,IC1,6,DIM*%
%TO.N,/EN_5V*%
X189103000Y-59010000D03*
%TO.P,IC1,7,EN*%
X187833000Y-59010000D03*
%TO.P,IC1,8,GND*%
%TO.N,GND*%
X186563000Y-59010000D03*
D18*
%TO.P,IC1,9,EP*%
X188468000Y-61722000D03*
%TD*%
D19*
%TO.P,C6,1*%
%TO.N,GND*%
X178045200Y-94867000D03*
%TO.P,C6,2*%
%TO.N,Net-(C6-Pad2)*%
X178045200Y-97817000D03*
%TD*%
D13*
%TO.P,R18,1*%
%TO.N,Net-(C14-Pad2)*%
X184150000Y-64516000D03*
%TO.P,R18,2*%
%TO.N,GND*%
X184150000Y-61566000D03*
%TD*%
D19*
%TO.P,C15,1*%
%TO.N,+5V*%
X179959000Y-54483000D03*
%TO.P,C15,2*%
%TO.N,GND*%
X179959000Y-57433000D03*
%TD*%
D20*
%TO.P,IC2,1,IN-*%
%TO.N,/Phase_A*%
X158623000Y-128319000D03*
%TO.P,IC2,2,GND*%
%TO.N,GND*%
X159893000Y-128319000D03*
%TO.P,IC2,3,REF2*%
X161163000Y-128319000D03*
%TO.P,IC2,4,NC*%
%TO.N,unconnected-(IC2-Pad4)*%
X162433000Y-128319000D03*
%TO.P,IC2,5,OUT*%
%TO.N,/current_A*%
X162433000Y-122895000D03*
%TO.P,IC2,6,VS*%
%TO.N,+3V3*%
X161163000Y-122895000D03*
%TO.P,IC2,7,REF1*%
X159893000Y-122895000D03*
%TO.P,IC2,8,IN+*%
%TO.N,/driver/HB1_OUT*%
X158623000Y-122895000D03*
%TD*%
D14*
%TO.P,R12,1*%
%TO.N,GND*%
X193802000Y-95119000D03*
%TO.P,R12,2*%
%TO.N,/HB3_IS*%
X193802000Y-98044000D03*
%TD*%
D21*
%TO.P,IC8,1,CB*%
%TO.N,Net-(C17-Pad2)*%
X218346000Y-87630000D03*
D22*
%TO.P,IC8,2,NC_1*%
%TO.N,unconnected-(IC8-Pad2)*%
X218346000Y-85090000D03*
%TO.P,IC8,3,NC_2*%
%TO.N,unconnected-(IC8-Pad3)*%
X218346000Y-82550000D03*
%TO.P,IC8,4,FB*%
%TO.N,+3V3*%
X218346000Y-80010000D03*
%TO.P,IC8,5,ON/~{OFF}*%
%TO.N,unconnected-(IC8-Pad5)*%
X210406000Y-80010000D03*
%TO.P,IC8,6,GND*%
%TO.N,GND*%
X210406000Y-82550000D03*
%TO.P,IC8,7,VIN*%
%TO.N,+24V*%
X210406000Y-85090000D03*
%TO.P,IC8,8,VSW*%
%TO.N,Net-(C17-Pad1)*%
X210406000Y-87630000D03*
%TD*%
D23*
%TO.P,H3,1,1*%
%TO.N,GND*%
X245380749Y-151113251D03*
X245380749Y-156734749D03*
X239759251Y-156734749D03*
D24*
X242570000Y-153924000D03*
D23*
X238595000Y-153924000D03*
X242570000Y-157899000D03*
X242570000Y-149949000D03*
X246545000Y-153924000D03*
X239759251Y-151113251D03*
%TD*%
D25*
%TO.P,J3,1,Pin_1*%
%TO.N,/B_1*%
X242570000Y-142240000D03*
%TO.P,J3,2,Pin_2*%
%TO.N,/A_1*%
X242570000Y-132080000D03*
%TO.P,J3,3,Pin_3*%
%TO.N,GND*%
X242570000Y-121920000D03*
%TO.P,J3,4,Pin_4*%
%TO.N,+5V*%
X242570000Y-111760000D03*
%TD*%
D14*
%TO.P,R13,1*%
%TO.N,GND*%
X201422000Y-95119000D03*
%TO.P,R13,2*%
%TO.N,Net-(C10-Pad2)*%
X201422000Y-98044000D03*
%TD*%
%TO.P,R14,1*%
%TO.N,/HB3_INH*%
X203962000Y-95119000D03*
%TO.P,R14,2*%
%TO.N,Net-(IC7-Pad3)*%
X203962000Y-98044000D03*
%TD*%
D26*
%TO.P,R27,1*%
%TO.N,/HALL_C*%
X222250000Y-126238000D03*
%TO.P,R27,2*%
%TO.N,/HALL_C_3V3*%
X222250000Y-123313000D03*
%TD*%
D27*
%TO.P,J1,1,1*%
%TO.N,unconnected-(J1-Pad1)*%
X157228000Y-58354000D03*
%TO.P,J1,2,2*%
%TO.N,unconnected-(J1-Pad2)*%
X151128000Y-58354000D03*
%TO.P,J1,3,3*%
%TO.N,unconnected-(J1-Pad3)*%
X157228000Y-58854000D03*
%TO.P,J1,4,4*%
%TO.N,unconnected-(J1-Pad4)*%
X151128000Y-58854000D03*
%TO.P,J1,5,5*%
%TO.N,unconnected-(J1-Pad5)*%
X157228000Y-59354000D03*
%TO.P,J1,6,6*%
%TO.N,unconnected-(J1-Pad6)*%
X151128000Y-59354000D03*
%TO.P,J1,7,7*%
%TO.N,/HB1_IS*%
X157228000Y-59854000D03*
%TO.P,J1,8,8*%
%TO.N,unconnected-(J1-Pad8)*%
X151128000Y-59854000D03*
%TO.P,J1,9,9*%
%TO.N,unconnected-(J1-Pad9)*%
X157228000Y-60354000D03*
%TO.P,J1,10,10*%
%TO.N,unconnected-(J1-Pad10)*%
X151128000Y-60354000D03*
%TO.P,J1,11,11*%
%TO.N,unconnected-(J1-Pad11)*%
X157228000Y-61854000D03*
%TO.P,J1,12,12*%
%TO.N,unconnected-(J1-Pad12)*%
X151128000Y-61854000D03*
%TO.P,J1,13,13*%
%TO.N,unconnected-(J1-Pad13)*%
X157228000Y-62354000D03*
%TO.P,J1,14,14*%
%TO.N,unconnected-(J1-Pad14)*%
X151128000Y-62354000D03*
%TO.P,J1,15,15*%
%TO.N,/HB2_IS*%
X157228000Y-62854000D03*
%TO.P,J1,16,16*%
%TO.N,unconnected-(J1-Pad16)*%
X151128000Y-62854000D03*
%TO.P,J1,17,17*%
%TO.N,/HB3_IS*%
X157228000Y-63354000D03*
%TO.P,J1,18,18*%
%TO.N,unconnected-(J1-Pad18)*%
X151128000Y-63354000D03*
%TO.P,J1,19,19*%
%TO.N,unconnected-(J1-Pad19)*%
X157228000Y-63854000D03*
%TO.P,J1,20,20*%
%TO.N,unconnected-(J1-Pad20)*%
X151128000Y-63854000D03*
%TO.P,J1,21,21*%
%TO.N,/current_C*%
X157228000Y-64354000D03*
%TO.P,J1,22,22*%
%TO.N,unconnected-(J1-Pad22)*%
X151128000Y-64354000D03*
%TO.P,J1,23,23*%
%TO.N,unconnected-(J1-Pad23)*%
X157228000Y-64854000D03*
%TO.P,J1,24,24*%
%TO.N,unconnected-(J1-Pad24)*%
X151128000Y-64854000D03*
%TO.P,J1,25,25*%
%TO.N,/A_1_3V3*%
X157228000Y-65354000D03*
%TO.P,J1,26,26*%
%TO.N,unconnected-(J1-Pad26)*%
X151128000Y-65354000D03*
%TO.P,J1,27,27*%
%TO.N,/B_1_3V3*%
X157228000Y-65854000D03*
%TO.P,J1,28,28*%
%TO.N,unconnected-(J1-Pad28)*%
X151128000Y-65854000D03*
%TO.P,J1,29,29*%
%TO.N,/HB3_IN*%
X157228000Y-66354000D03*
%TO.P,J1,30,30*%
%TO.N,unconnected-(J1-Pad30)*%
X151128000Y-66354000D03*
%TO.P,J1,31,31*%
%TO.N,unconnected-(J1-Pad31)*%
X157228000Y-67854000D03*
%TO.P,J1,32,32*%
%TO.N,unconnected-(J1-Pad32)*%
X151128000Y-67854000D03*
%TO.P,J1,33,33*%
%TO.N,/HB2_IN*%
X157228000Y-68354000D03*
%TO.P,J1,34,34*%
%TO.N,unconnected-(J1-Pad34)*%
X151128000Y-68354000D03*
%TO.P,J1,35,35*%
%TO.N,unconnected-(J1-Pad35)*%
X157228000Y-68854000D03*
%TO.P,J1,36,36*%
%TO.N,unconnected-(J1-Pad36)*%
X151128000Y-68854000D03*
%TO.P,J1,37,37*%
%TO.N,/HALL_C_3V3*%
X157228000Y-69354000D03*
%TO.P,J1,38,38*%
%TO.N,unconnected-(J1-Pad38)*%
X151128000Y-69354000D03*
%TO.P,J1,39,39*%
%TO.N,/current_B*%
X157228000Y-69854000D03*
%TO.P,J1,40,40*%
%TO.N,unconnected-(J1-Pad40)*%
X151128000Y-69854000D03*
%TO.P,J1,41,41*%
%TO.N,unconnected-(J1-Pad41)*%
X157228000Y-70354000D03*
%TO.P,J1,42,42*%
%TO.N,unconnected-(J1-Pad42)*%
X151128000Y-70354000D03*
%TO.P,J1,43,43*%
%TO.N,/HALL_B_3V3*%
X157228000Y-70854000D03*
%TO.P,J1,44,44*%
%TO.N,unconnected-(J1-Pad44)*%
X151128000Y-70854000D03*
%TO.P,J1,45,45*%
%TO.N,/current_A*%
X157228000Y-71354000D03*
%TO.P,J1,46,46*%
%TO.N,unconnected-(J1-Pad46)*%
X151128000Y-71354000D03*
%TO.P,J1,47,47*%
%TO.N,unconnected-(J1-Pad47)*%
X157228000Y-71854000D03*
%TO.P,J1,48,48*%
%TO.N,unconnected-(J1-Pad48)*%
X151128000Y-71854000D03*
%TO.P,J1,49,49*%
%TO.N,/HALL_A_3V3*%
X157228000Y-72354000D03*
%TO.P,J1,50,50*%
%TO.N,unconnected-(J1-Pad50)*%
X151128000Y-72354000D03*
%TO.P,J1,51,51*%
%TO.N,/HB1_IN*%
X157228000Y-73854000D03*
%TO.P,J1,52,52*%
%TO.N,unconnected-(J1-Pad52)*%
X151128000Y-73854000D03*
%TO.P,J1,53,53*%
%TO.N,unconnected-(J1-Pad53)*%
X157228000Y-74354000D03*
%TO.P,J1,54,54*%
%TO.N,unconnected-(J1-Pad54)*%
X151128000Y-74354000D03*
%TO.P,J1,55,55*%
%TO.N,unconnected-(J1-Pad55)*%
X157228000Y-74854000D03*
%TO.P,J1,56,56*%
%TO.N,unconnected-(J1-Pad56)*%
X151128000Y-74854000D03*
%TO.P,J1,57,57*%
%TO.N,unconnected-(J1-Pad57)*%
X157228000Y-75354000D03*
%TO.P,J1,58,58*%
%TO.N,unconnected-(J1-Pad58)*%
X151128000Y-75354000D03*
%TO.P,J1,59,59*%
%TO.N,unconnected-(J1-Pad59)*%
X157228000Y-75854000D03*
%TO.P,J1,60,60*%
%TO.N,unconnected-(J1-Pad60)*%
X151128000Y-75854000D03*
%TO.P,J1,61,61*%
%TO.N,unconnected-(J1-Pad61)*%
X157228000Y-76354000D03*
%TO.P,J1,62,62*%
%TO.N,unconnected-(J1-Pad62)*%
X151128000Y-76354000D03*
%TO.P,J1,63,63*%
%TO.N,unconnected-(J1-Pad63)*%
X157228000Y-76854000D03*
%TO.P,J1,64,64*%
%TO.N,unconnected-(J1-Pad64)*%
X151128000Y-76854000D03*
%TO.P,J1,65,65*%
%TO.N,unconnected-(J1-Pad65)*%
X157228000Y-77354000D03*
%TO.P,J1,66,66*%
%TO.N,unconnected-(J1-Pad66)*%
X151128000Y-77354000D03*
%TO.P,J1,67,67*%
%TO.N,unconnected-(J1-Pad67)*%
X157228000Y-77854000D03*
%TO.P,J1,68,68*%
%TO.N,unconnected-(J1-Pad68)*%
X151128000Y-77854000D03*
%TO.P,J1,69,69*%
%TO.N,unconnected-(J1-Pad69)*%
X157228000Y-78354000D03*
%TO.P,J1,70,70*%
%TO.N,unconnected-(J1-Pad70)*%
X151128000Y-78354000D03*
%TO.P,J1,71,71*%
%TO.N,unconnected-(J1-Pad71)*%
X157228000Y-79854000D03*
%TO.P,J1,72,72*%
%TO.N,unconnected-(J1-Pad72)*%
X151128000Y-79854000D03*
%TO.P,J1,73,73*%
%TO.N,/EN_5V*%
X157228000Y-80354000D03*
%TO.P,J1,74,74*%
%TO.N,unconnected-(J1-Pad74)*%
X151128000Y-80354000D03*
%TO.P,J1,75,75*%
%TO.N,/HB3_INH*%
X157228000Y-80854000D03*
%TO.P,J1,76,76*%
%TO.N,unconnected-(J1-Pad76)*%
X151128000Y-80854000D03*
%TO.P,J1,77,77*%
%TO.N,/HB2_INH*%
X157228000Y-81354000D03*
%TO.P,J1,78,78*%
%TO.N,unconnected-(J1-Pad78)*%
X151128000Y-81354000D03*
%TO.P,J1,79,79*%
%TO.N,/HB1_INH*%
X157228000Y-81854000D03*
%TO.P,J1,80,80*%
%TO.N,unconnected-(J1-Pad80)*%
X151128000Y-81854000D03*
D28*
%TO.P,J1,G1,G1*%
%TO.N,unconnected-(J1-PadG1)*%
X154178000Y-55154000D03*
D29*
%TO.P,J1,G2,G2*%
%TO.N,unconnected-(J1-PadG2)*%
X151128000Y-61104000D03*
%TO.P,J1,G3,G3*%
%TO.N,unconnected-(J1-PadG3)*%
X151128000Y-67104000D03*
%TO.P,J1,G4,G4*%
%TO.N,unconnected-(J1-PadG4)*%
X151128000Y-73104000D03*
%TO.P,J1,G5,G5*%
%TO.N,unconnected-(J1-PadG5)*%
X151128000Y-79104000D03*
D28*
%TO.P,J1,G6,G6*%
%TO.N,unconnected-(J1-PadG6)*%
X154178000Y-85054000D03*
D29*
%TO.P,J1,G7,G7*%
%TO.N,unconnected-(J1-PadG7)*%
X157228000Y-79104000D03*
%TO.P,J1,G8,G8*%
%TO.N,unconnected-(J1-PadG8)*%
X157228000Y-73104000D03*
%TO.P,J1,G9,G9*%
%TO.N,unconnected-(J1-PadG9)*%
X157228000Y-67104000D03*
%TO.P,J1,G10,G10*%
%TO.N,unconnected-(J1-PadG10)*%
X157228000Y-61104000D03*
%TD*%
D30*
%TO.P,IC3,1,GND*%
%TO.N,GND*%
X159004000Y-103372000D03*
%TO.P,IC3,2,IN*%
%TO.N,Net-(IC3-Pad2)*%
X157734000Y-103372000D03*
%TO.P,IC3,3,INH*%
%TO.N,Net-(IC3-Pad3)*%
X156464000Y-103372000D03*
%TO.P,IC3,4,OUT_1*%
%TO.N,unconnected-(IC3-Pad4)*%
X155194000Y-103372000D03*
%TO.P,IC3,5,SR*%
%TO.N,Net-(C3-Pad2)*%
X153924000Y-103372000D03*
%TO.P,IC3,6,IS*%
%TO.N,/HB1_IS*%
X152654000Y-103372000D03*
%TO.P,IC3,7,VS*%
%TO.N,+24V*%
X151384000Y-103372000D03*
D31*
%TO.P,IC3,8,OUT_2*%
%TO.N,/driver/HB1_OUT*%
X155194000Y-112522000D03*
%TD*%
D32*
%TO.P,L2,1*%
%TO.N,Net-(C17-Pad1)*%
X213614000Y-93726000D03*
%TO.P,L2,2*%
%TO.N,+3V3*%
X215514000Y-93726000D03*
%TD*%
D33*
%TO.P,C9,1*%
%TO.N,+24V*%
X201994000Y-61087000D03*
%TO.P,C9,2*%
%TO.N,GND*%
X209994000Y-61087000D03*
%TD*%
D34*
%TO.P,R25,1*%
%TO.N,/B_1*%
X233172000Y-104140000D03*
%TO.P,R25,2*%
%TO.N,/B_1_3V3*%
X230247000Y-104140000D03*
%TD*%
D14*
%TO.P,R10,1*%
%TO.N,/HB2_IN*%
X185928000Y-94859500D03*
%TO.P,R10,2*%
%TO.N,Net-(IC5-Pad2)*%
X185928000Y-97784500D03*
%TD*%
D35*
%TO.P,C14,2*%
%TO.N,Net-(C14-Pad2)*%
X181610000Y-67310000D03*
%TO.P,C14,1*%
%TO.N,+5V*%
X178660000Y-67310000D03*
%TD*%
D14*
%TO.P,R8,1*%
%TO.N,GND*%
X180438800Y-94867000D03*
%TO.P,R8,2*%
%TO.N,Net-(C6-Pad2)*%
X180438800Y-97792000D03*
%TD*%
D36*
%TO.P,L1,1*%
%TO.N,Net-(C13-Pad2)*%
X189862000Y-47498000D03*
%TO.P,L1,2*%
%TO.N,+5V*%
X179962000Y-47498000D03*
%TD*%
D20*
%TO.P,IC4,1,IN-*%
%TO.N,/Phase_B*%
X179197000Y-128442000D03*
%TO.P,IC4,2,GND*%
%TO.N,GND*%
X180467000Y-128442000D03*
%TO.P,IC4,3,REF2*%
X181737000Y-128442000D03*
%TO.P,IC4,4,NC*%
%TO.N,unconnected-(IC4-Pad4)*%
X183007000Y-128442000D03*
%TO.P,IC4,5,OUT*%
%TO.N,/current_B*%
X183007000Y-123018000D03*
%TO.P,IC4,6,VS*%
%TO.N,+3V3*%
X181737000Y-123018000D03*
%TO.P,IC4,7,REF1*%
X180467000Y-123018000D03*
%TO.P,IC4,8,IN+*%
%TO.N,/driver/HB2_OUT*%
X179197000Y-123018000D03*
%TD*%
D14*
%TO.P,R24,1*%
%TO.N,/HALL_B_3V3*%
X218694000Y-123313000D03*
%TO.P,R24,2*%
%TO.N,GND*%
X218694000Y-126238000D03*
%TD*%
%TO.P,R5,1*%
%TO.N,/HB1_IN*%
X165481000Y-94611000D03*
%TO.P,R5,2*%
%TO.N,Net-(IC3-Pad2)*%
X165481000Y-97536000D03*
%TD*%
D37*
%TO.P,R1,1*%
%TO.N,+24V*%
X218501500Y-56515000D03*
%TO.P,R1,2*%
%TO.N,Net-(D1-Pad2)*%
X221426500Y-56515000D03*
%TD*%
D14*
%TO.P,R28,1*%
%TO.N,/HALL_C_3V3*%
X224790000Y-123313000D03*
%TO.P,R28,2*%
%TO.N,GND*%
X224790000Y-126238000D03*
%TD*%
D38*
%TO.P,C18,1*%
%TO.N,+24V*%
X204350000Y-73914000D03*
%TO.P,C18,2*%
%TO.N,GND*%
X209550000Y-73914000D03*
%TD*%
D19*
%TO.P,C4,1*%
%TO.N,+3V3*%
X185674000Y-123952000D03*
%TO.P,C4,2*%
%TO.N,GND*%
X185674000Y-126902000D03*
%TD*%
D26*
%TO.P,R6,2*%
%TO.N,/driver/HB1_OUT*%
X156210000Y-124206000D03*
%TO.P,R6,1*%
%TO.N,/Phase_A*%
X156210000Y-127131000D03*
%TD*%
D23*
%TO.P,H1,1,1*%
%TO.N,GND*%
X156734749Y-156734749D03*
X149949000Y-153924000D03*
X156734749Y-151113251D03*
X153924000Y-157899000D03*
X157899000Y-153924000D03*
X151113251Y-156734749D03*
D24*
X153924000Y-153924000D03*
D23*
X151113251Y-151113251D03*
X153924000Y-149949000D03*
%TD*%
D34*
%TO.P,U15,2*%
%TO.N,GND*%
X218501500Y-66929000D03*
%TO.P,U15,1*%
%TO.N,Net-(U14-Pad1)*%
X221426500Y-66929000D03*
%TD*%
D19*
%TO.P,C7,2*%
%TO.N,GND*%
X206248000Y-127172000D03*
%TO.P,C7,1*%
%TO.N,+3V3*%
X206248000Y-124222000D03*
%TD*%
D23*
%TO.P,H2,1,1*%
%TO.N,GND*%
X156734749Y-44433251D03*
X149949000Y-47244000D03*
D24*
X153924000Y-47244000D03*
D23*
X153924000Y-43269000D03*
X153924000Y-51219000D03*
X151113251Y-44433251D03*
X156734749Y-50054749D03*
X151113251Y-50054749D03*
X157899000Y-47244000D03*
%TD*%
D13*
%TO.P,C13,1*%
%TO.N,Net-(C13-Pad1)*%
X193548000Y-57912000D03*
%TO.P,C13,2*%
%TO.N,Net-(C13-Pad2)*%
X193548000Y-54962000D03*
%TD*%
D26*
%TO.P,R23,1*%
%TO.N,/HALL_B*%
X216154000Y-126238000D03*
%TO.P,R23,2*%
%TO.N,/HALL_B_3V3*%
X216154000Y-123313000D03*
%TD*%
%TO.P,R19,1*%
%TO.N,/HALL_A*%
X210058000Y-126238000D03*
%TO.P,R19,2*%
%TO.N,/HALL_A_3V3*%
X210058000Y-123313000D03*
%TD*%
D19*
%TO.P,C8,1*%
%TO.N,GND*%
X196342000Y-95119000D03*
%TO.P,C8,2*%
%TO.N,/HB3_IS*%
X196342000Y-98069000D03*
%TD*%
D25*
%TO.P,J4,1,Pin_1*%
%TO.N,/Phase_A*%
X163830000Y-154178000D03*
%TO.P,J4,2,Pin_2*%
%TO.N,/Phase_B*%
X173990000Y-154178000D03*
%TO.P,J4,3,Pin_3*%
%TO.N,/Phase_C*%
X184150000Y-154178000D03*
%TO.P,J4,4,Pin_4*%
%TO.N,GND*%
X194310000Y-154178000D03*
%TD*%
D14*
%TO.P,R7,1*%
%TO.N,GND*%
X173228000Y-94859500D03*
%TO.P,R7,2*%
%TO.N,/HB2_IS*%
X173228000Y-97784500D03*
%TD*%
D30*
%TO.P,IC7,1,GND*%
%TO.N,GND*%
X200152000Y-103626000D03*
%TO.P,IC7,2,IN*%
%TO.N,Net-(IC7-Pad2)*%
X198882000Y-103626000D03*
%TO.P,IC7,3,INH*%
%TO.N,Net-(IC7-Pad3)*%
X197612000Y-103626000D03*
%TO.P,IC7,4,OUT_1*%
%TO.N,unconnected-(IC7-Pad4)*%
X196342000Y-103626000D03*
%TO.P,IC7,5,SR*%
%TO.N,Net-(C10-Pad2)*%
X195072000Y-103626000D03*
%TO.P,IC7,6,IS*%
%TO.N,/HB3_IS*%
X193802000Y-103626000D03*
%TO.P,IC7,7,VS*%
%TO.N,+24V*%
X192532000Y-103626000D03*
D31*
%TO.P,IC7,8,OUT_2*%
%TO.N,/driver/HB3_OUT*%
X196342000Y-112776000D03*
%TD*%
D23*
%TO.P,H4,1,1*%
%TO.N,GND*%
X239759251Y-50054749D03*
X242570000Y-43269000D03*
X246545000Y-47244000D03*
D24*
X242570000Y-47244000D03*
D23*
X239759251Y-44433251D03*
X245380749Y-50054749D03*
X245380749Y-44433251D03*
X242570000Y-51219000D03*
X238595000Y-47244000D03*
%TD*%
D14*
%TO.P,R20,1*%
%TO.N,/HALL_A_3V3*%
X212598000Y-123313000D03*
%TO.P,R20,2*%
%TO.N,GND*%
X212598000Y-126238000D03*
%TD*%
D25*
%TO.P,J8,1,Pin_1*%
%TO.N,/HALL_A*%
X231648000Y-142240000D03*
%TO.P,J8,2,Pin_2*%
%TO.N,/HALL_B*%
X231648000Y-132080000D03*
%TO.P,J8,3,Pin_3*%
%TO.N,/HALL_C*%
X231648000Y-121920000D03*
%TO.P,J8,4,Pin_4*%
%TO.N,+5V*%
X231648000Y-111760000D03*
%TD*%
D14*
%TO.P,R9,1*%
%TO.N,/HB2_INH*%
X182802400Y-94859500D03*
%TO.P,R9,2*%
%TO.N,Net-(IC5-Pad3)*%
X182802400Y-97784500D03*
%TD*%
D25*
%TO.P,J5,1,Pin_1*%
%TO.N,+5V*%
X233172000Y-47117000D03*
%TO.P,J5,2,Pin_2*%
%TO.N,+3V3*%
X223012000Y-47117000D03*
%TO.P,J5,3,Pin_3*%
%TO.N,GND*%
X212852000Y-47117000D03*
%TO.P,J5,4,Pin_4*%
%TO.N,+24V*%
X202692000Y-47117000D03*
%TD*%
D19*
%TO.P,C1,1*%
%TO.N,+3V3*%
X165354000Y-124083000D03*
%TO.P,C1,2*%
%TO.N,GND*%
X165354000Y-127033000D03*
%TD*%
D37*
%TO.P,R26,2*%
%TO.N,GND*%
X233172000Y-106680000D03*
%TO.P,R26,1*%
%TO.N,/B_1_3V3*%
X230247000Y-106680000D03*
%TD*%
D26*
%TO.P,R16,1*%
%TO.N,/Phase_C*%
X197485000Y-127049000D03*
%TO.P,R16,2*%
%TO.N,/driver/HB3_OUT*%
X197485000Y-124124000D03*
%TD*%
D34*
%TO.P,R21,2*%
%TO.N,/A_1_3V3*%
X230247000Y-100584000D03*
%TO.P,R21,1*%
%TO.N,/A_1*%
X233172000Y-100584000D03*
%TD*%
D39*
%TO.P,D3,1,K*%
%TO.N,Net-(C17-Pad1)*%
X207264000Y-86858000D03*
%TO.P,D3,2,A*%
%TO.N,GND*%
X207264000Y-83058000D03*
%TD*%
D34*
%TO.P,U2,1*%
%TO.N,Net-(U1-Pad1)*%
X221426500Y-61722000D03*
%TO.P,U2,2*%
%TO.N,GND*%
X218501500Y-61722000D03*
%TD*%
D14*
%TO.P,R3,1*%
%TO.N,GND*%
X160601400Y-94611000D03*
%TO.P,R3,2*%
%TO.N,Net-(C3-Pad2)*%
X160601400Y-97536000D03*
%TD*%
D20*
%TO.P,IC6,1,IN-*%
%TO.N,/Phase_C*%
X199771000Y-128360000D03*
%TO.P,IC6,2,GND*%
%TO.N,GND*%
X201041000Y-128360000D03*
%TO.P,IC6,3,REF2*%
X202311000Y-128360000D03*
%TO.P,IC6,4,NC*%
%TO.N,unconnected-(IC6-Pad4)*%
X203581000Y-128360000D03*
%TO.P,IC6,5,OUT*%
%TO.N,/current_C*%
X203581000Y-122936000D03*
%TO.P,IC6,6,VS*%
%TO.N,+3V3*%
X202311000Y-122936000D03*
%TO.P,IC6,7,REF1*%
X201041000Y-122936000D03*
%TO.P,IC6,8,IN+*%
%TO.N,/driver/HB3_OUT*%
X199771000Y-122936000D03*
%TD*%
D26*
%TO.P,R11,1*%
%TO.N,/Phase_B*%
X176784000Y-127131000D03*
%TO.P,R11,2*%
%TO.N,/driver/HB2_OUT*%
X176784000Y-124206000D03*
%TD*%
D40*
%TO.P,D2,1,K*%
%TO.N,Net-(C13-Pad2)*%
X189518000Y-55372000D03*
%TO.P,D2,2,A*%
%TO.N,GND*%
X187418000Y-55372000D03*
%TD*%
D41*
%TO.P,J2,1,1*%
%TO.N,/Phase_C*%
X211667250Y-142192000D03*
D42*
%TO.P,J2,2,2*%
%TO.N,/Phase_B*%
X208667250Y-142192000D03*
%TO.P,J2,3,3*%
%TO.N,/Phase_A*%
X205667250Y-142192000D03*
%TO.P,J2,4,4*%
%TO.N,GND*%
X202667250Y-142192000D03*
%TO.P,J2,5,5*%
%TO.N,/HALL_A*%
X211667250Y-139192000D03*
%TO.P,J2,6,6*%
%TO.N,/HALL_B*%
X208667250Y-139192000D03*
%TO.P,J2,7,7*%
%TO.N,/HALL_C*%
X205667250Y-139192000D03*
%TO.P,J2,8,8*%
%TO.N,+5V*%
X202667250Y-139192000D03*
%TD*%
D14*
%TO.P,R2,1*%
%TO.N,GND*%
X153162000Y-94611000D03*
%TO.P,R2,2*%
%TO.N,/HB1_IS*%
X153162000Y-97536000D03*
%TD*%
D35*
%TO.P,C17,1*%
%TO.N,Net-(C17-Pad1)*%
X212979000Y-90678000D03*
%TO.P,C17,2*%
%TO.N,Net-(C17-Pad2)*%
X215929000Y-90678000D03*
%TD*%
D37*
%TO.P,R22,1*%
%TO.N,/A_1_3V3*%
X230247000Y-98044000D03*
%TO.P,R22,2*%
%TO.N,GND*%
X233172000Y-98044000D03*
%TD*%
D14*
%TO.P,R4,1*%
%TO.N,/HB1_INH*%
X163041200Y-94611000D03*
%TO.P,R4,2*%
%TO.N,Net-(IC3-Pad3)*%
X163041200Y-97536000D03*
%TD*%
D31*
%TO.P,IC5,8,OUT_2*%
%TO.N,/driver/HB2_OUT*%
X175768000Y-112776000D03*
D30*
%TO.P,IC5,7,VS*%
%TO.N,+24V*%
X171958000Y-103626000D03*
%TO.P,IC5,6,IS*%
%TO.N,/HB2_IS*%
X173228000Y-103626000D03*
%TO.P,IC5,5,SR*%
%TO.N,Net-(C6-Pad2)*%
X174498000Y-103626000D03*
%TO.P,IC5,4,OUT_1*%
%TO.N,unconnected-(IC5-Pad4)*%
X175768000Y-103626000D03*
%TO.P,IC5,3,INH*%
%TO.N,Net-(IC5-Pad3)*%
X177038000Y-103626000D03*
%TO.P,IC5,2,IN*%
%TO.N,Net-(IC5-Pad2)*%
X178308000Y-103626000D03*
%TO.P,IC5,1,GND*%
%TO.N,GND*%
X179578000Y-103626000D03*
%TD*%
D35*
%TO.P,R17,1*%
%TO.N,+5V*%
X178660000Y-64699000D03*
%TO.P,R17,2*%
%TO.N,Net-(C14-Pad2)*%
X181610000Y-64699000D03*
%TD*%
D19*
%TO.P,C3,1*%
%TO.N,GND*%
X158131600Y-94618500D03*
%TO.P,C3,2*%
%TO.N,Net-(C3-Pad2)*%
X158131600Y-97568500D03*
%TD*%
%TO.P,C10,1*%
%TO.N,GND*%
X198882000Y-95119000D03*
%TO.P,C10,2*%
%TO.N,Net-(C10-Pad2)*%
X198882000Y-98069000D03*
%TD*%
%TO.P,C2,1*%
%TO.N,GND*%
X155631800Y-94618500D03*
%TO.P,C2,2*%
%TO.N,/HB1_IS*%
X155631800Y-97568500D03*
%TD*%
%TO.P,C5,2*%
%TO.N,/HB2_IS*%
X175621600Y-97817000D03*
%TO.P,C5,1*%
%TO.N,GND*%
X175621600Y-94867000D03*
%TD*%
D43*
%TO.N,/HB2_IS*%
X168910000Y-97015500D03*
X159512000Y-62604500D03*
%TO.N,/HB3_IS*%
X188771424Y-87580576D03*
X187960000Y-93726000D03*
%TO.N,/EN_5V*%
X187960000Y-57150000D03*
X155448000Y-80264000D03*
%TO.N,/HB3_INH*%
X164062023Y-79269977D03*
X176453129Y-80340871D03*
%TO.N,/Phase_C*%
X184658000Y-156972000D03*
X186690000Y-156972000D03*
X182372000Y-156972000D03*
X186436000Y-152400000D03*
X184658000Y-158496000D03*
X186690000Y-158496000D03*
X182118000Y-152400000D03*
X182372000Y-158496000D03*
X184404000Y-152400000D03*
%TO.N,/Phase_B*%
X176276000Y-151638000D03*
X176276000Y-158242000D03*
X171450000Y-156464000D03*
X173990000Y-158242000D03*
X176276000Y-149352000D03*
X176276000Y-156464000D03*
X171450000Y-151638000D03*
X173990000Y-156464000D03*
X171450000Y-149352000D03*
X173990000Y-151638000D03*
X171450000Y-158242000D03*
X173990000Y-149352000D03*
%TO.N,/Phase_A*%
X165608000Y-150368000D03*
X161544000Y-156210000D03*
X163576000Y-150368000D03*
X161544000Y-150368000D03*
X161544000Y-147828000D03*
X163576000Y-156210000D03*
X163576000Y-145542000D03*
X165608000Y-145542000D03*
X165608000Y-158496000D03*
X161544000Y-158496000D03*
X165608000Y-156210000D03*
X163576000Y-147828000D03*
X163576000Y-158496000D03*
X161544000Y-145542000D03*
X165608000Y-147828000D03*
%TO.N,/HALL_A*%
X210058000Y-127762000D03*
%TO.N,/HALL_B*%
X216154000Y-127762000D03*
%TO.N,/HALL_C*%
X222250000Y-127762000D03*
%TO.N,GND*%
X155702000Y-92456000D03*
X182372000Y-103886000D03*
X184658000Y-128270000D03*
X163322000Y-103632000D03*
X176276000Y-60071000D03*
X164084000Y-129540000D03*
X184404000Y-56261000D03*
X207264000Y-128524000D03*
X207264000Y-129794000D03*
X183642000Y-103886000D03*
X180340000Y-92710000D03*
X224790000Y-129286000D03*
X170942000Y-56642000D03*
X166116000Y-128270000D03*
X213360000Y-54991000D03*
X162052000Y-105410000D03*
X208280000Y-57531000D03*
X186690000Y-129794000D03*
X183642000Y-105664000D03*
X160528000Y-105410000D03*
X202946000Y-101854000D03*
X210820000Y-57531000D03*
X198882000Y-96520000D03*
X201422000Y-101854000D03*
X160528000Y-101600000D03*
X201422000Y-105664000D03*
X171196000Y-60071000D03*
X218694000Y-129286000D03*
X211074000Y-49911000D03*
X191135000Y-61468000D03*
X178816000Y-62611000D03*
X210820000Y-52451000D03*
X204978000Y-128524000D03*
X204216000Y-103886000D03*
X181356000Y-60071000D03*
X166116000Y-129540000D03*
X182372000Y-101854000D03*
X201422000Y-96520000D03*
X217997500Y-68580000D03*
X201422000Y-103886000D03*
X176022000Y-56769000D03*
X202946000Y-103886000D03*
X153162000Y-92456000D03*
X178816000Y-60071000D03*
X180848000Y-105664000D03*
X204216000Y-105664000D03*
X217616500Y-63500000D03*
X160528000Y-103632000D03*
X213360000Y-49911000D03*
X162052000Y-101600000D03*
X202946000Y-105664000D03*
X162052000Y-103632000D03*
X184658000Y-129794000D03*
X180848000Y-101854000D03*
X160528000Y-92456000D03*
X183642000Y-101854000D03*
X204216000Y-101854000D03*
X176276000Y-62611000D03*
X171196000Y-62611000D03*
X163322000Y-105410000D03*
X186690000Y-128270000D03*
X164084000Y-128270000D03*
X197231000Y-61468000D03*
X173736000Y-62611000D03*
X158242000Y-92456000D03*
X173736000Y-60071000D03*
X217616500Y-65151000D03*
X180848000Y-103886000D03*
X173228000Y-92710000D03*
X182372000Y-105664000D03*
X208280000Y-49911000D03*
X234950000Y-98044000D03*
X212598000Y-129286000D03*
X208280000Y-54991000D03*
X204978000Y-129794000D03*
X213360000Y-57531000D03*
X213360000Y-52451000D03*
X163322000Y-101600000D03*
X184404000Y-58801000D03*
X178054000Y-92710000D03*
X181356000Y-62611000D03*
X234950000Y-106680000D03*
X210820000Y-54991000D03*
X196342000Y-96520000D03*
X175514000Y-92710000D03*
X208280000Y-52451000D03*
%TO.N,+24V*%
X204470000Y-86360000D03*
X191770000Y-78740000D03*
X191770000Y-99568000D03*
X191516000Y-101346000D03*
X196850000Y-81280000D03*
X151130000Y-100076000D03*
X169164000Y-99568000D03*
X194310000Y-88900000D03*
X196850000Y-88900000D03*
X199390000Y-86360000D03*
X191770000Y-88900000D03*
X199390000Y-83820000D03*
X191770000Y-86360000D03*
X204470000Y-81280000D03*
X191262000Y-104394000D03*
X189484000Y-106172000D03*
X192024000Y-106426000D03*
X201930000Y-57912000D03*
X150622000Y-106172000D03*
X194310000Y-83820000D03*
X196850000Y-83820000D03*
X201930000Y-78740000D03*
X149352000Y-104394000D03*
X199390000Y-88900000D03*
X170942000Y-99568000D03*
X189484000Y-103886000D03*
X201930000Y-81280000D03*
X191770000Y-83820000D03*
X199390000Y-81280000D03*
X169418000Y-103886000D03*
X191770000Y-81280000D03*
X204470000Y-83820000D03*
X189484000Y-101346000D03*
X170688000Y-102616000D03*
X196850000Y-86360000D03*
X204470000Y-78740000D03*
X194310000Y-78740000D03*
X204470000Y-88900000D03*
X169164000Y-101600000D03*
X201930000Y-88900000D03*
X189738000Y-99568000D03*
X169164000Y-106172000D03*
X194310000Y-86360000D03*
X199390000Y-78740000D03*
X149098000Y-100076000D03*
X148844000Y-106172000D03*
X194310000Y-81280000D03*
X149352000Y-102362000D03*
X201930000Y-86360000D03*
X201930000Y-83820000D03*
X196850000Y-78740000D03*
X171196000Y-106426000D03*
X217170000Y-56642000D03*
%TO.N,+3V3*%
X188468000Y-123444000D03*
X180340000Y-121158000D03*
X200660000Y-121158000D03*
X170180000Y-123444000D03*
%TO.N,Net-(C13-Pad1)*%
X191389000Y-64643000D03*
X193548000Y-59563000D03*
%TO.N,/current_A*%
X166636500Y-92202000D03*
X163068000Y-121412000D03*
%TO.N,/current_B*%
X167386000Y-86360000D03*
X182880000Y-121412000D03*
%TO.N,/current_C*%
X159766000Y-64516000D03*
X203454000Y-121412000D03*
%TO.N,/A_1_3V3*%
X206502000Y-91186000D03*
X221234000Y-98044000D03*
%TO.N,/B_1_3V3*%
X221234000Y-104140000D03*
X205795244Y-91935500D03*
%TO.N,/HALL_B_3V3*%
X216154000Y-118364000D03*
X168148000Y-80264000D03*
%TO.N,/HALL_A_3V3*%
X161798000Y-74676000D03*
X209550000Y-118364000D03*
%TO.N,/HALL_C_3V3*%
X222250000Y-118364000D03*
X170476403Y-80350357D03*
%TD*%
D44*
%TO.N,+3V3*%
X226060000Y-72390000D02*
X224282000Y-74168000D01*
D45*
X226060000Y-72390000D02*
X226060000Y-67094500D01*
X226060000Y-67094500D02*
X225894500Y-66929000D01*
D44*
X224282000Y-74168000D02*
X218400000Y-74168000D01*
%TO.N,GND*%
X219394500Y-59055000D02*
X225109500Y-59055000D01*
X225109500Y-59055000D02*
X225894500Y-58270000D01*
X225894500Y-58270000D02*
X225894500Y-56515000D01*
X218501500Y-59948000D02*
X219394500Y-59055000D01*
X218501500Y-61722000D02*
X218501500Y-59948000D01*
D45*
%TO.N,Net-(C6-Pad2)*%
X175260000Y-99314000D02*
X177546000Y-99314000D01*
X178045200Y-97817000D02*
X180413800Y-97817000D01*
X177546000Y-99314000D02*
X178045200Y-98814800D01*
X180413800Y-97817000D02*
X180438800Y-97792000D01*
X178045200Y-98814800D02*
X178045200Y-97817000D01*
X174498000Y-103626000D02*
X174498000Y-100076000D01*
X174498000Y-100076000D02*
X175260000Y-99314000D01*
%TO.N,Net-(IC3-Pad2)*%
X157734000Y-103372000D02*
X157734000Y-100838000D01*
X157734000Y-100838000D02*
X159258000Y-99314000D01*
X164084000Y-99314000D02*
X165481000Y-97917000D01*
X159258000Y-99314000D02*
X164084000Y-99314000D01*
X165481000Y-97917000D02*
X165481000Y-97536000D01*
%TO.N,Net-(IC3-Pad3)*%
X159004000Y-98806000D02*
X162306000Y-98806000D01*
X163041200Y-98070800D02*
X163041200Y-97536000D01*
X156464000Y-101346000D02*
X159004000Y-98806000D01*
X156464000Y-103372000D02*
X156464000Y-101346000D01*
X162306000Y-98806000D02*
X163041200Y-98070800D01*
%TO.N,/HB1_IS*%
X149606000Y-85598000D02*
X153162000Y-82042000D01*
X153162000Y-61976000D02*
X155284000Y-59854000D01*
X152654000Y-98044000D02*
X153162000Y-97536000D01*
X153162000Y-97536000D02*
X155599300Y-97536000D01*
X153162000Y-82042000D02*
X153162000Y-61976000D01*
X153162000Y-97536000D02*
X151892000Y-97536000D01*
X152654000Y-103372000D02*
X152654000Y-98044000D01*
X155284000Y-59854000D02*
X157228000Y-59854000D01*
X155599300Y-97536000D02*
X155631800Y-97568500D01*
X149606000Y-95250000D02*
X149606000Y-85598000D01*
X151892000Y-97536000D02*
X149606000Y-95250000D01*
%TO.N,/HB2_IS*%
X173228000Y-97784500D02*
X169679000Y-97784500D01*
X175596600Y-97792000D02*
X175621600Y-97817000D01*
X169679000Y-97784500D02*
X168910000Y-97015500D01*
X159512000Y-62604500D02*
X159262500Y-62854000D01*
X173228000Y-97792000D02*
X175596600Y-97792000D01*
X173228000Y-103626000D02*
X173228000Y-97792000D01*
X159262500Y-62854000D02*
X157228000Y-62854000D01*
%TO.N,/HB3_IS*%
X187706000Y-86868000D02*
X188418576Y-87580576D01*
X157228000Y-63354000D02*
X164192000Y-63354000D01*
X164192000Y-63354000D02*
X187706000Y-86868000D01*
X187960000Y-93726000D02*
X192278000Y-98044000D01*
X196317000Y-98044000D02*
X196342000Y-98069000D01*
X193802000Y-98044000D02*
X196317000Y-98044000D01*
X193802000Y-103626000D02*
X193802000Y-98044000D01*
X188418576Y-87580576D02*
X188771424Y-87580576D01*
X192278000Y-98044000D02*
X193802000Y-98044000D01*
%TO.N,/EN_5V*%
X189103000Y-58293000D02*
X187960000Y-57150000D01*
X187833000Y-59010000D02*
X189103000Y-59010000D01*
X155538000Y-80354000D02*
X155448000Y-80264000D01*
X189103000Y-59010000D02*
X189103000Y-58293000D01*
X157228000Y-80354000D02*
X155538000Y-80354000D01*
%TO.N,/HB3_INH*%
X157228000Y-80854000D02*
X160610000Y-80854000D01*
X160610000Y-80854000D02*
X162478000Y-80854000D01*
X201299000Y-92456000D02*
X203962000Y-95119000D01*
X176606871Y-80340871D02*
X188722000Y-92456000D01*
X162478000Y-80854000D02*
X164062023Y-79269977D01*
X188722000Y-92456000D02*
X201299000Y-92456000D01*
X176453129Y-80340871D02*
X176606871Y-80340871D01*
%TO.N,/HB2_INH*%
X151638000Y-96266000D02*
X150114000Y-94742000D01*
X154713784Y-81354000D02*
X157228000Y-81354000D01*
X181395900Y-96266000D02*
X151638000Y-96266000D01*
X150114000Y-85953784D02*
X154713784Y-81354000D01*
X182802400Y-94859500D02*
X181395900Y-96266000D01*
X150114000Y-94742000D02*
X150114000Y-85953784D01*
%TO.N,/HB1_INH*%
X157228000Y-87124000D02*
X157228000Y-81854000D01*
X163041200Y-94611000D02*
X163041200Y-92937200D01*
X163041200Y-92937200D02*
X157228000Y-87124000D01*
%TO.N,/Phase_C*%
X197485000Y-127049000D02*
X198460000Y-127049000D01*
X198460000Y-127049000D02*
X199771000Y-128360000D01*
%TO.N,/Phase_B*%
X176784000Y-127131000D02*
X177886000Y-127131000D01*
X177886000Y-127131000D02*
X179197000Y-128442000D01*
%TO.N,/Phase_A*%
X156210000Y-127131000D02*
X157435000Y-127131000D01*
X157435000Y-127131000D02*
X158623000Y-128319000D01*
D46*
%TO.N,/HALL_A*%
X211667250Y-139439000D02*
X212427250Y-140199000D01*
D45*
X210058000Y-126238000D02*
X210058000Y-127762000D01*
D46*
X229607000Y-140199000D02*
X231648000Y-142240000D01*
X212427250Y-140199000D02*
X229607000Y-140199000D01*
%TO.N,/HALL_B*%
X211842250Y-136017000D02*
X229743000Y-136017000D01*
X229743000Y-136017000D02*
X231648000Y-134112000D01*
D45*
X216154000Y-126238000D02*
X216154000Y-127762000D01*
D46*
X231648000Y-134112000D02*
X231648000Y-132080000D01*
X208667250Y-139192000D02*
X211842250Y-136017000D01*
D45*
%TO.N,/HALL_C*%
X222250000Y-126238000D02*
X222250000Y-127762000D01*
D46*
X205667250Y-139192000D02*
X210747250Y-134112000D01*
X210747250Y-134112000D02*
X227584000Y-134112000D01*
X227584000Y-134112000D02*
X229616000Y-132080000D01*
X229616000Y-123952000D02*
X231648000Y-121920000D01*
X229616000Y-132080000D02*
X229616000Y-123952000D01*
D45*
%TO.N,/B_1*%
X245872000Y-105918000D02*
X244094000Y-104140000D01*
X240284000Y-129032000D02*
X245872000Y-123444000D01*
X244094000Y-104140000D02*
X233172000Y-104140000D01*
X240284000Y-139954000D02*
X240284000Y-129032000D01*
X242570000Y-142240000D02*
X240284000Y-139954000D01*
X245872000Y-123444000D02*
X245872000Y-105918000D01*
%TO.N,/A_1*%
X244602000Y-100584000D02*
X247142000Y-103124000D01*
X247142000Y-130048000D02*
X245110000Y-132080000D01*
X247142000Y-103124000D02*
X247142000Y-130048000D01*
X233172000Y-100584000D02*
X244602000Y-100584000D01*
X245110000Y-132080000D02*
X242570000Y-132080000D01*
%TO.N,GND*%
X198882000Y-95119000D02*
X198882000Y-96520000D01*
X218694000Y-128016000D02*
X218694000Y-129286000D01*
D44*
X218501500Y-66929000D02*
X218501500Y-61722000D01*
D45*
X193802000Y-95119000D02*
X196342000Y-95119000D01*
X201422000Y-95119000D02*
X198882000Y-95119000D01*
X218694000Y-128016000D02*
X218694000Y-126238000D01*
X212598000Y-128016000D02*
X212598000Y-126238000D01*
X212598000Y-128016000D02*
X212598000Y-129286000D01*
X224282000Y-128524000D02*
X219202000Y-128524000D01*
X218694000Y-128016000D02*
X218186000Y-128524000D01*
X161163000Y-128319000D02*
X159893000Y-128319000D01*
X224790000Y-128016000D02*
X224790000Y-129286000D01*
X161163000Y-128319000D02*
X161118000Y-128319000D01*
X233172000Y-98044000D02*
X234950000Y-98044000D01*
X218186000Y-128524000D02*
X213106000Y-128524000D01*
X224790000Y-126238000D02*
X224790000Y-128016000D01*
D47*
X207772000Y-82550000D02*
X207264000Y-83058000D01*
D45*
X219202000Y-128524000D02*
X218694000Y-128016000D01*
X196342000Y-95119000D02*
X196342000Y-96520000D01*
X233172000Y-106680000D02*
X234950000Y-106680000D01*
X161118000Y-128319000D02*
X161036000Y-128401000D01*
X213106000Y-128524000D02*
X212598000Y-128016000D01*
X201422000Y-95119000D02*
X201422000Y-96520000D01*
X224790000Y-128016000D02*
X224282000Y-128524000D01*
D47*
X210406000Y-82550000D02*
X207772000Y-82550000D01*
D44*
%TO.N,+24V*%
X210406000Y-85090000D02*
X204978000Y-85090000D01*
D45*
X218501500Y-56515000D02*
X217297000Y-56515000D01*
D44*
X189103000Y-64434000D02*
X189103000Y-66548000D01*
D45*
X217297000Y-56515000D02*
X217170000Y-56642000D01*
D44*
X204978000Y-85090000D02*
X204343000Y-84455000D01*
D45*
%TO.N,+3V3*%
X181737000Y-123018000D02*
X181737000Y-121031000D01*
X181737000Y-121031000D02*
X182626000Y-120142000D01*
D46*
X206248000Y-115062000D02*
X206248000Y-121158000D01*
D45*
X163576000Y-120019000D02*
X165354000Y-121797000D01*
X159893000Y-122895000D02*
X161163000Y-122895000D01*
X161163000Y-120908000D02*
X162052000Y-120019000D01*
X184150000Y-120142000D02*
X185674000Y-121666000D01*
X201041000Y-122936000D02*
X202311000Y-122936000D01*
X185674000Y-121666000D02*
X185674000Y-123952000D01*
D44*
X216027000Y-69469000D02*
X218400000Y-71842000D01*
D45*
X206248000Y-121158000D02*
X206248000Y-124222000D01*
D44*
X216027000Y-47879000D02*
X216027000Y-69469000D01*
D46*
X215514000Y-93726000D02*
X215514000Y-105796000D01*
D45*
X165354000Y-124083000D02*
X169541000Y-124083000D01*
X187960000Y-123952000D02*
X188468000Y-123444000D01*
D46*
X215514000Y-105796000D02*
X206248000Y-115062000D01*
D45*
X185674000Y-123952000D02*
X187960000Y-123952000D01*
D44*
X216789000Y-47117000D02*
X216027000Y-47879000D01*
D45*
X202311000Y-120777000D02*
X203200000Y-119888000D01*
X169541000Y-124083000D02*
X170180000Y-123444000D01*
D44*
X223012000Y-47117000D02*
X216789000Y-47117000D01*
D45*
X203200000Y-119888000D02*
X205232000Y-119888000D01*
X162052000Y-120019000D02*
X163576000Y-120019000D01*
X206248000Y-120904000D02*
X206248000Y-124222000D01*
X161163000Y-122895000D02*
X161163000Y-120908000D01*
X200660000Y-121158000D02*
X200660000Y-122555000D01*
X206248000Y-120904000D02*
X206248000Y-121158000D01*
X165354000Y-121797000D02*
X165354000Y-124083000D01*
D44*
X218400000Y-71842000D02*
X218400000Y-74168000D01*
D45*
X181737000Y-123018000D02*
X180467000Y-123018000D01*
X202311000Y-122936000D02*
X202311000Y-120777000D01*
X180340000Y-122891000D02*
X180467000Y-123018000D01*
X200660000Y-122555000D02*
X201041000Y-122936000D01*
X182626000Y-120142000D02*
X184150000Y-120142000D01*
X205232000Y-119888000D02*
X206248000Y-120904000D01*
X180340000Y-121158000D02*
X180340000Y-122891000D01*
%TO.N,Net-(C3-Pad2)*%
X155194000Y-98806000D02*
X157734000Y-98806000D01*
X158131600Y-98408400D02*
X158131600Y-97568500D01*
X153924000Y-100076000D02*
X155194000Y-98806000D01*
X160568900Y-97568500D02*
X160601400Y-97536000D01*
X158131600Y-97568500D02*
X160568900Y-97568500D01*
X157734000Y-98806000D02*
X158131600Y-98408400D01*
X153924000Y-103372000D02*
X153924000Y-100076000D01*
%TO.N,Net-(C10-Pad2)*%
X195072000Y-103626000D02*
X195072000Y-100076000D01*
X195834000Y-99314000D02*
X198628000Y-99314000D01*
X198882000Y-98069000D02*
X201397000Y-98069000D01*
X195072000Y-100076000D02*
X195834000Y-99314000D01*
X198882000Y-99060000D02*
X198882000Y-98069000D01*
X198628000Y-99314000D02*
X198882000Y-99060000D01*
X201397000Y-98069000D02*
X201422000Y-98044000D01*
%TO.N,/driver/HB1_OUT*%
X157312000Y-124206000D02*
X158623000Y-122895000D01*
X156210000Y-124206000D02*
X157312000Y-124206000D01*
%TO.N,/driver/HB2_OUT*%
X178009000Y-124206000D02*
X179197000Y-123018000D01*
X176784000Y-124206000D02*
X178009000Y-124206000D01*
%TO.N,Net-(IC5-Pad3)*%
X181864000Y-99060000D02*
X182802400Y-98121600D01*
X177038000Y-101346000D02*
X179324000Y-99060000D01*
X179324000Y-99060000D02*
X181864000Y-99060000D01*
X177038000Y-103626000D02*
X177038000Y-101346000D01*
X182802400Y-98121600D02*
X182802400Y-97784500D01*
%TO.N,Net-(IC5-Pad2)*%
X185928000Y-98806000D02*
X185928000Y-97784500D01*
X184912000Y-99822000D02*
X185928000Y-98806000D01*
X178308000Y-103626000D02*
X178308000Y-101026000D01*
X179512000Y-99822000D02*
X184912000Y-99822000D01*
X178308000Y-101026000D02*
X179512000Y-99822000D01*
%TO.N,/driver/HB3_OUT*%
X198583000Y-124124000D02*
X199771000Y-122936000D01*
X197485000Y-124124000D02*
X198583000Y-124124000D01*
%TO.N,Net-(IC7-Pad3)*%
X203454000Y-99568000D02*
X203962000Y-99060000D01*
X203962000Y-99060000D02*
X203962000Y-98044000D01*
X197612000Y-103626000D02*
X197612000Y-101600000D01*
X197612000Y-101600000D02*
X199644000Y-99568000D01*
X199644000Y-99568000D02*
X203454000Y-99568000D01*
%TO.N,Net-(IC7-Pad2)*%
X198882000Y-103626000D02*
X198882000Y-101600000D01*
X204978000Y-100330000D02*
X206502000Y-98806000D01*
X200152000Y-100330000D02*
X204978000Y-100330000D01*
X198882000Y-101600000D02*
X200152000Y-100330000D01*
X206502000Y-98806000D02*
X206502000Y-98044000D01*
%TO.N,Net-(C13-Pad1)*%
X190582000Y-64643000D02*
X190373000Y-64434000D01*
X193548000Y-57912000D02*
X193548000Y-59563000D01*
X191389000Y-64643000D02*
X190582000Y-64643000D01*
D46*
%TO.N,Net-(C13-Pad2)*%
X190373000Y-59010000D02*
X190373000Y-57404000D01*
%TO.N,+5V*%
X209525250Y-132334000D02*
X226314000Y-132334000D01*
X202667250Y-139192000D02*
X209525250Y-132334000D01*
D44*
X185296000Y-42164000D02*
X179962000Y-47498000D01*
D46*
X226314000Y-132334000D02*
X227330000Y-131318000D01*
D44*
X233172000Y-59944000D02*
X233172000Y-47117000D01*
D46*
X227330000Y-116078000D02*
X231648000Y-111760000D01*
D44*
X226357000Y-61722000D02*
X231394000Y-61722000D01*
X233172000Y-47117000D02*
X228219000Y-42164000D01*
D46*
X231648000Y-111760000D02*
X242570000Y-111760000D01*
X231648000Y-61976000D02*
X231394000Y-61722000D01*
X231648000Y-111760000D02*
X231648000Y-61976000D01*
D44*
X169263000Y-51717000D02*
X173228000Y-51717000D01*
X178660000Y-64699000D02*
X178660000Y-67310000D01*
X166624000Y-54356000D02*
X169263000Y-51717000D01*
D46*
X227330000Y-131318000D02*
X227330000Y-116078000D01*
D44*
X231394000Y-61722000D02*
X233172000Y-59944000D01*
X228219000Y-42164000D02*
X185296000Y-42164000D01*
X178660000Y-64699000D02*
X170109000Y-64699000D01*
X170109000Y-64699000D02*
X166624000Y-61214000D01*
X166624000Y-61214000D02*
X166624000Y-54356000D01*
%TO.N,Net-(C14-Pad2)*%
X181793000Y-64516000D02*
X181610000Y-64699000D01*
X184150000Y-64516000D02*
X181793000Y-64516000D01*
X184232000Y-64434000D02*
X184150000Y-64516000D01*
X181610000Y-64699000D02*
X181610000Y-67310000D01*
X186563000Y-64434000D02*
X184232000Y-64434000D01*
D45*
%TO.N,Net-(C17-Pad1)*%
X207264000Y-86858000D02*
X209634000Y-86858000D01*
X209634000Y-86858000D02*
X210406000Y-87630000D01*
D44*
%TO.N,Net-(U1-Pad1)*%
X223557000Y-61722000D02*
X221426500Y-61722000D01*
%TO.N,Net-(D1-Pad2)*%
X223557000Y-56515000D02*
X221426500Y-56515000D01*
%TO.N,Net-(U14-Pad1)*%
X223557000Y-66929000D02*
X221426500Y-66929000D01*
D45*
%TO.N,/current_A*%
X162433000Y-122895000D02*
X162433000Y-122047000D01*
X162433000Y-122047000D02*
X163068000Y-121412000D01*
X166624000Y-92189500D02*
X166624000Y-75946000D01*
X166636500Y-92202000D02*
X166624000Y-92189500D01*
X166624000Y-75946000D02*
X162032000Y-71354000D01*
X162032000Y-71354000D02*
X157228000Y-71354000D01*
%TO.N,/current_B*%
X183007000Y-121539000D02*
X182880000Y-121412000D01*
X157228000Y-69854000D02*
X162310000Y-69854000D01*
X162310000Y-69854000D02*
X169418000Y-76962000D01*
X183007000Y-123018000D02*
X183007000Y-121539000D01*
X169418000Y-84328000D02*
X167386000Y-86360000D01*
X169418000Y-76962000D02*
X169418000Y-84328000D01*
%TO.N,/current_C*%
X203581000Y-122936000D02*
X203581000Y-121539000D01*
X159604000Y-64354000D02*
X159766000Y-64516000D01*
X203581000Y-121539000D02*
X203454000Y-121412000D01*
X157228000Y-64354000D02*
X159604000Y-64354000D01*
%TO.N,/A_1_3V3*%
X206502000Y-91186000D02*
X206248000Y-90932000D01*
X230247000Y-98044000D02*
X230247000Y-100584000D01*
X165484894Y-65354000D02*
X157228000Y-65354000D01*
X191062894Y-90932000D02*
X165484894Y-65354000D01*
X206248000Y-90932000D02*
X191062894Y-90932000D01*
X230247000Y-98044000D02*
X221234000Y-98044000D01*
%TO.N,/B_1_3V3*%
X205224000Y-91432000D02*
X190238000Y-91432000D01*
X205752500Y-91935500D02*
X205740000Y-91948000D01*
X205740000Y-91948000D02*
X205224000Y-91432000D01*
X190238000Y-91432000D02*
X164660000Y-65854000D01*
X230247000Y-104140000D02*
X230247000Y-106680000D01*
X205795244Y-91935500D02*
X205752500Y-91935500D01*
X164660000Y-65854000D02*
X157228000Y-65854000D01*
X230247000Y-104140000D02*
X221234000Y-104140000D01*
%TO.N,/HB3_IN*%
X189120213Y-91948000D02*
X163526213Y-66354000D01*
X206502000Y-95119000D02*
X203331000Y-91948000D01*
X203331000Y-91948000D02*
X189120213Y-91948000D01*
X163526213Y-66354000D02*
X157228000Y-66354000D01*
%TO.N,/HB2_IN*%
X163096000Y-68354000D02*
X157228000Y-68354000D01*
X185928000Y-94859500D02*
X185928000Y-91186000D01*
X185928000Y-91186000D02*
X163096000Y-68354000D01*
%TO.N,/HALL_B_3V3*%
X216154000Y-123313000D02*
X216154000Y-118364000D01*
X218694000Y-123313000D02*
X216154000Y-123313000D01*
X157228000Y-70854000D02*
X162548000Y-70854000D01*
X168148000Y-76454000D02*
X168148000Y-80264000D01*
X162548000Y-70854000D02*
X168148000Y-76454000D01*
%TO.N,/HALL_A_3V3*%
X161798000Y-74676000D02*
X159476000Y-72354000D01*
X212598000Y-123313000D02*
X210058000Y-123313000D01*
X159476000Y-72354000D02*
X157228000Y-72354000D01*
X210058000Y-118872000D02*
X209550000Y-118364000D01*
X210058000Y-123313000D02*
X210058000Y-118872000D01*
%TO.N,/HALL_C_3V3*%
X157228000Y-69354000D02*
X163334000Y-69354000D01*
X163334000Y-69354000D02*
X170476403Y-76496403D01*
X224790000Y-123313000D02*
X222250000Y-123313000D01*
X170476403Y-76496403D02*
X170476403Y-80350357D01*
X222250000Y-123313000D02*
X222250000Y-118364000D01*
%TO.N,/HB1_IN*%
X165100000Y-94230000D02*
X165100000Y-79248000D01*
X159706000Y-73854000D02*
X157228000Y-73854000D01*
X165481000Y-94611000D02*
X165100000Y-94230000D01*
X165100000Y-79248000D02*
X159706000Y-73854000D01*
%TD*%
%TA.AperFunction,Conductor*%
%TO.N,+24V*%
G36*
X205232000Y-72380000D02*
G01*
X205195095Y-72469095D01*
X205106000Y-72506000D01*
X204629065Y-72506000D01*
X204611341Y-72513341D01*
X204604000Y-72531065D01*
X204604000Y-75296935D01*
X204611341Y-75314659D01*
X204629065Y-75322000D01*
X205106000Y-75322000D01*
X205195095Y-75358905D01*
X205232000Y-75448000D01*
X205232000Y-89536000D01*
X205195095Y-89625095D01*
X205106000Y-89662000D01*
X191134000Y-89662000D01*
X191044905Y-89625095D01*
X191008000Y-89536000D01*
X191008000Y-74857845D01*
X202317000Y-74857845D01*
X202318207Y-74870099D01*
X202344055Y-75000044D01*
X202353368Y-75022529D01*
X202451860Y-75169931D01*
X202469069Y-75187140D01*
X202616471Y-75285632D01*
X202638956Y-75294945D01*
X202768901Y-75320793D01*
X202781155Y-75322000D01*
X204070935Y-75322000D01*
X204088659Y-75314659D01*
X204096000Y-75296935D01*
X204096000Y-74193065D01*
X204088659Y-74175341D01*
X204070935Y-74168000D01*
X202342065Y-74168000D01*
X202324341Y-74175341D01*
X202317000Y-74193065D01*
X202317000Y-74857845D01*
X191008000Y-74857845D01*
X191008000Y-73634935D01*
X202317000Y-73634935D01*
X202324341Y-73652659D01*
X202342065Y-73660000D01*
X204070935Y-73660000D01*
X204088659Y-73652659D01*
X204096000Y-73634935D01*
X204096000Y-72531065D01*
X204088659Y-72513341D01*
X204070935Y-72506000D01*
X202781155Y-72506000D01*
X202768901Y-72507207D01*
X202638956Y-72533055D01*
X202616471Y-72542368D01*
X202469069Y-72640860D01*
X202451860Y-72658069D01*
X202353368Y-72805471D01*
X202344055Y-72827956D01*
X202318207Y-72957901D01*
X202317000Y-72970155D01*
X202317000Y-73634935D01*
X191008000Y-73634935D01*
X191008000Y-69468000D01*
X191044905Y-69378905D01*
X191134000Y-69342000D01*
X205232000Y-69342000D01*
X205232000Y-72380000D01*
G37*
%TD.AperFunction*%
%TD*%
%TA.AperFunction,Conductor*%
%TO.N,+24V*%
G36*
X205195095Y-44613905D02*
G01*
X205232000Y-44703000D01*
X205232000Y-71882000D01*
X198628000Y-71882000D01*
X198628000Y-62155845D01*
X199161000Y-62155845D01*
X199162207Y-62168099D01*
X199188055Y-62298044D01*
X199197368Y-62320529D01*
X199295860Y-62467931D01*
X199313069Y-62485140D01*
X199460471Y-62583632D01*
X199482956Y-62592945D01*
X199612901Y-62618793D01*
X199625155Y-62620000D01*
X201714935Y-62620000D01*
X201732659Y-62612659D01*
X201740000Y-62594935D01*
X202248000Y-62594935D01*
X202255341Y-62612659D01*
X202273065Y-62620000D01*
X204362845Y-62620000D01*
X204375099Y-62618793D01*
X204505044Y-62592945D01*
X204527529Y-62583632D01*
X204674931Y-62485140D01*
X204692140Y-62467931D01*
X204790632Y-62320529D01*
X204799945Y-62298044D01*
X204825793Y-62168099D01*
X204827000Y-62155845D01*
X204827000Y-61366065D01*
X204819659Y-61348341D01*
X204801935Y-61341000D01*
X202273065Y-61341000D01*
X202255341Y-61348341D01*
X202248000Y-61366065D01*
X202248000Y-62594935D01*
X201740000Y-62594935D01*
X201740000Y-61366065D01*
X201732659Y-61348341D01*
X201714935Y-61341000D01*
X199186065Y-61341000D01*
X199168341Y-61348341D01*
X199161000Y-61366065D01*
X199161000Y-62155845D01*
X198628000Y-62155845D01*
X198628000Y-60807935D01*
X199161000Y-60807935D01*
X199168341Y-60825659D01*
X199186065Y-60833000D01*
X201714935Y-60833000D01*
X201732659Y-60825659D01*
X201740000Y-60807935D01*
X202248000Y-60807935D01*
X202255341Y-60825659D01*
X202273065Y-60833000D01*
X204801935Y-60833000D01*
X204819659Y-60825659D01*
X204827000Y-60807935D01*
X204827000Y-60018155D01*
X204825793Y-60005901D01*
X204799945Y-59875956D01*
X204790632Y-59853471D01*
X204692140Y-59706069D01*
X204674931Y-59688860D01*
X204527529Y-59590368D01*
X204505044Y-59581055D01*
X204375099Y-59555207D01*
X204362845Y-59554000D01*
X202273065Y-59554000D01*
X202255341Y-59561341D01*
X202248000Y-59579065D01*
X202248000Y-60807935D01*
X201740000Y-60807935D01*
X201740000Y-59579065D01*
X201732659Y-59561341D01*
X201714935Y-59554000D01*
X199625155Y-59554000D01*
X199612901Y-59555207D01*
X199482956Y-59581055D01*
X199460471Y-59590368D01*
X199313069Y-59688860D01*
X199295860Y-59706069D01*
X199197368Y-59853471D01*
X199188055Y-59875956D01*
X199162207Y-60005901D01*
X199161000Y-60018155D01*
X199161000Y-60807935D01*
X198628000Y-60807935D01*
X198628000Y-44703000D01*
X198664905Y-44613905D01*
X198754000Y-44577000D01*
X205106000Y-44577000D01*
X205195095Y-44613905D01*
G37*
%TD.AperFunction*%
%TD*%
%TA.AperFunction,Conductor*%
%TO.N,GND*%
G36*
X166587095Y-125643905D02*
G01*
X166624000Y-125733000D01*
X166624000Y-130053000D01*
X166587095Y-130142095D01*
X166498000Y-130179000D01*
X159638000Y-130179000D01*
X159548905Y-130142095D01*
X159512000Y-130053000D01*
X159512000Y-129715500D01*
X159548905Y-129626405D01*
X159594305Y-129607599D01*
X159590781Y-129599091D01*
X159631659Y-129582159D01*
X159639000Y-129564435D01*
X160147000Y-129564435D01*
X160154341Y-129582159D01*
X160172065Y-129589500D01*
X160261845Y-129589500D01*
X160274099Y-129588293D01*
X160404044Y-129562445D01*
X160426526Y-129553133D01*
X160457997Y-129532104D01*
X160552580Y-129513290D01*
X160598003Y-129532104D01*
X160629474Y-129553133D01*
X160651956Y-129562445D01*
X160781901Y-129588293D01*
X160794155Y-129589500D01*
X160883935Y-129589500D01*
X160901659Y-129582159D01*
X160909000Y-129564435D01*
X160909000Y-128598065D01*
X160901659Y-128580341D01*
X160883935Y-128573000D01*
X160172065Y-128573000D01*
X160154341Y-128580341D01*
X160147000Y-128598065D01*
X160147000Y-129564435D01*
X159639000Y-129564435D01*
X159639000Y-128191000D01*
X159675905Y-128101905D01*
X159765000Y-128065000D01*
X161291000Y-128065000D01*
X161380095Y-128101905D01*
X161417000Y-128191000D01*
X161417000Y-129564435D01*
X161424341Y-129582159D01*
X161442065Y-129589500D01*
X161531845Y-129589500D01*
X161544099Y-129588293D01*
X161674044Y-129562445D01*
X161696529Y-129553132D01*
X161727548Y-129532405D01*
X161822131Y-129513591D01*
X161867552Y-129532405D01*
X161899276Y-129553603D01*
X161899278Y-129553604D01*
X161909593Y-129560496D01*
X162057918Y-129590000D01*
X162808082Y-129590000D01*
X162956407Y-129560496D01*
X162966722Y-129553604D01*
X162966724Y-129553603D01*
X163114292Y-129455001D01*
X163124608Y-129448108D01*
X163125643Y-129449657D01*
X163204483Y-129417000D01*
X163576000Y-129417000D01*
X163576000Y-125733000D01*
X163612905Y-125643905D01*
X163702000Y-125607000D01*
X166498000Y-125607000D01*
X166587095Y-125643905D01*
G37*
%TD.AperFunction*%
%TD*%
%TA.AperFunction,Conductor*%
%TO.N,/Phase_C*%
G36*
X198624573Y-125987427D02*
G01*
X198628000Y-125995700D01*
X198628000Y-148324300D01*
X198624573Y-148332573D01*
X198616300Y-148336000D01*
X187452000Y-148336000D01*
X187452000Y-159246300D01*
X187448573Y-159254573D01*
X187440300Y-159258000D01*
X181621700Y-159258000D01*
X181613427Y-159254573D01*
X181610000Y-159246300D01*
X181610000Y-141489700D01*
X181613427Y-141481427D01*
X181621700Y-141478000D01*
X191262000Y-141478000D01*
X191262000Y-125995700D01*
X191265427Y-125987427D01*
X191273700Y-125984000D01*
X198616300Y-125984000D01*
X198624573Y-125987427D01*
G37*
%TD.AperFunction*%
%TD*%
%TA.AperFunction,Conductor*%
%TO.N,/driver/HB3_OUT*%
G36*
X203671095Y-107732905D02*
G01*
X203708000Y-107822000D01*
X203708000Y-118238000D01*
X203671095Y-118327095D01*
X203582000Y-118364000D01*
X200152000Y-118364000D01*
X200152000Y-120270000D01*
X200115095Y-120359095D01*
X200026000Y-120396000D01*
X198628000Y-120396000D01*
X198628000Y-124842000D01*
X198591095Y-124931095D01*
X198502000Y-124968000D01*
X189102000Y-124968000D01*
X189012905Y-124931095D01*
X188976000Y-124842000D01*
X188976000Y-124301124D01*
X189012905Y-124212029D01*
X189053782Y-124184715D01*
X189140182Y-124148927D01*
X189140183Y-124148926D01*
X189163336Y-124139336D01*
X189395439Y-123578989D01*
X189441762Y-123467155D01*
X189451353Y-123444000D01*
X189163336Y-122748664D01*
X189140183Y-122739074D01*
X189140182Y-122739073D01*
X189053782Y-122703285D01*
X188985591Y-122635094D01*
X188976000Y-122586876D01*
X188976000Y-107822000D01*
X189012905Y-107732905D01*
X189102000Y-107696000D01*
X203582000Y-107696000D01*
X203671095Y-107732905D01*
G37*
%TD.AperFunction*%
%TD*%
%TA.AperFunction,Conductor*%
%TO.N,GND*%
G36*
X204941095Y-101128905D02*
G01*
X204978000Y-101218000D01*
X204978000Y-106046000D01*
X204941095Y-106135095D01*
X204852000Y-106172000D01*
X201174551Y-106172000D01*
X201085456Y-106135095D01*
X201048551Y-106046000D01*
X201050972Y-106021418D01*
X201058793Y-105982099D01*
X201060000Y-105969845D01*
X201060000Y-103905065D01*
X201052659Y-103887341D01*
X201034935Y-103880000D01*
X200024000Y-103880000D01*
X199934905Y-103843095D01*
X199898000Y-103754000D01*
X199898000Y-103498000D01*
X199934905Y-103408905D01*
X200024000Y-103372000D01*
X201034935Y-103372000D01*
X201052659Y-103364659D01*
X201060000Y-103346935D01*
X201060000Y-101282155D01*
X201058793Y-101269901D01*
X201053359Y-101242582D01*
X201072173Y-101147998D01*
X201152356Y-101094421D01*
X201176938Y-101092000D01*
X204852000Y-101092000D01*
X204941095Y-101128905D01*
G37*
%TD.AperFunction*%
%TD*%
%TA.AperFunction,Conductor*%
%TO.N,/driver/HB2_OUT*%
G36*
X183351095Y-107478905D02*
G01*
X183388000Y-107568000D01*
X183388000Y-118238000D01*
X183351095Y-118327095D01*
X183262000Y-118364000D01*
X179578000Y-118364000D01*
X179578000Y-120270000D01*
X179541095Y-120359095D01*
X179452000Y-120396000D01*
X178054000Y-120396000D01*
X178054000Y-124842000D01*
X178017095Y-124931095D01*
X177928000Y-124968000D01*
X169758609Y-124968000D01*
X169669514Y-124931095D01*
X169632609Y-124842000D01*
X169669514Y-124752905D01*
X169710391Y-124725591D01*
X169789064Y-124693004D01*
X170044994Y-124586994D01*
X170082874Y-124495544D01*
X170151065Y-124427353D01*
X170170613Y-124423465D01*
X170180000Y-124427353D01*
X170875336Y-124139336D01*
X171163353Y-123444000D01*
X170875336Y-122748664D01*
X170180000Y-122460647D01*
X169484664Y-122748664D01*
X169475074Y-122771817D01*
X169236942Y-123346718D01*
X169168751Y-123414909D01*
X169120533Y-123424500D01*
X168782000Y-123424500D01*
X168692905Y-123387595D01*
X168656000Y-123298500D01*
X168656000Y-107568000D01*
X168692905Y-107478905D01*
X168782000Y-107442000D01*
X183262000Y-107442000D01*
X183351095Y-107478905D01*
G37*
%TD.AperFunction*%
%TD*%
%TA.AperFunction,Conductor*%
%TO.N,GND*%
G36*
X187161095Y-125512905D02*
G01*
X187198000Y-125602000D01*
X187198000Y-130176000D01*
X187161095Y-130265095D01*
X187072000Y-130302000D01*
X180212000Y-130302000D01*
X180122905Y-130265095D01*
X180086000Y-130176000D01*
X180086000Y-129838500D01*
X180122905Y-129749405D01*
X180168305Y-129730599D01*
X180164781Y-129722091D01*
X180205659Y-129705159D01*
X180213000Y-129687435D01*
X180721000Y-129687435D01*
X180728341Y-129705159D01*
X180746065Y-129712500D01*
X180835845Y-129712500D01*
X180848099Y-129711293D01*
X180978044Y-129685445D01*
X181000526Y-129676133D01*
X181031997Y-129655104D01*
X181126580Y-129636290D01*
X181172003Y-129655104D01*
X181203474Y-129676133D01*
X181225956Y-129685445D01*
X181355901Y-129711293D01*
X181368155Y-129712500D01*
X181457935Y-129712500D01*
X181475659Y-129705159D01*
X181483000Y-129687435D01*
X181483000Y-128721065D01*
X181475659Y-128703341D01*
X181457935Y-128696000D01*
X180746065Y-128696000D01*
X180728341Y-128703341D01*
X180721000Y-128721065D01*
X180721000Y-129687435D01*
X180213000Y-129687435D01*
X180213000Y-128314000D01*
X180249905Y-128224905D01*
X180339000Y-128188000D01*
X181865000Y-128188000D01*
X181954095Y-128224905D01*
X181991000Y-128314000D01*
X181991000Y-129687435D01*
X181998341Y-129705159D01*
X182016065Y-129712500D01*
X182105845Y-129712500D01*
X182118099Y-129711293D01*
X182248044Y-129685445D01*
X182270529Y-129676132D01*
X182301548Y-129655405D01*
X182396131Y-129636591D01*
X182441552Y-129655405D01*
X182473276Y-129676603D01*
X182473278Y-129676604D01*
X182483593Y-129683496D01*
X182631918Y-129713000D01*
X183382082Y-129713000D01*
X183530407Y-129683496D01*
X183540722Y-129676604D01*
X183540724Y-129676603D01*
X183688292Y-129578001D01*
X183698608Y-129571108D01*
X183699643Y-129572657D01*
X183778483Y-129540000D01*
X184150000Y-129540000D01*
X184150000Y-125602000D01*
X184186905Y-125512905D01*
X184276000Y-125476000D01*
X187072000Y-125476000D01*
X187161095Y-125512905D01*
G37*
%TD.AperFunction*%
%TD*%
%TA.AperFunction,Conductor*%
%TO.N,/Phase_A*%
G36*
X157443095Y-126274905D02*
G01*
X157480000Y-126364000D01*
X157480000Y-135890000D01*
X166752000Y-135890000D01*
X166841095Y-135926905D01*
X166878000Y-136016000D01*
X166878000Y-159132000D01*
X166841095Y-159221095D01*
X166752000Y-159258000D01*
X160654000Y-159258000D01*
X160564905Y-159221095D01*
X160528000Y-159132000D01*
X160528000Y-144272000D01*
X148970000Y-144272000D01*
X148880905Y-144235095D01*
X148844000Y-144146000D01*
X148844000Y-126364000D01*
X148880905Y-126274905D01*
X148970000Y-126238000D01*
X157354000Y-126238000D01*
X157443095Y-126274905D01*
G37*
%TD.AperFunction*%
%TD*%
%TA.AperFunction,Conductor*%
%TO.N,+3V3*%
G36*
X222975095Y-71791905D02*
G01*
X223012000Y-71881000D01*
X223012000Y-94743000D01*
X222975095Y-94832095D01*
X222886000Y-94869000D01*
X215391000Y-94869000D01*
X215301905Y-94832095D01*
X215265000Y-94743000D01*
X215265000Y-92836000D01*
X215301905Y-92746905D01*
X215391000Y-92710000D01*
X220599000Y-92710000D01*
X220599000Y-81153000D01*
X218977758Y-81153000D01*
X218888663Y-81116095D01*
X218851758Y-81027000D01*
X218872993Y-80956998D01*
X218894077Y-80925444D01*
X218892051Y-80915261D01*
X218075885Y-80099095D01*
X218038980Y-80010000D01*
X218715592Y-80010000D01*
X218722934Y-80027724D01*
X219245745Y-80550535D01*
X219263469Y-80557877D01*
X219273061Y-80553903D01*
X219349849Y-80438983D01*
X219359165Y-80416491D01*
X219437600Y-80022171D01*
X219437600Y-79997829D01*
X219359165Y-79603509D01*
X219349849Y-79581017D01*
X219277393Y-79472580D01*
X219261444Y-79461923D01*
X219251261Y-79463949D01*
X218722934Y-79992276D01*
X218715592Y-80010000D01*
X218038980Y-80010000D01*
X218075885Y-79920905D01*
X218886535Y-79110255D01*
X218893877Y-79092531D01*
X218889903Y-79082939D01*
X218774983Y-79006151D01*
X218752491Y-78996835D01*
X218358171Y-78918400D01*
X218333829Y-78918400D01*
X217939509Y-78996835D01*
X217917017Y-79006151D01*
X217747002Y-79119751D01*
X217652418Y-79138565D01*
X217572235Y-79084988D01*
X217551000Y-79014986D01*
X217551000Y-75330009D01*
X217587905Y-75240914D01*
X217677000Y-75204009D01*
X217701581Y-75206430D01*
X217793899Y-75224793D01*
X217806155Y-75226000D01*
X218120935Y-75226000D01*
X218138659Y-75218659D01*
X218146000Y-75200935D01*
X218654000Y-75200935D01*
X218661341Y-75218659D01*
X218679065Y-75226000D01*
X218993845Y-75226000D01*
X219006099Y-75224793D01*
X219136044Y-75198945D01*
X219158529Y-75189632D01*
X219305931Y-75091140D01*
X219323140Y-75073931D01*
X219421632Y-74926529D01*
X219430945Y-74904044D01*
X219456793Y-74774099D01*
X219458000Y-74761845D01*
X219458000Y-74447065D01*
X219450659Y-74429341D01*
X219432935Y-74422000D01*
X218679065Y-74422000D01*
X218661341Y-74429341D01*
X218654000Y-74447065D01*
X218654000Y-75200935D01*
X218146000Y-75200935D01*
X218146000Y-73888935D01*
X218654000Y-73888935D01*
X218661341Y-73906659D01*
X218679065Y-73914000D01*
X219432935Y-73914000D01*
X219450659Y-73906659D01*
X219458000Y-73888935D01*
X219458000Y-73574155D01*
X219456793Y-73561901D01*
X219430945Y-73431956D01*
X219421632Y-73409471D01*
X219323140Y-73262069D01*
X219305931Y-73244860D01*
X219158529Y-73146368D01*
X219136044Y-73137055D01*
X219006099Y-73111207D01*
X218993845Y-73110000D01*
X218679065Y-73110000D01*
X218661341Y-73117341D01*
X218654000Y-73135065D01*
X218654000Y-73888935D01*
X218146000Y-73888935D01*
X218146000Y-73135065D01*
X218138659Y-73117341D01*
X218120935Y-73110000D01*
X217806155Y-73110000D01*
X217793899Y-73111207D01*
X217701581Y-73129570D01*
X217606998Y-73110756D01*
X217553421Y-73030572D01*
X217551000Y-73005991D01*
X217551000Y-71881000D01*
X217587905Y-71791905D01*
X217677000Y-71755000D01*
X222886000Y-71755000D01*
X222975095Y-71791905D01*
G37*
%TD.AperFunction*%
%TD*%
%TA.AperFunction,Conductor*%
%TO.N,GND*%
G36*
X212852000Y-75439000D02*
G01*
X212815095Y-75528095D01*
X212726000Y-75565000D01*
X211182689Y-75565000D01*
X211093594Y-75528095D01*
X211056689Y-75439000D01*
X211093594Y-75349905D01*
X211158107Y-75315421D01*
X211261044Y-75294945D01*
X211283529Y-75285632D01*
X211430931Y-75187140D01*
X211448140Y-75169931D01*
X211546632Y-75022529D01*
X211555945Y-75000044D01*
X211581793Y-74870099D01*
X211583000Y-74857845D01*
X211583000Y-74193065D01*
X211575659Y-74175341D01*
X211557935Y-74168000D01*
X209422000Y-74168000D01*
X209332905Y-74131095D01*
X209296000Y-74042000D01*
X209296000Y-73634935D01*
X209804000Y-73634935D01*
X209811341Y-73652659D01*
X209829065Y-73660000D01*
X211557935Y-73660000D01*
X211575659Y-73652659D01*
X211583000Y-73634935D01*
X211583000Y-72970155D01*
X211581793Y-72957901D01*
X211555945Y-72827956D01*
X211546632Y-72805471D01*
X211448140Y-72658069D01*
X211430931Y-72640860D01*
X211283529Y-72542368D01*
X211261044Y-72533055D01*
X211131099Y-72507207D01*
X211118845Y-72506000D01*
X209829065Y-72506000D01*
X209811341Y-72513341D01*
X209804000Y-72531065D01*
X209804000Y-73634935D01*
X209296000Y-73634935D01*
X209296000Y-72531065D01*
X209288659Y-72513341D01*
X209270935Y-72506000D01*
X207981155Y-72506000D01*
X207968901Y-72507207D01*
X207838956Y-72533055D01*
X207816472Y-72542368D01*
X207714002Y-72610837D01*
X207619419Y-72629651D01*
X207539235Y-72576074D01*
X207518000Y-72506072D01*
X207518000Y-63627000D01*
X212852000Y-63627000D01*
X212852000Y-75439000D01*
G37*
%TD.AperFunction*%
%TD*%
%TA.AperFunction,Conductor*%
%TO.N,Net-(C13-Pad2)*%
G36*
X192578256Y-53757905D02*
G01*
X192615161Y-53847000D01*
X192578256Y-53936095D01*
X192559163Y-53951765D01*
X192361829Y-54083620D01*
X192344620Y-54100829D01*
X192190873Y-54330926D01*
X192181560Y-54353411D01*
X192141207Y-54556277D01*
X192140000Y-54568531D01*
X192140000Y-54682935D01*
X192147341Y-54700659D01*
X192165065Y-54708000D01*
X193676000Y-54708000D01*
X193765095Y-54744905D01*
X193802000Y-54834000D01*
X193802000Y-56019935D01*
X193809341Y-56037659D01*
X193827065Y-56045000D01*
X194266469Y-56045000D01*
X194278723Y-56043793D01*
X194481589Y-56003440D01*
X194504074Y-55994127D01*
X194734171Y-55840380D01*
X194751380Y-55823171D01*
X194841235Y-55688694D01*
X194921419Y-55635117D01*
X195016002Y-55653931D01*
X195069579Y-55734115D01*
X195072000Y-55758696D01*
X195072000Y-56516000D01*
X195035095Y-56605095D01*
X194946000Y-56642000D01*
X190881000Y-56642000D01*
X190881000Y-55355469D01*
X192140000Y-55355469D01*
X192141207Y-55367723D01*
X192181560Y-55570589D01*
X192190873Y-55593074D01*
X192344620Y-55823171D01*
X192361829Y-55840380D01*
X192591926Y-55994127D01*
X192614411Y-56003440D01*
X192817277Y-56043793D01*
X192829531Y-56045000D01*
X193268935Y-56045000D01*
X193286659Y-56037659D01*
X193294000Y-56019935D01*
X193294000Y-55241065D01*
X193286659Y-55223341D01*
X193268935Y-55216000D01*
X192165065Y-55216000D01*
X192147341Y-55223341D01*
X192140000Y-55241065D01*
X192140000Y-55355469D01*
X190881000Y-55355469D01*
X190881000Y-53721000D01*
X192489161Y-53721000D01*
X192578256Y-53757905D01*
G37*
%TD.AperFunction*%
%TD*%
%TA.AperFunction,Conductor*%
%TO.N,Net-(C17-Pad1)*%
G36*
X214339095Y-87027905D02*
G01*
X214376000Y-87117000D01*
X214376000Y-92445740D01*
X214339095Y-92534835D01*
X214250000Y-92571740D01*
X214179997Y-92550504D01*
X214170074Y-92543874D01*
X214147589Y-92534560D01*
X213944723Y-92494207D01*
X213932469Y-92493000D01*
X213893065Y-92493000D01*
X213875341Y-92500341D01*
X213868000Y-92518065D01*
X213868000Y-94933935D01*
X213875341Y-94951659D01*
X213893065Y-94959000D01*
X213932469Y-94959000D01*
X213944723Y-94957793D01*
X214147589Y-94917440D01*
X214170074Y-94908126D01*
X214179997Y-94901496D01*
X214274580Y-94882681D01*
X214354764Y-94936257D01*
X214376000Y-95006260D01*
X214376000Y-95374000D01*
X214339095Y-95463095D01*
X214250000Y-95500000D01*
X209549000Y-95500000D01*
X209459905Y-95463095D01*
X209423000Y-95374000D01*
X209423000Y-94269469D01*
X212606000Y-94269469D01*
X212607207Y-94281723D01*
X212647560Y-94484589D01*
X212656873Y-94507074D01*
X212810620Y-94737171D01*
X212827829Y-94754380D01*
X213057926Y-94908127D01*
X213080411Y-94917440D01*
X213283277Y-94957793D01*
X213295531Y-94959000D01*
X213334935Y-94959000D01*
X213352659Y-94951659D01*
X213360000Y-94933935D01*
X213360000Y-94005065D01*
X213352659Y-93987341D01*
X213334935Y-93980000D01*
X212631065Y-93980000D01*
X212613341Y-93987341D01*
X212606000Y-94005065D01*
X212606000Y-94269469D01*
X209423000Y-94269469D01*
X209423000Y-93446935D01*
X212606000Y-93446935D01*
X212613341Y-93464659D01*
X212631065Y-93472000D01*
X213334935Y-93472000D01*
X213352659Y-93464659D01*
X213360000Y-93446935D01*
X213360000Y-92518065D01*
X213352659Y-92500341D01*
X213334935Y-92493000D01*
X213295531Y-92493000D01*
X213283277Y-92494207D01*
X213080411Y-92534560D01*
X213057926Y-92543873D01*
X212827829Y-92697620D01*
X212810620Y-92714829D01*
X212656873Y-92944926D01*
X212647560Y-92967411D01*
X212607207Y-93170277D01*
X212606000Y-93182531D01*
X212606000Y-93446935D01*
X209423000Y-93446935D01*
X209423000Y-91396469D01*
X211896000Y-91396469D01*
X211897207Y-91408723D01*
X211937560Y-91611589D01*
X211946873Y-91634074D01*
X212100620Y-91864171D01*
X212117829Y-91881380D01*
X212347926Y-92035127D01*
X212370411Y-92044440D01*
X212573277Y-92084793D01*
X212585531Y-92086000D01*
X212699935Y-92086000D01*
X212717659Y-92078659D01*
X212725000Y-92060935D01*
X213233000Y-92060935D01*
X213240341Y-92078659D01*
X213258065Y-92086000D01*
X213372469Y-92086000D01*
X213384723Y-92084793D01*
X213587589Y-92044440D01*
X213610074Y-92035127D01*
X213840171Y-91881380D01*
X213857380Y-91864171D01*
X214011127Y-91634074D01*
X214020440Y-91611589D01*
X214060793Y-91408723D01*
X214062000Y-91396469D01*
X214062000Y-90957065D01*
X214054659Y-90939341D01*
X214036935Y-90932000D01*
X213258065Y-90932000D01*
X213240341Y-90939341D01*
X213233000Y-90957065D01*
X213233000Y-92060935D01*
X212725000Y-92060935D01*
X212725000Y-90957065D01*
X212717659Y-90939341D01*
X212699935Y-90932000D01*
X211921065Y-90932000D01*
X211903341Y-90939341D01*
X211896000Y-90957065D01*
X211896000Y-91396469D01*
X209423000Y-91396469D01*
X209423000Y-90398935D01*
X211896000Y-90398935D01*
X211903341Y-90416659D01*
X211921065Y-90424000D01*
X212699935Y-90424000D01*
X212717659Y-90416659D01*
X212725000Y-90398935D01*
X213233000Y-90398935D01*
X213240341Y-90416659D01*
X213258065Y-90424000D01*
X214036935Y-90424000D01*
X214054659Y-90416659D01*
X214062000Y-90398935D01*
X214062000Y-89959531D01*
X214060793Y-89947277D01*
X214020440Y-89744411D01*
X214011127Y-89721926D01*
X213857380Y-89491829D01*
X213840171Y-89474620D01*
X213610074Y-89320873D01*
X213587589Y-89311560D01*
X213384723Y-89271207D01*
X213372469Y-89270000D01*
X213258065Y-89270000D01*
X213240341Y-89277341D01*
X213233000Y-89295065D01*
X213233000Y-90398935D01*
X212725000Y-90398935D01*
X212725000Y-89295065D01*
X212717659Y-89277341D01*
X212699935Y-89270000D01*
X212585531Y-89270000D01*
X212573277Y-89271207D01*
X212370411Y-89311560D01*
X212347926Y-89320873D01*
X212117829Y-89474620D01*
X212100620Y-89491829D01*
X211946873Y-89721926D01*
X211937560Y-89744411D01*
X211897207Y-89947277D01*
X211896000Y-89959531D01*
X211896000Y-90398935D01*
X209423000Y-90398935D01*
X209423000Y-88547469D01*
X209858123Y-88547469D01*
X209862097Y-88557061D01*
X209977017Y-88633849D01*
X209999509Y-88643165D01*
X210393829Y-88721600D01*
X210418171Y-88721600D01*
X210812491Y-88643165D01*
X210834983Y-88633849D01*
X210943420Y-88561393D01*
X210954077Y-88545444D01*
X210952051Y-88535261D01*
X210423724Y-88006934D01*
X210406000Y-87999592D01*
X210388276Y-88006934D01*
X209865465Y-88529745D01*
X209858123Y-88547469D01*
X209423000Y-88547469D01*
X209423000Y-88294920D01*
X209459905Y-88205825D01*
X209478715Y-88195771D01*
X209478597Y-88195627D01*
X209492910Y-88183880D01*
X210316905Y-87359885D01*
X210406000Y-87322980D01*
X210495095Y-87359885D01*
X211305745Y-88170535D01*
X211323469Y-88177877D01*
X211333061Y-88173903D01*
X211409849Y-88058983D01*
X211419165Y-88036491D01*
X211497600Y-87642171D01*
X211497600Y-87617829D01*
X211419165Y-87223509D01*
X211409848Y-87201014D01*
X211400484Y-87187000D01*
X211381671Y-87092417D01*
X211435250Y-87012234D01*
X211505250Y-86991000D01*
X214250000Y-86991000D01*
X214339095Y-87027905D01*
G37*
%TD.AperFunction*%
%TD*%
%TA.AperFunction,Conductor*%
%TO.N,GND*%
G36*
X219357595Y-60107905D02*
G01*
X219394500Y-60197000D01*
X219394500Y-60337510D01*
X219357595Y-60426605D01*
X219268500Y-60463510D01*
X219198498Y-60442275D01*
X219120074Y-60389873D01*
X219097589Y-60380560D01*
X218894723Y-60340207D01*
X218882469Y-60339000D01*
X218780565Y-60339000D01*
X218762841Y-60346341D01*
X218755500Y-60364065D01*
X218755500Y-63079935D01*
X218762841Y-63097659D01*
X218780565Y-63105000D01*
X218882469Y-63105000D01*
X218894723Y-63103793D01*
X219097589Y-63063440D01*
X219120074Y-63054127D01*
X219198498Y-63001725D01*
X219293081Y-62982911D01*
X219373265Y-63036488D01*
X219394500Y-63106490D01*
X219394500Y-65544510D01*
X219357595Y-65633605D01*
X219268500Y-65670510D01*
X219198498Y-65649275D01*
X219120074Y-65596873D01*
X219097589Y-65587560D01*
X218894723Y-65547207D01*
X218882469Y-65546000D01*
X218780565Y-65546000D01*
X218762841Y-65553341D01*
X218755500Y-65571065D01*
X218755500Y-68286935D01*
X218762841Y-68304659D01*
X218780565Y-68312000D01*
X218882469Y-68312000D01*
X218894723Y-68310793D01*
X219097589Y-68270440D01*
X219120074Y-68261127D01*
X219198498Y-68208725D01*
X219293081Y-68189911D01*
X219373265Y-68243488D01*
X219394500Y-68313490D01*
X219394500Y-68962000D01*
X219357595Y-69051095D01*
X219268500Y-69088000D01*
X217107500Y-69088000D01*
X217018405Y-69051095D01*
X216981500Y-68962000D01*
X216981500Y-67622469D01*
X217431000Y-67622469D01*
X217432207Y-67634723D01*
X217472560Y-67837589D01*
X217481873Y-67860074D01*
X217635620Y-68090171D01*
X217652829Y-68107380D01*
X217882926Y-68261127D01*
X217905411Y-68270440D01*
X218108277Y-68310793D01*
X218120531Y-68312000D01*
X218222435Y-68312000D01*
X218240159Y-68304659D01*
X218247500Y-68286935D01*
X218247500Y-67208065D01*
X218240159Y-67190341D01*
X218222435Y-67183000D01*
X217456065Y-67183000D01*
X217438341Y-67190341D01*
X217431000Y-67208065D01*
X217431000Y-67622469D01*
X216981500Y-67622469D01*
X216981500Y-66649935D01*
X217431000Y-66649935D01*
X217438341Y-66667659D01*
X217456065Y-66675000D01*
X218222435Y-66675000D01*
X218240159Y-66667659D01*
X218247500Y-66649935D01*
X218247500Y-65571065D01*
X218240159Y-65553341D01*
X218222435Y-65546000D01*
X218120531Y-65546000D01*
X218108277Y-65547207D01*
X217905411Y-65587560D01*
X217882926Y-65596873D01*
X217652829Y-65750620D01*
X217635620Y-65767829D01*
X217481873Y-65997926D01*
X217472560Y-66020411D01*
X217432207Y-66223277D01*
X217431000Y-66235531D01*
X217431000Y-66649935D01*
X216981500Y-66649935D01*
X216981500Y-62415469D01*
X217431000Y-62415469D01*
X217432207Y-62427723D01*
X217472560Y-62630589D01*
X217481873Y-62653074D01*
X217635620Y-62883171D01*
X217652829Y-62900380D01*
X217882926Y-63054127D01*
X217905411Y-63063440D01*
X218108277Y-63103793D01*
X218120531Y-63105000D01*
X218222435Y-63105000D01*
X218240159Y-63097659D01*
X218247500Y-63079935D01*
X218247500Y-62001065D01*
X218240159Y-61983341D01*
X218222435Y-61976000D01*
X217456065Y-61976000D01*
X217438341Y-61983341D01*
X217431000Y-62001065D01*
X217431000Y-62415469D01*
X216981500Y-62415469D01*
X216981500Y-61442935D01*
X217431000Y-61442935D01*
X217438341Y-61460659D01*
X217456065Y-61468000D01*
X218222435Y-61468000D01*
X218240159Y-61460659D01*
X218247500Y-61442935D01*
X218247500Y-60364065D01*
X218240159Y-60346341D01*
X218222435Y-60339000D01*
X218120531Y-60339000D01*
X218108277Y-60340207D01*
X217905411Y-60380560D01*
X217882926Y-60389873D01*
X217652829Y-60543620D01*
X217635620Y-60560829D01*
X217481873Y-60790926D01*
X217472560Y-60813411D01*
X217432207Y-61016277D01*
X217431000Y-61028531D01*
X217431000Y-61442935D01*
X216981500Y-61442935D01*
X216981500Y-60197000D01*
X217018405Y-60107905D01*
X217107500Y-60071000D01*
X219268500Y-60071000D01*
X219357595Y-60107905D01*
G37*
%TD.AperFunction*%
%TD*%
%TA.AperFunction,Conductor*%
%TO.N,Net-(C17-Pad2)*%
G36*
X220054095Y-86650905D02*
G01*
X220091000Y-86740000D01*
X220091000Y-91695000D01*
X220054095Y-91784095D01*
X219965000Y-91821000D01*
X215391000Y-91821000D01*
X215301905Y-91784095D01*
X215265000Y-91695000D01*
X215265000Y-89407000D01*
X215301905Y-89317905D01*
X215391000Y-89281000D01*
X217551000Y-89281000D01*
X217551000Y-88820734D01*
X217587905Y-88731639D01*
X217677000Y-88694734D01*
X217701580Y-88697155D01*
X217724896Y-88701793D01*
X217737155Y-88703000D01*
X218066935Y-88703000D01*
X218084659Y-88695659D01*
X218092000Y-88677935D01*
X218600000Y-88677935D01*
X218607341Y-88695659D01*
X218625065Y-88703000D01*
X218954845Y-88703000D01*
X218967099Y-88701793D01*
X219097044Y-88675945D01*
X219119529Y-88666632D01*
X219266931Y-88568140D01*
X219284140Y-88550931D01*
X219382632Y-88403529D01*
X219391945Y-88381044D01*
X219417793Y-88251099D01*
X219419000Y-88238845D01*
X219419000Y-87909065D01*
X219411659Y-87891341D01*
X219393935Y-87884000D01*
X218625065Y-87884000D01*
X218607341Y-87891341D01*
X218600000Y-87909065D01*
X218600000Y-88677935D01*
X218092000Y-88677935D01*
X218092000Y-87502000D01*
X218128905Y-87412905D01*
X218218000Y-87376000D01*
X219393935Y-87376000D01*
X219411659Y-87368659D01*
X219419000Y-87350935D01*
X219419000Y-87021155D01*
X219417793Y-87008901D01*
X219391945Y-86878956D01*
X219382632Y-86856471D01*
X219351582Y-86810002D01*
X219332768Y-86715418D01*
X219386345Y-86635235D01*
X219456347Y-86614000D01*
X219965000Y-86614000D01*
X220054095Y-86650905D01*
G37*
%TD.AperFunction*%
%TD*%
%TA.AperFunction,Conductor*%
%TO.N,GND*%
G36*
X188050095Y-54138905D02*
G01*
X188087000Y-54228000D01*
X188087000Y-54553266D01*
X188050095Y-54642361D01*
X187961000Y-54679266D01*
X187912780Y-54669674D01*
X187904041Y-54666054D01*
X187774099Y-54640207D01*
X187761845Y-54639000D01*
X187668065Y-54639000D01*
X187650341Y-54646341D01*
X187643000Y-54664065D01*
X187643000Y-55471000D01*
X187606095Y-55560095D01*
X187517000Y-55597000D01*
X186635065Y-55597000D01*
X186617341Y-55604341D01*
X186610000Y-55622065D01*
X186610000Y-55640845D01*
X186611207Y-55653099D01*
X186637055Y-55783044D01*
X186646368Y-55805529D01*
X186744860Y-55952931D01*
X186762069Y-55970140D01*
X186919788Y-56075525D01*
X186916056Y-56081110D01*
X186967601Y-56132656D01*
X186967599Y-56229091D01*
X186954381Y-56261000D01*
X186944000Y-56261000D01*
X186944000Y-57613500D01*
X186907095Y-57702595D01*
X186861695Y-57721401D01*
X186865219Y-57729909D01*
X186824341Y-57746841D01*
X186817000Y-57764565D01*
X186817000Y-59138000D01*
X186780095Y-59227095D01*
X186691000Y-59264000D01*
X185730065Y-59264000D01*
X185712341Y-59271341D01*
X185705000Y-59289065D01*
X185705000Y-59816345D01*
X185706207Y-59828599D01*
X185732055Y-59958544D01*
X185741368Y-59981029D01*
X185839860Y-60128431D01*
X185857069Y-60145640D01*
X186004471Y-60244132D01*
X186026957Y-60253446D01*
X186133582Y-60274655D01*
X186213765Y-60328232D01*
X186235000Y-60398234D01*
X186235000Y-61442935D01*
X186242341Y-61460659D01*
X186260065Y-61468000D01*
X190675935Y-61468000D01*
X190693659Y-61460659D01*
X190701000Y-61442935D01*
X190701000Y-60451000D01*
X190737905Y-60361905D01*
X190827000Y-60325000D01*
X191791093Y-60325000D01*
X191880188Y-60361905D01*
X191917093Y-60451000D01*
X191880188Y-60540095D01*
X191861095Y-60555765D01*
X191853829Y-60560620D01*
X191836620Y-60577829D01*
X191682873Y-60807926D01*
X191673560Y-60830411D01*
X191633207Y-61033277D01*
X191632000Y-61045531D01*
X191632000Y-61159935D01*
X191639341Y-61177659D01*
X191657065Y-61185000D01*
X196962935Y-61185000D01*
X196980659Y-61177659D01*
X196988000Y-61159935D01*
X196988000Y-61045531D01*
X196986793Y-61033277D01*
X196946440Y-60830411D01*
X196937127Y-60807926D01*
X196783380Y-60577829D01*
X196766171Y-60560620D01*
X196758905Y-60555765D01*
X196705328Y-60475581D01*
X196724142Y-60380998D01*
X196804326Y-60327421D01*
X196828907Y-60325000D01*
X197359000Y-60325000D01*
X197448095Y-60361905D01*
X197485000Y-60451000D01*
X197485000Y-62231000D01*
X197448095Y-62320095D01*
X197359000Y-62357000D01*
X196981138Y-62357000D01*
X196892043Y-62320095D01*
X196855138Y-62231000D01*
X196876373Y-62160998D01*
X196937127Y-62070074D01*
X196946440Y-62047589D01*
X196986793Y-61844723D01*
X196988000Y-61832469D01*
X196988000Y-61718065D01*
X196980659Y-61700341D01*
X196962935Y-61693000D01*
X191657065Y-61693000D01*
X191639341Y-61700341D01*
X191632000Y-61718065D01*
X191632000Y-61832469D01*
X191633207Y-61844723D01*
X191673560Y-62047589D01*
X191682873Y-62070074D01*
X191743627Y-62160998D01*
X191762441Y-62255581D01*
X191708864Y-62335765D01*
X191638862Y-62357000D01*
X190881000Y-62357000D01*
X190881000Y-62367381D01*
X190875219Y-62369776D01*
X190778783Y-62369777D01*
X190710592Y-62301587D01*
X190701000Y-62253368D01*
X190701000Y-62001065D01*
X190693659Y-61983341D01*
X190675935Y-61976000D01*
X186260065Y-61976000D01*
X186242341Y-61983341D01*
X186235000Y-62001065D01*
X186235000Y-63045256D01*
X186198095Y-63134351D01*
X186133582Y-63168835D01*
X186026764Y-63190083D01*
X186014593Y-63192504D01*
X185966310Y-63224766D01*
X185896310Y-63246000D01*
X169925000Y-63246000D01*
X169835905Y-63209095D01*
X169799000Y-63120000D01*
X169799000Y-61959469D01*
X182742000Y-61959469D01*
X182743207Y-61971723D01*
X182783560Y-62174589D01*
X182792873Y-62197074D01*
X182946620Y-62427171D01*
X182963829Y-62444380D01*
X183193926Y-62598127D01*
X183216411Y-62607440D01*
X183419277Y-62647793D01*
X183431531Y-62649000D01*
X183870935Y-62649000D01*
X183888659Y-62641659D01*
X183896000Y-62623935D01*
X184404000Y-62623935D01*
X184411341Y-62641659D01*
X184429065Y-62649000D01*
X184868469Y-62649000D01*
X184880723Y-62647793D01*
X185083589Y-62607440D01*
X185106074Y-62598127D01*
X185336171Y-62444380D01*
X185353380Y-62427171D01*
X185507127Y-62197074D01*
X185516440Y-62174589D01*
X185556793Y-61971723D01*
X185558000Y-61959469D01*
X185558000Y-61845065D01*
X185550659Y-61827341D01*
X185532935Y-61820000D01*
X184429065Y-61820000D01*
X184411341Y-61827341D01*
X184404000Y-61845065D01*
X184404000Y-62623935D01*
X183896000Y-62623935D01*
X183896000Y-61845065D01*
X183888659Y-61827341D01*
X183870935Y-61820000D01*
X182767065Y-61820000D01*
X182749341Y-61827341D01*
X182742000Y-61845065D01*
X182742000Y-61959469D01*
X169799000Y-61959469D01*
X169799000Y-61286935D01*
X182742000Y-61286935D01*
X182749341Y-61304659D01*
X182767065Y-61312000D01*
X183870935Y-61312000D01*
X183888659Y-61304659D01*
X183896000Y-61286935D01*
X184404000Y-61286935D01*
X184411341Y-61304659D01*
X184429065Y-61312000D01*
X185532935Y-61312000D01*
X185550659Y-61304659D01*
X185558000Y-61286935D01*
X185558000Y-61172531D01*
X185556793Y-61160277D01*
X185516440Y-60957411D01*
X185507127Y-60934926D01*
X185353380Y-60704829D01*
X185336171Y-60687620D01*
X185106074Y-60533873D01*
X185083589Y-60524560D01*
X184880723Y-60484207D01*
X184868469Y-60483000D01*
X184429065Y-60483000D01*
X184411341Y-60490341D01*
X184404000Y-60508065D01*
X184404000Y-61286935D01*
X183896000Y-61286935D01*
X183896000Y-60508065D01*
X183888659Y-60490341D01*
X183870935Y-60483000D01*
X183431531Y-60483000D01*
X183419277Y-60484207D01*
X183216411Y-60524560D01*
X183193926Y-60533873D01*
X182963829Y-60687620D01*
X182946620Y-60704829D01*
X182792873Y-60934926D01*
X182783560Y-60957411D01*
X182743207Y-61160277D01*
X182742000Y-61172531D01*
X182742000Y-61286935D01*
X169799000Y-61286935D01*
X169799000Y-58485845D01*
X171820000Y-58485845D01*
X171821207Y-58498099D01*
X171847055Y-58628044D01*
X171856368Y-58650529D01*
X171954860Y-58797931D01*
X171972069Y-58815140D01*
X172119471Y-58913632D01*
X172141956Y-58922945D01*
X172271901Y-58948793D01*
X172284155Y-58950000D01*
X172948935Y-58950000D01*
X172966659Y-58942659D01*
X172974000Y-58924935D01*
X173482000Y-58924935D01*
X173489341Y-58942659D01*
X173507065Y-58950000D01*
X174171845Y-58950000D01*
X174184099Y-58948793D01*
X174314044Y-58922945D01*
X174336529Y-58913632D01*
X174483931Y-58815140D01*
X174501140Y-58797931D01*
X174545906Y-58730935D01*
X185705000Y-58730935D01*
X185712341Y-58748659D01*
X185730065Y-58756000D01*
X186283935Y-58756000D01*
X186301659Y-58748659D01*
X186309000Y-58730935D01*
X186309000Y-57764565D01*
X186301659Y-57746841D01*
X186283935Y-57739500D01*
X186169155Y-57739500D01*
X186156901Y-57740707D01*
X186026956Y-57766555D01*
X186004471Y-57775868D01*
X185857069Y-57874360D01*
X185839860Y-57891569D01*
X185741368Y-58038971D01*
X185732055Y-58061456D01*
X185706207Y-58191401D01*
X185705000Y-58203655D01*
X185705000Y-58730935D01*
X174545906Y-58730935D01*
X174599632Y-58650529D01*
X174608945Y-58628044D01*
X174634793Y-58498099D01*
X174636000Y-58485845D01*
X174636000Y-57826469D01*
X178551000Y-57826469D01*
X178552207Y-57838723D01*
X178592560Y-58041589D01*
X178601873Y-58064074D01*
X178755620Y-58294171D01*
X178772829Y-58311380D01*
X179002926Y-58465127D01*
X179025411Y-58474440D01*
X179228277Y-58514793D01*
X179240531Y-58516000D01*
X179679935Y-58516000D01*
X179697659Y-58508659D01*
X179705000Y-58490935D01*
X180213000Y-58490935D01*
X180220341Y-58508659D01*
X180238065Y-58516000D01*
X180677469Y-58516000D01*
X180689723Y-58514793D01*
X180892589Y-58474440D01*
X180915074Y-58465127D01*
X181145171Y-58311380D01*
X181162380Y-58294171D01*
X181316127Y-58064074D01*
X181325440Y-58041589D01*
X181365793Y-57838723D01*
X181367000Y-57826469D01*
X181367000Y-57712065D01*
X181359659Y-57694341D01*
X181341935Y-57687000D01*
X180238065Y-57687000D01*
X180220341Y-57694341D01*
X180213000Y-57712065D01*
X180213000Y-58490935D01*
X179705000Y-58490935D01*
X179705000Y-57712065D01*
X179697659Y-57694341D01*
X179679935Y-57687000D01*
X178576065Y-57687000D01*
X178558341Y-57694341D01*
X178551000Y-57712065D01*
X178551000Y-57826469D01*
X174636000Y-57826469D01*
X174636000Y-57196065D01*
X174628659Y-57178341D01*
X174610935Y-57171000D01*
X173507065Y-57171000D01*
X173489341Y-57178341D01*
X173482000Y-57196065D01*
X173482000Y-58924935D01*
X172974000Y-58924935D01*
X172974000Y-57196065D01*
X172966659Y-57178341D01*
X172948935Y-57171000D01*
X171845065Y-57171000D01*
X171827341Y-57178341D01*
X171820000Y-57196065D01*
X171820000Y-58485845D01*
X169799000Y-58485845D01*
X169799000Y-56637935D01*
X171820000Y-56637935D01*
X171827341Y-56655659D01*
X171845065Y-56663000D01*
X172948935Y-56663000D01*
X172966659Y-56655659D01*
X172974000Y-56637935D01*
X173482000Y-56637935D01*
X173489341Y-56655659D01*
X173507065Y-56663000D01*
X174610935Y-56663000D01*
X174628659Y-56655659D01*
X174636000Y-56637935D01*
X174636000Y-55348155D01*
X174634793Y-55335901D01*
X174608945Y-55205956D01*
X174599632Y-55183471D01*
X174501140Y-55036069D01*
X174483931Y-55018860D01*
X174336529Y-54920368D01*
X174314044Y-54911055D01*
X174184099Y-54885207D01*
X174171845Y-54884000D01*
X173507065Y-54884000D01*
X173489341Y-54891341D01*
X173482000Y-54909065D01*
X173482000Y-56637935D01*
X172974000Y-56637935D01*
X172974000Y-54909065D01*
X172966659Y-54891341D01*
X172948935Y-54884000D01*
X172284155Y-54884000D01*
X172271901Y-54885207D01*
X172141956Y-54911055D01*
X172119471Y-54920368D01*
X171972069Y-55018860D01*
X171954860Y-55036069D01*
X171856368Y-55183471D01*
X171847055Y-55205956D01*
X171821207Y-55335901D01*
X171820000Y-55348155D01*
X171820000Y-56637935D01*
X169799000Y-56637935D01*
X169799000Y-54736000D01*
X169835905Y-54646905D01*
X169925000Y-54610000D01*
X177039000Y-54610000D01*
X177128095Y-54646905D01*
X177165000Y-54736000D01*
X177165000Y-56515000D01*
X178557862Y-56515000D01*
X178646957Y-56551905D01*
X178683862Y-56641000D01*
X178662627Y-56711002D01*
X178601873Y-56801926D01*
X178592560Y-56824411D01*
X178552207Y-57027277D01*
X178551000Y-57039531D01*
X178551000Y-57153935D01*
X178558341Y-57171659D01*
X178576065Y-57179000D01*
X181341935Y-57179000D01*
X181359659Y-57171659D01*
X181367000Y-57153935D01*
X181367000Y-57039531D01*
X181365793Y-57027277D01*
X181325440Y-56824411D01*
X181316127Y-56801926D01*
X181255373Y-56711002D01*
X181236559Y-56616419D01*
X181290136Y-56536235D01*
X181360138Y-56515000D01*
X182753000Y-56515000D01*
X182753000Y-55121935D01*
X186610000Y-55121935D01*
X186617341Y-55139659D01*
X186635065Y-55147000D01*
X187167935Y-55147000D01*
X187185659Y-55139659D01*
X187193000Y-55121935D01*
X187193000Y-54664065D01*
X187185659Y-54646341D01*
X187167935Y-54639000D01*
X187074155Y-54639000D01*
X187061901Y-54640207D01*
X186931956Y-54666055D01*
X186909471Y-54675368D01*
X186762069Y-54773860D01*
X186744860Y-54791069D01*
X186646368Y-54938471D01*
X186637055Y-54960956D01*
X186611207Y-55090901D01*
X186610000Y-55103155D01*
X186610000Y-55121935D01*
X182753000Y-55121935D01*
X182753000Y-54228000D01*
X182789905Y-54138905D01*
X182879000Y-54102000D01*
X187961000Y-54102000D01*
X188050095Y-54138905D01*
G37*
%TD.AperFunction*%
%TD*%
%TA.AperFunction,Conductor*%
%TO.N,GND*%
G36*
X160649645Y-91476905D02*
G01*
X161759421Y-92586681D01*
X161796326Y-92675947D01*
X161795168Y-93531342D01*
X161758143Y-93620387D01*
X161668997Y-93657171D01*
X161599166Y-93635936D01*
X161532474Y-93591373D01*
X161509989Y-93582060D01*
X161307123Y-93541707D01*
X161294869Y-93540500D01*
X160880465Y-93540500D01*
X160862741Y-93547841D01*
X160855400Y-93565565D01*
X160855400Y-94739000D01*
X160818495Y-94828095D01*
X160729400Y-94865000D01*
X159599197Y-94865000D01*
X159561494Y-94872500D01*
X154201906Y-94872500D01*
X154164203Y-94865000D01*
X151804065Y-94865000D01*
X151786341Y-94872341D01*
X151779000Y-94890065D01*
X151779000Y-94991969D01*
X151780207Y-95004225D01*
X151816552Y-95186943D01*
X151797738Y-95281526D01*
X151717554Y-95335103D01*
X151622971Y-95316289D01*
X151603878Y-95300619D01*
X151416053Y-95112794D01*
X151379148Y-95023528D01*
X151380061Y-94349659D01*
X151380085Y-94331935D01*
X151779000Y-94331935D01*
X151786341Y-94349659D01*
X151804065Y-94357000D01*
X152882935Y-94357000D01*
X152900659Y-94349659D01*
X152908000Y-94331935D01*
X153416000Y-94331935D01*
X153423341Y-94349659D01*
X153441065Y-94357000D01*
X154566894Y-94357000D01*
X154604597Y-94364500D01*
X155352735Y-94364500D01*
X155370459Y-94357159D01*
X155377800Y-94339435D01*
X155885800Y-94339435D01*
X155893141Y-94357159D01*
X155910865Y-94364500D01*
X157852535Y-94364500D01*
X157870259Y-94357159D01*
X157877600Y-94339435D01*
X158385600Y-94339435D01*
X158392941Y-94357159D01*
X158410665Y-94364500D01*
X159158803Y-94364500D01*
X159196506Y-94357000D01*
X160322335Y-94357000D01*
X160340059Y-94349659D01*
X160347400Y-94331935D01*
X160347400Y-93565565D01*
X160340059Y-93547841D01*
X160322335Y-93540500D01*
X159907931Y-93540500D01*
X159895677Y-93541707D01*
X159692811Y-93582060D01*
X159670326Y-93591373D01*
X159452744Y-93736758D01*
X159358161Y-93755572D01*
X159312740Y-93736758D01*
X159087674Y-93586373D01*
X159065189Y-93577060D01*
X158862323Y-93536707D01*
X158850069Y-93535500D01*
X158410665Y-93535500D01*
X158392941Y-93542841D01*
X158385600Y-93560565D01*
X158385600Y-94339435D01*
X157877600Y-94339435D01*
X157877600Y-93560565D01*
X157870259Y-93542841D01*
X157852535Y-93535500D01*
X157413131Y-93535500D01*
X157400877Y-93536707D01*
X157198011Y-93577060D01*
X157175526Y-93586373D01*
X156951702Y-93735929D01*
X156857119Y-93754743D01*
X156811698Y-93735929D01*
X156587874Y-93586373D01*
X156565389Y-93577060D01*
X156362523Y-93536707D01*
X156350269Y-93535500D01*
X155910865Y-93535500D01*
X155893141Y-93542841D01*
X155885800Y-93560565D01*
X155885800Y-94339435D01*
X155377800Y-94339435D01*
X155377800Y-93560565D01*
X155370459Y-93542841D01*
X155352735Y-93535500D01*
X154913331Y-93535500D01*
X154901077Y-93536707D01*
X154698211Y-93577060D01*
X154675726Y-93586373D01*
X154450660Y-93736758D01*
X154356077Y-93755572D01*
X154310656Y-93736758D01*
X154093074Y-93591373D01*
X154070589Y-93582060D01*
X153867723Y-93541707D01*
X153855469Y-93540500D01*
X153441065Y-93540500D01*
X153423341Y-93547841D01*
X153416000Y-93565565D01*
X153416000Y-94331935D01*
X152908000Y-94331935D01*
X152908000Y-93565565D01*
X152900659Y-93547841D01*
X152882935Y-93540500D01*
X152468531Y-93540500D01*
X152456277Y-93541707D01*
X152253411Y-93582060D01*
X152230926Y-93591373D01*
X152000829Y-93745120D01*
X151983620Y-93762329D01*
X151829873Y-93992426D01*
X151820560Y-94014911D01*
X151780207Y-94217777D01*
X151779000Y-94230031D01*
X151779000Y-94331935D01*
X151380085Y-94331935D01*
X151380890Y-93736758D01*
X151383830Y-91565829D01*
X151420855Y-91476784D01*
X151509830Y-91440000D01*
X160560550Y-91440000D01*
X160649645Y-91476905D01*
G37*
%TD.AperFunction*%
%TD*%
%TA.AperFunction,Conductor*%
%TO.N,/Phase_B*%
G36*
X178017095Y-126274905D02*
G01*
X178054000Y-126364000D01*
X178054000Y-131954000D01*
X178017095Y-132043095D01*
X177928000Y-132080000D01*
X177292000Y-132080000D01*
X177291769Y-132104757D01*
X177039167Y-159133178D01*
X177001432Y-159221924D01*
X176913173Y-159258000D01*
X170814000Y-159258000D01*
X170724905Y-159221095D01*
X170688000Y-159132000D01*
X170688000Y-126364000D01*
X170724905Y-126274905D01*
X170814000Y-126238000D01*
X177928000Y-126238000D01*
X178017095Y-126274905D01*
G37*
%TD.AperFunction*%
%TD*%
%TA.AperFunction,Conductor*%
%TO.N,Net-(C13-Pad2)*%
G36*
X191606095Y-43724905D02*
G01*
X191643000Y-43814000D01*
X191643000Y-44192357D01*
X191606095Y-44281452D01*
X191517000Y-44318357D01*
X191492418Y-44315936D01*
X191368099Y-44291207D01*
X191355845Y-44290000D01*
X190141065Y-44290000D01*
X190123341Y-44297341D01*
X190116000Y-44315065D01*
X190116000Y-50680935D01*
X190123341Y-50698659D01*
X190141065Y-50706000D01*
X191355845Y-50706000D01*
X191368099Y-50704793D01*
X191492418Y-50680064D01*
X191587001Y-50698878D01*
X191640579Y-50779061D01*
X191643000Y-50803643D01*
X191643000Y-57786000D01*
X191606095Y-57875095D01*
X191517000Y-57912000D01*
X191168761Y-57912000D01*
X191090393Y-57879538D01*
X191089247Y-57881253D01*
X191080626Y-57875493D01*
X191079666Y-57875095D01*
X191078931Y-57874360D01*
X190931529Y-57775868D01*
X190909044Y-57766555D01*
X190779099Y-57740707D01*
X190766845Y-57739500D01*
X190652065Y-57739500D01*
X190634341Y-57746841D01*
X190627000Y-57764565D01*
X190627000Y-57912000D01*
X190119000Y-57912000D01*
X190119000Y-57764565D01*
X190111659Y-57746841D01*
X190093935Y-57739500D01*
X189979155Y-57739500D01*
X189966901Y-57740707D01*
X189888582Y-57756286D01*
X189793999Y-57737473D01*
X189740421Y-57657289D01*
X189738000Y-57632707D01*
X189738000Y-56896000D01*
X188922334Y-56896000D01*
X188833239Y-56859095D01*
X188805925Y-56818218D01*
X188731591Y-56638760D01*
X188722000Y-56590542D01*
X188722000Y-56112278D01*
X188758905Y-56023183D01*
X188848000Y-55986278D01*
X188918002Y-56007513D01*
X189009472Y-56068632D01*
X189031956Y-56077945D01*
X189161901Y-56103793D01*
X189174155Y-56105000D01*
X189267935Y-56105000D01*
X189285659Y-56097659D01*
X189293000Y-56079935D01*
X189743000Y-56079935D01*
X189750341Y-56097659D01*
X189768065Y-56105000D01*
X189861845Y-56105000D01*
X189874099Y-56103793D01*
X190004044Y-56077945D01*
X190026529Y-56068632D01*
X190173931Y-55970140D01*
X190191140Y-55952931D01*
X190289632Y-55805529D01*
X190298945Y-55783044D01*
X190324793Y-55653099D01*
X190326000Y-55640845D01*
X190326000Y-55622065D01*
X190318659Y-55604341D01*
X190300935Y-55597000D01*
X189768065Y-55597000D01*
X189750341Y-55604341D01*
X189743000Y-55622065D01*
X189743000Y-56079935D01*
X189293000Y-56079935D01*
X189293000Y-55121935D01*
X189743000Y-55121935D01*
X189750341Y-55139659D01*
X189768065Y-55147000D01*
X190300935Y-55147000D01*
X190318659Y-55139659D01*
X190326000Y-55121935D01*
X190326000Y-55103155D01*
X190324793Y-55090901D01*
X190298945Y-54960956D01*
X190289632Y-54938471D01*
X190191140Y-54791069D01*
X190173931Y-54773860D01*
X190026529Y-54675368D01*
X190004044Y-54666055D01*
X189874099Y-54640207D01*
X189861845Y-54639000D01*
X189768065Y-54639000D01*
X189750341Y-54646341D01*
X189743000Y-54664065D01*
X189743000Y-55121935D01*
X189293000Y-55121935D01*
X189293000Y-54664065D01*
X189285659Y-54646341D01*
X189267935Y-54639000D01*
X189174155Y-54639000D01*
X189161901Y-54640207D01*
X189031956Y-54666055D01*
X189009472Y-54675368D01*
X188918002Y-54736487D01*
X188823419Y-54755301D01*
X188743235Y-54701724D01*
X188722000Y-54631722D01*
X188722000Y-52832000D01*
X187705000Y-52832000D01*
X187615905Y-52795095D01*
X187579000Y-52706000D01*
X187579000Y-50241845D01*
X187904000Y-50241845D01*
X187905207Y-50254099D01*
X187931055Y-50384044D01*
X187940368Y-50406529D01*
X188038860Y-50553931D01*
X188056069Y-50571140D01*
X188203471Y-50669632D01*
X188225956Y-50678945D01*
X188355901Y-50704793D01*
X188368155Y-50706000D01*
X189582935Y-50706000D01*
X189600659Y-50698659D01*
X189608000Y-50680935D01*
X189608000Y-47777065D01*
X189600659Y-47759341D01*
X189582935Y-47752000D01*
X187929065Y-47752000D01*
X187911341Y-47759341D01*
X187904000Y-47777065D01*
X187904000Y-50241845D01*
X187579000Y-50241845D01*
X187579000Y-47218935D01*
X187904000Y-47218935D01*
X187911341Y-47236659D01*
X187929065Y-47244000D01*
X189582935Y-47244000D01*
X189600659Y-47236659D01*
X189608000Y-47218935D01*
X189608000Y-44315065D01*
X189600659Y-44297341D01*
X189582935Y-44290000D01*
X188368155Y-44290000D01*
X188355901Y-44291207D01*
X188225956Y-44317055D01*
X188203471Y-44326368D01*
X188056069Y-44424860D01*
X188038860Y-44442069D01*
X187940368Y-44589471D01*
X187931055Y-44611956D01*
X187905207Y-44741901D01*
X187904000Y-44754155D01*
X187904000Y-47218935D01*
X187579000Y-47218935D01*
X187579000Y-43814000D01*
X187615905Y-43724905D01*
X187705000Y-43688000D01*
X191517000Y-43688000D01*
X191606095Y-43724905D01*
G37*
%TD.AperFunction*%
%TD*%
%TA.AperFunction,Conductor*%
%TO.N,+5V*%
G36*
X182208095Y-43978905D02*
G01*
X182245000Y-44068000D01*
X182245000Y-55627000D01*
X182208095Y-55716095D01*
X182119000Y-55753000D01*
X180974240Y-55753000D01*
X180885145Y-55716095D01*
X180848240Y-55627000D01*
X180885145Y-55537905D01*
X180906041Y-55523942D01*
X180904757Y-55522020D01*
X181145171Y-55361380D01*
X181162380Y-55344171D01*
X181316127Y-55114074D01*
X181325440Y-55091589D01*
X181365793Y-54888723D01*
X181367000Y-54876469D01*
X181367000Y-54762065D01*
X181359659Y-54744341D01*
X181341935Y-54737000D01*
X178576065Y-54737000D01*
X178558341Y-54744341D01*
X178551000Y-54762065D01*
X178551000Y-54876469D01*
X178552207Y-54888723D01*
X178592560Y-55091589D01*
X178601873Y-55114074D01*
X178755620Y-55344171D01*
X178772829Y-55361380D01*
X179013243Y-55522020D01*
X179009304Y-55527915D01*
X179060171Y-55578786D01*
X179060167Y-55675223D01*
X178991974Y-55743411D01*
X178943760Y-55753000D01*
X178053000Y-55753000D01*
X177963905Y-55716095D01*
X177927000Y-55627000D01*
X177927000Y-54203935D01*
X178551000Y-54203935D01*
X178558341Y-54221659D01*
X178576065Y-54229000D01*
X179679935Y-54229000D01*
X179697659Y-54221659D01*
X179705000Y-54203935D01*
X180213000Y-54203935D01*
X180220341Y-54221659D01*
X180238065Y-54229000D01*
X181341935Y-54229000D01*
X181359659Y-54221659D01*
X181367000Y-54203935D01*
X181367000Y-54089531D01*
X181365793Y-54077277D01*
X181325440Y-53874411D01*
X181316127Y-53851926D01*
X181162380Y-53621829D01*
X181145171Y-53604620D01*
X180915074Y-53450873D01*
X180892589Y-53441560D01*
X180689723Y-53401207D01*
X180677469Y-53400000D01*
X180238065Y-53400000D01*
X180220341Y-53407341D01*
X180213000Y-53425065D01*
X180213000Y-54203935D01*
X179705000Y-54203935D01*
X179705000Y-53425065D01*
X179697659Y-53407341D01*
X179679935Y-53400000D01*
X179240531Y-53400000D01*
X179228277Y-53401207D01*
X179025411Y-53441560D01*
X179002926Y-53450873D01*
X178772829Y-53604620D01*
X178755620Y-53621829D01*
X178601873Y-53851926D01*
X178592560Y-53874411D01*
X178552207Y-54077277D01*
X178551000Y-54089531D01*
X178551000Y-54203935D01*
X177927000Y-54203935D01*
X177927000Y-53594000D01*
X174728776Y-53594000D01*
X174639681Y-53557095D01*
X174602776Y-53468000D01*
X174608236Y-53440552D01*
X174606525Y-53440212D01*
X174634793Y-53298099D01*
X174636000Y-53285845D01*
X174636000Y-51996065D01*
X174628659Y-51978341D01*
X174610935Y-51971000D01*
X173100000Y-51971000D01*
X173010905Y-51934095D01*
X172974000Y-51845000D01*
X172974000Y-51437935D01*
X173482000Y-51437935D01*
X173489341Y-51455659D01*
X173507065Y-51463000D01*
X174610935Y-51463000D01*
X174628659Y-51455659D01*
X174636000Y-51437935D01*
X174636000Y-50241845D01*
X178004000Y-50241845D01*
X178005207Y-50254099D01*
X178031055Y-50384044D01*
X178040368Y-50406529D01*
X178138860Y-50553931D01*
X178156069Y-50571140D01*
X178303471Y-50669632D01*
X178325956Y-50678945D01*
X178455901Y-50704793D01*
X178468155Y-50706000D01*
X179682935Y-50706000D01*
X179700659Y-50698659D01*
X179708000Y-50680935D01*
X180216000Y-50680935D01*
X180223341Y-50698659D01*
X180241065Y-50706000D01*
X181455845Y-50706000D01*
X181468099Y-50704793D01*
X181598044Y-50678945D01*
X181620529Y-50669632D01*
X181767931Y-50571140D01*
X181785140Y-50553931D01*
X181883632Y-50406529D01*
X181892945Y-50384044D01*
X181918793Y-50254099D01*
X181920000Y-50241845D01*
X181920000Y-47777065D01*
X181912659Y-47759341D01*
X181894935Y-47752000D01*
X180241065Y-47752000D01*
X180223341Y-47759341D01*
X180216000Y-47777065D01*
X180216000Y-50680935D01*
X179708000Y-50680935D01*
X179708000Y-47777065D01*
X179700659Y-47759341D01*
X179682935Y-47752000D01*
X178029065Y-47752000D01*
X178011341Y-47759341D01*
X178004000Y-47777065D01*
X178004000Y-50241845D01*
X174636000Y-50241845D01*
X174636000Y-50148155D01*
X174634793Y-50135901D01*
X174608945Y-50005956D01*
X174599632Y-49983471D01*
X174501140Y-49836069D01*
X174483931Y-49818860D01*
X174336529Y-49720368D01*
X174314044Y-49711055D01*
X174184099Y-49685207D01*
X174171845Y-49684000D01*
X173507065Y-49684000D01*
X173489341Y-49691341D01*
X173482000Y-49709065D01*
X173482000Y-51437935D01*
X172974000Y-51437935D01*
X172974000Y-49709065D01*
X172966659Y-49691341D01*
X172948935Y-49684000D01*
X172284155Y-49684000D01*
X172271901Y-49685207D01*
X172141956Y-49711055D01*
X172119471Y-49720368D01*
X171972069Y-49818860D01*
X171954860Y-49836069D01*
X171856368Y-49983471D01*
X171847055Y-50005956D01*
X171826579Y-50108893D01*
X171773002Y-50189076D01*
X171678418Y-50207890D01*
X171598235Y-50154313D01*
X171577000Y-50084311D01*
X171577000Y-47878000D01*
X171613905Y-47788905D01*
X171703000Y-47752000D01*
X176657000Y-47752000D01*
X176657000Y-47218935D01*
X178004000Y-47218935D01*
X178011341Y-47236659D01*
X178029065Y-47244000D01*
X179682935Y-47244000D01*
X179700659Y-47236659D01*
X179708000Y-47218935D01*
X180216000Y-47218935D01*
X180223341Y-47236659D01*
X180241065Y-47244000D01*
X181894935Y-47244000D01*
X181912659Y-47236659D01*
X181920000Y-47218935D01*
X181920000Y-44754155D01*
X181918793Y-44741901D01*
X181892945Y-44611956D01*
X181883632Y-44589471D01*
X181785140Y-44442069D01*
X181767931Y-44424860D01*
X181620529Y-44326368D01*
X181598044Y-44317055D01*
X181468099Y-44291207D01*
X181455845Y-44290000D01*
X180241065Y-44290000D01*
X180223341Y-44297341D01*
X180216000Y-44315065D01*
X180216000Y-47218935D01*
X179708000Y-47218935D01*
X179708000Y-44315065D01*
X179700659Y-44297341D01*
X179682935Y-44290000D01*
X178468155Y-44290000D01*
X178455901Y-44291207D01*
X178325956Y-44317055D01*
X178303471Y-44326368D01*
X178156069Y-44424860D01*
X178138860Y-44442069D01*
X178040368Y-44589471D01*
X178031055Y-44611956D01*
X178005207Y-44741901D01*
X178004000Y-44754155D01*
X178004000Y-47218935D01*
X176657000Y-47218935D01*
X176657000Y-44068000D01*
X176693905Y-43978905D01*
X176783000Y-43942000D01*
X182119000Y-43942000D01*
X182208095Y-43978905D01*
G37*
%TD.AperFunction*%
%TD*%
%TA.AperFunction,Conductor*%
%TO.N,+24V*%
G36*
X172429095Y-99096905D02*
G01*
X172466000Y-99186000D01*
X172466000Y-100692000D01*
X172429095Y-100781095D01*
X172340000Y-100818000D01*
X172237065Y-100818000D01*
X172219341Y-100825341D01*
X172212000Y-100843065D01*
X172212000Y-103754000D01*
X172175095Y-103843095D01*
X172086000Y-103880000D01*
X171075065Y-103880000D01*
X171057341Y-103887341D01*
X171050000Y-103905065D01*
X171050000Y-105969845D01*
X171051207Y-105982099D01*
X171077055Y-106112044D01*
X171086368Y-106134529D01*
X171184860Y-106281931D01*
X171202069Y-106299140D01*
X171349471Y-106397632D01*
X171371956Y-106406945D01*
X171489975Y-106430421D01*
X171570158Y-106483998D01*
X171588972Y-106578582D01*
X171535395Y-106658765D01*
X171465393Y-106680000D01*
X168782000Y-106680000D01*
X168692905Y-106643095D01*
X168656000Y-106554000D01*
X168656000Y-103346935D01*
X171050000Y-103346935D01*
X171057341Y-103364659D01*
X171075065Y-103372000D01*
X171678935Y-103372000D01*
X171696659Y-103364659D01*
X171704000Y-103346935D01*
X171704000Y-100843065D01*
X171696659Y-100825341D01*
X171678935Y-100818000D01*
X171514155Y-100818000D01*
X171501901Y-100819207D01*
X171371956Y-100845055D01*
X171349471Y-100854368D01*
X171202069Y-100952860D01*
X171184860Y-100970069D01*
X171086368Y-101117471D01*
X171077055Y-101139956D01*
X171051207Y-101269901D01*
X171050000Y-101282155D01*
X171050000Y-103346935D01*
X168656000Y-103346935D01*
X168656000Y-99186000D01*
X168692905Y-99096905D01*
X168782000Y-99060000D01*
X172340000Y-99060000D01*
X172429095Y-99096905D01*
G37*
%TD.AperFunction*%
%TD*%
%TA.AperFunction,Conductor*%
%TO.N,GND*%
G36*
X163793095Y-100874905D02*
G01*
X163830000Y-100964000D01*
X163830000Y-105792000D01*
X163793095Y-105881095D01*
X163704000Y-105918000D01*
X160026551Y-105918000D01*
X159937456Y-105881095D01*
X159900551Y-105792000D01*
X159902972Y-105767418D01*
X159910793Y-105728099D01*
X159912000Y-105715845D01*
X159912000Y-103651065D01*
X159904659Y-103633341D01*
X159886935Y-103626000D01*
X158876000Y-103626000D01*
X158786905Y-103589095D01*
X158750000Y-103500000D01*
X158750000Y-103244000D01*
X158786905Y-103154905D01*
X158876000Y-103118000D01*
X159886935Y-103118000D01*
X159904659Y-103110659D01*
X159912000Y-103092935D01*
X159912000Y-101028155D01*
X159910793Y-101015901D01*
X159905359Y-100988582D01*
X159924173Y-100893998D01*
X160004356Y-100840421D01*
X160028938Y-100838000D01*
X163704000Y-100838000D01*
X163793095Y-100874905D01*
G37*
%TD.AperFunction*%
%TD*%
%TA.AperFunction,Conductor*%
%TO.N,GND*%
G36*
X184367095Y-101128905D02*
G01*
X184404000Y-101218000D01*
X184404000Y-106046000D01*
X184367095Y-106135095D01*
X184278000Y-106172000D01*
X180600551Y-106172000D01*
X180511456Y-106135095D01*
X180474551Y-106046000D01*
X180476972Y-106021418D01*
X180484793Y-105982099D01*
X180486000Y-105969845D01*
X180486000Y-103905065D01*
X180478659Y-103887341D01*
X180460935Y-103880000D01*
X179450000Y-103880000D01*
X179360905Y-103843095D01*
X179324000Y-103754000D01*
X179324000Y-103498000D01*
X179360905Y-103408905D01*
X179450000Y-103372000D01*
X180460935Y-103372000D01*
X180478659Y-103364659D01*
X180486000Y-103346935D01*
X180486000Y-101282155D01*
X180484793Y-101269901D01*
X180479359Y-101242582D01*
X180498173Y-101147998D01*
X180578356Y-101094421D01*
X180602938Y-101092000D01*
X184278000Y-101092000D01*
X184367095Y-101128905D01*
G37*
%TD.AperFunction*%
%TD*%
%TA.AperFunction,Conductor*%
%TO.N,/driver/HB1_OUT*%
G36*
X162048573Y-107191427D02*
G01*
X162052000Y-107199700D01*
X162052000Y-118352300D01*
X162048573Y-118360573D01*
X162040300Y-118364000D01*
X159004000Y-118364000D01*
X159004000Y-120384300D01*
X159000573Y-120392573D01*
X158992300Y-120396000D01*
X157480000Y-120396000D01*
X157480000Y-124956300D01*
X157476573Y-124964573D01*
X157468300Y-124968000D01*
X148347700Y-124968000D01*
X148339427Y-124964573D01*
X148336000Y-124956300D01*
X148336000Y-107199700D01*
X148339427Y-107191427D01*
X148347700Y-107188000D01*
X162040300Y-107188000D01*
X162048573Y-107191427D01*
G37*
%TD.AperFunction*%
%TD*%
%TA.AperFunction,Conductor*%
%TO.N,GND*%
G36*
X181572924Y-91730905D02*
G01*
X181609829Y-91820171D01*
X181607189Y-93770384D01*
X181570164Y-93859429D01*
X181481018Y-93896213D01*
X181411187Y-93874978D01*
X181369874Y-93847373D01*
X181347389Y-93838060D01*
X181144523Y-93797707D01*
X181132269Y-93796500D01*
X180717865Y-93796500D01*
X180700141Y-93803841D01*
X180692800Y-93821565D01*
X180692800Y-94995000D01*
X180655895Y-95084095D01*
X180566800Y-95121000D01*
X174191706Y-95121000D01*
X174154003Y-95113500D01*
X171870065Y-95113500D01*
X171852341Y-95120841D01*
X171845000Y-95138565D01*
X171845000Y-95240469D01*
X171846207Y-95252723D01*
X171886824Y-95456918D01*
X171868010Y-95551502D01*
X171787827Y-95605079D01*
X171763245Y-95607500D01*
X171316872Y-95607500D01*
X171227777Y-95570595D01*
X171190872Y-95481329D01*
X171192092Y-94580435D01*
X171845000Y-94580435D01*
X171852341Y-94598159D01*
X171870065Y-94605500D01*
X172948935Y-94605500D01*
X172966659Y-94598159D01*
X172974000Y-94580435D01*
X173482000Y-94580435D01*
X173489341Y-94598159D01*
X173507065Y-94605500D01*
X174632894Y-94605500D01*
X174670597Y-94613000D01*
X175342535Y-94613000D01*
X175360259Y-94605659D01*
X175367600Y-94587935D01*
X175875600Y-94587935D01*
X175882941Y-94605659D01*
X175900665Y-94613000D01*
X177766135Y-94613000D01*
X177783859Y-94605659D01*
X177791200Y-94587935D01*
X178299200Y-94587935D01*
X178306541Y-94605659D01*
X178324265Y-94613000D01*
X180159735Y-94613000D01*
X180177459Y-94605659D01*
X180184800Y-94587935D01*
X180184800Y-93821565D01*
X180177459Y-93803841D01*
X180159735Y-93796500D01*
X179745331Y-93796500D01*
X179733077Y-93797707D01*
X179530211Y-93838060D01*
X179507726Y-93847373D01*
X179333856Y-93963550D01*
X179239273Y-93982364D01*
X179193852Y-93963550D01*
X179001274Y-93834873D01*
X178978789Y-93825560D01*
X178775923Y-93785207D01*
X178763669Y-93784000D01*
X178324265Y-93784000D01*
X178306541Y-93791341D01*
X178299200Y-93809065D01*
X178299200Y-94587935D01*
X177791200Y-94587935D01*
X177791200Y-93809065D01*
X177783859Y-93791341D01*
X177766135Y-93784000D01*
X177326731Y-93784000D01*
X177314477Y-93785207D01*
X177111611Y-93825560D01*
X177089126Y-93834873D01*
X176903402Y-93958971D01*
X176808819Y-93977785D01*
X176763398Y-93958971D01*
X176577674Y-93834873D01*
X176555189Y-93825560D01*
X176352323Y-93785207D01*
X176340069Y-93784000D01*
X175900665Y-93784000D01*
X175882941Y-93791341D01*
X175875600Y-93809065D01*
X175875600Y-94587935D01*
X175367600Y-94587935D01*
X175367600Y-93809065D01*
X175360259Y-93791341D01*
X175342535Y-93784000D01*
X174903131Y-93784000D01*
X174890877Y-93785207D01*
X174688011Y-93825560D01*
X174665526Y-93834873D01*
X174478560Y-93959800D01*
X174383976Y-93978614D01*
X174338556Y-93959800D01*
X174159074Y-93839873D01*
X174136589Y-93830560D01*
X173933723Y-93790207D01*
X173921469Y-93789000D01*
X173507065Y-93789000D01*
X173489341Y-93796341D01*
X173482000Y-93814065D01*
X173482000Y-94580435D01*
X172974000Y-94580435D01*
X172974000Y-93814065D01*
X172966659Y-93796341D01*
X172948935Y-93789000D01*
X172534531Y-93789000D01*
X172522277Y-93790207D01*
X172319411Y-93830560D01*
X172296926Y-93839873D01*
X172066829Y-93993620D01*
X172049620Y-94010829D01*
X171895873Y-94240926D01*
X171886560Y-94263411D01*
X171846207Y-94466277D01*
X171845000Y-94478531D01*
X171845000Y-94580435D01*
X171192092Y-94580435D01*
X171192247Y-94466277D01*
X171193068Y-93859429D01*
X171195830Y-91819829D01*
X171232855Y-91730784D01*
X171321830Y-91694000D01*
X181483829Y-91694000D01*
X181572924Y-91730905D01*
G37*
%TD.AperFunction*%
%TD*%
%TA.AperFunction,Conductor*%
%TO.N,+24V*%
G36*
X199517000Y-67691000D02*
G01*
X188594000Y-67691000D01*
X188504905Y-67654095D01*
X188468000Y-67565000D01*
X188468000Y-66166000D01*
X188504905Y-66076905D01*
X188594000Y-66040000D01*
X191897000Y-66040000D01*
X191897000Y-65531956D01*
X191933905Y-65442861D01*
X192023000Y-65405956D01*
X192070775Y-65420445D01*
X192072460Y-65416377D01*
X192106411Y-65430440D01*
X192309277Y-65470793D01*
X192321531Y-65472000D01*
X192760935Y-65472000D01*
X192778659Y-65464659D01*
X192786000Y-65446935D01*
X193294000Y-65446935D01*
X193301341Y-65464659D01*
X193319065Y-65472000D01*
X193758469Y-65472000D01*
X193770723Y-65470793D01*
X193973589Y-65430440D01*
X193996074Y-65421127D01*
X194236487Y-65260487D01*
X194239472Y-65264955D01*
X194310000Y-65235741D01*
X194380528Y-65264955D01*
X194383513Y-65260487D01*
X194623926Y-65421127D01*
X194646411Y-65430440D01*
X194849277Y-65470793D01*
X194861531Y-65472000D01*
X195300935Y-65472000D01*
X195318659Y-65464659D01*
X195326000Y-65446935D01*
X195834000Y-65446935D01*
X195841341Y-65464659D01*
X195859065Y-65472000D01*
X196298469Y-65472000D01*
X196310723Y-65470793D01*
X196513589Y-65430440D01*
X196536074Y-65421127D01*
X196766171Y-65267380D01*
X196783380Y-65250171D01*
X196937127Y-65020074D01*
X196946440Y-64997589D01*
X196986793Y-64794723D01*
X196988000Y-64782469D01*
X196988000Y-64668065D01*
X196980659Y-64650341D01*
X196962935Y-64643000D01*
X195859065Y-64643000D01*
X195841341Y-64650341D01*
X195834000Y-64668065D01*
X195834000Y-65446935D01*
X195326000Y-65446935D01*
X195326000Y-64668065D01*
X195318659Y-64650341D01*
X195300935Y-64643000D01*
X193319065Y-64643000D01*
X193301341Y-64650341D01*
X193294000Y-64668065D01*
X193294000Y-65446935D01*
X192786000Y-65446935D01*
X192786000Y-64109935D01*
X193294000Y-64109935D01*
X193301341Y-64127659D01*
X193319065Y-64135000D01*
X195300935Y-64135000D01*
X195318659Y-64127659D01*
X195326000Y-64109935D01*
X195834000Y-64109935D01*
X195841341Y-64127659D01*
X195859065Y-64135000D01*
X196962935Y-64135000D01*
X196980659Y-64127659D01*
X196988000Y-64109935D01*
X196988000Y-63995531D01*
X196986793Y-63983277D01*
X196946440Y-63780411D01*
X196937127Y-63757926D01*
X196783380Y-63527829D01*
X196766171Y-63510620D01*
X196536074Y-63356873D01*
X196513589Y-63347560D01*
X196310723Y-63307207D01*
X196298469Y-63306000D01*
X195859065Y-63306000D01*
X195841341Y-63313341D01*
X195834000Y-63331065D01*
X195834000Y-64109935D01*
X195326000Y-64109935D01*
X195326000Y-63331065D01*
X195318659Y-63313341D01*
X195300935Y-63306000D01*
X194861531Y-63306000D01*
X194849277Y-63307207D01*
X194646411Y-63347560D01*
X194623926Y-63356873D01*
X194383513Y-63517513D01*
X194380528Y-63513045D01*
X194310000Y-63542259D01*
X194239472Y-63513045D01*
X194236487Y-63517513D01*
X193996074Y-63356873D01*
X193973589Y-63347560D01*
X193770723Y-63307207D01*
X193758469Y-63306000D01*
X193319065Y-63306000D01*
X193301341Y-63313341D01*
X193294000Y-63331065D01*
X193294000Y-64109935D01*
X192786000Y-64109935D01*
X192786000Y-63331065D01*
X192778659Y-63313341D01*
X192760935Y-63306000D01*
X192321531Y-63306000D01*
X192309277Y-63307207D01*
X192106411Y-63347560D01*
X192072460Y-63361623D01*
X192069886Y-63355410D01*
X191998404Y-63369620D01*
X191918227Y-63316034D01*
X191897000Y-63246044D01*
X191897000Y-63118000D01*
X191933905Y-63028905D01*
X192023000Y-62992000D01*
X199517000Y-62992000D01*
X199517000Y-67691000D01*
G37*
%TD.AperFunction*%
%TD*%
%TA.AperFunction,Conductor*%
%TO.N,GND*%
G36*
X216879095Y-72172905D02*
G01*
X216916000Y-72262000D01*
X216916000Y-73505179D01*
X216879095Y-73594274D01*
X216814581Y-73628758D01*
X216794447Y-73632763D01*
X216276934Y-74150276D01*
X216269592Y-74168000D01*
X216276934Y-74185724D01*
X216788931Y-74697721D01*
X216838219Y-74718137D01*
X216906409Y-74786328D01*
X216916000Y-74834546D01*
X216916000Y-75312000D01*
X216879095Y-75401095D01*
X216790000Y-75438000D01*
X216217706Y-75438000D01*
X216128611Y-75401095D01*
X216091706Y-75312000D01*
X216128611Y-75222905D01*
X216193125Y-75188421D01*
X216300638Y-75167035D01*
X216323131Y-75157719D01*
X216426606Y-75088579D01*
X216437263Y-75072630D01*
X216435238Y-75062448D01*
X215917724Y-74544934D01*
X215900000Y-74537592D01*
X215882276Y-74544934D01*
X215370279Y-75056931D01*
X215362937Y-75074655D01*
X215366911Y-75084247D01*
X215476869Y-75157719D01*
X215499362Y-75167035D01*
X215606875Y-75188421D01*
X215687059Y-75241998D01*
X215705873Y-75336581D01*
X215652296Y-75416765D01*
X215582294Y-75438000D01*
X211582000Y-75438000D01*
X211582000Y-74867997D01*
X211583000Y-74857845D01*
X211583000Y-74193065D01*
X211582000Y-74190651D01*
X211582000Y-74180171D01*
X214823694Y-74180171D01*
X214900965Y-74568638D01*
X214910281Y-74591131D01*
X214979421Y-74694606D01*
X214995370Y-74705263D01*
X215005552Y-74703238D01*
X215523066Y-74185724D01*
X215530408Y-74168000D01*
X215523066Y-74150276D01*
X215011069Y-73638279D01*
X214993345Y-73630937D01*
X214983753Y-73634911D01*
X214910281Y-73744869D01*
X214900965Y-73767362D01*
X214823694Y-74155829D01*
X214823694Y-74180171D01*
X211582000Y-74180171D01*
X211582000Y-73637349D01*
X211583000Y-73634935D01*
X211583000Y-73263370D01*
X215362737Y-73263370D01*
X215364762Y-73273552D01*
X215882276Y-73791066D01*
X215900000Y-73798408D01*
X215917724Y-73791066D01*
X216429721Y-73279069D01*
X216437063Y-73261345D01*
X216433089Y-73251753D01*
X216323131Y-73178281D01*
X216300638Y-73168965D01*
X215912171Y-73091694D01*
X215887829Y-73091694D01*
X215499362Y-73168965D01*
X215476869Y-73178281D01*
X215373394Y-73247421D01*
X215362737Y-73263370D01*
X211583000Y-73263370D01*
X211583000Y-72970155D01*
X211582000Y-72960003D01*
X211582000Y-72136000D01*
X216790000Y-72136000D01*
X216879095Y-72172905D01*
G37*
%TD.AperFunction*%
%TD*%
%TA.AperFunction,Conductor*%
%TO.N,+24V*%
G36*
X192860579Y-99057314D02*
G01*
X192881048Y-99070991D01*
X192893215Y-99073411D01*
X192893217Y-99073412D01*
X192927177Y-99080167D01*
X192938581Y-99082435D01*
X193018765Y-99136012D01*
X193040000Y-99206014D01*
X193040000Y-100692000D01*
X193003095Y-100781095D01*
X192914000Y-100818000D01*
X192811065Y-100818000D01*
X192793341Y-100825341D01*
X192786000Y-100843065D01*
X192786000Y-103754000D01*
X192749095Y-103843095D01*
X192660000Y-103880000D01*
X191649065Y-103880000D01*
X191631341Y-103887341D01*
X191624000Y-103905065D01*
X191624000Y-105969845D01*
X191625207Y-105982099D01*
X191651055Y-106112044D01*
X191660368Y-106134529D01*
X191758860Y-106281931D01*
X191776069Y-106299140D01*
X191923471Y-106397632D01*
X191957425Y-106411696D01*
X191956140Y-106414799D01*
X192023905Y-106460078D01*
X192042719Y-106554661D01*
X191989142Y-106634845D01*
X191919140Y-106656080D01*
X189356000Y-106656080D01*
X189266905Y-106619175D01*
X189230000Y-106530080D01*
X189230000Y-103346935D01*
X191624000Y-103346935D01*
X191631341Y-103364659D01*
X191649065Y-103372000D01*
X192252935Y-103372000D01*
X192270659Y-103364659D01*
X192278000Y-103346935D01*
X192278000Y-100843065D01*
X192270659Y-100825341D01*
X192252935Y-100818000D01*
X192088155Y-100818000D01*
X192075901Y-100819207D01*
X191945956Y-100845055D01*
X191923471Y-100854368D01*
X191776069Y-100952860D01*
X191758860Y-100970069D01*
X191660368Y-101117471D01*
X191651055Y-101139956D01*
X191625207Y-101269901D01*
X191624000Y-101282155D01*
X191624000Y-103346935D01*
X189230000Y-103346935D01*
X189230000Y-99162080D01*
X189266905Y-99072985D01*
X189356000Y-99036080D01*
X192790578Y-99036080D01*
X192860579Y-99057314D01*
G37*
%TD.AperFunction*%
%TD*%
%TA.AperFunction,Conductor*%
%TO.N,GND*%
G36*
X214593095Y-44613905D02*
G01*
X214630000Y-44703000D01*
X214630000Y-65025000D01*
X214593095Y-65114095D01*
X214504000Y-65151000D01*
X206374000Y-65151000D01*
X206284905Y-65114095D01*
X206248000Y-65025000D01*
X206248000Y-62155845D01*
X207161000Y-62155845D01*
X207162207Y-62168099D01*
X207188055Y-62298044D01*
X207197368Y-62320529D01*
X207295860Y-62467931D01*
X207313069Y-62485140D01*
X207460471Y-62583632D01*
X207482956Y-62592945D01*
X207612901Y-62618793D01*
X207625155Y-62620000D01*
X209714935Y-62620000D01*
X209732659Y-62612659D01*
X209740000Y-62594935D01*
X210248000Y-62594935D01*
X210255341Y-62612659D01*
X210273065Y-62620000D01*
X212362845Y-62620000D01*
X212375099Y-62618793D01*
X212505044Y-62592945D01*
X212527529Y-62583632D01*
X212674931Y-62485140D01*
X212692140Y-62467931D01*
X212790632Y-62320529D01*
X212799945Y-62298044D01*
X212825793Y-62168099D01*
X212827000Y-62155845D01*
X212827000Y-61366065D01*
X212819659Y-61348341D01*
X212801935Y-61341000D01*
X210273065Y-61341000D01*
X210255341Y-61348341D01*
X210248000Y-61366065D01*
X210248000Y-62594935D01*
X209740000Y-62594935D01*
X209740000Y-61366065D01*
X209732659Y-61348341D01*
X209714935Y-61341000D01*
X207186065Y-61341000D01*
X207168341Y-61348341D01*
X207161000Y-61366065D01*
X207161000Y-62155845D01*
X206248000Y-62155845D01*
X206248000Y-60807935D01*
X207161000Y-60807935D01*
X207168341Y-60825659D01*
X207186065Y-60833000D01*
X209714935Y-60833000D01*
X209732659Y-60825659D01*
X209740000Y-60807935D01*
X210248000Y-60807935D01*
X210255341Y-60825659D01*
X210273065Y-60833000D01*
X212801935Y-60833000D01*
X212819659Y-60825659D01*
X212827000Y-60807935D01*
X212827000Y-60018155D01*
X212825793Y-60005901D01*
X212799945Y-59875956D01*
X212790632Y-59853471D01*
X212692140Y-59706069D01*
X212674931Y-59688860D01*
X212527529Y-59590368D01*
X212505044Y-59581055D01*
X212375099Y-59555207D01*
X212362845Y-59554000D01*
X210273065Y-59554000D01*
X210255341Y-59561341D01*
X210248000Y-59579065D01*
X210248000Y-60807935D01*
X209740000Y-60807935D01*
X209740000Y-59579065D01*
X209732659Y-59561341D01*
X209714935Y-59554000D01*
X207625155Y-59554000D01*
X207612901Y-59555207D01*
X207482956Y-59581055D01*
X207460471Y-59590368D01*
X207313069Y-59688860D01*
X207295860Y-59706069D01*
X207197368Y-59853471D01*
X207188055Y-59875956D01*
X207162207Y-60005901D01*
X207161000Y-60018155D01*
X207161000Y-60807935D01*
X206248000Y-60807935D01*
X206248000Y-44703000D01*
X206284905Y-44613905D01*
X206374000Y-44577000D01*
X214504000Y-44577000D01*
X214593095Y-44613905D01*
G37*
%TD.AperFunction*%
%TD*%
%TA.AperFunction,Conductor*%
%TO.N,+24V*%
G36*
X151855095Y-99096905D02*
G01*
X151892000Y-99186000D01*
X151892000Y-100660274D01*
X151870765Y-100730276D01*
X151781897Y-100863276D01*
X151781896Y-100863278D01*
X151775004Y-100873593D01*
X151745500Y-101021918D01*
X151745500Y-105722082D01*
X151775004Y-105870407D01*
X151781896Y-105880722D01*
X151781897Y-105880724D01*
X151870765Y-106013724D01*
X151892000Y-106083726D01*
X151892000Y-106554000D01*
X151855095Y-106643095D01*
X151766000Y-106680000D01*
X148208000Y-106680000D01*
X148118905Y-106643095D01*
X148082000Y-106554000D01*
X148082000Y-99186000D01*
X148118905Y-99096905D01*
X148208000Y-99060000D01*
X151766000Y-99060000D01*
X151855095Y-99096905D01*
G37*
%TD.AperFunction*%
%TD*%
%TA.AperFunction,Conductor*%
%TO.N,GND*%
G36*
X207735095Y-125766905D02*
G01*
X207772000Y-125856000D01*
X207772000Y-130176000D01*
X207735095Y-130265095D01*
X207646000Y-130302000D01*
X200786000Y-130302000D01*
X200696905Y-130265095D01*
X200660000Y-130176000D01*
X200660000Y-129756500D01*
X200696905Y-129667405D01*
X200742305Y-129648599D01*
X200738781Y-129640091D01*
X200779659Y-129623159D01*
X200787000Y-129605435D01*
X201295000Y-129605435D01*
X201302341Y-129623159D01*
X201320065Y-129630500D01*
X201409845Y-129630500D01*
X201422099Y-129629293D01*
X201552044Y-129603445D01*
X201574526Y-129594133D01*
X201605997Y-129573104D01*
X201700580Y-129554290D01*
X201746003Y-129573104D01*
X201777474Y-129594133D01*
X201799956Y-129603445D01*
X201929901Y-129629293D01*
X201942155Y-129630500D01*
X202031935Y-129630500D01*
X202049659Y-129623159D01*
X202057000Y-129605435D01*
X202057000Y-128639065D01*
X202049659Y-128621341D01*
X202031935Y-128614000D01*
X201320065Y-128614000D01*
X201302341Y-128621341D01*
X201295000Y-128639065D01*
X201295000Y-129605435D01*
X200787000Y-129605435D01*
X200787000Y-128232000D01*
X200823905Y-128142905D01*
X200913000Y-128106000D01*
X202439000Y-128106000D01*
X202528095Y-128142905D01*
X202565000Y-128232000D01*
X202565000Y-129605435D01*
X202572341Y-129623159D01*
X202590065Y-129630500D01*
X202679845Y-129630500D01*
X202692099Y-129629293D01*
X202822044Y-129603445D01*
X202844529Y-129594132D01*
X202875548Y-129573405D01*
X202970131Y-129554591D01*
X203015549Y-129573403D01*
X203057593Y-129601496D01*
X203205918Y-129631000D01*
X203956082Y-129631000D01*
X204104407Y-129601496D01*
X204164663Y-129561234D01*
X204234663Y-129540000D01*
X204724000Y-129540000D01*
X204724000Y-125856000D01*
X204760905Y-125766905D01*
X204850000Y-125730000D01*
X207646000Y-125730000D01*
X207735095Y-125766905D01*
G37*
%TD.AperFunction*%
%TD*%
M02*
