%TF.GenerationSoftware,KiCad,Pcbnew,(6.0.9)*%
%TF.CreationDate,2023-03-24T12:27:37+01:00*%
%TF.ProjectId,twoLevelInverter,74776f4c-6576-4656-9c49-6e7665727465,rev?*%
%TF.SameCoordinates,Original*%
%TF.FileFunction,Copper,L4,Bot*%
%TF.FilePolarity,Positive*%
%FSLAX46Y46*%
G04 Gerber Fmt 4.6, Leading zero omitted, Abs format (unit mm)*
G04 Created by KiCad (PCBNEW (6.0.9)) date 2023-03-24 12:27:37*
%MOMM*%
%LPD*%
G01*
G04 APERTURE LIST*
%TA.AperFunction,ComponentPad*%
%ADD10R,1.100000X1.100000*%
%TD*%
%TA.AperFunction,ComponentPad*%
%ADD11C,1.100000*%
%TD*%
%TA.AperFunction,ComponentPad*%
%ADD12R,1.130000X1.130000*%
%TD*%
%TA.AperFunction,ComponentPad*%
%ADD13C,1.130000*%
%TD*%
%TA.AperFunction,ComponentPad*%
%ADD14C,0.900000*%
%TD*%
%TA.AperFunction,ComponentPad*%
%ADD15C,10.600000*%
%TD*%
%TA.AperFunction,ComponentPad*%
%ADD16C,1.950000*%
%TD*%
%TA.AperFunction,ComponentPad*%
%ADD17R,1.520000X1.520000*%
%TD*%
%TA.AperFunction,ComponentPad*%
%ADD18C,1.520000*%
%TD*%
%TA.AperFunction,ViaPad*%
%ADD19C,0.800000*%
%TD*%
%TA.AperFunction,Conductor*%
%ADD20C,0.300000*%
%TD*%
G04 APERTURE END LIST*
D10*
%TO.P,C19,1*%
%TO.N,+3V3*%
X218400000Y-74168000D03*
D11*
%TO.P,C19,2*%
%TO.N,GND*%
X215900000Y-74168000D03*
%TD*%
D12*
%TO.P,IC8,1,CB*%
%TO.N,Net-(C17-Pad2)*%
X218346000Y-87630000D03*
D13*
%TO.P,IC8,2,NC_1*%
%TO.N,unconnected-(IC8-Pad2)*%
X218346000Y-85090000D03*
%TO.P,IC8,3,NC_2*%
%TO.N,unconnected-(IC8-Pad3)*%
X218346000Y-82550000D03*
%TO.P,IC8,4,FB*%
%TO.N,+3V3*%
X218346000Y-80010000D03*
%TO.P,IC8,5,ON/~{OFF}*%
%TO.N,unconnected-(IC8-Pad5)*%
X210406000Y-80010000D03*
%TO.P,IC8,6,GND*%
%TO.N,GND*%
X210406000Y-82550000D03*
%TO.P,IC8,7,VIN*%
%TO.N,+24V*%
X210406000Y-85090000D03*
%TO.P,IC8,8,VSW*%
%TO.N,Net-(C17-Pad1)*%
X210406000Y-87630000D03*
%TD*%
D14*
%TO.P,H3,1,1*%
%TO.N,GND*%
X245380749Y-151113251D03*
X245380749Y-156734749D03*
X239759251Y-156734749D03*
D15*
X242570000Y-153924000D03*
D14*
X238595000Y-153924000D03*
X242570000Y-157899000D03*
X242570000Y-149949000D03*
X246545000Y-153924000D03*
X239759251Y-151113251D03*
%TD*%
D16*
%TO.P,J3,1,Pin_1*%
%TO.N,/B_1*%
X242570000Y-142240000D03*
%TO.P,J3,2,Pin_2*%
%TO.N,/A_1*%
X242570000Y-132080000D03*
%TO.P,J3,3,Pin_3*%
%TO.N,GND*%
X242570000Y-121920000D03*
%TO.P,J3,4,Pin_4*%
%TO.N,+5V*%
X242570000Y-111760000D03*
%TD*%
D14*
%TO.P,H1,1,1*%
%TO.N,GND*%
X156734749Y-156734749D03*
X149949000Y-153924000D03*
X156734749Y-151113251D03*
X153924000Y-157899000D03*
X157899000Y-153924000D03*
X151113251Y-156734749D03*
D15*
X153924000Y-153924000D03*
D14*
X151113251Y-151113251D03*
X153924000Y-149949000D03*
%TD*%
%TO.P,H2,1,1*%
%TO.N,GND*%
X156734749Y-44433251D03*
X149949000Y-47244000D03*
D15*
X153924000Y-47244000D03*
D14*
X153924000Y-43269000D03*
X153924000Y-51219000D03*
X151113251Y-44433251D03*
X156734749Y-50054749D03*
X151113251Y-50054749D03*
X157899000Y-47244000D03*
%TD*%
D16*
%TO.P,J4,1,Pin_1*%
%TO.N,/Phase_A*%
X163830000Y-154178000D03*
%TO.P,J4,2,Pin_2*%
%TO.N,/Phase_B*%
X173990000Y-154178000D03*
%TO.P,J4,3,Pin_3*%
%TO.N,/Phase_C*%
X184150000Y-154178000D03*
%TO.P,J4,4,Pin_4*%
%TO.N,GND*%
X194310000Y-154178000D03*
%TD*%
D14*
%TO.P,H4,1,1*%
%TO.N,GND*%
X239759251Y-50054749D03*
X242570000Y-43269000D03*
X246545000Y-47244000D03*
D15*
X242570000Y-47244000D03*
D14*
X239759251Y-44433251D03*
X245380749Y-50054749D03*
X245380749Y-44433251D03*
X242570000Y-51219000D03*
X238595000Y-47244000D03*
%TD*%
D16*
%TO.P,J8,1,Pin_1*%
%TO.N,/HALL_A*%
X231648000Y-142240000D03*
%TO.P,J8,2,Pin_2*%
%TO.N,/HALL_B*%
X231648000Y-132080000D03*
%TO.P,J8,3,Pin_3*%
%TO.N,/HALL_C*%
X231648000Y-121920000D03*
%TO.P,J8,4,Pin_4*%
%TO.N,+5V*%
X231648000Y-111760000D03*
%TD*%
%TO.P,J5,1,Pin_1*%
%TO.N,+5V*%
X233172000Y-47117000D03*
%TO.P,J5,2,Pin_2*%
%TO.N,+3V3*%
X223012000Y-47117000D03*
%TO.P,J5,3,Pin_3*%
%TO.N,GND*%
X212852000Y-47117000D03*
%TO.P,J5,4,Pin_4*%
%TO.N,+24V*%
X202692000Y-47117000D03*
%TD*%
D17*
%TO.P,J2,1,1*%
%TO.N,/Phase_C*%
X211667250Y-142192000D03*
D18*
%TO.P,J2,2,2*%
%TO.N,/Phase_B*%
X208667250Y-142192000D03*
%TO.P,J2,3,3*%
%TO.N,/Phase_A*%
X205667250Y-142192000D03*
%TO.P,J2,4,4*%
%TO.N,GND*%
X202667250Y-142192000D03*
%TO.P,J2,5,5*%
%TO.N,/HALL_A*%
X211667250Y-139192000D03*
%TO.P,J2,6,6*%
%TO.N,/HALL_B*%
X208667250Y-139192000D03*
%TO.P,J2,7,7*%
%TO.N,/HALL_C*%
X205667250Y-139192000D03*
%TO.P,J2,8,8*%
%TO.N,+5V*%
X202667250Y-139192000D03*
%TD*%
D19*
%TO.N,/HB2_IS*%
X168910000Y-97015500D03*
X159512000Y-62604500D03*
%TO.N,/HB3_IS*%
X188771424Y-87580576D03*
X187960000Y-93726000D03*
%TO.N,/EN_5V*%
X187960000Y-57150000D03*
X155448000Y-80264000D03*
%TO.N,/HB3_INH*%
X164062023Y-79269977D03*
X176453129Y-80340871D03*
%TO.N,/Phase_C*%
X184658000Y-156972000D03*
X186690000Y-156972000D03*
X182372000Y-156972000D03*
X186436000Y-152400000D03*
X184658000Y-158496000D03*
X186690000Y-158496000D03*
X182118000Y-152400000D03*
X182372000Y-158496000D03*
X184404000Y-152400000D03*
%TO.N,/Phase_B*%
X176276000Y-151638000D03*
X176276000Y-158242000D03*
X171450000Y-156464000D03*
X173990000Y-158242000D03*
X176276000Y-149352000D03*
X176276000Y-156464000D03*
X171450000Y-151638000D03*
X173990000Y-156464000D03*
X171450000Y-149352000D03*
X173990000Y-151638000D03*
X171450000Y-158242000D03*
X173990000Y-149352000D03*
%TO.N,/Phase_A*%
X165608000Y-150368000D03*
X161544000Y-156210000D03*
X163576000Y-150368000D03*
X161544000Y-150368000D03*
X161544000Y-147828000D03*
X163576000Y-156210000D03*
X163576000Y-145542000D03*
X165608000Y-145542000D03*
X165608000Y-158496000D03*
X161544000Y-158496000D03*
X165608000Y-156210000D03*
X163576000Y-147828000D03*
X163576000Y-158496000D03*
X161544000Y-145542000D03*
X165608000Y-147828000D03*
%TO.N,/HALL_A*%
X210058000Y-127762000D03*
%TO.N,/HALL_B*%
X216154000Y-127762000D03*
%TO.N,/HALL_C*%
X222250000Y-127762000D03*
%TO.N,GND*%
X155702000Y-92456000D03*
X182372000Y-103886000D03*
X184658000Y-128270000D03*
X163322000Y-103632000D03*
X176276000Y-60071000D03*
X164084000Y-129540000D03*
X184404000Y-56261000D03*
X207264000Y-128524000D03*
X207264000Y-129794000D03*
X183642000Y-103886000D03*
X180340000Y-92710000D03*
X224790000Y-129286000D03*
X170942000Y-56642000D03*
X166116000Y-128270000D03*
X213360000Y-54991000D03*
X162052000Y-105410000D03*
X208280000Y-57531000D03*
X186690000Y-129794000D03*
X183642000Y-105664000D03*
X160528000Y-105410000D03*
X202946000Y-101854000D03*
X210820000Y-57531000D03*
X198882000Y-96520000D03*
X201422000Y-101854000D03*
X160528000Y-101600000D03*
X201422000Y-105664000D03*
X171196000Y-60071000D03*
X218694000Y-129286000D03*
X211074000Y-49911000D03*
X191135000Y-61468000D03*
X178816000Y-62611000D03*
X210820000Y-52451000D03*
X204978000Y-128524000D03*
X204216000Y-103886000D03*
X181356000Y-60071000D03*
X166116000Y-129540000D03*
X182372000Y-101854000D03*
X201422000Y-96520000D03*
X217997500Y-68580000D03*
X201422000Y-103886000D03*
X176022000Y-56769000D03*
X202946000Y-103886000D03*
X153162000Y-92456000D03*
X178816000Y-60071000D03*
X180848000Y-105664000D03*
X204216000Y-105664000D03*
X217616500Y-63500000D03*
X160528000Y-103632000D03*
X213360000Y-49911000D03*
X162052000Y-101600000D03*
X202946000Y-105664000D03*
X162052000Y-103632000D03*
X184658000Y-129794000D03*
X180848000Y-101854000D03*
X160528000Y-92456000D03*
X183642000Y-101854000D03*
X204216000Y-101854000D03*
X176276000Y-62611000D03*
X171196000Y-62611000D03*
X163322000Y-105410000D03*
X186690000Y-128270000D03*
X164084000Y-128270000D03*
X197231000Y-61468000D03*
X173736000Y-62611000D03*
X158242000Y-92456000D03*
X173736000Y-60071000D03*
X217616500Y-65151000D03*
X180848000Y-103886000D03*
X173228000Y-92710000D03*
X182372000Y-105664000D03*
X208280000Y-49911000D03*
X234950000Y-98044000D03*
X212598000Y-129286000D03*
X208280000Y-54991000D03*
X204978000Y-129794000D03*
X213360000Y-57531000D03*
X213360000Y-52451000D03*
X163322000Y-101600000D03*
X184404000Y-58801000D03*
X178054000Y-92710000D03*
X181356000Y-62611000D03*
X234950000Y-106680000D03*
X210820000Y-54991000D03*
X196342000Y-96520000D03*
X175514000Y-92710000D03*
X208280000Y-52451000D03*
%TO.N,+24V*%
X204470000Y-86360000D03*
X191770000Y-78740000D03*
X191770000Y-99568000D03*
X191516000Y-101346000D03*
X196850000Y-81280000D03*
X151130000Y-100076000D03*
X169164000Y-99568000D03*
X194310000Y-88900000D03*
X196850000Y-88900000D03*
X199390000Y-86360000D03*
X191770000Y-88900000D03*
X199390000Y-83820000D03*
X191770000Y-86360000D03*
X204470000Y-81280000D03*
X191262000Y-104394000D03*
X189484000Y-106172000D03*
X192024000Y-106426000D03*
X201930000Y-57912000D03*
X150622000Y-106172000D03*
X194310000Y-83820000D03*
X196850000Y-83820000D03*
X201930000Y-78740000D03*
X149352000Y-104394000D03*
X199390000Y-88900000D03*
X170942000Y-99568000D03*
X189484000Y-103886000D03*
X201930000Y-81280000D03*
X191770000Y-83820000D03*
X199390000Y-81280000D03*
X169418000Y-103886000D03*
X191770000Y-81280000D03*
X204470000Y-83820000D03*
X189484000Y-101346000D03*
X170688000Y-102616000D03*
X196850000Y-86360000D03*
X204470000Y-78740000D03*
X194310000Y-78740000D03*
X204470000Y-88900000D03*
X169164000Y-101600000D03*
X201930000Y-88900000D03*
X189738000Y-99568000D03*
X169164000Y-106172000D03*
X194310000Y-86360000D03*
X199390000Y-78740000D03*
X149098000Y-100076000D03*
X148844000Y-106172000D03*
X194310000Y-81280000D03*
X149352000Y-102362000D03*
X201930000Y-86360000D03*
X201930000Y-83820000D03*
X196850000Y-78740000D03*
X171196000Y-106426000D03*
X217170000Y-56642000D03*
%TO.N,+3V3*%
X188468000Y-123444000D03*
X180340000Y-121158000D03*
X200660000Y-121158000D03*
X170180000Y-123444000D03*
%TO.N,Net-(C13-Pad1)*%
X191389000Y-64643000D03*
X193548000Y-59563000D03*
%TO.N,/current_A*%
X166636500Y-92202000D03*
X163068000Y-121412000D03*
%TO.N,/current_B*%
X167386000Y-86360000D03*
X182880000Y-121412000D03*
%TO.N,/current_C*%
X159766000Y-64516000D03*
X203454000Y-121412000D03*
%TO.N,/A_1_3V3*%
X206502000Y-91186000D03*
X221234000Y-98044000D03*
%TO.N,/B_1_3V3*%
X221234000Y-104140000D03*
X205795244Y-91935500D03*
%TO.N,/HALL_B_3V3*%
X216154000Y-118364000D03*
X168148000Y-80264000D03*
%TO.N,/HALL_A_3V3*%
X161798000Y-74676000D03*
X209550000Y-118364000D03*
%TO.N,/HALL_C_3V3*%
X222250000Y-118364000D03*
X170476403Y-80350357D03*
%TD*%
D20*
%TO.N,/HB2_IS*%
X167859106Y-85110000D02*
X160516000Y-77766894D01*
X167903767Y-85110000D02*
X167859106Y-85110000D01*
X160516000Y-77766894D02*
X160516000Y-63608500D01*
X160516000Y-63608500D02*
X159512000Y-62604500D01*
X168910000Y-86116233D02*
X167903767Y-85110000D01*
X168910000Y-97015500D02*
X168910000Y-86116233D01*
%TO.N,/HB3_IS*%
X188771424Y-92914576D02*
X187960000Y-93726000D01*
X188771424Y-87580576D02*
X188771424Y-92914576D01*
%TO.N,/EN_5V*%
X152908000Y-80264000D02*
X155448000Y-80264000D01*
X153924000Y-59182000D02*
X152146000Y-60960000D01*
X187591000Y-57519000D02*
X155587000Y-57519000D01*
X152146000Y-60960000D02*
X152146000Y-79502000D01*
X155587000Y-57519000D02*
X153924000Y-59182000D01*
X187960000Y-57150000D02*
X187591000Y-57519000D01*
X152146000Y-79502000D02*
X152908000Y-80264000D01*
%TO.N,/HB3_INH*%
X175535977Y-79269977D02*
X175768000Y-79502000D01*
X175768000Y-79502000D02*
X176022000Y-79756000D01*
X176022000Y-79756000D02*
X176453129Y-80187129D01*
X176453129Y-80187129D02*
X176453129Y-80340871D01*
X164062023Y-79269977D02*
X175535977Y-79269977D01*
%TO.N,/HALL_A*%
X211667250Y-135467250D02*
X211667250Y-139439000D01*
X210058000Y-133858000D02*
X211667250Y-135467250D01*
X210058000Y-127762000D02*
X210058000Y-133858000D01*
%TO.N,/HALL_B*%
X220427339Y-132080000D02*
X231648000Y-132080000D01*
X216154000Y-127806661D02*
X220427339Y-132080000D01*
X216154000Y-127762000D02*
X216154000Y-127806661D01*
%TO.N,/HALL_C*%
X225806000Y-127762000D02*
X231648000Y-121920000D01*
X222250000Y-127762000D02*
X225806000Y-127762000D01*
%TO.N,Net-(C13-Pad1)*%
X192532000Y-64643000D02*
X191389000Y-64643000D01*
X193548000Y-59563000D02*
X193548000Y-63627000D01*
X193548000Y-63627000D02*
X192659000Y-64516000D01*
X192659000Y-64516000D02*
X192532000Y-64643000D01*
%TO.N,/current_A*%
X166878000Y-103378000D02*
X166878000Y-92443500D01*
X166878000Y-92443500D02*
X166636500Y-92202000D01*
X163068000Y-107188000D02*
X163068000Y-121412000D01*
X166878000Y-103378000D02*
X163068000Y-107188000D01*
%TO.N,/current_B*%
X165354000Y-119380000D02*
X181864000Y-119380000D01*
X181864000Y-119380000D02*
X182880000Y-120396000D01*
X165053106Y-118664894D02*
X165053106Y-119079106D01*
X182880000Y-120396000D02*
X182880000Y-121412000D01*
X167386000Y-116332000D02*
X165053106Y-118664894D01*
X167386000Y-86360000D02*
X167386000Y-116332000D01*
X165053106Y-119079106D02*
X165354000Y-119380000D01*
%TO.N,/current_C*%
X167652000Y-85610000D02*
X167696661Y-85610000D01*
X159766000Y-77724000D02*
X167652000Y-85610000D01*
X203454000Y-120396000D02*
X203454000Y-121412000D01*
X167696661Y-85610000D02*
X168402000Y-86315339D01*
X168402000Y-86614000D02*
X167894000Y-87122000D01*
X201930000Y-118872000D02*
X203454000Y-120396000D01*
X165553106Y-118872000D02*
X201930000Y-118872000D01*
X167894000Y-116531106D02*
X165553106Y-118872000D01*
X159766000Y-64516000D02*
X159766000Y-77724000D01*
X168402000Y-86315339D02*
X168402000Y-86614000D01*
X167894000Y-87122000D02*
X167894000Y-116531106D01*
%TO.N,/A_1_3V3*%
X209241106Y-91440000D02*
X206756000Y-91440000D01*
X215845106Y-98044000D02*
X221234000Y-98044000D01*
X206756000Y-91440000D02*
X206502000Y-91186000D01*
X209241106Y-91440000D02*
X215845106Y-98044000D01*
%TO.N,/B_1_3V3*%
X205807744Y-91948000D02*
X205795244Y-91935500D01*
X209042000Y-91948000D02*
X205807744Y-91948000D01*
X221234000Y-104140000D02*
X209042000Y-91948000D01*
%TO.N,/HALL_B_3V3*%
X182626000Y-90678000D02*
X173990000Y-82042000D01*
X185158000Y-93264893D02*
X182626000Y-90732893D01*
X185158000Y-113276000D02*
X185158000Y-93264893D01*
X188468000Y-116586000D02*
X214376000Y-116586000D01*
X182626000Y-90732893D02*
X182626000Y-90678000D01*
X173990000Y-82042000D02*
X169926000Y-82042000D01*
X169926000Y-82042000D02*
X168148000Y-80264000D01*
X185158000Y-113276000D02*
X188468000Y-116586000D01*
X214376000Y-116586000D02*
X216154000Y-118364000D01*
%TO.N,/HALL_A_3V3*%
X173990000Y-82804000D02*
X184658000Y-93472000D01*
X161798000Y-78232000D02*
X166370000Y-82804000D01*
X188214000Y-117094000D02*
X208280000Y-117094000D01*
X166370000Y-82804000D02*
X173990000Y-82804000D01*
X184658000Y-93472000D02*
X184658000Y-113538000D01*
X184658000Y-113538000D02*
X188214000Y-117094000D01*
X208280000Y-117094000D02*
X209550000Y-118364000D01*
X161798000Y-74676000D02*
X161798000Y-78232000D01*
%TO.N,/HALL_C_3V3*%
X185674000Y-113038000D02*
X188722000Y-116086000D01*
X209296000Y-116078000D02*
X219964000Y-116078000D01*
X173523696Y-80350357D02*
X185674000Y-92500661D01*
X219964000Y-116078000D02*
X222250000Y-118364000D01*
X209288000Y-116086000D02*
X209296000Y-116078000D01*
X170476403Y-80350357D02*
X173523696Y-80350357D01*
X185674000Y-92500661D02*
X185674000Y-113038000D01*
X188722000Y-116086000D02*
X209288000Y-116086000D01*
%TD*%
%TA.AperFunction,Conductor*%
%TO.N,GND*%
G36*
X243762009Y-41158091D02*
G01*
X243840000Y-41190396D01*
X243880337Y-41173688D01*
X243948266Y-41165648D01*
X245232962Y-41369123D01*
X245270451Y-41381304D01*
X246509281Y-42012520D01*
X246541173Y-42035692D01*
X247524308Y-43018827D01*
X247547480Y-43050718D01*
X247748892Y-43446011D01*
X248178695Y-44289547D01*
X248190877Y-44327039D01*
X248310776Y-45084053D01*
X248288263Y-45177825D01*
X248206038Y-45228213D01*
X248112266Y-45205700D01*
X248077208Y-45166764D01*
X247093335Y-43462645D01*
X247079377Y-43446011D01*
X246868337Y-43268927D01*
X246855402Y-43264849D01*
X246843961Y-43301134D01*
X246844439Y-43312076D01*
X246815131Y-43358080D01*
X242946934Y-47226276D01*
X242939592Y-47244000D01*
X242946934Y-47261724D01*
X246817818Y-51132607D01*
X246854723Y-51221702D01*
X246854468Y-51222983D01*
X246855251Y-51224872D01*
X246866157Y-51220902D01*
X247079377Y-51041989D01*
X247093334Y-51025355D01*
X248106416Y-49270645D01*
X248113843Y-49250241D01*
X248161414Y-48980454D01*
X248213229Y-48899121D01*
X248307380Y-48878248D01*
X248388713Y-48930063D01*
X248411500Y-49002334D01*
X248411500Y-152165666D01*
X248374595Y-152254761D01*
X248285500Y-152291666D01*
X248196405Y-152254761D01*
X248161414Y-152187546D01*
X248113843Y-151917759D01*
X248106416Y-151897355D01*
X247093334Y-150142645D01*
X247079377Y-150126011D01*
X246868337Y-149948927D01*
X246855402Y-149944849D01*
X246843961Y-149981134D01*
X246844439Y-149992076D01*
X246815131Y-150038080D01*
X242946934Y-153906276D01*
X242939592Y-153924000D01*
X242946934Y-153941724D01*
X246817818Y-157812607D01*
X246854723Y-157901702D01*
X246854468Y-157902983D01*
X246855251Y-157904872D01*
X246866157Y-157900902D01*
X247079377Y-157721989D01*
X247093334Y-157705355D01*
X248106416Y-155950645D01*
X248113843Y-155930241D01*
X248161414Y-155660454D01*
X248213229Y-155579121D01*
X248307380Y-155558248D01*
X248388713Y-155610063D01*
X248411500Y-155682334D01*
X248411500Y-155829791D01*
X248401909Y-155878009D01*
X248369604Y-155956000D01*
X248379195Y-155979155D01*
X248386312Y-155996337D01*
X248394352Y-156064266D01*
X248208675Y-157236591D01*
X248190877Y-157348961D01*
X248178696Y-157386451D01*
X247716388Y-158293780D01*
X247547480Y-158625281D01*
X247524308Y-158657173D01*
X246541173Y-159640308D01*
X246509282Y-159663480D01*
X245270451Y-160294696D01*
X245232962Y-160306877D01*
X243948266Y-160510352D01*
X243880337Y-160502312D01*
X243863155Y-160495195D01*
X243840000Y-160485604D01*
X243766833Y-160515911D01*
X243762009Y-160517909D01*
X243713791Y-160527500D01*
X152526209Y-160527500D01*
X152477991Y-160517909D01*
X152473168Y-160515911D01*
X152400000Y-160485604D01*
X152376845Y-160495195D01*
X152359663Y-160502312D01*
X152291734Y-160510352D01*
X151007038Y-160306877D01*
X150969549Y-160294696D01*
X149730718Y-159663480D01*
X149698827Y-159640308D01*
X148715692Y-158657173D01*
X148692520Y-158625281D01*
X148523612Y-158293780D01*
X148481156Y-158210456D01*
X150007137Y-158210456D01*
X150012668Y-158223809D01*
X150966756Y-159024384D01*
X150985560Y-159035241D01*
X152889532Y-159728229D01*
X152910918Y-159732000D01*
X154937082Y-159732000D01*
X154958468Y-159728229D01*
X156862440Y-159035241D01*
X156881244Y-159024384D01*
X157510947Y-158496000D01*
X160560647Y-158496000D01*
X160570238Y-158519155D01*
X160621561Y-158643060D01*
X160848664Y-159191336D01*
X161544000Y-159479353D01*
X162239336Y-159191336D01*
X162443591Y-158698220D01*
X162511782Y-158630029D01*
X162608218Y-158630029D01*
X162676409Y-158698220D01*
X162880664Y-159191336D01*
X163576000Y-159479353D01*
X164271336Y-159191336D01*
X164475591Y-158698220D01*
X164543782Y-158630029D01*
X164640218Y-158630029D01*
X164708409Y-158698220D01*
X164912664Y-159191336D01*
X165608000Y-159479353D01*
X166303336Y-159191336D01*
X166530439Y-158643060D01*
X166581762Y-158519155D01*
X166591353Y-158496000D01*
X166535837Y-158361971D01*
X166486143Y-158242000D01*
X170466647Y-158242000D01*
X170476238Y-158265155D01*
X170546873Y-158435683D01*
X170754664Y-158937336D01*
X170964817Y-159024384D01*
X171367876Y-159191336D01*
X171450000Y-159225353D01*
X171532125Y-159191336D01*
X171935183Y-159024384D01*
X172145336Y-158937336D01*
X172353127Y-158435683D01*
X172423762Y-158265155D01*
X172433353Y-158242000D01*
X172145336Y-157546664D01*
X171958826Y-157469409D01*
X171890635Y-157401218D01*
X171890635Y-157304782D01*
X171958826Y-157236591D01*
X172017362Y-157212344D01*
X172145336Y-157159336D01*
X172433353Y-156464000D01*
X172383660Y-156344029D01*
X172181037Y-155854854D01*
X172145336Y-155768664D01*
X171536994Y-155516681D01*
X171473155Y-155490238D01*
X171450000Y-155480647D01*
X171426845Y-155490238D01*
X171363006Y-155516681D01*
X170754664Y-155768664D01*
X170718963Y-155854854D01*
X170516341Y-156344029D01*
X170466647Y-156464000D01*
X170754664Y-157159336D01*
X170882638Y-157212344D01*
X170941174Y-157236591D01*
X171009365Y-157304782D01*
X171009365Y-157401218D01*
X170941174Y-157469409D01*
X170754664Y-157546664D01*
X170466647Y-158242000D01*
X166486143Y-158242000D01*
X166472702Y-158209551D01*
X166303336Y-157800664D01*
X165746021Y-157569817D01*
X165631155Y-157522238D01*
X165608000Y-157512647D01*
X165584845Y-157522238D01*
X165469979Y-157569817D01*
X164912664Y-157800664D01*
X164871902Y-157899073D01*
X164708409Y-158293780D01*
X164640218Y-158361971D01*
X164543782Y-158361971D01*
X164475591Y-158293780D01*
X164312098Y-157899073D01*
X164271336Y-157800664D01*
X163714021Y-157569817D01*
X163599155Y-157522238D01*
X163576000Y-157512647D01*
X163552845Y-157522238D01*
X163437979Y-157569817D01*
X162880664Y-157800664D01*
X162839902Y-157899073D01*
X162676409Y-158293780D01*
X162608218Y-158361971D01*
X162511782Y-158361971D01*
X162443591Y-158293780D01*
X162280098Y-157899073D01*
X162239336Y-157800664D01*
X161682021Y-157569817D01*
X161567155Y-157522238D01*
X161544000Y-157512647D01*
X161520845Y-157522238D01*
X161405979Y-157569817D01*
X160848664Y-157800664D01*
X160679298Y-158209551D01*
X160616164Y-158361971D01*
X160560647Y-158496000D01*
X157510947Y-158496000D01*
X157832046Y-158226566D01*
X157840904Y-158209551D01*
X157836558Y-158195769D01*
X153941724Y-154300934D01*
X153924000Y-154293592D01*
X153906276Y-154300934D01*
X150014479Y-158192732D01*
X150007137Y-158210456D01*
X148481156Y-158210456D01*
X148061304Y-157386451D01*
X148049123Y-157348961D01*
X148031326Y-157236591D01*
X147845648Y-156064266D01*
X147853688Y-155996337D01*
X147860805Y-155979155D01*
X147870396Y-155956000D01*
X147838091Y-155878009D01*
X147828500Y-155829791D01*
X147828500Y-154241830D01*
X147865405Y-154152735D01*
X147954500Y-154115830D01*
X148043595Y-154152735D01*
X148078586Y-154219950D01*
X148380157Y-155930241D01*
X148387584Y-155950645D01*
X149400666Y-157705355D01*
X149414623Y-157721989D01*
X149625663Y-157899073D01*
X149638598Y-157903151D01*
X149650039Y-157866866D01*
X149649561Y-157855924D01*
X149678869Y-157809920D01*
X153547066Y-153941724D01*
X153554408Y-153924000D01*
X154293592Y-153924000D01*
X154300934Y-153941724D01*
X158171818Y-157812607D01*
X158208723Y-157901702D01*
X158208468Y-157902983D01*
X158209251Y-157904872D01*
X158220157Y-157900902D01*
X158433377Y-157721989D01*
X158447334Y-157705355D01*
X159310677Y-156210000D01*
X160560647Y-156210000D01*
X160570238Y-156233155D01*
X160640873Y-156403683D01*
X160848664Y-156905336D01*
X161065507Y-156995155D01*
X161461876Y-157159336D01*
X161544000Y-157193353D01*
X161626125Y-157159336D01*
X162022493Y-156995155D01*
X162239336Y-156905336D01*
X162443591Y-156412220D01*
X162511782Y-156344029D01*
X162608218Y-156344029D01*
X162676409Y-156412220D01*
X162880664Y-156905336D01*
X163097507Y-156995155D01*
X163493876Y-157159336D01*
X163576000Y-157193353D01*
X163658125Y-157159336D01*
X164054493Y-156995155D01*
X164271336Y-156905336D01*
X164475591Y-156412220D01*
X164543782Y-156344029D01*
X164640218Y-156344029D01*
X164708409Y-156412220D01*
X164912664Y-156905336D01*
X165129507Y-156995155D01*
X165525876Y-157159336D01*
X165608000Y-157193353D01*
X165690125Y-157159336D01*
X166086493Y-156995155D01*
X166303336Y-156905336D01*
X166511127Y-156403683D01*
X166581762Y-156233155D01*
X166591353Y-156210000D01*
X166535837Y-156075971D01*
X166383720Y-155708728D01*
X166303336Y-155514664D01*
X165608000Y-155226647D01*
X165008265Y-155475065D01*
X164915259Y-155475065D01*
X164918888Y-155493311D01*
X164911718Y-155516948D01*
X164708409Y-156007780D01*
X164640218Y-156075971D01*
X164543782Y-156075971D01*
X164475591Y-156007780D01*
X164360246Y-155729312D01*
X164360246Y-155632876D01*
X164412383Y-155580739D01*
X164408833Y-155575426D01*
X164514122Y-155505074D01*
X164725307Y-155363965D01*
X164819890Y-155345151D01*
X164843639Y-155361020D01*
X164843639Y-155310438D01*
X164881517Y-155264280D01*
X164880451Y-155263214D01*
X164889228Y-155254437D01*
X164899544Y-155247544D01*
X165227426Y-154756833D01*
X165342563Y-154178000D01*
X172477437Y-154178000D01*
X172592574Y-154756833D01*
X172920456Y-155247544D01*
X172930772Y-155254437D01*
X173349110Y-155533961D01*
X173402687Y-155614145D01*
X173383873Y-155708728D01*
X173327326Y-155755135D01*
X173294664Y-155768664D01*
X173258963Y-155854854D01*
X173056341Y-156344029D01*
X173006647Y-156464000D01*
X173294664Y-157159336D01*
X173422638Y-157212344D01*
X173481174Y-157236591D01*
X173549365Y-157304782D01*
X173549365Y-157401218D01*
X173481174Y-157469409D01*
X173294664Y-157546664D01*
X173006647Y-158242000D01*
X173016238Y-158265155D01*
X173086873Y-158435683D01*
X173294664Y-158937336D01*
X173504817Y-159024384D01*
X173907876Y-159191336D01*
X173990000Y-159225353D01*
X174072125Y-159191336D01*
X174475183Y-159024384D01*
X174685336Y-158937336D01*
X174893127Y-158435683D01*
X174963762Y-158265155D01*
X174973353Y-158242000D01*
X175292647Y-158242000D01*
X175302238Y-158265155D01*
X175372873Y-158435683D01*
X175580664Y-158937336D01*
X175790817Y-159024384D01*
X176193876Y-159191336D01*
X176276000Y-159225353D01*
X176358125Y-159191336D01*
X176761183Y-159024384D01*
X176971336Y-158937336D01*
X177154143Y-158496000D01*
X181388647Y-158496000D01*
X181398238Y-158519155D01*
X181449561Y-158643060D01*
X181676664Y-159191336D01*
X182372000Y-159479353D01*
X183067336Y-159191336D01*
X183294439Y-158643060D01*
X183345762Y-158519155D01*
X183355353Y-158496000D01*
X183674647Y-158496000D01*
X183684238Y-158519155D01*
X183735561Y-158643060D01*
X183962664Y-159191336D01*
X184658000Y-159479353D01*
X185353336Y-159191336D01*
X185557591Y-158698220D01*
X185625782Y-158630029D01*
X185722218Y-158630029D01*
X185790409Y-158698220D01*
X185994664Y-159191336D01*
X186690000Y-159479353D01*
X187385336Y-159191336D01*
X187612439Y-158643060D01*
X187663762Y-158519155D01*
X187673353Y-158496000D01*
X187617837Y-158361971D01*
X187555077Y-158210456D01*
X238653137Y-158210456D01*
X238658668Y-158223809D01*
X239612756Y-159024384D01*
X239631560Y-159035241D01*
X241535532Y-159728229D01*
X241556918Y-159732000D01*
X243583082Y-159732000D01*
X243604468Y-159728229D01*
X245508440Y-159035241D01*
X245527244Y-159024384D01*
X246478046Y-158226566D01*
X246486904Y-158209551D01*
X246482558Y-158195769D01*
X242587724Y-154300934D01*
X242570000Y-154293592D01*
X242552276Y-154300934D01*
X238660479Y-158192732D01*
X238653137Y-158210456D01*
X187555077Y-158210456D01*
X187554702Y-158209551D01*
X187385336Y-157800664D01*
X187384825Y-157800452D01*
X187357299Y-157734000D01*
X187384825Y-157667548D01*
X187385336Y-157667336D01*
X187605346Y-157136183D01*
X187663762Y-156995155D01*
X187673353Y-156972000D01*
X187617837Y-156837971D01*
X187394926Y-156299817D01*
X187385336Y-156276664D01*
X186690000Y-155988647D01*
X185994664Y-156276664D01*
X185985074Y-156299817D01*
X185790409Y-156769780D01*
X185722218Y-156837971D01*
X185625782Y-156837971D01*
X185557591Y-156769780D01*
X185362926Y-156299817D01*
X185353336Y-156276664D01*
X184658000Y-155988647D01*
X183962664Y-156276664D01*
X183953074Y-156299817D01*
X183730164Y-156837971D01*
X183674647Y-156972000D01*
X183684238Y-156995155D01*
X183742654Y-157136183D01*
X183962664Y-157667336D01*
X183963175Y-157667548D01*
X183990701Y-157734000D01*
X183963175Y-157800452D01*
X183962664Y-157800664D01*
X183793298Y-158209551D01*
X183730164Y-158361971D01*
X183674647Y-158496000D01*
X183355353Y-158496000D01*
X183299837Y-158361971D01*
X183236702Y-158209551D01*
X183067336Y-157800664D01*
X183066825Y-157800452D01*
X183039299Y-157734000D01*
X183066825Y-157667548D01*
X183067336Y-157667336D01*
X183287346Y-157136183D01*
X183345762Y-156995155D01*
X183355353Y-156972000D01*
X183299837Y-156837971D01*
X183076926Y-156299817D01*
X183067336Y-156276664D01*
X182372000Y-155988647D01*
X181676664Y-156276664D01*
X181667074Y-156299817D01*
X181444164Y-156837971D01*
X181388647Y-156972000D01*
X181398238Y-156995155D01*
X181456654Y-157136183D01*
X181676664Y-157667336D01*
X181677175Y-157667548D01*
X181704701Y-157734000D01*
X181677175Y-157800452D01*
X181676664Y-157800664D01*
X181507298Y-158209551D01*
X181444164Y-158361971D01*
X181388647Y-158496000D01*
X177154143Y-158496000D01*
X177179127Y-158435683D01*
X177249762Y-158265155D01*
X177259353Y-158242000D01*
X176971336Y-157546664D01*
X176784826Y-157469409D01*
X176716635Y-157401218D01*
X176716635Y-157304782D01*
X176784826Y-157236591D01*
X176843362Y-157212344D01*
X176971336Y-157159336D01*
X177259353Y-156464000D01*
X177209660Y-156344029D01*
X177007037Y-155854854D01*
X176971336Y-155768664D01*
X176362994Y-155516681D01*
X176299155Y-155490238D01*
X176276000Y-155480647D01*
X176252845Y-155490238D01*
X176189006Y-155516681D01*
X175580664Y-155768664D01*
X175544963Y-155854854D01*
X175342341Y-156344029D01*
X175292647Y-156464000D01*
X175580664Y-157159336D01*
X175708638Y-157212344D01*
X175767174Y-157236591D01*
X175835365Y-157304782D01*
X175835365Y-157401218D01*
X175767174Y-157469409D01*
X175580664Y-157546664D01*
X175292647Y-158242000D01*
X174973353Y-158242000D01*
X174685336Y-157546664D01*
X174498826Y-157469409D01*
X174430635Y-157401218D01*
X174430635Y-157304782D01*
X174498826Y-157236591D01*
X174557362Y-157212344D01*
X174685336Y-157159336D01*
X174973353Y-156464000D01*
X174923660Y-156344029D01*
X174721037Y-155854854D01*
X174685336Y-155768664D01*
X174652674Y-155755135D01*
X174584483Y-155686944D01*
X174584483Y-155590508D01*
X174630890Y-155533961D01*
X175049228Y-155254437D01*
X175059544Y-155247544D01*
X175387426Y-154756833D01*
X175502563Y-154178000D01*
X182637437Y-154178000D01*
X182752574Y-154756833D01*
X183080456Y-155247544D01*
X183571167Y-155575426D01*
X184150000Y-155690563D01*
X184728833Y-155575426D01*
X185219544Y-155247544D01*
X185547426Y-154756833D01*
X185662563Y-154178000D01*
X185614198Y-153934855D01*
X236674316Y-153934855D01*
X237026157Y-155930241D01*
X237033584Y-155950645D01*
X238046666Y-157705355D01*
X238060623Y-157721989D01*
X238271663Y-157899073D01*
X238284598Y-157903151D01*
X238296039Y-157866866D01*
X238295561Y-157855924D01*
X238324869Y-157809920D01*
X242193066Y-153941724D01*
X242200408Y-153924000D01*
X242193066Y-153906276D01*
X238322182Y-150035393D01*
X238285277Y-149946298D01*
X238285532Y-149945017D01*
X238284749Y-149943128D01*
X238273843Y-149947098D01*
X238060623Y-150126011D01*
X238046666Y-150142645D01*
X237033584Y-151897355D01*
X237026157Y-151917759D01*
X236674316Y-153913145D01*
X236674316Y-153934855D01*
X185614198Y-153934855D01*
X185547426Y-153599167D01*
X185232302Y-153127549D01*
X185226437Y-153118772D01*
X185219544Y-153108456D01*
X185207117Y-153100152D01*
X185205705Y-153098040D01*
X185200451Y-153092786D01*
X185201496Y-153091741D01*
X185153539Y-153019969D01*
X185160709Y-152947169D01*
X185303591Y-152602220D01*
X185371782Y-152534029D01*
X185468218Y-152534029D01*
X185536409Y-152602220D01*
X185544334Y-152621353D01*
X185740664Y-153095336D01*
X186436000Y-153383353D01*
X187131336Y-153095336D01*
X187352925Y-152560372D01*
X187409762Y-152423155D01*
X187419353Y-152400000D01*
X187363837Y-152265971D01*
X187322289Y-152165666D01*
X187131336Y-151704664D01*
X186436000Y-151416647D01*
X185740664Y-151704664D01*
X185731074Y-151727817D01*
X185536409Y-152197780D01*
X185468218Y-152265971D01*
X185371782Y-152265971D01*
X185303591Y-152197780D01*
X185108926Y-151727817D01*
X185099336Y-151704664D01*
X184404000Y-151416647D01*
X183708664Y-151704664D01*
X183517711Y-152165666D01*
X183476164Y-152265971D01*
X183420647Y-152400000D01*
X183536044Y-152678592D01*
X183537171Y-152681314D01*
X183537171Y-152777750D01*
X183490764Y-152834297D01*
X183098676Y-153096282D01*
X183080456Y-153108456D01*
X183073563Y-153118772D01*
X183064786Y-153127549D01*
X183062770Y-153125533D01*
X182993920Y-153171532D01*
X182975679Y-153167903D01*
X182975679Y-153260909D01*
X182964036Y-153282691D01*
X182752574Y-153599167D01*
X182637437Y-154178000D01*
X175502563Y-154178000D01*
X175387426Y-153599167D01*
X175072302Y-153127549D01*
X175066437Y-153118772D01*
X175059544Y-153108456D01*
X175039909Y-153095336D01*
X174579152Y-152787469D01*
X174568833Y-152780574D01*
X174325485Y-152732169D01*
X174245302Y-152678592D01*
X174226488Y-152584008D01*
X174280065Y-152503825D01*
X174301849Y-152492181D01*
X174468493Y-152423155D01*
X174685336Y-152333336D01*
X174973353Y-151638000D01*
X175292647Y-151638000D01*
X175580664Y-152333336D01*
X175797507Y-152423155D01*
X176128779Y-152560372D01*
X176276000Y-152621353D01*
X176423222Y-152560372D01*
X176754493Y-152423155D01*
X176810394Y-152400000D01*
X181134647Y-152400000D01*
X181144238Y-152423155D01*
X181201075Y-152560372D01*
X181422664Y-153095336D01*
X182118000Y-153383353D01*
X182811052Y-153096282D01*
X182861634Y-153096282D01*
X182845764Y-153072528D01*
X182852935Y-152999736D01*
X183101353Y-152400000D01*
X183045837Y-152265971D01*
X183004289Y-152165666D01*
X182813336Y-151704664D01*
X182118000Y-151416647D01*
X181422664Y-151704664D01*
X181231711Y-152165666D01*
X181190164Y-152265971D01*
X181134647Y-152400000D01*
X176810394Y-152400000D01*
X176971336Y-152333336D01*
X177259353Y-151638000D01*
X176971336Y-150942664D01*
X176276000Y-150654647D01*
X175580664Y-150942664D01*
X175292647Y-151638000D01*
X174973353Y-151638000D01*
X174685336Y-150942664D01*
X173990000Y-150654647D01*
X173294664Y-150942664D01*
X173006647Y-151638000D01*
X173294664Y-152333336D01*
X173511507Y-152423155D01*
X173678151Y-152492181D01*
X173746342Y-152560372D01*
X173746342Y-152656808D01*
X173678151Y-152724999D01*
X173654514Y-152732169D01*
X173411167Y-152780574D01*
X173400848Y-152787469D01*
X172940092Y-153095336D01*
X172920456Y-153108456D01*
X172913563Y-153118772D01*
X172907698Y-153127549D01*
X172592574Y-153599167D01*
X172477437Y-154178000D01*
X165342563Y-154178000D01*
X165227426Y-153599167D01*
X164912302Y-153127549D01*
X164906437Y-153118772D01*
X164899544Y-153108456D01*
X164879909Y-153095336D01*
X164419152Y-152787469D01*
X164408833Y-152780574D01*
X163830000Y-152665437D01*
X163251167Y-152780574D01*
X163240848Y-152787469D01*
X162780092Y-153095336D01*
X162760456Y-153108456D01*
X162753563Y-153118772D01*
X162747698Y-153127549D01*
X162432574Y-153599167D01*
X162317437Y-154178000D01*
X162432574Y-154756833D01*
X162760456Y-155247544D01*
X162770772Y-155254437D01*
X162770774Y-155254439D01*
X162873116Y-155322821D01*
X162926694Y-155403004D01*
X162907880Y-155497587D01*
X162900664Y-155506380D01*
X162880664Y-155514664D01*
X162800280Y-155708728D01*
X162676409Y-156007780D01*
X162608218Y-156075971D01*
X162511782Y-156075971D01*
X162443591Y-156007780D01*
X162319720Y-155708728D01*
X162239336Y-155514664D01*
X161544000Y-155226647D01*
X160848664Y-155514664D01*
X160768280Y-155708728D01*
X160616164Y-156075971D01*
X160560647Y-156210000D01*
X159310677Y-156210000D01*
X159460416Y-155950645D01*
X159467843Y-155930241D01*
X159819684Y-153934855D01*
X159819684Y-153913145D01*
X159467843Y-151917759D01*
X159460416Y-151897355D01*
X159310677Y-151638000D01*
X170466647Y-151638000D01*
X170754664Y-152333336D01*
X170971507Y-152423155D01*
X171302779Y-152560372D01*
X171450000Y-152621353D01*
X171597222Y-152560372D01*
X171928493Y-152423155D01*
X172145336Y-152333336D01*
X172433353Y-151638000D01*
X172145336Y-150942664D01*
X171450000Y-150654647D01*
X170754664Y-150942664D01*
X170466647Y-151638000D01*
X159310677Y-151638000D01*
X158577443Y-150368000D01*
X160560647Y-150368000D01*
X160570238Y-150391155D01*
X160640873Y-150561683D01*
X160848664Y-151063336D01*
X161544000Y-151351353D01*
X162239336Y-151063336D01*
X162443591Y-150570220D01*
X162511782Y-150502029D01*
X162608218Y-150502029D01*
X162676409Y-150570220D01*
X162880664Y-151063336D01*
X163576000Y-151351353D01*
X164271336Y-151063336D01*
X164475591Y-150570220D01*
X164543782Y-150502029D01*
X164640218Y-150502029D01*
X164708409Y-150570220D01*
X164912664Y-151063336D01*
X165608000Y-151351353D01*
X166303336Y-151063336D01*
X166511127Y-150561683D01*
X166581762Y-150391155D01*
X166591353Y-150368000D01*
X166573858Y-150325762D01*
X166448940Y-150024183D01*
X166303336Y-149672664D01*
X165608000Y-149384647D01*
X164912664Y-149672664D01*
X164767060Y-150024183D01*
X164708409Y-150165780D01*
X164640218Y-150233971D01*
X164543782Y-150233971D01*
X164475591Y-150165780D01*
X164416940Y-150024183D01*
X164271336Y-149672664D01*
X163576000Y-149384647D01*
X162880664Y-149672664D01*
X162735060Y-150024183D01*
X162676409Y-150165780D01*
X162608218Y-150233971D01*
X162511782Y-150233971D01*
X162443591Y-150165780D01*
X162384940Y-150024183D01*
X162239336Y-149672664D01*
X161544000Y-149384647D01*
X160848664Y-149672664D01*
X160703060Y-150024183D01*
X160578143Y-150325762D01*
X160560647Y-150368000D01*
X158577443Y-150368000D01*
X158447334Y-150142645D01*
X158433377Y-150126011D01*
X158222337Y-149948927D01*
X158209402Y-149944849D01*
X158197961Y-149981134D01*
X158198439Y-149992076D01*
X158169131Y-150038080D01*
X154300934Y-153906276D01*
X154293592Y-153924000D01*
X153554408Y-153924000D01*
X153547066Y-153906276D01*
X149676182Y-150035393D01*
X149639277Y-149946298D01*
X149639532Y-149945017D01*
X149638749Y-149943128D01*
X149627843Y-149947098D01*
X149414623Y-150126011D01*
X149400666Y-150142645D01*
X148387584Y-151897355D01*
X148380157Y-151917759D01*
X148078586Y-153628050D01*
X148026771Y-153709383D01*
X147932620Y-153730256D01*
X147851287Y-153678441D01*
X147828500Y-153606170D01*
X147828500Y-149638449D01*
X150007096Y-149638449D01*
X150011442Y-149652231D01*
X153906276Y-153547066D01*
X153924000Y-153554408D01*
X153941724Y-153547066D01*
X157833521Y-149655268D01*
X157840863Y-149637544D01*
X157835332Y-149624191D01*
X157510947Y-149352000D01*
X170466647Y-149352000D01*
X170476238Y-149375155D01*
X170546873Y-149545683D01*
X170754664Y-150047336D01*
X171450000Y-150335353D01*
X172145336Y-150047336D01*
X172353127Y-149545683D01*
X172423762Y-149375155D01*
X172433353Y-149352000D01*
X173006647Y-149352000D01*
X173016238Y-149375155D01*
X173086873Y-149545683D01*
X173294664Y-150047336D01*
X173990000Y-150335353D01*
X174685336Y-150047336D01*
X174893127Y-149545683D01*
X174963762Y-149375155D01*
X174973353Y-149352000D01*
X175292647Y-149352000D01*
X175302238Y-149375155D01*
X175372873Y-149545683D01*
X175580664Y-150047336D01*
X176276000Y-150335353D01*
X176971336Y-150047336D01*
X177140702Y-149638449D01*
X238653096Y-149638449D01*
X238657442Y-149652231D01*
X242552276Y-153547066D01*
X242570000Y-153554408D01*
X242587724Y-153547066D01*
X246479521Y-149655268D01*
X246486863Y-149637544D01*
X246481332Y-149624191D01*
X245527244Y-148823616D01*
X245508440Y-148812759D01*
X243604468Y-148119771D01*
X243583082Y-148116000D01*
X241556918Y-148116000D01*
X241535532Y-148119771D01*
X239631560Y-148812759D01*
X239612756Y-148823616D01*
X238661954Y-149621434D01*
X238653096Y-149638449D01*
X177140702Y-149638449D01*
X177179127Y-149545683D01*
X177249762Y-149375155D01*
X177259353Y-149352000D01*
X176971336Y-148656664D01*
X176276000Y-148368647D01*
X175580664Y-148656664D01*
X175292647Y-149352000D01*
X174973353Y-149352000D01*
X174685336Y-148656664D01*
X173990000Y-148368647D01*
X173294664Y-148656664D01*
X173006647Y-149352000D01*
X172433353Y-149352000D01*
X172145336Y-148656664D01*
X171450000Y-148368647D01*
X170754664Y-148656664D01*
X170466647Y-149352000D01*
X157510947Y-149352000D01*
X156881244Y-148823616D01*
X156862440Y-148812759D01*
X154958468Y-148119771D01*
X154937082Y-148116000D01*
X152910918Y-148116000D01*
X152889532Y-148119771D01*
X150985560Y-148812759D01*
X150966756Y-148823616D01*
X150015954Y-149621434D01*
X150007096Y-149638449D01*
X147828500Y-149638449D01*
X147828500Y-147828000D01*
X160560647Y-147828000D01*
X160570238Y-147851155D01*
X160640873Y-148021683D01*
X160848664Y-148523336D01*
X161544000Y-148811353D01*
X162239336Y-148523336D01*
X162443591Y-148030220D01*
X162511782Y-147962029D01*
X162608218Y-147962029D01*
X162676409Y-148030220D01*
X162880664Y-148523336D01*
X163576000Y-148811353D01*
X164271336Y-148523336D01*
X164475591Y-148030220D01*
X164543782Y-147962029D01*
X164640218Y-147962029D01*
X164708409Y-148030220D01*
X164912664Y-148523336D01*
X165608000Y-148811353D01*
X166303336Y-148523336D01*
X166511127Y-148021683D01*
X166581762Y-147851155D01*
X166591353Y-147828000D01*
X166535837Y-147693971D01*
X166312926Y-147155817D01*
X166303336Y-147132664D01*
X165608000Y-146844647D01*
X164912664Y-147132664D01*
X164903074Y-147155817D01*
X164708409Y-147625780D01*
X164640218Y-147693971D01*
X164543782Y-147693971D01*
X164475591Y-147625780D01*
X164280926Y-147155817D01*
X164271336Y-147132664D01*
X163576000Y-146844647D01*
X162880664Y-147132664D01*
X162871074Y-147155817D01*
X162676409Y-147625780D01*
X162608218Y-147693971D01*
X162511782Y-147693971D01*
X162443591Y-147625780D01*
X162248926Y-147155817D01*
X162239336Y-147132664D01*
X161544000Y-146844647D01*
X160848664Y-147132664D01*
X160839074Y-147155817D01*
X160616164Y-147693971D01*
X160560647Y-147828000D01*
X147828500Y-147828000D01*
X147828500Y-145542000D01*
X160560647Y-145542000D01*
X160570238Y-145565155D01*
X160640873Y-145735683D01*
X160848664Y-146237336D01*
X161544000Y-146525353D01*
X162239336Y-146237336D01*
X162443591Y-145744220D01*
X162511782Y-145676029D01*
X162608218Y-145676029D01*
X162676409Y-145744220D01*
X162880664Y-146237336D01*
X163576000Y-146525353D01*
X164271336Y-146237336D01*
X164475591Y-145744220D01*
X164543782Y-145676029D01*
X164640218Y-145676029D01*
X164708409Y-145744220D01*
X164912664Y-146237336D01*
X165608000Y-146525353D01*
X166303336Y-146237336D01*
X166511127Y-145735683D01*
X166581762Y-145565155D01*
X166591353Y-145542000D01*
X166535837Y-145407971D01*
X166312926Y-144869817D01*
X166303336Y-144846664D01*
X165608000Y-144558647D01*
X164912664Y-144846664D01*
X164903074Y-144869817D01*
X164708409Y-145339780D01*
X164640218Y-145407971D01*
X164543782Y-145407971D01*
X164475591Y-145339780D01*
X164280926Y-144869817D01*
X164271336Y-144846664D01*
X163576000Y-144558647D01*
X162880664Y-144846664D01*
X162871074Y-144869817D01*
X162676409Y-145339780D01*
X162608218Y-145407971D01*
X162511782Y-145407971D01*
X162443591Y-145339780D01*
X162248926Y-144869817D01*
X162239336Y-144846664D01*
X161544000Y-144558647D01*
X160848664Y-144846664D01*
X160839074Y-144869817D01*
X160616164Y-145407971D01*
X160560647Y-145542000D01*
X147828500Y-145542000D01*
X147828500Y-142192000D01*
X204373899Y-142192000D01*
X204472349Y-142686944D01*
X204752713Y-143106537D01*
X205172306Y-143386901D01*
X205667250Y-143485351D01*
X206162194Y-143386901D01*
X206581787Y-143106537D01*
X206862151Y-142686944D01*
X206960601Y-142192000D01*
X207373899Y-142192000D01*
X207472349Y-142686944D01*
X207752713Y-143106537D01*
X208172306Y-143386901D01*
X208667250Y-143485351D01*
X209162194Y-143386901D01*
X209581787Y-143106537D01*
X209651582Y-143002082D01*
X210398750Y-143002082D01*
X210428254Y-143150407D01*
X210435146Y-143160722D01*
X210435147Y-143160724D01*
X210527693Y-143299228D01*
X210540642Y-143318608D01*
X210550958Y-143325501D01*
X210698526Y-143424103D01*
X210698528Y-143424104D01*
X210708843Y-143430996D01*
X210857168Y-143460500D01*
X212477332Y-143460500D01*
X212625657Y-143430996D01*
X212635972Y-143424104D01*
X212635974Y-143424103D01*
X212783542Y-143325501D01*
X212793858Y-143318608D01*
X212806807Y-143299228D01*
X212899353Y-143160724D01*
X212899354Y-143160722D01*
X212906246Y-143150407D01*
X212935750Y-143002082D01*
X212935750Y-142240000D01*
X230135437Y-142240000D01*
X230250574Y-142818833D01*
X230578456Y-143309544D01*
X231069167Y-143637426D01*
X231648000Y-143752563D01*
X232226833Y-143637426D01*
X232717544Y-143309544D01*
X233045426Y-142818833D01*
X233160563Y-142240000D01*
X241057437Y-142240000D01*
X241172574Y-142818833D01*
X241500456Y-143309544D01*
X241991167Y-143637426D01*
X242570000Y-143752563D01*
X243148833Y-143637426D01*
X243639544Y-143309544D01*
X243967426Y-142818833D01*
X244082563Y-142240000D01*
X243967426Y-141661167D01*
X243639544Y-141170456D01*
X243148833Y-140842574D01*
X242570000Y-140727437D01*
X241991167Y-140842574D01*
X241500456Y-141170456D01*
X241172574Y-141661167D01*
X241057437Y-142240000D01*
X233160563Y-142240000D01*
X233045426Y-141661167D01*
X232717544Y-141170456D01*
X232226833Y-140842574D01*
X231648000Y-140727437D01*
X231069167Y-140842574D01*
X230578456Y-141170456D01*
X230250574Y-141661167D01*
X230135437Y-142240000D01*
X212935750Y-142240000D01*
X212935750Y-141381918D01*
X212906246Y-141233593D01*
X212899354Y-141223278D01*
X212899353Y-141223276D01*
X212800751Y-141075708D01*
X212793858Y-141065392D01*
X212783542Y-141058499D01*
X212635974Y-140959897D01*
X212635972Y-140959896D01*
X212625657Y-140953004D01*
X212477332Y-140923500D01*
X210857168Y-140923500D01*
X210708843Y-140953004D01*
X210698528Y-140959896D01*
X210698526Y-140959897D01*
X210550958Y-141058499D01*
X210540642Y-141065392D01*
X210533749Y-141075708D01*
X210435147Y-141223276D01*
X210435146Y-141223278D01*
X210428254Y-141233593D01*
X210398750Y-141381918D01*
X210398750Y-143002082D01*
X209651582Y-143002082D01*
X209862151Y-142686944D01*
X209960601Y-142192000D01*
X209862151Y-141697056D01*
X209581787Y-141277463D01*
X209162194Y-140997099D01*
X208667250Y-140898649D01*
X208172306Y-140997099D01*
X207752713Y-141277463D01*
X207472349Y-141697056D01*
X207373899Y-142192000D01*
X206960601Y-142192000D01*
X206862151Y-141697056D01*
X206581787Y-141277463D01*
X206162194Y-140997099D01*
X205667250Y-140898649D01*
X205172306Y-140997099D01*
X204752713Y-141277463D01*
X204472349Y-141697056D01*
X204373899Y-142192000D01*
X147828500Y-142192000D01*
X147828500Y-138252000D01*
X198564834Y-138252000D01*
X198887724Y-139031526D01*
X199464659Y-139270500D01*
X199869841Y-139270500D01*
X200059357Y-139192000D01*
X201373899Y-139192000D01*
X201472349Y-139686944D01*
X201752713Y-140106537D01*
X202172306Y-140386901D01*
X202667250Y-140485351D01*
X203162194Y-140386901D01*
X203581787Y-140106537D01*
X203862151Y-139686944D01*
X203960601Y-139192000D01*
X204373899Y-139192000D01*
X204472349Y-139686944D01*
X204752713Y-140106537D01*
X205172306Y-140386901D01*
X205667250Y-140485351D01*
X206162194Y-140386901D01*
X206581787Y-140106537D01*
X206862151Y-139686944D01*
X206960601Y-139192000D01*
X207373899Y-139192000D01*
X207472349Y-139686944D01*
X207752713Y-140106537D01*
X208172306Y-140386901D01*
X208667250Y-140485351D01*
X209162194Y-140386901D01*
X209581787Y-140106537D01*
X209862151Y-139686944D01*
X209960601Y-139192000D01*
X209862151Y-138697056D01*
X209581787Y-138277463D01*
X209162194Y-137997099D01*
X208667250Y-137898649D01*
X208172306Y-137997099D01*
X207752713Y-138277463D01*
X207472349Y-138697056D01*
X207373899Y-139192000D01*
X206960601Y-139192000D01*
X206862151Y-138697056D01*
X206581787Y-138277463D01*
X206162194Y-137997099D01*
X205667250Y-137898649D01*
X205172306Y-137997099D01*
X204752713Y-138277463D01*
X204472349Y-138697056D01*
X204373899Y-139192000D01*
X203960601Y-139192000D01*
X203862151Y-138697056D01*
X203581787Y-138277463D01*
X203162194Y-137997099D01*
X202667250Y-137898649D01*
X202172306Y-137997099D01*
X201752713Y-138277463D01*
X201472349Y-138697056D01*
X201373899Y-139192000D01*
X200059357Y-139192000D01*
X200446776Y-139031526D01*
X200769666Y-138252000D01*
X200446776Y-137472474D01*
X199869841Y-137233500D01*
X199464659Y-137233500D01*
X198887724Y-137472474D01*
X198564834Y-138252000D01*
X147828500Y-138252000D01*
X147828500Y-127762000D01*
X209074647Y-127762000D01*
X209362664Y-128457336D01*
X209369397Y-128460125D01*
X209399500Y-128532799D01*
X209399500Y-133701954D01*
X209389909Y-133750171D01*
X209345245Y-133858000D01*
X209399500Y-133988983D01*
X209554006Y-134361994D01*
X209661836Y-134406659D01*
X209702712Y-134433972D01*
X210971845Y-135703105D01*
X211008750Y-135792200D01*
X211008750Y-138039036D01*
X210971845Y-138128131D01*
X210952753Y-138143800D01*
X210752713Y-138277463D01*
X210472349Y-138697056D01*
X210373899Y-139192000D01*
X210472349Y-139686944D01*
X210752713Y-140106537D01*
X211172306Y-140386901D01*
X211667250Y-140485351D01*
X212162194Y-140386901D01*
X212581787Y-140106537D01*
X212862151Y-139686944D01*
X212960601Y-139192000D01*
X212862151Y-138697056D01*
X212581787Y-138277463D01*
X212543679Y-138252000D01*
X213564834Y-138252000D01*
X213887724Y-139031526D01*
X214464659Y-139270500D01*
X214869841Y-139270500D01*
X215446776Y-139031526D01*
X215769666Y-138252000D01*
X215446776Y-137472474D01*
X214869841Y-137233500D01*
X214464659Y-137233500D01*
X213887724Y-137472474D01*
X213564834Y-138252000D01*
X212543679Y-138252000D01*
X212381748Y-138143801D01*
X212328171Y-138063617D01*
X212325750Y-138039036D01*
X212325750Y-135623296D01*
X212335341Y-135575078D01*
X212370414Y-135490405D01*
X212380005Y-135467250D01*
X212225499Y-135094239D01*
X212171244Y-134963256D01*
X212063414Y-134918591D01*
X212022538Y-134891278D01*
X210753405Y-133622145D01*
X210716500Y-133533050D01*
X210716500Y-128532799D01*
X210746603Y-128460125D01*
X210753336Y-128457336D01*
X211041353Y-127762000D01*
X215170647Y-127762000D01*
X215458664Y-128457336D01*
X215905175Y-128642286D01*
X216143534Y-128741018D01*
X216184411Y-128768332D01*
X219851367Y-132435288D01*
X219878680Y-132476164D01*
X219923345Y-132583994D01*
X219946499Y-132593585D01*
X220054328Y-132638249D01*
X220296356Y-132738500D01*
X220427339Y-132792755D01*
X220535168Y-132748091D01*
X220583385Y-132738500D01*
X230236458Y-132738500D01*
X230325553Y-132775405D01*
X230341221Y-132794495D01*
X230578456Y-133149544D01*
X231069167Y-133477426D01*
X231648000Y-133592563D01*
X232226833Y-133477426D01*
X232717544Y-133149544D01*
X233045426Y-132658833D01*
X233160563Y-132080000D01*
X241057437Y-132080000D01*
X241172574Y-132658833D01*
X241500456Y-133149544D01*
X241991167Y-133477426D01*
X242570000Y-133592563D01*
X243148833Y-133477426D01*
X243639544Y-133149544D01*
X243967426Y-132658833D01*
X244082563Y-132080000D01*
X243967426Y-131501167D01*
X243639544Y-131010456D01*
X243148833Y-130682574D01*
X242570000Y-130567437D01*
X241991167Y-130682574D01*
X241500456Y-131010456D01*
X241172574Y-131501167D01*
X241057437Y-132080000D01*
X233160563Y-132080000D01*
X233045426Y-131501167D01*
X232717544Y-131010456D01*
X232226833Y-130682574D01*
X231648000Y-130567437D01*
X231069167Y-130682574D01*
X230578456Y-131010456D01*
X230571563Y-131020772D01*
X230341223Y-131365502D01*
X230261040Y-131419079D01*
X230236458Y-131421500D01*
X220752289Y-131421500D01*
X220663194Y-131384595D01*
X217164666Y-127886067D01*
X217127761Y-127796970D01*
X217127761Y-127785156D01*
X217137353Y-127762000D01*
X221266647Y-127762000D01*
X221554664Y-128457336D01*
X222250000Y-128745353D01*
X222945336Y-128457336D01*
X222948125Y-128450603D01*
X223020799Y-128420500D01*
X225649954Y-128420500D01*
X225698171Y-128430091D01*
X225806000Y-128474755D01*
X225936983Y-128420500D01*
X226309994Y-128265994D01*
X226354659Y-128158164D01*
X226381972Y-128117288D01*
X231115518Y-123383742D01*
X231204613Y-123346837D01*
X231229194Y-123349258D01*
X231635829Y-123430142D01*
X231648000Y-123432563D01*
X232226833Y-123317426D01*
X232502752Y-123133063D01*
X241726529Y-123133063D01*
X241730503Y-123142655D01*
X241981043Y-123310061D01*
X242003535Y-123319377D01*
X242557829Y-123429633D01*
X242582171Y-123429633D01*
X243136465Y-123319377D01*
X243158957Y-123310061D01*
X243403014Y-123146987D01*
X243413671Y-123131038D01*
X243411645Y-123120855D01*
X242587724Y-122296934D01*
X242570000Y-122289592D01*
X242552276Y-122296934D01*
X241733871Y-123115339D01*
X241726529Y-123133063D01*
X232502752Y-123133063D01*
X232717544Y-122989544D01*
X233045426Y-122498833D01*
X233158142Y-121932171D01*
X241060367Y-121932171D01*
X241170623Y-122486465D01*
X241179939Y-122508957D01*
X241343013Y-122753014D01*
X241358962Y-122763671D01*
X241369145Y-122761645D01*
X242193066Y-121937724D01*
X242200408Y-121920000D01*
X242939592Y-121920000D01*
X242946934Y-121937724D01*
X243765339Y-122756129D01*
X243783063Y-122763471D01*
X243792655Y-122759497D01*
X243960061Y-122508957D01*
X243969377Y-122486465D01*
X244079633Y-121932171D01*
X244079633Y-121907829D01*
X243969377Y-121353535D01*
X243960061Y-121331043D01*
X243796987Y-121086986D01*
X243781038Y-121076329D01*
X243770855Y-121078355D01*
X242946934Y-121902276D01*
X242939592Y-121920000D01*
X242200408Y-121920000D01*
X242193066Y-121902276D01*
X241374661Y-121083871D01*
X241356937Y-121076529D01*
X241347345Y-121080503D01*
X241179939Y-121331043D01*
X241170623Y-121353535D01*
X241060367Y-121907829D01*
X241060367Y-121932171D01*
X233158142Y-121932171D01*
X233160563Y-121920000D01*
X233045426Y-121341167D01*
X232717544Y-120850456D01*
X232505783Y-120708962D01*
X241726329Y-120708962D01*
X241728355Y-120719145D01*
X242552276Y-121543066D01*
X242570000Y-121550408D01*
X242587724Y-121543066D01*
X243406129Y-120724661D01*
X243413471Y-120706937D01*
X243409497Y-120697345D01*
X243158957Y-120529939D01*
X243136465Y-120520623D01*
X242582171Y-120410367D01*
X242557829Y-120410367D01*
X242003535Y-120520623D01*
X241981043Y-120529939D01*
X241736986Y-120693013D01*
X241726329Y-120708962D01*
X232505783Y-120708962D01*
X232494475Y-120701406D01*
X232270941Y-120552046D01*
X232226833Y-120522574D01*
X231648000Y-120407437D01*
X231069167Y-120522574D01*
X231025059Y-120552046D01*
X230801526Y-120701406D01*
X230578456Y-120850456D01*
X230250574Y-121341167D01*
X230135437Y-121920000D01*
X230137858Y-121932171D01*
X230218742Y-122338806D01*
X230199928Y-122433389D01*
X230184258Y-122452482D01*
X225570145Y-127066595D01*
X225481050Y-127103500D01*
X223020799Y-127103500D01*
X222948125Y-127073397D01*
X222945336Y-127066664D01*
X222250000Y-126778647D01*
X221554664Y-127066664D01*
X221266647Y-127762000D01*
X217137353Y-127762000D01*
X216849336Y-127066664D01*
X216154000Y-126778647D01*
X215458664Y-127066664D01*
X215170647Y-127762000D01*
X211041353Y-127762000D01*
X210753336Y-127066664D01*
X210058000Y-126778647D01*
X209362664Y-127066664D01*
X209074647Y-127762000D01*
X147828500Y-127762000D01*
X147828500Y-123444000D01*
X169196647Y-123444000D01*
X169484664Y-124139336D01*
X170180000Y-124427353D01*
X170875336Y-124139336D01*
X171163353Y-123444000D01*
X187484647Y-123444000D01*
X187772664Y-124139336D01*
X188468000Y-124427353D01*
X189163336Y-124139336D01*
X189451353Y-123444000D01*
X189163336Y-122748664D01*
X188468000Y-122460647D01*
X187772664Y-122748664D01*
X187484647Y-123444000D01*
X171163353Y-123444000D01*
X170875336Y-122748664D01*
X170180000Y-122460647D01*
X169484664Y-122748664D01*
X169196647Y-123444000D01*
X147828500Y-123444000D01*
X147828500Y-106727836D01*
X147865405Y-106638741D01*
X147954500Y-106601836D01*
X148043595Y-106638741D01*
X148070909Y-106679617D01*
X148148664Y-106867336D01*
X148650317Y-107075127D01*
X148761876Y-107121336D01*
X148844000Y-107155353D01*
X148926125Y-107121336D01*
X149037683Y-107075127D01*
X149539336Y-106867336D01*
X149616591Y-106680826D01*
X149684782Y-106612635D01*
X149781218Y-106612635D01*
X149849409Y-106680826D01*
X149926664Y-106867336D01*
X150428317Y-107075127D01*
X150539876Y-107121336D01*
X150622000Y-107155353D01*
X150704125Y-107121336D01*
X150815683Y-107075127D01*
X151317336Y-106867336D01*
X151605353Y-106172000D01*
X151317336Y-105476664D01*
X150622000Y-105188647D01*
X149926664Y-105476664D01*
X149917074Y-105499817D01*
X149849409Y-105663174D01*
X149781218Y-105731365D01*
X149684782Y-105731365D01*
X149616591Y-105663174D01*
X149548926Y-105499817D01*
X149539336Y-105476664D01*
X149531605Y-105473462D01*
X149501088Y-105399789D01*
X149537993Y-105310694D01*
X149578868Y-105283381D01*
X150047336Y-105089336D01*
X150335353Y-104394000D01*
X150047336Y-103698664D01*
X149554220Y-103494409D01*
X149486029Y-103426218D01*
X149486029Y-103329782D01*
X149554220Y-103261591D01*
X149725453Y-103190664D01*
X150047336Y-103057336D01*
X150281974Y-102490869D01*
X150325762Y-102385155D01*
X150335353Y-102362000D01*
X150317858Y-102319762D01*
X150056926Y-101689817D01*
X150047336Y-101666664D01*
X149352000Y-101378647D01*
X148656664Y-101666664D01*
X148647074Y-101689817D01*
X148386143Y-102319762D01*
X148368647Y-102362000D01*
X148378238Y-102385155D01*
X148422026Y-102490869D01*
X148656664Y-103057336D01*
X148978547Y-103190664D01*
X149149780Y-103261591D01*
X149217971Y-103329782D01*
X149217971Y-103426218D01*
X149149780Y-103494409D01*
X148656664Y-103698664D01*
X148368647Y-104394000D01*
X148656664Y-105089336D01*
X148664395Y-105092538D01*
X148694912Y-105166211D01*
X148658007Y-105255306D01*
X148617132Y-105282619D01*
X148148664Y-105476664D01*
X148071409Y-105663174D01*
X148070909Y-105664382D01*
X148002718Y-105732573D01*
X147906282Y-105732573D01*
X147838091Y-105664382D01*
X147828500Y-105616164D01*
X147828500Y-100076000D01*
X148114647Y-100076000D01*
X148124238Y-100099155D01*
X148182654Y-100240183D01*
X148402664Y-100771336D01*
X149098000Y-101059353D01*
X149793336Y-100771336D01*
X149997591Y-100278220D01*
X150065782Y-100210029D01*
X150162218Y-100210029D01*
X150230409Y-100278220D01*
X150434664Y-100771336D01*
X151130000Y-101059353D01*
X151825336Y-100771336D01*
X152045346Y-100240183D01*
X152103762Y-100099155D01*
X152113353Y-100076000D01*
X152057837Y-99941971D01*
X151834926Y-99403817D01*
X151825336Y-99380664D01*
X151130000Y-99092647D01*
X150434664Y-99380664D01*
X150425074Y-99403817D01*
X150230409Y-99873780D01*
X150162218Y-99941971D01*
X150065782Y-99941971D01*
X149997591Y-99873780D01*
X149802926Y-99403817D01*
X149793336Y-99380664D01*
X149098000Y-99092647D01*
X148402664Y-99380664D01*
X148393074Y-99403817D01*
X148170164Y-99941971D01*
X148114647Y-100076000D01*
X147828500Y-100076000D01*
X147828500Y-83304000D01*
X152978168Y-83304000D01*
X152987759Y-83327155D01*
X153201494Y-83843155D01*
X153329591Y-84152409D01*
X153352745Y-84162000D01*
X153884814Y-84382390D01*
X153957505Y-84412500D01*
X154398495Y-84412500D01*
X154471186Y-84382390D01*
X155003255Y-84162000D01*
X155026409Y-84152409D01*
X155154507Y-83843155D01*
X155368241Y-83327155D01*
X155377832Y-83304000D01*
X155313139Y-83147817D01*
X155036000Y-82478745D01*
X155026409Y-82455591D01*
X155003255Y-82446000D01*
X154409960Y-82200249D01*
X154398495Y-82195500D01*
X153957505Y-82195500D01*
X153946040Y-82200249D01*
X153352745Y-82446000D01*
X153329591Y-82455591D01*
X153320000Y-82478745D01*
X153042861Y-83147817D01*
X152978168Y-83304000D01*
X147828500Y-83304000D01*
X147828500Y-79502000D01*
X151433245Y-79502000D01*
X151442836Y-79525155D01*
X151562528Y-79814118D01*
X151630140Y-79977346D01*
X151642006Y-80005994D01*
X151749836Y-80050659D01*
X151790712Y-80077972D01*
X152332028Y-80619288D01*
X152359341Y-80660164D01*
X152404006Y-80767994D01*
X152427160Y-80777585D01*
X152534989Y-80822249D01*
X152777017Y-80922500D01*
X152908000Y-80976755D01*
X153015829Y-80932091D01*
X153064046Y-80922500D01*
X154677201Y-80922500D01*
X154749875Y-80952603D01*
X154752664Y-80959336D01*
X155448000Y-81247353D01*
X156143336Y-80959336D01*
X156409103Y-80317716D01*
X156421762Y-80287155D01*
X156431353Y-80264000D01*
X156143336Y-79568664D01*
X155448000Y-79280647D01*
X154752664Y-79568664D01*
X154749875Y-79575397D01*
X154677201Y-79605500D01*
X153232950Y-79605500D01*
X153143855Y-79568595D01*
X152841405Y-79266145D01*
X152804500Y-79177050D01*
X152804500Y-62604500D01*
X158528647Y-62604500D01*
X158816664Y-63299836D01*
X159037104Y-63391145D01*
X159291323Y-63496446D01*
X159359514Y-63564637D01*
X159359514Y-63661073D01*
X159291323Y-63729264D01*
X159070664Y-63820664D01*
X158782647Y-64516000D01*
X159070664Y-65211336D01*
X159077397Y-65214125D01*
X159107500Y-65286799D01*
X159107500Y-77567954D01*
X159097909Y-77616171D01*
X159053245Y-77724000D01*
X159062836Y-77747155D01*
X159107500Y-77854983D01*
X159262006Y-78227994D01*
X159369836Y-78272659D01*
X159410712Y-78299972D01*
X166655952Y-85545212D01*
X166692857Y-85634307D01*
X166683266Y-85682524D01*
X166402647Y-86360000D01*
X166690664Y-87055336D01*
X166697397Y-87058125D01*
X166727500Y-87130799D01*
X166727500Y-91102238D01*
X166690595Y-91191333D01*
X166634765Y-91214459D01*
X166636500Y-91218647D01*
X165941164Y-91506664D01*
X165653147Y-92202000D01*
X165941164Y-92897336D01*
X165993111Y-92918853D01*
X166141718Y-92980408D01*
X166209909Y-93048599D01*
X166219500Y-93096817D01*
X166219500Y-103053050D01*
X166182595Y-103142145D01*
X162712712Y-106612028D01*
X162671836Y-106639341D01*
X162564006Y-106684006D01*
X162554415Y-106707160D01*
X162509751Y-106814989D01*
X162372741Y-107145762D01*
X162355245Y-107188000D01*
X162364836Y-107211155D01*
X162399909Y-107295828D01*
X162409500Y-107344046D01*
X162409500Y-120641201D01*
X162379397Y-120713875D01*
X162372664Y-120716664D01*
X162084647Y-121412000D01*
X162372664Y-122107336D01*
X163068000Y-122395353D01*
X163763336Y-122107336D01*
X164051353Y-121412000D01*
X163763336Y-120716664D01*
X163756603Y-120713875D01*
X163726500Y-120641201D01*
X163726500Y-107512950D01*
X163763405Y-107423855D01*
X166512405Y-104674855D01*
X166601500Y-104637950D01*
X166690595Y-104674855D01*
X166727500Y-104763950D01*
X166727500Y-116007050D01*
X166690595Y-116096145D01*
X164697818Y-118088922D01*
X164656942Y-118116235D01*
X164549112Y-118160900D01*
X164494857Y-118291883D01*
X164340351Y-118664894D01*
X164349942Y-118688049D01*
X164385015Y-118772722D01*
X164394606Y-118820940D01*
X164394606Y-118923060D01*
X164385015Y-118971277D01*
X164340351Y-119079106D01*
X164349942Y-119102261D01*
X164451462Y-119347353D01*
X164464985Y-119380000D01*
X164549112Y-119583100D01*
X164656942Y-119627765D01*
X164697818Y-119655078D01*
X164778028Y-119735288D01*
X164805341Y-119776164D01*
X164850006Y-119883994D01*
X164873160Y-119893585D01*
X164980989Y-119938249D01*
X165223017Y-120038500D01*
X165354000Y-120092755D01*
X165461829Y-120048091D01*
X165510046Y-120038500D01*
X180035242Y-120038500D01*
X180124337Y-120075405D01*
X180161242Y-120164500D01*
X180124337Y-120253595D01*
X180083460Y-120280909D01*
X179644664Y-120462664D01*
X179356647Y-121158000D01*
X179644664Y-121853336D01*
X179834989Y-121932171D01*
X180257876Y-122107336D01*
X180340000Y-122141353D01*
X180422125Y-122107336D01*
X180845011Y-121932171D01*
X181035336Y-121853336D01*
X181323353Y-121158000D01*
X181035336Y-120462664D01*
X180596540Y-120280909D01*
X180528349Y-120212718D01*
X180528349Y-120116282D01*
X180596540Y-120048091D01*
X180644758Y-120038500D01*
X181539050Y-120038500D01*
X181628145Y-120075405D01*
X182149952Y-120597212D01*
X182186857Y-120686307D01*
X182177266Y-120734524D01*
X181896647Y-121412000D01*
X182184664Y-122107336D01*
X182880000Y-122395353D01*
X183575336Y-122107336D01*
X183863353Y-121412000D01*
X183758143Y-121158000D01*
X199676647Y-121158000D01*
X199964664Y-121853336D01*
X200154989Y-121932171D01*
X200577876Y-122107336D01*
X200660000Y-122141353D01*
X200742125Y-122107336D01*
X201165011Y-121932171D01*
X201355336Y-121853336D01*
X201643353Y-121158000D01*
X201355336Y-120462664D01*
X200660000Y-120174647D01*
X199964664Y-120462664D01*
X199676647Y-121158000D01*
X183758143Y-121158000D01*
X183575336Y-120716664D01*
X183568603Y-120713875D01*
X183538500Y-120641201D01*
X183538500Y-120552046D01*
X183548091Y-120503828D01*
X183555552Y-120485817D01*
X183592755Y-120396000D01*
X183438249Y-120022989D01*
X183383994Y-119892006D01*
X183276164Y-119847341D01*
X183235288Y-119820028D01*
X183160855Y-119745595D01*
X183123950Y-119656500D01*
X183160855Y-119567405D01*
X183249950Y-119530500D01*
X201605050Y-119530500D01*
X201694145Y-119567405D01*
X202219496Y-120092755D01*
X202723952Y-120597211D01*
X202760857Y-120686306D01*
X202751266Y-120734524D01*
X202609686Y-121076329D01*
X202470647Y-121412000D01*
X202758664Y-122107336D01*
X203454000Y-122395353D01*
X204149336Y-122107336D01*
X204437353Y-121412000D01*
X204149336Y-120716664D01*
X204142603Y-120713875D01*
X204112500Y-120641201D01*
X204112500Y-120552046D01*
X204122091Y-120503828D01*
X204129552Y-120485817D01*
X204166755Y-120396000D01*
X204112500Y-120265017D01*
X203957994Y-119892006D01*
X203850165Y-119847342D01*
X203850163Y-119847341D01*
X203809286Y-119820027D01*
X202505973Y-118516713D01*
X202478659Y-118475836D01*
X202443585Y-118391160D01*
X202433994Y-118368006D01*
X202060983Y-118213500D01*
X201930000Y-118159245D01*
X201906845Y-118168836D01*
X201822172Y-118203909D01*
X201773954Y-118213500D01*
X167447056Y-118213500D01*
X167357961Y-118176595D01*
X167321056Y-118087500D01*
X167357961Y-117998405D01*
X168249288Y-117107078D01*
X168290164Y-117079765D01*
X168397994Y-117035100D01*
X168552500Y-116662089D01*
X168606755Y-116531106D01*
X168562091Y-116423277D01*
X168552500Y-116375060D01*
X168552500Y-107090634D01*
X168589405Y-107001539D01*
X168678500Y-106964634D01*
X168726717Y-106974225D01*
X169007754Y-107090634D01*
X169081876Y-107121336D01*
X169164000Y-107155353D01*
X169246125Y-107121336D01*
X169357683Y-107075127D01*
X169859336Y-106867336D01*
X170010986Y-106501220D01*
X170079177Y-106433029D01*
X170175613Y-106433029D01*
X170243804Y-106501220D01*
X170289702Y-106612028D01*
X170500664Y-107121336D01*
X171196000Y-107409353D01*
X171891336Y-107121336D01*
X172102298Y-106612028D01*
X172169762Y-106449155D01*
X172179353Y-106426000D01*
X171891336Y-105730664D01*
X171307626Y-105488884D01*
X171219155Y-105452238D01*
X171196000Y-105442647D01*
X171172845Y-105452238D01*
X171084374Y-105488884D01*
X170500664Y-105730664D01*
X170491074Y-105753817D01*
X170349014Y-106096780D01*
X170280823Y-106164971D01*
X170184387Y-106164971D01*
X170116196Y-106096780D01*
X169936591Y-105663174D01*
X169859336Y-105476664D01*
X169164000Y-105188647D01*
X168726717Y-105369775D01*
X168630282Y-105369775D01*
X168562091Y-105301584D01*
X168552500Y-105253366D01*
X168552500Y-104699424D01*
X168589405Y-104610329D01*
X168678500Y-104573424D01*
X168726717Y-104583015D01*
X169007754Y-104699424D01*
X169335876Y-104835336D01*
X169418000Y-104869353D01*
X169500125Y-104835336D01*
X169672466Y-104763950D01*
X170113336Y-104581336D01*
X170401353Y-103886000D01*
X170315072Y-103677699D01*
X170315072Y-103581263D01*
X170383263Y-103513072D01*
X170479699Y-103513072D01*
X170688000Y-103599353D01*
X171383336Y-103311336D01*
X171671353Y-102616000D01*
X171653858Y-102573762D01*
X171433320Y-102041336D01*
X171383336Y-101920664D01*
X170826021Y-101689817D01*
X170711155Y-101642238D01*
X170688000Y-101632647D01*
X170664845Y-101642238D01*
X170300094Y-101793322D01*
X170203658Y-101793322D01*
X170135467Y-101725131D01*
X170135467Y-101628695D01*
X170147353Y-101600000D01*
X170097660Y-101480029D01*
X169868926Y-100927817D01*
X169859336Y-100904664D01*
X169366220Y-100700409D01*
X169298029Y-100632218D01*
X169298029Y-100535782D01*
X169366220Y-100467591D01*
X169535341Y-100397539D01*
X169859336Y-100263336D01*
X169936591Y-100076826D01*
X170004782Y-100008635D01*
X170101218Y-100008635D01*
X170169409Y-100076826D01*
X170246664Y-100263336D01*
X170942000Y-100551353D01*
X171637336Y-100263336D01*
X171845127Y-99761683D01*
X171915762Y-99591155D01*
X171925353Y-99568000D01*
X171869837Y-99433971D01*
X171646926Y-98895817D01*
X171637336Y-98872664D01*
X170942000Y-98584647D01*
X170246664Y-98872664D01*
X170237074Y-98895817D01*
X170169409Y-99059174D01*
X170101218Y-99127365D01*
X170004782Y-99127365D01*
X169936591Y-99059174D01*
X169868926Y-98895817D01*
X169859336Y-98872664D01*
X169164000Y-98584647D01*
X168726717Y-98765775D01*
X168630282Y-98765775D01*
X168562091Y-98697584D01*
X168552500Y-98649366D01*
X168552500Y-98039344D01*
X168589405Y-97950249D01*
X168678500Y-97913344D01*
X168726717Y-97922935D01*
X168910000Y-97998853D01*
X169605336Y-97710836D01*
X169893353Y-97015500D01*
X169605336Y-96320164D01*
X169598603Y-96317375D01*
X169568500Y-96244701D01*
X169568500Y-86272279D01*
X169578091Y-86224061D01*
X169613164Y-86139388D01*
X169622755Y-86116233D01*
X169468249Y-85743222D01*
X169423585Y-85635393D01*
X169413994Y-85612239D01*
X169306164Y-85567574D01*
X169265288Y-85540261D01*
X168479739Y-84754712D01*
X168452425Y-84713835D01*
X168434741Y-84671141D01*
X168407761Y-84606006D01*
X168384608Y-84596416D01*
X168384607Y-84596415D01*
X168223690Y-84529761D01*
X168182813Y-84502447D01*
X167357961Y-83677595D01*
X167321056Y-83588500D01*
X167357961Y-83499405D01*
X167447056Y-83462500D01*
X173665050Y-83462500D01*
X173754145Y-83499405D01*
X183962595Y-93707855D01*
X183999500Y-93796950D01*
X183999500Y-113381954D01*
X183989909Y-113430171D01*
X183945245Y-113538000D01*
X183999500Y-113668983D01*
X184154006Y-114041994D01*
X184261839Y-114086660D01*
X184302710Y-114113970D01*
X186195791Y-116007050D01*
X187638027Y-117449286D01*
X187665341Y-117490163D01*
X187710006Y-117597994D01*
X187880619Y-117668664D01*
X188083014Y-117752499D01*
X188083015Y-117752499D01*
X188083017Y-117752500D01*
X188083018Y-117752500D01*
X188214000Y-117806755D01*
X188321829Y-117762091D01*
X188370046Y-117752500D01*
X207955050Y-117752500D01*
X208044145Y-117789405D01*
X208539333Y-118284593D01*
X208569436Y-118357267D01*
X208566647Y-118364000D01*
X208854664Y-119059336D01*
X209550000Y-119347353D01*
X210245336Y-119059336D01*
X210533353Y-118364000D01*
X210518096Y-118327165D01*
X210295348Y-117789405D01*
X210245336Y-117668664D01*
X209806540Y-117486909D01*
X209738349Y-117418718D01*
X209738349Y-117322282D01*
X209806540Y-117254091D01*
X209854758Y-117244500D01*
X214051050Y-117244500D01*
X214140145Y-117281405D01*
X215143333Y-118284593D01*
X215173436Y-118357267D01*
X215170647Y-118364000D01*
X215458664Y-119059336D01*
X216154000Y-119347353D01*
X216849336Y-119059336D01*
X217137353Y-118364000D01*
X217122096Y-118327165D01*
X216899348Y-117789405D01*
X216849336Y-117668664D01*
X216154000Y-117380647D01*
X216147267Y-117383436D01*
X216074593Y-117353333D01*
X215672855Y-116951595D01*
X215635950Y-116862500D01*
X215672855Y-116773405D01*
X215761950Y-116736500D01*
X219639050Y-116736500D01*
X219728145Y-116773405D01*
X221239333Y-118284593D01*
X221269436Y-118357267D01*
X221266647Y-118364000D01*
X221554664Y-119059336D01*
X222250000Y-119347353D01*
X222945336Y-119059336D01*
X223233353Y-118364000D01*
X223218096Y-118327165D01*
X222995348Y-117789405D01*
X222945336Y-117668664D01*
X222250000Y-117380647D01*
X222243267Y-117383436D01*
X222170593Y-117353333D01*
X220539972Y-115722712D01*
X220512658Y-115681835D01*
X220477584Y-115597159D01*
X220467994Y-115574006D01*
X220094983Y-115419500D01*
X219964000Y-115365245D01*
X219940845Y-115374836D01*
X219856172Y-115409909D01*
X219807954Y-115419500D01*
X209452046Y-115419500D01*
X209403828Y-115409909D01*
X209319155Y-115374836D01*
X209296000Y-115365245D01*
X209272845Y-115374836D01*
X209168858Y-115417909D01*
X209120640Y-115427500D01*
X189046950Y-115427500D01*
X188957855Y-115390595D01*
X186369405Y-112802145D01*
X186332500Y-112713050D01*
X186332500Y-111760000D01*
X230135437Y-111760000D01*
X230250574Y-112338833D01*
X230257469Y-112349152D01*
X230535490Y-112765240D01*
X230578456Y-112829544D01*
X231069167Y-113157426D01*
X231648000Y-113272563D01*
X232226833Y-113157426D01*
X232717544Y-112829544D01*
X232760511Y-112765240D01*
X233038531Y-112349152D01*
X233045426Y-112338833D01*
X233160563Y-111760000D01*
X241057437Y-111760000D01*
X241172574Y-112338833D01*
X241179469Y-112349152D01*
X241457490Y-112765240D01*
X241500456Y-112829544D01*
X241991167Y-113157426D01*
X242570000Y-113272563D01*
X243148833Y-113157426D01*
X243639544Y-112829544D01*
X243682511Y-112765240D01*
X243960531Y-112349152D01*
X243967426Y-112338833D01*
X244082563Y-111760000D01*
X243967426Y-111181167D01*
X243639544Y-110690456D01*
X243148833Y-110362574D01*
X242570000Y-110247437D01*
X241991167Y-110362574D01*
X241500456Y-110690456D01*
X241172574Y-111181167D01*
X241057437Y-111760000D01*
X233160563Y-111760000D01*
X233045426Y-111181167D01*
X232717544Y-110690456D01*
X232226833Y-110362574D01*
X231648000Y-110247437D01*
X231069167Y-110362574D01*
X230578456Y-110690456D01*
X230250574Y-111181167D01*
X230135437Y-111760000D01*
X186332500Y-111760000D01*
X186332500Y-106172000D01*
X188500647Y-106172000D01*
X188788664Y-106867336D01*
X189290317Y-107075127D01*
X189401876Y-107121336D01*
X189484000Y-107155353D01*
X189566125Y-107121336D01*
X189677683Y-107075127D01*
X190179336Y-106867336D01*
X190362143Y-106426000D01*
X191040647Y-106426000D01*
X191050238Y-106449155D01*
X191117702Y-106612028D01*
X191328664Y-107121336D01*
X192024000Y-107409353D01*
X192719336Y-107121336D01*
X192930298Y-106612028D01*
X192997762Y-106449155D01*
X193007353Y-106426000D01*
X192719336Y-105730664D01*
X192135626Y-105488884D01*
X192047155Y-105452238D01*
X192024000Y-105442647D01*
X192000845Y-105452238D01*
X191912374Y-105488884D01*
X191328664Y-105730664D01*
X191040647Y-106426000D01*
X190362143Y-106426000D01*
X190467353Y-106172000D01*
X190179336Y-105476664D01*
X189484000Y-105188647D01*
X188788664Y-105476664D01*
X188500647Y-106172000D01*
X186332500Y-106172000D01*
X186332500Y-103886000D01*
X188500647Y-103886000D01*
X188788664Y-104581336D01*
X189229534Y-104763950D01*
X189401876Y-104835336D01*
X189484000Y-104869353D01*
X189566125Y-104835336D01*
X189738466Y-104763950D01*
X190179336Y-104581336D01*
X190182538Y-104573605D01*
X190256211Y-104543088D01*
X190345306Y-104579993D01*
X190372619Y-104620868D01*
X190566664Y-105089336D01*
X191262000Y-105377353D01*
X191957336Y-105089336D01*
X192245353Y-104394000D01*
X191957336Y-103698664D01*
X191400021Y-103467817D01*
X191285155Y-103420238D01*
X191262000Y-103410647D01*
X191238845Y-103420238D01*
X191123979Y-103467817D01*
X190566664Y-103698664D01*
X190563462Y-103706395D01*
X190489789Y-103736912D01*
X190400694Y-103700007D01*
X190373381Y-103659132D01*
X190179336Y-103190664D01*
X189484000Y-102902647D01*
X188788664Y-103190664D01*
X188500647Y-103886000D01*
X186332500Y-103886000D01*
X186332500Y-101346000D01*
X188500647Y-101346000D01*
X188510238Y-101369155D01*
X188580873Y-101539683D01*
X188788664Y-102041336D01*
X189484000Y-102329353D01*
X190179336Y-102041336D01*
X190383591Y-101548220D01*
X190451782Y-101480029D01*
X190548218Y-101480029D01*
X190616409Y-101548220D01*
X190820664Y-102041336D01*
X191516000Y-102329353D01*
X192211336Y-102041336D01*
X192419127Y-101539683D01*
X192489762Y-101369155D01*
X192499353Y-101346000D01*
X192443837Y-101211971D01*
X192261320Y-100771336D01*
X192211336Y-100650664D01*
X192188183Y-100641074D01*
X192188182Y-100641073D01*
X192151826Y-100626014D01*
X192083635Y-100557823D01*
X192083635Y-100461387D01*
X192151826Y-100393196D01*
X192247817Y-100353435D01*
X192465336Y-100263336D01*
X192673127Y-99761683D01*
X192743762Y-99591155D01*
X192753353Y-99568000D01*
X192697837Y-99433971D01*
X192474926Y-98895817D01*
X192465336Y-98872664D01*
X191770000Y-98584647D01*
X191074664Y-98872664D01*
X191065074Y-98895817D01*
X190870409Y-99365780D01*
X190802218Y-99433971D01*
X190705782Y-99433971D01*
X190637591Y-99365780D01*
X190442926Y-98895817D01*
X190433336Y-98872664D01*
X189738000Y-98584647D01*
X189042664Y-98872664D01*
X189033074Y-98895817D01*
X188810164Y-99433971D01*
X188754647Y-99568000D01*
X188764238Y-99591155D01*
X188834873Y-99761683D01*
X189042664Y-100263336D01*
X189065817Y-100272926D01*
X189065818Y-100272927D01*
X189102174Y-100287986D01*
X189170365Y-100356177D01*
X189170365Y-100452613D01*
X189102174Y-100520804D01*
X188788664Y-100650664D01*
X188738680Y-100771336D01*
X188556164Y-101211971D01*
X188500647Y-101346000D01*
X186332500Y-101346000D01*
X186332500Y-93726000D01*
X186976647Y-93726000D01*
X187264664Y-94421336D01*
X187960000Y-94709353D01*
X188655336Y-94421336D01*
X188943353Y-93726000D01*
X188940564Y-93719267D01*
X188970667Y-93646593D01*
X189126712Y-93490548D01*
X189167588Y-93463235D01*
X189275418Y-93418570D01*
X189339073Y-93264893D01*
X189484179Y-92914576D01*
X189439515Y-92806747D01*
X189429924Y-92758530D01*
X189429924Y-91935500D01*
X204811891Y-91935500D01*
X205099908Y-92630836D01*
X205408189Y-92758530D01*
X205766450Y-92906926D01*
X205795244Y-92918853D01*
X205824039Y-92906926D01*
X206490580Y-92630836D01*
X206491197Y-92632325D01*
X206553543Y-92606500D01*
X208717050Y-92606500D01*
X208806145Y-92643405D01*
X220223333Y-104060593D01*
X220253436Y-104133267D01*
X220250647Y-104140000D01*
X220538664Y-104835336D01*
X221040317Y-105043127D01*
X221151876Y-105089336D01*
X221234000Y-105123353D01*
X221316125Y-105089336D01*
X221427683Y-105043127D01*
X221929336Y-104835336D01*
X222217353Y-104140000D01*
X222202096Y-104103165D01*
X222025862Y-103677699D01*
X221929336Y-103444664D01*
X221372021Y-103213817D01*
X221257155Y-103166238D01*
X221234000Y-103156647D01*
X221227267Y-103159436D01*
X221154593Y-103129333D01*
X216942855Y-98917595D01*
X216905950Y-98828500D01*
X216942855Y-98739405D01*
X217031950Y-98702500D01*
X220463201Y-98702500D01*
X220535875Y-98732603D01*
X220538664Y-98739336D01*
X221234000Y-99027353D01*
X221929336Y-98739336D01*
X222217353Y-98044000D01*
X221929336Y-97348664D01*
X221234000Y-97060647D01*
X220538664Y-97348664D01*
X220535875Y-97355397D01*
X220463201Y-97385500D01*
X216170056Y-97385500D01*
X216080961Y-97348595D01*
X209817078Y-91084712D01*
X209789764Y-91043835D01*
X209745100Y-90936006D01*
X209372089Y-90781500D01*
X209241106Y-90727245D01*
X209217951Y-90736836D01*
X209133278Y-90771909D01*
X209085060Y-90781500D01*
X207401995Y-90781500D01*
X207312900Y-90744595D01*
X207285586Y-90703718D01*
X207206927Y-90513818D01*
X207206926Y-90513817D01*
X207197336Y-90490664D01*
X206502000Y-90202647D01*
X205806664Y-90490664D01*
X205612608Y-90959159D01*
X205598261Y-90993795D01*
X205530071Y-91061985D01*
X205099908Y-91240164D01*
X204811891Y-91935500D01*
X189429924Y-91935500D01*
X189429924Y-88900000D01*
X190786647Y-88900000D01*
X191074664Y-89595336D01*
X191770000Y-89883353D01*
X192465336Y-89595336D01*
X192753353Y-88900000D01*
X193326647Y-88900000D01*
X193614664Y-89595336D01*
X194310000Y-89883353D01*
X195005336Y-89595336D01*
X195293353Y-88900000D01*
X195866647Y-88900000D01*
X196154664Y-89595336D01*
X196850000Y-89883353D01*
X197545336Y-89595336D01*
X197833353Y-88900000D01*
X198406647Y-88900000D01*
X198694664Y-89595336D01*
X199390000Y-89883353D01*
X200085336Y-89595336D01*
X200373353Y-88900000D01*
X200946647Y-88900000D01*
X201234664Y-89595336D01*
X201930000Y-89883353D01*
X202625336Y-89595336D01*
X202913353Y-88900000D01*
X203486647Y-88900000D01*
X203774664Y-89595336D01*
X204470000Y-89883353D01*
X205165336Y-89595336D01*
X205453353Y-88900000D01*
X205165336Y-88204664D01*
X204470000Y-87916647D01*
X203774664Y-88204664D01*
X203486647Y-88900000D01*
X202913353Y-88900000D01*
X202625336Y-88204664D01*
X201930000Y-87916647D01*
X201234664Y-88204664D01*
X200946647Y-88900000D01*
X200373353Y-88900000D01*
X200085336Y-88204664D01*
X199390000Y-87916647D01*
X198694664Y-88204664D01*
X198406647Y-88900000D01*
X197833353Y-88900000D01*
X197545336Y-88204664D01*
X196850000Y-87916647D01*
X196154664Y-88204664D01*
X195866647Y-88900000D01*
X195293353Y-88900000D01*
X195005336Y-88204664D01*
X194310000Y-87916647D01*
X193614664Y-88204664D01*
X193326647Y-88900000D01*
X192753353Y-88900000D01*
X192465336Y-88204664D01*
X191770000Y-87916647D01*
X191074664Y-88204664D01*
X190786647Y-88900000D01*
X189429924Y-88900000D01*
X189429924Y-88351375D01*
X189460027Y-88278701D01*
X189466760Y-88275912D01*
X189734305Y-87630000D01*
X209311469Y-87630000D01*
X209394785Y-88048859D01*
X209632050Y-88403950D01*
X209987141Y-88641215D01*
X210406000Y-88724531D01*
X210824859Y-88641215D01*
X211179950Y-88403950D01*
X211286103Y-88245082D01*
X217272500Y-88245082D01*
X217302004Y-88393407D01*
X217308896Y-88403722D01*
X217308897Y-88403724D01*
X217313654Y-88410843D01*
X217414392Y-88561608D01*
X217424708Y-88568501D01*
X217572276Y-88667103D01*
X217572278Y-88667104D01*
X217582593Y-88673996D01*
X217730918Y-88703500D01*
X218961082Y-88703500D01*
X219109407Y-88673996D01*
X219119722Y-88667104D01*
X219119724Y-88667103D01*
X219267292Y-88568501D01*
X219277608Y-88561608D01*
X219378346Y-88410843D01*
X219383103Y-88403724D01*
X219383104Y-88403722D01*
X219389996Y-88393407D01*
X219419500Y-88245082D01*
X219419500Y-87014918D01*
X219389996Y-86866593D01*
X219383104Y-86856278D01*
X219383103Y-86856276D01*
X219284501Y-86708708D01*
X219277608Y-86698392D01*
X219267292Y-86691499D01*
X219119724Y-86592897D01*
X219119722Y-86592896D01*
X219109407Y-86586004D01*
X218961082Y-86556500D01*
X217730918Y-86556500D01*
X217582593Y-86586004D01*
X217572278Y-86592896D01*
X217572276Y-86592897D01*
X217424708Y-86691499D01*
X217414392Y-86698392D01*
X217407499Y-86708708D01*
X217308897Y-86856276D01*
X217308896Y-86856278D01*
X217302004Y-86866593D01*
X217272500Y-87014918D01*
X217272500Y-88245082D01*
X211286103Y-88245082D01*
X211417215Y-88048859D01*
X211500531Y-87630000D01*
X211417215Y-87211141D01*
X211179950Y-86856050D01*
X210824859Y-86618785D01*
X210406000Y-86535469D01*
X209987141Y-86618785D01*
X209632050Y-86856050D01*
X209394785Y-87211141D01*
X209311469Y-87630000D01*
X189734305Y-87630000D01*
X189754777Y-87580576D01*
X189466760Y-86885240D01*
X188965107Y-86677449D01*
X188794579Y-86606814D01*
X188771424Y-86597223D01*
X188748269Y-86606814D01*
X188577741Y-86677449D01*
X188076088Y-86885240D01*
X187788071Y-87580576D01*
X188076088Y-88275912D01*
X188082821Y-88278701D01*
X188112924Y-88351375D01*
X188112924Y-92589626D01*
X188076019Y-92678721D01*
X188039407Y-92715333D01*
X187966733Y-92745436D01*
X187960000Y-92742647D01*
X187264664Y-93030664D01*
X187113579Y-93395417D01*
X186991905Y-93689165D01*
X186976647Y-93726000D01*
X186332500Y-93726000D01*
X186332500Y-92656707D01*
X186342091Y-92608489D01*
X186377164Y-92523816D01*
X186386755Y-92500661D01*
X186232249Y-92127650D01*
X186177994Y-91996667D01*
X186070164Y-91952002D01*
X186029288Y-91924689D01*
X180464599Y-86360000D01*
X190786647Y-86360000D01*
X191074664Y-87055336D01*
X191770000Y-87343353D01*
X192465336Y-87055336D01*
X192753353Y-86360000D01*
X193326647Y-86360000D01*
X193614664Y-87055336D01*
X194310000Y-87343353D01*
X195005336Y-87055336D01*
X195293353Y-86360000D01*
X195866647Y-86360000D01*
X196154664Y-87055336D01*
X196850000Y-87343353D01*
X197545336Y-87055336D01*
X197833353Y-86360000D01*
X198406647Y-86360000D01*
X198694664Y-87055336D01*
X199390000Y-87343353D01*
X200085336Y-87055336D01*
X200373353Y-86360000D01*
X200946647Y-86360000D01*
X201234664Y-87055336D01*
X201930000Y-87343353D01*
X202625336Y-87055336D01*
X202913353Y-86360000D01*
X203486647Y-86360000D01*
X203774664Y-87055336D01*
X204470000Y-87343353D01*
X205165336Y-87055336D01*
X205453353Y-86360000D01*
X205165336Y-85664664D01*
X204470000Y-85376647D01*
X203774664Y-85664664D01*
X203486647Y-86360000D01*
X202913353Y-86360000D01*
X202625336Y-85664664D01*
X201930000Y-85376647D01*
X201234664Y-85664664D01*
X200946647Y-86360000D01*
X200373353Y-86360000D01*
X200085336Y-85664664D01*
X199390000Y-85376647D01*
X198694664Y-85664664D01*
X198406647Y-86360000D01*
X197833353Y-86360000D01*
X197545336Y-85664664D01*
X196850000Y-85376647D01*
X196154664Y-85664664D01*
X195866647Y-86360000D01*
X195293353Y-86360000D01*
X195005336Y-85664664D01*
X194310000Y-85376647D01*
X193614664Y-85664664D01*
X193326647Y-86360000D01*
X192753353Y-86360000D01*
X192465336Y-85664664D01*
X191770000Y-85376647D01*
X191074664Y-85664664D01*
X190786647Y-86360000D01*
X180464599Y-86360000D01*
X179194599Y-85090000D01*
X209311469Y-85090000D01*
X209394785Y-85508859D01*
X209632050Y-85863950D01*
X209987141Y-86101215D01*
X210406000Y-86184531D01*
X210824859Y-86101215D01*
X211179950Y-85863950D01*
X211417215Y-85508859D01*
X211500531Y-85090000D01*
X217251469Y-85090000D01*
X217334785Y-85508859D01*
X217572050Y-85863950D01*
X217927141Y-86101215D01*
X218346000Y-86184531D01*
X218764859Y-86101215D01*
X219119950Y-85863950D01*
X219357215Y-85508859D01*
X219440531Y-85090000D01*
X219357215Y-84671141D01*
X219119950Y-84316050D01*
X218764859Y-84078785D01*
X218346000Y-83995469D01*
X217927141Y-84078785D01*
X217572050Y-84316050D01*
X217334785Y-84671141D01*
X217251469Y-85090000D01*
X211500531Y-85090000D01*
X211417215Y-84671141D01*
X211179950Y-84316050D01*
X210824859Y-84078785D01*
X210406000Y-83995469D01*
X209987141Y-84078785D01*
X209632050Y-84316050D01*
X209394785Y-84671141D01*
X209311469Y-85090000D01*
X179194599Y-85090000D01*
X177924599Y-83820000D01*
X190786647Y-83820000D01*
X191074664Y-84515336D01*
X191770000Y-84803353D01*
X192465336Y-84515336D01*
X192753353Y-83820000D01*
X193326647Y-83820000D01*
X193614664Y-84515336D01*
X194310000Y-84803353D01*
X195005336Y-84515336D01*
X195293353Y-83820000D01*
X195866647Y-83820000D01*
X196154664Y-84515336D01*
X196850000Y-84803353D01*
X197545336Y-84515336D01*
X197833353Y-83820000D01*
X198406647Y-83820000D01*
X198694664Y-84515336D01*
X199390000Y-84803353D01*
X200085336Y-84515336D01*
X200373353Y-83820000D01*
X200946647Y-83820000D01*
X201234664Y-84515336D01*
X201930000Y-84803353D01*
X202625336Y-84515336D01*
X202913353Y-83820000D01*
X203486647Y-83820000D01*
X203774664Y-84515336D01*
X204470000Y-84803353D01*
X205165336Y-84515336D01*
X205453353Y-83820000D01*
X205307330Y-83467469D01*
X209858123Y-83467469D01*
X209862097Y-83477061D01*
X209977017Y-83553849D01*
X209999509Y-83563165D01*
X210393829Y-83641600D01*
X210418171Y-83641600D01*
X210812491Y-83563165D01*
X210834983Y-83553849D01*
X210943420Y-83481393D01*
X210954077Y-83465444D01*
X210952051Y-83455261D01*
X210423724Y-82926934D01*
X210406000Y-82919592D01*
X210388276Y-82926934D01*
X209865465Y-83449745D01*
X209858123Y-83467469D01*
X205307330Y-83467469D01*
X205165336Y-83124664D01*
X204470000Y-82836647D01*
X203774664Y-83124664D01*
X203486647Y-83820000D01*
X202913353Y-83820000D01*
X202625336Y-83124664D01*
X201930000Y-82836647D01*
X201234664Y-83124664D01*
X200946647Y-83820000D01*
X200373353Y-83820000D01*
X200085336Y-83124664D01*
X199390000Y-82836647D01*
X198694664Y-83124664D01*
X198406647Y-83820000D01*
X197833353Y-83820000D01*
X197545336Y-83124664D01*
X196850000Y-82836647D01*
X196154664Y-83124664D01*
X195866647Y-83820000D01*
X195293353Y-83820000D01*
X195005336Y-83124664D01*
X194310000Y-82836647D01*
X193614664Y-83124664D01*
X193326647Y-83820000D01*
X192753353Y-83820000D01*
X192465336Y-83124664D01*
X191770000Y-82836647D01*
X191074664Y-83124664D01*
X190786647Y-83820000D01*
X177924599Y-83820000D01*
X176666770Y-82562171D01*
X209314400Y-82562171D01*
X209392835Y-82956491D01*
X209402151Y-82978983D01*
X209474607Y-83087420D01*
X209490556Y-83098077D01*
X209500739Y-83096051D01*
X210029066Y-82567724D01*
X210036408Y-82550000D01*
X210775592Y-82550000D01*
X210782934Y-82567724D01*
X211305745Y-83090535D01*
X211323469Y-83097877D01*
X211333061Y-83093903D01*
X211409849Y-82978983D01*
X211419165Y-82956491D01*
X211497600Y-82562171D01*
X211497600Y-82550000D01*
X217251469Y-82550000D01*
X217334785Y-82968859D01*
X217572050Y-83323950D01*
X217927141Y-83561215D01*
X218346000Y-83644531D01*
X218764859Y-83561215D01*
X219119950Y-83323950D01*
X219357215Y-82968859D01*
X219440531Y-82550000D01*
X219357215Y-82131141D01*
X219119950Y-81776050D01*
X218764859Y-81538785D01*
X218346000Y-81455469D01*
X217927141Y-81538785D01*
X217572050Y-81776050D01*
X217334785Y-82131141D01*
X217251469Y-82550000D01*
X211497600Y-82550000D01*
X211497600Y-82537829D01*
X211419165Y-82143509D01*
X211409849Y-82121017D01*
X211337393Y-82012580D01*
X211321444Y-82001923D01*
X211311261Y-82003949D01*
X210782934Y-82532276D01*
X210775592Y-82550000D01*
X210036408Y-82550000D01*
X210029066Y-82532276D01*
X209506255Y-82009465D01*
X209488531Y-82002123D01*
X209478939Y-82006097D01*
X209402151Y-82121017D01*
X209392835Y-82143509D01*
X209314400Y-82537829D01*
X209314400Y-82562171D01*
X176666770Y-82562171D01*
X174248171Y-80143572D01*
X174211266Y-80054477D01*
X174248171Y-79965382D01*
X174337266Y-79928477D01*
X175211027Y-79928477D01*
X175300122Y-79965382D01*
X175470532Y-80135792D01*
X175507437Y-80224887D01*
X175497847Y-80273103D01*
X175469776Y-80340871D01*
X175479367Y-80364026D01*
X175506222Y-80428859D01*
X175757793Y-81036207D01*
X176011006Y-81141091D01*
X176346363Y-81280000D01*
X176453129Y-81324224D01*
X176559896Y-81280000D01*
X190786647Y-81280000D01*
X191074664Y-81975336D01*
X191770000Y-82263353D01*
X192465336Y-81975336D01*
X192753353Y-81280000D01*
X193326647Y-81280000D01*
X193614664Y-81975336D01*
X194310000Y-82263353D01*
X195005336Y-81975336D01*
X195293353Y-81280000D01*
X195866647Y-81280000D01*
X196154664Y-81975336D01*
X196850000Y-82263353D01*
X197545336Y-81975336D01*
X197833353Y-81280000D01*
X198406647Y-81280000D01*
X198694664Y-81975336D01*
X199390000Y-82263353D01*
X200085336Y-81975336D01*
X200373353Y-81280000D01*
X200946647Y-81280000D01*
X201234664Y-81975336D01*
X201930000Y-82263353D01*
X202625336Y-81975336D01*
X202913353Y-81280000D01*
X203486647Y-81280000D01*
X203774664Y-81975336D01*
X204470000Y-82263353D01*
X205165336Y-81975336D01*
X205306491Y-81634556D01*
X209857923Y-81634556D01*
X209859949Y-81644739D01*
X210388276Y-82173066D01*
X210406000Y-82180408D01*
X210423724Y-82173066D01*
X210946535Y-81650255D01*
X210953877Y-81632531D01*
X210949903Y-81622939D01*
X210834983Y-81546151D01*
X210812491Y-81536835D01*
X210418171Y-81458400D01*
X210393829Y-81458400D01*
X209999509Y-81536835D01*
X209977017Y-81546151D01*
X209868580Y-81618607D01*
X209857923Y-81634556D01*
X205306491Y-81634556D01*
X205453353Y-81280000D01*
X205435858Y-81237762D01*
X205243610Y-80773634D01*
X205165336Y-80584664D01*
X204582889Y-80343407D01*
X204493155Y-80306238D01*
X204470000Y-80296647D01*
X204446845Y-80306238D01*
X204357111Y-80343407D01*
X203774664Y-80584664D01*
X203696390Y-80773634D01*
X203504143Y-81237762D01*
X203486647Y-81280000D01*
X202913353Y-81280000D01*
X202895858Y-81237762D01*
X202703610Y-80773634D01*
X202625336Y-80584664D01*
X202042889Y-80343407D01*
X201953155Y-80306238D01*
X201930000Y-80296647D01*
X201906845Y-80306238D01*
X201817111Y-80343407D01*
X201234664Y-80584664D01*
X201156390Y-80773634D01*
X200964143Y-81237762D01*
X200946647Y-81280000D01*
X200373353Y-81280000D01*
X200355858Y-81237762D01*
X200163610Y-80773634D01*
X200085336Y-80584664D01*
X199502889Y-80343407D01*
X199413155Y-80306238D01*
X199390000Y-80296647D01*
X199366845Y-80306238D01*
X199277111Y-80343407D01*
X198694664Y-80584664D01*
X198616390Y-80773634D01*
X198424143Y-81237762D01*
X198406647Y-81280000D01*
X197833353Y-81280000D01*
X197815858Y-81237762D01*
X197623610Y-80773634D01*
X197545336Y-80584664D01*
X196962889Y-80343407D01*
X196873155Y-80306238D01*
X196850000Y-80296647D01*
X196826845Y-80306238D01*
X196737111Y-80343407D01*
X196154664Y-80584664D01*
X196076390Y-80773634D01*
X195884143Y-81237762D01*
X195866647Y-81280000D01*
X195293353Y-81280000D01*
X195275858Y-81237762D01*
X195083610Y-80773634D01*
X195005336Y-80584664D01*
X194422889Y-80343407D01*
X194333155Y-80306238D01*
X194310000Y-80296647D01*
X194286845Y-80306238D01*
X194197111Y-80343407D01*
X193614664Y-80584664D01*
X193536390Y-80773634D01*
X193344143Y-81237762D01*
X193326647Y-81280000D01*
X192753353Y-81280000D01*
X192735858Y-81237762D01*
X192543610Y-80773634D01*
X192465336Y-80584664D01*
X191882889Y-80343407D01*
X191793155Y-80306238D01*
X191770000Y-80296647D01*
X191746845Y-80306238D01*
X191657111Y-80343407D01*
X191074664Y-80584664D01*
X190996390Y-80773634D01*
X190804143Y-81237762D01*
X190786647Y-81280000D01*
X176559896Y-81280000D01*
X176895252Y-81141091D01*
X177148465Y-81036207D01*
X177400036Y-80428859D01*
X177426891Y-80364026D01*
X177436482Y-80340871D01*
X177299431Y-80010000D01*
X209311469Y-80010000D01*
X209394785Y-80428859D01*
X209401680Y-80439178D01*
X209621389Y-80767994D01*
X209632050Y-80783950D01*
X209987141Y-81021215D01*
X210406000Y-81104531D01*
X210824859Y-81021215D01*
X211179950Y-80783950D01*
X211190612Y-80767994D01*
X211410320Y-80439178D01*
X211417215Y-80428859D01*
X211500531Y-80010000D01*
X217251469Y-80010000D01*
X217334785Y-80428859D01*
X217341680Y-80439178D01*
X217561389Y-80767994D01*
X217572050Y-80783950D01*
X217927141Y-81021215D01*
X218346000Y-81104531D01*
X218764859Y-81021215D01*
X219119950Y-80783950D01*
X219130612Y-80767994D01*
X219350320Y-80439178D01*
X219357215Y-80428859D01*
X219440531Y-80010000D01*
X219357215Y-79591141D01*
X219119950Y-79236050D01*
X218764859Y-78998785D01*
X218346000Y-78915469D01*
X217927141Y-78998785D01*
X217572050Y-79236050D01*
X217334785Y-79591141D01*
X217251469Y-80010000D01*
X211500531Y-80010000D01*
X211417215Y-79591141D01*
X211179950Y-79236050D01*
X210824859Y-78998785D01*
X210406000Y-78915469D01*
X209987141Y-78998785D01*
X209632050Y-79236050D01*
X209394785Y-79591141D01*
X209311469Y-80010000D01*
X177299431Y-80010000D01*
X177148465Y-79645535D01*
X176801941Y-79502000D01*
X176649807Y-79438984D01*
X176608930Y-79411670D01*
X176111949Y-78914689D01*
X176084635Y-78873812D01*
X176049561Y-78789136D01*
X176039971Y-78765983D01*
X175977242Y-78740000D01*
X190786647Y-78740000D01*
X191074664Y-79435336D01*
X191770000Y-79723353D01*
X192465336Y-79435336D01*
X192753353Y-78740000D01*
X193326647Y-78740000D01*
X193614664Y-79435336D01*
X194310000Y-79723353D01*
X195005336Y-79435336D01*
X195293353Y-78740000D01*
X195866647Y-78740000D01*
X196154664Y-79435336D01*
X196850000Y-79723353D01*
X197545336Y-79435336D01*
X197833353Y-78740000D01*
X198406647Y-78740000D01*
X198694664Y-79435336D01*
X199390000Y-79723353D01*
X200085336Y-79435336D01*
X200373353Y-78740000D01*
X200946647Y-78740000D01*
X201234664Y-79435336D01*
X201930000Y-79723353D01*
X202625336Y-79435336D01*
X202913353Y-78740000D01*
X203486647Y-78740000D01*
X203774664Y-79435336D01*
X204470000Y-79723353D01*
X205165336Y-79435336D01*
X205453353Y-78740000D01*
X205427283Y-78677060D01*
X205271088Y-78299972D01*
X205165336Y-78044664D01*
X204470000Y-77756647D01*
X203774664Y-78044664D01*
X203668912Y-78299972D01*
X203512718Y-78677060D01*
X203486647Y-78740000D01*
X202913353Y-78740000D01*
X202887283Y-78677060D01*
X202731088Y-78299972D01*
X202625336Y-78044664D01*
X201930000Y-77756647D01*
X201234664Y-78044664D01*
X201128912Y-78299972D01*
X200972718Y-78677060D01*
X200946647Y-78740000D01*
X200373353Y-78740000D01*
X200347283Y-78677060D01*
X200191088Y-78299972D01*
X200085336Y-78044664D01*
X199390000Y-77756647D01*
X198694664Y-78044664D01*
X198588912Y-78299972D01*
X198432718Y-78677060D01*
X198406647Y-78740000D01*
X197833353Y-78740000D01*
X197807283Y-78677060D01*
X197651088Y-78299972D01*
X197545336Y-78044664D01*
X196850000Y-77756647D01*
X196154664Y-78044664D01*
X196048912Y-78299972D01*
X195892718Y-78677060D01*
X195866647Y-78740000D01*
X195293353Y-78740000D01*
X195267283Y-78677060D01*
X195111088Y-78299972D01*
X195005336Y-78044664D01*
X194310000Y-77756647D01*
X193614664Y-78044664D01*
X193508912Y-78299972D01*
X193352718Y-78677060D01*
X193326647Y-78740000D01*
X192753353Y-78740000D01*
X192727283Y-78677060D01*
X192571088Y-78299972D01*
X192465336Y-78044664D01*
X191770000Y-77756647D01*
X191074664Y-78044664D01*
X190968912Y-78299972D01*
X190812718Y-78677060D01*
X190786647Y-78740000D01*
X175977242Y-78740000D01*
X175666960Y-78611477D01*
X175535977Y-78557222D01*
X175512822Y-78566813D01*
X175428149Y-78601886D01*
X175379931Y-78611477D01*
X164832822Y-78611477D01*
X164760148Y-78581374D01*
X164757359Y-78574641D01*
X164062023Y-78286624D01*
X163366687Y-78574641D01*
X163357096Y-78597795D01*
X163357095Y-78597796D01*
X163352508Y-78608870D01*
X163284316Y-78677060D01*
X163187880Y-78677058D01*
X163147005Y-78649745D01*
X162493405Y-77996145D01*
X162456500Y-77907050D01*
X162456500Y-75446799D01*
X162486603Y-75374125D01*
X162493336Y-75371336D01*
X162616225Y-75074655D01*
X215362937Y-75074655D01*
X215366911Y-75084247D01*
X215476869Y-75157719D01*
X215499362Y-75167035D01*
X215887829Y-75244306D01*
X215912171Y-75244306D01*
X216300638Y-75167035D01*
X216323131Y-75157719D01*
X216426606Y-75088579D01*
X216437263Y-75072630D01*
X216435238Y-75062448D01*
X216140872Y-74768082D01*
X217341500Y-74768082D01*
X217371004Y-74916407D01*
X217377896Y-74926722D01*
X217377897Y-74926724D01*
X217476499Y-75074292D01*
X217483392Y-75084608D01*
X217493708Y-75091501D01*
X217641276Y-75190103D01*
X217641278Y-75190104D01*
X217651593Y-75196996D01*
X217799918Y-75226500D01*
X219000082Y-75226500D01*
X219148407Y-75196996D01*
X219158722Y-75190104D01*
X219158724Y-75190103D01*
X219306292Y-75091501D01*
X219316608Y-75084608D01*
X219323501Y-75074292D01*
X219422103Y-74926724D01*
X219422104Y-74926722D01*
X219428996Y-74916407D01*
X219458500Y-74768082D01*
X219458500Y-73567918D01*
X219428996Y-73419593D01*
X219422104Y-73409278D01*
X219422103Y-73409276D01*
X219323501Y-73261708D01*
X219316608Y-73251392D01*
X219306292Y-73244499D01*
X219158724Y-73145897D01*
X219158722Y-73145896D01*
X219148407Y-73139004D01*
X219000082Y-73109500D01*
X217799918Y-73109500D01*
X217651593Y-73139004D01*
X217641278Y-73145896D01*
X217641276Y-73145897D01*
X217493708Y-73244499D01*
X217483392Y-73251392D01*
X217476499Y-73261708D01*
X217377897Y-73409276D01*
X217377896Y-73409278D01*
X217371004Y-73419593D01*
X217341500Y-73567918D01*
X217341500Y-74768082D01*
X216140872Y-74768082D01*
X215917724Y-74544934D01*
X215900000Y-74537592D01*
X215882276Y-74544934D01*
X215370279Y-75056931D01*
X215362937Y-75074655D01*
X162616225Y-75074655D01*
X162740698Y-74774149D01*
X162771762Y-74699155D01*
X162781353Y-74676000D01*
X162575974Y-74180171D01*
X214823694Y-74180171D01*
X214900965Y-74568638D01*
X214910281Y-74591131D01*
X214979421Y-74694606D01*
X214995370Y-74705263D01*
X215005552Y-74703238D01*
X215523066Y-74185724D01*
X215530408Y-74168000D01*
X216269592Y-74168000D01*
X216276934Y-74185724D01*
X216788931Y-74697721D01*
X216806655Y-74705063D01*
X216816247Y-74701089D01*
X216889719Y-74591131D01*
X216899035Y-74568638D01*
X216976306Y-74180171D01*
X216976306Y-74155829D01*
X216899035Y-73767362D01*
X216889719Y-73744869D01*
X216820579Y-73641394D01*
X216804630Y-73630737D01*
X216794448Y-73632762D01*
X216276934Y-74150276D01*
X216269592Y-74168000D01*
X215530408Y-74168000D01*
X215523066Y-74150276D01*
X215011069Y-73638279D01*
X214993345Y-73630937D01*
X214983753Y-73634911D01*
X214910281Y-73744869D01*
X214900965Y-73767362D01*
X214823694Y-74155829D01*
X214823694Y-74180171D01*
X162575974Y-74180171D01*
X162493336Y-73980664D01*
X161798000Y-73692647D01*
X161348717Y-73878746D01*
X161252282Y-73878746D01*
X161184091Y-73810555D01*
X161174500Y-73762337D01*
X161174500Y-73263370D01*
X215362737Y-73263370D01*
X215364762Y-73273552D01*
X215882276Y-73791066D01*
X215900000Y-73798408D01*
X215917724Y-73791066D01*
X216429721Y-73279069D01*
X216437063Y-73261345D01*
X216433089Y-73251753D01*
X216323131Y-73178281D01*
X216300638Y-73168965D01*
X215912171Y-73091694D01*
X215887829Y-73091694D01*
X215499362Y-73168965D01*
X215476869Y-73178281D01*
X215373394Y-73247421D01*
X215362737Y-73263370D01*
X161174500Y-73263370D01*
X161174500Y-64643000D01*
X190405647Y-64643000D01*
X190693664Y-65338336D01*
X191389000Y-65626353D01*
X192084336Y-65338336D01*
X192087125Y-65331603D01*
X192159799Y-65301500D01*
X192375954Y-65301500D01*
X192424171Y-65311091D01*
X192532000Y-65355755D01*
X192662983Y-65301500D01*
X192707948Y-65282875D01*
X192905011Y-65201249D01*
X192936555Y-65188183D01*
X193012840Y-65156585D01*
X193035994Y-65146994D01*
X193080659Y-65039164D01*
X193107972Y-64998288D01*
X193903288Y-64202972D01*
X193944164Y-64175659D01*
X194051994Y-64130994D01*
X194206500Y-63757983D01*
X194223754Y-63716328D01*
X194251164Y-63650155D01*
X194260755Y-63627000D01*
X194216091Y-63519171D01*
X194206500Y-63470954D01*
X194206500Y-60333799D01*
X194236603Y-60261125D01*
X194243336Y-60258336D01*
X194531353Y-59563000D01*
X194243336Y-58867664D01*
X193548000Y-58579647D01*
X192852664Y-58867664D01*
X192564647Y-59563000D01*
X192852664Y-60258336D01*
X192859397Y-60261125D01*
X192889500Y-60333799D01*
X192889500Y-63302050D01*
X192852595Y-63391145D01*
X192296145Y-63947595D01*
X192207050Y-63984500D01*
X192159799Y-63984500D01*
X192087125Y-63954397D01*
X192084336Y-63947664D01*
X191389000Y-63659647D01*
X190693664Y-63947664D01*
X190405647Y-64643000D01*
X161174500Y-64643000D01*
X161174500Y-63764546D01*
X161184091Y-63716328D01*
X161219164Y-63631655D01*
X161228755Y-63608500D01*
X161174500Y-63477517D01*
X161019994Y-63104506D01*
X160954502Y-63077379D01*
X160912163Y-63059841D01*
X160871286Y-63032527D01*
X160522667Y-62683908D01*
X160492564Y-62611234D01*
X160495353Y-62604500D01*
X160207336Y-61909164D01*
X159512000Y-61621147D01*
X158816664Y-61909164D01*
X158528647Y-62604500D01*
X152804500Y-62604500D01*
X152804500Y-61284950D01*
X152841405Y-61195855D01*
X155822855Y-58214405D01*
X155911950Y-58177500D01*
X187434954Y-58177500D01*
X187483171Y-58187091D01*
X187591000Y-58231755D01*
X187721983Y-58177500D01*
X187846065Y-58126104D01*
X187911782Y-58126105D01*
X187911782Y-58123762D01*
X187936845Y-58123762D01*
X187960000Y-58133353D01*
X188025718Y-58106132D01*
X188153683Y-58053127D01*
X188494394Y-57912000D01*
X200946647Y-57912000D01*
X201234664Y-58607336D01*
X201930000Y-58895353D01*
X202625336Y-58607336D01*
X202913353Y-57912000D01*
X202625336Y-57216664D01*
X201930000Y-56928647D01*
X201234664Y-57216664D01*
X200946647Y-57912000D01*
X188494394Y-57912000D01*
X188655336Y-57845336D01*
X188943353Y-57150000D01*
X188732933Y-56642000D01*
X216186647Y-56642000D01*
X216474664Y-57337336D01*
X217170000Y-57625353D01*
X217865336Y-57337336D01*
X218153353Y-56642000D01*
X217865336Y-55946664D01*
X217170000Y-55658647D01*
X216474664Y-55946664D01*
X216186647Y-56642000D01*
X188732933Y-56642000D01*
X188655336Y-56454664D01*
X187960000Y-56166647D01*
X187264664Y-56454664D01*
X187255074Y-56477817D01*
X187128780Y-56782718D01*
X187060589Y-56850909D01*
X187012371Y-56860500D01*
X155743046Y-56860500D01*
X155694828Y-56850909D01*
X155610155Y-56815836D01*
X155587000Y-56806245D01*
X155563845Y-56815836D01*
X155444117Y-56865429D01*
X155347681Y-56865429D01*
X155279490Y-56797238D01*
X154997731Y-56117012D01*
X154988141Y-56093859D01*
X154388549Y-55845500D01*
X153967451Y-55845500D01*
X153367859Y-56093859D01*
X153032288Y-56904000D01*
X153367859Y-57714141D01*
X153391012Y-57723731D01*
X153391013Y-57723732D01*
X153966325Y-57962034D01*
X154034516Y-58030225D01*
X154034516Y-58126661D01*
X154007202Y-58167538D01*
X151790712Y-60384028D01*
X151749836Y-60411341D01*
X151642006Y-60456006D01*
X151587751Y-60586989D01*
X151433245Y-60960000D01*
X151442836Y-60983155D01*
X151477909Y-61067828D01*
X151487500Y-61116046D01*
X151487500Y-79345954D01*
X151477909Y-79394171D01*
X151433245Y-79502000D01*
X147828500Y-79502000D01*
X147828500Y-51530456D01*
X150007137Y-51530456D01*
X150012668Y-51543809D01*
X150966756Y-52344384D01*
X150985560Y-52355241D01*
X152889532Y-53048229D01*
X152910918Y-53052000D01*
X154937082Y-53052000D01*
X154958468Y-53048229D01*
X156862440Y-52355241D01*
X156881244Y-52344384D01*
X157832046Y-51546566D01*
X157840433Y-51530456D01*
X238653137Y-51530456D01*
X238658668Y-51543809D01*
X239612756Y-52344384D01*
X239631560Y-52355241D01*
X241535532Y-53048229D01*
X241556918Y-53052000D01*
X243583082Y-53052000D01*
X243604468Y-53048229D01*
X245508440Y-52355241D01*
X245527244Y-52344384D01*
X246478046Y-51546566D01*
X246486904Y-51529551D01*
X246482558Y-51515769D01*
X242587724Y-47620934D01*
X242570000Y-47613592D01*
X242552276Y-47620934D01*
X238660479Y-51512732D01*
X238653137Y-51530456D01*
X157840433Y-51530456D01*
X157840904Y-51529551D01*
X157836558Y-51515769D01*
X153941724Y-47620934D01*
X153924000Y-47613592D01*
X153906276Y-47620934D01*
X150014479Y-51512732D01*
X150007137Y-51530456D01*
X147828500Y-51530456D01*
X147828500Y-47561830D01*
X147865405Y-47472735D01*
X147954500Y-47435830D01*
X148043595Y-47472735D01*
X148078586Y-47539950D01*
X148380157Y-49250241D01*
X148387584Y-49270645D01*
X149400666Y-51025355D01*
X149414623Y-51041989D01*
X149625663Y-51219073D01*
X149638598Y-51223151D01*
X149650039Y-51186866D01*
X149649561Y-51175924D01*
X149678869Y-51129920D01*
X153547066Y-47261724D01*
X153554408Y-47244000D01*
X154293592Y-47244000D01*
X154300934Y-47261724D01*
X158171818Y-51132607D01*
X158208723Y-51221702D01*
X158208468Y-51222983D01*
X158209251Y-51224872D01*
X158220157Y-51220902D01*
X158433377Y-51041989D01*
X158447334Y-51025355D01*
X159460416Y-49270645D01*
X159467843Y-49250241D01*
X159819684Y-47254855D01*
X159819684Y-47233145D01*
X159799204Y-47117000D01*
X201179437Y-47117000D01*
X201294574Y-47695833D01*
X201622456Y-48186544D01*
X202113167Y-48514426D01*
X202692000Y-48629563D01*
X203270833Y-48514426D01*
X203761544Y-48186544D01*
X204089426Y-47695833D01*
X204204563Y-47117000D01*
X221499437Y-47117000D01*
X221614574Y-47695833D01*
X221942456Y-48186544D01*
X222433167Y-48514426D01*
X223012000Y-48629563D01*
X223590833Y-48514426D01*
X224081544Y-48186544D01*
X224409426Y-47695833D01*
X224524563Y-47117000D01*
X231659437Y-47117000D01*
X231774574Y-47695833D01*
X232102456Y-48186544D01*
X232593167Y-48514426D01*
X233172000Y-48629563D01*
X233750833Y-48514426D01*
X234241544Y-48186544D01*
X234569426Y-47695833D01*
X234657142Y-47254855D01*
X236674316Y-47254855D01*
X237026157Y-49250241D01*
X237033584Y-49270645D01*
X238046666Y-51025355D01*
X238060623Y-51041989D01*
X238271663Y-51219073D01*
X238284598Y-51223151D01*
X238296039Y-51186866D01*
X238295561Y-51175924D01*
X238324869Y-51129920D01*
X242193066Y-47261724D01*
X242200408Y-47244000D01*
X242193066Y-47226276D01*
X238322182Y-43355393D01*
X238285277Y-43266298D01*
X238285532Y-43265017D01*
X238284749Y-43263128D01*
X238273843Y-43267098D01*
X238060623Y-43446011D01*
X238046666Y-43462645D01*
X237033584Y-45217355D01*
X237026157Y-45237759D01*
X236674316Y-47233145D01*
X236674316Y-47254855D01*
X234657142Y-47254855D01*
X234684563Y-47117000D01*
X234569426Y-46538167D01*
X234241544Y-46047456D01*
X233750833Y-45719574D01*
X233172000Y-45604437D01*
X232593167Y-45719574D01*
X232102456Y-46047456D01*
X231774574Y-46538167D01*
X231659437Y-47117000D01*
X224524563Y-47117000D01*
X224409426Y-46538167D01*
X224081544Y-46047456D01*
X223590833Y-45719574D01*
X223012000Y-45604437D01*
X222433167Y-45719574D01*
X221942456Y-46047456D01*
X221614574Y-46538167D01*
X221499437Y-47117000D01*
X204204563Y-47117000D01*
X204089426Y-46538167D01*
X203761544Y-46047456D01*
X203270833Y-45719574D01*
X202692000Y-45604437D01*
X202113167Y-45719574D01*
X201622456Y-46047456D01*
X201294574Y-46538167D01*
X201179437Y-47117000D01*
X159799204Y-47117000D01*
X159467843Y-45237759D01*
X159460416Y-45217355D01*
X158447334Y-43462645D01*
X158433377Y-43446011D01*
X158222337Y-43268927D01*
X158209402Y-43264849D01*
X158197961Y-43301134D01*
X158198439Y-43312076D01*
X158169131Y-43358080D01*
X154300934Y-47226276D01*
X154293592Y-47244000D01*
X153554408Y-47244000D01*
X153547066Y-47226276D01*
X149676182Y-43355393D01*
X149639277Y-43266298D01*
X149639532Y-43265017D01*
X149638749Y-43263128D01*
X149627843Y-43267098D01*
X149414623Y-43446011D01*
X149400666Y-43462645D01*
X148387584Y-45217355D01*
X148380157Y-45237759D01*
X148078586Y-46948050D01*
X148026771Y-47029383D01*
X147932620Y-47050256D01*
X147851287Y-46998441D01*
X147828500Y-46926170D01*
X147828500Y-45846209D01*
X147838091Y-45797991D01*
X147860805Y-45743155D01*
X147870396Y-45720000D01*
X147853688Y-45679663D01*
X147845648Y-45611734D01*
X148049123Y-44327039D01*
X148061305Y-44289547D01*
X148491109Y-43446011D01*
X148692520Y-43050718D01*
X148715692Y-43018827D01*
X148776070Y-42958449D01*
X150007096Y-42958449D01*
X150011442Y-42972231D01*
X153906276Y-46867066D01*
X153924000Y-46874408D01*
X153941724Y-46867066D01*
X157833521Y-42975268D01*
X157840488Y-42958449D01*
X238653096Y-42958449D01*
X238657442Y-42972231D01*
X242552276Y-46867066D01*
X242570000Y-46874408D01*
X242587724Y-46867066D01*
X246479521Y-42975268D01*
X246486863Y-42957544D01*
X246481332Y-42944191D01*
X245527244Y-42143616D01*
X245508440Y-42132759D01*
X243604468Y-41439771D01*
X243583082Y-41436000D01*
X241556918Y-41436000D01*
X241535532Y-41439771D01*
X239631560Y-42132759D01*
X239612756Y-42143616D01*
X238661954Y-42941434D01*
X238653096Y-42958449D01*
X157840488Y-42958449D01*
X157840863Y-42957544D01*
X157835332Y-42944191D01*
X156881244Y-42143616D01*
X156862440Y-42132759D01*
X154958468Y-41439771D01*
X154937082Y-41436000D01*
X152910918Y-41436000D01*
X152889532Y-41439771D01*
X150985560Y-42132759D01*
X150966756Y-42143616D01*
X150015954Y-42941434D01*
X150007096Y-42958449D01*
X148776070Y-42958449D01*
X149698827Y-42035692D01*
X149730719Y-42012520D01*
X150969549Y-41381304D01*
X151007038Y-41369123D01*
X152291734Y-41165648D01*
X152359663Y-41173688D01*
X152400000Y-41190396D01*
X152477991Y-41158091D01*
X152526209Y-41148500D01*
X243713791Y-41148500D01*
X243762009Y-41158091D01*
G37*
%TD.AperFunction*%
%TD*%
M02*
