%TF.GenerationSoftware,KiCad,Pcbnew,(5.1.10)-1*%
%TF.CreationDate,2021-09-20T08:54:39+02:00*%
%TF.ProjectId,breakoutboard,62726561-6b6f-4757-9462-6f6172642e6b,rev?*%
%TF.SameCoordinates,Original*%
%TF.FileFunction,Copper,L1,Top*%
%TF.FilePolarity,Positive*%
%FSLAX46Y46*%
G04 Gerber Fmt 4.6, Leading zero omitted, Abs format (unit mm)*
G04 Created by KiCad (PCBNEW (5.1.10)-1) date 2021-09-20 08:54:39*
%MOMM*%
%LPD*%
G01*
G04 APERTURE LIST*
%TA.AperFunction,ComponentPad*%
%ADD10C,0.700000*%
%TD*%
%TA.AperFunction,ComponentPad*%
%ADD11C,4.400000*%
%TD*%
%TA.AperFunction,ComponentPad*%
%ADD12O,1.350000X1.350000*%
%TD*%
%TA.AperFunction,ComponentPad*%
%ADD13R,1.350000X1.350000*%
%TD*%
%TA.AperFunction,SMDPad,CuDef*%
%ADD14R,0.300000X1.600000*%
%TD*%
%TA.AperFunction,SMDPad,CuDef*%
%ADD15R,1.600000X3.100000*%
%TD*%
%TA.AperFunction,SMDPad,CuDef*%
%ADD16R,0.700000X1.600000*%
%TD*%
%TA.AperFunction,ViaPad*%
%ADD17C,0.800000*%
%TD*%
%TA.AperFunction,Conductor*%
%ADD18C,0.250000*%
%TD*%
%TA.AperFunction,Conductor*%
%ADD19C,0.254000*%
%TD*%
%TA.AperFunction,Conductor*%
%ADD20C,0.100000*%
%TD*%
G04 APERTURE END LIST*
D10*
%TO.P,H4,1*%
%TO.N,GND*%
X50566726Y-41466726D03*
X51050000Y-40300000D03*
X50566726Y-39133274D03*
X49400000Y-38650000D03*
X48233274Y-39133274D03*
X47750000Y-40300000D03*
X48233274Y-41466726D03*
X49400000Y-41950000D03*
D11*
X49400000Y-40300000D03*
%TD*%
D10*
%TO.P,H3,1*%
%TO.N,GND*%
X50566726Y-127366726D03*
X51050000Y-126200000D03*
X50566726Y-125033274D03*
X49400000Y-124550000D03*
X48233274Y-125033274D03*
X47750000Y-126200000D03*
X48233274Y-127366726D03*
X49400000Y-127850000D03*
D11*
X49400000Y-126200000D03*
%TD*%
D10*
%TO.P,H2,1*%
%TO.N,GND*%
X90966726Y-127366726D03*
X91450000Y-126200000D03*
X90966726Y-125033274D03*
X89800000Y-124550000D03*
X88633274Y-125033274D03*
X88150000Y-126200000D03*
X88633274Y-127366726D03*
X89800000Y-127850000D03*
D11*
X89800000Y-126200000D03*
%TD*%
D10*
%TO.P,H1,1*%
%TO.N,GND*%
X90966726Y-41466726D03*
X91450000Y-40300000D03*
X90966726Y-39133274D03*
X89800000Y-38650000D03*
X88633274Y-39133274D03*
X88150000Y-40300000D03*
X88633274Y-41466726D03*
X89800000Y-41950000D03*
D11*
X89800000Y-40300000D03*
%TD*%
D12*
%TO.P,J2,20*%
%TO.N,39*%
X62900000Y-91300000D03*
%TO.P,J2,19*%
%TO.N,37*%
X60900000Y-91300000D03*
%TO.P,J2,18*%
%TO.N,35*%
X62900000Y-89300000D03*
%TO.P,J2,17*%
%TO.N,33*%
X60900000Y-89300000D03*
%TO.P,J2,16*%
%TO.N,31*%
X62900000Y-87300000D03*
%TO.P,J2,15*%
%TO.N,29*%
X60900000Y-87300000D03*
%TO.P,J2,14*%
%TO.N,27*%
X62900000Y-85300000D03*
%TO.P,J2,13*%
%TO.N,25*%
X60900000Y-85300000D03*
%TO.P,J2,12*%
%TO.N,23*%
X62900000Y-83300000D03*
%TO.P,J2,11*%
%TO.N,21*%
X60900000Y-83300000D03*
%TO.P,J2,10*%
%TO.N,19*%
X62900000Y-81300000D03*
%TO.P,J2,9*%
%TO.N,17*%
X60900000Y-81300000D03*
%TO.P,J2,8*%
%TO.N,15*%
X62900000Y-79300000D03*
%TO.P,J2,7*%
%TO.N,13*%
X60900000Y-79300000D03*
%TO.P,J2,6*%
%TO.N,11*%
X62900000Y-77300000D03*
%TO.P,J2,5*%
%TO.N,9*%
X60900000Y-77300000D03*
%TO.P,J2,4*%
%TO.N,7*%
X62900000Y-75300000D03*
%TO.P,J2,3*%
%TO.N,5*%
X60900000Y-75300000D03*
%TO.P,J2,2*%
%TO.N,3*%
X62900000Y-73300000D03*
D13*
%TO.P,J2,1*%
%TO.N,1*%
X60900000Y-73300000D03*
%TD*%
D12*
%TO.P,J5,20*%
%TO.N,80*%
X79800000Y-117200000D03*
%TO.P,J5,19*%
%TO.N,42*%
X77800000Y-117200000D03*
%TO.P,J5,18*%
%TO.N,78*%
X79800000Y-115200000D03*
%TO.P,J5,17*%
%TO.N,44*%
X77800000Y-115200000D03*
%TO.P,J5,16*%
%TO.N,76*%
X79800000Y-113200000D03*
%TO.P,J5,15*%
%TO.N,46*%
X77800000Y-113200000D03*
%TO.P,J5,14*%
%TO.N,74*%
X79800000Y-111200000D03*
%TO.P,J5,13*%
%TO.N,48*%
X77800000Y-111200000D03*
%TO.P,J5,12*%
%TO.N,72*%
X79800000Y-109200000D03*
%TO.P,J5,11*%
%TO.N,50*%
X77800000Y-109200000D03*
%TO.P,J5,10*%
%TO.N,70*%
X79800000Y-107200000D03*
%TO.P,J5,9*%
%TO.N,52*%
X77800000Y-107200000D03*
%TO.P,J5,8*%
%TO.N,68*%
X79800000Y-105200000D03*
%TO.P,J5,7*%
%TO.N,54*%
X77800000Y-105200000D03*
%TO.P,J5,6*%
%TO.N,66*%
X79800000Y-103200000D03*
%TO.P,J5,5*%
%TO.N,56*%
X77800000Y-103200000D03*
%TO.P,J5,4*%
%TO.N,64*%
X79800000Y-101200000D03*
%TO.P,J5,3*%
%TO.N,58*%
X77800000Y-101200000D03*
%TO.P,J5,2*%
%TO.N,62*%
X79800000Y-99200000D03*
D13*
%TO.P,J5,1*%
%TO.N,60*%
X77800000Y-99200000D03*
%TD*%
D12*
%TO.P,J4,20*%
%TO.N,41*%
X79800000Y-91499998D03*
%TO.P,J4,19*%
%TO.N,43*%
X77800000Y-91499998D03*
%TO.P,J4,18*%
%TO.N,45*%
X79800000Y-89499998D03*
%TO.P,J4,17*%
%TO.N,47*%
X77800000Y-89499998D03*
%TO.P,J4,16*%
%TO.N,49*%
X79800000Y-87499998D03*
%TO.P,J4,15*%
%TO.N,51*%
X77800000Y-87499998D03*
%TO.P,J4,14*%
%TO.N,53*%
X79800000Y-85499998D03*
%TO.P,J4,13*%
%TO.N,55*%
X77800000Y-85499998D03*
%TO.P,J4,12*%
%TO.N,57*%
X79800000Y-83499998D03*
%TO.P,J4,11*%
%TO.N,59*%
X77800000Y-83499998D03*
%TO.P,J4,10*%
%TO.N,61*%
X79800000Y-81499998D03*
%TO.P,J4,9*%
%TO.N,63*%
X77800000Y-81499998D03*
%TO.P,J4,8*%
%TO.N,65*%
X79800000Y-79499998D03*
%TO.P,J4,7*%
%TO.N,67*%
X77800000Y-79499998D03*
%TO.P,J4,6*%
%TO.N,69*%
X79800000Y-77499998D03*
%TO.P,J4,5*%
%TO.N,71*%
X77800000Y-77499998D03*
%TO.P,J4,4*%
%TO.N,73*%
X79800000Y-75499998D03*
%TO.P,J4,3*%
%TO.N,75*%
X77800000Y-75499998D03*
%TO.P,J4,2*%
%TO.N,77*%
X79800000Y-73499998D03*
D13*
%TO.P,J4,1*%
%TO.N,79*%
X77800000Y-73499998D03*
%TD*%
D12*
%TO.P,J3,20*%
%TO.N,40*%
X62900000Y-117200000D03*
%TO.P,J3,19*%
%TO.N,2*%
X60900000Y-117200000D03*
%TO.P,J3,18*%
%TO.N,38*%
X62900000Y-115200000D03*
%TO.P,J3,17*%
%TO.N,4*%
X60900000Y-115200000D03*
%TO.P,J3,16*%
%TO.N,36*%
X62900000Y-113200000D03*
%TO.P,J3,15*%
%TO.N,6*%
X60900000Y-113200000D03*
%TO.P,J3,14*%
%TO.N,34*%
X62900000Y-111200000D03*
%TO.P,J3,13*%
%TO.N,8*%
X60900000Y-111200000D03*
%TO.P,J3,12*%
%TO.N,32*%
X62900000Y-109200000D03*
%TO.P,J3,11*%
%TO.N,10*%
X60900000Y-109200000D03*
%TO.P,J3,10*%
%TO.N,30*%
X62900000Y-107200000D03*
%TO.P,J3,9*%
%TO.N,12*%
X60900000Y-107200000D03*
%TO.P,J3,8*%
%TO.N,28*%
X62900000Y-105200000D03*
%TO.P,J3,7*%
%TO.N,14*%
X60900000Y-105200000D03*
%TO.P,J3,6*%
%TO.N,26*%
X62900000Y-103200000D03*
%TO.P,J3,5*%
%TO.N,16*%
X60900000Y-103200000D03*
%TO.P,J3,4*%
%TO.N,24*%
X62900000Y-101200000D03*
%TO.P,J3,3*%
%TO.N,18*%
X60900000Y-101200000D03*
%TO.P,J3,2*%
%TO.N,22*%
X62900000Y-99200000D03*
D13*
%TO.P,J3,1*%
%TO.N,20*%
X60900000Y-99200000D03*
%TD*%
D14*
%TO.P,J1,1*%
%TO.N,1*%
X57650000Y-50950000D03*
%TO.P,J1,2*%
%TO.N,2*%
X57650000Y-57050000D03*
%TO.P,J1,3*%
%TO.N,3*%
X58150000Y-50950000D03*
%TO.P,J1,4*%
%TO.N,4*%
X58150000Y-57050000D03*
%TO.P,J1,5*%
%TO.N,5*%
X58650000Y-50950000D03*
%TO.P,J1,6*%
%TO.N,6*%
X58650000Y-57050000D03*
%TO.P,J1,7*%
%TO.N,7*%
X59150000Y-50950000D03*
%TO.P,J1,8*%
%TO.N,8*%
X59150000Y-57050000D03*
%TO.P,J1,9*%
%TO.N,9*%
X59650000Y-50950000D03*
%TO.P,J1,10*%
%TO.N,10*%
X59650000Y-57050000D03*
%TO.P,J1,11*%
%TO.N,11*%
X61150000Y-50950000D03*
%TO.P,J1,12*%
%TO.N,12*%
X61150000Y-57050000D03*
%TO.P,J1,13*%
%TO.N,13*%
X61650000Y-50950000D03*
%TO.P,J1,14*%
%TO.N,14*%
X61650000Y-57050000D03*
%TO.P,J1,15*%
%TO.N,15*%
X62150000Y-50950000D03*
%TO.P,J1,16*%
%TO.N,16*%
X62150000Y-57050000D03*
%TO.P,J1,17*%
%TO.N,17*%
X62650000Y-50950000D03*
%TO.P,J1,18*%
%TO.N,18*%
X62650000Y-57050000D03*
%TO.P,J1,19*%
%TO.N,19*%
X63150000Y-50950000D03*
%TO.P,J1,20*%
%TO.N,20*%
X63150000Y-57050000D03*
%TO.P,J1,21*%
%TO.N,21*%
X63650000Y-50950000D03*
%TO.P,J1,22*%
%TO.N,22*%
X63650000Y-57050000D03*
%TO.P,J1,23*%
%TO.N,23*%
X64150000Y-50950000D03*
%TO.P,J1,24*%
%TO.N,24*%
X64150000Y-57050000D03*
%TO.P,J1,25*%
%TO.N,25*%
X64650000Y-50950000D03*
%TO.P,J1,26*%
%TO.N,26*%
X64650000Y-57050000D03*
%TO.P,J1,27*%
%TO.N,27*%
X65150000Y-50950000D03*
%TO.P,J1,28*%
%TO.N,28*%
X65150000Y-57050000D03*
%TO.P,J1,29*%
%TO.N,29*%
X65650000Y-50950000D03*
%TO.P,J1,30*%
%TO.N,30*%
X65650000Y-57050000D03*
%TO.P,J1,31*%
%TO.N,31*%
X67150000Y-50950000D03*
%TO.P,J1,32*%
%TO.N,32*%
X67150000Y-57050000D03*
%TO.P,J1,33*%
%TO.N,33*%
X67650000Y-50950000D03*
%TO.P,J1,34*%
%TO.N,34*%
X67650000Y-57050000D03*
%TO.P,J1,35*%
%TO.N,35*%
X68150000Y-50950000D03*
%TO.P,J1,36*%
%TO.N,36*%
X68150000Y-57050000D03*
%TO.P,J1,37*%
%TO.N,37*%
X68650000Y-50950000D03*
%TO.P,J1,38*%
%TO.N,38*%
X68650000Y-57050000D03*
%TO.P,J1,39*%
%TO.N,39*%
X69150000Y-50950000D03*
%TO.P,J1,40*%
%TO.N,40*%
X69150000Y-57050000D03*
%TO.P,J1,41*%
%TO.N,41*%
X69650000Y-50950000D03*
%TO.P,J1,42*%
%TO.N,42*%
X69650000Y-57050000D03*
%TO.P,J1,43*%
%TO.N,43*%
X70150000Y-50950000D03*
%TO.P,J1,44*%
%TO.N,44*%
X70150000Y-57050000D03*
%TO.P,J1,45*%
%TO.N,45*%
X70650000Y-50950000D03*
%TO.P,J1,46*%
%TO.N,46*%
X70650000Y-57050000D03*
%TO.P,J1,47*%
%TO.N,47*%
X71150000Y-50950000D03*
%TO.P,J1,48*%
%TO.N,48*%
X71150000Y-57050000D03*
%TO.P,J1,49*%
%TO.N,49*%
X71650000Y-50950000D03*
%TO.P,J1,50*%
%TO.N,50*%
X71650000Y-57050000D03*
%TO.P,J1,51*%
%TO.N,51*%
X73150000Y-50950000D03*
%TO.P,J1,52*%
%TO.N,52*%
X73150000Y-57050000D03*
%TO.P,J1,53*%
%TO.N,53*%
X73650000Y-50950000D03*
%TO.P,J1,54*%
%TO.N,54*%
X73650000Y-57050000D03*
%TO.P,J1,55*%
%TO.N,55*%
X74150000Y-50950000D03*
%TO.P,J1,56*%
%TO.N,56*%
X74150000Y-57050000D03*
%TO.P,J1,57*%
%TO.N,57*%
X74650000Y-50950000D03*
%TO.P,J1,58*%
%TO.N,58*%
X74650000Y-57050000D03*
%TO.P,J1,59*%
%TO.N,59*%
X75150000Y-50950000D03*
%TO.P,J1,60*%
%TO.N,60*%
X75150000Y-57050000D03*
%TO.P,J1,61*%
%TO.N,61*%
X75650000Y-50950000D03*
%TO.P,J1,62*%
%TO.N,62*%
X75650000Y-57050000D03*
%TO.P,J1,63*%
%TO.N,63*%
X76150000Y-50950000D03*
%TO.P,J1,64*%
%TO.N,64*%
X76150000Y-57050000D03*
%TO.P,J1,65*%
%TO.N,65*%
X76650000Y-50950000D03*
%TO.P,J1,66*%
%TO.N,66*%
X76650000Y-57050000D03*
%TO.P,J1,67*%
%TO.N,67*%
X77150000Y-50950000D03*
%TO.P,J1,68*%
%TO.N,68*%
X77150000Y-57050000D03*
%TO.P,J1,69*%
%TO.N,69*%
X77650000Y-50950000D03*
%TO.P,J1,70*%
%TO.N,70*%
X77650000Y-57050000D03*
%TO.P,J1,71*%
%TO.N,71*%
X79150000Y-50950000D03*
%TO.P,J1,72*%
%TO.N,72*%
X79150000Y-57050000D03*
%TO.P,J1,73*%
%TO.N,73*%
X79650000Y-50950000D03*
%TO.P,J1,74*%
%TO.N,74*%
X79650000Y-57050000D03*
%TO.P,J1,75*%
%TO.N,75*%
X80150000Y-50950000D03*
%TO.P,J1,76*%
%TO.N,76*%
X80150000Y-57050000D03*
%TO.P,J1,77*%
%TO.N,77*%
X80650000Y-50950000D03*
%TO.P,J1,78*%
%TO.N,78*%
X80650000Y-57050000D03*
%TO.P,J1,79*%
%TO.N,79*%
X81150000Y-50950000D03*
%TO.P,J1,80*%
%TO.N,80*%
X81150000Y-57050000D03*
D15*
%TO.P,J1,G1*%
%TO.N,GND*%
X54450000Y-54000000D03*
D16*
%TO.P,J1,G2*%
X60400000Y-57050000D03*
%TO.P,J1,G3*%
X66400000Y-57050000D03*
%TO.P,J1,G4*%
X72400000Y-57050000D03*
%TO.P,J1,G5*%
X78400000Y-57050000D03*
D15*
%TO.P,J1,G6*%
X84350000Y-54000000D03*
D16*
%TO.P,J1,G7*%
X78400000Y-50950000D03*
%TO.P,J1,G8*%
X72400000Y-50950000D03*
%TO.P,J1,G9*%
X66400000Y-50950000D03*
%TO.P,J1,G10*%
X60400000Y-50950000D03*
%TD*%
D17*
%TO.N,1*%
X57600000Y-49400000D03*
%TO.N,3*%
X58100000Y-52600000D03*
%TO.N,5*%
X58700000Y-49400000D03*
%TO.N,7*%
X59200000Y-52600000D03*
%TO.N,9*%
X59700000Y-49400000D03*
%TO.N,11*%
X61100000Y-52600000D03*
%TO.N,13*%
X61600000Y-49300000D03*
%TO.N,15*%
X62100000Y-52600000D03*
%TO.N,17*%
X62700000Y-49300000D03*
%TO.N,19*%
X63100000Y-52600000D03*
%TO.N,21*%
X63700000Y-49300000D03*
%TO.N,23*%
X64200000Y-52600000D03*
%TO.N,25*%
X64693886Y-49189569D03*
%TO.N,27*%
X65200003Y-52600000D03*
%TO.N,29*%
X65693821Y-49201080D03*
%TO.N,31*%
X67100000Y-52500000D03*
%TO.N,33*%
X67599997Y-49400000D03*
%TO.N,35*%
X68100000Y-52500000D03*
%TO.N,37*%
X68600000Y-49400000D03*
%TO.N,39*%
X69100000Y-52500000D03*
%TO.N,41*%
X69700000Y-49100000D03*
%TO.N,43*%
X70100000Y-52500000D03*
%TO.N,45*%
X71200000Y-49200000D03*
%TO.N,47*%
X71100000Y-52500000D03*
%TO.N,49*%
X73200000Y-49200000D03*
%TO.N,51*%
X73200000Y-52600000D03*
%TO.N,53*%
X74200000Y-49200000D03*
%TO.N,55*%
X74200000Y-52600000D03*
%TO.N,57*%
X75200000Y-49200000D03*
%TO.N,59*%
X75200003Y-52600000D03*
%TO.N,61*%
X76200000Y-49200000D03*
%TO.N,63*%
X76300000Y-52700000D03*
%TO.N,65*%
X77200003Y-49200000D03*
%TO.N,67*%
X77700000Y-53000000D03*
%TO.N,69*%
X79200000Y-49200000D03*
%TO.N,71*%
X79000000Y-53000000D03*
%TO.N,73*%
X80192280Y-49075965D03*
%TO.N,75*%
X80000000Y-53100000D03*
%TO.N,77*%
X81200003Y-49200000D03*
%TO.N,79*%
X81200000Y-53200000D03*
%TO.N,GND*%
X60080787Y-53304945D03*
X66115224Y-53104616D03*
X66300000Y-55300000D03*
X60200000Y-55400000D03*
X72300000Y-55500000D03*
X72300000Y-53100000D03*
X78350122Y-52239959D03*
X80500000Y-55200000D03*
X60100000Y-94900000D03*
X78800000Y-94900000D03*
X76400000Y-94000000D03*
X80700000Y-93900000D03*
X80800000Y-95900000D03*
X77100000Y-96000000D03*
X58900000Y-93300000D03*
X60900000Y-93400000D03*
X63000000Y-94500000D03*
X59800000Y-96100000D03*
X60400000Y-69900000D03*
X82500000Y-63900000D03*
X82400000Y-60800000D03*
X56300000Y-61500000D03*
X56300000Y-63800000D03*
%TD*%
D18*
%TO.N,1*%
X57600000Y-50900000D02*
X57650000Y-50950000D01*
X57600000Y-49400000D02*
X57600000Y-50900000D01*
%TO.N,3*%
X58150000Y-52550000D02*
X58150000Y-50950000D01*
X58100000Y-52600000D02*
X58150000Y-52550000D01*
%TO.N,5*%
X58650000Y-49450000D02*
X58700000Y-49400000D01*
X58650000Y-50950000D02*
X58650000Y-49450000D01*
%TO.N,7*%
X59150000Y-52550000D02*
X59200000Y-52600000D01*
X59150000Y-50950000D02*
X59150000Y-52550000D01*
%TO.N,9*%
X59650000Y-49450000D02*
X59700000Y-49400000D01*
X59650000Y-50950000D02*
X59650000Y-49450000D01*
%TO.N,11*%
X61150000Y-52550000D02*
X61100000Y-52600000D01*
X61150000Y-50950000D02*
X61150000Y-52550000D01*
%TO.N,13*%
X61650000Y-49350000D02*
X61600000Y-49300000D01*
X61650000Y-50950000D02*
X61650000Y-49350000D01*
%TO.N,15*%
X62150000Y-52550000D02*
X62100000Y-52600000D01*
X62150000Y-50950000D02*
X62150000Y-52550000D01*
%TO.N,17*%
X62650000Y-49350000D02*
X62700000Y-49300000D01*
X62650000Y-50950000D02*
X62650000Y-49350000D01*
%TO.N,19*%
X63150000Y-52550000D02*
X63100000Y-52600000D01*
X63150000Y-50950000D02*
X63150000Y-52550000D01*
%TO.N,2*%
X57650000Y-57050000D02*
X57650000Y-65322310D01*
X57650000Y-65322310D02*
X54024909Y-68947401D01*
X54024909Y-110324909D02*
X60900000Y-117200000D01*
X54024909Y-68947401D02*
X54024909Y-110324909D01*
%TO.N,4*%
X58150000Y-65458720D02*
X54474919Y-69133801D01*
X58150000Y-57050000D02*
X58150000Y-65458720D01*
X54474919Y-108774919D02*
X60900000Y-115200000D01*
X54474919Y-69133801D02*
X54474919Y-108774919D01*
%TO.N,6*%
X58650000Y-57050000D02*
X58650000Y-65595130D01*
X54924929Y-107224929D02*
X60900000Y-113200000D01*
X54924929Y-69320201D02*
X54924929Y-107224929D01*
X58650000Y-65595130D02*
X54924929Y-69320201D01*
%TO.N,8*%
X59150000Y-65731540D02*
X55374939Y-69506601D01*
X59150000Y-57050000D02*
X59150000Y-65731540D01*
X55374939Y-105674939D02*
X60900000Y-111200000D01*
X55374939Y-69506601D02*
X55374939Y-105674939D01*
%TO.N,10*%
X59650000Y-65867950D02*
X55824949Y-69693001D01*
X59650000Y-57050000D02*
X59650000Y-65867950D01*
X55824949Y-104124949D02*
X60900000Y-109200000D01*
X55824949Y-69693001D02*
X55824949Y-104124949D01*
%TO.N,12*%
X61150000Y-65004360D02*
X56274959Y-69879401D01*
X61150000Y-57050000D02*
X61150000Y-65004360D01*
X56274959Y-102574959D02*
X60900000Y-107200000D01*
X56274959Y-69879401D02*
X56274959Y-102574959D01*
%TO.N,14*%
X61650000Y-65140770D02*
X56724969Y-70065801D01*
X61650000Y-57050000D02*
X61650000Y-65140770D01*
X56724969Y-101024969D02*
X60900000Y-105200000D01*
X56724969Y-70065801D02*
X56724969Y-101024969D01*
%TO.N,16*%
X62150000Y-65277180D02*
X57174979Y-70252201D01*
X62150000Y-57050000D02*
X62150000Y-65277180D01*
X57174979Y-99474979D02*
X60900000Y-103200000D01*
X57174979Y-70252201D02*
X57174979Y-99474979D01*
%TO.N,18*%
X57624989Y-97924989D02*
X60900000Y-101200000D01*
X57624989Y-70438601D02*
X57624989Y-97924989D01*
X62650000Y-65413590D02*
X57624989Y-70438601D01*
X62650000Y-57050000D02*
X62650000Y-65413590D01*
%TO.N,20*%
X58074999Y-96374999D02*
X58074999Y-70625001D01*
X60900000Y-99200000D02*
X58074999Y-96374999D01*
X63150000Y-65550000D02*
X63150000Y-57050000D01*
X58074999Y-70625001D02*
X63150000Y-65550000D01*
%TO.N,21*%
X63650000Y-49454317D02*
X63650000Y-50950000D01*
X63700000Y-49300000D02*
X63650000Y-49454317D01*
%TO.N,23*%
X64150000Y-52550000D02*
X64200000Y-52600000D01*
X64150000Y-50950000D02*
X64150000Y-52550000D01*
%TO.N,25*%
X64650000Y-49233455D02*
X64693886Y-49189569D01*
X64650000Y-50950000D02*
X64650000Y-49233455D01*
%TO.N,27*%
X65150000Y-52549997D02*
X65200003Y-52600000D01*
X65150000Y-50950000D02*
X65150000Y-52549997D01*
%TO.N,29*%
X65650000Y-49244901D02*
X65693821Y-49201080D01*
X65650000Y-50950000D02*
X65650000Y-49244901D01*
%TO.N,31*%
X67150000Y-52450000D02*
X67100000Y-52500000D01*
X67150000Y-50950000D02*
X67150000Y-52450000D01*
%TO.N,33*%
X67650000Y-49450003D02*
X67599997Y-49400000D01*
X67650000Y-50950000D02*
X67650000Y-49450003D01*
%TO.N,35*%
X68150000Y-52450000D02*
X68100000Y-52500000D01*
X68150000Y-50950000D02*
X68150000Y-52450000D01*
%TO.N,37*%
X68650000Y-49450000D02*
X68600000Y-49400000D01*
X68650000Y-50950000D02*
X68650000Y-49450000D01*
%TO.N,39*%
X69150000Y-52450000D02*
X69100000Y-52500000D01*
X69150000Y-50950000D02*
X69150000Y-52450000D01*
%TO.N,22*%
X61900000Y-67436410D02*
X63650000Y-65686410D01*
X63650000Y-65686410D02*
X63650000Y-65050000D01*
X61900000Y-98200000D02*
X61900000Y-67436410D01*
X62900000Y-99200000D02*
X61900000Y-98200000D01*
X63650000Y-65050000D02*
X63650000Y-57050000D01*
X63650000Y-65650000D02*
X63650000Y-65050000D01*
%TO.N,24*%
X64150000Y-99950000D02*
X62900000Y-101200000D01*
X64150000Y-65250000D02*
X64150000Y-99950000D01*
X64150000Y-57050000D02*
X64150000Y-65250000D01*
X64150000Y-65250000D02*
X64150000Y-65513590D01*
%TO.N,26*%
X64650000Y-101450000D02*
X64650000Y-64950000D01*
X64650000Y-64950000D02*
X64650000Y-57050000D01*
X62900000Y-103200000D02*
X64650000Y-101450000D01*
X64650000Y-65377180D02*
X64650000Y-64950000D01*
%TO.N,28*%
X65150000Y-102950000D02*
X62900000Y-105200000D01*
X65150000Y-57050000D02*
X65150000Y-102950000D01*
%TO.N,30*%
X65650000Y-104450000D02*
X65650000Y-64950000D01*
X62900000Y-107200000D02*
X65650000Y-104450000D01*
X65650000Y-64950000D02*
X65650000Y-57050000D01*
X65650000Y-65050000D02*
X65650000Y-64950000D01*
%TO.N,32*%
X67150000Y-104950000D02*
X62900000Y-109200000D01*
X67150000Y-57050000D02*
X67150000Y-104950000D01*
%TO.N,34*%
X67650000Y-106450000D02*
X67650000Y-65350000D01*
X62900000Y-111200000D02*
X67650000Y-106450000D01*
X67650000Y-65350000D02*
X67650000Y-57050000D01*
X67650000Y-65777180D02*
X67650000Y-65350000D01*
%TO.N,36*%
X68150000Y-107950000D02*
X62900000Y-113200000D01*
X68150000Y-57050000D02*
X68150000Y-107950000D01*
%TO.N,38*%
X68650000Y-109450000D02*
X68650000Y-65350000D01*
X68650000Y-65350000D02*
X68650000Y-65504360D01*
X62900000Y-115200000D02*
X68650000Y-109450000D01*
X68650000Y-57050000D02*
X68650000Y-65350000D01*
%TO.N,40*%
X69150000Y-110950000D02*
X62900000Y-117200000D01*
X69150000Y-57050000D02*
X69150000Y-110950000D01*
%TO.N,41*%
X69650000Y-49150000D02*
X69700000Y-49100000D01*
X69650000Y-50950000D02*
X69650000Y-49150000D01*
%TO.N,42*%
X69650000Y-109050000D02*
X77800000Y-117200000D01*
X69650000Y-57050000D02*
X69650000Y-109050000D01*
%TO.N,43*%
X70150000Y-52450000D02*
X70150000Y-50950000D01*
X70100000Y-52500000D02*
X70150000Y-52450000D01*
%TO.N,44*%
X70150000Y-107550000D02*
X77800000Y-115200000D01*
X70150000Y-57050000D02*
X70150000Y-107550000D01*
%TO.N,45*%
X70650000Y-49750000D02*
X71200000Y-49200000D01*
X70650000Y-50950000D02*
X70650000Y-49750000D01*
%TO.N,46*%
X70699990Y-106099990D02*
X77800000Y-113200000D01*
X70699990Y-95299990D02*
X70699990Y-106099990D01*
X70650000Y-95250000D02*
X70699990Y-95299990D01*
X70650000Y-57050000D02*
X70650000Y-95250000D01*
%TO.N,47*%
X71150000Y-52450000D02*
X71100000Y-52500000D01*
X71150000Y-50950000D02*
X71150000Y-52450000D01*
%TO.N,48*%
X71150000Y-104550000D02*
X77800000Y-111200000D01*
X71150000Y-57050000D02*
X71150000Y-104550000D01*
%TO.N,49*%
X72350000Y-49200000D02*
X73200000Y-49200000D01*
X71650000Y-49900000D02*
X72350000Y-49200000D01*
X71650000Y-50950000D02*
X71650000Y-49900000D01*
%TO.N,50*%
X71650000Y-103050000D02*
X77800000Y-109200000D01*
X71650000Y-57050000D02*
X71650000Y-103050000D01*
%TO.N,51*%
X73150000Y-52550000D02*
X73150000Y-50950000D01*
X73200000Y-52600000D02*
X73150000Y-52550000D01*
%TO.N,52*%
X73150000Y-102550000D02*
X77800000Y-107200000D01*
X73150000Y-57050000D02*
X73150000Y-102550000D01*
%TO.N,53*%
X74200000Y-49273002D02*
X74200000Y-49200000D01*
X73650000Y-49823002D02*
X74200000Y-49273002D01*
X73650000Y-50950000D02*
X73650000Y-49823002D01*
%TO.N,54*%
X73650000Y-101050000D02*
X77800000Y-105200000D01*
X73650000Y-57050000D02*
X73650000Y-101050000D01*
%TO.N,55*%
X74150000Y-52550000D02*
X74150000Y-50950000D01*
X74200000Y-52600000D02*
X74150000Y-52550000D01*
%TO.N,56*%
X74150000Y-99550000D02*
X77800000Y-103200000D01*
X74150000Y-57050000D02*
X74150000Y-99550000D01*
%TO.N,57*%
X75200000Y-49273002D02*
X75200000Y-49200000D01*
X74650000Y-49823002D02*
X75200000Y-49273002D01*
X74650000Y-50950000D02*
X74650000Y-49823002D01*
%TO.N,58*%
X74650000Y-99004594D02*
X74650000Y-57050000D01*
X76845406Y-101200000D02*
X74650000Y-99004594D01*
X77800000Y-101200000D02*
X76845406Y-101200000D01*
%TO.N,59*%
X75150000Y-52549997D02*
X75200003Y-52600000D01*
X75150000Y-50950000D02*
X75150000Y-52549997D01*
%TO.N,60*%
X77800000Y-99200000D02*
X76200000Y-99200000D01*
X75150000Y-98150000D02*
X75150000Y-57050000D01*
X76200000Y-99200000D02*
X75150000Y-98150000D01*
%TO.N,61*%
X76200000Y-49273002D02*
X76200000Y-49200000D01*
X75650000Y-49823002D02*
X76200000Y-49273002D01*
X75650000Y-50950000D02*
X75650000Y-49823002D01*
%TO.N,62*%
X75650000Y-70050000D02*
X75650000Y-57050000D01*
X77000000Y-71400000D02*
X75650000Y-70050000D01*
X80600000Y-71400000D02*
X77000000Y-71400000D01*
X81700000Y-72500000D02*
X80600000Y-71400000D01*
X81700000Y-97300000D02*
X81700000Y-72500000D01*
X79800000Y-99200000D02*
X81700000Y-97300000D01*
%TO.N,63*%
X76150000Y-52550000D02*
X76150000Y-50950000D01*
X76300000Y-52700000D02*
X76150000Y-52550000D01*
%TO.N,64*%
X80754594Y-101200000D02*
X79800000Y-101200000D01*
X82150010Y-99804584D02*
X80754594Y-101200000D01*
X82150010Y-72313600D02*
X82150010Y-99804584D01*
X80786400Y-70949990D02*
X82150010Y-72313600D01*
X77300000Y-70949990D02*
X80786400Y-70949990D01*
X76150000Y-69799990D02*
X77300000Y-70949990D01*
X76150000Y-57050000D02*
X76150000Y-69799990D01*
%TO.N,65*%
X77200003Y-49272999D02*
X77200003Y-49200000D01*
X76650000Y-49823002D02*
X77200003Y-49272999D01*
X76650000Y-50950000D02*
X76650000Y-49823002D01*
%TO.N,66*%
X76650000Y-57050000D02*
X76650000Y-69049980D01*
X80972801Y-70499981D02*
X82600020Y-72127200D01*
X78100000Y-70499980D02*
X80972801Y-70499981D01*
X76650000Y-69049980D02*
X78100000Y-70499980D01*
X82600020Y-100399980D02*
X79800000Y-103200000D01*
X82600020Y-72127200D02*
X82600020Y-100399980D01*
%TO.N,67*%
X77150000Y-52450000D02*
X77700000Y-53000000D01*
X77150000Y-50950000D02*
X77150000Y-52450000D01*
%TO.N,68*%
X83050029Y-71940799D02*
X81109230Y-70000000D01*
X83050029Y-101949971D02*
X83050029Y-71940799D01*
X79800000Y-105200000D02*
X83050029Y-101949971D01*
X81109230Y-70000000D02*
X78236430Y-70000000D01*
X78236430Y-70000000D02*
X77100010Y-68863580D01*
X77150000Y-58265000D02*
X77150000Y-57050000D01*
X77100010Y-58314990D02*
X77150000Y-58265000D01*
X77100010Y-68863580D02*
X77100010Y-58314990D01*
%TO.N,69*%
X78350000Y-49200000D02*
X79200000Y-49200000D01*
X77650000Y-49900000D02*
X78350000Y-49200000D01*
X77650000Y-50950000D02*
X77650000Y-49900000D01*
%TO.N,70*%
X77650000Y-57050000D02*
X77650000Y-67699990D01*
X83500039Y-103499961D02*
X79800000Y-107200000D01*
X83500039Y-71754399D02*
X83500039Y-103499961D01*
X81295631Y-69549991D02*
X83500039Y-71754399D01*
X79500000Y-69549990D02*
X81295631Y-69549991D01*
X77650000Y-67699990D02*
X79500000Y-69549990D01*
%TO.N,71*%
X79150000Y-52850000D02*
X79150000Y-50950000D01*
X79000000Y-53000000D02*
X79150000Y-52850000D01*
%TO.N,72*%
X83950048Y-71567998D02*
X81482030Y-69099982D01*
X83950049Y-105049951D02*
X83950048Y-71567998D01*
X79800000Y-109200000D02*
X83950049Y-105049951D01*
X81482030Y-69099982D02*
X79899982Y-69099982D01*
X79899982Y-69099982D02*
X79075001Y-68275001D01*
X79150000Y-57450000D02*
X79150000Y-57050000D01*
X79075001Y-57524999D02*
X79150000Y-57450000D01*
X79075001Y-68275001D02*
X79075001Y-57524999D01*
%TO.N,73*%
X80192280Y-49280722D02*
X80192280Y-49075965D01*
X79650000Y-49823002D02*
X80192280Y-49280722D01*
X79650000Y-50950000D02*
X79650000Y-49823002D01*
%TO.N,74*%
X84400057Y-106599943D02*
X79800000Y-111200000D01*
X84400057Y-71381599D02*
X84400057Y-106599943D01*
X79650000Y-66631542D02*
X84400057Y-71381599D01*
X79650000Y-57050000D02*
X79650000Y-66631542D01*
%TO.N,75*%
X80150000Y-52950000D02*
X80000000Y-53100000D01*
X80150000Y-50950000D02*
X80150000Y-52950000D01*
%TO.N,76*%
X84850066Y-108149934D02*
X84850066Y-70950056D01*
X79800000Y-113200000D02*
X84850066Y-108149934D01*
X80150000Y-66249990D02*
X80150000Y-57050000D01*
X84850066Y-70950056D02*
X80150000Y-66249990D01*
%TO.N,77*%
X80650000Y-49750003D02*
X81200003Y-49200000D01*
X80650000Y-50950000D02*
X80650000Y-49750003D01*
%TO.N,78*%
X85300076Y-109699924D02*
X79800000Y-115200000D01*
X85300076Y-70763656D02*
X85300076Y-109699924D01*
X80650000Y-66113580D02*
X85300076Y-70763656D01*
X80650000Y-57050000D02*
X80650000Y-66113580D01*
%TO.N,79*%
X81200000Y-51000000D02*
X81150000Y-50950000D01*
X81200000Y-53200000D02*
X81200000Y-51000000D01*
%TO.N,80*%
X85750085Y-111249915D02*
X85750085Y-70450085D01*
X79800000Y-117200000D02*
X85750085Y-111249915D01*
X81150000Y-65850000D02*
X81150000Y-57050000D01*
X85750085Y-70450085D02*
X81150000Y-65850000D01*
%TO.N,GND*%
X60080787Y-52546211D02*
X60080787Y-53304945D01*
X60400000Y-52226998D02*
X60080787Y-52546211D01*
X60400000Y-50950000D02*
X60400000Y-52226998D01*
X66115224Y-52284776D02*
X66115224Y-53104616D01*
X66400000Y-52000000D02*
X66115224Y-52284776D01*
X66400000Y-50950000D02*
X66400000Y-52000000D01*
X66400000Y-55400000D02*
X66300000Y-55300000D01*
X66400000Y-57050000D02*
X66400000Y-55400000D01*
X60400000Y-55600000D02*
X60200000Y-55400000D01*
X60400000Y-57050000D02*
X60400000Y-55600000D01*
X72400000Y-55600000D02*
X72300000Y-55500000D01*
X72400000Y-57050000D02*
X72400000Y-55600000D01*
X72400000Y-53000000D02*
X72300000Y-53100000D01*
X72400000Y-50950000D02*
X72400000Y-53000000D01*
X78400000Y-52190081D02*
X78350122Y-52239959D01*
X78400000Y-50950000D02*
X78400000Y-52190081D01*
X79200000Y-55200000D02*
X80500000Y-55200000D01*
X78400000Y-56000000D02*
X79200000Y-55200000D01*
X78400000Y-57050000D02*
X78400000Y-56000000D01*
%TD*%
D19*
%TO.N,GND*%
X87810223Y-38489831D02*
X87422982Y-38729976D01*
X87162359Y-39223877D01*
X87003099Y-39759133D01*
X86951322Y-40315174D01*
X87009019Y-40870632D01*
X87173972Y-41404161D01*
X87422982Y-41870024D01*
X87810225Y-42110170D01*
X89620395Y-40300000D01*
X89606253Y-40285858D01*
X89785858Y-40106253D01*
X89800000Y-40120395D01*
X89814143Y-40106253D01*
X89993748Y-40285858D01*
X89979605Y-40300000D01*
X89993748Y-40314143D01*
X89814143Y-40493748D01*
X89800000Y-40479605D01*
X87989830Y-42289775D01*
X88229976Y-42677018D01*
X88723877Y-42937641D01*
X89259133Y-43096901D01*
X89815174Y-43148678D01*
X90370632Y-43090981D01*
X90904161Y-42926028D01*
X91370024Y-42677018D01*
X91610169Y-42289777D01*
X91640000Y-42319608D01*
X91640001Y-124180391D01*
X91610169Y-124210223D01*
X91370024Y-123822982D01*
X90876123Y-123562359D01*
X90340867Y-123403099D01*
X89784826Y-123351322D01*
X89229368Y-123409019D01*
X88695839Y-123573972D01*
X88229976Y-123822982D01*
X87989830Y-124210225D01*
X89800000Y-126020395D01*
X89814143Y-126006253D01*
X89993748Y-126185858D01*
X89979605Y-126200000D01*
X89993748Y-126214143D01*
X89814143Y-126393748D01*
X89800000Y-126379605D01*
X89785858Y-126393748D01*
X89606253Y-126214143D01*
X89620395Y-126200000D01*
X87810225Y-124389830D01*
X87422982Y-124629976D01*
X87162359Y-125123877D01*
X87003099Y-125659133D01*
X86951322Y-126215174D01*
X87009019Y-126770632D01*
X87173972Y-127304161D01*
X87422982Y-127770024D01*
X87810223Y-128010169D01*
X87780392Y-128040000D01*
X51419608Y-128040000D01*
X51389777Y-128010169D01*
X51777018Y-127770024D01*
X52037641Y-127276123D01*
X52196901Y-126740867D01*
X52248678Y-126184826D01*
X52190981Y-125629368D01*
X52026028Y-125095839D01*
X51777018Y-124629976D01*
X51389775Y-124389830D01*
X49579605Y-126200000D01*
X49593748Y-126214143D01*
X49414143Y-126393748D01*
X49400000Y-126379605D01*
X49385858Y-126393748D01*
X49206253Y-126214143D01*
X49220395Y-126200000D01*
X49206253Y-126185858D01*
X49385858Y-126006253D01*
X49400000Y-126020395D01*
X51210170Y-124210225D01*
X50970024Y-123822982D01*
X50476123Y-123562359D01*
X49940867Y-123403099D01*
X49384826Y-123351322D01*
X48829368Y-123409019D01*
X48295839Y-123573972D01*
X47829976Y-123822982D01*
X47589831Y-124210223D01*
X47560000Y-124180392D01*
X47560000Y-68947401D01*
X53261233Y-68947401D01*
X53264909Y-68984723D01*
X53264910Y-110287576D01*
X53261233Y-110324909D01*
X53264910Y-110362242D01*
X53275907Y-110473895D01*
X53284103Y-110500913D01*
X53319363Y-110617155D01*
X53389935Y-110749185D01*
X53446318Y-110817887D01*
X53484909Y-110864910D01*
X53513907Y-110888708D01*
X59607615Y-116982417D01*
X59590000Y-117070976D01*
X59590000Y-117329024D01*
X59640342Y-117582113D01*
X59739093Y-117820518D01*
X59882456Y-118035077D01*
X60064923Y-118217544D01*
X60279482Y-118360907D01*
X60517887Y-118459658D01*
X60770976Y-118510000D01*
X61029024Y-118510000D01*
X61282113Y-118459658D01*
X61520518Y-118360907D01*
X61735077Y-118217544D01*
X61900000Y-118052621D01*
X62064923Y-118217544D01*
X62279482Y-118360907D01*
X62517887Y-118459658D01*
X62770976Y-118510000D01*
X63029024Y-118510000D01*
X63282113Y-118459658D01*
X63520518Y-118360907D01*
X63735077Y-118217544D01*
X63917544Y-118035077D01*
X64060907Y-117820518D01*
X64159658Y-117582113D01*
X64210000Y-117329024D01*
X64210000Y-117070976D01*
X64192385Y-116982417D01*
X69661003Y-111513799D01*
X69690001Y-111490001D01*
X69784974Y-111374276D01*
X69855546Y-111242247D01*
X69899003Y-111098986D01*
X69910000Y-110987333D01*
X69910000Y-110987325D01*
X69913676Y-110950000D01*
X69910000Y-110912675D01*
X69910000Y-110384801D01*
X76507615Y-116982417D01*
X76490000Y-117070976D01*
X76490000Y-117329024D01*
X76540342Y-117582113D01*
X76639093Y-117820518D01*
X76782456Y-118035077D01*
X76964923Y-118217544D01*
X77179482Y-118360907D01*
X77417887Y-118459658D01*
X77670976Y-118510000D01*
X77929024Y-118510000D01*
X78182113Y-118459658D01*
X78420518Y-118360907D01*
X78635077Y-118217544D01*
X78800000Y-118052621D01*
X78964923Y-118217544D01*
X79179482Y-118360907D01*
X79417887Y-118459658D01*
X79670976Y-118510000D01*
X79929024Y-118510000D01*
X80182113Y-118459658D01*
X80420518Y-118360907D01*
X80635077Y-118217544D01*
X80817544Y-118035077D01*
X80960907Y-117820518D01*
X81059658Y-117582113D01*
X81110000Y-117329024D01*
X81110000Y-117070976D01*
X81092385Y-116982417D01*
X86261089Y-111813713D01*
X86290086Y-111789916D01*
X86352654Y-111713677D01*
X86385059Y-111674192D01*
X86455631Y-111542162D01*
X86455631Y-111542161D01*
X86499088Y-111398901D01*
X86510085Y-111287248D01*
X86510085Y-111287238D01*
X86513761Y-111249915D01*
X86510085Y-111212592D01*
X86510085Y-70487418D01*
X86513762Y-70450085D01*
X86499088Y-70301099D01*
X86455631Y-70157838D01*
X86385059Y-70025809D01*
X86313884Y-69939082D01*
X86290086Y-69910084D01*
X86261088Y-69886286D01*
X81910000Y-65535199D01*
X81910000Y-58026607D01*
X81925812Y-57974482D01*
X81938072Y-57850000D01*
X81938072Y-56250000D01*
X81925812Y-56125518D01*
X81889502Y-56005820D01*
X81830537Y-55895506D01*
X81751185Y-55798815D01*
X81654494Y-55719463D01*
X81544180Y-55660498D01*
X81424482Y-55624188D01*
X81300000Y-55611928D01*
X81000000Y-55611928D01*
X80900000Y-55621777D01*
X80800000Y-55611928D01*
X80500000Y-55611928D01*
X80400000Y-55621777D01*
X80300000Y-55611928D01*
X80000000Y-55611928D01*
X79900000Y-55621777D01*
X79800000Y-55611928D01*
X79500000Y-55611928D01*
X79400000Y-55621777D01*
X79300000Y-55611928D01*
X79000000Y-55611928D01*
X78875518Y-55624188D01*
X78875000Y-55624345D01*
X78874482Y-55624188D01*
X78750000Y-55611928D01*
X78685750Y-55615000D01*
X78527000Y-55773750D01*
X78527000Y-55825397D01*
X78469463Y-55895506D01*
X78410498Y-56005820D01*
X78400000Y-56040427D01*
X78389502Y-56005820D01*
X78330537Y-55895506D01*
X78273000Y-55825397D01*
X78273000Y-55773750D01*
X78114250Y-55615000D01*
X78050000Y-55611928D01*
X77925518Y-55624188D01*
X77925000Y-55624345D01*
X77924482Y-55624188D01*
X77800000Y-55611928D01*
X77500000Y-55611928D01*
X77400000Y-55621777D01*
X77300000Y-55611928D01*
X77000000Y-55611928D01*
X76900000Y-55621777D01*
X76800000Y-55611928D01*
X76500000Y-55611928D01*
X76400000Y-55621777D01*
X76300000Y-55611928D01*
X76000000Y-55611928D01*
X75900000Y-55621777D01*
X75800000Y-55611928D01*
X75500000Y-55611928D01*
X75400000Y-55621777D01*
X75300000Y-55611928D01*
X75000000Y-55611928D01*
X74900000Y-55621777D01*
X74800000Y-55611928D01*
X74500000Y-55611928D01*
X74400000Y-55621777D01*
X74300000Y-55611928D01*
X74000000Y-55611928D01*
X73900000Y-55621777D01*
X73800000Y-55611928D01*
X73500000Y-55611928D01*
X73400000Y-55621777D01*
X73300000Y-55611928D01*
X73000000Y-55611928D01*
X72875518Y-55624188D01*
X72875000Y-55624345D01*
X72874482Y-55624188D01*
X72750000Y-55611928D01*
X72685750Y-55615000D01*
X72527000Y-55773750D01*
X72527000Y-55825397D01*
X72469463Y-55895506D01*
X72410498Y-56005820D01*
X72400000Y-56040427D01*
X72389502Y-56005820D01*
X72330537Y-55895506D01*
X72273000Y-55825397D01*
X72273000Y-55773750D01*
X72114250Y-55615000D01*
X72050000Y-55611928D01*
X71925518Y-55624188D01*
X71925000Y-55624345D01*
X71924482Y-55624188D01*
X71800000Y-55611928D01*
X71500000Y-55611928D01*
X71400000Y-55621777D01*
X71300000Y-55611928D01*
X71000000Y-55611928D01*
X70900000Y-55621777D01*
X70800000Y-55611928D01*
X70500000Y-55611928D01*
X70400000Y-55621777D01*
X70300000Y-55611928D01*
X70000000Y-55611928D01*
X69900000Y-55621777D01*
X69800000Y-55611928D01*
X69500000Y-55611928D01*
X69400000Y-55621777D01*
X69300000Y-55611928D01*
X69000000Y-55611928D01*
X68900000Y-55621777D01*
X68800000Y-55611928D01*
X68500000Y-55611928D01*
X68400000Y-55621777D01*
X68300000Y-55611928D01*
X68000000Y-55611928D01*
X67900000Y-55621777D01*
X67800000Y-55611928D01*
X67500000Y-55611928D01*
X67400000Y-55621777D01*
X67300000Y-55611928D01*
X67000000Y-55611928D01*
X66875518Y-55624188D01*
X66875000Y-55624345D01*
X66874482Y-55624188D01*
X66750000Y-55611928D01*
X66685750Y-55615000D01*
X66527000Y-55773750D01*
X66527000Y-55825397D01*
X66469463Y-55895506D01*
X66410498Y-56005820D01*
X66400000Y-56040427D01*
X66389502Y-56005820D01*
X66330537Y-55895506D01*
X66273000Y-55825397D01*
X66273000Y-55773750D01*
X66114250Y-55615000D01*
X66050000Y-55611928D01*
X65925518Y-55624188D01*
X65925000Y-55624345D01*
X65924482Y-55624188D01*
X65800000Y-55611928D01*
X65500000Y-55611928D01*
X65400000Y-55621777D01*
X65300000Y-55611928D01*
X65000000Y-55611928D01*
X64900000Y-55621777D01*
X64800000Y-55611928D01*
X64500000Y-55611928D01*
X64400000Y-55621777D01*
X64300000Y-55611928D01*
X64000000Y-55611928D01*
X63900000Y-55621777D01*
X63800000Y-55611928D01*
X63500000Y-55611928D01*
X63400000Y-55621777D01*
X63300000Y-55611928D01*
X63000000Y-55611928D01*
X62900000Y-55621777D01*
X62800000Y-55611928D01*
X62500000Y-55611928D01*
X62400000Y-55621777D01*
X62300000Y-55611928D01*
X62000000Y-55611928D01*
X61900000Y-55621777D01*
X61800000Y-55611928D01*
X61500000Y-55611928D01*
X61400000Y-55621777D01*
X61300000Y-55611928D01*
X61000000Y-55611928D01*
X60875518Y-55624188D01*
X60875000Y-55624345D01*
X60874482Y-55624188D01*
X60750000Y-55611928D01*
X60685750Y-55615000D01*
X60527000Y-55773750D01*
X60527000Y-55825397D01*
X60469463Y-55895506D01*
X60410498Y-56005820D01*
X60400000Y-56040427D01*
X60389502Y-56005820D01*
X60330537Y-55895506D01*
X60273000Y-55825397D01*
X60273000Y-55773750D01*
X60114250Y-55615000D01*
X60050000Y-55611928D01*
X59925518Y-55624188D01*
X59925000Y-55624345D01*
X59924482Y-55624188D01*
X59800000Y-55611928D01*
X59500000Y-55611928D01*
X59400000Y-55621777D01*
X59300000Y-55611928D01*
X59000000Y-55611928D01*
X58900000Y-55621777D01*
X58800000Y-55611928D01*
X58500000Y-55611928D01*
X58400000Y-55621777D01*
X58300000Y-55611928D01*
X58000000Y-55611928D01*
X57900000Y-55621777D01*
X57800000Y-55611928D01*
X57500000Y-55611928D01*
X57375518Y-55624188D01*
X57255820Y-55660498D01*
X57145506Y-55719463D01*
X57048815Y-55798815D01*
X56969463Y-55895506D01*
X56910498Y-56005820D01*
X56874188Y-56125518D01*
X56861928Y-56250000D01*
X56861928Y-57850000D01*
X56874188Y-57974482D01*
X56890000Y-58026608D01*
X56890001Y-65007507D01*
X53513912Y-68383597D01*
X53484908Y-68407400D01*
X53450774Y-68448993D01*
X53389935Y-68523125D01*
X53364167Y-68571334D01*
X53319363Y-68655155D01*
X53275906Y-68798416D01*
X53264909Y-68910069D01*
X53264909Y-68910079D01*
X53261233Y-68947401D01*
X47560000Y-68947401D01*
X47560000Y-55550000D01*
X53011928Y-55550000D01*
X53024188Y-55674482D01*
X53060498Y-55794180D01*
X53119463Y-55904494D01*
X53198815Y-56001185D01*
X53295506Y-56080537D01*
X53405820Y-56139502D01*
X53525518Y-56175812D01*
X53650000Y-56188072D01*
X54164250Y-56185000D01*
X54323000Y-56026250D01*
X54323000Y-54127000D01*
X53173750Y-54127000D01*
X53015000Y-54285750D01*
X53011928Y-55550000D01*
X47560000Y-55550000D01*
X47560000Y-52450000D01*
X53011928Y-52450000D01*
X53015000Y-53714250D01*
X53173750Y-53873000D01*
X54323000Y-53873000D01*
X54323000Y-51973750D01*
X54577000Y-51973750D01*
X54577000Y-53873000D01*
X54597000Y-53873000D01*
X54597000Y-54127000D01*
X54577000Y-54127000D01*
X54577000Y-56026250D01*
X54735750Y-56185000D01*
X55250000Y-56188072D01*
X55374482Y-56175812D01*
X55494180Y-56139502D01*
X55604494Y-56080537D01*
X55701185Y-56001185D01*
X55780537Y-55904494D01*
X55839502Y-55794180D01*
X55875812Y-55674482D01*
X55888072Y-55550000D01*
X55887090Y-55145974D01*
X56083288Y-55185000D01*
X56316712Y-55185000D01*
X56545652Y-55139461D01*
X56761308Y-55050134D01*
X56955394Y-54920450D01*
X57120450Y-54755394D01*
X57250134Y-54561308D01*
X57339461Y-54345652D01*
X57385000Y-54116712D01*
X57385000Y-53883288D01*
X57339461Y-53654348D01*
X57250134Y-53438692D01*
X57120450Y-53244606D01*
X56955394Y-53079550D01*
X56761308Y-52949866D01*
X56545652Y-52860539D01*
X56316712Y-52815000D01*
X56083288Y-52815000D01*
X55887090Y-52854026D01*
X55888072Y-52450000D01*
X55875812Y-52325518D01*
X55839502Y-52205820D01*
X55780537Y-52095506D01*
X55701185Y-51998815D01*
X55604494Y-51919463D01*
X55494180Y-51860498D01*
X55374482Y-51824188D01*
X55250000Y-51811928D01*
X54735750Y-51815000D01*
X54577000Y-51973750D01*
X54323000Y-51973750D01*
X54164250Y-51815000D01*
X53650000Y-51811928D01*
X53525518Y-51824188D01*
X53405820Y-51860498D01*
X53295506Y-51919463D01*
X53198815Y-51998815D01*
X53119463Y-52095506D01*
X53060498Y-52205820D01*
X53024188Y-52325518D01*
X53011928Y-52450000D01*
X47560000Y-52450000D01*
X47560000Y-49298061D01*
X56565000Y-49298061D01*
X56565000Y-49501939D01*
X56604774Y-49701898D01*
X56682795Y-49890256D01*
X56796063Y-50059774D01*
X56840000Y-50103711D01*
X56840001Y-50862668D01*
X56836324Y-50900000D01*
X56850998Y-51048985D01*
X56861928Y-51085018D01*
X56861928Y-51750000D01*
X56874188Y-51874482D01*
X56910498Y-51994180D01*
X56969463Y-52104494D01*
X57048815Y-52201185D01*
X57120537Y-52260046D01*
X57104774Y-52298102D01*
X57065000Y-52498061D01*
X57065000Y-52701939D01*
X57104774Y-52901898D01*
X57182795Y-53090256D01*
X57296063Y-53259774D01*
X57440226Y-53403937D01*
X57609744Y-53517205D01*
X57798102Y-53595226D01*
X57998061Y-53635000D01*
X58201939Y-53635000D01*
X58401898Y-53595226D01*
X58590256Y-53517205D01*
X58650000Y-53477285D01*
X58709744Y-53517205D01*
X58898102Y-53595226D01*
X59098061Y-53635000D01*
X59301939Y-53635000D01*
X59501898Y-53595226D01*
X59690256Y-53517205D01*
X59859774Y-53403937D01*
X60003937Y-53259774D01*
X60117205Y-53090256D01*
X60150000Y-53011082D01*
X60182795Y-53090256D01*
X60296063Y-53259774D01*
X60440226Y-53403937D01*
X60609744Y-53517205D01*
X60798102Y-53595226D01*
X60998061Y-53635000D01*
X61201939Y-53635000D01*
X61401898Y-53595226D01*
X61590256Y-53517205D01*
X61600000Y-53510694D01*
X61609744Y-53517205D01*
X61798102Y-53595226D01*
X61998061Y-53635000D01*
X62201939Y-53635000D01*
X62401898Y-53595226D01*
X62590256Y-53517205D01*
X62600000Y-53510694D01*
X62609744Y-53517205D01*
X62798102Y-53595226D01*
X62998061Y-53635000D01*
X63201939Y-53635000D01*
X63401898Y-53595226D01*
X63590256Y-53517205D01*
X63650000Y-53477285D01*
X63709744Y-53517205D01*
X63898102Y-53595226D01*
X64098061Y-53635000D01*
X64301939Y-53635000D01*
X64501898Y-53595226D01*
X64690256Y-53517205D01*
X64700002Y-53510693D01*
X64709747Y-53517205D01*
X64898105Y-53595226D01*
X65098064Y-53635000D01*
X65301942Y-53635000D01*
X65501901Y-53595226D01*
X65690259Y-53517205D01*
X65859777Y-53403937D01*
X66003940Y-53259774D01*
X66117208Y-53090256D01*
X66170712Y-52961086D01*
X66182795Y-52990256D01*
X66296063Y-53159774D01*
X66440226Y-53303937D01*
X66609744Y-53417205D01*
X66798102Y-53495226D01*
X66998061Y-53535000D01*
X67201939Y-53535000D01*
X67401898Y-53495226D01*
X67590256Y-53417205D01*
X67600000Y-53410694D01*
X67609744Y-53417205D01*
X67798102Y-53495226D01*
X67998061Y-53535000D01*
X68201939Y-53535000D01*
X68401898Y-53495226D01*
X68590256Y-53417205D01*
X68600000Y-53410694D01*
X68609744Y-53417205D01*
X68798102Y-53495226D01*
X68998061Y-53535000D01*
X69201939Y-53535000D01*
X69401898Y-53495226D01*
X69590256Y-53417205D01*
X69600000Y-53410694D01*
X69609744Y-53417205D01*
X69798102Y-53495226D01*
X69998061Y-53535000D01*
X70201939Y-53535000D01*
X70401898Y-53495226D01*
X70590256Y-53417205D01*
X70600000Y-53410694D01*
X70609744Y-53417205D01*
X70798102Y-53495226D01*
X70998061Y-53535000D01*
X71201939Y-53535000D01*
X71401898Y-53495226D01*
X71590256Y-53417205D01*
X71759774Y-53303937D01*
X71903937Y-53159774D01*
X72017205Y-52990256D01*
X72095226Y-52801898D01*
X72135000Y-52601939D01*
X72135000Y-52398061D01*
X72129390Y-52369860D01*
X72207338Y-52291912D01*
X72204774Y-52298102D01*
X72165000Y-52498061D01*
X72165000Y-52701939D01*
X72204774Y-52901898D01*
X72282795Y-53090256D01*
X72396063Y-53259774D01*
X72540226Y-53403937D01*
X72709744Y-53517205D01*
X72898102Y-53595226D01*
X73098061Y-53635000D01*
X73301939Y-53635000D01*
X73501898Y-53595226D01*
X73690256Y-53517205D01*
X73700000Y-53510694D01*
X73709744Y-53517205D01*
X73898102Y-53595226D01*
X74098061Y-53635000D01*
X74301939Y-53635000D01*
X74501898Y-53595226D01*
X74690256Y-53517205D01*
X74700002Y-53510693D01*
X74709747Y-53517205D01*
X74898105Y-53595226D01*
X75098064Y-53635000D01*
X75301942Y-53635000D01*
X75501901Y-53595226D01*
X75671631Y-53524921D01*
X75809744Y-53617205D01*
X75998102Y-53695226D01*
X76198061Y-53735000D01*
X76401939Y-53735000D01*
X76601898Y-53695226D01*
X76790256Y-53617205D01*
X76843741Y-53581468D01*
X76896063Y-53659774D01*
X77040226Y-53803937D01*
X77209744Y-53917205D01*
X77398102Y-53995226D01*
X77598061Y-54035000D01*
X77801939Y-54035000D01*
X78001898Y-53995226D01*
X78190256Y-53917205D01*
X78350000Y-53810468D01*
X78509744Y-53917205D01*
X78698102Y-53995226D01*
X78898061Y-54035000D01*
X79101939Y-54035000D01*
X79301898Y-53995226D01*
X79409898Y-53950490D01*
X79509744Y-54017205D01*
X79698102Y-54095226D01*
X79898061Y-54135000D01*
X80101939Y-54135000D01*
X80301898Y-54095226D01*
X80490256Y-54017205D01*
X80528164Y-53991875D01*
X80540226Y-54003937D01*
X80709744Y-54117205D01*
X80898102Y-54195226D01*
X81098061Y-54235000D01*
X81301939Y-54235000D01*
X81384291Y-54218619D01*
X81412460Y-54360236D01*
X81505557Y-54584992D01*
X81640713Y-54787267D01*
X81812733Y-54959287D01*
X82015008Y-55094443D01*
X82239764Y-55187540D01*
X82478363Y-55235000D01*
X82721637Y-55235000D01*
X82912786Y-55196978D01*
X82911928Y-55550000D01*
X82924188Y-55674482D01*
X82960498Y-55794180D01*
X83019463Y-55904494D01*
X83098815Y-56001185D01*
X83195506Y-56080537D01*
X83305820Y-56139502D01*
X83425518Y-56175812D01*
X83550000Y-56188072D01*
X84064250Y-56185000D01*
X84223000Y-56026250D01*
X84223000Y-54127000D01*
X84477000Y-54127000D01*
X84477000Y-56026250D01*
X84635750Y-56185000D01*
X85150000Y-56188072D01*
X85274482Y-56175812D01*
X85394180Y-56139502D01*
X85504494Y-56080537D01*
X85601185Y-56001185D01*
X85680537Y-55904494D01*
X85739502Y-55794180D01*
X85775812Y-55674482D01*
X85788072Y-55550000D01*
X85785000Y-54285750D01*
X85626250Y-54127000D01*
X84477000Y-54127000D01*
X84223000Y-54127000D01*
X84203000Y-54127000D01*
X84203000Y-53873000D01*
X84223000Y-53873000D01*
X84223000Y-51973750D01*
X84477000Y-51973750D01*
X84477000Y-53873000D01*
X85626250Y-53873000D01*
X85785000Y-53714250D01*
X85788072Y-52450000D01*
X85775812Y-52325518D01*
X85739502Y-52205820D01*
X85680537Y-52095506D01*
X85601185Y-51998815D01*
X85504494Y-51919463D01*
X85394180Y-51860498D01*
X85274482Y-51824188D01*
X85150000Y-51811928D01*
X84635750Y-51815000D01*
X84477000Y-51973750D01*
X84223000Y-51973750D01*
X84064250Y-51815000D01*
X83550000Y-51811928D01*
X83425518Y-51824188D01*
X83305820Y-51860498D01*
X83195506Y-51919463D01*
X83098815Y-51998815D01*
X83019463Y-52095506D01*
X82960498Y-52205820D01*
X82924188Y-52325518D01*
X82911928Y-52450000D01*
X82912786Y-52803022D01*
X82721637Y-52765000D01*
X82478363Y-52765000D01*
X82239764Y-52812460D01*
X82171469Y-52840749D01*
X82117205Y-52709744D01*
X82003937Y-52540226D01*
X81960000Y-52496289D01*
X81960000Y-51037325D01*
X81963676Y-51000000D01*
X81960000Y-50962675D01*
X81960000Y-50962667D01*
X81949003Y-50851014D01*
X81938072Y-50814979D01*
X81938072Y-50150000D01*
X81925812Y-50025518D01*
X81905420Y-49958294D01*
X82003940Y-49859774D01*
X82117208Y-49690256D01*
X82195229Y-49501898D01*
X82235003Y-49301939D01*
X82235003Y-49098061D01*
X82195229Y-48898102D01*
X82117208Y-48709744D01*
X82003940Y-48540226D01*
X81859777Y-48396063D01*
X81690259Y-48282795D01*
X81501901Y-48204774D01*
X81301942Y-48165000D01*
X81098064Y-48165000D01*
X80898105Y-48204774D01*
X80807543Y-48242286D01*
X80682536Y-48158760D01*
X80494178Y-48080739D01*
X80294219Y-48040965D01*
X80090341Y-48040965D01*
X79890382Y-48080739D01*
X79702024Y-48158760D01*
X79582927Y-48238338D01*
X79501898Y-48204774D01*
X79301939Y-48165000D01*
X79098061Y-48165000D01*
X78898102Y-48204774D01*
X78709744Y-48282795D01*
X78540226Y-48396063D01*
X78496289Y-48440000D01*
X78387322Y-48440000D01*
X78349999Y-48436324D01*
X78312676Y-48440000D01*
X78312667Y-48440000D01*
X78201014Y-48450997D01*
X78057753Y-48494454D01*
X77992856Y-48529142D01*
X77859777Y-48396063D01*
X77690259Y-48282795D01*
X77501901Y-48204774D01*
X77301942Y-48165000D01*
X77098064Y-48165000D01*
X76898105Y-48204774D01*
X76709747Y-48282795D01*
X76700002Y-48289307D01*
X76690256Y-48282795D01*
X76501898Y-48204774D01*
X76301939Y-48165000D01*
X76098061Y-48165000D01*
X75898102Y-48204774D01*
X75709744Y-48282795D01*
X75700000Y-48289306D01*
X75690256Y-48282795D01*
X75501898Y-48204774D01*
X75301939Y-48165000D01*
X75098061Y-48165000D01*
X74898102Y-48204774D01*
X74709744Y-48282795D01*
X74700000Y-48289306D01*
X74690256Y-48282795D01*
X74501898Y-48204774D01*
X74301939Y-48165000D01*
X74098061Y-48165000D01*
X73898102Y-48204774D01*
X73709744Y-48282795D01*
X73700000Y-48289306D01*
X73690256Y-48282795D01*
X73501898Y-48204774D01*
X73301939Y-48165000D01*
X73098061Y-48165000D01*
X72898102Y-48204774D01*
X72709744Y-48282795D01*
X72540226Y-48396063D01*
X72496289Y-48440000D01*
X72387322Y-48440000D01*
X72349999Y-48436324D01*
X72312676Y-48440000D01*
X72312667Y-48440000D01*
X72201014Y-48450997D01*
X72057753Y-48494454D01*
X71992854Y-48529143D01*
X71859774Y-48396063D01*
X71690256Y-48282795D01*
X71501898Y-48204774D01*
X71301939Y-48165000D01*
X71098061Y-48165000D01*
X70898102Y-48204774D01*
X70709744Y-48282795D01*
X70540226Y-48396063D01*
X70500000Y-48436289D01*
X70359774Y-48296063D01*
X70190256Y-48182795D01*
X70001898Y-48104774D01*
X69801939Y-48065000D01*
X69598061Y-48065000D01*
X69398102Y-48104774D01*
X69209744Y-48182795D01*
X69040226Y-48296063D01*
X68922840Y-48413449D01*
X68901898Y-48404774D01*
X68701939Y-48365000D01*
X68498061Y-48365000D01*
X68298102Y-48404774D01*
X68109744Y-48482795D01*
X68099999Y-48489307D01*
X68090253Y-48482795D01*
X67901895Y-48404774D01*
X67701936Y-48365000D01*
X67498058Y-48365000D01*
X67298099Y-48404774D01*
X67109741Y-48482795D01*
X66940223Y-48596063D01*
X66796060Y-48740226D01*
X66689231Y-48900107D01*
X66689047Y-48899182D01*
X66611026Y-48710824D01*
X66497758Y-48541306D01*
X66353595Y-48397143D01*
X66184077Y-48283875D01*
X65995719Y-48205854D01*
X65795760Y-48166080D01*
X65591882Y-48166080D01*
X65391923Y-48205854D01*
X65203565Y-48283875D01*
X65202467Y-48284608D01*
X65184142Y-48272364D01*
X64995784Y-48194343D01*
X64795825Y-48154569D01*
X64591947Y-48154569D01*
X64391988Y-48194343D01*
X64203630Y-48272364D01*
X64096487Y-48343954D01*
X64001898Y-48304774D01*
X63801939Y-48265000D01*
X63598061Y-48265000D01*
X63398102Y-48304774D01*
X63209744Y-48382795D01*
X63200000Y-48389306D01*
X63190256Y-48382795D01*
X63001898Y-48304774D01*
X62801939Y-48265000D01*
X62598061Y-48265000D01*
X62398102Y-48304774D01*
X62209744Y-48382795D01*
X62150000Y-48422715D01*
X62090256Y-48382795D01*
X61901898Y-48304774D01*
X61701939Y-48265000D01*
X61498061Y-48265000D01*
X61298102Y-48304774D01*
X61109744Y-48382795D01*
X60940226Y-48496063D01*
X60796063Y-48640226D01*
X60682795Y-48809744D01*
X60629289Y-48938918D01*
X60617205Y-48909744D01*
X60503937Y-48740226D01*
X60359774Y-48596063D01*
X60190256Y-48482795D01*
X60001898Y-48404774D01*
X59801939Y-48365000D01*
X59598061Y-48365000D01*
X59398102Y-48404774D01*
X59209744Y-48482795D01*
X59200000Y-48489306D01*
X59190256Y-48482795D01*
X59001898Y-48404774D01*
X58801939Y-48365000D01*
X58598061Y-48365000D01*
X58398102Y-48404774D01*
X58209744Y-48482795D01*
X58150000Y-48522715D01*
X58090256Y-48482795D01*
X57901898Y-48404774D01*
X57701939Y-48365000D01*
X57498061Y-48365000D01*
X57298102Y-48404774D01*
X57109744Y-48482795D01*
X56940226Y-48596063D01*
X56796063Y-48740226D01*
X56682795Y-48909744D01*
X56604774Y-49098102D01*
X56565000Y-49298061D01*
X47560000Y-49298061D01*
X47560000Y-42319608D01*
X47589831Y-42289777D01*
X47829976Y-42677018D01*
X48323877Y-42937641D01*
X48859133Y-43096901D01*
X49415174Y-43148678D01*
X49970632Y-43090981D01*
X50504161Y-42926028D01*
X50970024Y-42677018D01*
X51210170Y-42289775D01*
X49400000Y-40479605D01*
X49385858Y-40493748D01*
X49206253Y-40314143D01*
X49220395Y-40300000D01*
X49206253Y-40285858D01*
X49385858Y-40106253D01*
X49400000Y-40120395D01*
X49414143Y-40106253D01*
X49593748Y-40285858D01*
X49579605Y-40300000D01*
X51389775Y-42110170D01*
X51777018Y-41870024D01*
X52037641Y-41376123D01*
X52196901Y-40840867D01*
X52248678Y-40284826D01*
X52190981Y-39729368D01*
X52026028Y-39195839D01*
X51777018Y-38729976D01*
X51389777Y-38489831D01*
X51419608Y-38460000D01*
X87780392Y-38460000D01*
X87810223Y-38489831D01*
%TA.AperFunction,Conductor*%
D20*
G36*
X87810223Y-38489831D02*
G01*
X87422982Y-38729976D01*
X87162359Y-39223877D01*
X87003099Y-39759133D01*
X86951322Y-40315174D01*
X87009019Y-40870632D01*
X87173972Y-41404161D01*
X87422982Y-41870024D01*
X87810225Y-42110170D01*
X89620395Y-40300000D01*
X89606253Y-40285858D01*
X89785858Y-40106253D01*
X89800000Y-40120395D01*
X89814143Y-40106253D01*
X89993748Y-40285858D01*
X89979605Y-40300000D01*
X89993748Y-40314143D01*
X89814143Y-40493748D01*
X89800000Y-40479605D01*
X87989830Y-42289775D01*
X88229976Y-42677018D01*
X88723877Y-42937641D01*
X89259133Y-43096901D01*
X89815174Y-43148678D01*
X90370632Y-43090981D01*
X90904161Y-42926028D01*
X91370024Y-42677018D01*
X91610169Y-42289777D01*
X91640000Y-42319608D01*
X91640001Y-124180391D01*
X91610169Y-124210223D01*
X91370024Y-123822982D01*
X90876123Y-123562359D01*
X90340867Y-123403099D01*
X89784826Y-123351322D01*
X89229368Y-123409019D01*
X88695839Y-123573972D01*
X88229976Y-123822982D01*
X87989830Y-124210225D01*
X89800000Y-126020395D01*
X89814143Y-126006253D01*
X89993748Y-126185858D01*
X89979605Y-126200000D01*
X89993748Y-126214143D01*
X89814143Y-126393748D01*
X89800000Y-126379605D01*
X89785858Y-126393748D01*
X89606253Y-126214143D01*
X89620395Y-126200000D01*
X87810225Y-124389830D01*
X87422982Y-124629976D01*
X87162359Y-125123877D01*
X87003099Y-125659133D01*
X86951322Y-126215174D01*
X87009019Y-126770632D01*
X87173972Y-127304161D01*
X87422982Y-127770024D01*
X87810223Y-128010169D01*
X87780392Y-128040000D01*
X51419608Y-128040000D01*
X51389777Y-128010169D01*
X51777018Y-127770024D01*
X52037641Y-127276123D01*
X52196901Y-126740867D01*
X52248678Y-126184826D01*
X52190981Y-125629368D01*
X52026028Y-125095839D01*
X51777018Y-124629976D01*
X51389775Y-124389830D01*
X49579605Y-126200000D01*
X49593748Y-126214143D01*
X49414143Y-126393748D01*
X49400000Y-126379605D01*
X49385858Y-126393748D01*
X49206253Y-126214143D01*
X49220395Y-126200000D01*
X49206253Y-126185858D01*
X49385858Y-126006253D01*
X49400000Y-126020395D01*
X51210170Y-124210225D01*
X50970024Y-123822982D01*
X50476123Y-123562359D01*
X49940867Y-123403099D01*
X49384826Y-123351322D01*
X48829368Y-123409019D01*
X48295839Y-123573972D01*
X47829976Y-123822982D01*
X47589831Y-124210223D01*
X47560000Y-124180392D01*
X47560000Y-68947401D01*
X53261233Y-68947401D01*
X53264909Y-68984723D01*
X53264910Y-110287576D01*
X53261233Y-110324909D01*
X53264910Y-110362242D01*
X53275907Y-110473895D01*
X53284103Y-110500913D01*
X53319363Y-110617155D01*
X53389935Y-110749185D01*
X53446318Y-110817887D01*
X53484909Y-110864910D01*
X53513907Y-110888708D01*
X59607615Y-116982417D01*
X59590000Y-117070976D01*
X59590000Y-117329024D01*
X59640342Y-117582113D01*
X59739093Y-117820518D01*
X59882456Y-118035077D01*
X60064923Y-118217544D01*
X60279482Y-118360907D01*
X60517887Y-118459658D01*
X60770976Y-118510000D01*
X61029024Y-118510000D01*
X61282113Y-118459658D01*
X61520518Y-118360907D01*
X61735077Y-118217544D01*
X61900000Y-118052621D01*
X62064923Y-118217544D01*
X62279482Y-118360907D01*
X62517887Y-118459658D01*
X62770976Y-118510000D01*
X63029024Y-118510000D01*
X63282113Y-118459658D01*
X63520518Y-118360907D01*
X63735077Y-118217544D01*
X63917544Y-118035077D01*
X64060907Y-117820518D01*
X64159658Y-117582113D01*
X64210000Y-117329024D01*
X64210000Y-117070976D01*
X64192385Y-116982417D01*
X69661003Y-111513799D01*
X69690001Y-111490001D01*
X69784974Y-111374276D01*
X69855546Y-111242247D01*
X69899003Y-111098986D01*
X69910000Y-110987333D01*
X69910000Y-110987325D01*
X69913676Y-110950000D01*
X69910000Y-110912675D01*
X69910000Y-110384801D01*
X76507615Y-116982417D01*
X76490000Y-117070976D01*
X76490000Y-117329024D01*
X76540342Y-117582113D01*
X76639093Y-117820518D01*
X76782456Y-118035077D01*
X76964923Y-118217544D01*
X77179482Y-118360907D01*
X77417887Y-118459658D01*
X77670976Y-118510000D01*
X77929024Y-118510000D01*
X78182113Y-118459658D01*
X78420518Y-118360907D01*
X78635077Y-118217544D01*
X78800000Y-118052621D01*
X78964923Y-118217544D01*
X79179482Y-118360907D01*
X79417887Y-118459658D01*
X79670976Y-118510000D01*
X79929024Y-118510000D01*
X80182113Y-118459658D01*
X80420518Y-118360907D01*
X80635077Y-118217544D01*
X80817544Y-118035077D01*
X80960907Y-117820518D01*
X81059658Y-117582113D01*
X81110000Y-117329024D01*
X81110000Y-117070976D01*
X81092385Y-116982417D01*
X86261089Y-111813713D01*
X86290086Y-111789916D01*
X86352654Y-111713677D01*
X86385059Y-111674192D01*
X86455631Y-111542162D01*
X86455631Y-111542161D01*
X86499088Y-111398901D01*
X86510085Y-111287248D01*
X86510085Y-111287238D01*
X86513761Y-111249915D01*
X86510085Y-111212592D01*
X86510085Y-70487418D01*
X86513762Y-70450085D01*
X86499088Y-70301099D01*
X86455631Y-70157838D01*
X86385059Y-70025809D01*
X86313884Y-69939082D01*
X86290086Y-69910084D01*
X86261088Y-69886286D01*
X81910000Y-65535199D01*
X81910000Y-58026607D01*
X81925812Y-57974482D01*
X81938072Y-57850000D01*
X81938072Y-56250000D01*
X81925812Y-56125518D01*
X81889502Y-56005820D01*
X81830537Y-55895506D01*
X81751185Y-55798815D01*
X81654494Y-55719463D01*
X81544180Y-55660498D01*
X81424482Y-55624188D01*
X81300000Y-55611928D01*
X81000000Y-55611928D01*
X80900000Y-55621777D01*
X80800000Y-55611928D01*
X80500000Y-55611928D01*
X80400000Y-55621777D01*
X80300000Y-55611928D01*
X80000000Y-55611928D01*
X79900000Y-55621777D01*
X79800000Y-55611928D01*
X79500000Y-55611928D01*
X79400000Y-55621777D01*
X79300000Y-55611928D01*
X79000000Y-55611928D01*
X78875518Y-55624188D01*
X78875000Y-55624345D01*
X78874482Y-55624188D01*
X78750000Y-55611928D01*
X78685750Y-55615000D01*
X78527000Y-55773750D01*
X78527000Y-55825397D01*
X78469463Y-55895506D01*
X78410498Y-56005820D01*
X78400000Y-56040427D01*
X78389502Y-56005820D01*
X78330537Y-55895506D01*
X78273000Y-55825397D01*
X78273000Y-55773750D01*
X78114250Y-55615000D01*
X78050000Y-55611928D01*
X77925518Y-55624188D01*
X77925000Y-55624345D01*
X77924482Y-55624188D01*
X77800000Y-55611928D01*
X77500000Y-55611928D01*
X77400000Y-55621777D01*
X77300000Y-55611928D01*
X77000000Y-55611928D01*
X76900000Y-55621777D01*
X76800000Y-55611928D01*
X76500000Y-55611928D01*
X76400000Y-55621777D01*
X76300000Y-55611928D01*
X76000000Y-55611928D01*
X75900000Y-55621777D01*
X75800000Y-55611928D01*
X75500000Y-55611928D01*
X75400000Y-55621777D01*
X75300000Y-55611928D01*
X75000000Y-55611928D01*
X74900000Y-55621777D01*
X74800000Y-55611928D01*
X74500000Y-55611928D01*
X74400000Y-55621777D01*
X74300000Y-55611928D01*
X74000000Y-55611928D01*
X73900000Y-55621777D01*
X73800000Y-55611928D01*
X73500000Y-55611928D01*
X73400000Y-55621777D01*
X73300000Y-55611928D01*
X73000000Y-55611928D01*
X72875518Y-55624188D01*
X72875000Y-55624345D01*
X72874482Y-55624188D01*
X72750000Y-55611928D01*
X72685750Y-55615000D01*
X72527000Y-55773750D01*
X72527000Y-55825397D01*
X72469463Y-55895506D01*
X72410498Y-56005820D01*
X72400000Y-56040427D01*
X72389502Y-56005820D01*
X72330537Y-55895506D01*
X72273000Y-55825397D01*
X72273000Y-55773750D01*
X72114250Y-55615000D01*
X72050000Y-55611928D01*
X71925518Y-55624188D01*
X71925000Y-55624345D01*
X71924482Y-55624188D01*
X71800000Y-55611928D01*
X71500000Y-55611928D01*
X71400000Y-55621777D01*
X71300000Y-55611928D01*
X71000000Y-55611928D01*
X70900000Y-55621777D01*
X70800000Y-55611928D01*
X70500000Y-55611928D01*
X70400000Y-55621777D01*
X70300000Y-55611928D01*
X70000000Y-55611928D01*
X69900000Y-55621777D01*
X69800000Y-55611928D01*
X69500000Y-55611928D01*
X69400000Y-55621777D01*
X69300000Y-55611928D01*
X69000000Y-55611928D01*
X68900000Y-55621777D01*
X68800000Y-55611928D01*
X68500000Y-55611928D01*
X68400000Y-55621777D01*
X68300000Y-55611928D01*
X68000000Y-55611928D01*
X67900000Y-55621777D01*
X67800000Y-55611928D01*
X67500000Y-55611928D01*
X67400000Y-55621777D01*
X67300000Y-55611928D01*
X67000000Y-55611928D01*
X66875518Y-55624188D01*
X66875000Y-55624345D01*
X66874482Y-55624188D01*
X66750000Y-55611928D01*
X66685750Y-55615000D01*
X66527000Y-55773750D01*
X66527000Y-55825397D01*
X66469463Y-55895506D01*
X66410498Y-56005820D01*
X66400000Y-56040427D01*
X66389502Y-56005820D01*
X66330537Y-55895506D01*
X66273000Y-55825397D01*
X66273000Y-55773750D01*
X66114250Y-55615000D01*
X66050000Y-55611928D01*
X65925518Y-55624188D01*
X65925000Y-55624345D01*
X65924482Y-55624188D01*
X65800000Y-55611928D01*
X65500000Y-55611928D01*
X65400000Y-55621777D01*
X65300000Y-55611928D01*
X65000000Y-55611928D01*
X64900000Y-55621777D01*
X64800000Y-55611928D01*
X64500000Y-55611928D01*
X64400000Y-55621777D01*
X64300000Y-55611928D01*
X64000000Y-55611928D01*
X63900000Y-55621777D01*
X63800000Y-55611928D01*
X63500000Y-55611928D01*
X63400000Y-55621777D01*
X63300000Y-55611928D01*
X63000000Y-55611928D01*
X62900000Y-55621777D01*
X62800000Y-55611928D01*
X62500000Y-55611928D01*
X62400000Y-55621777D01*
X62300000Y-55611928D01*
X62000000Y-55611928D01*
X61900000Y-55621777D01*
X61800000Y-55611928D01*
X61500000Y-55611928D01*
X61400000Y-55621777D01*
X61300000Y-55611928D01*
X61000000Y-55611928D01*
X60875518Y-55624188D01*
X60875000Y-55624345D01*
X60874482Y-55624188D01*
X60750000Y-55611928D01*
X60685750Y-55615000D01*
X60527000Y-55773750D01*
X60527000Y-55825397D01*
X60469463Y-55895506D01*
X60410498Y-56005820D01*
X60400000Y-56040427D01*
X60389502Y-56005820D01*
X60330537Y-55895506D01*
X60273000Y-55825397D01*
X60273000Y-55773750D01*
X60114250Y-55615000D01*
X60050000Y-55611928D01*
X59925518Y-55624188D01*
X59925000Y-55624345D01*
X59924482Y-55624188D01*
X59800000Y-55611928D01*
X59500000Y-55611928D01*
X59400000Y-55621777D01*
X59300000Y-55611928D01*
X59000000Y-55611928D01*
X58900000Y-55621777D01*
X58800000Y-55611928D01*
X58500000Y-55611928D01*
X58400000Y-55621777D01*
X58300000Y-55611928D01*
X58000000Y-55611928D01*
X57900000Y-55621777D01*
X57800000Y-55611928D01*
X57500000Y-55611928D01*
X57375518Y-55624188D01*
X57255820Y-55660498D01*
X57145506Y-55719463D01*
X57048815Y-55798815D01*
X56969463Y-55895506D01*
X56910498Y-56005820D01*
X56874188Y-56125518D01*
X56861928Y-56250000D01*
X56861928Y-57850000D01*
X56874188Y-57974482D01*
X56890000Y-58026608D01*
X56890001Y-65007507D01*
X53513912Y-68383597D01*
X53484908Y-68407400D01*
X53450774Y-68448993D01*
X53389935Y-68523125D01*
X53364167Y-68571334D01*
X53319363Y-68655155D01*
X53275906Y-68798416D01*
X53264909Y-68910069D01*
X53264909Y-68910079D01*
X53261233Y-68947401D01*
X47560000Y-68947401D01*
X47560000Y-55550000D01*
X53011928Y-55550000D01*
X53024188Y-55674482D01*
X53060498Y-55794180D01*
X53119463Y-55904494D01*
X53198815Y-56001185D01*
X53295506Y-56080537D01*
X53405820Y-56139502D01*
X53525518Y-56175812D01*
X53650000Y-56188072D01*
X54164250Y-56185000D01*
X54323000Y-56026250D01*
X54323000Y-54127000D01*
X53173750Y-54127000D01*
X53015000Y-54285750D01*
X53011928Y-55550000D01*
X47560000Y-55550000D01*
X47560000Y-52450000D01*
X53011928Y-52450000D01*
X53015000Y-53714250D01*
X53173750Y-53873000D01*
X54323000Y-53873000D01*
X54323000Y-51973750D01*
X54577000Y-51973750D01*
X54577000Y-53873000D01*
X54597000Y-53873000D01*
X54597000Y-54127000D01*
X54577000Y-54127000D01*
X54577000Y-56026250D01*
X54735750Y-56185000D01*
X55250000Y-56188072D01*
X55374482Y-56175812D01*
X55494180Y-56139502D01*
X55604494Y-56080537D01*
X55701185Y-56001185D01*
X55780537Y-55904494D01*
X55839502Y-55794180D01*
X55875812Y-55674482D01*
X55888072Y-55550000D01*
X55887090Y-55145974D01*
X56083288Y-55185000D01*
X56316712Y-55185000D01*
X56545652Y-55139461D01*
X56761308Y-55050134D01*
X56955394Y-54920450D01*
X57120450Y-54755394D01*
X57250134Y-54561308D01*
X57339461Y-54345652D01*
X57385000Y-54116712D01*
X57385000Y-53883288D01*
X57339461Y-53654348D01*
X57250134Y-53438692D01*
X57120450Y-53244606D01*
X56955394Y-53079550D01*
X56761308Y-52949866D01*
X56545652Y-52860539D01*
X56316712Y-52815000D01*
X56083288Y-52815000D01*
X55887090Y-52854026D01*
X55888072Y-52450000D01*
X55875812Y-52325518D01*
X55839502Y-52205820D01*
X55780537Y-52095506D01*
X55701185Y-51998815D01*
X55604494Y-51919463D01*
X55494180Y-51860498D01*
X55374482Y-51824188D01*
X55250000Y-51811928D01*
X54735750Y-51815000D01*
X54577000Y-51973750D01*
X54323000Y-51973750D01*
X54164250Y-51815000D01*
X53650000Y-51811928D01*
X53525518Y-51824188D01*
X53405820Y-51860498D01*
X53295506Y-51919463D01*
X53198815Y-51998815D01*
X53119463Y-52095506D01*
X53060498Y-52205820D01*
X53024188Y-52325518D01*
X53011928Y-52450000D01*
X47560000Y-52450000D01*
X47560000Y-49298061D01*
X56565000Y-49298061D01*
X56565000Y-49501939D01*
X56604774Y-49701898D01*
X56682795Y-49890256D01*
X56796063Y-50059774D01*
X56840000Y-50103711D01*
X56840001Y-50862668D01*
X56836324Y-50900000D01*
X56850998Y-51048985D01*
X56861928Y-51085018D01*
X56861928Y-51750000D01*
X56874188Y-51874482D01*
X56910498Y-51994180D01*
X56969463Y-52104494D01*
X57048815Y-52201185D01*
X57120537Y-52260046D01*
X57104774Y-52298102D01*
X57065000Y-52498061D01*
X57065000Y-52701939D01*
X57104774Y-52901898D01*
X57182795Y-53090256D01*
X57296063Y-53259774D01*
X57440226Y-53403937D01*
X57609744Y-53517205D01*
X57798102Y-53595226D01*
X57998061Y-53635000D01*
X58201939Y-53635000D01*
X58401898Y-53595226D01*
X58590256Y-53517205D01*
X58650000Y-53477285D01*
X58709744Y-53517205D01*
X58898102Y-53595226D01*
X59098061Y-53635000D01*
X59301939Y-53635000D01*
X59501898Y-53595226D01*
X59690256Y-53517205D01*
X59859774Y-53403937D01*
X60003937Y-53259774D01*
X60117205Y-53090256D01*
X60150000Y-53011082D01*
X60182795Y-53090256D01*
X60296063Y-53259774D01*
X60440226Y-53403937D01*
X60609744Y-53517205D01*
X60798102Y-53595226D01*
X60998061Y-53635000D01*
X61201939Y-53635000D01*
X61401898Y-53595226D01*
X61590256Y-53517205D01*
X61600000Y-53510694D01*
X61609744Y-53517205D01*
X61798102Y-53595226D01*
X61998061Y-53635000D01*
X62201939Y-53635000D01*
X62401898Y-53595226D01*
X62590256Y-53517205D01*
X62600000Y-53510694D01*
X62609744Y-53517205D01*
X62798102Y-53595226D01*
X62998061Y-53635000D01*
X63201939Y-53635000D01*
X63401898Y-53595226D01*
X63590256Y-53517205D01*
X63650000Y-53477285D01*
X63709744Y-53517205D01*
X63898102Y-53595226D01*
X64098061Y-53635000D01*
X64301939Y-53635000D01*
X64501898Y-53595226D01*
X64690256Y-53517205D01*
X64700002Y-53510693D01*
X64709747Y-53517205D01*
X64898105Y-53595226D01*
X65098064Y-53635000D01*
X65301942Y-53635000D01*
X65501901Y-53595226D01*
X65690259Y-53517205D01*
X65859777Y-53403937D01*
X66003940Y-53259774D01*
X66117208Y-53090256D01*
X66170712Y-52961086D01*
X66182795Y-52990256D01*
X66296063Y-53159774D01*
X66440226Y-53303937D01*
X66609744Y-53417205D01*
X66798102Y-53495226D01*
X66998061Y-53535000D01*
X67201939Y-53535000D01*
X67401898Y-53495226D01*
X67590256Y-53417205D01*
X67600000Y-53410694D01*
X67609744Y-53417205D01*
X67798102Y-53495226D01*
X67998061Y-53535000D01*
X68201939Y-53535000D01*
X68401898Y-53495226D01*
X68590256Y-53417205D01*
X68600000Y-53410694D01*
X68609744Y-53417205D01*
X68798102Y-53495226D01*
X68998061Y-53535000D01*
X69201939Y-53535000D01*
X69401898Y-53495226D01*
X69590256Y-53417205D01*
X69600000Y-53410694D01*
X69609744Y-53417205D01*
X69798102Y-53495226D01*
X69998061Y-53535000D01*
X70201939Y-53535000D01*
X70401898Y-53495226D01*
X70590256Y-53417205D01*
X70600000Y-53410694D01*
X70609744Y-53417205D01*
X70798102Y-53495226D01*
X70998061Y-53535000D01*
X71201939Y-53535000D01*
X71401898Y-53495226D01*
X71590256Y-53417205D01*
X71759774Y-53303937D01*
X71903937Y-53159774D01*
X72017205Y-52990256D01*
X72095226Y-52801898D01*
X72135000Y-52601939D01*
X72135000Y-52398061D01*
X72129390Y-52369860D01*
X72207338Y-52291912D01*
X72204774Y-52298102D01*
X72165000Y-52498061D01*
X72165000Y-52701939D01*
X72204774Y-52901898D01*
X72282795Y-53090256D01*
X72396063Y-53259774D01*
X72540226Y-53403937D01*
X72709744Y-53517205D01*
X72898102Y-53595226D01*
X73098061Y-53635000D01*
X73301939Y-53635000D01*
X73501898Y-53595226D01*
X73690256Y-53517205D01*
X73700000Y-53510694D01*
X73709744Y-53517205D01*
X73898102Y-53595226D01*
X74098061Y-53635000D01*
X74301939Y-53635000D01*
X74501898Y-53595226D01*
X74690256Y-53517205D01*
X74700002Y-53510693D01*
X74709747Y-53517205D01*
X74898105Y-53595226D01*
X75098064Y-53635000D01*
X75301942Y-53635000D01*
X75501901Y-53595226D01*
X75671631Y-53524921D01*
X75809744Y-53617205D01*
X75998102Y-53695226D01*
X76198061Y-53735000D01*
X76401939Y-53735000D01*
X76601898Y-53695226D01*
X76790256Y-53617205D01*
X76843741Y-53581468D01*
X76896063Y-53659774D01*
X77040226Y-53803937D01*
X77209744Y-53917205D01*
X77398102Y-53995226D01*
X77598061Y-54035000D01*
X77801939Y-54035000D01*
X78001898Y-53995226D01*
X78190256Y-53917205D01*
X78350000Y-53810468D01*
X78509744Y-53917205D01*
X78698102Y-53995226D01*
X78898061Y-54035000D01*
X79101939Y-54035000D01*
X79301898Y-53995226D01*
X79409898Y-53950490D01*
X79509744Y-54017205D01*
X79698102Y-54095226D01*
X79898061Y-54135000D01*
X80101939Y-54135000D01*
X80301898Y-54095226D01*
X80490256Y-54017205D01*
X80528164Y-53991875D01*
X80540226Y-54003937D01*
X80709744Y-54117205D01*
X80898102Y-54195226D01*
X81098061Y-54235000D01*
X81301939Y-54235000D01*
X81384291Y-54218619D01*
X81412460Y-54360236D01*
X81505557Y-54584992D01*
X81640713Y-54787267D01*
X81812733Y-54959287D01*
X82015008Y-55094443D01*
X82239764Y-55187540D01*
X82478363Y-55235000D01*
X82721637Y-55235000D01*
X82912786Y-55196978D01*
X82911928Y-55550000D01*
X82924188Y-55674482D01*
X82960498Y-55794180D01*
X83019463Y-55904494D01*
X83098815Y-56001185D01*
X83195506Y-56080537D01*
X83305820Y-56139502D01*
X83425518Y-56175812D01*
X83550000Y-56188072D01*
X84064250Y-56185000D01*
X84223000Y-56026250D01*
X84223000Y-54127000D01*
X84477000Y-54127000D01*
X84477000Y-56026250D01*
X84635750Y-56185000D01*
X85150000Y-56188072D01*
X85274482Y-56175812D01*
X85394180Y-56139502D01*
X85504494Y-56080537D01*
X85601185Y-56001185D01*
X85680537Y-55904494D01*
X85739502Y-55794180D01*
X85775812Y-55674482D01*
X85788072Y-55550000D01*
X85785000Y-54285750D01*
X85626250Y-54127000D01*
X84477000Y-54127000D01*
X84223000Y-54127000D01*
X84203000Y-54127000D01*
X84203000Y-53873000D01*
X84223000Y-53873000D01*
X84223000Y-51973750D01*
X84477000Y-51973750D01*
X84477000Y-53873000D01*
X85626250Y-53873000D01*
X85785000Y-53714250D01*
X85788072Y-52450000D01*
X85775812Y-52325518D01*
X85739502Y-52205820D01*
X85680537Y-52095506D01*
X85601185Y-51998815D01*
X85504494Y-51919463D01*
X85394180Y-51860498D01*
X85274482Y-51824188D01*
X85150000Y-51811928D01*
X84635750Y-51815000D01*
X84477000Y-51973750D01*
X84223000Y-51973750D01*
X84064250Y-51815000D01*
X83550000Y-51811928D01*
X83425518Y-51824188D01*
X83305820Y-51860498D01*
X83195506Y-51919463D01*
X83098815Y-51998815D01*
X83019463Y-52095506D01*
X82960498Y-52205820D01*
X82924188Y-52325518D01*
X82911928Y-52450000D01*
X82912786Y-52803022D01*
X82721637Y-52765000D01*
X82478363Y-52765000D01*
X82239764Y-52812460D01*
X82171469Y-52840749D01*
X82117205Y-52709744D01*
X82003937Y-52540226D01*
X81960000Y-52496289D01*
X81960000Y-51037325D01*
X81963676Y-51000000D01*
X81960000Y-50962675D01*
X81960000Y-50962667D01*
X81949003Y-50851014D01*
X81938072Y-50814979D01*
X81938072Y-50150000D01*
X81925812Y-50025518D01*
X81905420Y-49958294D01*
X82003940Y-49859774D01*
X82117208Y-49690256D01*
X82195229Y-49501898D01*
X82235003Y-49301939D01*
X82235003Y-49098061D01*
X82195229Y-48898102D01*
X82117208Y-48709744D01*
X82003940Y-48540226D01*
X81859777Y-48396063D01*
X81690259Y-48282795D01*
X81501901Y-48204774D01*
X81301942Y-48165000D01*
X81098064Y-48165000D01*
X80898105Y-48204774D01*
X80807543Y-48242286D01*
X80682536Y-48158760D01*
X80494178Y-48080739D01*
X80294219Y-48040965D01*
X80090341Y-48040965D01*
X79890382Y-48080739D01*
X79702024Y-48158760D01*
X79582927Y-48238338D01*
X79501898Y-48204774D01*
X79301939Y-48165000D01*
X79098061Y-48165000D01*
X78898102Y-48204774D01*
X78709744Y-48282795D01*
X78540226Y-48396063D01*
X78496289Y-48440000D01*
X78387322Y-48440000D01*
X78349999Y-48436324D01*
X78312676Y-48440000D01*
X78312667Y-48440000D01*
X78201014Y-48450997D01*
X78057753Y-48494454D01*
X77992856Y-48529142D01*
X77859777Y-48396063D01*
X77690259Y-48282795D01*
X77501901Y-48204774D01*
X77301942Y-48165000D01*
X77098064Y-48165000D01*
X76898105Y-48204774D01*
X76709747Y-48282795D01*
X76700002Y-48289307D01*
X76690256Y-48282795D01*
X76501898Y-48204774D01*
X76301939Y-48165000D01*
X76098061Y-48165000D01*
X75898102Y-48204774D01*
X75709744Y-48282795D01*
X75700000Y-48289306D01*
X75690256Y-48282795D01*
X75501898Y-48204774D01*
X75301939Y-48165000D01*
X75098061Y-48165000D01*
X74898102Y-48204774D01*
X74709744Y-48282795D01*
X74700000Y-48289306D01*
X74690256Y-48282795D01*
X74501898Y-48204774D01*
X74301939Y-48165000D01*
X74098061Y-48165000D01*
X73898102Y-48204774D01*
X73709744Y-48282795D01*
X73700000Y-48289306D01*
X73690256Y-48282795D01*
X73501898Y-48204774D01*
X73301939Y-48165000D01*
X73098061Y-48165000D01*
X72898102Y-48204774D01*
X72709744Y-48282795D01*
X72540226Y-48396063D01*
X72496289Y-48440000D01*
X72387322Y-48440000D01*
X72349999Y-48436324D01*
X72312676Y-48440000D01*
X72312667Y-48440000D01*
X72201014Y-48450997D01*
X72057753Y-48494454D01*
X71992854Y-48529143D01*
X71859774Y-48396063D01*
X71690256Y-48282795D01*
X71501898Y-48204774D01*
X71301939Y-48165000D01*
X71098061Y-48165000D01*
X70898102Y-48204774D01*
X70709744Y-48282795D01*
X70540226Y-48396063D01*
X70500000Y-48436289D01*
X70359774Y-48296063D01*
X70190256Y-48182795D01*
X70001898Y-48104774D01*
X69801939Y-48065000D01*
X69598061Y-48065000D01*
X69398102Y-48104774D01*
X69209744Y-48182795D01*
X69040226Y-48296063D01*
X68922840Y-48413449D01*
X68901898Y-48404774D01*
X68701939Y-48365000D01*
X68498061Y-48365000D01*
X68298102Y-48404774D01*
X68109744Y-48482795D01*
X68099999Y-48489307D01*
X68090253Y-48482795D01*
X67901895Y-48404774D01*
X67701936Y-48365000D01*
X67498058Y-48365000D01*
X67298099Y-48404774D01*
X67109741Y-48482795D01*
X66940223Y-48596063D01*
X66796060Y-48740226D01*
X66689231Y-48900107D01*
X66689047Y-48899182D01*
X66611026Y-48710824D01*
X66497758Y-48541306D01*
X66353595Y-48397143D01*
X66184077Y-48283875D01*
X65995719Y-48205854D01*
X65795760Y-48166080D01*
X65591882Y-48166080D01*
X65391923Y-48205854D01*
X65203565Y-48283875D01*
X65202467Y-48284608D01*
X65184142Y-48272364D01*
X64995784Y-48194343D01*
X64795825Y-48154569D01*
X64591947Y-48154569D01*
X64391988Y-48194343D01*
X64203630Y-48272364D01*
X64096487Y-48343954D01*
X64001898Y-48304774D01*
X63801939Y-48265000D01*
X63598061Y-48265000D01*
X63398102Y-48304774D01*
X63209744Y-48382795D01*
X63200000Y-48389306D01*
X63190256Y-48382795D01*
X63001898Y-48304774D01*
X62801939Y-48265000D01*
X62598061Y-48265000D01*
X62398102Y-48304774D01*
X62209744Y-48382795D01*
X62150000Y-48422715D01*
X62090256Y-48382795D01*
X61901898Y-48304774D01*
X61701939Y-48265000D01*
X61498061Y-48265000D01*
X61298102Y-48304774D01*
X61109744Y-48382795D01*
X60940226Y-48496063D01*
X60796063Y-48640226D01*
X60682795Y-48809744D01*
X60629289Y-48938918D01*
X60617205Y-48909744D01*
X60503937Y-48740226D01*
X60359774Y-48596063D01*
X60190256Y-48482795D01*
X60001898Y-48404774D01*
X59801939Y-48365000D01*
X59598061Y-48365000D01*
X59398102Y-48404774D01*
X59209744Y-48482795D01*
X59200000Y-48489306D01*
X59190256Y-48482795D01*
X59001898Y-48404774D01*
X58801939Y-48365000D01*
X58598061Y-48365000D01*
X58398102Y-48404774D01*
X58209744Y-48482795D01*
X58150000Y-48522715D01*
X58090256Y-48482795D01*
X57901898Y-48404774D01*
X57701939Y-48365000D01*
X57498061Y-48365000D01*
X57298102Y-48404774D01*
X57109744Y-48482795D01*
X56940226Y-48596063D01*
X56796063Y-48740226D01*
X56682795Y-48909744D01*
X56604774Y-49098102D01*
X56565000Y-49298061D01*
X47560000Y-49298061D01*
X47560000Y-42319608D01*
X47589831Y-42289777D01*
X47829976Y-42677018D01*
X48323877Y-42937641D01*
X48859133Y-43096901D01*
X49415174Y-43148678D01*
X49970632Y-43090981D01*
X50504161Y-42926028D01*
X50970024Y-42677018D01*
X51210170Y-42289775D01*
X49400000Y-40479605D01*
X49385858Y-40493748D01*
X49206253Y-40314143D01*
X49220395Y-40300000D01*
X49206253Y-40285858D01*
X49385858Y-40106253D01*
X49400000Y-40120395D01*
X49414143Y-40106253D01*
X49593748Y-40285858D01*
X49579605Y-40300000D01*
X51389775Y-42110170D01*
X51777018Y-41870024D01*
X52037641Y-41376123D01*
X52196901Y-40840867D01*
X52248678Y-40284826D01*
X52190981Y-39729368D01*
X52026028Y-39195839D01*
X51777018Y-38729976D01*
X51389777Y-38489831D01*
X51419608Y-38460000D01*
X87780392Y-38460000D01*
X87810223Y-38489831D01*
G37*
%TD.AperFunction*%
D19*
X76436200Y-71911002D02*
X76459999Y-71940001D01*
X76575724Y-72034974D01*
X76707753Y-72105546D01*
X76851014Y-72149003D01*
X76962667Y-72160000D01*
X76962676Y-72160000D01*
X76999999Y-72163676D01*
X77037322Y-72160000D01*
X80285199Y-72160000D01*
X80552430Y-72427231D01*
X80420518Y-72339091D01*
X80182113Y-72240340D01*
X79929024Y-72189998D01*
X79670976Y-72189998D01*
X79417887Y-72240340D01*
X79179482Y-72339091D01*
X78997487Y-72460695D01*
X78926185Y-72373813D01*
X78829494Y-72294461D01*
X78719180Y-72235496D01*
X78599482Y-72199186D01*
X78475000Y-72186926D01*
X77125000Y-72186926D01*
X77000518Y-72199186D01*
X76880820Y-72235496D01*
X76770506Y-72294461D01*
X76673815Y-72373813D01*
X76594463Y-72470504D01*
X76535498Y-72580818D01*
X76499188Y-72700516D01*
X76486928Y-72824998D01*
X76486928Y-74174998D01*
X76499188Y-74299480D01*
X76535498Y-74419178D01*
X76594463Y-74529492D01*
X76673815Y-74626183D01*
X76760697Y-74697485D01*
X76639093Y-74879480D01*
X76540342Y-75117885D01*
X76490000Y-75370974D01*
X76490000Y-75629022D01*
X76540342Y-75882111D01*
X76639093Y-76120516D01*
X76782456Y-76335075D01*
X76947379Y-76499998D01*
X76782456Y-76664921D01*
X76639093Y-76879480D01*
X76540342Y-77117885D01*
X76490000Y-77370974D01*
X76490000Y-77629022D01*
X76540342Y-77882111D01*
X76639093Y-78120516D01*
X76782456Y-78335075D01*
X76947379Y-78499998D01*
X76782456Y-78664921D01*
X76639093Y-78879480D01*
X76540342Y-79117885D01*
X76490000Y-79370974D01*
X76490000Y-79629022D01*
X76540342Y-79882111D01*
X76639093Y-80120516D01*
X76782456Y-80335075D01*
X76947379Y-80499998D01*
X76782456Y-80664921D01*
X76639093Y-80879480D01*
X76540342Y-81117885D01*
X76490000Y-81370974D01*
X76490000Y-81629022D01*
X76540342Y-81882111D01*
X76639093Y-82120516D01*
X76782456Y-82335075D01*
X76947379Y-82499998D01*
X76782456Y-82664921D01*
X76639093Y-82879480D01*
X76540342Y-83117885D01*
X76490000Y-83370974D01*
X76490000Y-83629022D01*
X76540342Y-83882111D01*
X76639093Y-84120516D01*
X76782456Y-84335075D01*
X76947379Y-84499998D01*
X76782456Y-84664921D01*
X76639093Y-84879480D01*
X76540342Y-85117885D01*
X76490000Y-85370974D01*
X76490000Y-85629022D01*
X76540342Y-85882111D01*
X76639093Y-86120516D01*
X76782456Y-86335075D01*
X76947379Y-86499998D01*
X76782456Y-86664921D01*
X76639093Y-86879480D01*
X76540342Y-87117885D01*
X76490000Y-87370974D01*
X76490000Y-87629022D01*
X76540342Y-87882111D01*
X76639093Y-88120516D01*
X76782456Y-88335075D01*
X76947379Y-88499998D01*
X76782456Y-88664921D01*
X76639093Y-88879480D01*
X76540342Y-89117885D01*
X76490000Y-89370974D01*
X76490000Y-89629022D01*
X76540342Y-89882111D01*
X76639093Y-90120516D01*
X76782456Y-90335075D01*
X76947379Y-90499998D01*
X76782456Y-90664921D01*
X76639093Y-90879480D01*
X76540342Y-91117885D01*
X76490000Y-91370974D01*
X76490000Y-91629022D01*
X76540342Y-91882111D01*
X76639093Y-92120516D01*
X76782456Y-92335075D01*
X76964923Y-92517542D01*
X77179482Y-92660905D01*
X77417887Y-92759656D01*
X77670976Y-92809998D01*
X77929024Y-92809998D01*
X78182113Y-92759656D01*
X78420518Y-92660905D01*
X78635077Y-92517542D01*
X78800000Y-92352619D01*
X78964923Y-92517542D01*
X79179482Y-92660905D01*
X79417887Y-92759656D01*
X79670976Y-92809998D01*
X79929024Y-92809998D01*
X80182113Y-92759656D01*
X80420518Y-92660905D01*
X80635077Y-92517542D01*
X80817544Y-92335075D01*
X80940000Y-92151805D01*
X80940000Y-96985198D01*
X80017583Y-97907615D01*
X79929024Y-97890000D01*
X79670976Y-97890000D01*
X79417887Y-97940342D01*
X79179482Y-98039093D01*
X78997487Y-98160697D01*
X78926185Y-98073815D01*
X78829494Y-97994463D01*
X78719180Y-97935498D01*
X78599482Y-97899188D01*
X78475000Y-97886928D01*
X77125000Y-97886928D01*
X77000518Y-97899188D01*
X76880820Y-97935498D01*
X76770506Y-97994463D01*
X76673815Y-98073815D01*
X76594463Y-98170506D01*
X76535498Y-98280820D01*
X76499188Y-98400518D01*
X76497048Y-98422246D01*
X75910000Y-97835199D01*
X75910000Y-71384802D01*
X76436200Y-71911002D01*
%TA.AperFunction,Conductor*%
D20*
G36*
X76436200Y-71911002D02*
G01*
X76459999Y-71940001D01*
X76575724Y-72034974D01*
X76707753Y-72105546D01*
X76851014Y-72149003D01*
X76962667Y-72160000D01*
X76962676Y-72160000D01*
X76999999Y-72163676D01*
X77037322Y-72160000D01*
X80285199Y-72160000D01*
X80552430Y-72427231D01*
X80420518Y-72339091D01*
X80182113Y-72240340D01*
X79929024Y-72189998D01*
X79670976Y-72189998D01*
X79417887Y-72240340D01*
X79179482Y-72339091D01*
X78997487Y-72460695D01*
X78926185Y-72373813D01*
X78829494Y-72294461D01*
X78719180Y-72235496D01*
X78599482Y-72199186D01*
X78475000Y-72186926D01*
X77125000Y-72186926D01*
X77000518Y-72199186D01*
X76880820Y-72235496D01*
X76770506Y-72294461D01*
X76673815Y-72373813D01*
X76594463Y-72470504D01*
X76535498Y-72580818D01*
X76499188Y-72700516D01*
X76486928Y-72824998D01*
X76486928Y-74174998D01*
X76499188Y-74299480D01*
X76535498Y-74419178D01*
X76594463Y-74529492D01*
X76673815Y-74626183D01*
X76760697Y-74697485D01*
X76639093Y-74879480D01*
X76540342Y-75117885D01*
X76490000Y-75370974D01*
X76490000Y-75629022D01*
X76540342Y-75882111D01*
X76639093Y-76120516D01*
X76782456Y-76335075D01*
X76947379Y-76499998D01*
X76782456Y-76664921D01*
X76639093Y-76879480D01*
X76540342Y-77117885D01*
X76490000Y-77370974D01*
X76490000Y-77629022D01*
X76540342Y-77882111D01*
X76639093Y-78120516D01*
X76782456Y-78335075D01*
X76947379Y-78499998D01*
X76782456Y-78664921D01*
X76639093Y-78879480D01*
X76540342Y-79117885D01*
X76490000Y-79370974D01*
X76490000Y-79629022D01*
X76540342Y-79882111D01*
X76639093Y-80120516D01*
X76782456Y-80335075D01*
X76947379Y-80499998D01*
X76782456Y-80664921D01*
X76639093Y-80879480D01*
X76540342Y-81117885D01*
X76490000Y-81370974D01*
X76490000Y-81629022D01*
X76540342Y-81882111D01*
X76639093Y-82120516D01*
X76782456Y-82335075D01*
X76947379Y-82499998D01*
X76782456Y-82664921D01*
X76639093Y-82879480D01*
X76540342Y-83117885D01*
X76490000Y-83370974D01*
X76490000Y-83629022D01*
X76540342Y-83882111D01*
X76639093Y-84120516D01*
X76782456Y-84335075D01*
X76947379Y-84499998D01*
X76782456Y-84664921D01*
X76639093Y-84879480D01*
X76540342Y-85117885D01*
X76490000Y-85370974D01*
X76490000Y-85629022D01*
X76540342Y-85882111D01*
X76639093Y-86120516D01*
X76782456Y-86335075D01*
X76947379Y-86499998D01*
X76782456Y-86664921D01*
X76639093Y-86879480D01*
X76540342Y-87117885D01*
X76490000Y-87370974D01*
X76490000Y-87629022D01*
X76540342Y-87882111D01*
X76639093Y-88120516D01*
X76782456Y-88335075D01*
X76947379Y-88499998D01*
X76782456Y-88664921D01*
X76639093Y-88879480D01*
X76540342Y-89117885D01*
X76490000Y-89370974D01*
X76490000Y-89629022D01*
X76540342Y-89882111D01*
X76639093Y-90120516D01*
X76782456Y-90335075D01*
X76947379Y-90499998D01*
X76782456Y-90664921D01*
X76639093Y-90879480D01*
X76540342Y-91117885D01*
X76490000Y-91370974D01*
X76490000Y-91629022D01*
X76540342Y-91882111D01*
X76639093Y-92120516D01*
X76782456Y-92335075D01*
X76964923Y-92517542D01*
X77179482Y-92660905D01*
X77417887Y-92759656D01*
X77670976Y-92809998D01*
X77929024Y-92809998D01*
X78182113Y-92759656D01*
X78420518Y-92660905D01*
X78635077Y-92517542D01*
X78800000Y-92352619D01*
X78964923Y-92517542D01*
X79179482Y-92660905D01*
X79417887Y-92759656D01*
X79670976Y-92809998D01*
X79929024Y-92809998D01*
X80182113Y-92759656D01*
X80420518Y-92660905D01*
X80635077Y-92517542D01*
X80817544Y-92335075D01*
X80940000Y-92151805D01*
X80940000Y-96985198D01*
X80017583Y-97907615D01*
X79929024Y-97890000D01*
X79670976Y-97890000D01*
X79417887Y-97940342D01*
X79179482Y-98039093D01*
X78997487Y-98160697D01*
X78926185Y-98073815D01*
X78829494Y-97994463D01*
X78719180Y-97935498D01*
X78599482Y-97899188D01*
X78475000Y-97886928D01*
X77125000Y-97886928D01*
X77000518Y-97899188D01*
X76880820Y-97935498D01*
X76770506Y-97994463D01*
X76673815Y-98073815D01*
X76594463Y-98170506D01*
X76535498Y-98280820D01*
X76499188Y-98400518D01*
X76497048Y-98422246D01*
X75910000Y-97835199D01*
X75910000Y-71384802D01*
X76436200Y-71911002D01*
G37*
%TD.AperFunction*%
D19*
X63390001Y-97985031D02*
X63282113Y-97940342D01*
X63029024Y-97890000D01*
X62770976Y-97890000D01*
X62682417Y-97907615D01*
X62660000Y-97885199D01*
X62660000Y-92587926D01*
X62770976Y-92610000D01*
X63029024Y-92610000D01*
X63282113Y-92559658D01*
X63390001Y-92514969D01*
X63390001Y-97985031D01*
%TA.AperFunction,Conductor*%
D20*
G36*
X63390001Y-97985031D02*
G01*
X63282113Y-97940342D01*
X63029024Y-97890000D01*
X62770976Y-97890000D01*
X62682417Y-97907615D01*
X62660000Y-97885199D01*
X62660000Y-92587926D01*
X62770976Y-92610000D01*
X63029024Y-92610000D01*
X63282113Y-92559658D01*
X63390001Y-92514969D01*
X63390001Y-97985031D01*
G37*
%TD.AperFunction*%
D19*
X61140001Y-71986928D02*
X60225000Y-71986928D01*
X60100518Y-71999188D01*
X59980820Y-72035498D01*
X59870506Y-72094463D01*
X59773815Y-72173815D01*
X59694463Y-72270506D01*
X59635498Y-72380820D01*
X59599188Y-72500518D01*
X59586928Y-72625000D01*
X59586928Y-73975000D01*
X59599188Y-74099482D01*
X59635498Y-74219180D01*
X59694463Y-74329494D01*
X59773815Y-74426185D01*
X59860697Y-74497487D01*
X59739093Y-74679482D01*
X59640342Y-74917887D01*
X59590000Y-75170976D01*
X59590000Y-75429024D01*
X59640342Y-75682113D01*
X59739093Y-75920518D01*
X59882456Y-76135077D01*
X60047379Y-76300000D01*
X59882456Y-76464923D01*
X59739093Y-76679482D01*
X59640342Y-76917887D01*
X59590000Y-77170976D01*
X59590000Y-77429024D01*
X59640342Y-77682113D01*
X59739093Y-77920518D01*
X59882456Y-78135077D01*
X60047379Y-78300000D01*
X59882456Y-78464923D01*
X59739093Y-78679482D01*
X59640342Y-78917887D01*
X59590000Y-79170976D01*
X59590000Y-79429024D01*
X59640342Y-79682113D01*
X59739093Y-79920518D01*
X59882456Y-80135077D01*
X60047379Y-80300000D01*
X59882456Y-80464923D01*
X59739093Y-80679482D01*
X59640342Y-80917887D01*
X59590000Y-81170976D01*
X59590000Y-81429024D01*
X59640342Y-81682113D01*
X59739093Y-81920518D01*
X59882456Y-82135077D01*
X60047379Y-82300000D01*
X59882456Y-82464923D01*
X59739093Y-82679482D01*
X59640342Y-82917887D01*
X59590000Y-83170976D01*
X59590000Y-83429024D01*
X59640342Y-83682113D01*
X59739093Y-83920518D01*
X59882456Y-84135077D01*
X60047379Y-84300000D01*
X59882456Y-84464923D01*
X59739093Y-84679482D01*
X59640342Y-84917887D01*
X59590000Y-85170976D01*
X59590000Y-85429024D01*
X59640342Y-85682113D01*
X59739093Y-85920518D01*
X59882456Y-86135077D01*
X60047379Y-86300000D01*
X59882456Y-86464923D01*
X59739093Y-86679482D01*
X59640342Y-86917887D01*
X59590000Y-87170976D01*
X59590000Y-87429024D01*
X59640342Y-87682113D01*
X59739093Y-87920518D01*
X59882456Y-88135077D01*
X60047379Y-88300000D01*
X59882456Y-88464923D01*
X59739093Y-88679482D01*
X59640342Y-88917887D01*
X59590000Y-89170976D01*
X59590000Y-89429024D01*
X59640342Y-89682113D01*
X59739093Y-89920518D01*
X59882456Y-90135077D01*
X60047379Y-90300000D01*
X59882456Y-90464923D01*
X59739093Y-90679482D01*
X59640342Y-90917887D01*
X59590000Y-91170976D01*
X59590000Y-91429024D01*
X59640342Y-91682113D01*
X59739093Y-91920518D01*
X59882456Y-92135077D01*
X60064923Y-92317544D01*
X60279482Y-92460907D01*
X60517887Y-92559658D01*
X60770976Y-92610000D01*
X61029024Y-92610000D01*
X61140000Y-92587926D01*
X61140000Y-97886928D01*
X60661730Y-97886928D01*
X58834999Y-96060198D01*
X58834999Y-70939802D01*
X61140001Y-68634801D01*
X61140001Y-71986928D01*
%TA.AperFunction,Conductor*%
D20*
G36*
X61140001Y-71986928D02*
G01*
X60225000Y-71986928D01*
X60100518Y-71999188D01*
X59980820Y-72035498D01*
X59870506Y-72094463D01*
X59773815Y-72173815D01*
X59694463Y-72270506D01*
X59635498Y-72380820D01*
X59599188Y-72500518D01*
X59586928Y-72625000D01*
X59586928Y-73975000D01*
X59599188Y-74099482D01*
X59635498Y-74219180D01*
X59694463Y-74329494D01*
X59773815Y-74426185D01*
X59860697Y-74497487D01*
X59739093Y-74679482D01*
X59640342Y-74917887D01*
X59590000Y-75170976D01*
X59590000Y-75429024D01*
X59640342Y-75682113D01*
X59739093Y-75920518D01*
X59882456Y-76135077D01*
X60047379Y-76300000D01*
X59882456Y-76464923D01*
X59739093Y-76679482D01*
X59640342Y-76917887D01*
X59590000Y-77170976D01*
X59590000Y-77429024D01*
X59640342Y-77682113D01*
X59739093Y-77920518D01*
X59882456Y-78135077D01*
X60047379Y-78300000D01*
X59882456Y-78464923D01*
X59739093Y-78679482D01*
X59640342Y-78917887D01*
X59590000Y-79170976D01*
X59590000Y-79429024D01*
X59640342Y-79682113D01*
X59739093Y-79920518D01*
X59882456Y-80135077D01*
X60047379Y-80300000D01*
X59882456Y-80464923D01*
X59739093Y-80679482D01*
X59640342Y-80917887D01*
X59590000Y-81170976D01*
X59590000Y-81429024D01*
X59640342Y-81682113D01*
X59739093Y-81920518D01*
X59882456Y-82135077D01*
X60047379Y-82300000D01*
X59882456Y-82464923D01*
X59739093Y-82679482D01*
X59640342Y-82917887D01*
X59590000Y-83170976D01*
X59590000Y-83429024D01*
X59640342Y-83682113D01*
X59739093Y-83920518D01*
X59882456Y-84135077D01*
X60047379Y-84300000D01*
X59882456Y-84464923D01*
X59739093Y-84679482D01*
X59640342Y-84917887D01*
X59590000Y-85170976D01*
X59590000Y-85429024D01*
X59640342Y-85682113D01*
X59739093Y-85920518D01*
X59882456Y-86135077D01*
X60047379Y-86300000D01*
X59882456Y-86464923D01*
X59739093Y-86679482D01*
X59640342Y-86917887D01*
X59590000Y-87170976D01*
X59590000Y-87429024D01*
X59640342Y-87682113D01*
X59739093Y-87920518D01*
X59882456Y-88135077D01*
X60047379Y-88300000D01*
X59882456Y-88464923D01*
X59739093Y-88679482D01*
X59640342Y-88917887D01*
X59590000Y-89170976D01*
X59590000Y-89429024D01*
X59640342Y-89682113D01*
X59739093Y-89920518D01*
X59882456Y-90135077D01*
X60047379Y-90300000D01*
X59882456Y-90464923D01*
X59739093Y-90679482D01*
X59640342Y-90917887D01*
X59590000Y-91170976D01*
X59590000Y-91429024D01*
X59640342Y-91682113D01*
X59739093Y-91920518D01*
X59882456Y-92135077D01*
X60064923Y-92317544D01*
X60279482Y-92460907D01*
X60517887Y-92559658D01*
X60770976Y-92610000D01*
X61029024Y-92610000D01*
X61140000Y-92587926D01*
X61140000Y-97886928D01*
X60661730Y-97886928D01*
X58834999Y-96060198D01*
X58834999Y-70939802D01*
X61140001Y-68634801D01*
X61140001Y-71986928D01*
G37*
%TD.AperFunction*%
%TD*%
M02*
