%TF.GenerationSoftware,KiCad,Pcbnew,(5.1.10)-1*%
%TF.CreationDate,2021-09-20T08:54:39+02:00*%
%TF.ProjectId,breakoutboard,62726561-6b6f-4757-9462-6f6172642e6b,rev?*%
%TF.SameCoordinates,Original*%
%TF.FileFunction,Legend,Top*%
%TF.FilePolarity,Positive*%
%FSLAX46Y46*%
G04 Gerber Fmt 4.6, Leading zero omitted, Abs format (unit mm)*
G04 Created by KiCad (PCBNEW (5.1.10)-1) date 2021-09-20 08:54:39*
%MOMM*%
%LPD*%
G01*
G04 APERTURE LIST*
%ADD10C,0.125000*%
%ADD11C,0.120000*%
%ADD12C,0.200000*%
%ADD13C,0.254000*%
G04 APERTURE END LIST*
D10*
X58242857Y-98503571D02*
X58271428Y-98475000D01*
X58328571Y-98446428D01*
X58471428Y-98446428D01*
X58528571Y-98475000D01*
X58557142Y-98503571D01*
X58585714Y-98560714D01*
X58585714Y-98617857D01*
X58557142Y-98703571D01*
X58214285Y-99046428D01*
X58585714Y-99046428D01*
X58957142Y-98446428D02*
X59014285Y-98446428D01*
X59071428Y-98475000D01*
X59100000Y-98503571D01*
X59128571Y-98560714D01*
X59157142Y-98675000D01*
X59157142Y-98817857D01*
X59128571Y-98932142D01*
X59100000Y-98989285D01*
X59071428Y-99017857D01*
X59014285Y-99046428D01*
X58957142Y-99046428D01*
X58900000Y-99017857D01*
X58871428Y-98989285D01*
X58842857Y-98932142D01*
X58814285Y-98817857D01*
X58814285Y-98675000D01*
X58842857Y-98560714D01*
X58871428Y-98503571D01*
X58900000Y-98475000D01*
X58957142Y-98446428D01*
X58585714Y-101096428D02*
X58242857Y-101096428D01*
X58414285Y-101096428D02*
X58414285Y-100496428D01*
X58357142Y-100582142D01*
X58300000Y-100639285D01*
X58242857Y-100667857D01*
X58928571Y-100753571D02*
X58871428Y-100725000D01*
X58842857Y-100696428D01*
X58814285Y-100639285D01*
X58814285Y-100610714D01*
X58842857Y-100553571D01*
X58871428Y-100525000D01*
X58928571Y-100496428D01*
X59042857Y-100496428D01*
X59100000Y-100525000D01*
X59128571Y-100553571D01*
X59157142Y-100610714D01*
X59157142Y-100639285D01*
X59128571Y-100696428D01*
X59100000Y-100725000D01*
X59042857Y-100753571D01*
X58928571Y-100753571D01*
X58871428Y-100782142D01*
X58842857Y-100810714D01*
X58814285Y-100867857D01*
X58814285Y-100982142D01*
X58842857Y-101039285D01*
X58871428Y-101067857D01*
X58928571Y-101096428D01*
X59042857Y-101096428D01*
X59100000Y-101067857D01*
X59128571Y-101039285D01*
X59157142Y-100982142D01*
X59157142Y-100867857D01*
X59128571Y-100810714D01*
X59100000Y-100782142D01*
X59042857Y-100753571D01*
X58585714Y-103146428D02*
X58242857Y-103146428D01*
X58414285Y-103146428D02*
X58414285Y-102546428D01*
X58357142Y-102632142D01*
X58300000Y-102689285D01*
X58242857Y-102717857D01*
X59100000Y-102546428D02*
X58985714Y-102546428D01*
X58928571Y-102575000D01*
X58900000Y-102603571D01*
X58842857Y-102689285D01*
X58814285Y-102803571D01*
X58814285Y-103032142D01*
X58842857Y-103089285D01*
X58871428Y-103117857D01*
X58928571Y-103146428D01*
X59042857Y-103146428D01*
X59100000Y-103117857D01*
X59128571Y-103089285D01*
X59157142Y-103032142D01*
X59157142Y-102889285D01*
X59128571Y-102832142D01*
X59100000Y-102803571D01*
X59042857Y-102775000D01*
X58928571Y-102775000D01*
X58871428Y-102803571D01*
X58842857Y-102832142D01*
X58814285Y-102889285D01*
X58585714Y-105196428D02*
X58242857Y-105196428D01*
X58414285Y-105196428D02*
X58414285Y-104596428D01*
X58357142Y-104682142D01*
X58300000Y-104739285D01*
X58242857Y-104767857D01*
X59100000Y-104796428D02*
X59100000Y-105196428D01*
X58957142Y-104567857D02*
X58814285Y-104996428D01*
X59185714Y-104996428D01*
X58585714Y-107246428D02*
X58242857Y-107246428D01*
X58414285Y-107246428D02*
X58414285Y-106646428D01*
X58357142Y-106732142D01*
X58300000Y-106789285D01*
X58242857Y-106817857D01*
X58814285Y-106703571D02*
X58842857Y-106675000D01*
X58900000Y-106646428D01*
X59042857Y-106646428D01*
X59100000Y-106675000D01*
X59128571Y-106703571D01*
X59157142Y-106760714D01*
X59157142Y-106817857D01*
X59128571Y-106903571D01*
X58785714Y-107246428D01*
X59157142Y-107246428D01*
X58585714Y-109296428D02*
X58242857Y-109296428D01*
X58414285Y-109296428D02*
X58414285Y-108696428D01*
X58357142Y-108782142D01*
X58300000Y-108839285D01*
X58242857Y-108867857D01*
X58957142Y-108696428D02*
X59014285Y-108696428D01*
X59071428Y-108725000D01*
X59100000Y-108753571D01*
X59128571Y-108810714D01*
X59157142Y-108925000D01*
X59157142Y-109067857D01*
X59128571Y-109182142D01*
X59100000Y-109239285D01*
X59071428Y-109267857D01*
X59014285Y-109296428D01*
X58957142Y-109296428D01*
X58900000Y-109267857D01*
X58871428Y-109239285D01*
X58842857Y-109182142D01*
X58814285Y-109067857D01*
X58814285Y-108925000D01*
X58842857Y-108810714D01*
X58871428Y-108753571D01*
X58900000Y-108725000D01*
X58957142Y-108696428D01*
X58642857Y-111003571D02*
X58585714Y-110975000D01*
X58557142Y-110946428D01*
X58528571Y-110889285D01*
X58528571Y-110860714D01*
X58557142Y-110803571D01*
X58585714Y-110775000D01*
X58642857Y-110746428D01*
X58757142Y-110746428D01*
X58814285Y-110775000D01*
X58842857Y-110803571D01*
X58871428Y-110860714D01*
X58871428Y-110889285D01*
X58842857Y-110946428D01*
X58814285Y-110975000D01*
X58757142Y-111003571D01*
X58642857Y-111003571D01*
X58585714Y-111032142D01*
X58557142Y-111060714D01*
X58528571Y-111117857D01*
X58528571Y-111232142D01*
X58557142Y-111289285D01*
X58585714Y-111317857D01*
X58642857Y-111346428D01*
X58757142Y-111346428D01*
X58814285Y-111317857D01*
X58842857Y-111289285D01*
X58871428Y-111232142D01*
X58871428Y-111117857D01*
X58842857Y-111060714D01*
X58814285Y-111032142D01*
X58757142Y-111003571D01*
X58814285Y-112796428D02*
X58700000Y-112796428D01*
X58642857Y-112825000D01*
X58614285Y-112853571D01*
X58557142Y-112939285D01*
X58528571Y-113053571D01*
X58528571Y-113282142D01*
X58557142Y-113339285D01*
X58585714Y-113367857D01*
X58642857Y-113396428D01*
X58757142Y-113396428D01*
X58814285Y-113367857D01*
X58842857Y-113339285D01*
X58871428Y-113282142D01*
X58871428Y-113139285D01*
X58842857Y-113082142D01*
X58814285Y-113053571D01*
X58757142Y-113025000D01*
X58642857Y-113025000D01*
X58585714Y-113053571D01*
X58557142Y-113082142D01*
X58528571Y-113139285D01*
X58814285Y-115046428D02*
X58814285Y-115446428D01*
X58671428Y-114817857D02*
X58528571Y-115246428D01*
X58900000Y-115246428D01*
X58528571Y-116953571D02*
X58557142Y-116925000D01*
X58614285Y-116896428D01*
X58757142Y-116896428D01*
X58814285Y-116925000D01*
X58842857Y-116953571D01*
X58871428Y-117010714D01*
X58871428Y-117067857D01*
X58842857Y-117153571D01*
X58500000Y-117496428D01*
X58871428Y-117496428D01*
X64642857Y-98503571D02*
X64671428Y-98475000D01*
X64728571Y-98446428D01*
X64871428Y-98446428D01*
X64928571Y-98475000D01*
X64957142Y-98503571D01*
X64985714Y-98560714D01*
X64985714Y-98617857D01*
X64957142Y-98703571D01*
X64614285Y-99046428D01*
X64985714Y-99046428D01*
X65214285Y-98503571D02*
X65242857Y-98475000D01*
X65300000Y-98446428D01*
X65442857Y-98446428D01*
X65500000Y-98475000D01*
X65528571Y-98503571D01*
X65557142Y-98560714D01*
X65557142Y-98617857D01*
X65528571Y-98703571D01*
X65185714Y-99046428D01*
X65557142Y-99046428D01*
X64642857Y-100553571D02*
X64671428Y-100525000D01*
X64728571Y-100496428D01*
X64871428Y-100496428D01*
X64928571Y-100525000D01*
X64957142Y-100553571D01*
X64985714Y-100610714D01*
X64985714Y-100667857D01*
X64957142Y-100753571D01*
X64614285Y-101096428D01*
X64985714Y-101096428D01*
X65500000Y-100696428D02*
X65500000Y-101096428D01*
X65357142Y-100467857D02*
X65214285Y-100896428D01*
X65585714Y-100896428D01*
X64642857Y-102603571D02*
X64671428Y-102575000D01*
X64728571Y-102546428D01*
X64871428Y-102546428D01*
X64928571Y-102575000D01*
X64957142Y-102603571D01*
X64985714Y-102660714D01*
X64985714Y-102717857D01*
X64957142Y-102803571D01*
X64614285Y-103146428D01*
X64985714Y-103146428D01*
X65500000Y-102546428D02*
X65385714Y-102546428D01*
X65328571Y-102575000D01*
X65300000Y-102603571D01*
X65242857Y-102689285D01*
X65214285Y-102803571D01*
X65214285Y-103032142D01*
X65242857Y-103089285D01*
X65271428Y-103117857D01*
X65328571Y-103146428D01*
X65442857Y-103146428D01*
X65500000Y-103117857D01*
X65528571Y-103089285D01*
X65557142Y-103032142D01*
X65557142Y-102889285D01*
X65528571Y-102832142D01*
X65500000Y-102803571D01*
X65442857Y-102775000D01*
X65328571Y-102775000D01*
X65271428Y-102803571D01*
X65242857Y-102832142D01*
X65214285Y-102889285D01*
X64642857Y-104653571D02*
X64671428Y-104625000D01*
X64728571Y-104596428D01*
X64871428Y-104596428D01*
X64928571Y-104625000D01*
X64957142Y-104653571D01*
X64985714Y-104710714D01*
X64985714Y-104767857D01*
X64957142Y-104853571D01*
X64614285Y-105196428D01*
X64985714Y-105196428D01*
X65328571Y-104853571D02*
X65271428Y-104825000D01*
X65242857Y-104796428D01*
X65214285Y-104739285D01*
X65214285Y-104710714D01*
X65242857Y-104653571D01*
X65271428Y-104625000D01*
X65328571Y-104596428D01*
X65442857Y-104596428D01*
X65500000Y-104625000D01*
X65528571Y-104653571D01*
X65557142Y-104710714D01*
X65557142Y-104739285D01*
X65528571Y-104796428D01*
X65500000Y-104825000D01*
X65442857Y-104853571D01*
X65328571Y-104853571D01*
X65271428Y-104882142D01*
X65242857Y-104910714D01*
X65214285Y-104967857D01*
X65214285Y-105082142D01*
X65242857Y-105139285D01*
X65271428Y-105167857D01*
X65328571Y-105196428D01*
X65442857Y-105196428D01*
X65500000Y-105167857D01*
X65528571Y-105139285D01*
X65557142Y-105082142D01*
X65557142Y-104967857D01*
X65528571Y-104910714D01*
X65500000Y-104882142D01*
X65442857Y-104853571D01*
X64614285Y-106646428D02*
X64985714Y-106646428D01*
X64785714Y-106875000D01*
X64871428Y-106875000D01*
X64928571Y-106903571D01*
X64957142Y-106932142D01*
X64985714Y-106989285D01*
X64985714Y-107132142D01*
X64957142Y-107189285D01*
X64928571Y-107217857D01*
X64871428Y-107246428D01*
X64700000Y-107246428D01*
X64642857Y-107217857D01*
X64614285Y-107189285D01*
X65357142Y-106646428D02*
X65414285Y-106646428D01*
X65471428Y-106675000D01*
X65500000Y-106703571D01*
X65528571Y-106760714D01*
X65557142Y-106875000D01*
X65557142Y-107017857D01*
X65528571Y-107132142D01*
X65500000Y-107189285D01*
X65471428Y-107217857D01*
X65414285Y-107246428D01*
X65357142Y-107246428D01*
X65300000Y-107217857D01*
X65271428Y-107189285D01*
X65242857Y-107132142D01*
X65214285Y-107017857D01*
X65214285Y-106875000D01*
X65242857Y-106760714D01*
X65271428Y-106703571D01*
X65300000Y-106675000D01*
X65357142Y-106646428D01*
X64614285Y-108696428D02*
X64985714Y-108696428D01*
X64785714Y-108925000D01*
X64871428Y-108925000D01*
X64928571Y-108953571D01*
X64957142Y-108982142D01*
X64985714Y-109039285D01*
X64985714Y-109182142D01*
X64957142Y-109239285D01*
X64928571Y-109267857D01*
X64871428Y-109296428D01*
X64700000Y-109296428D01*
X64642857Y-109267857D01*
X64614285Y-109239285D01*
X65214285Y-108753571D02*
X65242857Y-108725000D01*
X65300000Y-108696428D01*
X65442857Y-108696428D01*
X65500000Y-108725000D01*
X65528571Y-108753571D01*
X65557142Y-108810714D01*
X65557142Y-108867857D01*
X65528571Y-108953571D01*
X65185714Y-109296428D01*
X65557142Y-109296428D01*
X64614285Y-110746428D02*
X64985714Y-110746428D01*
X64785714Y-110975000D01*
X64871428Y-110975000D01*
X64928571Y-111003571D01*
X64957142Y-111032142D01*
X64985714Y-111089285D01*
X64985714Y-111232142D01*
X64957142Y-111289285D01*
X64928571Y-111317857D01*
X64871428Y-111346428D01*
X64700000Y-111346428D01*
X64642857Y-111317857D01*
X64614285Y-111289285D01*
X65500000Y-110946428D02*
X65500000Y-111346428D01*
X65357142Y-110717857D02*
X65214285Y-111146428D01*
X65585714Y-111146428D01*
X64614285Y-112796428D02*
X64985714Y-112796428D01*
X64785714Y-113025000D01*
X64871428Y-113025000D01*
X64928571Y-113053571D01*
X64957142Y-113082142D01*
X64985714Y-113139285D01*
X64985714Y-113282142D01*
X64957142Y-113339285D01*
X64928571Y-113367857D01*
X64871428Y-113396428D01*
X64700000Y-113396428D01*
X64642857Y-113367857D01*
X64614285Y-113339285D01*
X65500000Y-112796428D02*
X65385714Y-112796428D01*
X65328571Y-112825000D01*
X65300000Y-112853571D01*
X65242857Y-112939285D01*
X65214285Y-113053571D01*
X65214285Y-113282142D01*
X65242857Y-113339285D01*
X65271428Y-113367857D01*
X65328571Y-113396428D01*
X65442857Y-113396428D01*
X65500000Y-113367857D01*
X65528571Y-113339285D01*
X65557142Y-113282142D01*
X65557142Y-113139285D01*
X65528571Y-113082142D01*
X65500000Y-113053571D01*
X65442857Y-113025000D01*
X65328571Y-113025000D01*
X65271428Y-113053571D01*
X65242857Y-113082142D01*
X65214285Y-113139285D01*
X64614285Y-114846428D02*
X64985714Y-114846428D01*
X64785714Y-115075000D01*
X64871428Y-115075000D01*
X64928571Y-115103571D01*
X64957142Y-115132142D01*
X64985714Y-115189285D01*
X64985714Y-115332142D01*
X64957142Y-115389285D01*
X64928571Y-115417857D01*
X64871428Y-115446428D01*
X64700000Y-115446428D01*
X64642857Y-115417857D01*
X64614285Y-115389285D01*
X65328571Y-115103571D02*
X65271428Y-115075000D01*
X65242857Y-115046428D01*
X65214285Y-114989285D01*
X65214285Y-114960714D01*
X65242857Y-114903571D01*
X65271428Y-114875000D01*
X65328571Y-114846428D01*
X65442857Y-114846428D01*
X65500000Y-114875000D01*
X65528571Y-114903571D01*
X65557142Y-114960714D01*
X65557142Y-114989285D01*
X65528571Y-115046428D01*
X65500000Y-115075000D01*
X65442857Y-115103571D01*
X65328571Y-115103571D01*
X65271428Y-115132142D01*
X65242857Y-115160714D01*
X65214285Y-115217857D01*
X65214285Y-115332142D01*
X65242857Y-115389285D01*
X65271428Y-115417857D01*
X65328571Y-115446428D01*
X65442857Y-115446428D01*
X65500000Y-115417857D01*
X65528571Y-115389285D01*
X65557142Y-115332142D01*
X65557142Y-115217857D01*
X65528571Y-115160714D01*
X65500000Y-115132142D01*
X65442857Y-115103571D01*
X64928571Y-117096428D02*
X64928571Y-117496428D01*
X64785714Y-116867857D02*
X64642857Y-117296428D01*
X65014285Y-117296428D01*
X65357142Y-116896428D02*
X65414285Y-116896428D01*
X65471428Y-116925000D01*
X65500000Y-116953571D01*
X65528571Y-117010714D01*
X65557142Y-117125000D01*
X65557142Y-117267857D01*
X65528571Y-117382142D01*
X65500000Y-117439285D01*
X65471428Y-117467857D01*
X65414285Y-117496428D01*
X65357142Y-117496428D01*
X65300000Y-117467857D01*
X65271428Y-117439285D01*
X65242857Y-117382142D01*
X65214285Y-117267857D01*
X65214285Y-117125000D01*
X65242857Y-117010714D01*
X65271428Y-116953571D01*
X65300000Y-116925000D01*
X65357142Y-116896428D01*
X75114285Y-72646428D02*
X75514285Y-72646428D01*
X75257142Y-73246428D01*
X75771428Y-73246428D02*
X75885714Y-73246428D01*
X75942857Y-73217857D01*
X75971428Y-73189285D01*
X76028571Y-73103571D01*
X76057142Y-72989285D01*
X76057142Y-72760714D01*
X76028571Y-72703571D01*
X76000000Y-72675000D01*
X75942857Y-72646428D01*
X75828571Y-72646428D01*
X75771428Y-72675000D01*
X75742857Y-72703571D01*
X75714285Y-72760714D01*
X75714285Y-72903571D01*
X75742857Y-72960714D01*
X75771428Y-72989285D01*
X75828571Y-73017857D01*
X75942857Y-73017857D01*
X76000000Y-72989285D01*
X76028571Y-72960714D01*
X76057142Y-72903571D01*
X75114285Y-74696428D02*
X75514285Y-74696428D01*
X75257142Y-75296428D01*
X76028571Y-74696428D02*
X75742857Y-74696428D01*
X75714285Y-74982142D01*
X75742857Y-74953571D01*
X75800000Y-74925000D01*
X75942857Y-74925000D01*
X76000000Y-74953571D01*
X76028571Y-74982142D01*
X76057142Y-75039285D01*
X76057142Y-75182142D01*
X76028571Y-75239285D01*
X76000000Y-75267857D01*
X75942857Y-75296428D01*
X75800000Y-75296428D01*
X75742857Y-75267857D01*
X75714285Y-75239285D01*
X75114285Y-76746428D02*
X75514285Y-76746428D01*
X75257142Y-77346428D01*
X76057142Y-77346428D02*
X75714285Y-77346428D01*
X75885714Y-77346428D02*
X75885714Y-76746428D01*
X75828571Y-76832142D01*
X75771428Y-76889285D01*
X75714285Y-76917857D01*
X75428571Y-78796428D02*
X75314285Y-78796428D01*
X75257142Y-78825000D01*
X75228571Y-78853571D01*
X75171428Y-78939285D01*
X75142857Y-79053571D01*
X75142857Y-79282142D01*
X75171428Y-79339285D01*
X75200000Y-79367857D01*
X75257142Y-79396428D01*
X75371428Y-79396428D01*
X75428571Y-79367857D01*
X75457142Y-79339285D01*
X75485714Y-79282142D01*
X75485714Y-79139285D01*
X75457142Y-79082142D01*
X75428571Y-79053571D01*
X75371428Y-79025000D01*
X75257142Y-79025000D01*
X75200000Y-79053571D01*
X75171428Y-79082142D01*
X75142857Y-79139285D01*
X75685714Y-78796428D02*
X76085714Y-78796428D01*
X75828571Y-79396428D01*
X75428571Y-80846428D02*
X75314285Y-80846428D01*
X75257142Y-80875000D01*
X75228571Y-80903571D01*
X75171428Y-80989285D01*
X75142857Y-81103571D01*
X75142857Y-81332142D01*
X75171428Y-81389285D01*
X75200000Y-81417857D01*
X75257142Y-81446428D01*
X75371428Y-81446428D01*
X75428571Y-81417857D01*
X75457142Y-81389285D01*
X75485714Y-81332142D01*
X75485714Y-81189285D01*
X75457142Y-81132142D01*
X75428571Y-81103571D01*
X75371428Y-81075000D01*
X75257142Y-81075000D01*
X75200000Y-81103571D01*
X75171428Y-81132142D01*
X75142857Y-81189285D01*
X75685714Y-80846428D02*
X76057142Y-80846428D01*
X75857142Y-81075000D01*
X75942857Y-81075000D01*
X76000000Y-81103571D01*
X76028571Y-81132142D01*
X76057142Y-81189285D01*
X76057142Y-81332142D01*
X76028571Y-81389285D01*
X76000000Y-81417857D01*
X75942857Y-81446428D01*
X75771428Y-81446428D01*
X75714285Y-81417857D01*
X75685714Y-81389285D01*
X75457142Y-82896428D02*
X75171428Y-82896428D01*
X75142857Y-83182142D01*
X75171428Y-83153571D01*
X75228571Y-83125000D01*
X75371428Y-83125000D01*
X75428571Y-83153571D01*
X75457142Y-83182142D01*
X75485714Y-83239285D01*
X75485714Y-83382142D01*
X75457142Y-83439285D01*
X75428571Y-83467857D01*
X75371428Y-83496428D01*
X75228571Y-83496428D01*
X75171428Y-83467857D01*
X75142857Y-83439285D01*
X75771428Y-83496428D02*
X75885714Y-83496428D01*
X75942857Y-83467857D01*
X75971428Y-83439285D01*
X76028571Y-83353571D01*
X76057142Y-83239285D01*
X76057142Y-83010714D01*
X76028571Y-82953571D01*
X76000000Y-82925000D01*
X75942857Y-82896428D01*
X75828571Y-82896428D01*
X75771428Y-82925000D01*
X75742857Y-82953571D01*
X75714285Y-83010714D01*
X75714285Y-83153571D01*
X75742857Y-83210714D01*
X75771428Y-83239285D01*
X75828571Y-83267857D01*
X75942857Y-83267857D01*
X76000000Y-83239285D01*
X76028571Y-83210714D01*
X76057142Y-83153571D01*
X75457142Y-84946428D02*
X75171428Y-84946428D01*
X75142857Y-85232142D01*
X75171428Y-85203571D01*
X75228571Y-85175000D01*
X75371428Y-85175000D01*
X75428571Y-85203571D01*
X75457142Y-85232142D01*
X75485714Y-85289285D01*
X75485714Y-85432142D01*
X75457142Y-85489285D01*
X75428571Y-85517857D01*
X75371428Y-85546428D01*
X75228571Y-85546428D01*
X75171428Y-85517857D01*
X75142857Y-85489285D01*
X76028571Y-84946428D02*
X75742857Y-84946428D01*
X75714285Y-85232142D01*
X75742857Y-85203571D01*
X75800000Y-85175000D01*
X75942857Y-85175000D01*
X76000000Y-85203571D01*
X76028571Y-85232142D01*
X76057142Y-85289285D01*
X76057142Y-85432142D01*
X76028571Y-85489285D01*
X76000000Y-85517857D01*
X75942857Y-85546428D01*
X75800000Y-85546428D01*
X75742857Y-85517857D01*
X75714285Y-85489285D01*
X75457142Y-86996428D02*
X75171428Y-86996428D01*
X75142857Y-87282142D01*
X75171428Y-87253571D01*
X75228571Y-87225000D01*
X75371428Y-87225000D01*
X75428571Y-87253571D01*
X75457142Y-87282142D01*
X75485714Y-87339285D01*
X75485714Y-87482142D01*
X75457142Y-87539285D01*
X75428571Y-87567857D01*
X75371428Y-87596428D01*
X75228571Y-87596428D01*
X75171428Y-87567857D01*
X75142857Y-87539285D01*
X76057142Y-87596428D02*
X75714285Y-87596428D01*
X75885714Y-87596428D02*
X75885714Y-86996428D01*
X75828571Y-87082142D01*
X75771428Y-87139285D01*
X75714285Y-87167857D01*
X75428571Y-89246428D02*
X75428571Y-89646428D01*
X75285714Y-89017857D02*
X75142857Y-89446428D01*
X75514285Y-89446428D01*
X75685714Y-89046428D02*
X76085714Y-89046428D01*
X75828571Y-89646428D01*
X75428571Y-91296428D02*
X75428571Y-91696428D01*
X75285714Y-91067857D02*
X75142857Y-91496428D01*
X75514285Y-91496428D01*
X75685714Y-91096428D02*
X76057142Y-91096428D01*
X75857142Y-91325000D01*
X75942857Y-91325000D01*
X76000000Y-91353571D01*
X76028571Y-91382142D01*
X76057142Y-91439285D01*
X76057142Y-91582142D01*
X76028571Y-91639285D01*
X76000000Y-91667857D01*
X75942857Y-91696428D01*
X75771428Y-91696428D01*
X75714285Y-91667857D01*
X75685714Y-91639285D01*
X81728571Y-98446428D02*
X81614285Y-98446428D01*
X81557142Y-98475000D01*
X81528571Y-98503571D01*
X81471428Y-98589285D01*
X81442857Y-98703571D01*
X81442857Y-98932142D01*
X81471428Y-98989285D01*
X81500000Y-99017857D01*
X81557142Y-99046428D01*
X81671428Y-99046428D01*
X81728571Y-99017857D01*
X81757142Y-98989285D01*
X81785714Y-98932142D01*
X81785714Y-98789285D01*
X81757142Y-98732142D01*
X81728571Y-98703571D01*
X81671428Y-98675000D01*
X81557142Y-98675000D01*
X81500000Y-98703571D01*
X81471428Y-98732142D01*
X81442857Y-98789285D01*
X82014285Y-98503571D02*
X82042857Y-98475000D01*
X82100000Y-98446428D01*
X82242857Y-98446428D01*
X82300000Y-98475000D01*
X82328571Y-98503571D01*
X82357142Y-98560714D01*
X82357142Y-98617857D01*
X82328571Y-98703571D01*
X81985714Y-99046428D01*
X82357142Y-99046428D01*
X81728571Y-100496428D02*
X81614285Y-100496428D01*
X81557142Y-100525000D01*
X81528571Y-100553571D01*
X81471428Y-100639285D01*
X81442857Y-100753571D01*
X81442857Y-100982142D01*
X81471428Y-101039285D01*
X81500000Y-101067857D01*
X81557142Y-101096428D01*
X81671428Y-101096428D01*
X81728571Y-101067857D01*
X81757142Y-101039285D01*
X81785714Y-100982142D01*
X81785714Y-100839285D01*
X81757142Y-100782142D01*
X81728571Y-100753571D01*
X81671428Y-100725000D01*
X81557142Y-100725000D01*
X81500000Y-100753571D01*
X81471428Y-100782142D01*
X81442857Y-100839285D01*
X82300000Y-100696428D02*
X82300000Y-101096428D01*
X82157142Y-100467857D02*
X82014285Y-100896428D01*
X82385714Y-100896428D01*
X81728571Y-102546428D02*
X81614285Y-102546428D01*
X81557142Y-102575000D01*
X81528571Y-102603571D01*
X81471428Y-102689285D01*
X81442857Y-102803571D01*
X81442857Y-103032142D01*
X81471428Y-103089285D01*
X81500000Y-103117857D01*
X81557142Y-103146428D01*
X81671428Y-103146428D01*
X81728571Y-103117857D01*
X81757142Y-103089285D01*
X81785714Y-103032142D01*
X81785714Y-102889285D01*
X81757142Y-102832142D01*
X81728571Y-102803571D01*
X81671428Y-102775000D01*
X81557142Y-102775000D01*
X81500000Y-102803571D01*
X81471428Y-102832142D01*
X81442857Y-102889285D01*
X82300000Y-102546428D02*
X82185714Y-102546428D01*
X82128571Y-102575000D01*
X82100000Y-102603571D01*
X82042857Y-102689285D01*
X82014285Y-102803571D01*
X82014285Y-103032142D01*
X82042857Y-103089285D01*
X82071428Y-103117857D01*
X82128571Y-103146428D01*
X82242857Y-103146428D01*
X82300000Y-103117857D01*
X82328571Y-103089285D01*
X82357142Y-103032142D01*
X82357142Y-102889285D01*
X82328571Y-102832142D01*
X82300000Y-102803571D01*
X82242857Y-102775000D01*
X82128571Y-102775000D01*
X82071428Y-102803571D01*
X82042857Y-102832142D01*
X82014285Y-102889285D01*
X81728571Y-104596428D02*
X81614285Y-104596428D01*
X81557142Y-104625000D01*
X81528571Y-104653571D01*
X81471428Y-104739285D01*
X81442857Y-104853571D01*
X81442857Y-105082142D01*
X81471428Y-105139285D01*
X81500000Y-105167857D01*
X81557142Y-105196428D01*
X81671428Y-105196428D01*
X81728571Y-105167857D01*
X81757142Y-105139285D01*
X81785714Y-105082142D01*
X81785714Y-104939285D01*
X81757142Y-104882142D01*
X81728571Y-104853571D01*
X81671428Y-104825000D01*
X81557142Y-104825000D01*
X81500000Y-104853571D01*
X81471428Y-104882142D01*
X81442857Y-104939285D01*
X82128571Y-104853571D02*
X82071428Y-104825000D01*
X82042857Y-104796428D01*
X82014285Y-104739285D01*
X82014285Y-104710714D01*
X82042857Y-104653571D01*
X82071428Y-104625000D01*
X82128571Y-104596428D01*
X82242857Y-104596428D01*
X82300000Y-104625000D01*
X82328571Y-104653571D01*
X82357142Y-104710714D01*
X82357142Y-104739285D01*
X82328571Y-104796428D01*
X82300000Y-104825000D01*
X82242857Y-104853571D01*
X82128571Y-104853571D01*
X82071428Y-104882142D01*
X82042857Y-104910714D01*
X82014285Y-104967857D01*
X82014285Y-105082142D01*
X82042857Y-105139285D01*
X82071428Y-105167857D01*
X82128571Y-105196428D01*
X82242857Y-105196428D01*
X82300000Y-105167857D01*
X82328571Y-105139285D01*
X82357142Y-105082142D01*
X82357142Y-104967857D01*
X82328571Y-104910714D01*
X82300000Y-104882142D01*
X82242857Y-104853571D01*
X81414285Y-106646428D02*
X81814285Y-106646428D01*
X81557142Y-107246428D01*
X82157142Y-106646428D02*
X82214285Y-106646428D01*
X82271428Y-106675000D01*
X82300000Y-106703571D01*
X82328571Y-106760714D01*
X82357142Y-106875000D01*
X82357142Y-107017857D01*
X82328571Y-107132142D01*
X82300000Y-107189285D01*
X82271428Y-107217857D01*
X82214285Y-107246428D01*
X82157142Y-107246428D01*
X82100000Y-107217857D01*
X82071428Y-107189285D01*
X82042857Y-107132142D01*
X82014285Y-107017857D01*
X82014285Y-106875000D01*
X82042857Y-106760714D01*
X82071428Y-106703571D01*
X82100000Y-106675000D01*
X82157142Y-106646428D01*
X81414285Y-108696428D02*
X81814285Y-108696428D01*
X81557142Y-109296428D01*
X82014285Y-108753571D02*
X82042857Y-108725000D01*
X82100000Y-108696428D01*
X82242857Y-108696428D01*
X82300000Y-108725000D01*
X82328571Y-108753571D01*
X82357142Y-108810714D01*
X82357142Y-108867857D01*
X82328571Y-108953571D01*
X81985714Y-109296428D01*
X82357142Y-109296428D01*
X81414285Y-110746428D02*
X81814285Y-110746428D01*
X81557142Y-111346428D01*
X82300000Y-110946428D02*
X82300000Y-111346428D01*
X82157142Y-110717857D02*
X82014285Y-111146428D01*
X82385714Y-111146428D01*
X81414285Y-112796428D02*
X81814285Y-112796428D01*
X81557142Y-113396428D01*
X82300000Y-112796428D02*
X82185714Y-112796428D01*
X82128571Y-112825000D01*
X82100000Y-112853571D01*
X82042857Y-112939285D01*
X82014285Y-113053571D01*
X82014285Y-113282142D01*
X82042857Y-113339285D01*
X82071428Y-113367857D01*
X82128571Y-113396428D01*
X82242857Y-113396428D01*
X82300000Y-113367857D01*
X82328571Y-113339285D01*
X82357142Y-113282142D01*
X82357142Y-113139285D01*
X82328571Y-113082142D01*
X82300000Y-113053571D01*
X82242857Y-113025000D01*
X82128571Y-113025000D01*
X82071428Y-113053571D01*
X82042857Y-113082142D01*
X82014285Y-113139285D01*
X81414285Y-114846428D02*
X81814285Y-114846428D01*
X81557142Y-115446428D01*
X82128571Y-115103571D02*
X82071428Y-115075000D01*
X82042857Y-115046428D01*
X82014285Y-114989285D01*
X82014285Y-114960714D01*
X82042857Y-114903571D01*
X82071428Y-114875000D01*
X82128571Y-114846428D01*
X82242857Y-114846428D01*
X82300000Y-114875000D01*
X82328571Y-114903571D01*
X82357142Y-114960714D01*
X82357142Y-114989285D01*
X82328571Y-115046428D01*
X82300000Y-115075000D01*
X82242857Y-115103571D01*
X82128571Y-115103571D01*
X82071428Y-115132142D01*
X82042857Y-115160714D01*
X82014285Y-115217857D01*
X82014285Y-115332142D01*
X82042857Y-115389285D01*
X82071428Y-115417857D01*
X82128571Y-115446428D01*
X82242857Y-115446428D01*
X82300000Y-115417857D01*
X82328571Y-115389285D01*
X82357142Y-115332142D01*
X82357142Y-115217857D01*
X82328571Y-115160714D01*
X82300000Y-115132142D01*
X82242857Y-115103571D01*
X81557142Y-117153571D02*
X81500000Y-117125000D01*
X81471428Y-117096428D01*
X81442857Y-117039285D01*
X81442857Y-117010714D01*
X81471428Y-116953571D01*
X81500000Y-116925000D01*
X81557142Y-116896428D01*
X81671428Y-116896428D01*
X81728571Y-116925000D01*
X81757142Y-116953571D01*
X81785714Y-117010714D01*
X81785714Y-117039285D01*
X81757142Y-117096428D01*
X81728571Y-117125000D01*
X81671428Y-117153571D01*
X81557142Y-117153571D01*
X81500000Y-117182142D01*
X81471428Y-117210714D01*
X81442857Y-117267857D01*
X81442857Y-117382142D01*
X81471428Y-117439285D01*
X81500000Y-117467857D01*
X81557142Y-117496428D01*
X81671428Y-117496428D01*
X81728571Y-117467857D01*
X81757142Y-117439285D01*
X81785714Y-117382142D01*
X81785714Y-117267857D01*
X81757142Y-117210714D01*
X81728571Y-117182142D01*
X81671428Y-117153571D01*
X82157142Y-116896428D02*
X82214285Y-116896428D01*
X82271428Y-116925000D01*
X82300000Y-116953571D01*
X82328571Y-117010714D01*
X82357142Y-117125000D01*
X82357142Y-117267857D01*
X82328571Y-117382142D01*
X82300000Y-117439285D01*
X82271428Y-117467857D01*
X82214285Y-117496428D01*
X82157142Y-117496428D01*
X82100000Y-117467857D01*
X82071428Y-117439285D01*
X82042857Y-117382142D01*
X82014285Y-117267857D01*
X82014285Y-117125000D01*
X82042857Y-117010714D01*
X82071428Y-116953571D01*
X82100000Y-116925000D01*
X82157142Y-116896428D01*
X81414285Y-72646428D02*
X81814285Y-72646428D01*
X81557142Y-73246428D01*
X81985714Y-72646428D02*
X82385714Y-72646428D01*
X82128571Y-73246428D01*
X81414285Y-74696428D02*
X81814285Y-74696428D01*
X81557142Y-75296428D01*
X81985714Y-74696428D02*
X82357142Y-74696428D01*
X82157142Y-74925000D01*
X82242857Y-74925000D01*
X82300000Y-74953571D01*
X82328571Y-74982142D01*
X82357142Y-75039285D01*
X82357142Y-75182142D01*
X82328571Y-75239285D01*
X82300000Y-75267857D01*
X82242857Y-75296428D01*
X82071428Y-75296428D01*
X82014285Y-75267857D01*
X81985714Y-75239285D01*
X81728571Y-76746428D02*
X81614285Y-76746428D01*
X81557142Y-76775000D01*
X81528571Y-76803571D01*
X81471428Y-76889285D01*
X81442857Y-77003571D01*
X81442857Y-77232142D01*
X81471428Y-77289285D01*
X81500000Y-77317857D01*
X81557142Y-77346428D01*
X81671428Y-77346428D01*
X81728571Y-77317857D01*
X81757142Y-77289285D01*
X81785714Y-77232142D01*
X81785714Y-77089285D01*
X81757142Y-77032142D01*
X81728571Y-77003571D01*
X81671428Y-76975000D01*
X81557142Y-76975000D01*
X81500000Y-77003571D01*
X81471428Y-77032142D01*
X81442857Y-77089285D01*
X82071428Y-77346428D02*
X82185714Y-77346428D01*
X82242857Y-77317857D01*
X82271428Y-77289285D01*
X82328571Y-77203571D01*
X82357142Y-77089285D01*
X82357142Y-76860714D01*
X82328571Y-76803571D01*
X82300000Y-76775000D01*
X82242857Y-76746428D01*
X82128571Y-76746428D01*
X82071428Y-76775000D01*
X82042857Y-76803571D01*
X82014285Y-76860714D01*
X82014285Y-77003571D01*
X82042857Y-77060714D01*
X82071428Y-77089285D01*
X82128571Y-77117857D01*
X82242857Y-77117857D01*
X82300000Y-77089285D01*
X82328571Y-77060714D01*
X82357142Y-77003571D01*
X81728571Y-78796428D02*
X81614285Y-78796428D01*
X81557142Y-78825000D01*
X81528571Y-78853571D01*
X81471428Y-78939285D01*
X81442857Y-79053571D01*
X81442857Y-79282142D01*
X81471428Y-79339285D01*
X81500000Y-79367857D01*
X81557142Y-79396428D01*
X81671428Y-79396428D01*
X81728571Y-79367857D01*
X81757142Y-79339285D01*
X81785714Y-79282142D01*
X81785714Y-79139285D01*
X81757142Y-79082142D01*
X81728571Y-79053571D01*
X81671428Y-79025000D01*
X81557142Y-79025000D01*
X81500000Y-79053571D01*
X81471428Y-79082142D01*
X81442857Y-79139285D01*
X82328571Y-78796428D02*
X82042857Y-78796428D01*
X82014285Y-79082142D01*
X82042857Y-79053571D01*
X82100000Y-79025000D01*
X82242857Y-79025000D01*
X82300000Y-79053571D01*
X82328571Y-79082142D01*
X82357142Y-79139285D01*
X82357142Y-79282142D01*
X82328571Y-79339285D01*
X82300000Y-79367857D01*
X82242857Y-79396428D01*
X82100000Y-79396428D01*
X82042857Y-79367857D01*
X82014285Y-79339285D01*
X81728571Y-80846428D02*
X81614285Y-80846428D01*
X81557142Y-80875000D01*
X81528571Y-80903571D01*
X81471428Y-80989285D01*
X81442857Y-81103571D01*
X81442857Y-81332142D01*
X81471428Y-81389285D01*
X81500000Y-81417857D01*
X81557142Y-81446428D01*
X81671428Y-81446428D01*
X81728571Y-81417857D01*
X81757142Y-81389285D01*
X81785714Y-81332142D01*
X81785714Y-81189285D01*
X81757142Y-81132142D01*
X81728571Y-81103571D01*
X81671428Y-81075000D01*
X81557142Y-81075000D01*
X81500000Y-81103571D01*
X81471428Y-81132142D01*
X81442857Y-81189285D01*
X82357142Y-81446428D02*
X82014285Y-81446428D01*
X82185714Y-81446428D02*
X82185714Y-80846428D01*
X82128571Y-80932142D01*
X82071428Y-80989285D01*
X82014285Y-81017857D01*
X81757142Y-82896428D02*
X81471428Y-82896428D01*
X81442857Y-83182142D01*
X81471428Y-83153571D01*
X81528571Y-83125000D01*
X81671428Y-83125000D01*
X81728571Y-83153571D01*
X81757142Y-83182142D01*
X81785714Y-83239285D01*
X81785714Y-83382142D01*
X81757142Y-83439285D01*
X81728571Y-83467857D01*
X81671428Y-83496428D01*
X81528571Y-83496428D01*
X81471428Y-83467857D01*
X81442857Y-83439285D01*
X81985714Y-82896428D02*
X82385714Y-82896428D01*
X82128571Y-83496428D01*
X81757142Y-84946428D02*
X81471428Y-84946428D01*
X81442857Y-85232142D01*
X81471428Y-85203571D01*
X81528571Y-85175000D01*
X81671428Y-85175000D01*
X81728571Y-85203571D01*
X81757142Y-85232142D01*
X81785714Y-85289285D01*
X81785714Y-85432142D01*
X81757142Y-85489285D01*
X81728571Y-85517857D01*
X81671428Y-85546428D01*
X81528571Y-85546428D01*
X81471428Y-85517857D01*
X81442857Y-85489285D01*
X81985714Y-84946428D02*
X82357142Y-84946428D01*
X82157142Y-85175000D01*
X82242857Y-85175000D01*
X82300000Y-85203571D01*
X82328571Y-85232142D01*
X82357142Y-85289285D01*
X82357142Y-85432142D01*
X82328571Y-85489285D01*
X82300000Y-85517857D01*
X82242857Y-85546428D01*
X82071428Y-85546428D01*
X82014285Y-85517857D01*
X81985714Y-85489285D01*
X81728571Y-87196428D02*
X81728571Y-87596428D01*
X81585714Y-86967857D02*
X81442857Y-87396428D01*
X81814285Y-87396428D01*
X82071428Y-87596428D02*
X82185714Y-87596428D01*
X82242857Y-87567857D01*
X82271428Y-87539285D01*
X82328571Y-87453571D01*
X82357142Y-87339285D01*
X82357142Y-87110714D01*
X82328571Y-87053571D01*
X82300000Y-87025000D01*
X82242857Y-86996428D01*
X82128571Y-86996428D01*
X82071428Y-87025000D01*
X82042857Y-87053571D01*
X82014285Y-87110714D01*
X82014285Y-87253571D01*
X82042857Y-87310714D01*
X82071428Y-87339285D01*
X82128571Y-87367857D01*
X82242857Y-87367857D01*
X82300000Y-87339285D01*
X82328571Y-87310714D01*
X82357142Y-87253571D01*
X81728571Y-89246428D02*
X81728571Y-89646428D01*
X81585714Y-89017857D02*
X81442857Y-89446428D01*
X81814285Y-89446428D01*
X82328571Y-89046428D02*
X82042857Y-89046428D01*
X82014285Y-89332142D01*
X82042857Y-89303571D01*
X82100000Y-89275000D01*
X82242857Y-89275000D01*
X82300000Y-89303571D01*
X82328571Y-89332142D01*
X82357142Y-89389285D01*
X82357142Y-89532142D01*
X82328571Y-89589285D01*
X82300000Y-89617857D01*
X82242857Y-89646428D01*
X82100000Y-89646428D01*
X82042857Y-89617857D01*
X82014285Y-89589285D01*
X81728571Y-91296428D02*
X81728571Y-91696428D01*
X81585714Y-91067857D02*
X81442857Y-91496428D01*
X81814285Y-91496428D01*
X82357142Y-91696428D02*
X82014285Y-91696428D01*
X82185714Y-91696428D02*
X82185714Y-91096428D01*
X82128571Y-91182142D01*
X82071428Y-91239285D01*
X82014285Y-91267857D01*
X75428571Y-98546428D02*
X75314285Y-98546428D01*
X75257142Y-98575000D01*
X75228571Y-98603571D01*
X75171428Y-98689285D01*
X75142857Y-98803571D01*
X75142857Y-99032142D01*
X75171428Y-99089285D01*
X75200000Y-99117857D01*
X75257142Y-99146428D01*
X75371428Y-99146428D01*
X75428571Y-99117857D01*
X75457142Y-99089285D01*
X75485714Y-99032142D01*
X75485714Y-98889285D01*
X75457142Y-98832142D01*
X75428571Y-98803571D01*
X75371428Y-98775000D01*
X75257142Y-98775000D01*
X75200000Y-98803571D01*
X75171428Y-98832142D01*
X75142857Y-98889285D01*
X75857142Y-98546428D02*
X75914285Y-98546428D01*
X75971428Y-98575000D01*
X76000000Y-98603571D01*
X76028571Y-98660714D01*
X76057142Y-98775000D01*
X76057142Y-98917857D01*
X76028571Y-99032142D01*
X76000000Y-99089285D01*
X75971428Y-99117857D01*
X75914285Y-99146428D01*
X75857142Y-99146428D01*
X75800000Y-99117857D01*
X75771428Y-99089285D01*
X75742857Y-99032142D01*
X75714285Y-98917857D01*
X75714285Y-98775000D01*
X75742857Y-98660714D01*
X75771428Y-98603571D01*
X75800000Y-98575000D01*
X75857142Y-98546428D01*
X75457142Y-100596428D02*
X75171428Y-100596428D01*
X75142857Y-100882142D01*
X75171428Y-100853571D01*
X75228571Y-100825000D01*
X75371428Y-100825000D01*
X75428571Y-100853571D01*
X75457142Y-100882142D01*
X75485714Y-100939285D01*
X75485714Y-101082142D01*
X75457142Y-101139285D01*
X75428571Y-101167857D01*
X75371428Y-101196428D01*
X75228571Y-101196428D01*
X75171428Y-101167857D01*
X75142857Y-101139285D01*
X75828571Y-100853571D02*
X75771428Y-100825000D01*
X75742857Y-100796428D01*
X75714285Y-100739285D01*
X75714285Y-100710714D01*
X75742857Y-100653571D01*
X75771428Y-100625000D01*
X75828571Y-100596428D01*
X75942857Y-100596428D01*
X76000000Y-100625000D01*
X76028571Y-100653571D01*
X76057142Y-100710714D01*
X76057142Y-100739285D01*
X76028571Y-100796428D01*
X76000000Y-100825000D01*
X75942857Y-100853571D01*
X75828571Y-100853571D01*
X75771428Y-100882142D01*
X75742857Y-100910714D01*
X75714285Y-100967857D01*
X75714285Y-101082142D01*
X75742857Y-101139285D01*
X75771428Y-101167857D01*
X75828571Y-101196428D01*
X75942857Y-101196428D01*
X76000000Y-101167857D01*
X76028571Y-101139285D01*
X76057142Y-101082142D01*
X76057142Y-100967857D01*
X76028571Y-100910714D01*
X76000000Y-100882142D01*
X75942857Y-100853571D01*
X75457142Y-102646428D02*
X75171428Y-102646428D01*
X75142857Y-102932142D01*
X75171428Y-102903571D01*
X75228571Y-102875000D01*
X75371428Y-102875000D01*
X75428571Y-102903571D01*
X75457142Y-102932142D01*
X75485714Y-102989285D01*
X75485714Y-103132142D01*
X75457142Y-103189285D01*
X75428571Y-103217857D01*
X75371428Y-103246428D01*
X75228571Y-103246428D01*
X75171428Y-103217857D01*
X75142857Y-103189285D01*
X76000000Y-102646428D02*
X75885714Y-102646428D01*
X75828571Y-102675000D01*
X75800000Y-102703571D01*
X75742857Y-102789285D01*
X75714285Y-102903571D01*
X75714285Y-103132142D01*
X75742857Y-103189285D01*
X75771428Y-103217857D01*
X75828571Y-103246428D01*
X75942857Y-103246428D01*
X76000000Y-103217857D01*
X76028571Y-103189285D01*
X76057142Y-103132142D01*
X76057142Y-102989285D01*
X76028571Y-102932142D01*
X76000000Y-102903571D01*
X75942857Y-102875000D01*
X75828571Y-102875000D01*
X75771428Y-102903571D01*
X75742857Y-102932142D01*
X75714285Y-102989285D01*
X75457142Y-104696428D02*
X75171428Y-104696428D01*
X75142857Y-104982142D01*
X75171428Y-104953571D01*
X75228571Y-104925000D01*
X75371428Y-104925000D01*
X75428571Y-104953571D01*
X75457142Y-104982142D01*
X75485714Y-105039285D01*
X75485714Y-105182142D01*
X75457142Y-105239285D01*
X75428571Y-105267857D01*
X75371428Y-105296428D01*
X75228571Y-105296428D01*
X75171428Y-105267857D01*
X75142857Y-105239285D01*
X76000000Y-104896428D02*
X76000000Y-105296428D01*
X75857142Y-104667857D02*
X75714285Y-105096428D01*
X76085714Y-105096428D01*
X75457142Y-106746428D02*
X75171428Y-106746428D01*
X75142857Y-107032142D01*
X75171428Y-107003571D01*
X75228571Y-106975000D01*
X75371428Y-106975000D01*
X75428571Y-107003571D01*
X75457142Y-107032142D01*
X75485714Y-107089285D01*
X75485714Y-107232142D01*
X75457142Y-107289285D01*
X75428571Y-107317857D01*
X75371428Y-107346428D01*
X75228571Y-107346428D01*
X75171428Y-107317857D01*
X75142857Y-107289285D01*
X75714285Y-106803571D02*
X75742857Y-106775000D01*
X75800000Y-106746428D01*
X75942857Y-106746428D01*
X76000000Y-106775000D01*
X76028571Y-106803571D01*
X76057142Y-106860714D01*
X76057142Y-106917857D01*
X76028571Y-107003571D01*
X75685714Y-107346428D01*
X76057142Y-107346428D01*
X75457142Y-108796428D02*
X75171428Y-108796428D01*
X75142857Y-109082142D01*
X75171428Y-109053571D01*
X75228571Y-109025000D01*
X75371428Y-109025000D01*
X75428571Y-109053571D01*
X75457142Y-109082142D01*
X75485714Y-109139285D01*
X75485714Y-109282142D01*
X75457142Y-109339285D01*
X75428571Y-109367857D01*
X75371428Y-109396428D01*
X75228571Y-109396428D01*
X75171428Y-109367857D01*
X75142857Y-109339285D01*
X75857142Y-108796428D02*
X75914285Y-108796428D01*
X75971428Y-108825000D01*
X76000000Y-108853571D01*
X76028571Y-108910714D01*
X76057142Y-109025000D01*
X76057142Y-109167857D01*
X76028571Y-109282142D01*
X76000000Y-109339285D01*
X75971428Y-109367857D01*
X75914285Y-109396428D01*
X75857142Y-109396428D01*
X75800000Y-109367857D01*
X75771428Y-109339285D01*
X75742857Y-109282142D01*
X75714285Y-109167857D01*
X75714285Y-109025000D01*
X75742857Y-108910714D01*
X75771428Y-108853571D01*
X75800000Y-108825000D01*
X75857142Y-108796428D01*
X75428571Y-111046428D02*
X75428571Y-111446428D01*
X75285714Y-110817857D02*
X75142857Y-111246428D01*
X75514285Y-111246428D01*
X75828571Y-111103571D02*
X75771428Y-111075000D01*
X75742857Y-111046428D01*
X75714285Y-110989285D01*
X75714285Y-110960714D01*
X75742857Y-110903571D01*
X75771428Y-110875000D01*
X75828571Y-110846428D01*
X75942857Y-110846428D01*
X76000000Y-110875000D01*
X76028571Y-110903571D01*
X76057142Y-110960714D01*
X76057142Y-110989285D01*
X76028571Y-111046428D01*
X76000000Y-111075000D01*
X75942857Y-111103571D01*
X75828571Y-111103571D01*
X75771428Y-111132142D01*
X75742857Y-111160714D01*
X75714285Y-111217857D01*
X75714285Y-111332142D01*
X75742857Y-111389285D01*
X75771428Y-111417857D01*
X75828571Y-111446428D01*
X75942857Y-111446428D01*
X76000000Y-111417857D01*
X76028571Y-111389285D01*
X76057142Y-111332142D01*
X76057142Y-111217857D01*
X76028571Y-111160714D01*
X76000000Y-111132142D01*
X75942857Y-111103571D01*
X75428571Y-113096428D02*
X75428571Y-113496428D01*
X75285714Y-112867857D02*
X75142857Y-113296428D01*
X75514285Y-113296428D01*
X76000000Y-112896428D02*
X75885714Y-112896428D01*
X75828571Y-112925000D01*
X75800000Y-112953571D01*
X75742857Y-113039285D01*
X75714285Y-113153571D01*
X75714285Y-113382142D01*
X75742857Y-113439285D01*
X75771428Y-113467857D01*
X75828571Y-113496428D01*
X75942857Y-113496428D01*
X76000000Y-113467857D01*
X76028571Y-113439285D01*
X76057142Y-113382142D01*
X76057142Y-113239285D01*
X76028571Y-113182142D01*
X76000000Y-113153571D01*
X75942857Y-113125000D01*
X75828571Y-113125000D01*
X75771428Y-113153571D01*
X75742857Y-113182142D01*
X75714285Y-113239285D01*
X75428571Y-115146428D02*
X75428571Y-115546428D01*
X75285714Y-114917857D02*
X75142857Y-115346428D01*
X75514285Y-115346428D01*
X76000000Y-115146428D02*
X76000000Y-115546428D01*
X75857142Y-114917857D02*
X75714285Y-115346428D01*
X76085714Y-115346428D01*
X75428571Y-117196428D02*
X75428571Y-117596428D01*
X75285714Y-116967857D02*
X75142857Y-117396428D01*
X75514285Y-117396428D01*
X75714285Y-117053571D02*
X75742857Y-117025000D01*
X75800000Y-116996428D01*
X75942857Y-116996428D01*
X76000000Y-117025000D01*
X76028571Y-117053571D01*
X76057142Y-117110714D01*
X76057142Y-117167857D01*
X76028571Y-117253571D01*
X75685714Y-117596428D01*
X76057142Y-117596428D01*
X64800000Y-72633928D02*
X65171428Y-72633928D01*
X64971428Y-72862500D01*
X65057142Y-72862500D01*
X65114285Y-72891071D01*
X65142857Y-72919642D01*
X65171428Y-72976785D01*
X65171428Y-73119642D01*
X65142857Y-73176785D01*
X65114285Y-73205357D01*
X65057142Y-73233928D01*
X64885714Y-73233928D01*
X64828571Y-73205357D01*
X64800000Y-73176785D01*
X64800000Y-74683928D02*
X65200000Y-74683928D01*
X64942857Y-75283928D01*
X64885714Y-77333928D02*
X64542857Y-77333928D01*
X64714285Y-77333928D02*
X64714285Y-76733928D01*
X64657142Y-76819642D01*
X64600000Y-76876785D01*
X64542857Y-76905357D01*
X65457142Y-77333928D02*
X65114285Y-77333928D01*
X65285714Y-77333928D02*
X65285714Y-76733928D01*
X65228571Y-76819642D01*
X65171428Y-76876785D01*
X65114285Y-76905357D01*
X64885714Y-79383928D02*
X64542857Y-79383928D01*
X64714285Y-79383928D02*
X64714285Y-78783928D01*
X64657142Y-78869642D01*
X64600000Y-78926785D01*
X64542857Y-78955357D01*
X65428571Y-78783928D02*
X65142857Y-78783928D01*
X65114285Y-79069642D01*
X65142857Y-79041071D01*
X65200000Y-79012500D01*
X65342857Y-79012500D01*
X65400000Y-79041071D01*
X65428571Y-79069642D01*
X65457142Y-79126785D01*
X65457142Y-79269642D01*
X65428571Y-79326785D01*
X65400000Y-79355357D01*
X65342857Y-79383928D01*
X65200000Y-79383928D01*
X65142857Y-79355357D01*
X65114285Y-79326785D01*
X64885714Y-81433928D02*
X64542857Y-81433928D01*
X64714285Y-81433928D02*
X64714285Y-80833928D01*
X64657142Y-80919642D01*
X64600000Y-80976785D01*
X64542857Y-81005357D01*
X65171428Y-81433928D02*
X65285714Y-81433928D01*
X65342857Y-81405357D01*
X65371428Y-81376785D01*
X65428571Y-81291071D01*
X65457142Y-81176785D01*
X65457142Y-80948214D01*
X65428571Y-80891071D01*
X65400000Y-80862500D01*
X65342857Y-80833928D01*
X65228571Y-80833928D01*
X65171428Y-80862500D01*
X65142857Y-80891071D01*
X65114285Y-80948214D01*
X65114285Y-81091071D01*
X65142857Y-81148214D01*
X65171428Y-81176785D01*
X65228571Y-81205357D01*
X65342857Y-81205357D01*
X65400000Y-81176785D01*
X65428571Y-81148214D01*
X65457142Y-81091071D01*
X64542857Y-82941071D02*
X64571428Y-82912500D01*
X64628571Y-82883928D01*
X64771428Y-82883928D01*
X64828571Y-82912500D01*
X64857142Y-82941071D01*
X64885714Y-82998214D01*
X64885714Y-83055357D01*
X64857142Y-83141071D01*
X64514285Y-83483928D01*
X64885714Y-83483928D01*
X65085714Y-82883928D02*
X65457142Y-82883928D01*
X65257142Y-83112500D01*
X65342857Y-83112500D01*
X65400000Y-83141071D01*
X65428571Y-83169642D01*
X65457142Y-83226785D01*
X65457142Y-83369642D01*
X65428571Y-83426785D01*
X65400000Y-83455357D01*
X65342857Y-83483928D01*
X65171428Y-83483928D01*
X65114285Y-83455357D01*
X65085714Y-83426785D01*
X64542857Y-84991071D02*
X64571428Y-84962500D01*
X64628571Y-84933928D01*
X64771428Y-84933928D01*
X64828571Y-84962500D01*
X64857142Y-84991071D01*
X64885714Y-85048214D01*
X64885714Y-85105357D01*
X64857142Y-85191071D01*
X64514285Y-85533928D01*
X64885714Y-85533928D01*
X65085714Y-84933928D02*
X65485714Y-84933928D01*
X65228571Y-85533928D01*
X64514285Y-86983928D02*
X64885714Y-86983928D01*
X64685714Y-87212500D01*
X64771428Y-87212500D01*
X64828571Y-87241071D01*
X64857142Y-87269642D01*
X64885714Y-87326785D01*
X64885714Y-87469642D01*
X64857142Y-87526785D01*
X64828571Y-87555357D01*
X64771428Y-87583928D01*
X64600000Y-87583928D01*
X64542857Y-87555357D01*
X64514285Y-87526785D01*
X65457142Y-87583928D02*
X65114285Y-87583928D01*
X65285714Y-87583928D02*
X65285714Y-86983928D01*
X65228571Y-87069642D01*
X65171428Y-87126785D01*
X65114285Y-87155357D01*
X64514285Y-89033928D02*
X64885714Y-89033928D01*
X64685714Y-89262500D01*
X64771428Y-89262500D01*
X64828571Y-89291071D01*
X64857142Y-89319642D01*
X64885714Y-89376785D01*
X64885714Y-89519642D01*
X64857142Y-89576785D01*
X64828571Y-89605357D01*
X64771428Y-89633928D01*
X64600000Y-89633928D01*
X64542857Y-89605357D01*
X64514285Y-89576785D01*
X65428571Y-89033928D02*
X65142857Y-89033928D01*
X65114285Y-89319642D01*
X65142857Y-89291071D01*
X65200000Y-89262500D01*
X65342857Y-89262500D01*
X65400000Y-89291071D01*
X65428571Y-89319642D01*
X65457142Y-89376785D01*
X65457142Y-89519642D01*
X65428571Y-89576785D01*
X65400000Y-89605357D01*
X65342857Y-89633928D01*
X65200000Y-89633928D01*
X65142857Y-89605357D01*
X65114285Y-89576785D01*
X64514285Y-91083928D02*
X64885714Y-91083928D01*
X64685714Y-91312500D01*
X64771428Y-91312500D01*
X64828571Y-91341071D01*
X64857142Y-91369642D01*
X64885714Y-91426785D01*
X64885714Y-91569642D01*
X64857142Y-91626785D01*
X64828571Y-91655357D01*
X64771428Y-91683928D01*
X64600000Y-91683928D01*
X64542857Y-91655357D01*
X64514285Y-91626785D01*
X65171428Y-91683928D02*
X65285714Y-91683928D01*
X65342857Y-91655357D01*
X65371428Y-91626785D01*
X65428571Y-91541071D01*
X65457142Y-91426785D01*
X65457142Y-91198214D01*
X65428571Y-91141071D01*
X65400000Y-91112500D01*
X65342857Y-91083928D01*
X65228571Y-91083928D01*
X65171428Y-91112500D01*
X65142857Y-91141071D01*
X65114285Y-91198214D01*
X65114285Y-91341071D01*
X65142857Y-91398214D01*
X65171428Y-91426785D01*
X65228571Y-91455357D01*
X65342857Y-91455357D01*
X65400000Y-91426785D01*
X65428571Y-91398214D01*
X65457142Y-91341071D01*
X58871428Y-73246428D02*
X58528571Y-73246428D01*
X58700000Y-73246428D02*
X58700000Y-72646428D01*
X58642857Y-72732142D01*
X58585714Y-72789285D01*
X58528571Y-72817857D01*
X58842857Y-74696428D02*
X58557142Y-74696428D01*
X58528571Y-74982142D01*
X58557142Y-74953571D01*
X58614285Y-74925000D01*
X58757142Y-74925000D01*
X58814285Y-74953571D01*
X58842857Y-74982142D01*
X58871428Y-75039285D01*
X58871428Y-75182142D01*
X58842857Y-75239285D01*
X58814285Y-75267857D01*
X58757142Y-75296428D01*
X58614285Y-75296428D01*
X58557142Y-75267857D01*
X58528571Y-75239285D01*
X58585714Y-77346428D02*
X58700000Y-77346428D01*
X58757142Y-77317857D01*
X58785714Y-77289285D01*
X58842857Y-77203571D01*
X58871428Y-77089285D01*
X58871428Y-76860714D01*
X58842857Y-76803571D01*
X58814285Y-76775000D01*
X58757142Y-76746428D01*
X58642857Y-76746428D01*
X58585714Y-76775000D01*
X58557142Y-76803571D01*
X58528571Y-76860714D01*
X58528571Y-77003571D01*
X58557142Y-77060714D01*
X58585714Y-77089285D01*
X58642857Y-77117857D01*
X58757142Y-77117857D01*
X58814285Y-77089285D01*
X58842857Y-77060714D01*
X58871428Y-77003571D01*
X58585714Y-79396428D02*
X58242857Y-79396428D01*
X58414285Y-79396428D02*
X58414285Y-78796428D01*
X58357142Y-78882142D01*
X58300000Y-78939285D01*
X58242857Y-78967857D01*
X58785714Y-78796428D02*
X59157142Y-78796428D01*
X58957142Y-79025000D01*
X59042857Y-79025000D01*
X59100000Y-79053571D01*
X59128571Y-79082142D01*
X59157142Y-79139285D01*
X59157142Y-79282142D01*
X59128571Y-79339285D01*
X59100000Y-79367857D01*
X59042857Y-79396428D01*
X58871428Y-79396428D01*
X58814285Y-79367857D01*
X58785714Y-79339285D01*
X58585714Y-81446428D02*
X58242857Y-81446428D01*
X58414285Y-81446428D02*
X58414285Y-80846428D01*
X58357142Y-80932142D01*
X58300000Y-80989285D01*
X58242857Y-81017857D01*
X58785714Y-80846428D02*
X59185714Y-80846428D01*
X58928571Y-81446428D01*
X58242857Y-82953571D02*
X58271428Y-82925000D01*
X58328571Y-82896428D01*
X58471428Y-82896428D01*
X58528571Y-82925000D01*
X58557142Y-82953571D01*
X58585714Y-83010714D01*
X58585714Y-83067857D01*
X58557142Y-83153571D01*
X58214285Y-83496428D01*
X58585714Y-83496428D01*
X59157142Y-83496428D02*
X58814285Y-83496428D01*
X58985714Y-83496428D02*
X58985714Y-82896428D01*
X58928571Y-82982142D01*
X58871428Y-83039285D01*
X58814285Y-83067857D01*
X58242857Y-85003571D02*
X58271428Y-84975000D01*
X58328571Y-84946428D01*
X58471428Y-84946428D01*
X58528571Y-84975000D01*
X58557142Y-85003571D01*
X58585714Y-85060714D01*
X58585714Y-85117857D01*
X58557142Y-85203571D01*
X58214285Y-85546428D01*
X58585714Y-85546428D01*
X59128571Y-84946428D02*
X58842857Y-84946428D01*
X58814285Y-85232142D01*
X58842857Y-85203571D01*
X58900000Y-85175000D01*
X59042857Y-85175000D01*
X59100000Y-85203571D01*
X59128571Y-85232142D01*
X59157142Y-85289285D01*
X59157142Y-85432142D01*
X59128571Y-85489285D01*
X59100000Y-85517857D01*
X59042857Y-85546428D01*
X58900000Y-85546428D01*
X58842857Y-85517857D01*
X58814285Y-85489285D01*
X58242857Y-87053571D02*
X58271428Y-87025000D01*
X58328571Y-86996428D01*
X58471428Y-86996428D01*
X58528571Y-87025000D01*
X58557142Y-87053571D01*
X58585714Y-87110714D01*
X58585714Y-87167857D01*
X58557142Y-87253571D01*
X58214285Y-87596428D01*
X58585714Y-87596428D01*
X58871428Y-87596428D02*
X58985714Y-87596428D01*
X59042857Y-87567857D01*
X59071428Y-87539285D01*
X59128571Y-87453571D01*
X59157142Y-87339285D01*
X59157142Y-87110714D01*
X59128571Y-87053571D01*
X59100000Y-87025000D01*
X59042857Y-86996428D01*
X58928571Y-86996428D01*
X58871428Y-87025000D01*
X58842857Y-87053571D01*
X58814285Y-87110714D01*
X58814285Y-87253571D01*
X58842857Y-87310714D01*
X58871428Y-87339285D01*
X58928571Y-87367857D01*
X59042857Y-87367857D01*
X59100000Y-87339285D01*
X59128571Y-87310714D01*
X59157142Y-87253571D01*
X58214285Y-89046428D02*
X58585714Y-89046428D01*
X58385714Y-89275000D01*
X58471428Y-89275000D01*
X58528571Y-89303571D01*
X58557142Y-89332142D01*
X58585714Y-89389285D01*
X58585714Y-89532142D01*
X58557142Y-89589285D01*
X58528571Y-89617857D01*
X58471428Y-89646428D01*
X58300000Y-89646428D01*
X58242857Y-89617857D01*
X58214285Y-89589285D01*
X58785714Y-89046428D02*
X59157142Y-89046428D01*
X58957142Y-89275000D01*
X59042857Y-89275000D01*
X59100000Y-89303571D01*
X59128571Y-89332142D01*
X59157142Y-89389285D01*
X59157142Y-89532142D01*
X59128571Y-89589285D01*
X59100000Y-89617857D01*
X59042857Y-89646428D01*
X58871428Y-89646428D01*
X58814285Y-89617857D01*
X58785714Y-89589285D01*
X58214285Y-91096428D02*
X58585714Y-91096428D01*
X58385714Y-91325000D01*
X58471428Y-91325000D01*
X58528571Y-91353571D01*
X58557142Y-91382142D01*
X58585714Y-91439285D01*
X58585714Y-91582142D01*
X58557142Y-91639285D01*
X58528571Y-91667857D01*
X58471428Y-91696428D01*
X58300000Y-91696428D01*
X58242857Y-91667857D01*
X58214285Y-91639285D01*
X58785714Y-91096428D02*
X59185714Y-91096428D01*
X58928571Y-91696428D01*
D11*
%TO.C,J2*%
X59840000Y-72240000D02*
X60900000Y-72240000D01*
X59840000Y-73300000D02*
X59840000Y-72240000D01*
X61900000Y-72240000D02*
X63960000Y-72240000D01*
X61900000Y-74300000D02*
X61900000Y-72240000D01*
X59840000Y-74300000D02*
X61900000Y-74300000D01*
X63960000Y-72240000D02*
X63960000Y-92360000D01*
X59840000Y-74300000D02*
X59840000Y-92360000D01*
X59840000Y-92360000D02*
X63960000Y-92360000D01*
%TO.C,J5*%
X76740000Y-98140000D02*
X77800000Y-98140000D01*
X76740000Y-99200000D02*
X76740000Y-98140000D01*
X78800000Y-98140000D02*
X80860000Y-98140000D01*
X78800000Y-100200000D02*
X78800000Y-98140000D01*
X76740000Y-100200000D02*
X78800000Y-100200000D01*
X80860000Y-98140000D02*
X80860000Y-118260000D01*
X76740000Y-100200000D02*
X76740000Y-118260000D01*
X76740000Y-118260000D02*
X80860000Y-118260000D01*
%TO.C,J4*%
X76740000Y-72439998D02*
X77800000Y-72439998D01*
X76740000Y-73499998D02*
X76740000Y-72439998D01*
X78800000Y-72439998D02*
X80860000Y-72439998D01*
X78800000Y-74499998D02*
X78800000Y-72439998D01*
X76740000Y-74499998D02*
X78800000Y-74499998D01*
X80860000Y-72439998D02*
X80860000Y-92559998D01*
X76740000Y-74499998D02*
X76740000Y-92559998D01*
X76740000Y-92559998D02*
X80860000Y-92559998D01*
%TO.C,J3*%
X59840000Y-98140000D02*
X60900000Y-98140000D01*
X59840000Y-99200000D02*
X59840000Y-98140000D01*
X61900000Y-98140000D02*
X63960000Y-98140000D01*
X61900000Y-100200000D02*
X61900000Y-98140000D01*
X59840000Y-100200000D02*
X61900000Y-100200000D01*
X63960000Y-98140000D02*
X63960000Y-118260000D01*
X59840000Y-100200000D02*
X59840000Y-118260000D01*
X59840000Y-118260000D02*
X63960000Y-118260000D01*
D12*
%TO.C,J1*%
X57650000Y-49600000D02*
X57650000Y-49600000D01*
X57650000Y-49700000D02*
X57650000Y-49700000D01*
X57650000Y-49600000D02*
X57650000Y-49600000D01*
X84950000Y-50350000D02*
X81700000Y-50350000D01*
X84950000Y-51900000D02*
X84950000Y-50350000D01*
X84950000Y-57650000D02*
X84950000Y-56100000D01*
X81700000Y-57650000D02*
X84950000Y-57650000D01*
X53850000Y-57650000D02*
X57100000Y-57650000D01*
X53850000Y-56100000D02*
X53850000Y-57650000D01*
X53850000Y-50350000D02*
X53850000Y-51900000D01*
X57100000Y-50350000D02*
X53850000Y-50350000D01*
X57650000Y-49700000D02*
G75*
G02*
X57650000Y-49600000I0J50000D01*
G01*
X57650000Y-49600000D02*
G75*
G02*
X57650000Y-49700000I0J-50000D01*
G01*
X57650000Y-49700000D02*
G75*
G02*
X57650000Y-49600000I0J50000D01*
G01*
D13*
X68976666Y-53304523D02*
X68976666Y-54211666D01*
X68916190Y-54393095D01*
X68795238Y-54514047D01*
X68613809Y-54574523D01*
X68492857Y-54574523D01*
X70246666Y-54574523D02*
X69520952Y-54574523D01*
X69883809Y-54574523D02*
X69883809Y-53304523D01*
X69762857Y-53485952D01*
X69641904Y-53606904D01*
X69520952Y-53667380D01*
%TD*%
M02*
