%TF.GenerationSoftware,KiCad,Pcbnew,(5.1.10)-1*%
%TF.CreationDate,2021-09-20T08:54:39+02:00*%
%TF.ProjectId,breakoutboard,62726561-6b6f-4757-9462-6f6172642e6b,rev?*%
%TF.SameCoordinates,Original*%
%TF.FileFunction,Copper,L2,Bot*%
%TF.FilePolarity,Positive*%
%FSLAX46Y46*%
G04 Gerber Fmt 4.6, Leading zero omitted, Abs format (unit mm)*
G04 Created by KiCad (PCBNEW (5.1.10)-1) date 2021-09-20 08:54:39*
%MOMM*%
%LPD*%
G01*
G04 APERTURE LIST*
%TA.AperFunction,ComponentPad*%
%ADD10C,0.700000*%
%TD*%
%TA.AperFunction,ComponentPad*%
%ADD11C,4.400000*%
%TD*%
%TA.AperFunction,ComponentPad*%
%ADD12O,1.350000X1.350000*%
%TD*%
%TA.AperFunction,ComponentPad*%
%ADD13R,1.350000X1.350000*%
%TD*%
%TA.AperFunction,ViaPad*%
%ADD14C,0.800000*%
%TD*%
%TA.AperFunction,Conductor*%
%ADD15C,0.250000*%
%TD*%
%TA.AperFunction,Conductor*%
%ADD16C,0.254000*%
%TD*%
%TA.AperFunction,Conductor*%
%ADD17C,0.100000*%
%TD*%
G04 APERTURE END LIST*
D10*
%TO.P,H4,1*%
%TO.N,GND*%
X50566726Y-41466726D03*
X51050000Y-40300000D03*
X50566726Y-39133274D03*
X49400000Y-38650000D03*
X48233274Y-39133274D03*
X47750000Y-40300000D03*
X48233274Y-41466726D03*
X49400000Y-41950000D03*
D11*
X49400000Y-40300000D03*
%TD*%
D10*
%TO.P,H3,1*%
%TO.N,GND*%
X50566726Y-127366726D03*
X51050000Y-126200000D03*
X50566726Y-125033274D03*
X49400000Y-124550000D03*
X48233274Y-125033274D03*
X47750000Y-126200000D03*
X48233274Y-127366726D03*
X49400000Y-127850000D03*
D11*
X49400000Y-126200000D03*
%TD*%
D10*
%TO.P,H2,1*%
%TO.N,GND*%
X90966726Y-127366726D03*
X91450000Y-126200000D03*
X90966726Y-125033274D03*
X89800000Y-124550000D03*
X88633274Y-125033274D03*
X88150000Y-126200000D03*
X88633274Y-127366726D03*
X89800000Y-127850000D03*
D11*
X89800000Y-126200000D03*
%TD*%
D10*
%TO.P,H1,1*%
%TO.N,GND*%
X90966726Y-41466726D03*
X91450000Y-40300000D03*
X90966726Y-39133274D03*
X89800000Y-38650000D03*
X88633274Y-39133274D03*
X88150000Y-40300000D03*
X88633274Y-41466726D03*
X89800000Y-41950000D03*
D11*
X89800000Y-40300000D03*
%TD*%
D12*
%TO.P,J2,20*%
%TO.N,39*%
X62900000Y-91300000D03*
%TO.P,J2,19*%
%TO.N,37*%
X60900000Y-91300000D03*
%TO.P,J2,18*%
%TO.N,35*%
X62900000Y-89300000D03*
%TO.P,J2,17*%
%TO.N,33*%
X60900000Y-89300000D03*
%TO.P,J2,16*%
%TO.N,31*%
X62900000Y-87300000D03*
%TO.P,J2,15*%
%TO.N,29*%
X60900000Y-87300000D03*
%TO.P,J2,14*%
%TO.N,27*%
X62900000Y-85300000D03*
%TO.P,J2,13*%
%TO.N,25*%
X60900000Y-85300000D03*
%TO.P,J2,12*%
%TO.N,23*%
X62900000Y-83300000D03*
%TO.P,J2,11*%
%TO.N,21*%
X60900000Y-83300000D03*
%TO.P,J2,10*%
%TO.N,19*%
X62900000Y-81300000D03*
%TO.P,J2,9*%
%TO.N,17*%
X60900000Y-81300000D03*
%TO.P,J2,8*%
%TO.N,15*%
X62900000Y-79300000D03*
%TO.P,J2,7*%
%TO.N,13*%
X60900000Y-79300000D03*
%TO.P,J2,6*%
%TO.N,11*%
X62900000Y-77300000D03*
%TO.P,J2,5*%
%TO.N,9*%
X60900000Y-77300000D03*
%TO.P,J2,4*%
%TO.N,7*%
X62900000Y-75300000D03*
%TO.P,J2,3*%
%TO.N,5*%
X60900000Y-75300000D03*
%TO.P,J2,2*%
%TO.N,3*%
X62900000Y-73300000D03*
D13*
%TO.P,J2,1*%
%TO.N,1*%
X60900000Y-73300000D03*
%TD*%
D12*
%TO.P,J5,20*%
%TO.N,80*%
X79800000Y-117200000D03*
%TO.P,J5,19*%
%TO.N,42*%
X77800000Y-117200000D03*
%TO.P,J5,18*%
%TO.N,78*%
X79800000Y-115200000D03*
%TO.P,J5,17*%
%TO.N,44*%
X77800000Y-115200000D03*
%TO.P,J5,16*%
%TO.N,76*%
X79800000Y-113200000D03*
%TO.P,J5,15*%
%TO.N,46*%
X77800000Y-113200000D03*
%TO.P,J5,14*%
%TO.N,74*%
X79800000Y-111200000D03*
%TO.P,J5,13*%
%TO.N,48*%
X77800000Y-111200000D03*
%TO.P,J5,12*%
%TO.N,72*%
X79800000Y-109200000D03*
%TO.P,J5,11*%
%TO.N,50*%
X77800000Y-109200000D03*
%TO.P,J5,10*%
%TO.N,70*%
X79800000Y-107200000D03*
%TO.P,J5,9*%
%TO.N,52*%
X77800000Y-107200000D03*
%TO.P,J5,8*%
%TO.N,68*%
X79800000Y-105200000D03*
%TO.P,J5,7*%
%TO.N,54*%
X77800000Y-105200000D03*
%TO.P,J5,6*%
%TO.N,66*%
X79800000Y-103200000D03*
%TO.P,J5,5*%
%TO.N,56*%
X77800000Y-103200000D03*
%TO.P,J5,4*%
%TO.N,64*%
X79800000Y-101200000D03*
%TO.P,J5,3*%
%TO.N,58*%
X77800000Y-101200000D03*
%TO.P,J5,2*%
%TO.N,62*%
X79800000Y-99200000D03*
D13*
%TO.P,J5,1*%
%TO.N,60*%
X77800000Y-99200000D03*
%TD*%
D12*
%TO.P,J4,20*%
%TO.N,41*%
X79800000Y-91499998D03*
%TO.P,J4,19*%
%TO.N,43*%
X77800000Y-91499998D03*
%TO.P,J4,18*%
%TO.N,45*%
X79800000Y-89499998D03*
%TO.P,J4,17*%
%TO.N,47*%
X77800000Y-89499998D03*
%TO.P,J4,16*%
%TO.N,49*%
X79800000Y-87499998D03*
%TO.P,J4,15*%
%TO.N,51*%
X77800000Y-87499998D03*
%TO.P,J4,14*%
%TO.N,53*%
X79800000Y-85499998D03*
%TO.P,J4,13*%
%TO.N,55*%
X77800000Y-85499998D03*
%TO.P,J4,12*%
%TO.N,57*%
X79800000Y-83499998D03*
%TO.P,J4,11*%
%TO.N,59*%
X77800000Y-83499998D03*
%TO.P,J4,10*%
%TO.N,61*%
X79800000Y-81499998D03*
%TO.P,J4,9*%
%TO.N,63*%
X77800000Y-81499998D03*
%TO.P,J4,8*%
%TO.N,65*%
X79800000Y-79499998D03*
%TO.P,J4,7*%
%TO.N,67*%
X77800000Y-79499998D03*
%TO.P,J4,6*%
%TO.N,69*%
X79800000Y-77499998D03*
%TO.P,J4,5*%
%TO.N,71*%
X77800000Y-77499998D03*
%TO.P,J4,4*%
%TO.N,73*%
X79800000Y-75499998D03*
%TO.P,J4,3*%
%TO.N,75*%
X77800000Y-75499998D03*
%TO.P,J4,2*%
%TO.N,77*%
X79800000Y-73499998D03*
D13*
%TO.P,J4,1*%
%TO.N,79*%
X77800000Y-73499998D03*
%TD*%
D12*
%TO.P,J3,20*%
%TO.N,40*%
X62900000Y-117200000D03*
%TO.P,J3,19*%
%TO.N,2*%
X60900000Y-117200000D03*
%TO.P,J3,18*%
%TO.N,38*%
X62900000Y-115200000D03*
%TO.P,J3,17*%
%TO.N,4*%
X60900000Y-115200000D03*
%TO.P,J3,16*%
%TO.N,36*%
X62900000Y-113200000D03*
%TO.P,J3,15*%
%TO.N,6*%
X60900000Y-113200000D03*
%TO.P,J3,14*%
%TO.N,34*%
X62900000Y-111200000D03*
%TO.P,J3,13*%
%TO.N,8*%
X60900000Y-111200000D03*
%TO.P,J3,12*%
%TO.N,32*%
X62900000Y-109200000D03*
%TO.P,J3,11*%
%TO.N,10*%
X60900000Y-109200000D03*
%TO.P,J3,10*%
%TO.N,30*%
X62900000Y-107200000D03*
%TO.P,J3,9*%
%TO.N,12*%
X60900000Y-107200000D03*
%TO.P,J3,8*%
%TO.N,28*%
X62900000Y-105200000D03*
%TO.P,J3,7*%
%TO.N,14*%
X60900000Y-105200000D03*
%TO.P,J3,6*%
%TO.N,26*%
X62900000Y-103200000D03*
%TO.P,J3,5*%
%TO.N,16*%
X60900000Y-103200000D03*
%TO.P,J3,4*%
%TO.N,24*%
X62900000Y-101200000D03*
%TO.P,J3,3*%
%TO.N,18*%
X60900000Y-101200000D03*
%TO.P,J3,2*%
%TO.N,22*%
X62900000Y-99200000D03*
D13*
%TO.P,J3,1*%
%TO.N,20*%
X60900000Y-99200000D03*
%TD*%
D14*
%TO.N,1*%
X57600000Y-49400000D03*
%TO.N,3*%
X58100000Y-52600000D03*
%TO.N,5*%
X58700000Y-49400000D03*
%TO.N,7*%
X59200000Y-52600000D03*
%TO.N,9*%
X59700000Y-49400000D03*
%TO.N,11*%
X61100000Y-52600000D03*
%TO.N,13*%
X61600000Y-49300000D03*
%TO.N,15*%
X62100000Y-52600000D03*
%TO.N,17*%
X62700000Y-49300000D03*
%TO.N,19*%
X63100000Y-52600000D03*
%TO.N,21*%
X63700000Y-49300000D03*
%TO.N,23*%
X64200000Y-52600000D03*
%TO.N,25*%
X64693886Y-49189569D03*
%TO.N,27*%
X65200003Y-52600000D03*
%TO.N,29*%
X65693821Y-49201080D03*
%TO.N,31*%
X67100000Y-52500000D03*
%TO.N,33*%
X67599997Y-49400000D03*
%TO.N,35*%
X68100000Y-52500000D03*
%TO.N,37*%
X68600000Y-49400000D03*
%TO.N,39*%
X69100000Y-52500000D03*
%TO.N,41*%
X69700000Y-49100000D03*
%TO.N,43*%
X70100000Y-52500000D03*
%TO.N,45*%
X71200000Y-49200000D03*
%TO.N,47*%
X71100000Y-52500000D03*
%TO.N,49*%
X73200000Y-49200000D03*
%TO.N,51*%
X73200000Y-52600000D03*
%TO.N,53*%
X74200000Y-49200000D03*
%TO.N,55*%
X74200000Y-52600000D03*
%TO.N,57*%
X75200000Y-49200000D03*
%TO.N,59*%
X75200003Y-52600000D03*
%TO.N,61*%
X76200000Y-49200000D03*
%TO.N,63*%
X76300000Y-52700000D03*
%TO.N,65*%
X77200003Y-49200000D03*
%TO.N,67*%
X77700000Y-53000000D03*
%TO.N,69*%
X79200000Y-49200000D03*
%TO.N,71*%
X79000000Y-53000000D03*
%TO.N,73*%
X80192280Y-49075965D03*
%TO.N,75*%
X80000000Y-53100000D03*
%TO.N,77*%
X81200003Y-49200000D03*
%TO.N,79*%
X81200000Y-53200000D03*
%TO.N,GND*%
X60080787Y-53304945D03*
X66115224Y-53104616D03*
X66300000Y-55300000D03*
X60200000Y-55400000D03*
X72300000Y-55500000D03*
X72300000Y-53100000D03*
X78350122Y-52239959D03*
X80500000Y-55200000D03*
X60100000Y-94900000D03*
X78800000Y-94900000D03*
X76400000Y-94000000D03*
X80700000Y-93900000D03*
X80800000Y-95900000D03*
X77100000Y-96000000D03*
X58900000Y-93300000D03*
X60900000Y-93400000D03*
X63000000Y-94500000D03*
X59800000Y-96100000D03*
X60400000Y-69900000D03*
X82500000Y-63900000D03*
X82400000Y-60800000D03*
X56300000Y-61500000D03*
X56300000Y-63800000D03*
%TD*%
D15*
%TO.N,1*%
X57374999Y-49625001D02*
X57600000Y-49400000D01*
X60900000Y-73300000D02*
X57600000Y-73300000D01*
X57075001Y-49924999D02*
X57075001Y-56275001D01*
X57600000Y-49400000D02*
X57075001Y-49924999D01*
X57100000Y-72800000D02*
X57500000Y-73200000D01*
X57100000Y-56300000D02*
X57100000Y-72800000D01*
X57075001Y-56275001D02*
X57100000Y-56300000D01*
X57500000Y-73200000D02*
X57374999Y-73074999D01*
X57600000Y-73300000D02*
X57500000Y-73200000D01*
%TO.N,3*%
X58100000Y-52600000D02*
X58100000Y-63900000D01*
X58100000Y-63900000D02*
X65200000Y-71000000D01*
X65200000Y-71000000D02*
X65200000Y-72700000D01*
X64600000Y-73300000D02*
X62900000Y-73300000D01*
X65200000Y-72700000D02*
X64600000Y-73300000D01*
%TO.N,5*%
X58700000Y-49263590D02*
X58700000Y-49400000D01*
X58800000Y-75300000D02*
X60900000Y-75300000D01*
X55324999Y-71824999D02*
X58800000Y-75300000D01*
X55324999Y-50601999D02*
X55324999Y-71824999D01*
X57251999Y-48674999D02*
X55324999Y-50601999D01*
X57948001Y-48674999D02*
X57251999Y-48674999D01*
X58673002Y-49400000D02*
X57948001Y-48674999D01*
X58700000Y-49400000D02*
X58673002Y-49400000D01*
%TO.N,7*%
X63854594Y-75300000D02*
X65650010Y-73504584D01*
X65650010Y-73504584D02*
X65650009Y-70813599D01*
X62900000Y-75300000D02*
X63854594Y-75300000D01*
X59200000Y-64363590D02*
X59200000Y-52600000D01*
X65650009Y-70813599D02*
X59200000Y-64363590D01*
%TO.N,9*%
X58800000Y-77300000D02*
X60900000Y-77300000D01*
X54874989Y-73374989D02*
X58250000Y-76750000D01*
X54874989Y-50415599D02*
X54874989Y-73374989D01*
X59090674Y-48224989D02*
X57065598Y-48224990D01*
X57065598Y-48224990D02*
X54874989Y-50415599D01*
X59700000Y-48834315D02*
X59090674Y-48224989D01*
X59700000Y-49400000D02*
X59700000Y-48834315D01*
X58250000Y-76750000D02*
X58800000Y-77300000D01*
X57899980Y-76399980D02*
X58250000Y-76750000D01*
%TO.N,11*%
X66100018Y-74099982D02*
X62900000Y-77300000D01*
X66100018Y-70627200D02*
X66100018Y-74099982D01*
X61100000Y-65627182D02*
X66100018Y-70627200D01*
X61100000Y-52600000D02*
X61100000Y-65627182D01*
%TO.N,13*%
X58800000Y-79300000D02*
X60900000Y-79300000D01*
X54424979Y-74924979D02*
X58050000Y-78550000D01*
X54424979Y-50229199D02*
X54424979Y-74924979D01*
X60074981Y-47774981D02*
X56879197Y-47774981D01*
X61600000Y-49300000D02*
X60074981Y-47774981D01*
X58050000Y-78550000D02*
X58800000Y-79300000D01*
X56879197Y-47774981D02*
X54424979Y-50229199D01*
X57449970Y-77949970D02*
X58050000Y-78550000D01*
%TO.N,15*%
X66550028Y-75649972D02*
X62900000Y-79300000D01*
X66550028Y-70440800D02*
X66550028Y-75649972D01*
X62100000Y-65990772D02*
X66550028Y-70440800D01*
X62100000Y-52600000D02*
X62100000Y-65990772D01*
%TO.N,17*%
X58800000Y-81300000D02*
X60900000Y-81300000D01*
X53974969Y-76474969D02*
X58800000Y-81300000D01*
X56692796Y-47324972D02*
X53974969Y-50042799D01*
X53974969Y-50042799D02*
X53974969Y-76474969D01*
X60724972Y-47324972D02*
X56692796Y-47324972D01*
X62700000Y-49300000D02*
X60724972Y-47324972D01*
%TO.N,19*%
X63100000Y-52600000D02*
X63100000Y-66354362D01*
X67000038Y-77199962D02*
X62900000Y-81300000D01*
X67000038Y-70254400D02*
X67000038Y-77199962D01*
X63100000Y-66354362D02*
X67000038Y-70254400D01*
%TO.N,21*%
X58800000Y-83300000D02*
X60900000Y-83300000D01*
X53524959Y-78024959D02*
X58800000Y-83300000D01*
X53524959Y-49856399D02*
X53524959Y-78024959D01*
X56506395Y-46874963D02*
X53524959Y-49856399D01*
X61347965Y-46874963D02*
X56506395Y-46874963D01*
X63700000Y-49226998D02*
X61347965Y-46874963D01*
X63700000Y-49300000D02*
X63700000Y-49226998D01*
%TO.N,23*%
X67450048Y-78749952D02*
X62900000Y-83300000D01*
X64200000Y-66817952D02*
X67450048Y-70068000D01*
X67450048Y-70068000D02*
X67450048Y-78749952D01*
X64200000Y-52600000D02*
X64200000Y-66817952D01*
%TO.N,25*%
X60900000Y-85300000D02*
X58800000Y-85300000D01*
X53074949Y-79574949D02*
X54800000Y-81300000D01*
X56319994Y-46424954D02*
X53074949Y-49669999D01*
X61929270Y-46424953D02*
X56319994Y-46424954D01*
X64693886Y-49189569D02*
X61929270Y-46424953D01*
X53074949Y-49669999D02*
X53074949Y-79574949D01*
X54800000Y-81300000D02*
X54649991Y-81149991D01*
X58800000Y-85300000D02*
X54800000Y-81300000D01*
%TO.N,27*%
X67900058Y-80299942D02*
X62900000Y-85300000D01*
X67900058Y-69881600D02*
X67900058Y-80299942D01*
X65200003Y-67181545D02*
X67900058Y-69881600D01*
X65200003Y-52600000D02*
X65200003Y-67181545D01*
%TO.N,29*%
X58800000Y-87300000D02*
X60900000Y-87300000D01*
X52624939Y-81124939D02*
X54350000Y-82850000D01*
X56133593Y-45974945D02*
X52624939Y-49483599D01*
X63033370Y-45974945D02*
X56133593Y-45974945D01*
X52624939Y-49483599D02*
X52624939Y-81124939D01*
X65693821Y-48635395D02*
X63033370Y-45974945D01*
X65693821Y-49201080D02*
X65693821Y-48635395D01*
X54350000Y-82850000D02*
X58800000Y-87300000D01*
X54199981Y-82699981D02*
X54350000Y-82850000D01*
%TO.N,31*%
X68350068Y-81849932D02*
X62900000Y-87300000D01*
X68350068Y-69695200D02*
X68350068Y-81849932D01*
X67100000Y-68445132D02*
X68350068Y-69695200D01*
X67100000Y-52500000D02*
X67100000Y-68445132D01*
%TO.N,33*%
X58800000Y-89300000D02*
X60900000Y-89300000D01*
X52174929Y-82674929D02*
X58800000Y-89300000D01*
X52174929Y-49297199D02*
X52174929Y-82674929D01*
X55947192Y-45524936D02*
X52174929Y-49297199D01*
X63724932Y-45524935D02*
X55947192Y-45524936D01*
X67599997Y-49400000D02*
X63724932Y-45524935D01*
%TO.N,35*%
X68800078Y-69508800D02*
X68800078Y-83399922D01*
X68100000Y-68808722D02*
X68800078Y-69508800D01*
X68800078Y-83399922D02*
X62900000Y-89300000D01*
X68100000Y-52500000D02*
X68100000Y-68808722D01*
%TO.N,37*%
X60900000Y-91300000D02*
X58800000Y-91300000D01*
X51724919Y-84224919D02*
X53500000Y-86000000D01*
X51724919Y-49110799D02*
X51724919Y-84224919D01*
X55760791Y-45074927D02*
X51724919Y-49110799D01*
X64840612Y-45074927D02*
X55760791Y-45074927D01*
X68600000Y-48834315D02*
X64840612Y-45074927D01*
X68600000Y-49400000D02*
X68600000Y-48834315D01*
X53500000Y-86000000D02*
X58800000Y-91300000D01*
X53299961Y-85799961D02*
X53500000Y-86000000D01*
%TO.N,39*%
X69250088Y-84949912D02*
X62900000Y-91300000D01*
X69250088Y-69322400D02*
X69250088Y-84949912D01*
X69100000Y-69172312D02*
X69250088Y-69322400D01*
X69100000Y-52500000D02*
X69100000Y-69172312D01*
%TO.N,41*%
X87575087Y-83724911D02*
X79800000Y-91499998D01*
X87575087Y-49247397D02*
X87575087Y-83724911D01*
X83202612Y-44874924D02*
X87575087Y-49247397D01*
X74425076Y-44874924D02*
X83202612Y-44874924D01*
X69700000Y-49100000D02*
X70200000Y-49100000D01*
X70200000Y-49100000D02*
X74425076Y-44874924D01*
X70100000Y-49200000D02*
X70200000Y-49100000D01*
%TO.N,43*%
X77800000Y-91499998D02*
X72799998Y-91499998D01*
X70100000Y-88800000D02*
X70100000Y-52500000D01*
X72799998Y-91499998D02*
X70100000Y-88800000D01*
%TO.N,45*%
X83016211Y-45324933D02*
X75075067Y-45324933D01*
X87125077Y-49433797D02*
X83016211Y-45324933D01*
X87125077Y-82174921D02*
X87125077Y-49433797D01*
X75075067Y-45324933D02*
X71200000Y-49200000D01*
X79800000Y-89499998D02*
X87125077Y-82174921D01*
%TO.N,47*%
X77800000Y-89499998D02*
X73699998Y-89499998D01*
X71100000Y-86900000D02*
X71100000Y-52500000D01*
X73699998Y-89499998D02*
X71100000Y-86900000D01*
%TO.N,49*%
X86675068Y-80624930D02*
X79800000Y-87499998D01*
X86675068Y-49620198D02*
X86675068Y-80624930D01*
X82829811Y-45774943D02*
X86675068Y-49620198D01*
X76059372Y-45774943D02*
X82829811Y-45774943D01*
X73200000Y-48634315D02*
X76059372Y-45774943D01*
X73200000Y-49200000D02*
X73200000Y-48634315D01*
%TO.N,51*%
X74399998Y-87499998D02*
X77800000Y-87499998D01*
X73200000Y-86300000D02*
X74399998Y-87499998D01*
X73200000Y-52600000D02*
X73200000Y-86300000D01*
%TO.N,53*%
X74200000Y-48327180D02*
X74200000Y-49200000D01*
X76302229Y-46224951D02*
X74200000Y-48327180D01*
X82643410Y-46224952D02*
X76302229Y-46224951D01*
X86225058Y-49806598D02*
X82643410Y-46224952D01*
X86225058Y-79074940D02*
X86225058Y-49806598D01*
X79800000Y-85499998D02*
X86225058Y-79074940D01*
%TO.N,55*%
X77800000Y-85499998D02*
X74999998Y-85499998D01*
X74999998Y-85499998D02*
X74799998Y-85499998D01*
X74200000Y-84900000D02*
X74799998Y-85499998D01*
X74200000Y-52600000D02*
X74200000Y-84900000D01*
%TO.N,57*%
X85775049Y-77524949D02*
X79800000Y-83499998D01*
X85775049Y-49992999D02*
X85775049Y-77524949D01*
X82457011Y-46674961D02*
X85775049Y-49992999D01*
X76488630Y-46674960D02*
X82457011Y-46674961D01*
X75200000Y-47963590D02*
X76488630Y-46674960D01*
X75200000Y-49200000D02*
X75200000Y-47963590D01*
%TO.N,59*%
X74999960Y-82399960D02*
X76099998Y-83499998D01*
X74999960Y-53363630D02*
X74999960Y-82399960D01*
X75200003Y-53163587D02*
X74999960Y-53363630D01*
X75200003Y-52600000D02*
X75200003Y-53163587D01*
X77800000Y-83499998D02*
X76099998Y-83499998D01*
%TO.N,61*%
X76200000Y-47600000D02*
X76200000Y-49200000D01*
X76675030Y-47124970D02*
X76200000Y-47600000D01*
X82270610Y-47124970D02*
X76675030Y-47124970D01*
X85325039Y-50179399D02*
X82270610Y-47124970D01*
X85325039Y-75974959D02*
X85325039Y-50179399D01*
X79800000Y-81499998D02*
X85325039Y-75974959D01*
%TO.N,63*%
X77800000Y-81499998D02*
X75449970Y-79149968D01*
X75449970Y-53550030D02*
X76300000Y-52700000D01*
X75449970Y-79149968D02*
X75449970Y-53550030D01*
%TO.N,65*%
X84875030Y-74424968D02*
X79800000Y-79499998D01*
X84875030Y-50365800D02*
X84875030Y-74424968D01*
X82084210Y-47574980D02*
X84875030Y-50365800D01*
X78825023Y-47574980D02*
X82084210Y-47574980D01*
X77200003Y-49200000D02*
X78825023Y-47574980D01*
%TO.N,67*%
X75899980Y-77599978D02*
X77800000Y-79499998D01*
X75899980Y-54800020D02*
X75899980Y-77599978D01*
X77700000Y-53000000D02*
X75899980Y-54800020D01*
%TO.N,69*%
X79200000Y-48634315D02*
X79200000Y-49200000D01*
X79809326Y-48024989D02*
X79200000Y-48634315D01*
X81897809Y-48024989D02*
X79809326Y-48024989D01*
X84425020Y-50552200D02*
X81897809Y-48024989D01*
X84425020Y-72874978D02*
X84425020Y-50552200D01*
X79800000Y-77499998D02*
X84425020Y-72874978D01*
%TO.N,71*%
X76349990Y-55650010D02*
X79000000Y-53000000D01*
X76349990Y-76049988D02*
X76349990Y-55650010D01*
X77800000Y-77499998D02*
X76349990Y-76049988D01*
%TO.N,73*%
X80754594Y-75499998D02*
X79800000Y-75499998D01*
X83975011Y-72279581D02*
X80754594Y-75499998D01*
X83975011Y-50738601D02*
X83975011Y-72279581D01*
X80359316Y-48474999D02*
X81711409Y-48474999D01*
X81711409Y-48474999D02*
X83975011Y-50738601D01*
X80200000Y-49200000D02*
X80200000Y-48634315D01*
X80192280Y-48642034D02*
X80267157Y-48567157D01*
X80192280Y-49075965D02*
X80192280Y-48642034D01*
X80267157Y-48567157D02*
X80359316Y-48474999D01*
X80200000Y-48634315D02*
X80267157Y-48567157D01*
%TO.N,75*%
X76799999Y-74499997D02*
X77800000Y-75499998D01*
X76799999Y-56300001D02*
X76799999Y-74499997D01*
X80000000Y-53100000D02*
X76799999Y-56300001D01*
%TO.N,77*%
X79800000Y-73499998D02*
X81500002Y-73499998D01*
X83525001Y-71474999D02*
X83525001Y-50925001D01*
X81500002Y-73499998D02*
X83525001Y-71474999D01*
X81800000Y-49200000D02*
X81200003Y-49200000D01*
X83525001Y-50925001D02*
X81800000Y-49200000D01*
%TO.N,79*%
X77800000Y-56600000D02*
X81200000Y-53200000D01*
X77800000Y-73499998D02*
X77800000Y-56600000D01*
%TO.N,GND*%
X60080787Y-53019213D02*
X60080787Y-53304945D01*
X72300000Y-55400000D02*
X72300000Y-55500000D01*
%TD*%
D16*
%TO.N,GND*%
X87810223Y-38489831D02*
X87422982Y-38729976D01*
X87162359Y-39223877D01*
X87003099Y-39759133D01*
X86951322Y-40315174D01*
X87009019Y-40870632D01*
X87173972Y-41404161D01*
X87422982Y-41870024D01*
X87810225Y-42110170D01*
X89620395Y-40300000D01*
X89606253Y-40285858D01*
X89785858Y-40106253D01*
X89800000Y-40120395D01*
X89814143Y-40106253D01*
X89993748Y-40285858D01*
X89979605Y-40300000D01*
X89993748Y-40314143D01*
X89814143Y-40493748D01*
X89800000Y-40479605D01*
X87989830Y-42289775D01*
X88229976Y-42677018D01*
X88723877Y-42937641D01*
X89259133Y-43096901D01*
X89815174Y-43148678D01*
X90370632Y-43090981D01*
X90904161Y-42926028D01*
X91370024Y-42677018D01*
X91610169Y-42289777D01*
X91640000Y-42319608D01*
X91640001Y-124180391D01*
X91610169Y-124210223D01*
X91370024Y-123822982D01*
X90876123Y-123562359D01*
X90340867Y-123403099D01*
X89784826Y-123351322D01*
X89229368Y-123409019D01*
X88695839Y-123573972D01*
X88229976Y-123822982D01*
X87989830Y-124210225D01*
X89800000Y-126020395D01*
X89814143Y-126006253D01*
X89993748Y-126185858D01*
X89979605Y-126200000D01*
X89993748Y-126214143D01*
X89814143Y-126393748D01*
X89800000Y-126379605D01*
X89785858Y-126393748D01*
X89606253Y-126214143D01*
X89620395Y-126200000D01*
X87810225Y-124389830D01*
X87422982Y-124629976D01*
X87162359Y-125123877D01*
X87003099Y-125659133D01*
X86951322Y-126215174D01*
X87009019Y-126770632D01*
X87173972Y-127304161D01*
X87422982Y-127770024D01*
X87810223Y-128010169D01*
X87780392Y-128040000D01*
X51419608Y-128040000D01*
X51389777Y-128010169D01*
X51777018Y-127770024D01*
X52037641Y-127276123D01*
X52196901Y-126740867D01*
X52248678Y-126184826D01*
X52190981Y-125629368D01*
X52026028Y-125095839D01*
X51777018Y-124629976D01*
X51389775Y-124389830D01*
X49579605Y-126200000D01*
X49593748Y-126214143D01*
X49414143Y-126393748D01*
X49400000Y-126379605D01*
X49385858Y-126393748D01*
X49206253Y-126214143D01*
X49220395Y-126200000D01*
X49206253Y-126185858D01*
X49385858Y-126006253D01*
X49400000Y-126020395D01*
X51210170Y-124210225D01*
X50970024Y-123822982D01*
X50476123Y-123562359D01*
X49940867Y-123403099D01*
X49384826Y-123351322D01*
X48829368Y-123409019D01*
X48295839Y-123573972D01*
X47829976Y-123822982D01*
X47589831Y-124210223D01*
X47560000Y-124180392D01*
X47560000Y-98525000D01*
X59586928Y-98525000D01*
X59586928Y-99875000D01*
X59599188Y-99999482D01*
X59635498Y-100119180D01*
X59694463Y-100229494D01*
X59773815Y-100326185D01*
X59860697Y-100397487D01*
X59739093Y-100579482D01*
X59640342Y-100817887D01*
X59590000Y-101070976D01*
X59590000Y-101329024D01*
X59640342Y-101582113D01*
X59739093Y-101820518D01*
X59882456Y-102035077D01*
X60047379Y-102200000D01*
X59882456Y-102364923D01*
X59739093Y-102579482D01*
X59640342Y-102817887D01*
X59590000Y-103070976D01*
X59590000Y-103329024D01*
X59640342Y-103582113D01*
X59739093Y-103820518D01*
X59882456Y-104035077D01*
X60047379Y-104200000D01*
X59882456Y-104364923D01*
X59739093Y-104579482D01*
X59640342Y-104817887D01*
X59590000Y-105070976D01*
X59590000Y-105329024D01*
X59640342Y-105582113D01*
X59739093Y-105820518D01*
X59882456Y-106035077D01*
X60047379Y-106200000D01*
X59882456Y-106364923D01*
X59739093Y-106579482D01*
X59640342Y-106817887D01*
X59590000Y-107070976D01*
X59590000Y-107329024D01*
X59640342Y-107582113D01*
X59739093Y-107820518D01*
X59882456Y-108035077D01*
X60047379Y-108200000D01*
X59882456Y-108364923D01*
X59739093Y-108579482D01*
X59640342Y-108817887D01*
X59590000Y-109070976D01*
X59590000Y-109329024D01*
X59640342Y-109582113D01*
X59739093Y-109820518D01*
X59882456Y-110035077D01*
X60047379Y-110200000D01*
X59882456Y-110364923D01*
X59739093Y-110579482D01*
X59640342Y-110817887D01*
X59590000Y-111070976D01*
X59590000Y-111329024D01*
X59640342Y-111582113D01*
X59739093Y-111820518D01*
X59882456Y-112035077D01*
X60047379Y-112200000D01*
X59882456Y-112364923D01*
X59739093Y-112579482D01*
X59640342Y-112817887D01*
X59590000Y-113070976D01*
X59590000Y-113329024D01*
X59640342Y-113582113D01*
X59739093Y-113820518D01*
X59882456Y-114035077D01*
X60047379Y-114200000D01*
X59882456Y-114364923D01*
X59739093Y-114579482D01*
X59640342Y-114817887D01*
X59590000Y-115070976D01*
X59590000Y-115329024D01*
X59640342Y-115582113D01*
X59739093Y-115820518D01*
X59882456Y-116035077D01*
X60047379Y-116200000D01*
X59882456Y-116364923D01*
X59739093Y-116579482D01*
X59640342Y-116817887D01*
X59590000Y-117070976D01*
X59590000Y-117329024D01*
X59640342Y-117582113D01*
X59739093Y-117820518D01*
X59882456Y-118035077D01*
X60064923Y-118217544D01*
X60279482Y-118360907D01*
X60517887Y-118459658D01*
X60770976Y-118510000D01*
X61029024Y-118510000D01*
X61282113Y-118459658D01*
X61520518Y-118360907D01*
X61735077Y-118217544D01*
X61900000Y-118052621D01*
X62064923Y-118217544D01*
X62279482Y-118360907D01*
X62517887Y-118459658D01*
X62770976Y-118510000D01*
X63029024Y-118510000D01*
X63282113Y-118459658D01*
X63520518Y-118360907D01*
X63735077Y-118217544D01*
X63917544Y-118035077D01*
X64060907Y-117820518D01*
X64159658Y-117582113D01*
X64210000Y-117329024D01*
X64210000Y-117070976D01*
X64159658Y-116817887D01*
X64060907Y-116579482D01*
X63917544Y-116364923D01*
X63752621Y-116200000D01*
X63917544Y-116035077D01*
X64060907Y-115820518D01*
X64159658Y-115582113D01*
X64210000Y-115329024D01*
X64210000Y-115070976D01*
X64159658Y-114817887D01*
X64060907Y-114579482D01*
X63917544Y-114364923D01*
X63752621Y-114200000D01*
X63917544Y-114035077D01*
X64060907Y-113820518D01*
X64159658Y-113582113D01*
X64210000Y-113329024D01*
X64210000Y-113070976D01*
X64159658Y-112817887D01*
X64060907Y-112579482D01*
X63917544Y-112364923D01*
X63752621Y-112200000D01*
X63917544Y-112035077D01*
X64060907Y-111820518D01*
X64159658Y-111582113D01*
X64210000Y-111329024D01*
X64210000Y-111070976D01*
X64159658Y-110817887D01*
X64060907Y-110579482D01*
X63917544Y-110364923D01*
X63752621Y-110200000D01*
X63917544Y-110035077D01*
X64060907Y-109820518D01*
X64159658Y-109582113D01*
X64210000Y-109329024D01*
X64210000Y-109070976D01*
X64159658Y-108817887D01*
X64060907Y-108579482D01*
X63917544Y-108364923D01*
X63752621Y-108200000D01*
X63917544Y-108035077D01*
X64060907Y-107820518D01*
X64159658Y-107582113D01*
X64210000Y-107329024D01*
X64210000Y-107070976D01*
X64159658Y-106817887D01*
X64060907Y-106579482D01*
X63917544Y-106364923D01*
X63752621Y-106200000D01*
X63917544Y-106035077D01*
X64060907Y-105820518D01*
X64159658Y-105582113D01*
X64210000Y-105329024D01*
X64210000Y-105070976D01*
X64159658Y-104817887D01*
X64060907Y-104579482D01*
X63917544Y-104364923D01*
X63752621Y-104200000D01*
X63917544Y-104035077D01*
X64060907Y-103820518D01*
X64159658Y-103582113D01*
X64210000Y-103329024D01*
X64210000Y-103070976D01*
X64159658Y-102817887D01*
X64060907Y-102579482D01*
X63917544Y-102364923D01*
X63752621Y-102200000D01*
X63917544Y-102035077D01*
X64060907Y-101820518D01*
X64159658Y-101582113D01*
X64210000Y-101329024D01*
X64210000Y-101070976D01*
X64159658Y-100817887D01*
X64060907Y-100579482D01*
X63917544Y-100364923D01*
X63752621Y-100200000D01*
X63917544Y-100035077D01*
X64060907Y-99820518D01*
X64159658Y-99582113D01*
X64210000Y-99329024D01*
X64210000Y-99070976D01*
X64159658Y-98817887D01*
X64060907Y-98579482D01*
X64024504Y-98525000D01*
X76486928Y-98525000D01*
X76486928Y-99875000D01*
X76499188Y-99999482D01*
X76535498Y-100119180D01*
X76594463Y-100229494D01*
X76673815Y-100326185D01*
X76760697Y-100397487D01*
X76639093Y-100579482D01*
X76540342Y-100817887D01*
X76490000Y-101070976D01*
X76490000Y-101329024D01*
X76540342Y-101582113D01*
X76639093Y-101820518D01*
X76782456Y-102035077D01*
X76947379Y-102200000D01*
X76782456Y-102364923D01*
X76639093Y-102579482D01*
X76540342Y-102817887D01*
X76490000Y-103070976D01*
X76490000Y-103329024D01*
X76540342Y-103582113D01*
X76639093Y-103820518D01*
X76782456Y-104035077D01*
X76947379Y-104200000D01*
X76782456Y-104364923D01*
X76639093Y-104579482D01*
X76540342Y-104817887D01*
X76490000Y-105070976D01*
X76490000Y-105329024D01*
X76540342Y-105582113D01*
X76639093Y-105820518D01*
X76782456Y-106035077D01*
X76947379Y-106200000D01*
X76782456Y-106364923D01*
X76639093Y-106579482D01*
X76540342Y-106817887D01*
X76490000Y-107070976D01*
X76490000Y-107329024D01*
X76540342Y-107582113D01*
X76639093Y-107820518D01*
X76782456Y-108035077D01*
X76947379Y-108200000D01*
X76782456Y-108364923D01*
X76639093Y-108579482D01*
X76540342Y-108817887D01*
X76490000Y-109070976D01*
X76490000Y-109329024D01*
X76540342Y-109582113D01*
X76639093Y-109820518D01*
X76782456Y-110035077D01*
X76947379Y-110200000D01*
X76782456Y-110364923D01*
X76639093Y-110579482D01*
X76540342Y-110817887D01*
X76490000Y-111070976D01*
X76490000Y-111329024D01*
X76540342Y-111582113D01*
X76639093Y-111820518D01*
X76782456Y-112035077D01*
X76947379Y-112200000D01*
X76782456Y-112364923D01*
X76639093Y-112579482D01*
X76540342Y-112817887D01*
X76490000Y-113070976D01*
X76490000Y-113329024D01*
X76540342Y-113582113D01*
X76639093Y-113820518D01*
X76782456Y-114035077D01*
X76947379Y-114200000D01*
X76782456Y-114364923D01*
X76639093Y-114579482D01*
X76540342Y-114817887D01*
X76490000Y-115070976D01*
X76490000Y-115329024D01*
X76540342Y-115582113D01*
X76639093Y-115820518D01*
X76782456Y-116035077D01*
X76947379Y-116200000D01*
X76782456Y-116364923D01*
X76639093Y-116579482D01*
X76540342Y-116817887D01*
X76490000Y-117070976D01*
X76490000Y-117329024D01*
X76540342Y-117582113D01*
X76639093Y-117820518D01*
X76782456Y-118035077D01*
X76964923Y-118217544D01*
X77179482Y-118360907D01*
X77417887Y-118459658D01*
X77670976Y-118510000D01*
X77929024Y-118510000D01*
X78182113Y-118459658D01*
X78420518Y-118360907D01*
X78635077Y-118217544D01*
X78800000Y-118052621D01*
X78964923Y-118217544D01*
X79179482Y-118360907D01*
X79417887Y-118459658D01*
X79670976Y-118510000D01*
X79929024Y-118510000D01*
X80182113Y-118459658D01*
X80420518Y-118360907D01*
X80635077Y-118217544D01*
X80817544Y-118035077D01*
X80960907Y-117820518D01*
X81059658Y-117582113D01*
X81110000Y-117329024D01*
X81110000Y-117070976D01*
X81059658Y-116817887D01*
X80960907Y-116579482D01*
X80817544Y-116364923D01*
X80652621Y-116200000D01*
X80817544Y-116035077D01*
X80960907Y-115820518D01*
X81059658Y-115582113D01*
X81110000Y-115329024D01*
X81110000Y-115070976D01*
X81059658Y-114817887D01*
X80960907Y-114579482D01*
X80817544Y-114364923D01*
X80652621Y-114200000D01*
X80817544Y-114035077D01*
X80960907Y-113820518D01*
X81059658Y-113582113D01*
X81110000Y-113329024D01*
X81110000Y-113070976D01*
X81059658Y-112817887D01*
X80960907Y-112579482D01*
X80817544Y-112364923D01*
X80652621Y-112200000D01*
X80817544Y-112035077D01*
X80960907Y-111820518D01*
X81059658Y-111582113D01*
X81110000Y-111329024D01*
X81110000Y-111070976D01*
X81059658Y-110817887D01*
X80960907Y-110579482D01*
X80817544Y-110364923D01*
X80652621Y-110200000D01*
X80817544Y-110035077D01*
X80960907Y-109820518D01*
X81059658Y-109582113D01*
X81110000Y-109329024D01*
X81110000Y-109070976D01*
X81059658Y-108817887D01*
X80960907Y-108579482D01*
X80817544Y-108364923D01*
X80652621Y-108200000D01*
X80817544Y-108035077D01*
X80960907Y-107820518D01*
X81059658Y-107582113D01*
X81110000Y-107329024D01*
X81110000Y-107070976D01*
X81059658Y-106817887D01*
X80960907Y-106579482D01*
X80817544Y-106364923D01*
X80652621Y-106200000D01*
X80817544Y-106035077D01*
X80960907Y-105820518D01*
X81059658Y-105582113D01*
X81110000Y-105329024D01*
X81110000Y-105070976D01*
X81059658Y-104817887D01*
X80960907Y-104579482D01*
X80817544Y-104364923D01*
X80652621Y-104200000D01*
X80817544Y-104035077D01*
X80960907Y-103820518D01*
X81059658Y-103582113D01*
X81110000Y-103329024D01*
X81110000Y-103070976D01*
X81059658Y-102817887D01*
X80960907Y-102579482D01*
X80817544Y-102364923D01*
X80652621Y-102200000D01*
X80817544Y-102035077D01*
X80960907Y-101820518D01*
X81059658Y-101582113D01*
X81110000Y-101329024D01*
X81110000Y-101070976D01*
X81059658Y-100817887D01*
X80960907Y-100579482D01*
X80817544Y-100364923D01*
X80652621Y-100200000D01*
X80817544Y-100035077D01*
X80960907Y-99820518D01*
X81059658Y-99582113D01*
X81110000Y-99329024D01*
X81110000Y-99070976D01*
X81059658Y-98817887D01*
X80960907Y-98579482D01*
X80817544Y-98364923D01*
X80635077Y-98182456D01*
X80420518Y-98039093D01*
X80182113Y-97940342D01*
X79929024Y-97890000D01*
X79670976Y-97890000D01*
X79417887Y-97940342D01*
X79179482Y-98039093D01*
X78997487Y-98160697D01*
X78926185Y-98073815D01*
X78829494Y-97994463D01*
X78719180Y-97935498D01*
X78599482Y-97899188D01*
X78475000Y-97886928D01*
X77125000Y-97886928D01*
X77000518Y-97899188D01*
X76880820Y-97935498D01*
X76770506Y-97994463D01*
X76673815Y-98073815D01*
X76594463Y-98170506D01*
X76535498Y-98280820D01*
X76499188Y-98400518D01*
X76486928Y-98525000D01*
X64024504Y-98525000D01*
X63917544Y-98364923D01*
X63735077Y-98182456D01*
X63520518Y-98039093D01*
X63282113Y-97940342D01*
X63029024Y-97890000D01*
X62770976Y-97890000D01*
X62517887Y-97940342D01*
X62279482Y-98039093D01*
X62097487Y-98160697D01*
X62026185Y-98073815D01*
X61929494Y-97994463D01*
X61819180Y-97935498D01*
X61699482Y-97899188D01*
X61575000Y-97886928D01*
X60225000Y-97886928D01*
X60100518Y-97899188D01*
X59980820Y-97935498D01*
X59870506Y-97994463D01*
X59773815Y-98073815D01*
X59694463Y-98170506D01*
X59635498Y-98280820D01*
X59599188Y-98400518D01*
X59586928Y-98525000D01*
X47560000Y-98525000D01*
X47560000Y-49110799D01*
X50961243Y-49110799D01*
X50964919Y-49148121D01*
X50964920Y-84187586D01*
X50961243Y-84224919D01*
X50964920Y-84262252D01*
X50972204Y-84336201D01*
X50975917Y-84373904D01*
X51019373Y-84517165D01*
X51089945Y-84649195D01*
X51161120Y-84735921D01*
X51184919Y-84764920D01*
X51213917Y-84788718D01*
X52988997Y-86563799D01*
X52989003Y-86563804D01*
X58236201Y-91811003D01*
X58259999Y-91840001D01*
X58288997Y-91863799D01*
X58375723Y-91934974D01*
X58507753Y-92005546D01*
X58651014Y-92049003D01*
X58762667Y-92060000D01*
X58762677Y-92060000D01*
X58800000Y-92063676D01*
X58837323Y-92060000D01*
X59832291Y-92060000D01*
X59882456Y-92135077D01*
X60064923Y-92317544D01*
X60279482Y-92460907D01*
X60517887Y-92559658D01*
X60770976Y-92610000D01*
X61029024Y-92610000D01*
X61282113Y-92559658D01*
X61520518Y-92460907D01*
X61735077Y-92317544D01*
X61900000Y-92152621D01*
X62064923Y-92317544D01*
X62279482Y-92460907D01*
X62517887Y-92559658D01*
X62770976Y-92610000D01*
X63029024Y-92610000D01*
X63282113Y-92559658D01*
X63520518Y-92460907D01*
X63735077Y-92317544D01*
X63917544Y-92135077D01*
X64060907Y-91920518D01*
X64159658Y-91682113D01*
X64210000Y-91429024D01*
X64210000Y-91170976D01*
X64192385Y-91082417D01*
X69340000Y-85934802D01*
X69340000Y-88762678D01*
X69336324Y-88800000D01*
X69340000Y-88837322D01*
X69340000Y-88837332D01*
X69350997Y-88948985D01*
X69389441Y-89075721D01*
X69394454Y-89092246D01*
X69465026Y-89224276D01*
X69504871Y-89272826D01*
X69559999Y-89340001D01*
X69589003Y-89363804D01*
X72236199Y-92011001D01*
X72259997Y-92039999D01*
X72375722Y-92134972D01*
X72507751Y-92205544D01*
X72651012Y-92249001D01*
X72762665Y-92259998D01*
X72762673Y-92259998D01*
X72799998Y-92263674D01*
X72837323Y-92259998D01*
X76732291Y-92259998D01*
X76782456Y-92335075D01*
X76964923Y-92517542D01*
X77179482Y-92660905D01*
X77417887Y-92759656D01*
X77670976Y-92809998D01*
X77929024Y-92809998D01*
X78182113Y-92759656D01*
X78420518Y-92660905D01*
X78635077Y-92517542D01*
X78800000Y-92352619D01*
X78964923Y-92517542D01*
X79179482Y-92660905D01*
X79417887Y-92759656D01*
X79670976Y-92809998D01*
X79929024Y-92809998D01*
X80182113Y-92759656D01*
X80420518Y-92660905D01*
X80635077Y-92517542D01*
X80817544Y-92335075D01*
X80960907Y-92120516D01*
X81059658Y-91882111D01*
X81110000Y-91629022D01*
X81110000Y-91370974D01*
X81092385Y-91282415D01*
X88086095Y-84288706D01*
X88115088Y-84264912D01*
X88138882Y-84235919D01*
X88138886Y-84235915D01*
X88210060Y-84149188D01*
X88215456Y-84139093D01*
X88280633Y-84017158D01*
X88324090Y-83873897D01*
X88335087Y-83762244D01*
X88335087Y-83762235D01*
X88338763Y-83724912D01*
X88335087Y-83687589D01*
X88335087Y-49284719D01*
X88338763Y-49247396D01*
X88335087Y-49210073D01*
X88335087Y-49210064D01*
X88324090Y-49098411D01*
X88280633Y-48955150D01*
X88210061Y-48823121D01*
X88115088Y-48707396D01*
X88086091Y-48683599D01*
X83766416Y-44363927D01*
X83742613Y-44334923D01*
X83626888Y-44239950D01*
X83494859Y-44169378D01*
X83351598Y-44125921D01*
X83239945Y-44114924D01*
X83239934Y-44114924D01*
X83202612Y-44111248D01*
X83165289Y-44114924D01*
X74462401Y-44114924D01*
X74425076Y-44111248D01*
X74387751Y-44114924D01*
X74387743Y-44114924D01*
X74276090Y-44125921D01*
X74132829Y-44169378D01*
X74000800Y-44239950D01*
X73885075Y-44334923D01*
X73861277Y-44363921D01*
X70085709Y-48139490D01*
X70001898Y-48104774D01*
X69801939Y-48065000D01*
X69598061Y-48065000D01*
X69398102Y-48104774D01*
X69209744Y-48182795D01*
X69097969Y-48257481D01*
X65404416Y-44563930D01*
X65380613Y-44534926D01*
X65264888Y-44439953D01*
X65132859Y-44369381D01*
X64989598Y-44325924D01*
X64877945Y-44314927D01*
X64877934Y-44314927D01*
X64840612Y-44311251D01*
X64803290Y-44314927D01*
X55798114Y-44314927D01*
X55760791Y-44311251D01*
X55723468Y-44314927D01*
X55723458Y-44314927D01*
X55611805Y-44325924D01*
X55468544Y-44369381D01*
X55336514Y-44439953D01*
X55252874Y-44508595D01*
X55220790Y-44534926D01*
X55196992Y-44563924D01*
X51213922Y-48546995D01*
X51184918Y-48570798D01*
X51132791Y-48634315D01*
X51089945Y-48686523D01*
X51036668Y-48786197D01*
X51019373Y-48818553D01*
X50975916Y-48961814D01*
X50964919Y-49073467D01*
X50964919Y-49073477D01*
X50961243Y-49110799D01*
X47560000Y-49110799D01*
X47560000Y-42319608D01*
X47589831Y-42289777D01*
X47829976Y-42677018D01*
X48323877Y-42937641D01*
X48859133Y-43096901D01*
X49415174Y-43148678D01*
X49970632Y-43090981D01*
X50504161Y-42926028D01*
X50970024Y-42677018D01*
X51210170Y-42289775D01*
X49400000Y-40479605D01*
X49385858Y-40493748D01*
X49206253Y-40314143D01*
X49220395Y-40300000D01*
X49206253Y-40285858D01*
X49385858Y-40106253D01*
X49400000Y-40120395D01*
X49414143Y-40106253D01*
X49593748Y-40285858D01*
X49579605Y-40300000D01*
X51389775Y-42110170D01*
X51777018Y-41870024D01*
X52037641Y-41376123D01*
X52196901Y-40840867D01*
X52248678Y-40284826D01*
X52190981Y-39729368D01*
X52026028Y-39195839D01*
X51777018Y-38729976D01*
X51389777Y-38489831D01*
X51419608Y-38460000D01*
X87780392Y-38460000D01*
X87810223Y-38489831D01*
%TA.AperFunction,Conductor*%
D17*
G36*
X87810223Y-38489831D02*
G01*
X87422982Y-38729976D01*
X87162359Y-39223877D01*
X87003099Y-39759133D01*
X86951322Y-40315174D01*
X87009019Y-40870632D01*
X87173972Y-41404161D01*
X87422982Y-41870024D01*
X87810225Y-42110170D01*
X89620395Y-40300000D01*
X89606253Y-40285858D01*
X89785858Y-40106253D01*
X89800000Y-40120395D01*
X89814143Y-40106253D01*
X89993748Y-40285858D01*
X89979605Y-40300000D01*
X89993748Y-40314143D01*
X89814143Y-40493748D01*
X89800000Y-40479605D01*
X87989830Y-42289775D01*
X88229976Y-42677018D01*
X88723877Y-42937641D01*
X89259133Y-43096901D01*
X89815174Y-43148678D01*
X90370632Y-43090981D01*
X90904161Y-42926028D01*
X91370024Y-42677018D01*
X91610169Y-42289777D01*
X91640000Y-42319608D01*
X91640001Y-124180391D01*
X91610169Y-124210223D01*
X91370024Y-123822982D01*
X90876123Y-123562359D01*
X90340867Y-123403099D01*
X89784826Y-123351322D01*
X89229368Y-123409019D01*
X88695839Y-123573972D01*
X88229976Y-123822982D01*
X87989830Y-124210225D01*
X89800000Y-126020395D01*
X89814143Y-126006253D01*
X89993748Y-126185858D01*
X89979605Y-126200000D01*
X89993748Y-126214143D01*
X89814143Y-126393748D01*
X89800000Y-126379605D01*
X89785858Y-126393748D01*
X89606253Y-126214143D01*
X89620395Y-126200000D01*
X87810225Y-124389830D01*
X87422982Y-124629976D01*
X87162359Y-125123877D01*
X87003099Y-125659133D01*
X86951322Y-126215174D01*
X87009019Y-126770632D01*
X87173972Y-127304161D01*
X87422982Y-127770024D01*
X87810223Y-128010169D01*
X87780392Y-128040000D01*
X51419608Y-128040000D01*
X51389777Y-128010169D01*
X51777018Y-127770024D01*
X52037641Y-127276123D01*
X52196901Y-126740867D01*
X52248678Y-126184826D01*
X52190981Y-125629368D01*
X52026028Y-125095839D01*
X51777018Y-124629976D01*
X51389775Y-124389830D01*
X49579605Y-126200000D01*
X49593748Y-126214143D01*
X49414143Y-126393748D01*
X49400000Y-126379605D01*
X49385858Y-126393748D01*
X49206253Y-126214143D01*
X49220395Y-126200000D01*
X49206253Y-126185858D01*
X49385858Y-126006253D01*
X49400000Y-126020395D01*
X51210170Y-124210225D01*
X50970024Y-123822982D01*
X50476123Y-123562359D01*
X49940867Y-123403099D01*
X49384826Y-123351322D01*
X48829368Y-123409019D01*
X48295839Y-123573972D01*
X47829976Y-123822982D01*
X47589831Y-124210223D01*
X47560000Y-124180392D01*
X47560000Y-98525000D01*
X59586928Y-98525000D01*
X59586928Y-99875000D01*
X59599188Y-99999482D01*
X59635498Y-100119180D01*
X59694463Y-100229494D01*
X59773815Y-100326185D01*
X59860697Y-100397487D01*
X59739093Y-100579482D01*
X59640342Y-100817887D01*
X59590000Y-101070976D01*
X59590000Y-101329024D01*
X59640342Y-101582113D01*
X59739093Y-101820518D01*
X59882456Y-102035077D01*
X60047379Y-102200000D01*
X59882456Y-102364923D01*
X59739093Y-102579482D01*
X59640342Y-102817887D01*
X59590000Y-103070976D01*
X59590000Y-103329024D01*
X59640342Y-103582113D01*
X59739093Y-103820518D01*
X59882456Y-104035077D01*
X60047379Y-104200000D01*
X59882456Y-104364923D01*
X59739093Y-104579482D01*
X59640342Y-104817887D01*
X59590000Y-105070976D01*
X59590000Y-105329024D01*
X59640342Y-105582113D01*
X59739093Y-105820518D01*
X59882456Y-106035077D01*
X60047379Y-106200000D01*
X59882456Y-106364923D01*
X59739093Y-106579482D01*
X59640342Y-106817887D01*
X59590000Y-107070976D01*
X59590000Y-107329024D01*
X59640342Y-107582113D01*
X59739093Y-107820518D01*
X59882456Y-108035077D01*
X60047379Y-108200000D01*
X59882456Y-108364923D01*
X59739093Y-108579482D01*
X59640342Y-108817887D01*
X59590000Y-109070976D01*
X59590000Y-109329024D01*
X59640342Y-109582113D01*
X59739093Y-109820518D01*
X59882456Y-110035077D01*
X60047379Y-110200000D01*
X59882456Y-110364923D01*
X59739093Y-110579482D01*
X59640342Y-110817887D01*
X59590000Y-111070976D01*
X59590000Y-111329024D01*
X59640342Y-111582113D01*
X59739093Y-111820518D01*
X59882456Y-112035077D01*
X60047379Y-112200000D01*
X59882456Y-112364923D01*
X59739093Y-112579482D01*
X59640342Y-112817887D01*
X59590000Y-113070976D01*
X59590000Y-113329024D01*
X59640342Y-113582113D01*
X59739093Y-113820518D01*
X59882456Y-114035077D01*
X60047379Y-114200000D01*
X59882456Y-114364923D01*
X59739093Y-114579482D01*
X59640342Y-114817887D01*
X59590000Y-115070976D01*
X59590000Y-115329024D01*
X59640342Y-115582113D01*
X59739093Y-115820518D01*
X59882456Y-116035077D01*
X60047379Y-116200000D01*
X59882456Y-116364923D01*
X59739093Y-116579482D01*
X59640342Y-116817887D01*
X59590000Y-117070976D01*
X59590000Y-117329024D01*
X59640342Y-117582113D01*
X59739093Y-117820518D01*
X59882456Y-118035077D01*
X60064923Y-118217544D01*
X60279482Y-118360907D01*
X60517887Y-118459658D01*
X60770976Y-118510000D01*
X61029024Y-118510000D01*
X61282113Y-118459658D01*
X61520518Y-118360907D01*
X61735077Y-118217544D01*
X61900000Y-118052621D01*
X62064923Y-118217544D01*
X62279482Y-118360907D01*
X62517887Y-118459658D01*
X62770976Y-118510000D01*
X63029024Y-118510000D01*
X63282113Y-118459658D01*
X63520518Y-118360907D01*
X63735077Y-118217544D01*
X63917544Y-118035077D01*
X64060907Y-117820518D01*
X64159658Y-117582113D01*
X64210000Y-117329024D01*
X64210000Y-117070976D01*
X64159658Y-116817887D01*
X64060907Y-116579482D01*
X63917544Y-116364923D01*
X63752621Y-116200000D01*
X63917544Y-116035077D01*
X64060907Y-115820518D01*
X64159658Y-115582113D01*
X64210000Y-115329024D01*
X64210000Y-115070976D01*
X64159658Y-114817887D01*
X64060907Y-114579482D01*
X63917544Y-114364923D01*
X63752621Y-114200000D01*
X63917544Y-114035077D01*
X64060907Y-113820518D01*
X64159658Y-113582113D01*
X64210000Y-113329024D01*
X64210000Y-113070976D01*
X64159658Y-112817887D01*
X64060907Y-112579482D01*
X63917544Y-112364923D01*
X63752621Y-112200000D01*
X63917544Y-112035077D01*
X64060907Y-111820518D01*
X64159658Y-111582113D01*
X64210000Y-111329024D01*
X64210000Y-111070976D01*
X64159658Y-110817887D01*
X64060907Y-110579482D01*
X63917544Y-110364923D01*
X63752621Y-110200000D01*
X63917544Y-110035077D01*
X64060907Y-109820518D01*
X64159658Y-109582113D01*
X64210000Y-109329024D01*
X64210000Y-109070976D01*
X64159658Y-108817887D01*
X64060907Y-108579482D01*
X63917544Y-108364923D01*
X63752621Y-108200000D01*
X63917544Y-108035077D01*
X64060907Y-107820518D01*
X64159658Y-107582113D01*
X64210000Y-107329024D01*
X64210000Y-107070976D01*
X64159658Y-106817887D01*
X64060907Y-106579482D01*
X63917544Y-106364923D01*
X63752621Y-106200000D01*
X63917544Y-106035077D01*
X64060907Y-105820518D01*
X64159658Y-105582113D01*
X64210000Y-105329024D01*
X64210000Y-105070976D01*
X64159658Y-104817887D01*
X64060907Y-104579482D01*
X63917544Y-104364923D01*
X63752621Y-104200000D01*
X63917544Y-104035077D01*
X64060907Y-103820518D01*
X64159658Y-103582113D01*
X64210000Y-103329024D01*
X64210000Y-103070976D01*
X64159658Y-102817887D01*
X64060907Y-102579482D01*
X63917544Y-102364923D01*
X63752621Y-102200000D01*
X63917544Y-102035077D01*
X64060907Y-101820518D01*
X64159658Y-101582113D01*
X64210000Y-101329024D01*
X64210000Y-101070976D01*
X64159658Y-100817887D01*
X64060907Y-100579482D01*
X63917544Y-100364923D01*
X63752621Y-100200000D01*
X63917544Y-100035077D01*
X64060907Y-99820518D01*
X64159658Y-99582113D01*
X64210000Y-99329024D01*
X64210000Y-99070976D01*
X64159658Y-98817887D01*
X64060907Y-98579482D01*
X64024504Y-98525000D01*
X76486928Y-98525000D01*
X76486928Y-99875000D01*
X76499188Y-99999482D01*
X76535498Y-100119180D01*
X76594463Y-100229494D01*
X76673815Y-100326185D01*
X76760697Y-100397487D01*
X76639093Y-100579482D01*
X76540342Y-100817887D01*
X76490000Y-101070976D01*
X76490000Y-101329024D01*
X76540342Y-101582113D01*
X76639093Y-101820518D01*
X76782456Y-102035077D01*
X76947379Y-102200000D01*
X76782456Y-102364923D01*
X76639093Y-102579482D01*
X76540342Y-102817887D01*
X76490000Y-103070976D01*
X76490000Y-103329024D01*
X76540342Y-103582113D01*
X76639093Y-103820518D01*
X76782456Y-104035077D01*
X76947379Y-104200000D01*
X76782456Y-104364923D01*
X76639093Y-104579482D01*
X76540342Y-104817887D01*
X76490000Y-105070976D01*
X76490000Y-105329024D01*
X76540342Y-105582113D01*
X76639093Y-105820518D01*
X76782456Y-106035077D01*
X76947379Y-106200000D01*
X76782456Y-106364923D01*
X76639093Y-106579482D01*
X76540342Y-106817887D01*
X76490000Y-107070976D01*
X76490000Y-107329024D01*
X76540342Y-107582113D01*
X76639093Y-107820518D01*
X76782456Y-108035077D01*
X76947379Y-108200000D01*
X76782456Y-108364923D01*
X76639093Y-108579482D01*
X76540342Y-108817887D01*
X76490000Y-109070976D01*
X76490000Y-109329024D01*
X76540342Y-109582113D01*
X76639093Y-109820518D01*
X76782456Y-110035077D01*
X76947379Y-110200000D01*
X76782456Y-110364923D01*
X76639093Y-110579482D01*
X76540342Y-110817887D01*
X76490000Y-111070976D01*
X76490000Y-111329024D01*
X76540342Y-111582113D01*
X76639093Y-111820518D01*
X76782456Y-112035077D01*
X76947379Y-112200000D01*
X76782456Y-112364923D01*
X76639093Y-112579482D01*
X76540342Y-112817887D01*
X76490000Y-113070976D01*
X76490000Y-113329024D01*
X76540342Y-113582113D01*
X76639093Y-113820518D01*
X76782456Y-114035077D01*
X76947379Y-114200000D01*
X76782456Y-114364923D01*
X76639093Y-114579482D01*
X76540342Y-114817887D01*
X76490000Y-115070976D01*
X76490000Y-115329024D01*
X76540342Y-115582113D01*
X76639093Y-115820518D01*
X76782456Y-116035077D01*
X76947379Y-116200000D01*
X76782456Y-116364923D01*
X76639093Y-116579482D01*
X76540342Y-116817887D01*
X76490000Y-117070976D01*
X76490000Y-117329024D01*
X76540342Y-117582113D01*
X76639093Y-117820518D01*
X76782456Y-118035077D01*
X76964923Y-118217544D01*
X77179482Y-118360907D01*
X77417887Y-118459658D01*
X77670976Y-118510000D01*
X77929024Y-118510000D01*
X78182113Y-118459658D01*
X78420518Y-118360907D01*
X78635077Y-118217544D01*
X78800000Y-118052621D01*
X78964923Y-118217544D01*
X79179482Y-118360907D01*
X79417887Y-118459658D01*
X79670976Y-118510000D01*
X79929024Y-118510000D01*
X80182113Y-118459658D01*
X80420518Y-118360907D01*
X80635077Y-118217544D01*
X80817544Y-118035077D01*
X80960907Y-117820518D01*
X81059658Y-117582113D01*
X81110000Y-117329024D01*
X81110000Y-117070976D01*
X81059658Y-116817887D01*
X80960907Y-116579482D01*
X80817544Y-116364923D01*
X80652621Y-116200000D01*
X80817544Y-116035077D01*
X80960907Y-115820518D01*
X81059658Y-115582113D01*
X81110000Y-115329024D01*
X81110000Y-115070976D01*
X81059658Y-114817887D01*
X80960907Y-114579482D01*
X80817544Y-114364923D01*
X80652621Y-114200000D01*
X80817544Y-114035077D01*
X80960907Y-113820518D01*
X81059658Y-113582113D01*
X81110000Y-113329024D01*
X81110000Y-113070976D01*
X81059658Y-112817887D01*
X80960907Y-112579482D01*
X80817544Y-112364923D01*
X80652621Y-112200000D01*
X80817544Y-112035077D01*
X80960907Y-111820518D01*
X81059658Y-111582113D01*
X81110000Y-111329024D01*
X81110000Y-111070976D01*
X81059658Y-110817887D01*
X80960907Y-110579482D01*
X80817544Y-110364923D01*
X80652621Y-110200000D01*
X80817544Y-110035077D01*
X80960907Y-109820518D01*
X81059658Y-109582113D01*
X81110000Y-109329024D01*
X81110000Y-109070976D01*
X81059658Y-108817887D01*
X80960907Y-108579482D01*
X80817544Y-108364923D01*
X80652621Y-108200000D01*
X80817544Y-108035077D01*
X80960907Y-107820518D01*
X81059658Y-107582113D01*
X81110000Y-107329024D01*
X81110000Y-107070976D01*
X81059658Y-106817887D01*
X80960907Y-106579482D01*
X80817544Y-106364923D01*
X80652621Y-106200000D01*
X80817544Y-106035077D01*
X80960907Y-105820518D01*
X81059658Y-105582113D01*
X81110000Y-105329024D01*
X81110000Y-105070976D01*
X81059658Y-104817887D01*
X80960907Y-104579482D01*
X80817544Y-104364923D01*
X80652621Y-104200000D01*
X80817544Y-104035077D01*
X80960907Y-103820518D01*
X81059658Y-103582113D01*
X81110000Y-103329024D01*
X81110000Y-103070976D01*
X81059658Y-102817887D01*
X80960907Y-102579482D01*
X80817544Y-102364923D01*
X80652621Y-102200000D01*
X80817544Y-102035077D01*
X80960907Y-101820518D01*
X81059658Y-101582113D01*
X81110000Y-101329024D01*
X81110000Y-101070976D01*
X81059658Y-100817887D01*
X80960907Y-100579482D01*
X80817544Y-100364923D01*
X80652621Y-100200000D01*
X80817544Y-100035077D01*
X80960907Y-99820518D01*
X81059658Y-99582113D01*
X81110000Y-99329024D01*
X81110000Y-99070976D01*
X81059658Y-98817887D01*
X80960907Y-98579482D01*
X80817544Y-98364923D01*
X80635077Y-98182456D01*
X80420518Y-98039093D01*
X80182113Y-97940342D01*
X79929024Y-97890000D01*
X79670976Y-97890000D01*
X79417887Y-97940342D01*
X79179482Y-98039093D01*
X78997487Y-98160697D01*
X78926185Y-98073815D01*
X78829494Y-97994463D01*
X78719180Y-97935498D01*
X78599482Y-97899188D01*
X78475000Y-97886928D01*
X77125000Y-97886928D01*
X77000518Y-97899188D01*
X76880820Y-97935498D01*
X76770506Y-97994463D01*
X76673815Y-98073815D01*
X76594463Y-98170506D01*
X76535498Y-98280820D01*
X76499188Y-98400518D01*
X76486928Y-98525000D01*
X64024504Y-98525000D01*
X63917544Y-98364923D01*
X63735077Y-98182456D01*
X63520518Y-98039093D01*
X63282113Y-97940342D01*
X63029024Y-97890000D01*
X62770976Y-97890000D01*
X62517887Y-97940342D01*
X62279482Y-98039093D01*
X62097487Y-98160697D01*
X62026185Y-98073815D01*
X61929494Y-97994463D01*
X61819180Y-97935498D01*
X61699482Y-97899188D01*
X61575000Y-97886928D01*
X60225000Y-97886928D01*
X60100518Y-97899188D01*
X59980820Y-97935498D01*
X59870506Y-97994463D01*
X59773815Y-98073815D01*
X59694463Y-98170506D01*
X59635498Y-98280820D01*
X59599188Y-98400518D01*
X59586928Y-98525000D01*
X47560000Y-98525000D01*
X47560000Y-49110799D01*
X50961243Y-49110799D01*
X50964919Y-49148121D01*
X50964920Y-84187586D01*
X50961243Y-84224919D01*
X50964920Y-84262252D01*
X50972204Y-84336201D01*
X50975917Y-84373904D01*
X51019373Y-84517165D01*
X51089945Y-84649195D01*
X51161120Y-84735921D01*
X51184919Y-84764920D01*
X51213917Y-84788718D01*
X52988997Y-86563799D01*
X52989003Y-86563804D01*
X58236201Y-91811003D01*
X58259999Y-91840001D01*
X58288997Y-91863799D01*
X58375723Y-91934974D01*
X58507753Y-92005546D01*
X58651014Y-92049003D01*
X58762667Y-92060000D01*
X58762677Y-92060000D01*
X58800000Y-92063676D01*
X58837323Y-92060000D01*
X59832291Y-92060000D01*
X59882456Y-92135077D01*
X60064923Y-92317544D01*
X60279482Y-92460907D01*
X60517887Y-92559658D01*
X60770976Y-92610000D01*
X61029024Y-92610000D01*
X61282113Y-92559658D01*
X61520518Y-92460907D01*
X61735077Y-92317544D01*
X61900000Y-92152621D01*
X62064923Y-92317544D01*
X62279482Y-92460907D01*
X62517887Y-92559658D01*
X62770976Y-92610000D01*
X63029024Y-92610000D01*
X63282113Y-92559658D01*
X63520518Y-92460907D01*
X63735077Y-92317544D01*
X63917544Y-92135077D01*
X64060907Y-91920518D01*
X64159658Y-91682113D01*
X64210000Y-91429024D01*
X64210000Y-91170976D01*
X64192385Y-91082417D01*
X69340000Y-85934802D01*
X69340000Y-88762678D01*
X69336324Y-88800000D01*
X69340000Y-88837322D01*
X69340000Y-88837332D01*
X69350997Y-88948985D01*
X69389441Y-89075721D01*
X69394454Y-89092246D01*
X69465026Y-89224276D01*
X69504871Y-89272826D01*
X69559999Y-89340001D01*
X69589003Y-89363804D01*
X72236199Y-92011001D01*
X72259997Y-92039999D01*
X72375722Y-92134972D01*
X72507751Y-92205544D01*
X72651012Y-92249001D01*
X72762665Y-92259998D01*
X72762673Y-92259998D01*
X72799998Y-92263674D01*
X72837323Y-92259998D01*
X76732291Y-92259998D01*
X76782456Y-92335075D01*
X76964923Y-92517542D01*
X77179482Y-92660905D01*
X77417887Y-92759656D01*
X77670976Y-92809998D01*
X77929024Y-92809998D01*
X78182113Y-92759656D01*
X78420518Y-92660905D01*
X78635077Y-92517542D01*
X78800000Y-92352619D01*
X78964923Y-92517542D01*
X79179482Y-92660905D01*
X79417887Y-92759656D01*
X79670976Y-92809998D01*
X79929024Y-92809998D01*
X80182113Y-92759656D01*
X80420518Y-92660905D01*
X80635077Y-92517542D01*
X80817544Y-92335075D01*
X80960907Y-92120516D01*
X81059658Y-91882111D01*
X81110000Y-91629022D01*
X81110000Y-91370974D01*
X81092385Y-91282415D01*
X88086095Y-84288706D01*
X88115088Y-84264912D01*
X88138882Y-84235919D01*
X88138886Y-84235915D01*
X88210060Y-84149188D01*
X88215456Y-84139093D01*
X88280633Y-84017158D01*
X88324090Y-83873897D01*
X88335087Y-83762244D01*
X88335087Y-83762235D01*
X88338763Y-83724912D01*
X88335087Y-83687589D01*
X88335087Y-49284719D01*
X88338763Y-49247396D01*
X88335087Y-49210073D01*
X88335087Y-49210064D01*
X88324090Y-49098411D01*
X88280633Y-48955150D01*
X88210061Y-48823121D01*
X88115088Y-48707396D01*
X88086091Y-48683599D01*
X83766416Y-44363927D01*
X83742613Y-44334923D01*
X83626888Y-44239950D01*
X83494859Y-44169378D01*
X83351598Y-44125921D01*
X83239945Y-44114924D01*
X83239934Y-44114924D01*
X83202612Y-44111248D01*
X83165289Y-44114924D01*
X74462401Y-44114924D01*
X74425076Y-44111248D01*
X74387751Y-44114924D01*
X74387743Y-44114924D01*
X74276090Y-44125921D01*
X74132829Y-44169378D01*
X74000800Y-44239950D01*
X73885075Y-44334923D01*
X73861277Y-44363921D01*
X70085709Y-48139490D01*
X70001898Y-48104774D01*
X69801939Y-48065000D01*
X69598061Y-48065000D01*
X69398102Y-48104774D01*
X69209744Y-48182795D01*
X69097969Y-48257481D01*
X65404416Y-44563930D01*
X65380613Y-44534926D01*
X65264888Y-44439953D01*
X65132859Y-44369381D01*
X64989598Y-44325924D01*
X64877945Y-44314927D01*
X64877934Y-44314927D01*
X64840612Y-44311251D01*
X64803290Y-44314927D01*
X55798114Y-44314927D01*
X55760791Y-44311251D01*
X55723468Y-44314927D01*
X55723458Y-44314927D01*
X55611805Y-44325924D01*
X55468544Y-44369381D01*
X55336514Y-44439953D01*
X55252874Y-44508595D01*
X55220790Y-44534926D01*
X55196992Y-44563924D01*
X51213922Y-48546995D01*
X51184918Y-48570798D01*
X51132791Y-48634315D01*
X51089945Y-48686523D01*
X51036668Y-48786197D01*
X51019373Y-48818553D01*
X50975916Y-48961814D01*
X50964919Y-49073467D01*
X50964919Y-49073477D01*
X50961243Y-49110799D01*
X47560000Y-49110799D01*
X47560000Y-42319608D01*
X47589831Y-42289777D01*
X47829976Y-42677018D01*
X48323877Y-42937641D01*
X48859133Y-43096901D01*
X49415174Y-43148678D01*
X49970632Y-43090981D01*
X50504161Y-42926028D01*
X50970024Y-42677018D01*
X51210170Y-42289775D01*
X49400000Y-40479605D01*
X49385858Y-40493748D01*
X49206253Y-40314143D01*
X49220395Y-40300000D01*
X49206253Y-40285858D01*
X49385858Y-40106253D01*
X49400000Y-40120395D01*
X49414143Y-40106253D01*
X49593748Y-40285858D01*
X49579605Y-40300000D01*
X51389775Y-42110170D01*
X51777018Y-41870024D01*
X52037641Y-41376123D01*
X52196901Y-40840867D01*
X52248678Y-40284826D01*
X52190981Y-39729368D01*
X52026028Y-39195839D01*
X51777018Y-38729976D01*
X51389777Y-38489831D01*
X51419608Y-38460000D01*
X87780392Y-38460000D01*
X87810223Y-38489831D01*
G37*
%TD.AperFunction*%
D16*
X72204774Y-49501898D02*
X72282795Y-49690256D01*
X72396063Y-49859774D01*
X72540226Y-50003937D01*
X72709744Y-50117205D01*
X72898102Y-50195226D01*
X73098061Y-50235000D01*
X73301939Y-50235000D01*
X73501898Y-50195226D01*
X73690256Y-50117205D01*
X73700000Y-50110694D01*
X73709744Y-50117205D01*
X73898102Y-50195226D01*
X74098061Y-50235000D01*
X74301939Y-50235000D01*
X74501898Y-50195226D01*
X74690256Y-50117205D01*
X74700000Y-50110694D01*
X74709744Y-50117205D01*
X74898102Y-50195226D01*
X75098061Y-50235000D01*
X75301939Y-50235000D01*
X75501898Y-50195226D01*
X75690256Y-50117205D01*
X75700000Y-50110694D01*
X75709744Y-50117205D01*
X75898102Y-50195226D01*
X76098061Y-50235000D01*
X76301939Y-50235000D01*
X76501898Y-50195226D01*
X76690256Y-50117205D01*
X76700002Y-50110693D01*
X76709747Y-50117205D01*
X76898105Y-50195226D01*
X77098064Y-50235000D01*
X77301942Y-50235000D01*
X77501901Y-50195226D01*
X77690259Y-50117205D01*
X77859777Y-50003937D01*
X78003940Y-49859774D01*
X78117208Y-49690256D01*
X78195229Y-49501898D01*
X78200002Y-49477905D01*
X78204774Y-49501898D01*
X78282795Y-49690256D01*
X78396063Y-49859774D01*
X78540226Y-50003937D01*
X78709744Y-50117205D01*
X78898102Y-50195226D01*
X79098061Y-50235000D01*
X79301939Y-50235000D01*
X79501898Y-50195226D01*
X79690256Y-50117205D01*
X79809353Y-50037627D01*
X79890382Y-50071191D01*
X80090341Y-50110965D01*
X80294219Y-50110965D01*
X80494178Y-50071191D01*
X80584740Y-50033679D01*
X80709747Y-50117205D01*
X80898105Y-50195226D01*
X81098064Y-50235000D01*
X81301942Y-50235000D01*
X81501901Y-50195226D01*
X81656420Y-50131222D01*
X82765002Y-51239804D01*
X82765002Y-52773626D01*
X82721637Y-52765000D01*
X82478363Y-52765000D01*
X82239764Y-52812460D01*
X82171469Y-52840749D01*
X82117205Y-52709744D01*
X82003937Y-52540226D01*
X81859774Y-52396063D01*
X81690256Y-52282795D01*
X81501898Y-52204774D01*
X81301939Y-52165000D01*
X81098061Y-52165000D01*
X80898102Y-52204774D01*
X80709744Y-52282795D01*
X80671836Y-52308125D01*
X80659774Y-52296063D01*
X80490256Y-52182795D01*
X80301898Y-52104774D01*
X80101939Y-52065000D01*
X79898061Y-52065000D01*
X79698102Y-52104774D01*
X79590102Y-52149510D01*
X79490256Y-52082795D01*
X79301898Y-52004774D01*
X79101939Y-51965000D01*
X78898061Y-51965000D01*
X78698102Y-52004774D01*
X78509744Y-52082795D01*
X78350000Y-52189532D01*
X78190256Y-52082795D01*
X78001898Y-52004774D01*
X77801939Y-51965000D01*
X77598061Y-51965000D01*
X77398102Y-52004774D01*
X77209744Y-52082795D01*
X77156259Y-52118532D01*
X77103937Y-52040226D01*
X76959774Y-51896063D01*
X76790256Y-51782795D01*
X76601898Y-51704774D01*
X76401939Y-51665000D01*
X76198061Y-51665000D01*
X75998102Y-51704774D01*
X75828372Y-51775079D01*
X75690259Y-51682795D01*
X75501901Y-51604774D01*
X75301942Y-51565000D01*
X75098064Y-51565000D01*
X74898105Y-51604774D01*
X74709747Y-51682795D01*
X74700002Y-51689307D01*
X74690256Y-51682795D01*
X74501898Y-51604774D01*
X74301939Y-51565000D01*
X74098061Y-51565000D01*
X73898102Y-51604774D01*
X73709744Y-51682795D01*
X73700000Y-51689306D01*
X73690256Y-51682795D01*
X73501898Y-51604774D01*
X73301939Y-51565000D01*
X73098061Y-51565000D01*
X72898102Y-51604774D01*
X72709744Y-51682795D01*
X72540226Y-51796063D01*
X72396063Y-51940226D01*
X72282795Y-52109744D01*
X72204774Y-52298102D01*
X72165000Y-52498061D01*
X72165000Y-52701939D01*
X72204774Y-52901898D01*
X72282795Y-53090256D01*
X72396063Y-53259774D01*
X72440000Y-53303711D01*
X72440001Y-86262667D01*
X72436324Y-86300000D01*
X72440001Y-86337333D01*
X72450998Y-86448986D01*
X72459109Y-86475724D01*
X72494454Y-86592246D01*
X72565026Y-86724276D01*
X72618142Y-86788997D01*
X72660000Y-86840001D01*
X72688998Y-86863799D01*
X73836203Y-88011006D01*
X73859997Y-88039999D01*
X73888990Y-88063793D01*
X73888994Y-88063797D01*
X73958107Y-88120516D01*
X73975722Y-88134972D01*
X74107751Y-88205544D01*
X74251012Y-88249001D01*
X74362665Y-88259998D01*
X74362674Y-88259998D01*
X74399997Y-88263674D01*
X74437320Y-88259998D01*
X76732291Y-88259998D01*
X76782456Y-88335075D01*
X76947379Y-88499998D01*
X76782456Y-88664921D01*
X76732291Y-88739998D01*
X74014801Y-88739998D01*
X71860000Y-86585199D01*
X71860000Y-53203711D01*
X71903937Y-53159774D01*
X72017205Y-52990256D01*
X72095226Y-52801898D01*
X72135000Y-52601939D01*
X72135000Y-52398061D01*
X72095226Y-52198102D01*
X72017205Y-52009744D01*
X71903937Y-51840226D01*
X71759774Y-51696063D01*
X71590256Y-51582795D01*
X71401898Y-51504774D01*
X71201939Y-51465000D01*
X70998061Y-51465000D01*
X70798102Y-51504774D01*
X70609744Y-51582795D01*
X70600000Y-51589306D01*
X70590256Y-51582795D01*
X70401898Y-51504774D01*
X70201939Y-51465000D01*
X69998061Y-51465000D01*
X69798102Y-51504774D01*
X69609744Y-51582795D01*
X69600000Y-51589306D01*
X69590256Y-51582795D01*
X69401898Y-51504774D01*
X69201939Y-51465000D01*
X68998061Y-51465000D01*
X68798102Y-51504774D01*
X68609744Y-51582795D01*
X68600000Y-51589306D01*
X68590256Y-51582795D01*
X68401898Y-51504774D01*
X68201939Y-51465000D01*
X67998061Y-51465000D01*
X67798102Y-51504774D01*
X67609744Y-51582795D01*
X67600000Y-51589306D01*
X67590256Y-51582795D01*
X67401898Y-51504774D01*
X67201939Y-51465000D01*
X66998061Y-51465000D01*
X66798102Y-51504774D01*
X66609744Y-51582795D01*
X66440226Y-51696063D01*
X66296063Y-51840226D01*
X66182795Y-52009744D01*
X66129291Y-52138914D01*
X66117208Y-52109744D01*
X66003940Y-51940226D01*
X65859777Y-51796063D01*
X65690259Y-51682795D01*
X65501901Y-51604774D01*
X65301942Y-51565000D01*
X65098064Y-51565000D01*
X64898105Y-51604774D01*
X64709747Y-51682795D01*
X64700002Y-51689307D01*
X64690256Y-51682795D01*
X64501898Y-51604774D01*
X64301939Y-51565000D01*
X64098061Y-51565000D01*
X63898102Y-51604774D01*
X63709744Y-51682795D01*
X63650000Y-51722715D01*
X63590256Y-51682795D01*
X63401898Y-51604774D01*
X63201939Y-51565000D01*
X62998061Y-51565000D01*
X62798102Y-51604774D01*
X62609744Y-51682795D01*
X62600000Y-51689306D01*
X62590256Y-51682795D01*
X62401898Y-51604774D01*
X62201939Y-51565000D01*
X61998061Y-51565000D01*
X61798102Y-51604774D01*
X61609744Y-51682795D01*
X61600000Y-51689306D01*
X61590256Y-51682795D01*
X61401898Y-51604774D01*
X61201939Y-51565000D01*
X60998061Y-51565000D01*
X60798102Y-51604774D01*
X60609744Y-51682795D01*
X60440226Y-51796063D01*
X60296063Y-51940226D01*
X60182795Y-52109744D01*
X60150000Y-52188918D01*
X60117205Y-52109744D01*
X60003937Y-51940226D01*
X59859774Y-51796063D01*
X59690256Y-51682795D01*
X59501898Y-51604774D01*
X59301939Y-51565000D01*
X59098061Y-51565000D01*
X58898102Y-51604774D01*
X58709744Y-51682795D01*
X58650000Y-51722715D01*
X58590256Y-51682795D01*
X58401898Y-51604774D01*
X58201939Y-51565000D01*
X57998061Y-51565000D01*
X57835001Y-51597434D01*
X57835001Y-50408533D01*
X57901898Y-50395226D01*
X58090256Y-50317205D01*
X58150000Y-50277285D01*
X58209744Y-50317205D01*
X58398102Y-50395226D01*
X58598061Y-50435000D01*
X58801939Y-50435000D01*
X59001898Y-50395226D01*
X59190256Y-50317205D01*
X59200000Y-50310694D01*
X59209744Y-50317205D01*
X59398102Y-50395226D01*
X59598061Y-50435000D01*
X59801939Y-50435000D01*
X60001898Y-50395226D01*
X60190256Y-50317205D01*
X60359774Y-50203937D01*
X60503937Y-50059774D01*
X60617205Y-49890256D01*
X60670711Y-49761082D01*
X60682795Y-49790256D01*
X60796063Y-49959774D01*
X60940226Y-50103937D01*
X61109744Y-50217205D01*
X61298102Y-50295226D01*
X61498061Y-50335000D01*
X61701939Y-50335000D01*
X61901898Y-50295226D01*
X62090256Y-50217205D01*
X62150000Y-50177285D01*
X62209744Y-50217205D01*
X62398102Y-50295226D01*
X62598061Y-50335000D01*
X62801939Y-50335000D01*
X63001898Y-50295226D01*
X63190256Y-50217205D01*
X63200000Y-50210694D01*
X63209744Y-50217205D01*
X63398102Y-50295226D01*
X63598061Y-50335000D01*
X63801939Y-50335000D01*
X64001898Y-50295226D01*
X64190256Y-50217205D01*
X64297399Y-50145615D01*
X64391988Y-50184795D01*
X64591947Y-50224569D01*
X64795825Y-50224569D01*
X64995784Y-50184795D01*
X65184142Y-50106774D01*
X65185240Y-50106041D01*
X65203565Y-50118285D01*
X65391923Y-50196306D01*
X65591882Y-50236080D01*
X65795760Y-50236080D01*
X65995719Y-50196306D01*
X66184077Y-50118285D01*
X66353595Y-50005017D01*
X66497758Y-49860854D01*
X66604587Y-49700973D01*
X66604771Y-49701898D01*
X66682792Y-49890256D01*
X66796060Y-50059774D01*
X66940223Y-50203937D01*
X67109741Y-50317205D01*
X67298099Y-50395226D01*
X67498058Y-50435000D01*
X67701936Y-50435000D01*
X67901895Y-50395226D01*
X68090253Y-50317205D01*
X68099999Y-50310693D01*
X68109744Y-50317205D01*
X68298102Y-50395226D01*
X68498061Y-50435000D01*
X68701939Y-50435000D01*
X68901898Y-50395226D01*
X69090256Y-50317205D01*
X69259774Y-50203937D01*
X69377160Y-50086551D01*
X69398102Y-50095226D01*
X69598061Y-50135000D01*
X69801939Y-50135000D01*
X70001898Y-50095226D01*
X70190256Y-50017205D01*
X70328366Y-49924923D01*
X70392246Y-49905546D01*
X70424562Y-49888273D01*
X70540226Y-50003937D01*
X70709744Y-50117205D01*
X70898102Y-50195226D01*
X71098061Y-50235000D01*
X71301939Y-50235000D01*
X71501898Y-50195226D01*
X71690256Y-50117205D01*
X71859774Y-50003937D01*
X72003937Y-49859774D01*
X72117205Y-49690256D01*
X72195226Y-49501898D01*
X72200000Y-49477897D01*
X72204774Y-49501898D01*
%TA.AperFunction,Conductor*%
D17*
G36*
X72204774Y-49501898D02*
G01*
X72282795Y-49690256D01*
X72396063Y-49859774D01*
X72540226Y-50003937D01*
X72709744Y-50117205D01*
X72898102Y-50195226D01*
X73098061Y-50235000D01*
X73301939Y-50235000D01*
X73501898Y-50195226D01*
X73690256Y-50117205D01*
X73700000Y-50110694D01*
X73709744Y-50117205D01*
X73898102Y-50195226D01*
X74098061Y-50235000D01*
X74301939Y-50235000D01*
X74501898Y-50195226D01*
X74690256Y-50117205D01*
X74700000Y-50110694D01*
X74709744Y-50117205D01*
X74898102Y-50195226D01*
X75098061Y-50235000D01*
X75301939Y-50235000D01*
X75501898Y-50195226D01*
X75690256Y-50117205D01*
X75700000Y-50110694D01*
X75709744Y-50117205D01*
X75898102Y-50195226D01*
X76098061Y-50235000D01*
X76301939Y-50235000D01*
X76501898Y-50195226D01*
X76690256Y-50117205D01*
X76700002Y-50110693D01*
X76709747Y-50117205D01*
X76898105Y-50195226D01*
X77098064Y-50235000D01*
X77301942Y-50235000D01*
X77501901Y-50195226D01*
X77690259Y-50117205D01*
X77859777Y-50003937D01*
X78003940Y-49859774D01*
X78117208Y-49690256D01*
X78195229Y-49501898D01*
X78200002Y-49477905D01*
X78204774Y-49501898D01*
X78282795Y-49690256D01*
X78396063Y-49859774D01*
X78540226Y-50003937D01*
X78709744Y-50117205D01*
X78898102Y-50195226D01*
X79098061Y-50235000D01*
X79301939Y-50235000D01*
X79501898Y-50195226D01*
X79690256Y-50117205D01*
X79809353Y-50037627D01*
X79890382Y-50071191D01*
X80090341Y-50110965D01*
X80294219Y-50110965D01*
X80494178Y-50071191D01*
X80584740Y-50033679D01*
X80709747Y-50117205D01*
X80898105Y-50195226D01*
X81098064Y-50235000D01*
X81301942Y-50235000D01*
X81501901Y-50195226D01*
X81656420Y-50131222D01*
X82765002Y-51239804D01*
X82765002Y-52773626D01*
X82721637Y-52765000D01*
X82478363Y-52765000D01*
X82239764Y-52812460D01*
X82171469Y-52840749D01*
X82117205Y-52709744D01*
X82003937Y-52540226D01*
X81859774Y-52396063D01*
X81690256Y-52282795D01*
X81501898Y-52204774D01*
X81301939Y-52165000D01*
X81098061Y-52165000D01*
X80898102Y-52204774D01*
X80709744Y-52282795D01*
X80671836Y-52308125D01*
X80659774Y-52296063D01*
X80490256Y-52182795D01*
X80301898Y-52104774D01*
X80101939Y-52065000D01*
X79898061Y-52065000D01*
X79698102Y-52104774D01*
X79590102Y-52149510D01*
X79490256Y-52082795D01*
X79301898Y-52004774D01*
X79101939Y-51965000D01*
X78898061Y-51965000D01*
X78698102Y-52004774D01*
X78509744Y-52082795D01*
X78350000Y-52189532D01*
X78190256Y-52082795D01*
X78001898Y-52004774D01*
X77801939Y-51965000D01*
X77598061Y-51965000D01*
X77398102Y-52004774D01*
X77209744Y-52082795D01*
X77156259Y-52118532D01*
X77103937Y-52040226D01*
X76959774Y-51896063D01*
X76790256Y-51782795D01*
X76601898Y-51704774D01*
X76401939Y-51665000D01*
X76198061Y-51665000D01*
X75998102Y-51704774D01*
X75828372Y-51775079D01*
X75690259Y-51682795D01*
X75501901Y-51604774D01*
X75301942Y-51565000D01*
X75098064Y-51565000D01*
X74898105Y-51604774D01*
X74709747Y-51682795D01*
X74700002Y-51689307D01*
X74690256Y-51682795D01*
X74501898Y-51604774D01*
X74301939Y-51565000D01*
X74098061Y-51565000D01*
X73898102Y-51604774D01*
X73709744Y-51682795D01*
X73700000Y-51689306D01*
X73690256Y-51682795D01*
X73501898Y-51604774D01*
X73301939Y-51565000D01*
X73098061Y-51565000D01*
X72898102Y-51604774D01*
X72709744Y-51682795D01*
X72540226Y-51796063D01*
X72396063Y-51940226D01*
X72282795Y-52109744D01*
X72204774Y-52298102D01*
X72165000Y-52498061D01*
X72165000Y-52701939D01*
X72204774Y-52901898D01*
X72282795Y-53090256D01*
X72396063Y-53259774D01*
X72440000Y-53303711D01*
X72440001Y-86262667D01*
X72436324Y-86300000D01*
X72440001Y-86337333D01*
X72450998Y-86448986D01*
X72459109Y-86475724D01*
X72494454Y-86592246D01*
X72565026Y-86724276D01*
X72618142Y-86788997D01*
X72660000Y-86840001D01*
X72688998Y-86863799D01*
X73836203Y-88011006D01*
X73859997Y-88039999D01*
X73888990Y-88063793D01*
X73888994Y-88063797D01*
X73958107Y-88120516D01*
X73975722Y-88134972D01*
X74107751Y-88205544D01*
X74251012Y-88249001D01*
X74362665Y-88259998D01*
X74362674Y-88259998D01*
X74399997Y-88263674D01*
X74437320Y-88259998D01*
X76732291Y-88259998D01*
X76782456Y-88335075D01*
X76947379Y-88499998D01*
X76782456Y-88664921D01*
X76732291Y-88739998D01*
X74014801Y-88739998D01*
X71860000Y-86585199D01*
X71860000Y-53203711D01*
X71903937Y-53159774D01*
X72017205Y-52990256D01*
X72095226Y-52801898D01*
X72135000Y-52601939D01*
X72135000Y-52398061D01*
X72095226Y-52198102D01*
X72017205Y-52009744D01*
X71903937Y-51840226D01*
X71759774Y-51696063D01*
X71590256Y-51582795D01*
X71401898Y-51504774D01*
X71201939Y-51465000D01*
X70998061Y-51465000D01*
X70798102Y-51504774D01*
X70609744Y-51582795D01*
X70600000Y-51589306D01*
X70590256Y-51582795D01*
X70401898Y-51504774D01*
X70201939Y-51465000D01*
X69998061Y-51465000D01*
X69798102Y-51504774D01*
X69609744Y-51582795D01*
X69600000Y-51589306D01*
X69590256Y-51582795D01*
X69401898Y-51504774D01*
X69201939Y-51465000D01*
X68998061Y-51465000D01*
X68798102Y-51504774D01*
X68609744Y-51582795D01*
X68600000Y-51589306D01*
X68590256Y-51582795D01*
X68401898Y-51504774D01*
X68201939Y-51465000D01*
X67998061Y-51465000D01*
X67798102Y-51504774D01*
X67609744Y-51582795D01*
X67600000Y-51589306D01*
X67590256Y-51582795D01*
X67401898Y-51504774D01*
X67201939Y-51465000D01*
X66998061Y-51465000D01*
X66798102Y-51504774D01*
X66609744Y-51582795D01*
X66440226Y-51696063D01*
X66296063Y-51840226D01*
X66182795Y-52009744D01*
X66129291Y-52138914D01*
X66117208Y-52109744D01*
X66003940Y-51940226D01*
X65859777Y-51796063D01*
X65690259Y-51682795D01*
X65501901Y-51604774D01*
X65301942Y-51565000D01*
X65098064Y-51565000D01*
X64898105Y-51604774D01*
X64709747Y-51682795D01*
X64700002Y-51689307D01*
X64690256Y-51682795D01*
X64501898Y-51604774D01*
X64301939Y-51565000D01*
X64098061Y-51565000D01*
X63898102Y-51604774D01*
X63709744Y-51682795D01*
X63650000Y-51722715D01*
X63590256Y-51682795D01*
X63401898Y-51604774D01*
X63201939Y-51565000D01*
X62998061Y-51565000D01*
X62798102Y-51604774D01*
X62609744Y-51682795D01*
X62600000Y-51689306D01*
X62590256Y-51682795D01*
X62401898Y-51604774D01*
X62201939Y-51565000D01*
X61998061Y-51565000D01*
X61798102Y-51604774D01*
X61609744Y-51682795D01*
X61600000Y-51689306D01*
X61590256Y-51682795D01*
X61401898Y-51604774D01*
X61201939Y-51565000D01*
X60998061Y-51565000D01*
X60798102Y-51604774D01*
X60609744Y-51682795D01*
X60440226Y-51796063D01*
X60296063Y-51940226D01*
X60182795Y-52109744D01*
X60150000Y-52188918D01*
X60117205Y-52109744D01*
X60003937Y-51940226D01*
X59859774Y-51796063D01*
X59690256Y-51682795D01*
X59501898Y-51604774D01*
X59301939Y-51565000D01*
X59098061Y-51565000D01*
X58898102Y-51604774D01*
X58709744Y-51682795D01*
X58650000Y-51722715D01*
X58590256Y-51682795D01*
X58401898Y-51604774D01*
X58201939Y-51565000D01*
X57998061Y-51565000D01*
X57835001Y-51597434D01*
X57835001Y-50408533D01*
X57901898Y-50395226D01*
X58090256Y-50317205D01*
X58150000Y-50277285D01*
X58209744Y-50317205D01*
X58398102Y-50395226D01*
X58598061Y-50435000D01*
X58801939Y-50435000D01*
X59001898Y-50395226D01*
X59190256Y-50317205D01*
X59200000Y-50310694D01*
X59209744Y-50317205D01*
X59398102Y-50395226D01*
X59598061Y-50435000D01*
X59801939Y-50435000D01*
X60001898Y-50395226D01*
X60190256Y-50317205D01*
X60359774Y-50203937D01*
X60503937Y-50059774D01*
X60617205Y-49890256D01*
X60670711Y-49761082D01*
X60682795Y-49790256D01*
X60796063Y-49959774D01*
X60940226Y-50103937D01*
X61109744Y-50217205D01*
X61298102Y-50295226D01*
X61498061Y-50335000D01*
X61701939Y-50335000D01*
X61901898Y-50295226D01*
X62090256Y-50217205D01*
X62150000Y-50177285D01*
X62209744Y-50217205D01*
X62398102Y-50295226D01*
X62598061Y-50335000D01*
X62801939Y-50335000D01*
X63001898Y-50295226D01*
X63190256Y-50217205D01*
X63200000Y-50210694D01*
X63209744Y-50217205D01*
X63398102Y-50295226D01*
X63598061Y-50335000D01*
X63801939Y-50335000D01*
X64001898Y-50295226D01*
X64190256Y-50217205D01*
X64297399Y-50145615D01*
X64391988Y-50184795D01*
X64591947Y-50224569D01*
X64795825Y-50224569D01*
X64995784Y-50184795D01*
X65184142Y-50106774D01*
X65185240Y-50106041D01*
X65203565Y-50118285D01*
X65391923Y-50196306D01*
X65591882Y-50236080D01*
X65795760Y-50236080D01*
X65995719Y-50196306D01*
X66184077Y-50118285D01*
X66353595Y-50005017D01*
X66497758Y-49860854D01*
X66604587Y-49700973D01*
X66604771Y-49701898D01*
X66682792Y-49890256D01*
X66796060Y-50059774D01*
X66940223Y-50203937D01*
X67109741Y-50317205D01*
X67298099Y-50395226D01*
X67498058Y-50435000D01*
X67701936Y-50435000D01*
X67901895Y-50395226D01*
X68090253Y-50317205D01*
X68099999Y-50310693D01*
X68109744Y-50317205D01*
X68298102Y-50395226D01*
X68498061Y-50435000D01*
X68701939Y-50435000D01*
X68901898Y-50395226D01*
X69090256Y-50317205D01*
X69259774Y-50203937D01*
X69377160Y-50086551D01*
X69398102Y-50095226D01*
X69598061Y-50135000D01*
X69801939Y-50135000D01*
X70001898Y-50095226D01*
X70190256Y-50017205D01*
X70328366Y-49924923D01*
X70392246Y-49905546D01*
X70424562Y-49888273D01*
X70540226Y-50003937D01*
X70709744Y-50117205D01*
X70898102Y-50195226D01*
X71098061Y-50235000D01*
X71301939Y-50235000D01*
X71501898Y-50195226D01*
X71690256Y-50117205D01*
X71859774Y-50003937D01*
X72003937Y-49859774D01*
X72117205Y-49690256D01*
X72195226Y-49501898D01*
X72200000Y-49477897D01*
X72204774Y-49501898D01*
G37*
%TD.AperFunction*%
D16*
X81412460Y-54360236D02*
X81505557Y-54584992D01*
X81640713Y-54787267D01*
X81812733Y-54959287D01*
X82015008Y-55094443D01*
X82239764Y-55187540D01*
X82478363Y-55235000D01*
X82721637Y-55235000D01*
X82765002Y-55226374D01*
X82765001Y-71160197D01*
X81185201Y-72739998D01*
X80867709Y-72739998D01*
X80817544Y-72664921D01*
X80635077Y-72482454D01*
X80420518Y-72339091D01*
X80182113Y-72240340D01*
X79929024Y-72189998D01*
X79670976Y-72189998D01*
X79417887Y-72240340D01*
X79179482Y-72339091D01*
X78997487Y-72460695D01*
X78926185Y-72373813D01*
X78829494Y-72294461D01*
X78719180Y-72235496D01*
X78599482Y-72199186D01*
X78560000Y-72195297D01*
X78560000Y-56914801D01*
X81239802Y-54235000D01*
X81301939Y-54235000D01*
X81384291Y-54218619D01*
X81412460Y-54360236D01*
%TA.AperFunction,Conductor*%
D17*
G36*
X81412460Y-54360236D02*
G01*
X81505557Y-54584992D01*
X81640713Y-54787267D01*
X81812733Y-54959287D01*
X82015008Y-55094443D01*
X82239764Y-55187540D01*
X82478363Y-55235000D01*
X82721637Y-55235000D01*
X82765002Y-55226374D01*
X82765001Y-71160197D01*
X81185201Y-72739998D01*
X80867709Y-72739998D01*
X80817544Y-72664921D01*
X80635077Y-72482454D01*
X80420518Y-72339091D01*
X80182113Y-72240340D01*
X79929024Y-72189998D01*
X79670976Y-72189998D01*
X79417887Y-72240340D01*
X79179482Y-72339091D01*
X78997487Y-72460695D01*
X78926185Y-72373813D01*
X78829494Y-72294461D01*
X78719180Y-72235496D01*
X78599482Y-72199186D01*
X78560000Y-72195297D01*
X78560000Y-56914801D01*
X81239802Y-54235000D01*
X81301939Y-54235000D01*
X81384291Y-54218619D01*
X81412460Y-54360236D01*
G37*
%TD.AperFunction*%
D16*
X64440000Y-71314802D02*
X64440001Y-72385198D01*
X64285199Y-72540000D01*
X63967709Y-72540000D01*
X63917544Y-72464923D01*
X63735077Y-72282456D01*
X63520518Y-72139093D01*
X63282113Y-72040342D01*
X63029024Y-71990000D01*
X62770976Y-71990000D01*
X62517887Y-72040342D01*
X62279482Y-72139093D01*
X62097487Y-72260697D01*
X62026185Y-72173815D01*
X61929494Y-72094463D01*
X61819180Y-72035498D01*
X61699482Y-71999188D01*
X61575000Y-71986928D01*
X60225000Y-71986928D01*
X60100518Y-71999188D01*
X59980820Y-72035498D01*
X59870506Y-72094463D01*
X59773815Y-72173815D01*
X59694463Y-72270506D01*
X59635498Y-72380820D01*
X59599188Y-72500518D01*
X59595299Y-72540000D01*
X57914802Y-72540000D01*
X57860000Y-72485198D01*
X57860000Y-64734801D01*
X64440000Y-71314802D01*
%TA.AperFunction,Conductor*%
D17*
G36*
X64440000Y-71314802D02*
G01*
X64440001Y-72385198D01*
X64285199Y-72540000D01*
X63967709Y-72540000D01*
X63917544Y-72464923D01*
X63735077Y-72282456D01*
X63520518Y-72139093D01*
X63282113Y-72040342D01*
X63029024Y-71990000D01*
X62770976Y-71990000D01*
X62517887Y-72040342D01*
X62279482Y-72139093D01*
X62097487Y-72260697D01*
X62026185Y-72173815D01*
X61929494Y-72094463D01*
X61819180Y-72035498D01*
X61699482Y-71999188D01*
X61575000Y-71986928D01*
X60225000Y-71986928D01*
X60100518Y-71999188D01*
X59980820Y-72035498D01*
X59870506Y-72094463D01*
X59773815Y-72173815D01*
X59694463Y-72270506D01*
X59635498Y-72380820D01*
X59599188Y-72500518D01*
X59595299Y-72540000D01*
X57914802Y-72540000D01*
X57860000Y-72485198D01*
X57860000Y-64734801D01*
X64440000Y-71314802D01*
G37*
%TD.AperFunction*%
D16*
X56315002Y-56237669D02*
X56311325Y-56275001D01*
X56315002Y-56312334D01*
X56325999Y-56423987D01*
X56334198Y-56451015D01*
X56340000Y-56470143D01*
X56340001Y-71765200D01*
X56084999Y-71510198D01*
X56084999Y-55185000D01*
X56315002Y-55185000D01*
X56315002Y-56237669D01*
%TA.AperFunction,Conductor*%
D17*
G36*
X56315002Y-56237669D02*
G01*
X56311325Y-56275001D01*
X56315002Y-56312334D01*
X56325999Y-56423987D01*
X56334198Y-56451015D01*
X56340000Y-56470143D01*
X56340001Y-71765200D01*
X56084999Y-71510198D01*
X56084999Y-55185000D01*
X56315002Y-55185000D01*
X56315002Y-56237669D01*
G37*
%TD.AperFunction*%
D16*
X66182795Y-52990256D02*
X66296063Y-53159774D01*
X66340000Y-53203711D01*
X66340001Y-67246741D01*
X65960003Y-66866744D01*
X65960003Y-53303711D01*
X66003940Y-53259774D01*
X66117208Y-53090256D01*
X66170712Y-52961086D01*
X66182795Y-52990256D01*
%TA.AperFunction,Conductor*%
D17*
G36*
X66182795Y-52990256D02*
G01*
X66296063Y-53159774D01*
X66340000Y-53203711D01*
X66340001Y-67246741D01*
X65960003Y-66866744D01*
X65960003Y-53303711D01*
X66003940Y-53259774D01*
X66117208Y-53090256D01*
X66170712Y-52961086D01*
X66182795Y-52990256D01*
G37*
%TD.AperFunction*%
D16*
X60182795Y-53090256D02*
X60296063Y-53259774D01*
X60340000Y-53303711D01*
X60340001Y-64428790D01*
X59960000Y-64048789D01*
X59960000Y-53303711D01*
X60003937Y-53259774D01*
X60117205Y-53090256D01*
X60150000Y-53011082D01*
X60182795Y-53090256D01*
%TA.AperFunction,Conductor*%
D17*
G36*
X60182795Y-53090256D02*
G01*
X60296063Y-53259774D01*
X60340000Y-53303711D01*
X60340001Y-64428790D01*
X59960000Y-64048789D01*
X59960000Y-53303711D01*
X60003937Y-53259774D01*
X60117205Y-53090256D01*
X60150000Y-53011082D01*
X60182795Y-53090256D01*
G37*
%TD.AperFunction*%
%TD*%
M02*
