%TF.GenerationSoftware,KiCad,Pcbnew,(5.1.10)-1*%
%TF.CreationDate,2021-09-20T08:54:39+02:00*%
%TF.ProjectId,breakoutboard,62726561-6b6f-4757-9462-6f6172642e6b,rev?*%
%TF.SameCoordinates,Original*%
%TF.FileFunction,Paste,Top*%
%TF.FilePolarity,Positive*%
%FSLAX46Y46*%
G04 Gerber Fmt 4.6, Leading zero omitted, Abs format (unit mm)*
G04 Created by KiCad (PCBNEW (5.1.10)-1) date 2021-09-20 08:54:39*
%MOMM*%
%LPD*%
G01*
G04 APERTURE LIST*
%ADD10R,0.300000X1.600000*%
%ADD11R,1.600000X3.100000*%
%ADD12R,0.700000X1.600000*%
G04 APERTURE END LIST*
D10*
%TO.C,J1*%
X57650000Y-50950000D03*
X57650000Y-57050000D03*
X58150000Y-50950000D03*
X58150000Y-57050000D03*
X58650000Y-50950000D03*
X58650000Y-57050000D03*
X59150000Y-50950000D03*
X59150000Y-57050000D03*
X59650000Y-50950000D03*
X59650000Y-57050000D03*
X61150000Y-50950000D03*
X61150000Y-57050000D03*
X61650000Y-50950000D03*
X61650000Y-57050000D03*
X62150000Y-50950000D03*
X62150000Y-57050000D03*
X62650000Y-50950000D03*
X62650000Y-57050000D03*
X63150000Y-50950000D03*
X63150000Y-57050000D03*
X63650000Y-50950000D03*
X63650000Y-57050000D03*
X64150000Y-50950000D03*
X64150000Y-57050000D03*
X64650000Y-50950000D03*
X64650000Y-57050000D03*
X65150000Y-50950000D03*
X65150000Y-57050000D03*
X65650000Y-50950000D03*
X65650000Y-57050000D03*
X67150000Y-50950000D03*
X67150000Y-57050000D03*
X67650000Y-50950000D03*
X67650000Y-57050000D03*
X68150000Y-50950000D03*
X68150000Y-57050000D03*
X68650000Y-50950000D03*
X68650000Y-57050000D03*
X69150000Y-50950000D03*
X69150000Y-57050000D03*
X69650000Y-50950000D03*
X69650000Y-57050000D03*
X70150000Y-50950000D03*
X70150000Y-57050000D03*
X70650000Y-50950000D03*
X70650000Y-57050000D03*
X71150000Y-50950000D03*
X71150000Y-57050000D03*
X71650000Y-50950000D03*
X71650000Y-57050000D03*
X73150000Y-50950000D03*
X73150000Y-57050000D03*
X73650000Y-50950000D03*
X73650000Y-57050000D03*
X74150000Y-50950000D03*
X74150000Y-57050000D03*
X74650000Y-50950000D03*
X74650000Y-57050000D03*
X75150000Y-50950000D03*
X75150000Y-57050000D03*
X75650000Y-50950000D03*
X75650000Y-57050000D03*
X76150000Y-50950000D03*
X76150000Y-57050000D03*
X76650000Y-50950000D03*
X76650000Y-57050000D03*
X77150000Y-50950000D03*
X77150000Y-57050000D03*
X77650000Y-50950000D03*
X77650000Y-57050000D03*
X79150000Y-50950000D03*
X79150000Y-57050000D03*
X79650000Y-50950000D03*
X79650000Y-57050000D03*
X80150000Y-50950000D03*
X80150000Y-57050000D03*
X80650000Y-50950000D03*
X80650000Y-57050000D03*
X81150000Y-50950000D03*
X81150000Y-57050000D03*
D11*
X54450000Y-54000000D03*
D12*
X60400000Y-57050000D03*
X66400000Y-57050000D03*
X72400000Y-57050000D03*
X78400000Y-57050000D03*
D11*
X84350000Y-54000000D03*
D12*
X78400000Y-50950000D03*
X72400000Y-50950000D03*
X66400000Y-50950000D03*
X60400000Y-50950000D03*
%TD*%
M02*
