%TF.GenerationSoftware,KiCad,Pcbnew,(5.1.10)-1*%
%TF.CreationDate,2021-09-20T08:54:39+02:00*%
%TF.ProjectId,breakoutboard,62726561-6b6f-4757-9462-6f6172642e6b,rev?*%
%TF.SameCoordinates,Original*%
%TF.FileFunction,Soldermask,Top*%
%TF.FilePolarity,Negative*%
%FSLAX46Y46*%
G04 Gerber Fmt 4.6, Leading zero omitted, Abs format (unit mm)*
G04 Created by KiCad (PCBNEW (5.1.10)-1) date 2021-09-20 08:54:39*
%MOMM*%
%LPD*%
G01*
G04 APERTURE LIST*
%ADD10C,0.700000*%
%ADD11C,4.400000*%
%ADD12O,1.350000X1.350000*%
%ADD13R,1.350000X1.350000*%
%ADD14R,0.300000X1.600000*%
%ADD15R,1.600000X3.100000*%
%ADD16R,0.700000X1.600000*%
G04 APERTURE END LIST*
D10*
%TO.C,H4*%
X50566726Y-41466726D03*
X51050000Y-40300000D03*
X50566726Y-39133274D03*
X49400000Y-38650000D03*
X48233274Y-39133274D03*
X47750000Y-40300000D03*
X48233274Y-41466726D03*
X49400000Y-41950000D03*
D11*
X49400000Y-40300000D03*
%TD*%
D10*
%TO.C,H3*%
X50566726Y-127366726D03*
X51050000Y-126200000D03*
X50566726Y-125033274D03*
X49400000Y-124550000D03*
X48233274Y-125033274D03*
X47750000Y-126200000D03*
X48233274Y-127366726D03*
X49400000Y-127850000D03*
D11*
X49400000Y-126200000D03*
%TD*%
D10*
%TO.C,H2*%
X90966726Y-127366726D03*
X91450000Y-126200000D03*
X90966726Y-125033274D03*
X89800000Y-124550000D03*
X88633274Y-125033274D03*
X88150000Y-126200000D03*
X88633274Y-127366726D03*
X89800000Y-127850000D03*
D11*
X89800000Y-126200000D03*
%TD*%
D10*
%TO.C,H1*%
X90966726Y-41466726D03*
X91450000Y-40300000D03*
X90966726Y-39133274D03*
X89800000Y-38650000D03*
X88633274Y-39133274D03*
X88150000Y-40300000D03*
X88633274Y-41466726D03*
X89800000Y-41950000D03*
D11*
X89800000Y-40300000D03*
%TD*%
D12*
%TO.C,J2*%
X62900000Y-91300000D03*
X60900000Y-91300000D03*
X62900000Y-89300000D03*
X60900000Y-89300000D03*
X62900000Y-87300000D03*
X60900000Y-87300000D03*
X62900000Y-85300000D03*
X60900000Y-85300000D03*
X62900000Y-83300000D03*
X60900000Y-83300000D03*
X62900000Y-81300000D03*
X60900000Y-81300000D03*
X62900000Y-79300000D03*
X60900000Y-79300000D03*
X62900000Y-77300000D03*
X60900000Y-77300000D03*
X62900000Y-75300000D03*
X60900000Y-75300000D03*
X62900000Y-73300000D03*
D13*
X60900000Y-73300000D03*
%TD*%
D12*
%TO.C,J5*%
X79800000Y-117200000D03*
X77800000Y-117200000D03*
X79800000Y-115200000D03*
X77800000Y-115200000D03*
X79800000Y-113200000D03*
X77800000Y-113200000D03*
X79800000Y-111200000D03*
X77800000Y-111200000D03*
X79800000Y-109200000D03*
X77800000Y-109200000D03*
X79800000Y-107200000D03*
X77800000Y-107200000D03*
X79800000Y-105200000D03*
X77800000Y-105200000D03*
X79800000Y-103200000D03*
X77800000Y-103200000D03*
X79800000Y-101200000D03*
X77800000Y-101200000D03*
X79800000Y-99200000D03*
D13*
X77800000Y-99200000D03*
%TD*%
D12*
%TO.C,J4*%
X79800000Y-91499998D03*
X77800000Y-91499998D03*
X79800000Y-89499998D03*
X77800000Y-89499998D03*
X79800000Y-87499998D03*
X77800000Y-87499998D03*
X79800000Y-85499998D03*
X77800000Y-85499998D03*
X79800000Y-83499998D03*
X77800000Y-83499998D03*
X79800000Y-81499998D03*
X77800000Y-81499998D03*
X79800000Y-79499998D03*
X77800000Y-79499998D03*
X79800000Y-77499998D03*
X77800000Y-77499998D03*
X79800000Y-75499998D03*
X77800000Y-75499998D03*
X79800000Y-73499998D03*
D13*
X77800000Y-73499998D03*
%TD*%
D12*
%TO.C,J3*%
X62900000Y-117200000D03*
X60900000Y-117200000D03*
X62900000Y-115200000D03*
X60900000Y-115200000D03*
X62900000Y-113200000D03*
X60900000Y-113200000D03*
X62900000Y-111200000D03*
X60900000Y-111200000D03*
X62900000Y-109200000D03*
X60900000Y-109200000D03*
X62900000Y-107200000D03*
X60900000Y-107200000D03*
X62900000Y-105200000D03*
X60900000Y-105200000D03*
X62900000Y-103200000D03*
X60900000Y-103200000D03*
X62900000Y-101200000D03*
X60900000Y-101200000D03*
X62900000Y-99200000D03*
D13*
X60900000Y-99200000D03*
%TD*%
D14*
%TO.C,J1*%
X57650000Y-50950000D03*
X57650000Y-57050000D03*
X58150000Y-50950000D03*
X58150000Y-57050000D03*
X58650000Y-50950000D03*
X58650000Y-57050000D03*
X59150000Y-50950000D03*
X59150000Y-57050000D03*
X59650000Y-50950000D03*
X59650000Y-57050000D03*
X61150000Y-50950000D03*
X61150000Y-57050000D03*
X61650000Y-50950000D03*
X61650000Y-57050000D03*
X62150000Y-50950000D03*
X62150000Y-57050000D03*
X62650000Y-50950000D03*
X62650000Y-57050000D03*
X63150000Y-50950000D03*
X63150000Y-57050000D03*
X63650000Y-50950000D03*
X63650000Y-57050000D03*
X64150000Y-50950000D03*
X64150000Y-57050000D03*
X64650000Y-50950000D03*
X64650000Y-57050000D03*
X65150000Y-50950000D03*
X65150000Y-57050000D03*
X65650000Y-50950000D03*
X65650000Y-57050000D03*
X67150000Y-50950000D03*
X67150000Y-57050000D03*
X67650000Y-50950000D03*
X67650000Y-57050000D03*
X68150000Y-50950000D03*
X68150000Y-57050000D03*
X68650000Y-50950000D03*
X68650000Y-57050000D03*
X69150000Y-50950000D03*
X69150000Y-57050000D03*
X69650000Y-50950000D03*
X69650000Y-57050000D03*
X70150000Y-50950000D03*
X70150000Y-57050000D03*
X70650000Y-50950000D03*
X70650000Y-57050000D03*
X71150000Y-50950000D03*
X71150000Y-57050000D03*
X71650000Y-50950000D03*
X71650000Y-57050000D03*
X73150000Y-50950000D03*
X73150000Y-57050000D03*
X73650000Y-50950000D03*
X73650000Y-57050000D03*
X74150000Y-50950000D03*
X74150000Y-57050000D03*
X74650000Y-50950000D03*
X74650000Y-57050000D03*
X75150000Y-50950000D03*
X75150000Y-57050000D03*
X75650000Y-50950000D03*
X75650000Y-57050000D03*
X76150000Y-50950000D03*
X76150000Y-57050000D03*
X76650000Y-50950000D03*
X76650000Y-57050000D03*
X77150000Y-50950000D03*
X77150000Y-57050000D03*
X77650000Y-50950000D03*
X77650000Y-57050000D03*
X79150000Y-50950000D03*
X79150000Y-57050000D03*
X79650000Y-50950000D03*
X79650000Y-57050000D03*
X80150000Y-50950000D03*
X80150000Y-57050000D03*
X80650000Y-50950000D03*
X80650000Y-57050000D03*
X81150000Y-50950000D03*
X81150000Y-57050000D03*
D15*
X54450000Y-54000000D03*
D16*
X60400000Y-57050000D03*
X66400000Y-57050000D03*
X72400000Y-57050000D03*
X78400000Y-57050000D03*
D15*
X84350000Y-54000000D03*
D16*
X78400000Y-50950000D03*
X72400000Y-50950000D03*
X66400000Y-50950000D03*
X60400000Y-50950000D03*
%TD*%
M02*
