M48
; DRILL file {KiCad (5.1.10)-1} date 09/20/21 08:54:28
; FORMAT={3:3/ absolute / metric / suppress leading zeros}
; #@! TF.CreationDate,2021-09-20T08:54:28+02:00
; #@! TF.GenerationSoftware,Kicad,Pcbnew,(5.1.10)-1
FMAT,2
METRIC,TZ
T1C0.400
T2C0.800
T3C2.200
T4C1.100
T5C1.200
%
G90
G05
T1
X47750Y-40300
X47750Y-126200
X48233Y-39133
X48233Y-41467
X48233Y-125033
X48233Y-127367
X49400Y-38650
X49400Y-41950
X49400Y-124550
X49400Y-127850
X50567Y-39133
X50567Y-41467
X50567Y-125033
X50567Y-127367
X51050Y-40300
X51050Y-126200
X56300Y-61500
X56300Y-63800
X57600Y-49400
X58100Y-52600
X58700Y-49400
X58900Y-93300
X59200Y-52600
X59700Y-49400
X59800Y-96100
X60081Y-53305
X60100Y-94900
X60200Y-55400
X60400Y-69900
X60900Y-93400
X61100Y-52600
X61600Y-49300
X62100Y-52600
X62700Y-49300
X63000Y-94500
X63100Y-52600
X63700Y-49300
X64200Y-52600
X64694Y-49190
X65200Y-52600
X65694Y-49201
X66115Y-53105
X66300Y-55300
X67100Y-52500
X67600Y-49400
X68100Y-52500
X68600Y-49400
X69100Y-52500
X69700Y-49100
X70100Y-52500
X71100Y-52500
X71200Y-49200
X72300Y-53100
X72300Y-55500
X73200Y-49200
X73200Y-52600
X74200Y-49200
X74200Y-52600
X75200Y-49200
X75200Y-52600
X76200Y-49200
X76300Y-52700
X76400Y-94000
X77100Y-96000
X77200Y-49200
X77700Y-53000
X78350Y-52240
X78800Y-94900
X79000Y-53000
X79200Y-49200
X80000Y-53100
X80192Y-49076
X80500Y-55200
X80700Y-93900
X80800Y-95900
X81200Y-53200
X81200Y-49200
X82400Y-60800
X82500Y-63900
X88150Y-40300
X88150Y-126200
X88633Y-39133
X88633Y-41467
X88633Y-125033
X88633Y-127367
X89800Y-38650
X89800Y-41950
X89800Y-124550
X89800Y-127850
X90967Y-39133
X90967Y-41467
X90967Y-125033
X90967Y-127367
X91450Y-40300
X91450Y-126200
T2
X60900Y-73300
X60900Y-75300
X60900Y-77300
X60900Y-79300
X60900Y-81300
X60900Y-83300
X60900Y-85300
X60900Y-87300
X60900Y-89300
X60900Y-91300
X60900Y-99200
X60900Y-101200
X60900Y-103200
X60900Y-105200
X60900Y-107200
X60900Y-109200
X60900Y-111200
X60900Y-113200
X60900Y-115200
X60900Y-117200
X62900Y-73300
X62900Y-75300
X62900Y-77300
X62900Y-79300
X62900Y-81300
X62900Y-83300
X62900Y-85300
X62900Y-87300
X62900Y-89300
X62900Y-91300
X62900Y-99200
X62900Y-101200
X62900Y-103200
X62900Y-105200
X62900Y-107200
X62900Y-109200
X62900Y-111200
X62900Y-113200
X62900Y-115200
X62900Y-117200
X77800Y-73500
X77800Y-75500
X77800Y-77500
X77800Y-79500
X77800Y-81500
X77800Y-83500
X77800Y-85500
X77800Y-87500
X77800Y-89500
X77800Y-91500
X77800Y-99200
X77800Y-101200
X77800Y-103200
X77800Y-105200
X77800Y-107200
X77800Y-109200
X77800Y-111200
X77800Y-113200
X77800Y-115200
X77800Y-117200
X79800Y-73500
X79800Y-75500
X79800Y-77500
X79800Y-79500
X79800Y-81500
X79800Y-83500
X79800Y-85500
X79800Y-87500
X79800Y-89500
X79800Y-91500
X79800Y-99200
X79800Y-101200
X79800Y-103200
X79800Y-105200
X79800Y-107200
X79800Y-109200
X79800Y-111200
X79800Y-113200
X79800Y-115200
X79800Y-117200
T3
X49400Y-40300
X49400Y-126200
X89800Y-40300
X89800Y-126200
T4
X56200Y-54000
T5
X82600Y-54000
T0
M30
